<svg width="196" height="121" viewBox="0 0 196 121" fill="none" xmlns="http://www.w3.org/2000/svg">
<path d="M43.0117 28.7497C43.0117 27.8923 43.7067 27.1973 44.5641 27.1973H64.7451C65.6025 27.1973 66.2975 27.8923 66.2975 28.7497V100.936C66.2975 101.793 65.6025 102.488 64.7451 102.488H44.5641C43.7067 102.488 43.0117 101.793 43.0117 100.936V28.7497Z" fill="#BFDBEE"/>
<path d="M44.7036 100.796H64.6053V28.8892H44.7036V100.796ZM66.2972 100.935C66.2972 101.739 65.6864 102.401 64.9034 102.48L64.745 102.488H44.564L44.4055 102.48C43.6226 102.401 43.0117 101.739 43.0117 100.935V28.7495C43.0118 27.8923 43.7067 27.1973 44.564 27.1973H64.745C65.6023 27.1973 66.2971 27.8922 66.2972 28.7495V100.935Z" fill="#17222B"/>
<path d="M48.0586 34.1828C48.0586 33.3254 48.7536 32.6304 49.611 32.6304H59.7015C60.5588 32.6304 61.2539 33.3254 61.2539 34.1828V41.1685C61.2539 42.0258 60.5588 42.7209 59.7015 42.7209H49.611C48.7536 42.7209 48.0586 42.0258 48.0586 41.1685V34.1828Z" fill="#BFDBEE"/>
<path d="M49.7505 41.029H59.5617V34.3223H49.7505V41.029ZM61.2536 41.1686L61.2455 41.3271C61.1661 42.1099 60.5051 42.7209 59.7013 42.7209H49.6108C48.8071 42.7208 48.1461 42.1099 48.0667 41.3271L48.0586 41.1686V34.1826C48.0587 33.3254 48.7536 32.6304 49.6108 32.6304H59.7013C60.5586 32.6304 61.2535 33.3253 61.2536 34.1826V41.1686Z" fill="#17222B"/>
<path d="M61.2536 44.6621V46.354H48.0586V44.6621H61.2536Z" fill="#17222B"/>
<path d="M65.5184 85.2725V86.9644H43.7852V85.2725H65.5184Z" fill="#17222B"/>
<path d="M65.5184 90.7051V92.397H43.7852V90.7051H65.5184Z" fill="#17222B"/>
<path d="M65.5184 95.751V97.4429H43.7852V95.751H65.5184Z" fill="#17222B"/>
<path d="M69.0156 28.7497C69.0156 27.8923 69.7107 27.1973 70.568 27.1973H90.749C91.6064 27.1973 92.3014 27.8923 92.3014 28.7497V100.936C92.3014 101.793 91.6064 102.488 90.749 102.488H70.568C69.7107 102.488 69.0156 101.793 69.0156 100.936V28.7497Z" fill="#BFDBEE"/>
<path d="M70.7075 100.796H90.6092V28.8892H70.7075V100.796ZM92.3011 100.935C92.3011 101.739 91.6903 102.401 90.9073 102.48L90.7489 102.488H70.5679L70.4094 102.48C69.6265 102.401 69.0156 101.739 69.0156 100.935V28.7495C69.0157 27.8923 69.7106 27.1973 70.5679 27.1973H90.7489C91.6062 27.1973 92.301 27.8922 92.3011 28.7495V100.935Z" fill="#17222B"/>
<path d="M74.0586 34.1828C74.0586 33.3254 74.7536 32.6304 75.611 32.6304H85.7015C86.5588 32.6304 87.2539 33.3254 87.2539 34.1828V41.1685C87.2539 42.0258 86.5588 42.7209 85.7015 42.7209H75.611C74.7536 42.7209 74.0586 42.0258 74.0586 41.1685V34.1828Z" fill="#BFDBEE"/>
<path d="M75.7505 41.029H85.5617V34.3223H75.7505V41.029ZM87.2536 41.1686L87.2455 41.3271C87.1661 42.1099 86.5051 42.7209 85.7013 42.7209H75.6108C74.8071 42.7208 74.1461 42.1099 74.0667 41.3271L74.0586 41.1686V34.1826C74.0587 33.3254 74.7536 32.6304 75.6108 32.6304H85.7013C86.5586 32.6304 87.2535 33.3253 87.2536 34.1826V41.1686Z" fill="#17222B"/>
<path d="M87.2575 44.6621V46.354H74.0625V44.6621H87.2575Z" fill="#17222B"/>
<path d="M91.5262 85.2725V86.9644H69.793V85.2725H91.5262Z" fill="#17222B"/>
<path d="M91.5262 90.7051V92.397H69.793V90.7051H91.5262Z" fill="#17222B"/>
<path d="M91.5262 95.751V97.4429H69.793V95.751H91.5262Z" fill="#17222B"/>
<path d="M111.17 33.0769C110.944 32.2497 111.432 31.3965 112.26 31.1712L131.731 25.8683C132.559 25.643 133.412 26.131 133.637 26.9582L152.605 96.6074C152.831 97.4347 152.343 98.2879 151.515 98.5132L132.043 103.816C131.216 104.041 130.363 103.553 130.138 102.726L111.17 33.0769Z" fill="#BFDBEE"/>
<path d="M131.733 102.147L150.936 96.917L132.041 27.5375L112.839 32.767L131.733 102.147ZM152.605 96.6072C152.816 97.3829 152.401 98.182 151.666 98.4642L151.515 98.5136L132.043 103.817L131.888 103.85C131.112 103.979 130.349 103.501 130.138 102.726L111.17 33.0768C110.944 32.2497 111.432 31.3966 112.259 31.1712L131.731 25.8683C132.558 25.643 133.411 26.131 133.637 26.9581L152.605 96.6072Z" fill="#0078CE"/>
<path d="M117.467 36.9939C117.241 36.1667 117.729 35.3135 118.556 35.0882L128.292 32.4367C129.12 32.2114 129.973 32.6994 130.198 33.5266L132.034 40.2669C132.259 41.0941 131.771 41.9474 130.944 42.1726L121.208 44.8241C120.381 45.0494 119.527 44.5614 119.302 43.7342L117.467 36.9939Z" fill="#BFDBEE"/>
<path d="M120.898 43.155L130.364 40.5769L128.602 34.1059L119.136 36.684L120.898 43.155ZM132.033 40.2671L132.067 40.4221C132.196 41.1983 131.719 41.9615 130.944 42.1727L121.208 44.8241C120.432 45.0353 119.634 44.6195 119.352 43.8851L119.302 43.7343L117.466 36.9938C117.241 36.1666 117.729 35.3135 118.556 35.0882L128.292 32.4368C129.119 32.2115 129.972 32.6994 130.198 33.5266L132.033 40.2671Z" fill="#0078CE"/>
<path d="M133.352 43.6969L133.797 45.3293L121.066 48.7965L120.621 47.1641L133.352 43.6969Z" fill="#0078CE"/>
<path d="M147.739 81.6984L148.184 83.3308L127.214 89.0416L126.77 87.4092L147.739 81.6984Z" fill="#0078CE"/>
<path d="M149.169 86.9416L149.613 88.574L128.644 94.2848L128.199 92.6523L149.169 86.9416Z" fill="#0078CE"/>
<path d="M150.493 91.8083L150.938 93.4407L129.968 99.1515L129.523 97.519L150.493 91.8083Z" fill="#0078CE"/>
<path d="M94.6328 45.4728C94.6328 44.8099 95.1702 44.2725 95.8331 44.2725H111.437C112.1 44.2725 112.637 44.8099 112.637 45.4728V101.287C112.637 101.95 112.1 102.487 111.437 102.487H95.8331C95.1702 102.487 94.6328 101.95 94.6328 101.287V45.4728Z" fill="#BFDBEE"/>
<path d="M96.3247 100.794H110.945V45.9644H96.3247V100.794ZM112.638 101.287L112.631 101.409C112.574 101.974 112.125 102.423 111.56 102.481L111.437 102.487H95.8333L95.7106 102.481C95.1456 102.424 94.6964 101.974 94.6391 101.409L94.6328 101.287V45.4729C94.6328 44.8514 95.1053 44.3401 95.7106 44.2787L95.8333 44.2725H111.437L111.56 44.2787C112.165 44.3402 112.638 44.8515 112.638 45.4729V101.287Z" fill="#17222B"/>
<path d="M98.5273 49.6744C98.5273 49.0115 99.0647 48.4741 99.7276 48.4741H107.53C108.192 48.4741 108.73 49.0115 108.73 49.6744V55.0758C108.73 55.7387 108.192 56.2761 107.53 56.2761H99.7276C99.0647 56.2761 98.5273 55.7387 98.5273 55.0758V49.6744Z" fill="#BFDBEE"/>
<path d="M100.219 54.5837H107.038V50.166H100.219V54.5837ZM108.73 55.0761L108.723 55.1987C108.662 55.8039 108.151 56.2756 107.529 56.2756H99.7278L99.6051 56.2703C99.0402 56.213 98.5911 55.7636 98.5336 55.1987L98.5273 55.0761V49.6746C98.5273 49.053 98.9998 48.5418 99.6051 48.4804L99.7278 48.4741H107.529C108.192 48.4741 108.73 49.0117 108.73 49.6746V55.0761Z" fill="#17222B"/>
<path d="M108.73 57.7759V59.4678H98.5273V57.7759H108.73Z" fill="#17222B"/>
<path d="M112.039 88.7915V90.4834H95.2344V88.7915H112.039Z" fill="#17222B"/>
<path d="M112.039 92.9932V94.6851H95.2344V92.9932H112.039Z" fill="#17222B"/>
<path d="M112.039 96.8945V98.5864H95.2344V96.8945H112.039Z" fill="#17222B"/>
<path d="M138.616 65.2343C141.324 51.5097 125.924 51.5979 118.309 53.3575L127.193 87.2289L136.501 84.6905L146.232 82.152C142.001 81.2722 135.909 78.9588 138.616 65.2343Z" fill="#99C7E7"/>
<path d="M124.596 15.1152C124.314 14.6339 123.695 14.4704 123.212 14.7501V14.7501C122.73 15.0298 122.567 15.6468 122.849 16.1281L125.285 20.2898C125.567 20.7712 126.186 20.9347 126.669 20.6549V20.6549C127.152 20.3752 127.314 19.7583 127.033 19.2769L124.596 15.1152Z" fill="#999999"/>
<path d="M125.285 20.2895C125.567 20.7708 126.186 20.9342 126.669 20.6545C127.151 20.3748 127.314 19.758 127.032 19.2767L124.596 15.1151C124.314 14.6339 123.695 14.4705 123.212 14.75C122.73 15.0297 122.567 15.6465 122.849 16.1278L125.285 20.2895Z" fill="#0078CE"/>
<path d="M143.487 22.7666C143.977 22.4824 144.143 21.8554 143.856 21.3662V21.3662C143.57 20.8771 142.94 20.7109 142.45 20.9952L138.401 23.3423C137.91 23.6265 137.745 24.2535 138.031 24.7427V24.7427C138.318 25.2318 138.947 25.398 139.438 25.1137L143.487 22.7666Z" fill="#999999"/>
<path d="M138.4 23.3425L138.313 23.3996C137.892 23.7045 137.763 24.2838 138.031 24.7423L138.089 24.8308C138.376 25.2228 138.902 25.3616 139.344 25.1618L139.438 25.1139L143.487 22.7669C143.977 22.4826 144.143 21.855 143.856 21.3658C143.57 20.877 142.94 20.7112 142.45 20.9954L138.4 23.3425Z" fill="#0078CE"/>
<path d="M135.314 14.8515C135.453 14.3054 135.126 13.7427 134.582 13.5946V13.5946C134.038 13.4465 133.484 13.7691 133.345 14.3151L132.175 18.9006C132.036 19.4466 132.364 20.0094 132.907 20.1575V20.1575C133.451 20.3056 134.005 19.983 134.144 19.437L135.314 14.8515Z" fill="#999999"/>
<path d="M132.175 18.9002L132.154 19.0031C132.078 19.5153 132.398 20.0184 132.907 20.1573L133.01 20.1796C133.519 20.264 134.014 19.9485 134.144 19.4367L135.314 14.8516C135.453 14.3056 135.125 13.7427 134.582 13.5946C134.038 13.4465 133.484 13.7692 133.345 14.3152L132.175 18.9002Z" fill="#0078CE"/>
</svg>
