<svg width="196" height="121" viewBox="0 0 196 121" fill="none" xmlns="http://www.w3.org/2000/svg">
<path d="M52.9802 15.2681H97.9459C99.0646 15.2681 100.138 15.8603 100.929 16.9146C101.72 17.9689 102.164 19.3988 102.164 20.8897V92.1839C102.164 93.6749 101.72 95.1048 100.929 96.1591C100.138 97.2134 99.0646 97.8056 97.9459 97.8056H47.2182C46.0994 97.8056 45.0265 97.2134 44.2355 96.1591C43.4444 95.1048 43 93.6749 43 92.1839V28.7039L52.9802 15.2681Z" fill="white" stroke="#111B22" stroke-width="1.82086" stroke-linecap="round" stroke-linejoin="round"/>
<path d="M43 28.7039H51.1748C51.6544 28.7009 52.1136 28.4449 52.4519 27.9919C52.7903 27.5389 52.9802 26.9257 52.9802 26.2866V15.2681L43 28.7039Z" fill="white" stroke="#111B22" stroke-width="1.82086" stroke-linecap="round" stroke-linejoin="round"/>
<rect width="23.452" height="23.7343" transform="translate(50.0234 60.5986)" fill="white"/>
<ellipse cx="61.7494" cy="72.4658" rx="11.726" ry="11.8671" stroke="#111B22" stroke-width="1.36578"/>
<path d="M61.4785 66.7378C61.7109 66.7379 61.9046 66.8179 62.0596 66.978C62.2146 67.1383 62.292 67.3392 62.292 67.5796V68.186C62.4846 68.2118 62.6862 68.2537 62.8965 68.313C63.2375 68.4011 63.5362 68.5248 63.792 68.6851C63.9702 68.7812 64.0943 68.9134 64.1641 69.0815C64.2416 69.2498 64.2684 69.4228 64.2451 69.5991C64.2296 69.7671 64.1678 69.9191 64.0596 70.0552C63.9588 70.1914 63.8189 70.2844 63.6406 70.3325C63.4701 70.3725 63.2646 70.34 63.0244 70.2358C62.8462 70.1557 62.6447 70.0915 62.4199 70.0435C62.2029 69.9874 61.924 69.9595 61.583 69.9595C61.1722 69.9595 60.8537 70.0357 60.6289 70.188C60.4121 70.3402 60.3037 70.5366 60.3037 70.7769C60.3037 70.9371 60.3662 71.0729 60.4902 71.1851C60.622 71.2892 60.8582 71.3823 61.1992 71.4624L62.5244 71.7622C63.2608 71.9305 63.8035 72.2113 64.1523 72.604C64.5089 72.9887 64.6875 73.4899 64.6875 74.1069C64.6874 74.5876 64.5743 75.0119 64.3496 75.3804C64.1248 75.749 63.8113 76.0503 63.4082 76.2827C63.0813 76.4749 62.7089 76.6103 62.292 76.6929V77.3521C62.292 77.5925 62.2146 77.7933 62.0596 77.9536C61.9124 78.1137 61.7186 78.1938 61.4785 78.1938C61.2538 78.1938 61.0632 78.1138 60.9082 77.9536C60.7532 77.7933 60.6758 77.5925 60.6758 77.3521V76.7622C60.3013 76.7281 59.9678 76.6688 59.6758 76.5825C59.2963 76.4704 58.9863 76.3587 58.7461 76.2466C58.5446 76.1504 58.4007 76.0137 58.3154 75.8374C58.238 75.6612 58.2072 75.4806 58.2227 75.2964C58.2459 75.1122 58.3115 74.9437 58.4199 74.7915C58.5284 74.6393 58.6684 74.5398 58.8389 74.4917C59.0171 74.4356 59.2226 74.4589 59.4551 74.563C59.6101 74.6511 59.8424 74.7442 60.1523 74.8403C60.4701 74.9285 60.8621 74.9722 61.3271 74.9722C61.6526 74.9722 61.9087 74.9396 62.0947 74.8755C62.2881 74.8114 62.4235 74.7276 62.501 74.6235C62.5862 74.5114 62.6288 74.3913 62.6289 74.2632C62.6289 74.143 62.5981 74.0425 62.5361 73.9624C62.4819 73.8742 62.3886 73.798 62.2568 73.7339C62.1251 73.6618 61.9432 73.5976 61.7109 73.5415L60.3965 73.2534C59.6758 73.0851 59.1368 72.8043 58.7803 72.4116C58.4316 72.011 58.2578 71.4938 58.2578 70.8608C58.2578 70.3801 58.37 69.9513 58.5947 69.5747C58.8272 69.1901 59.1488 68.8776 59.5596 68.6372C59.8885 68.4483 60.2607 68.3139 60.6758 68.2339V67.5796C60.6758 67.3392 60.7532 67.1383 60.9082 66.978C61.0632 66.8177 61.2537 66.7378 61.4785 66.7378Z" fill="#0078CE"/>
<path d="M61.4785 66.7378C61.7109 66.7379 61.9046 66.8179 62.0596 66.978C62.2146 67.1383 62.292 67.3392 62.292 67.5796V68.186C62.4846 68.2118 62.6862 68.2537 62.8965 68.313C63.2375 68.4011 63.5362 68.5248 63.792 68.6851C63.9702 68.7812 64.0943 68.9134 64.1641 69.0815C64.2416 69.2498 64.2684 69.4228 64.2451 69.5991C64.2296 69.7671 64.1678 69.9191 64.0596 70.0552C63.9588 70.1914 63.8189 70.2844 63.6406 70.3325C63.4701 70.3725 63.2646 70.34 63.0244 70.2358C62.8462 70.1557 62.6447 70.0915 62.4199 70.0435C62.2029 69.9874 61.924 69.9595 61.583 69.9595C61.1722 69.9595 60.8537 70.0357 60.6289 70.188C60.4121 70.3402 60.3037 70.5366 60.3037 70.7769C60.3037 70.9371 60.3662 71.0729 60.4902 71.1851C60.622 71.2892 60.8582 71.3823 61.1992 71.4624L62.5244 71.7622C63.2608 71.9305 63.8035 72.2113 64.1523 72.604C64.5089 72.9887 64.6875 73.4899 64.6875 74.1069C64.6874 74.5876 64.5743 75.0119 64.3496 75.3804C64.1248 75.749 63.8113 76.0503 63.4082 76.2827C63.0813 76.4749 62.7089 76.6103 62.292 76.6929V77.3521C62.292 77.5925 62.2146 77.7933 62.0596 77.9536C61.9124 78.1137 61.7186 78.1938 61.4785 78.1938C61.2538 78.1938 61.0632 78.1138 60.9082 77.9536C60.7532 77.7933 60.6758 77.5925 60.6758 77.3521V76.7622C60.3013 76.7281 59.9678 76.6688 59.6758 76.5825C59.2963 76.4704 58.9863 76.3587 58.7461 76.2466C58.5446 76.1504 58.4007 76.0137 58.3154 75.8374C58.238 75.6612 58.2072 75.4806 58.2227 75.2964C58.2459 75.1122 58.3115 74.9437 58.4199 74.7915C58.5284 74.6393 58.6684 74.5398 58.8389 74.4917C59.0171 74.4356 59.2226 74.4589 59.4551 74.563C59.6101 74.6511 59.8424 74.7442 60.1523 74.8403C60.4701 74.9285 60.8621 74.9722 61.3271 74.9722C61.6526 74.9722 61.9087 74.9396 62.0947 74.8755C62.2881 74.8114 62.4235 74.7276 62.501 74.6235C62.5862 74.5114 62.6288 74.3913 62.6289 74.2632C62.6289 74.143 62.5981 74.0425 62.5361 73.9624C62.4819 73.8742 62.3886 73.798 62.2568 73.7339C62.1251 73.6618 61.9432 73.5976 61.7109 73.5415L60.3965 73.2534C59.6758 73.0851 59.1368 72.8043 58.7803 72.4116C58.4316 72.011 58.2578 71.4938 58.2578 70.8608C58.2578 70.3801 58.37 69.9513 58.5947 69.5747C58.8272 69.1901 59.1488 68.8776 59.5596 68.6372C59.8885 68.4483 60.2607 68.3139 60.6758 68.2339V67.5796C60.6758 67.3392 60.7532 67.1383 60.9082 66.978C61.0632 66.8177 61.2537 66.7378 61.4785 66.7378Z" stroke="#111B22"/>
<rect x="0.712339" y="0.718847" width="44.0517" height="1.43117" rx="0.715583" transform="matrix(0.99999 0.00457194 -0.00452294 0.99999 49.8744 33.0202)" fill="#DCDCDC" stroke="#111B22" stroke-width="1.43117"/>
<rect x="0.712356" y="0.718865" width="39.6345" height="1.43117" rx="0.715583" transform="matrix(0.999989 0.00459588 -0.00449938 0.99999 49.9329 46.4284)" fill="#DCDCDC" stroke="#111B22" stroke-width="1.43117"/>
<rect x="0.712339" y="0.718847" width="34.4756" height="1.43117" rx="0.715583" transform="matrix(0.99999 0.00457194 -0.00452294 0.99999 49.8431 38.7448)" fill="#EEEEEE" stroke="#111B22" stroke-width="1.43117"/>
<rect x="0.712356" y="0.718865" width="13.4374" height="1.43117" rx="0.715583" transform="matrix(0.999989 0.00459588 -0.00449938 0.99999 49.9173 52.154)" fill="#EEEEEE" stroke="#111B22" stroke-width="1.43117"/>
<rect x="81.4648" y="58.291" width="52.4238" height="40.2906" fill="#BFDBEE"/>
<path d="M125.106 72.824C115.231 66.5685 112.633 59.4008 112.633 59.4008L130.693 57.8369L134.201 60.5737V70.0872V92.7634L133.032 97.7157L125.886 98.6279C125.886 98.6279 121.314 89.9674 121.598 84.0318C121.817 79.4495 134.981 79.0795 125.106 72.824Z" fill="#0078CE" fill-opacity="0.2"/>
<rect x="74.043" y="82.4673" width="17.6703" height="24.24" fill="#BFDBEE"/>
<path fill-rule="evenodd" clip-rule="evenodd" d="M77.1591 82.1888C76.0009 82.1888 75.062 83.1305 75.062 84.2922V103.58C75.062 104.742 76.0009 105.683 77.1591 105.683H88.5928C89.751 105.683 90.6899 104.742 90.6899 103.58V84.2922C90.6899 83.1305 89.751 82.1888 88.5928 82.1888H77.1591ZM73.0195 84.2922C73.0195 81.9991 74.8729 80.1401 77.1591 80.1401H88.5928C90.879 80.1401 92.7323 81.9991 92.7323 84.2922V103.58C92.7323 105.873 90.879 107.732 88.5928 107.732H77.1591C74.8729 107.732 73.0195 105.873 73.0195 103.58V84.2922Z" fill="#111B22"/>
<path fill-rule="evenodd" clip-rule="evenodd" d="M83.9225 59.3827C82.7619 59.3827 81.8198 60.3268 81.8198 61.4861V74.9093C81.8198 75.475 81.3626 75.9336 80.7986 75.9336C80.2346 75.9336 79.7773 75.475 79.7773 74.9093V61.4861C79.7773 59.1906 81.6387 57.334 83.9225 57.334H130.946C133.229 57.334 135.091 59.1905 135.091 61.4861V94.979C135.091 97.2721 133.237 99.1311 130.951 99.1311H114.302V105.684H117.698C118.262 105.684 118.72 106.142 118.72 106.708C118.72 107.274 118.262 107.732 117.698 107.732H96.2601C95.6961 107.732 95.2389 107.274 95.2389 106.708C95.2389 106.142 95.6961 105.684 96.2601 105.684H100.436V99.1311H96.2601C95.6961 99.1311 95.2389 98.6725 95.2389 98.1067C95.2389 97.541 95.6961 97.0824 96.2601 97.0824H130.951C132.109 97.0824 133.048 96.1407 133.048 94.979V61.4861C133.048 60.3268 132.106 59.3827 130.946 59.3827H83.9225ZM102.479 99.1311V105.684H112.26V99.1311H102.479ZM96.1484 89.3751C96.1484 88.8094 96.6056 88.3508 97.1696 88.3508H126.663C127.228 88.3508 127.685 88.8094 127.685 89.3751C127.685 89.9409 127.228 90.3995 126.663 90.3995H97.1696C96.6056 90.3995 96.1484 89.9409 96.1484 89.3751Z" fill="#111B22"/>
<path d="M107.825 93.6753C107.825 94.3951 107.243 94.9785 106.526 94.9785C105.808 94.9785 105.227 94.3951 105.227 93.6753C105.227 92.9555 105.808 92.3721 106.526 92.3721C107.243 92.3721 107.825 92.9555 107.825 93.6753Z" fill="#111B22"/>
<path d="M83.915 102.016C83.915 102.736 83.3333 103.319 82.6157 103.319C81.8981 103.319 81.3164 102.736 81.3164 102.016C81.3164 101.296 81.8981 100.713 82.6157 100.713C83.3333 100.713 83.915 101.296 83.915 102.016Z" fill="#111B22"/>
<rect x="-0.653084" y="0.326308" width="1.03756" height="5.9714" rx="0.518781" transform="matrix(-0.312915 0.95068 -0.945966 -0.32169 147.1 64.0326)" fill="#999999" stroke="#0078CE" stroke-width="1.03756"/>
<rect x="0.332778" y="0.66885" width="1.05134" height="5.86574" rx="0.525672" transform="matrix(0.945966 0.321691 -0.312914 0.95068 135.626 44.1203)" fill="#999999" stroke="#0078CE" stroke-width="1.05134"/>
<rect x="-0.231227" y="0.698306" width="1.04632" height="5.90453" rx="0.52316" transform="matrix(0.452687 0.895178 -0.894669 0.439607 146.135 51.9269)" fill="#999999" stroke="#0078CE" stroke-width="1.04632"/>
</svg>
