<svg width="196" height="121" viewBox="0 0 196 121" fill="none" xmlns="http://www.w3.org/2000/svg">
<path d="M98 104.631C117.882 104.631 134 87.7151 134 66.8484C134 45.9817 117.882 29.0659 98 29.0659C78.1177 29.0659 62 45.9817 62 66.8484C62 87.7151 78.1177 104.631 98 104.631Z" fill="#BFDBEE"/>
<path d="M101.567 42.3628L107.716 31.5493C94.7061 32.1351 88.4126 36.0753 78.6748 46.9774C78.4096 47.2744 78.1669 47.6029 77.963 47.9448C72.5587 57.0097 71.542 62.809 72.2712 73.2421C72.3014 73.6735 72.3777 74.1085 72.4952 74.5247C75.9077 86.6116 79.1467 92.3853 88.5287 99.0363C97.3513 104.122 101.51 105.091 108.047 104.991L114.04 95.1846C114.89 93.7942 115.479 92.2608 115.779 90.6592C116.717 85.6569 114.745 80.5544 110.687 77.4831L106.808 74.5479C105.652 73.6733 104.578 72.6702 103.623 71.5793C100.104 67.5574 98.1225 62.3471 98.1225 57.0029V55.3903C98.1225 50.8226 99.3096 46.3334 101.567 42.3628Z" fill="#A6D2F0"/>
<path d="M98 29.8569C117.41 29.8569 133.209 46.382 133.209 66.8481C133.209 87.3145 117.41 103.84 98 103.84C78.5902 103.84 62.791 87.3145 62.791 66.8481C62.7912 46.382 78.5903 29.8569 98 29.8569Z" stroke="#0078CE" stroke-width="1.58201"/>
<g filter="url(#filter0_d_54237_1044618)">
<path d="M77.3574 51.5171H118.637C119.49 51.5171 120.246 52.2541 120.246 53.2446V106.14C120.246 107.131 119.49 107.869 118.637 107.869H77.3574C76.5044 107.869 75.748 107.131 75.748 106.14V53.2446C75.7482 52.2541 76.5045 51.5171 77.3574 51.5171Z" fill="white" stroke="#111B22" stroke-width="1.58201"/>
</g>
<path d="M80.8604 59.2778H93.1279C93.5152 59.2779 93.7519 59.564 93.752 59.8247C93.752 60.0854 93.5153 60.3715 93.1279 60.3716H80.8604C80.4732 60.3714 80.2363 60.0854 80.2363 59.8247C80.2364 59.5641 80.4733 59.278 80.8604 59.2778Z" stroke="#111B22" stroke-width="1.58201"/>
<path d="M80.8799 65.2983H101.916C102.324 65.2983 102.559 65.594 102.56 65.8452C102.56 66.0964 102.324 66.3921 101.916 66.3921H80.8799C80.4719 66.3921 80.2363 66.0964 80.2363 65.8452C80.2364 65.594 80.472 65.2983 80.8799 65.2983Z" stroke="#111B22" stroke-width="1.58201"/>
<path d="M80.8604 72.6577H93.1279C93.5152 72.6578 93.7519 72.9439 93.752 73.2046C93.752 73.4653 93.5153 73.7514 93.1279 73.7515H80.8604C80.4732 73.7513 80.2363 73.4653 80.2363 73.2046C80.2364 72.9439 80.4733 72.6579 80.8604 72.6577Z" stroke="#111B22" stroke-width="1.58201"/>
<path d="M80.8799 79.3467H101.916C102.324 79.3467 102.559 79.6424 102.56 79.8936C102.56 80.1448 102.324 80.4404 101.916 80.4404H80.8799C80.4719 80.4404 80.2363 80.1448 80.2363 79.8936C80.2364 79.6424 80.472 79.3467 80.8799 79.3467Z" stroke="#111B22" stroke-width="1.58201"/>
<path d="M80.8604 86.0381H93.1279C93.5152 86.0381 93.7519 86.3242 93.752 86.585C93.752 86.8457 93.5153 87.1318 93.1279 87.1318H80.8604C80.4732 87.1316 80.2363 86.8456 80.2363 86.585C80.2364 86.3243 80.4733 86.0383 80.8604 86.0381Z" stroke="#111B22" stroke-width="1.58201"/>
<path d="M80.8799 92.7275H101.916C102.324 92.7275 102.559 93.0232 102.56 93.2744C102.56 93.5256 102.324 93.8213 101.916 93.8213H80.8799C80.4719 93.8213 80.2363 93.5256 80.2363 93.2744C80.2364 93.0232 80.472 92.7275 80.8799 92.7275Z" stroke="#111B22" stroke-width="1.58201"/>
<g filter="url(#filter1_d_54237_1044618)">
<path d="M77.3574 25.8252H118.637C119.49 25.8252 120.246 26.5622 120.246 27.5527V42.666C120.246 43.6567 119.49 44.3936 118.637 44.3936H77.3574C76.5044 44.3936 75.748 43.6567 75.748 42.666V27.5527C75.7482 26.5622 76.5045 25.8252 77.3574 25.8252Z" fill="white" stroke="#111B22" stroke-width="1.58201"/>
</g>
<path d="M80.8604 31.1797H93.1279C93.5152 31.1797 93.7519 31.4659 93.752 31.7266C93.752 31.9873 93.5153 32.2734 93.1279 32.2734H80.8604C80.4732 32.2732 80.2363 31.9872 80.2363 31.7266C80.2364 31.4659 80.4733 31.1799 80.8604 31.1797Z" stroke="#111B22" stroke-width="1.58201"/>
<path d="M80.8799 37.8687H101.916C102.324 37.8687 102.559 38.1643 102.56 38.4155C102.56 38.6667 102.324 38.9624 101.916 38.9624H80.8799C80.4719 38.9624 80.2363 38.6667 80.2363 38.4155C80.2364 38.1643 80.472 37.8687 80.8799 37.8687Z" stroke="#111B22" stroke-width="1.58201"/>
<rect x="-0.340908" y="0.532204" width="0.888177" height="5.07147" rx="0.444089" transform="matrix(-0.974481 0.218706 0.206825 0.979712 114.756 16.0014)" fill="#999999" stroke="#0078CE" stroke-width="0.888177"/>
<rect x="-0.518671" y="-0.334192" width="0.877529" height="4.9536" rx="0.438764" transform="matrix(-0.207463 -0.97957 -0.974653 0.217904 129.048 27.2882)" fill="#999999" stroke="#0078CE" stroke-width="0.877529"/>
<rect x="-0.597355" y="0.135957" width="0.876711" height="5.02492" rx="0.438355" transform="matrix(-0.833309 -0.543969 -0.529409 0.854121 123.992 18.3839)" fill="#999999" stroke="#0078CE" stroke-width="0.876711"/>
<defs>
<filter id="filter0_d_54237_1044618" x="70.211" y="43.6071" width="55.5702" height="67.4251" filterUnits="userSpaceOnUse" color-interpolation-filters="sRGB">
<feFlood flood-opacity="0" result="BackgroundImageFix"/>
<feColorMatrix in="SourceAlpha" type="matrix" values="0 0 0 0 0 0 0 0 0 0 0 0 0 0 0 0 0 0 127 0" result="hardAlpha"/>
<feOffset dy="-2.37301"/>
<feGaussianBlur stdDeviation="2.37301"/>
<feColorMatrix type="matrix" values="0 0 0 0 0.788235 0 0 0 0 0.803922 0 0 0 0 0.85098 0 0 0 0.349 0"/>
<feBlend mode="normal" in2="BackgroundImageFix" result="effect1_dropShadow_54237_1044618"/>
<feBlend mode="normal" in="SourceGraphic" in2="effect1_dropShadow_54237_1044618" result="shape"/>
</filter>
<filter id="filter1_d_54237_1044618" x="70.211" y="17.9152" width="55.5702" height="29.6429" filterUnits="userSpaceOnUse" color-interpolation-filters="sRGB">
<feFlood flood-opacity="0" result="BackgroundImageFix"/>
<feColorMatrix in="SourceAlpha" type="matrix" values="0 0 0 0 0 0 0 0 0 0 0 0 0 0 0 0 0 0 127 0" result="hardAlpha"/>
<feOffset dy="-2.37301"/>
<feGaussianBlur stdDeviation="2.37301"/>
<feColorMatrix type="matrix" values="0 0 0 0 0.788235 0 0 0 0 0.803922 0 0 0 0 0.85098 0 0 0 0.349 0"/>
<feBlend mode="normal" in2="BackgroundImageFix" result="effect1_dropShadow_54237_1044618"/>
<feBlend mode="normal" in="SourceGraphic" in2="effect1_dropShadow_54237_1044618" result="shape"/>
</filter>
</defs>
</svg>
