<svg width="196" height="121" viewBox="0 0 196 121" fill="none" xmlns="http://www.w3.org/2000/svg">
<path d="M123.736 23.2256H80.4678V28.0352C80.4678 31.9297 77.3105 35.0869 73.416 35.0869H68.2285V97.8848C68.2285 100.425 70.2876 102.485 72.8281 102.485H123.736C126.277 102.485 128.337 100.425 128.337 97.8848V27.8262C128.337 25.2855 126.277 23.2256 123.736 23.2256ZM78.0166 24.8945L70.0283 32.6357H73.416C75.9567 32.6357 78.0166 30.5758 78.0166 28.0352V24.8945Z" fill="white" stroke="#111B22" stroke-width="2.45133"/>
<rect x="73.8831" y="40.3206" width="12.3857" height="12.3857" rx="2.40832" stroke="#111B22" stroke-width="0.688093"/>
<path d="M76.6367 46.995L78.7539 48.9216L83.5176 44.105" stroke="#111B22" stroke-width="0.688093" stroke-linejoin="round"/>
<path d="M93.752 42.0195H109.615C110.174 42.0196 110.628 42.4729 110.628 43.0332C110.628 43.5935 110.174 44.0468 109.615 44.0469H93.752C93.1928 44.0467 92.7393 43.5935 92.7393 43.0332C92.7393 42.473 93.1928 42.0197 93.752 42.0195Z" fill="#111B22" stroke="#111B22" stroke-width="1.63422"/>
<path d="M94.1465 49.7817H120.751C121.384 49.7817 121.748 50.2251 121.748 50.5981C121.748 50.9713 121.384 51.4155 120.751 51.4155H94.1465C93.5136 51.4155 93.1494 50.9713 93.1494 50.5981C93.1497 50.2251 93.5139 49.7817 94.1465 49.7817Z" fill="#111B22" stroke="#111B22" stroke-width="1.63422"/>
<rect x="73.8831" y="59.1141" width="12.3857" height="12.3857" rx="2.40832" stroke="#111B22" stroke-width="0.688093"/>
<path d="M76.6367 65.7884L78.7539 67.7151L83.5176 62.8984" stroke="#111B22" stroke-width="0.688093" stroke-linejoin="round"/>
<path d="M93.5156 60.813H107.324C107.65 60.813 108.101 61.1563 108.101 61.8267C108.101 62.4971 107.65 62.8403 107.324 62.8403H93.5156C93.1899 62.8403 92.7393 62.4971 92.7393 61.8267C92.7393 61.1563 93.1899 60.813 93.5156 60.813Z" fill="#111B22" stroke="#111B22" stroke-width="1.63422"/>
<path d="M107.604 68.5757C107.619 68.5891 107.647 68.6167 107.682 68.6724C107.774 68.8185 107.857 69.0709 107.857 69.3921C107.857 69.7135 107.774 69.9666 107.682 70.1128C107.647 70.1684 107.619 70.1961 107.604 70.2095H92.5869C92.5712 70.1961 92.5438 70.1684 92.5088 70.1128C92.4167 69.9666 92.333 69.7135 92.333 69.3921C92.3331 69.0709 92.4167 68.8185 92.5088 68.6724C92.5438 68.6168 92.5711 68.5891 92.5869 68.5757H107.604Z" fill="#111B22" stroke="#111B22" stroke-width="1.63422"/>
<rect x="73.8831" y="77.9075" width="12.3857" height="12.3857" rx="2.40832" stroke="#111B22" stroke-width="0.688093"/>
<path d="M76.6367 84.5819L78.7539 86.5085L83.5176 81.6919" stroke="#111B22" stroke-width="0.688093" stroke-linejoin="round"/>
<path d="M97.9814 80.0151C98.0175 80.1042 98.0527 80.2439 98.0527 80.4233C98.0527 80.6028 98.0175 80.7425 97.9814 80.8315H92.4043C92.3682 80.7425 92.333 80.6029 92.333 80.4233C92.333 80.2437 92.3682 80.1041 92.4043 80.0151H97.9814Z" fill="#111B22" stroke="#111B22" stroke-width="1.63422"/>
<path d="M102.068 87.3691C102.104 87.4585 102.138 87.5984 102.138 87.7773C102.138 87.9563 102.104 88.0962 102.068 88.1855H92.4023C92.3666 88.0962 92.333 87.9563 92.333 87.7773C92.333 87.5984 92.3666 87.4585 92.4023 87.3691H102.068Z" fill="#111B22" stroke="#111B22" stroke-width="1.63422"/>
<path d="M104.59 86.1433C104.59 88.5576 105.065 90.9483 105.989 93.1789C106.913 95.4095 108.267 97.4362 109.975 99.1434C111.682 100.851 113.709 102.205 115.939 103.129C118.17 104.053 120.56 104.528 122.975 104.528C125.389 104.528 127.78 104.053 130.01 103.129C132.241 102.205 134.268 100.851 135.975 99.1434C137.682 97.4362 139.036 95.4095 139.96 93.1789C140.884 90.9483 141.36 88.5576 141.36 86.1433C141.36 81.2673 139.423 76.591 135.975 73.1431C132.527 69.6953 127.851 67.7583 122.975 67.7583C118.099 67.7583 113.423 69.6953 109.975 73.1431C106.527 76.591 104.59 81.2673 104.59 86.1433Z" fill="#BFDBEE" stroke="#0078CE" stroke-width="2.45133" stroke-linecap="round" stroke-linejoin="round"/>
<path d="M122.566 78.3804V94.7226" stroke="#0078CE" stroke-width="2.04278" stroke-linecap="round" stroke-linejoin="round"/>
<path d="M114.395 86.5518H130.737" stroke="#0078CE" stroke-width="2.04278" stroke-linecap="round" stroke-linejoin="round"/>
<rect x="0.633973" y="0.399008" width="1.06193" height="6.14621" rx="0.530966" transform="matrix(0.219444 0.975625 0.974555 -0.224148 60.2583 30.4954)" fill="#999999" stroke="#0078CE" stroke-width="1.06193"/>
<rect x="-0.408221" y="0.64861" width="1.08122" height="5.99832" rx="0.54061" transform="matrix(-0.974555 0.224148 0.219444 0.975625 73.661 12.8788)" fill="#999999" stroke="#0078CE" stroke-width="1.08122"/>
<rect x="0.16698" y="0.733952" width="1.0742" height="6.05268" rx="0.5371" transform="matrix(-0.54022 0.841524 0.851111 0.524985 63.0309 19.1896)" fill="#999999" stroke="#0078CE" stroke-width="1.0742"/>
<path d="M115.039 80.6051C108.72 75.4109 115.723 69.855 115.723 69.855C111.044 72.0922 109.104 74.2162 106.982 78.6023C106.749 79.0847 106.577 79.5965 106.47 80.1216C105.91 82.8729 105.747 84.8739 105.818 87.4126C105.866 89.1777 106.331 90.9083 107.136 92.4796C107.962 94.0906 108.748 95.4692 109.824 97.183C110.463 98.1994 111.28 99.0973 112.265 99.7843C114.595 101.411 116.607 102.406 118.36 103.055C119.272 103.393 120.244 103.527 121.217 103.541L124.973 103.598C124.973 103.598 120.94 102.102 126.187 97.9712C131.435 93.8401 121.358 85.7993 115.039 80.6051Z" fill="#0078CE" fill-opacity="0.2"/>
</svg>
