<svg width="196" height="121" viewBox="0 0 196 121" fill="none" xmlns="http://www.w3.org/2000/svg">
<g clip-path="url(#clip0_56001_734041)">
<mask id="mask0_56001_734041" style="mask-type:luminance" maskUnits="userSpaceOnUse" x="0" y="0" width="196" height="121">
<path d="M196 0H0V121H196V0Z" fill="white"/>
</mask>
<g mask="url(#mask0_56001_734041)">
<path d="M117.928 16.0487C118.088 15.5372 117.805 14.9904 117.294 14.8274C116.783 14.6645 116.239 14.947 116.078 15.4585L114.688 19.881C114.527 20.3925 114.811 20.9393 115.322 21.1022C115.832 21.2652 116.377 20.9827 116.538 20.4712L117.928 16.0487Z" fill="#999999"/>
<path d="M114.688 19.8808C114.527 20.3923 114.811 20.9389 115.322 21.1019C115.833 21.2648 116.377 20.9824 116.538 20.4709L117.928 16.0485C118.088 15.5371 117.805 14.9904 117.294 14.8274C116.783 14.6644 116.239 14.9469 116.078 15.4583L114.688 19.8808Z" fill="#0078CE"/>
<path d="M124.673 34.4454C125.192 34.611 125.746 34.3239 125.909 33.8041C126.073 33.2843 125.784 32.7286 125.265 32.563L120.979 31.1953C120.46 31.0297 119.906 31.3168 119.743 31.8367C119.58 32.3565 119.868 32.9122 120.387 33.0778L124.673 34.4454Z" fill="#999999"/>
<path d="M120.98 31.1948L120.882 31.1695C120.393 31.0667 119.897 31.3493 119.744 31.8365L119.719 31.9343C119.618 32.4242 119.902 32.9223 120.389 33.0776L124.675 34.4452C125.194 34.6106 125.747 34.3236 125.91 33.8041C126.073 33.2843 125.785 32.7281 125.266 32.5624L120.98 31.1948Z" fill="#0078CE"/>
<path d="M125.035 23.5101C125.514 23.2567 125.703 22.6599 125.458 22.177C125.212 21.6942 124.625 21.5083 124.146 21.7617L120.125 23.8898C119.646 24.1432 119.457 24.74 119.703 25.2229C119.949 25.7057 120.536 25.8917 121.015 25.6382L125.035 23.5101Z" fill="#999999"/>
<path d="M120.125 23.8898L120.038 23.9412C119.624 24.2174 119.473 24.7707 119.703 25.2232C119.934 25.6755 120.464 25.8674 120.923 25.6811L121.014 25.6384L125.036 23.51C125.514 23.2566 125.703 22.6601 125.458 22.1775C125.212 21.6948 124.625 21.5083 124.146 21.7614L120.125 23.8898Z" fill="#0078CE"/>
<path d="M133.662 100.174C133.662 95.495 132.778 90.861 131.062 86.5375C129.345 82.214 126.828 78.2856 123.656 74.9765C120.484 71.6674 116.718 69.0425 112.573 67.2517C108.428 65.4608 103.985 64.5391 99.499 64.5391C95.0127 64.5391 90.5702 65.4608 86.4254 67.2517C82.2805 69.0425 78.5144 71.6674 75.3421 74.9765C72.1697 78.2856 69.6533 82.214 67.9364 86.5375C66.2196 90.861 65.3359 95.495 65.3359 100.174H99.499H133.662Z" fill="#BDD8EA"/>
<path fill-rule="evenodd" clip-rule="evenodd" d="M131.995 98.4778C131.809 94.6006 130.986 90.7812 129.559 87.1869C127.924 83.0693 125.527 79.3279 122.506 76.1764C119.484 73.0249 115.898 70.525 111.95 68.8194C108.003 67.1138 103.772 66.236 99.499 66.236C95.2263 66.236 90.9954 67.1138 87.0479 68.8194C83.1005 70.525 79.5137 73.0249 76.4924 76.1764C73.4711 79.3279 71.0745 83.0693 69.4394 87.1869C68.0122 90.7812 67.1895 94.6006 67.0034 98.4778H131.995ZM133.623 98.4778C133.436 94.3777 132.571 90.3377 131.062 86.5375C129.345 82.214 126.828 78.2856 123.656 74.9765C120.484 71.6674 116.718 69.0425 112.573 67.2517C108.428 65.4608 103.985 64.5391 99.499 64.5391C95.0127 64.5391 90.5702 65.4608 86.4254 67.2517C82.2805 69.0425 78.5144 71.6674 75.3421 74.9765C72.1697 78.2856 69.6533 82.214 67.9364 86.5375C66.4274 90.3377 65.5621 94.3777 65.3747 98.4778C65.3489 99.0424 65.3359 99.6082 65.3359 100.174H133.662C133.662 99.6082 133.649 99.0424 133.623 98.4778Z" fill="#111B22"/>
<path d="M136.623 70.5163C136.38 70.4795 136.137 70.4795 135.893 70.5163C130.51 70.3326 126.238 65.6657 126.238 59.9333C126.238 54.0905 130.719 49.3135 136.275 49.3135C141.798 49.3135 146.313 54.0538 146.313 59.9333C146.278 65.6657 142.006 70.3326 136.623 70.5163Z" fill="white"/>
<path d="M136.275 49.3135C141.797 49.3135 146.312 54.0536 146.312 59.933C146.278 65.6653 142.006 70.3319 136.623 70.5158L136.44 70.4954C136.258 70.4816 136.076 70.4882 135.894 70.5158L135.393 70.4862C130.248 70.0403 126.238 65.4865 126.238 59.933C126.238 54.0904 130.719 49.3135 136.275 49.3135ZM127.702 59.933C127.702 64.8347 131.326 68.7849 135.86 68.9847C136.125 68.9571 136.39 68.9571 136.655 68.9847C141.186 68.7853 144.814 64.8397 144.849 59.933L144.837 59.4623C144.605 54.6315 140.826 50.8404 136.275 50.8404C131.55 50.8405 127.702 54.9099 127.702 59.933Z" fill="#17222B"/>
<path d="M62.1656 69.731C62.4018 69.6956 62.638 69.6956 62.8742 69.731C68.1039 69.5541 72.254 65.0601 72.254 59.5399C72.254 53.9136 67.9015 49.3135 62.503 49.3135C57.1383 49.3135 52.752 53.8782 52.752 59.5399C52.7858 65.0601 56.9358 69.5541 62.1656 69.731Z" fill="white"/>
<path d="M62.5029 49.3135C57.1382 49.3135 52.752 53.8781 52.752 59.5398C52.7857 65.0598 56.9355 69.5542 62.165 69.7314L62.3428 69.711C62.5199 69.6978 62.6969 69.7049 62.874 69.7314L63.3613 69.7019C68.3593 69.2721 72.2539 64.8873 72.2539 59.5398C72.2538 53.9135 67.9013 49.3135 62.5029 49.3135ZM70.79 59.5398C70.79 64.2181 67.2985 68.0073 62.9053 68.1994C62.6485 68.173 62.3915 68.1731 62.1348 68.1994C57.7458 68.0077 54.2492 64.2231 54.2158 59.5398L54.2266 59.0905C54.45 54.4788 58.0933 50.8404 62.5029 50.8404C67.082 50.8405 70.79 54.7458 70.79 59.5398Z" fill="#17222B"/>
<path d="M149.417 92.8931C146.475 96.5542 141.67 98.9607 136.837 99.5983C137.335 96.3579 137.175 92.962 136.359 89.5609C135.476 86.0276 133.929 82.8694 131.844 80.3159C136.43 78.2732 141.729 77.8453 146.028 79.4753C152.031 81.7238 153.541 87.7659 149.417 92.8931Z" fill="#BDD9EB"/>
<path d="M131.844 80.3154C136.43 78.2728 141.73 77.8455 146.028 79.4755C152.031 81.7241 153.541 87.7657 149.417 92.8928C146.475 96.5538 141.671 98.9602 136.837 99.5978C137.335 96.3577 137.175 92.9619 136.36 89.5611C135.476 86.0277 133.929 82.869 131.844 80.3154ZM145.522 80.9139C142.168 79.6423 138.053 79.7381 134.217 81.0211C135.818 83.4097 137.024 86.1678 137.773 89.1646L137.777 89.1793C138.466 92.0504 138.713 94.9324 138.513 97.7418C142.383 96.8427 146.006 94.769 148.301 91.9126L148.302 91.9124C150.121 89.651 150.574 87.361 150.107 85.5042C149.64 83.649 148.173 81.9075 145.528 80.9166L145.522 80.9139Z" fill="#17222B"/>
<path d="M49.5756 92.8931C52.5171 96.5542 57.3218 98.9607 62.1555 99.5983C61.657 96.3579 61.8172 92.962 62.633 89.5609C63.5162 86.0276 65.0632 82.8694 67.1478 80.3159C62.5621 78.2732 57.2628 77.8453 52.9642 79.4753C46.9614 81.7238 45.451 87.7659 49.5756 92.8931Z" fill="#BDD9EB"/>
<path d="M67.148 80.3154C62.5622 78.2728 57.2624 77.8455 52.9638 79.4755C46.9614 81.7241 45.4512 87.7657 49.5755 92.8928C52.517 96.5538 57.3216 98.9602 62.1552 99.5978C61.6568 96.3577 61.817 92.9619 62.6327 89.5611C63.5159 86.0277 65.0634 82.869 67.148 80.3154ZM53.4701 80.9139C56.824 79.6423 60.9397 79.7381 64.7755 81.0211C63.1744 83.4097 61.9681 86.1678 61.219 89.1646L61.2153 89.1793C60.5267 92.0504 60.2792 94.9324 60.4797 97.7418C56.6088 96.8427 52.9865 94.769 50.6914 91.9126C48.8722 89.6512 48.4181 87.361 48.8854 85.5042C49.3524 83.649 50.819 81.9075 53.4644 80.9166L53.4701 80.9139Z" fill="#17222B"/>
<path d="M99.1336 60.3443C108.89 60.3443 116.799 51.9764 116.799 41.6541C116.799 31.3318 108.89 22.9639 99.1336 22.9639C89.3775 22.9639 81.4688 31.3318 81.4688 41.6541C81.4688 51.9764 89.3775 60.3443 99.1336 60.3443Z" fill="#BDD9EB"/>
<path d="M115.334 41.6542C115.334 32.1548 108.062 24.4909 99.1337 24.4908C90.2058 24.4908 82.9325 32.1547 82.9325 41.6542C82.9325 51.1535 90.2058 58.8175 99.1337 58.8175V60.3445L98.6776 60.3383C89.284 60.0865 81.7127 52.0759 81.4745 42.137L81.4688 41.6542C81.4688 31.3318 89.3776 22.9639 99.1337 22.9639L99.5897 22.97C109.135 23.226 116.799 31.4932 116.799 41.6542L116.793 42.137C116.551 52.2361 108.737 60.3444 99.1337 60.3445V58.8175C108.062 58.8174 115.334 51.1535 115.334 41.6542Z" fill="#17222B"/>
<g filter="url(#filter0_d_56001_734041)">
<path d="M75.8788 88.3874L77.2386 91.1296C77.4241 91.5114 77.9186 91.8775 78.3358 91.9476L80.8006 92.3605C82.3768 92.6254 82.7476 93.7784 81.6119 94.9158L79.6957 96.8478C79.3712 97.175 79.1935 97.806 79.2939 98.2578L79.8425 100.65C80.2752 102.543 79.2784 103.275 77.6172 102.286L75.307 100.907C74.8898 100.658 74.2021 100.658 73.7772 100.907L71.4669 102.286C69.8135 103.275 68.809 102.535 69.2417 100.65L69.7903 98.2578C69.8907 97.806 69.713 97.175 69.3885 96.8478L67.4723 94.9158C66.3443 93.7784 66.7074 92.6254 68.2836 92.3605L70.7484 91.9476C71.1579 91.8775 71.6524 91.5114 71.8378 91.1296L73.1977 88.3874C73.9394 86.8995 75.1448 86.8995 75.8788 88.3874Z" fill="white"/>
</g>
<g filter="url(#filter1_d_56001_734041)">
<path d="M74.5392 86.458C75.4813 86.458 76.1824 87.1676 76.6066 88.0273L77.966 90.7685L77.9689 90.7744C77.9896 90.8168 78.0579 90.9093 78.1838 91.0029C78.3098 91.0967 78.4202 91.1373 78.4689 91.1455L80.9328 91.5586C81.8641 91.7151 82.7158 92.1843 82.9963 93.0635C83.2762 93.9415 82.8554 94.8167 82.1867 95.4873L82.1877 95.4883L80.2716 97.4209C80.2306 97.4623 80.162 97.5679 80.1164 97.7285C80.0722 97.8842 80.0722 98.0116 80.0851 98.0762L80.634 100.468L80.7062 100.852C80.8409 101.753 80.7141 102.676 79.9953 103.205C79.1705 103.811 78.0899 103.515 77.1994 102.985L74.8879 101.606C74.8357 101.575 74.7133 101.534 74.5431 101.534C74.3785 101.534 74.2538 101.572 74.1925 101.606L71.882 102.985L71.881 102.984C70.9906 103.516 69.9122 103.807 69.0881 103.201C68.268 102.597 68.2149 101.482 68.4474 100.468L68.9953 98.0762C69.0082 98.0116 69.0082 97.8843 68.964 97.7285C68.9184 97.5679 68.8498 97.4623 68.8088 97.4209L66.8927 95.4883C66.2277 94.8176 65.8093 93.9424 66.0871 93.0654C66.3658 92.1854 67.2145 91.7153 68.1466 91.5586L70.6095 91.1455L70.7179 91.1074C70.7663 91.0847 70.8247 91.0511 70.8879 91.0039C71.0141 90.9095 71.084 90.8169 71.1047 90.7744L71.1076 90.7685L72.467 88.0264L72.4679 88.0244C72.896 87.1659 73.5987 86.4581 74.5392 86.458ZM74.5392 88.0849C74.5078 88.085 74.2369 88.1213 73.924 88.748L72.5666 91.4844L72.5675 91.4853C72.4028 91.8244 72.132 92.1051 71.8625 92.3066C71.593 92.508 71.2494 92.6864 70.884 92.749L70.881 92.75L68.4162 93.1631C67.7728 93.2713 67.6527 93.5097 67.6379 93.5566C67.622 93.6066 67.5853 93.8762 68.048 94.3428L69.964 96.2754C70.2475 96.5612 70.4302 96.9346 70.5295 97.2842C70.6288 97.6343 70.6686 98.0457 70.5822 98.4346L70.5812 98.4394L70.0324 100.832C69.9404 101.233 69.9391 101.515 69.9718 101.692C69.9876 101.777 70.01 101.828 70.0256 101.856C70.04 101.881 70.05 101.89 70.0519 101.891C70.0536 101.892 70.0631 101.899 70.09 101.905C70.1191 101.911 70.1729 101.916 70.257 101.906C70.4313 101.884 70.6964 101.798 71.047 101.588L71.048 101.587L73.3586 100.208L73.3634 100.206C73.7293 99.9905 74.1585 99.9062 74.5431 99.9062C74.9271 99.9062 75.3576 99.9898 75.7228 100.208L78.0324 101.587C78.3863 101.798 78.6525 101.884 78.8283 101.907C78.9128 101.917 78.9664 101.913 78.9953 101.907C79.022 101.901 79.0306 101.894 79.0314 101.893C79.0328 101.892 79.0421 101.885 79.0558 101.861C79.0711 101.834 79.0938 101.783 79.1095 101.697C79.134 101.563 79.1386 101.37 79.1007 101.112L79.048 100.832L78.4992 98.4394L78.4982 98.4346C78.4118 98.0457 78.4516 97.6343 78.5509 97.2842C78.6502 96.9346 78.833 96.5612 79.1164 96.2754L81.0324 94.3428L81.0343 94.3408C81.5002 93.8743 81.4618 93.6057 81.4465 93.5576C81.4328 93.5153 81.3363 93.3277 80.882 93.209L80.6642 93.1631L78.1994 92.75C77.831 92.6881 77.4849 92.5108 77.2131 92.3086C76.9414 92.1065 76.67 91.8247 76.505 91.4853L75.1486 88.749L75.1476 88.7471C74.8378 88.1191 74.5687 88.0849 74.5392 88.0849Z" fill="#0078CE"/>
</g>
<g filter="url(#filter2_d_56001_734041)">
<path d="M99.28 85.7654L101.141 89.5179C101.395 90.0403 102.071 90.5413 102.642 90.6372L106.015 91.2022C108.172 91.5647 108.68 93.1425 107.125 94.6989L104.503 97.3427C104.059 97.7904 103.816 98.6539 103.953 99.2722L104.704 102.545C105.296 105.136 103.932 106.138 101.659 104.784L98.4976 102.897C97.9267 102.556 96.9857 102.556 96.4042 102.897L93.2428 104.784C90.9801 106.138 89.6056 105.125 90.1977 102.545L90.9484 99.2722C91.0859 98.6539 90.8427 97.7904 90.3986 97.3427L87.7765 94.6989C86.2328 93.1425 86.7298 91.5647 88.8867 91.2022L92.2595 90.6372C92.8199 90.5413 93.4966 90.0403 93.7503 89.5179L95.6112 85.7654C96.6262 83.7292 98.2756 83.7292 99.28 85.7654Z" fill="white"/>
</g>
<g filter="url(#filter3_d_56001_734041)">
<path d="M97.4482 83.4248C98.5692 83.4248 99.4493 84.2714 100.009 85.4053L101.869 89.1562L101.872 89.1621C101.927 89.2746 102.057 89.4366 102.257 89.585C102.456 89.7332 102.651 89.8139 102.776 89.835L106.149 90.4004C107.371 90.6058 108.401 91.2057 108.736 92.2559C109.071 93.3047 108.579 94.3905 107.701 95.2705L107.702 95.2715L105.08 97.915C104.979 98.0167 104.864 98.2112 104.792 98.4658C104.721 98.717 104.714 98.9445 104.745 99.0908L105.496 102.363C105.807 103.725 105.706 105.086 104.736 105.799C103.763 106.514 102.439 106.195 101.242 105.482H101.241L98.08 103.596L98.079 103.595C97.9502 103.518 97.7262 103.454 97.454 103.454C97.1857 103.454 96.9582 103.517 96.8202 103.596L93.6591 105.482L93.6581 105.481C92.4632 106.196 91.1399 106.511 90.1669 105.795C89.1978 105.082 89.0919 103.724 89.4042 102.363L90.1542 99.0908C90.1855 98.9446 90.1796 98.717 90.1083 98.4658C90.036 98.2112 89.9211 98.0167 89.8203 97.915L87.1982 95.2715C86.3252 94.3913 85.8351 93.3047 86.1669 92.2568C86.4999 91.206 87.5283 90.6058 88.7509 90.4004L92.124 89.835C92.2436 89.8137 92.4338 89.7339 92.6318 89.5859C92.831 89.437 92.9627 89.2749 93.0175 89.1621L93.0204 89.1562L94.8818 85.4043V85.4023C95.4464 84.2697 96.3287 83.425 97.4482 83.4248ZM97.4482 85.0518C97.2382 85.052 96.7876 85.2246 96.3378 86.126L96.3388 86.127L94.4804 89.8721L94.4814 89.873C94.2824 90.2826 93.948 90.6325 93.6054 90.8887C93.263 91.1446 92.8363 91.364 92.3954 91.4395H92.3925L89.0204 92.0049C88.087 92.1618 87.7879 92.5303 87.7187 92.748C87.6488 92.9688 87.6828 93.4498 88.3535 94.126L90.9755 96.7695C91.3188 97.1156 91.5468 97.5778 91.6728 98.0215C91.7989 98.4657 91.8461 98.977 91.7411 99.4492L91.7402 99.4541L90.9892 102.727C90.7094 103.945 90.995 104.384 91.1308 104.484C91.2626 104.581 91.757 104.724 92.8242 104.086L92.8251 104.085L95.9863 102.198L95.9911 102.195C96.4353 101.935 96.9672 101.827 97.454 101.827C97.9401 101.827 98.472 101.934 98.914 102.198L102.075 104.085C103.152 104.726 103.644 104.583 103.773 104.488C103.897 104.397 104.156 104.008 103.956 102.947L103.91 102.727L103.159 99.4541L103.158 99.4492C103.053 98.9771 103.1 98.4657 103.226 98.0215C103.352 97.5778 103.581 97.1156 103.925 96.7695L106.547 94.126L106.549 94.124C107.224 93.4481 107.255 92.9688 107.185 92.75C107.116 92.5317 106.814 92.162 105.879 92.0049L102.507 91.4395C102.061 91.3646 101.631 91.1465 101.286 90.8896C100.941 90.633 100.607 90.2828 100.408 89.873L98.5507 86.127L98.5497 86.125C98.1047 85.2229 97.6566 85.0518 97.4482 85.0518Z" fill="#0078CE"/>
</g>
<g filter="url(#filter4_d_56001_734041)">
<path d="M122.988 88.3806L124.348 91.1228C124.533 91.5046 125.028 91.8707 125.445 91.9408L127.91 92.3537C129.486 92.6186 129.857 93.7715 128.721 94.9089L126.805 96.841C126.481 97.1681 126.303 97.7992 126.403 98.251L126.952 100.643C127.385 102.536 126.388 103.268 124.727 102.279L122.416 100.9C121.999 100.65 121.312 100.65 120.887 100.9L118.576 102.279C116.923 103.268 115.918 102.528 116.351 100.643L116.9 98.251C117 97.7992 116.822 97.1681 116.498 96.841L114.582 94.9089C113.454 93.7715 113.817 92.6186 115.393 92.3537L117.858 91.9408C118.267 91.8707 118.762 91.5046 118.947 91.1228L120.307 88.3806C121.049 86.8927 122.254 86.8927 122.988 88.3806Z" fill="white"/>
</g>
<g filter="url(#filter5_d_56001_734041)">
<path d="M121.649 86.4512C122.591 86.4512 123.292 87.1607 123.716 88.0205H123.715L125.075 90.7617L125.078 90.7676C125.099 90.8099 125.167 90.9025 125.293 90.9961C125.419 91.0898 125.53 91.1305 125.578 91.1387L128.042 91.5518C128.973 91.7083 129.825 92.1775 130.106 93.0566C130.386 93.9347 129.965 94.8099 129.296 95.4805L129.297 95.4814L127.381 97.4141C127.34 97.4555 127.271 97.5611 127.226 97.7217C127.182 97.8774 127.182 98.0047 127.194 98.0693L127.743 100.461L127.816 100.845C127.95 101.746 127.823 102.669 127.105 103.197C126.28 103.804 125.199 103.508 124.309 102.978L121.997 101.599C121.945 101.568 121.823 101.526 121.653 101.526C121.488 101.526 121.363 101.565 121.302 101.599L118.991 102.978L118.99 102.977C118.1 103.509 117.022 103.8 116.197 103.193C115.377 102.59 115.324 101.474 115.557 100.461L116.105 98.0693C116.118 98.0047 116.118 97.8774 116.073 97.7217C116.028 97.5611 115.959 97.4554 115.918 97.4141L114.002 95.4814C113.337 94.8108 112.919 93.9355 113.196 93.0586C113.475 92.1786 114.324 91.7085 115.256 91.5518H115.257L117.719 91.1387L117.827 91.1006C117.876 91.0779 117.934 91.0442 117.997 90.9971C118.124 90.9027 118.193 90.8101 118.214 90.7676L118.217 90.7617L119.576 88.0195L119.577 88.0176C120.005 87.159 120.708 86.4512 121.649 86.4512ZM121.649 88.0781C121.617 88.0782 121.346 88.1145 121.033 88.7412L119.676 91.4775L119.677 91.4785C119.512 91.8175 119.241 92.0983 118.972 92.2998C118.702 92.5012 118.359 92.6796 117.993 92.7422L117.99 92.7432L115.526 93.1562C114.882 93.2645 114.762 93.5029 114.747 93.5498C114.731 93.5998 114.695 93.8693 115.157 94.3359L117.073 96.2686C117.357 96.5544 117.54 96.9277 117.639 97.2773C117.738 97.6275 117.778 98.0388 117.692 98.4277L117.691 98.4326L117.142 100.824C117.05 101.225 117.048 101.508 117.081 101.685C117.097 101.77 117.119 101.821 117.135 101.849C117.149 101.874 117.159 101.882 117.161 101.884C117.163 101.885 117.173 101.892 117.199 101.897C117.228 101.904 117.282 101.909 117.366 101.898C117.541 101.876 117.806 101.791 118.156 101.581L118.157 101.58L120.468 100.201L120.473 100.198C120.839 99.9836 121.268 99.8994 121.653 99.8994C122.036 99.8994 122.467 99.9829 122.832 100.201L125.142 101.58C125.496 101.791 125.762 101.877 125.938 101.899C126.022 101.91 126.076 101.905 126.105 101.899C126.131 101.894 126.14 101.886 126.141 101.886C126.142 101.885 126.151 101.878 126.165 101.854C126.18 101.826 126.203 101.775 126.219 101.689C126.243 101.556 126.248 101.363 126.21 101.104L126.157 100.824L125.609 98.4326L125.608 98.4277C125.521 98.0388 125.561 97.6275 125.66 97.2773C125.76 96.9278 125.942 96.5543 126.226 96.2686L128.142 94.3359L128.144 94.334C128.61 93.8675 128.571 93.5989 128.556 93.5508C128.542 93.5085 128.446 93.3209 127.991 93.2021L127.774 93.1562L125.309 92.7432C124.94 92.6813 124.594 92.504 124.322 92.3018C124.051 92.0997 123.779 91.8179 123.614 91.4785L122.258 88.7422L122.257 88.7402C121.947 88.1123 121.678 88.0781 121.649 88.0781Z" fill="#0078CE"/>
</g>
</g>
</g>
<defs>
<filter id="filter0_d_56001_734041" x="-37.2996" y="2.67729" width="223.687" height="223.687" filterUnits="userSpaceOnUse" color-interpolation-filters="sRGB">
<feFlood flood-opacity="0" result="BackgroundImageFix"/>
<feColorMatrix in="SourceAlpha" type="matrix" values="0 0 0 0 0 0 0 0 0 0 0 0 0 0 0 0 0 0 127 0" result="hardAlpha"/>
<feOffset dy="19.5218"/>
<feGaussianBlur stdDeviation="52.058"/>
<feColorMatrix type="matrix" values="0 0 0 0 0.0705882 0 0 0 0 0.105882 0 0 0 0 0.129412 0 0 0 0.4 0"/>
<feBlend mode="normal" in2="BackgroundImageFix" result="effect1_dropShadow_56001_734041"/>
<feBlend mode="normal" in="SourceGraphic" in2="effect1_dropShadow_56001_734041" result="shape"/>
</filter>
<filter id="filter1_d_56001_734041" x="-38.116" y="1.86381" width="225.316" height="225.316" filterUnits="userSpaceOnUse" color-interpolation-filters="sRGB">
<feFlood flood-opacity="0" result="BackgroundImageFix"/>
<feColorMatrix in="SourceAlpha" type="matrix" values="0 0 0 0 0 0 0 0 0 0 0 0 0 0 0 0 0 0 127 0" result="hardAlpha"/>
<feOffset dy="19.5218"/>
<feGaussianBlur stdDeviation="52.058"/>
<feColorMatrix type="matrix" values="0 0 0 0 0.0705882 0 0 0 0 0.105882 0 0 0 0 0.129412 0 0 0 0.4 0"/>
<feBlend mode="normal" in2="BackgroundImageFix" result="effect1_dropShadow_56001_734041"/>
<feBlend mode="normal" in="SourceGraphic" in2="effect1_dropShadow_56001_734041" result="shape"/>
</filter>
<filter id="filter2_d_56001_734041" x="-17.2371" y="-0.355917" width="229.38" height="229.381" filterUnits="userSpaceOnUse" color-interpolation-filters="sRGB">
<feFlood flood-opacity="0" result="BackgroundImageFix"/>
<feColorMatrix in="SourceAlpha" type="matrix" values="0 0 0 0 0 0 0 0 0 0 0 0 0 0 0 0 0 0 127 0" result="hardAlpha"/>
<feOffset dy="19.5218"/>
<feGaussianBlur stdDeviation="52.058"/>
<feColorMatrix type="matrix" values="0 0 0 0 0.0705882 0 0 0 0 0.105882 0 0 0 0 0.129412 0 0 0 0.4 0"/>
<feBlend mode="normal" in2="BackgroundImageFix" result="effect1_dropShadow_56001_734041"/>
<feBlend mode="normal" in="SourceGraphic" in2="effect1_dropShadow_56001_734041" result="shape"/>
</filter>
<filter id="filter3_d_56001_734041" x="-18.0535" y="-1.16939" width="231.011" height="231.009" filterUnits="userSpaceOnUse" color-interpolation-filters="sRGB">
<feFlood flood-opacity="0" result="BackgroundImageFix"/>
<feColorMatrix in="SourceAlpha" type="matrix" values="0 0 0 0 0 0 0 0 0 0 0 0 0 0 0 0 0 0 127 0" result="hardAlpha"/>
<feOffset dy="19.5218"/>
<feGaussianBlur stdDeviation="52.058"/>
<feColorMatrix type="matrix" values="0 0 0 0 0.0705882 0 0 0 0 0.105882 0 0 0 0 0.129412 0 0 0 0.4 0"/>
<feBlend mode="normal" in2="BackgroundImageFix" result="effect1_dropShadow_56001_734041"/>
<feBlend mode="normal" in="SourceGraphic" in2="effect1_dropShadow_56001_734041" result="shape"/>
</filter>
<filter id="filter4_d_56001_734041" x="9.80978" y="2.67045" width="223.686" height="223.687" filterUnits="userSpaceOnUse" color-interpolation-filters="sRGB">
<feFlood flood-opacity="0" result="BackgroundImageFix"/>
<feColorMatrix in="SourceAlpha" type="matrix" values="0 0 0 0 0 0 0 0 0 0 0 0 0 0 0 0 0 0 127 0" result="hardAlpha"/>
<feOffset dy="19.5218"/>
<feGaussianBlur stdDeviation="52.058"/>
<feColorMatrix type="matrix" values="0 0 0 0 0.0705882 0 0 0 0 0.105882 0 0 0 0 0.129412 0 0 0 0.4 0"/>
<feBlend mode="normal" in2="BackgroundImageFix" result="effect1_dropShadow_56001_734041"/>
<feBlend mode="normal" in="SourceGraphic" in2="effect1_dropShadow_56001_734041" result="shape"/>
</filter>
<filter id="filter5_d_56001_734041" x="8.99338" y="1.85697" width="225.317" height="225.316" filterUnits="userSpaceOnUse" color-interpolation-filters="sRGB">
<feFlood flood-opacity="0" result="BackgroundImageFix"/>
<feColorMatrix in="SourceAlpha" type="matrix" values="0 0 0 0 0 0 0 0 0 0 0 0 0 0 0 0 0 0 127 0" result="hardAlpha"/>
<feOffset dy="19.5218"/>
<feGaussianBlur stdDeviation="52.058"/>
<feColorMatrix type="matrix" values="0 0 0 0 0.0705882 0 0 0 0 0.105882 0 0 0 0 0.129412 0 0 0 0.4 0"/>
<feBlend mode="normal" in2="BackgroundImageFix" result="effect1_dropShadow_56001_734041"/>
<feBlend mode="normal" in="SourceGraphic" in2="effect1_dropShadow_56001_734041" result="shape"/>
</filter>
<clipPath id="clip0_56001_734041">
<rect width="196" height="121" fill="white"/>
</clipPath>
</defs>
</svg>
