<svg width="196" height="121" viewBox="0 0 196 121" fill="none" xmlns="http://www.w3.org/2000/svg">
<path d="M98.0003 92.6684C97.2888 92.6684 96.6877 92.4185 96.197 91.9186C95.7063 91.4187 95.461 90.7938 95.461 90.0439V87.2694L96.565 88.2817C94.9212 88.2068 93.4982 87.9943 92.2961 87.6444C91.0939 87.2944 90.1125 86.9445 89.3519 86.5946C88.714 86.2946 88.2602 85.8697 87.9903 85.3198C87.7449 84.7699 87.6468 84.2075 87.6959 83.6326C87.7695 83.0577 87.978 82.5328 88.3215 82.0579C88.665 81.583 89.1066 81.2705 89.6463 81.1206C90.2106 80.9456 90.8608 81.0206 91.5968 81.3455C92.0875 81.6205 92.8235 81.9079 93.8049 82.2079C94.8108 82.4828 96.0498 82.6203 97.5219 82.6203C98.5523 82.6203 99.362 82.5203 99.9508 82.3203C100.564 82.1204 100.993 81.8579 101.239 81.533C101.509 81.183 101.644 80.8081 101.644 80.4082C101.644 80.0333 101.545 79.7208 101.349 79.4709C101.177 79.1959 100.883 78.9585 100.466 78.7585C100.049 78.5335 99.4724 78.3336 98.7363 78.1586L94.5778 77.2588C92.2961 76.7339 90.5909 75.859 89.4623 74.6343C88.3583 73.3845 87.8063 71.7723 87.8063 69.7976C87.8063 68.2979 88.162 66.9607 88.8735 65.7859C89.6095 64.5861 90.6277 63.6113 91.928 62.8614C93.2529 62.1116 94.7986 61.6366 96.565 61.4367L95.461 62.0741V59.562C95.461 58.8122 95.7063 58.1873 96.197 57.6874C96.6877 57.1875 97.2888 56.9375 98.0003 56.9375C98.7363 56.9375 99.3497 57.1875 99.8404 57.6874C100.331 58.1873 100.576 58.8122 100.576 59.562V62.0741L99.4724 61.3617C100.405 61.3867 101.411 61.5492 102.49 61.8491C103.57 62.124 104.514 62.5115 105.324 63.0114C105.888 63.3113 106.281 63.7238 106.501 64.2487C106.747 64.7736 106.833 65.311 106.759 65.8609C106.71 66.3858 106.514 66.8607 106.17 67.2856C105.851 67.7105 105.41 67.998 104.845 68.1479C104.306 68.2729 103.655 68.1729 102.895 67.848C102.331 67.598 101.693 67.3981 100.981 67.2481C100.294 67.0731 99.411 66.9857 98.3315 66.9857C97.0312 66.9857 96.0253 67.2231 95.3138 67.698C94.6268 68.1729 94.2833 68.7853 94.2833 69.5352C94.2833 70.0351 94.4796 70.46 94.8722 70.81C95.2893 71.1349 96.0376 71.4223 97.1171 71.6723L101.312 72.6096C103.643 73.1345 105.361 74.0094 106.465 75.2341C107.593 76.4339 108.158 77.9961 108.158 79.9208C108.158 81.4205 107.802 82.7453 107.09 83.8951C106.379 85.0448 105.385 85.9822 104.109 86.707C102.858 87.4319 101.398 87.9068 99.73 88.1318L100.576 87.2319V90.0439C100.576 90.7938 100.331 91.4187 99.8404 91.9186C99.3742 92.4185 98.7609 92.6684 98.0003 92.6684Z" fill="#324552"/>
<path d="M79.846 107.014H115.585C118.79 107.014 121.95 106.257 124.808 104.804C127.665 103.351 130.138 101.243 132.026 98.6527C133.914 96.0624 135.164 93.0627 135.673 89.898C136.182 86.7332 135.936 83.493 134.955 80.4414L126.277 53.4515C124.629 48.3252 121.397 43.8541 117.046 40.6821C112.695 37.5101 107.449 35.801 102.065 35.8008H93.3664C87.9818 35.801 82.7361 37.5101 78.3849 40.6821C74.0337 43.8541 70.8016 48.3252 69.1539 53.4515L60.476 80.4414C59.4951 83.493 59.2492 86.7332 59.7581 89.898C60.267 93.0627 61.5165 96.0624 63.4047 98.6527C65.2928 101.243 67.7663 103.351 70.6234 104.804C73.4806 106.257 76.6406 107.014 79.846 107.014Z" fill="#CFE4F1" stroke="#324552" stroke-width="1.91077" stroke-linecap="round" stroke-linejoin="round"/>
<path d="M112.97 15.4551C109.579 29.0195 104.492 35.8017 97.7102 35.8017C90.928 35.8017 85.8413 29.0195 82.4502 15.4551H112.97Z" fill="#CFE4F1" stroke="#324552" stroke-width="1.91077" stroke-linecap="round" stroke-linejoin="round"/>
<path d="M124.993 35.5438C122.301 36.1679 119.824 37.5009 117.821 39.4046C115.818 41.3083 114.36 43.7133 113.6 46.3702C112.839 49.0271 112.803 51.839 113.496 54.5144C114.188 57.1898 115.584 59.6312 117.538 61.5854C119.492 63.5395 121.934 64.9353 124.609 65.6278C127.285 66.3204 130.096 66.2845 132.753 65.524C135.41 64.7635 137.815 63.3059 139.719 61.3026C141.623 59.2992 142.956 56.823 143.58 54.1308C143.58 53.6744 143.398 53.2367 143.076 52.9139C142.753 52.5911 142.315 52.4098 141.859 52.4098H130.156C129.243 52.4098 128.367 52.0472 127.722 51.4017C127.076 50.7562 126.714 49.8807 126.714 48.9678V36.9206C126.692 36.7167 126.631 36.5191 126.532 36.3392C126.434 36.1593 126.301 36.0007 126.141 35.8726C125.981 35.7445 125.797 35.6495 125.6 35.5931C125.403 35.5366 125.196 35.5199 124.993 35.5438Z" fill="#CFE4F1" stroke="#324552" stroke-width="1.91077" stroke-linecap="round" stroke-linejoin="round"/>
<path d="M133.599 36.0625C135.784 36.8319 137.769 38.0818 139.407 39.72C141.045 41.3581 142.295 43.3429 143.065 45.5281H135.32C134.864 45.5281 134.426 45.3468 134.103 45.0241C133.78 44.7013 133.599 44.2636 133.599 43.8071V36.0625Z" fill="#CFE4F1" stroke="#324552" stroke-width="1.91077" stroke-linecap="round" stroke-linejoin="round"/>
<path d="M97.5228 92.2641C96.8113 92.2641 96.2102 92.0142 95.7195 91.5143C95.2288 91.0144 94.9835 90.3895 94.9835 89.6396V86.8651L96.0875 87.8775C94.4437 87.8025 93.0207 87.59 91.8185 87.2401C90.6163 86.8901 89.635 86.5402 88.8744 86.1903C88.2365 85.8903 87.7826 85.4654 87.5127 84.9155C87.2674 84.3656 87.1693 83.8032 87.2183 83.2283C87.2919 82.6534 87.5005 82.1285 87.8439 81.6536C88.1874 81.1787 88.629 80.8662 89.1688 80.7163C89.7331 80.5413 90.3833 80.6163 91.1193 80.9412C91.61 81.2162 92.346 81.5036 93.3274 81.8036C94.3333 82.0785 95.5723 82.216 97.0443 82.216C98.0748 82.216 98.8844 82.116 99.4732 81.916C100.087 81.7161 100.516 81.4536 100.761 81.1287C101.031 80.7788 101.166 80.4038 101.166 80.0039C101.166 79.629 101.068 79.3165 100.872 79.0666C100.7 78.7916 100.406 78.5542 99.9885 78.3542C99.5714 78.1292 98.9948 77.9293 98.2588 77.7543L94.1002 76.8545C91.8185 76.3296 90.1134 75.4547 88.9848 74.23C87.8808 72.9802 87.3287 71.368 87.3287 69.3933C87.3287 67.8936 87.6845 66.5564 88.396 65.3816C89.132 64.1818 90.1502 63.207 91.4505 62.4571C92.7754 61.7073 94.321 61.2323 96.0875 61.0324L94.9835 61.6698V59.1577C94.9835 58.4079 95.2288 57.783 95.7195 57.2831C96.2102 56.7832 96.8113 56.5332 97.5228 56.5332C98.2588 56.5332 98.8722 56.7832 99.3628 57.2831C99.8535 57.783 100.099 58.4079 100.099 59.1577V61.6698L98.9948 60.9574C99.9271 60.9824 100.933 61.1449 102.013 61.4448C103.092 61.7198 104.037 62.1072 104.846 62.6071C105.411 62.907 105.803 63.3195 106.024 63.8444C106.269 64.3693 106.355 64.9067 106.282 65.4566C106.232 65.9815 106.036 66.4564 105.693 66.8813C105.374 67.3062 104.932 67.5937 104.368 67.7436C103.828 67.8686 103.178 67.7686 102.417 67.4437C101.853 67.1937 101.215 66.9938 100.504 66.8438C99.8167 66.6688 98.9335 66.5814 97.854 66.5814C96.5537 66.5814 95.5477 66.8188 94.8362 67.2937C94.1493 67.7686 93.8058 68.381 93.8058 69.1309C93.8058 69.6308 94.0021 70.0557 94.3946 70.4057C94.8117 70.7306 95.56 71.018 96.6395 71.268L100.835 72.2053C103.166 72.7302 104.883 73.6051 105.987 74.8298C107.116 76.0296 107.68 77.5918 107.68 79.5165C107.68 81.0162 107.324 82.341 106.613 83.4908C105.901 84.6405 104.908 85.5779 103.632 86.3027C102.381 87.0276 100.921 87.5025 99.2524 87.7275L100.099 86.8276V89.6396C100.099 90.3895 99.8535 91.0144 99.3628 91.5143C98.8967 92.0142 98.2833 92.2641 97.5228 92.2641Z" fill="#0078CE"/>
<path d="M78.5618 62.2694C68.5448 53.1585 81.474 40.7725 81.474 40.7725C74.1338 44.4529 68.0572 53.6439 64.7288 61.6971C64.5716 62.0775 64.4628 62.4738 64.3839 62.8778C63.1631 69.1232 59.5901 77.0568 59.4409 83.7565C59.4126 85.0281 59.791 86.2624 60.2571 87.4459C61.8094 91.3874 61.422 92.8168 63.8068 97.051C64.2482 97.8347 64.8418 98.526 65.5368 99.0971C70.1451 102.883 73.9675 104.99 77.1933 106.288C78.0919 106.65 79.0567 106.805 80.0254 106.805H88.2547C88.2547 106.805 80.334 104.457 88.2547 97.6958C96.1755 90.9343 88.5787 71.3804 78.5618 62.2694Z" fill="#0078CE" fill-opacity="0.2"/>
</svg>
