<svg width="196" height="121" viewBox="0 0 196 121" fill="none" xmlns="http://www.w3.org/2000/svg">
<g clip-path="url(#clip0_56008_734152)">
<mask id="mask0_56008_734152" style="mask-type:luminance" maskUnits="userSpaceOnUse" x="0" y="0" width="196" height="121">
<path d="M196 0H0V121H196V0Z" fill="white"/>
</mask>
<g mask="url(#mask0_56008_734152)">
<path d="M81.8189 15.4642C82.5218 14.401 83.6696 13.5879 85.2173 13.5879H108.861C110.467 13.5879 111.716 14.2974 112.513 15.3773C113.275 16.4103 113.576 17.7074 113.544 18.9174C113.511 20.1292 113.142 21.3972 112.386 22.3979C111.606 23.4301 110.405 24.1746 108.861 24.1746H103.418C103.031 24.1746 102.716 24.4842 102.716 24.8691V26.7264H91.1524V24.7441C91.1524 24.3706 90.8686 24.1083 90.5469 24.1012C89.2221 24.0719 87.3392 24.0663 85.2902 24.1728C83.7347 24.2535 82.5556 23.491 81.8313 22.433C81.1409 21.4247 80.8477 20.1498 80.8477 18.9587C80.8477 17.7653 81.1417 16.4883 81.8189 15.4642Z" fill="white" stroke="#111B22" stroke-width="1.25647"/>
<path d="M96.0868 26.1055C114.992 26.1057 130.326 41.5111 130.326 60.5253C130.326 79.5397 114.992 94.946 96.0868 94.9462C77.1817 94.9462 61.8477 79.5399 61.8477 60.5253C61.848 41.511 77.1818 26.1055 96.0868 26.1055Z" fill="white" stroke="#111B22" stroke-width="1.88472"/>
<path d="M96.0793 30.6523C112.492 30.6523 125.8 44.0268 125.8 60.5279C125.8 77.0291 112.492 90.4027 96.0793 90.4027C79.6673 90.4025 66.3595 77.0289 66.3594 60.5279C66.3594 44.0269 79.6672 30.6525 96.0793 30.6523Z" fill="white" stroke="#111B22" stroke-width="0.68849"/>
<path d="M96.0819 31.251C112.161 31.251 125.204 44.3541 125.204 60.5278C125.204 76.7015 112.161 89.8048 96.0819 89.8048C80.0032 89.8044 66.961 76.7013 66.9609 60.5278C66.9609 44.3542 80.0031 31.2512 96.0819 31.251Z" fill="white" stroke="#111B22" stroke-width="1.88472"/>
<path d="M94.7109 37.0899C99.2094 36.8196 103.691 37.8562 107.599 40.077C111.505 42.2969 114.662 45.599 116.682 49.571L96.2947 59.4335L94.7109 37.0899Z" fill="#0078CE" stroke="#111B22" stroke-width="0.414917"/>
<path d="M96.8753 76.2729C97.2254 76.2731 97.5052 76.5523 97.5052 76.8914V81.8464C97.505 82.1852 97.2261 82.4636 96.8764 82.4637C96.5263 82.4636 96.2466 82.1844 96.2466 81.8452V76.8903C96.2467 76.5516 96.5257 76.273 96.8753 76.2729ZM104.534 74.1097C104.822 73.9159 105.214 73.9903 105.409 74.2729L108.548 78.8149C108.741 79.0959 108.669 79.479 108.383 79.6719C108.095 79.8659 107.702 79.7915 107.506 79.5088L104.369 74.9678C104.174 74.6866 104.247 74.3027 104.534 74.1097ZM88.2302 74.1097C88.4004 73.8128 88.7851 73.7055 89.0892 73.8755C89.3916 74.0444 89.4956 74.4214 89.3267 74.717L86.606 79.4655C86.4357 79.7626 86.0511 79.8696 85.7469 79.6997C85.4446 79.5306 85.3403 79.1537 85.5094 78.8582L88.2302 74.1097ZM82.1693 68.1078C82.4659 67.9267 82.8542 68.0177 83.0366 68.3081C83.218 68.5972 83.1284 68.9774 82.8332 69.1577L78.4399 71.8424C78.1432 72.0236 77.7539 71.9328 77.5715 71.6421C77.3903 71.3531 77.4801 70.9728 77.7749 70.7923L82.1693 68.1078ZM110.405 68.3937C110.572 68.095 110.956 67.9844 111.262 68.1511L116.075 70.7758C116.379 70.9419 116.487 71.318 116.321 71.6153C116.154 71.9141 115.77 72.0248 115.464 71.8579L110.652 69.2332C110.347 69.0671 110.239 68.6909 110.405 68.3937ZM96.5202 56.4538C97.4907 56.4539 98.3828 56.7795 99.0922 57.3252L95.8945 59.1497C95.0952 59.6055 94.8191 60.6167 95.2822 61.4088C95.7443 62.1996 96.7661 62.4688 97.564 62.0139L100.69 60.2308C100.699 60.3465 100.706 60.4637 100.706 60.5818C100.706 62.8588 98.8346 64.7096 96.5202 64.7098C94.2056 64.7098 92.3335 62.8589 92.3333 60.5818C92.3333 58.3046 94.2055 56.4538 96.5202 56.4538ZM99.4267 57.6123C100.032 58.1886 100.461 58.9426 100.628 59.7888L97.3576 61.6536C96.7552 61.9966 95.9866 61.7913 95.6405 61.1993C95.2953 60.6086 95.4991 59.8527 96.0999 59.51L99.4267 57.6123ZM74.9686 59.9634H80.1993C80.5493 59.9634 80.8289 60.2428 80.8291 60.5818C80.8292 60.9209 80.5503 61.2003 80.2003 61.2003H74.9696C74.6195 61.2002 74.3399 60.9199 74.3398 60.5807C74.3399 60.242 74.6188 59.9633 74.9686 59.9634ZM113.467 59.7011L118.699 59.7021C119.049 59.7022 119.328 59.9816 119.328 60.3205C119.328 60.6595 119.049 60.9391 118.699 60.9391L113.468 60.938C113.118 60.938 112.838 60.6587 112.838 60.3196C112.838 59.9806 113.117 59.7013 113.467 59.7011ZM114.932 48.774C115.533 48.4308 116.302 48.6361 116.649 49.2283C116.993 49.819 116.79 50.575 116.189 50.9175L101.006 59.573C100.813 58.7368 100.389 57.9889 99.8015 57.3986L114.932 48.774ZM77.1399 49.5422C77.3099 49.2451 77.6948 49.1383 77.999 49.3078L82.8115 51.9924C83.1139 52.1612 83.2187 52.5373 83.0501 52.8328C82.8801 53.13 82.4952 53.2378 82.191 53.0683L77.3784 50.3837C77.0758 50.2147 76.9709 49.8378 77.1399 49.5422ZM85.5094 41.4793C85.8037 41.2943 86.1938 41.3811 86.3799 41.6693L89.3091 46.2113C89.4942 46.4981 89.4099 46.88 89.117 47.0642C88.8228 47.2493 88.4326 47.1627 88.2467 46.8742L85.3174 42.3322C85.1325 42.0454 85.2168 41.6635 85.5094 41.4793Z" fill="#111B22" stroke="#111B22" stroke-width="0.414917"/>
<g filter="url(#filter0_d_56008_734152)">
<path d="M116.158 105.174C126.96 105.174 135.718 96.4164 135.718 85.6137C135.718 74.811 126.96 66.0537 116.158 66.0537C105.355 66.0537 96.5977 74.811 96.5977 85.6137C96.5977 96.4164 105.355 105.174 116.158 105.174Z" fill="#BFDBEE" stroke="#0078CE" stroke-width="2.30117"/>
</g>
<path d="M105.813 68.4541C105.813 68.4541 102.106 81.2454 109.963 83.8385C117.818 86.4315 123.133 97.4755 118.87 100.844C117.353 102.043 116.976 102.57 117.119 102.753L119.345 102.283C119.345 102.283 117.379 103.083 117.119 102.753L114.83 103.237C113.378 103.543 111.869 103.559 110.5 102.988C109.003 102.363 107.201 101.433 105.501 100.442C104.383 99.79 103.424 98.9 102.686 97.836C101.516 96.1491 100.127 94.0037 98.9976 92.1653C97.9537 90.4659 97.351 88.5357 97.1864 86.5481C96.9165 83.289 96.7547 78.9794 98.022 76.5443C98.3781 75.8601 98.8492 75.2351 99.2082 74.5524C100.786 71.5516 102.191 70.2826 105.813 68.4541Z" fill="#0078CE" fill-opacity="0.2"/>
<path d="M120.848 84.6277L123.934 81.5408L120.848 78.4541" stroke="#0078CE" stroke-width="2.48936" stroke-linecap="round" stroke-linejoin="round"/>
<path d="M108.998 81.54H123.934" stroke="#0078CE" stroke-width="2.48936" stroke-linecap="round" stroke-linejoin="round"/>
<path d="M112.085 87.1982L108.998 90.285L112.085 93.3718" stroke="#0078CE" stroke-width="2.48936" stroke-linecap="round" stroke-linejoin="round"/>
<path d="M123.934 90.2861H108.998" stroke="#0078CE" stroke-width="2.48936" stroke-linecap="round" stroke-linejoin="round"/>
</g>
</g>
<defs>
<filter id="filter0_d_56008_734152" x="82.1707" y="58.265" width="67.9741" height="67.9741" filterUnits="userSpaceOnUse" color-interpolation-filters="sRGB">
<feFlood flood-opacity="0" result="BackgroundImageFix"/>
<feColorMatrix in="SourceAlpha" type="matrix" values="0 0 0 0 0 0 0 0 0 0 0 0 0 0 0 0 0 0 127 0" result="hardAlpha"/>
<feOffset dy="6.6383"/>
<feGaussianBlur stdDeviation="6.6383"/>
<feColorMatrix type="matrix" values="0 0 0 0 0.0705882 0 0 0 0 0.105882 0 0 0 0 0.129412 0 0 0 0.1 0"/>
<feBlend mode="normal" in2="BackgroundImageFix" result="effect1_dropShadow_56008_734152"/>
<feBlend mode="normal" in="SourceGraphic" in2="effect1_dropShadow_56008_734152" result="shape"/>
</filter>
<clipPath id="clip0_56008_734152">
<rect width="196" height="121" fill="white"/>
</clipPath>
</defs>
</svg>
