<svg width="196" height="121" viewBox="0 0 196 121" fill="none" xmlns="http://www.w3.org/2000/svg">
<path fill-rule="evenodd" clip-rule="evenodd" d="M68.5712 33.7649C69.5837 33.2076 70.6935 33.1406 71.5869 33.1406H117.455C118.052 33.1406 118.536 33.6584 118.536 34.297C118.536 34.9357 118.052 35.4534 117.455 35.4534H71.5869C70.7504 35.4534 70.0864 35.532 69.5608 35.8213C68.4913 36.41 68.2304 37.171 68.2722 37.7311C68.3174 38.3382 68.7436 39.0901 69.7351 39.5526C70.142 39.7424 70.6434 39.7898 71.3146 39.7898H124.889C125.867 39.7898 126.498 39.4612 126.877 39.0724C127.264 38.6762 127.456 38.1509 127.456 37.6216C127.456 37.0922 127.264 36.5669 126.877 36.1708C126.498 35.782 125.867 35.4534 124.889 35.4534C124.291 35.4534 123.807 34.9357 123.807 34.297C123.807 33.6584 124.291 33.1406 124.889 33.1406C126.343 33.1406 127.537 33.6432 128.374 34.5011C129.203 35.3516 129.619 36.4887 129.619 37.6216C129.619 38.7545 129.203 39.8915 128.374 40.7421C127.537 41.6 126.343 42.1025 124.889 42.1025H71.3146C70.6151 42.1025 69.7199 42.0687 68.8705 41.6725C67.3046 40.942 66.2376 39.5409 66.1164 37.9149C65.9917 36.2418 66.8911 34.6896 68.5712 33.7649ZM70.2837 44.5598C70.8809 44.5598 71.365 45.0776 71.365 45.7162V73.0356C71.365 78.9431 75.843 83.7321 81.3669 83.7321H114.751C120.275 83.7321 124.753 78.9431 124.753 73.0356V69.6387C124.753 69.0001 125.237 68.4824 125.834 68.4824C126.432 68.4824 126.916 69.0001 126.916 69.6387V73.0356C126.916 80.2204 121.469 86.0448 114.751 86.0448H109.615V93.1276H115.562C116.159 93.1276 116.643 93.6454 116.643 94.284C116.643 94.9227 116.159 95.4404 115.562 95.4404H79.8797C79.2825 95.4404 78.7984 94.9227 78.7984 94.284C78.7984 93.6454 79.2825 93.1276 79.8797 93.1276H85.8268V86.0448H81.3669C74.6486 86.0448 69.2024 80.2204 69.2024 73.0356V45.7162C69.2024 45.0776 69.6865 44.5598 70.2837 44.5598ZM87.9894 86.0448V93.1276H107.453V86.0448H87.9894ZM75.4194 45.7162C75.4194 45.0776 75.9035 44.5598 76.5007 44.5598H123.672C125.463 44.5598 126.916 46.113 126.916 48.029V52.2208C126.916 52.8595 126.432 53.3772 125.834 53.3772C125.237 53.3772 124.753 52.8595 124.753 52.2208V48.029C124.753 47.3903 124.269 46.8726 123.672 46.8726H76.5007C75.9035 46.8726 75.4194 46.3549 75.4194 45.7162Z" fill="#111B22"/>
<path fill-rule="evenodd" clip-rule="evenodd" d="M104.309 14.6433C104.678 14.704 104.931 15.073 104.875 15.4675L104.064 21.1048C104.007 21.4993 103.662 21.77 103.293 21.7093C102.924 21.6486 102.671 21.2796 102.728 20.885L103.539 15.2477C103.595 14.8532 103.94 14.5826 104.309 14.6433Z" fill="#111B22"/>
<path fill-rule="evenodd" clip-rule="evenodd" d="M134.353 98.4636C134.133 98.7862 133.711 98.8571 133.409 98.622L131.444 97.09C131.142 96.8549 131.076 96.4029 131.296 96.0803C131.515 95.7577 131.938 95.6868 132.24 95.9219L134.205 97.4538C134.507 97.6889 134.573 98.141 134.353 98.4636Z" fill="#566976"/>
<path fill-rule="evenodd" clip-rule="evenodd" d="M67.9939 105.786C68.2138 106.109 68.6365 106.179 68.9381 105.944L70.9035 104.412C71.2052 104.177 71.2715 103.725 71.0516 103.403C70.8318 103.08 70.4091 103.009 70.1074 103.244L68.142 104.776C67.8404 105.011 67.7741 105.463 67.9939 105.786Z" fill="#566976"/>
<path fill-rule="evenodd" clip-rule="evenodd" d="M53.0353 61.4159C53.0195 61.8147 53.3091 62.1517 53.682 62.1685L56.1119 62.278C56.4848 62.2948 56.7998 61.9852 56.8155 61.5864C56.8313 61.1876 56.5417 60.8507 56.1688 60.8338L53.7389 60.7243C53.366 60.7075 53.051 61.0171 53.0353 61.4159Z" fill="#111B22"/>
<path fill-rule="evenodd" clip-rule="evenodd" d="M130.08 51.3419C130.08 50.7033 130.564 50.1855 131.161 50.1855V51.3419V52.4983C130.564 52.4983 130.08 51.9806 130.08 51.3419ZM137.919 58.2802C136.838 58.2802 136.838 58.2802 136.838 58.2801V53.8072L115.363 72.9012C115.363 72.9013 115.363 72.9013 114.671 72.0121L115.363 72.9012L114.661 73.525L99.6575 59.7922L83.734 73.9141L82.3535 72.1338L99.6795 56.7682L114.681 70.4993L134.927 52.4983H131.161C131.161 52.4983 131.161 52.4983 131.161 51.3419C131.161 50.1855 131.161 50.1855 131.161 50.1855H137.919C138.516 50.1855 139 50.7033 139 51.3419V58.28C139 58.2801 139 58.2802 137.919 58.2802ZM137.919 58.2802L136.838 58.2801C136.838 58.9188 137.322 59.4366 137.919 59.4366C138.516 59.4366 139 58.9187 139 58.28L137.919 58.2802Z" fill="#0078CE" fill-opacity="0.4"/>
<path d="M86.9617 72.0179C86.9617 73.7742 85.6304 75.198 83.9882 75.198C82.3459 75.198 81.0146 73.7742 81.0146 72.0179C81.0146 70.2616 82.3459 68.8379 83.9882 68.8379C85.6304 68.8379 86.9617 70.2616 86.9617 72.0179Z" fill="#0078CE" fill-opacity="0.6"/>
<path d="M102.638 58.4183C102.638 60.1746 101.307 61.5984 99.6649 61.5984C98.0227 61.5984 96.6914 60.1746 96.6914 58.4183C96.6914 56.662 98.0227 55.2383 99.6649 55.2383C101.307 55.2383 102.638 56.662 102.638 58.4183Z" fill="#0078CE" fill-opacity="0.6"/>
<path d="M117.506 72.0179C117.506 73.7742 116.175 75.198 114.533 75.198C112.89 75.198 111.559 73.7742 111.559 72.0179C111.559 70.2616 112.89 68.8379 114.533 68.8379C116.175 68.8379 117.506 70.2616 117.506 72.0179Z" fill="#0078CE" fill-opacity="0.6"/>
</svg>
