<svg width="196" height="121" viewBox="0 0 196 121" fill="none" xmlns="http://www.w3.org/2000/svg">
<path d="M57.3203 25.1699H134.888C138.896 25.1702 142.146 28.4201 142.146 32.4287V44.7402H50.0615V32.4287C50.0617 28.42 53.3116 25.1701 57.3203 25.1699Z" fill="#BFDBEE"/>
<path d="M57.3203 25.1699H134.888C138.896 25.1702 142.146 28.4201 142.146 32.4287V44.7402H50.0615V32.4287C50.0617 28.42 53.3116 25.1701 57.3203 25.1699Z" stroke="#111B22" stroke-width="1.70173"/>
<path d="M59.2939 32.8789H84.1865C85.5498 32.8791 86.6074 33.9132 86.6074 35.1318C86.6074 36.3505 85.5499 37.3846 84.1865 37.3848H59.2939C57.9304 37.3847 56.8721 36.3506 56.8721 35.1318C56.8721 33.9131 57.9305 32.879 59.2939 32.8789Z" fill="#CFE4F1" stroke="#111B22" stroke-width="0.901071"/>
<path d="M114.089 31.978C115.831 31.9781 117.242 33.3906 117.242 35.1323C117.242 36.8739 115.83 38.2855 114.089 38.2856C112.347 38.2856 110.935 36.874 110.935 35.1323C110.935 33.3906 112.347 31.978 114.089 31.978Z" fill="#CFE4F1" stroke="#111B22" stroke-width="0.901071"/>
<path d="M123.101 31.978C124.842 31.9781 126.254 33.3906 126.254 35.1323C126.254 36.8739 124.842 38.2855 123.101 38.2856C121.359 38.2856 119.946 36.874 119.946 35.1323C119.946 33.3906 121.359 31.978 123.101 31.978Z" fill="#CFE4F1" stroke="#111B22" stroke-width="0.901071"/>
<path d="M132.108 31.978C133.85 31.9781 135.262 33.3906 135.262 35.1323C135.262 36.8739 133.85 38.2855 132.108 38.2856C130.367 38.2856 128.954 36.874 128.954 35.1323C128.954 33.3906 130.367 31.978 132.108 31.978Z" fill="#CFE4F1" stroke="#111B22" stroke-width="0.901071"/>
<path d="M141.964 34.5301C141.964 34.5301 139.412 36.9131 106.228 30.2759C87.9342 26.6169 60.722 43.446 55.6014 44.3151C51.5802 44.9976 50.9887 45.1329 50.92 45.1595L50.9216 45.166C50.9216 45.166 50.9013 45.1668 50.92 45.1595L50.3034 42.6131C49.6821 40.0476 49.7983 37.2543 49.9785 34.6208C50.0997 32.8485 50.2742 30.8616 51.0425 29.1285C51.6236 27.8175 52.8321 26.8949 54.1982 26.4588C55.5582 26.0247 56.4619 26.0666 58.2005 25.7044C59.5931 25.4142 60.9641 25.1714 62.3866 25.1628C74.3989 25.0904 128.189 24.5868 136.111 25.4769C136.628 25.535 137.099 25.7086 137.559 25.9526C141.915 28.2666 141.559 30.0764 141.964 34.5301Z" fill="#0078CE" fill-opacity="0.2"/>
<path d="M57.3672 106.002H134.743C138.752 106.002 142.002 102.752 142.002 98.7432V52.3975H50.1084V98.7432C50.1085 102.752 53.3585 106.002 57.3672 106.002Z" fill="white" stroke="#111B22" stroke-width="1.70173"/>
<rect x="0.464442" y="0.605314" width="1.08218" height="6.29298" rx="0.541091" transform="matrix(-0.133477 0.991052 0.991821 0.127639 39.2151 26.4042)" stroke="#0078CE" stroke-width="1.08218"/>
<rect x="-0.622445" y="0.477587" width="1.10627" height="6.10828" rx="0.553137" transform="matrix(-0.991821 -0.127637 -0.133478 0.991052 58.3279 14.3164)" stroke="#0078CE" stroke-width="1.10627"/>
<rect x="-0.100152" y="0.760922" width="1.09752" height="6.17623" rx="0.548759" transform="matrix(-0.799978 0.600029 0.617471 0.786594 45.885 16.5814)" stroke="#0078CE" stroke-width="1.09752"/>
<rect x="59.429" y="94.9411" width="17.0173" height="2.55259" rx="1.2763" transform="rotate(-90 59.429 94.9411)" fill="#111B22" stroke="#111B22" stroke-width="1.70173"/>
<rect x="70.0657" y="94.9411" width="28.9294" height="2.55259" rx="1.2763" transform="rotate(-90 70.0657 94.9411)" fill="#111B22" stroke="#111B22" stroke-width="1.70173"/>
<rect x="78.5696" y="94.9411" width="13.6138" height="2.55259" rx="1.2763" transform="rotate(-90 78.5696 94.9411)" fill="#111B22" stroke="#111B22" stroke-width="1.70173"/>
<rect x="87.9329" y="94.9411" width="22.1225" height="2.55259" rx="1.2763" transform="rotate(-90 87.9329 94.9411)" fill="#111B22" stroke="#111B22" stroke-width="1.70173"/>
<path d="M101.109 67.7356C101.109 66.7304 101.917 65.9155 102.914 65.9155H132.509C133.506 65.9155 134.314 66.7304 134.314 67.7356V71.2915C134.314 72.2967 133.506 73.1115 132.509 73.1115H102.914C101.917 73.1115 101.109 72.2967 101.109 71.2915V67.7356Z" fill="white"/>
<path d="M102.108 65.6996H105.726V67.4371L106.07 68.3058L106.932 68.6533H107.793L108.482 67.9583V66.7421V65.6996H120.023H126.913V66.9158L127.085 67.9583L127.946 68.827L128.98 68.6533L129.496 67.7846V65.5259H132.08L133.803 66.2209L134.664 67.4371V70.912L134.147 72.4757L132.769 73.3444H125.018H107.965L102.108 73.1707L101.075 72.4757L100.73 70.217L100.903 66.9158L102.108 65.6996Z" fill="#BFDBEE"/>
<path d="M112.273 69.3491C115.575 70.6203 126.054 66.743 129.67 70.3916C133.287 74.0402 134.494 70.3916 134.494 70.3916L134.494 67.0904L133.805 66.2217L132.944 65.7005L131.049 65.5267L129.67 65.7005L129.499 66.743L129.326 68.3067L128.293 68.8279L127.432 68.6542L126.915 67.6117L126.915 65.7005L126.57 65.7005L108.483 65.7005L108.483 66.9167L108.311 68.133L107.45 68.8279L106.589 68.6542L105.9 67.7855L105.9 65.7005L102.627 65.7005L102.28 65.916C102.091 66.0337 101.906 66.1616 101.749 66.3205C101.246 66.8304 101.039 67.3495 100.913 67.8384C100.643 68.8834 100.496 70.0257 100.641 71.095C100.641 71.095 100.369 71.9499 102.479 71.9343C104.589 71.9186 108.575 68.3718 112.273 69.3491Z" fill="#0078CE" fill-opacity="0.2"/>
<path fill-rule="evenodd" clip-rule="evenodd" d="M132.509 66.1178H102.914C102.028 66.1178 101.31 66.8421 101.31 67.7356V71.2915C101.31 72.185 102.028 72.9093 102.914 72.9093H132.509C133.395 72.9093 134.113 72.185 134.113 71.2915V67.7356C134.113 66.8421 133.395 66.1178 132.509 66.1178ZM102.914 65.9155C101.917 65.9155 101.109 66.7304 101.109 67.7356V71.2915C101.109 72.2967 101.917 73.1115 102.914 73.1115H132.509C133.506 73.1115 134.314 72.2967 134.314 71.2915V67.7356C134.314 66.7304 133.506 65.9155 132.509 65.9155H102.914Z" fill="#566976"/>
<path d="M101.582 93.367V73.1099C102.052 73.4789 132.905 73.5711 133.94 73.1099V89.9928L132.435 91.5919V94.1517C132.435 95.2686 131.537 96.174 130.43 96.174H104.365C103.607 96.174 102.993 95.5545 102.993 94.7902C102.214 94.7902 101.582 94.153 101.582 93.367Z" fill="white"/>
<path fill-rule="evenodd" clip-rule="evenodd" d="M101.793 72.6828C101.849 72.691 101.934 72.7001 102.049 72.7096C102.292 72.7297 102.64 72.7491 103.084 72.7674C103.969 72.8042 105.212 72.8362 106.699 72.8628C109.67 72.9161 113.6 72.9478 117.549 72.9535C121.499 72.9593 125.464 72.9391 128.505 72.8887C130.027 72.8635 131.314 72.8308 132.251 72.7902C132.72 72.7698 133.098 72.7477 133.371 72.724C133.508 72.7121 133.613 72.7002 133.688 72.6889C133.739 72.6814 133.762 72.6758 133.769 72.6745L134.404 72.3915V90.1804L132.899 91.7795V94.1524C132.899 95.528 131.793 96.6431 130.429 96.6431H104.364C103.494 96.6431 102.765 96.0322 102.576 95.2124C101.741 95.0213 101.117 94.2679 101.117 93.3677V72.1528L101.793 72.6828ZM103.584 95.2592C103.743 95.527 104.033 95.7063 104.364 95.7063H130.429C131.28 95.7063 131.97 95.0106 131.97 94.1524V92.7662L129.624 95.2592H103.584ZM102.046 73.649V93.3677C102.046 93.895 102.47 94.3225 102.992 94.3225H128.96V91.6113C128.96 90.4592 129.886 89.5251 131.028 89.5251H133.475V73.6551C133.467 73.6558 133.459 73.6565 133.45 73.6572C133.158 73.6827 132.765 73.7055 132.291 73.726C131.341 73.7672 130.045 73.8001 128.521 73.8253C125.472 73.8758 121.5 73.896 117.548 73.8903C113.596 73.8845 109.66 73.8528 106.682 73.7994C105.194 73.7727 103.941 73.7405 103.045 73.7034C102.638 73.6865 102.3 73.6684 102.046 73.649ZM132.858 90.4619H131.028C130.399 90.4619 129.889 90.9765 129.889 91.6113V93.6172L132.858 90.4619Z" fill="#111B22"/>
<path fill-rule="evenodd" clip-rule="evenodd" d="M107.122 62.6926C106.651 62.6926 106.27 63.0776 106.27 63.5525V67.5384C106.27 68.0133 106.651 68.3983 107.122 68.3983C107.593 68.3983 107.975 68.0133 107.975 67.5384V63.5525C107.975 63.0776 107.593 62.6926 107.122 62.6926ZM105.341 63.5525C105.341 62.5603 106.139 61.7559 107.122 61.7559C108.106 61.7559 108.904 62.5603 108.904 63.5525V65.0771H126.411V63.5525C126.411 62.5603 127.209 61.7559 128.192 61.7559C129.176 61.7559 129.974 62.5603 129.974 63.5525V65.0771H132.477C133.952 65.0771 135.147 66.2827 135.147 67.77V71.1628C135.147 72.65 133.952 73.8556 132.477 73.8556H102.931C101.457 73.8556 100.262 72.65 100.262 71.1628V67.77C100.262 66.2827 101.457 65.0771 102.931 65.0771H105.341V63.5525ZM105.341 66.0138H102.931C101.97 66.0138 101.19 66.8001 101.19 67.77V71.1628C101.19 72.1327 101.97 72.9189 102.931 72.9189H132.477C133.439 72.9189 134.219 72.1327 134.219 71.1628V67.77C134.219 66.8001 133.439 66.0138 132.477 66.0138H129.974V67.5384C129.974 68.5307 129.176 69.3351 128.192 69.3351C127.209 69.3351 126.411 68.5307 126.411 67.5384V66.0138H108.904V67.5384C108.904 68.5307 108.106 69.3351 107.122 69.3351C106.139 69.3351 105.341 68.5307 105.341 67.5384V66.0138ZM128.192 62.6926C127.722 62.6926 127.34 63.0776 127.34 63.5525V67.5384C127.34 68.0133 127.722 68.3983 128.192 68.3983C128.663 68.3983 129.045 68.0133 129.045 67.5384V63.5525C129.045 63.0776 128.663 62.6926 128.192 62.6926Z" fill="#111B22"/>
<path fill-rule="evenodd" clip-rule="evenodd" d="M107.12 62.6283C106.614 62.6283 106.204 63.0419 106.204 63.5521V67.538C106.204 68.0482 106.614 68.4618 107.12 68.4618C107.626 68.4618 108.036 68.0482 108.036 67.538V63.5521C108.036 63.0419 107.626 62.6283 107.12 62.6283ZM105.402 63.5521C105.402 62.5951 106.171 61.8193 107.12 61.8193C108.069 61.8193 108.838 62.5951 108.838 63.5521V67.538C108.838 68.4949 108.069 69.2707 107.12 69.2707C106.171 69.2707 105.402 68.4949 105.402 67.538V63.5521ZM126.472 63.5521C126.472 62.5951 127.242 61.8193 128.19 61.8193C129.139 61.8193 129.908 62.5951 129.908 63.5521V67.538C129.908 68.4949 129.139 69.2707 128.19 69.2707C127.242 69.2707 126.472 68.4949 126.472 67.538V63.5521ZM128.19 62.6283C127.685 62.6283 127.274 63.0419 127.274 63.5521V67.538C127.274 68.0482 127.685 68.4618 128.19 68.4618C128.696 68.4618 129.106 68.0482 129.106 67.538V63.5521C129.106 63.0419 128.696 62.6283 128.19 62.6283Z" fill="#111B22"/>
<path fill-rule="evenodd" clip-rule="evenodd" d="M112.246 78.9012H108.771L108.771 82.2652H112.246L112.246 78.9012ZM108.771 78.0923C108.328 78.0923 107.969 78.4544 107.969 78.9012V82.2652C107.969 82.712 108.328 83.0741 108.771 83.0741H112.246C112.689 83.0741 113.048 82.712 113.048 82.2652V78.9012C113.048 78.4544 112.689 78.0923 112.246 78.0923H108.771Z" fill="#111B22"/>
<path fill-rule="evenodd" clip-rule="evenodd" d="M112.246 85.5443H108.771L108.771 88.9083H112.246L112.246 85.5443ZM108.771 84.7354C108.328 84.7354 107.969 85.0975 107.969 85.5443V88.9083C107.969 89.355 108.328 89.7172 108.771 89.7172H112.246C112.689 89.7172 113.048 89.355 113.048 88.9083V85.5443C113.048 85.0975 112.689 84.7354 112.246 84.7354H108.771Z" fill="#111B22"/>
<path fill-rule="evenodd" clip-rule="evenodd" d="M119.395 85.5443H115.919L115.919 88.9083H119.395L119.395 85.5443ZM115.919 84.7354C115.476 84.7354 115.117 85.0975 115.117 85.5443V88.9083C115.117 89.355 115.476 89.7172 115.919 89.7172H119.395C119.838 89.7172 120.197 89.355 120.197 88.9083V85.5443C120.197 85.0975 119.838 84.7354 119.395 84.7354H115.919Z" fill="#111B22"/>
<path fill-rule="evenodd" clip-rule="evenodd" d="M126.543 85.5443H123.068L123.068 88.9083H126.543L126.543 85.5443ZM123.068 84.7354C122.625 84.7354 122.266 85.0975 122.266 85.5443V88.9083C122.266 89.355 122.625 89.7172 123.068 89.7172H126.543C126.986 89.7172 127.345 89.355 127.345 88.9083V85.5443C127.345 85.0975 126.986 84.7354 126.543 84.7354H123.068Z" fill="#111B22"/>
<path fill-rule="evenodd" clip-rule="evenodd" d="M119.395 78.9012H115.919L115.919 82.2652H119.395L119.395 78.9012ZM115.919 78.0923C115.476 78.0923 115.117 78.4544 115.117 78.9012V82.2652C115.117 82.712 115.476 83.0741 115.919 83.0741H119.395C119.838 83.0741 120.197 82.712 120.197 82.2652V78.9012C120.197 78.4544 119.838 78.0923 119.395 78.0923H115.919Z" fill="#111B22"/>
<path fill-rule="evenodd" clip-rule="evenodd" d="M126.543 78.9012H123.068L123.068 82.2652H126.543L126.543 78.9012ZM123.068 78.0923C122.625 78.0923 122.266 78.4544 122.266 78.9012V82.2652C122.266 82.712 122.625 83.0741 123.068 83.0741H126.543C126.986 83.0741 127.345 82.712 127.345 82.2652V78.9012C127.345 78.4544 126.986 78.0923 126.543 78.0923H123.068Z" fill="#111B22"/>
<path d="M111.822 87.2822C111.822 87.987 111.251 88.5585 110.546 88.5585C109.841 88.5585 109.27 87.987 109.27 87.2822C109.27 86.5773 109.841 86.0059 110.546 86.0059C111.251 86.0059 111.822 86.5773 111.822 87.2822Z" fill="#7D92A1"/>
<path d="M118.959 80.4755C118.959 81.1804 118.387 81.7518 117.683 81.7518C116.978 81.7518 116.406 81.1804 116.406 80.4755C116.406 79.7706 116.978 79.1992 117.683 79.1992C118.387 79.1992 118.959 79.7706 118.959 80.4755Z" fill="#7D92A1"/>
<path d="M126.119 87.2709C126.119 87.9758 125.548 88.5472 124.843 88.5472C124.138 88.5472 123.566 87.9758 123.566 87.2709C123.566 86.566 124.138 85.9946 124.843 85.9946C125.548 85.9946 126.119 86.566 126.119 87.2709Z" fill="#0078CE"/>
</svg>
