<svg width="196" height="121" viewBox="0 0 196 121" fill="none" xmlns="http://www.w3.org/2000/svg">
<path d="M57.0801 27.3169H134.137C138.092 27.3171 141.298 30.5231 141.298 34.478V46.6577H49.9189V34.478C49.9189 30.523 53.1251 27.3169 57.0801 27.3169Z" fill="#BFDBEE"/>
<path d="M57.0801 27.3169H134.137C138.092 27.3171 141.298 30.5231 141.298 34.478V46.6577H49.9189V34.478C49.9189 30.523 53.1251 27.3169 57.0801 27.3169Z" stroke="#111B22" stroke-width="1.79029"/>
<path d="M59.0371 34.9248H83.7656C85.12 34.925 86.1709 35.9524 86.1709 37.1631C86.1708 38.3737 85.12 39.4002 83.7656 39.4004H59.0371C57.6826 39.4004 56.6309 38.3738 56.6309 37.1631C56.6309 35.9523 57.6825 34.9248 59.0371 34.9248Z" fill="#CFE4F1" stroke="#111B22" stroke-width="0.895146"/>
<path d="M113.476 34.0298C115.206 34.03 116.608 35.4334 116.608 37.1636C116.608 38.8935 115.206 40.2961 113.476 40.2964C111.745 40.2964 110.342 38.8937 110.342 37.1636C110.342 35.4333 111.745 34.0298 113.476 34.0298Z" fill="#CFE4F1" stroke="#111B22" stroke-width="0.895146"/>
<path d="M122.429 34.0298C124.159 34.03 125.562 35.4334 125.562 37.1636C125.561 38.8935 124.159 40.2961 122.429 40.2964C120.699 40.2964 119.295 38.8937 119.295 37.1636C119.295 35.4333 120.698 34.0298 122.429 34.0298Z" fill="#CFE4F1" stroke="#111B22" stroke-width="0.895146"/>
<path d="M131.378 34.0298C133.108 34.03 134.511 35.4334 134.511 37.1636C134.51 38.8935 133.108 40.2961 131.378 40.2964C129.648 40.2964 128.244 38.8937 128.244 37.1636C128.244 35.4333 129.648 34.0298 131.378 34.0298Z" fill="#CFE4F1" stroke="#111B22" stroke-width="0.895146"/>
<path d="M141.153 36.5647C141.153 36.5647 138.618 38.932 105.652 32.3384C87.4788 28.7035 60.4455 45.422 55.3585 46.2853C51.3638 46.9633 50.7762 47.0977 50.708 47.1242L50.7095 47.1306C50.7095 47.1306 50.6893 47.1314 50.708 47.1242L50.0954 44.5945C49.4782 42.0459 49.5936 39.2709 49.7726 36.6547C49.8931 34.8941 50.0664 32.9202 50.8296 31.1986C51.4069 29.8962 52.6074 28.9797 53.9646 28.5465C55.3156 28.1152 56.2134 28.1568 57.9405 27.797C59.324 27.5087 60.686 27.2674 62.0991 27.2589C74.0325 27.1871 127.469 26.6867 135.339 27.571C135.853 27.6287 136.321 27.8012 136.777 28.0436C141.105 30.3424 140.751 32.1402 141.153 36.5647Z" fill="#0078CE" fill-opacity="0.2"/>
<path d="M57.0801 107.517H134.137C138.092 107.517 141.298 104.311 141.298 100.356V54.3647H49.9189V100.356C49.9189 104.311 53.1251 107.517 57.0801 107.517Z" fill="white" stroke="#111B22" stroke-width="1.79029"/>
<rect x="0.461389" y="0.601334" width="1.07507" height="6.25161" rx="0.537534" transform="matrix(-0.133477 0.991052 0.991821 0.127639 35.7117 26.8022)" stroke="#0078CE" stroke-width="1.07507"/>
<rect x="-0.618353" y="0.474447" width="1.099" height="6.06812" rx="0.549501" transform="matrix(-0.991821 -0.127637 -0.133478 0.991052 54.6989 14.7935)" stroke="#0078CE" stroke-width="1.099"/>
<rect x="-0.0994937" y="0.755919" width="1.0903" height="6.13562" rx="0.545151" transform="matrix(-0.799978 0.600029 0.617471 0.786594 42.3424 17.0443)" stroke="#0078CE" stroke-width="1.0903"/>
<path d="M71.0104 93.3178H63.3269C58.9272 93.3178 57.0888 90.1734 59.2189 86.3316L63.1747 79.206L66.9024 72.5115C69.1592 68.4415 72.8615 68.4415 75.1184 72.5115L78.846 79.2187L82.8019 86.3443C84.932 90.1861 83.0808 93.3305 78.6939 93.3305H71.0104V93.3178Z" fill="#ACD2EC" stroke="#111B22" stroke-width="1.69054" stroke-linecap="round" stroke-linejoin="round"/>
<path d="M71.0078 77.5825V83.922" stroke="#111B22" stroke-width="1.69054" stroke-linecap="round" stroke-linejoin="round"/>
<path fill-rule="evenodd" clip-rule="evenodd" d="M71.0039 87.7261H71.0153Z" fill="#D9D9D9"/>
<path d="M71.0039 87.7261H71.0153" stroke="#111B22" stroke-width="1.69054" stroke-linecap="round" stroke-linejoin="round"/>
<g filter="url(#filter0_d_54246_1043333)">
<path d="M131.944 70.2944V98.4761H95.5264V70.2944H131.944Z" fill="#D2D2D2" stroke="#111B22" stroke-width="1.88846"/>
<path d="M132.702 59.748H94.8139C93.3397 59.748 92.1445 60.9438 92.1445 62.4189V70.5292C92.1445 72.0042 93.3397 73.2 94.8139 73.2H132.702C134.176 73.2 135.371 72.0042 135.371 70.5292V62.4189C135.371 60.9438 134.176 59.748 132.702 59.748Z" fill="white" stroke="#111B22" stroke-width="1.11562" stroke-linecap="round" stroke-linejoin="round"/>
<path d="M99.5039 65.1069C100.268 65.107 100.888 65.7264 100.888 66.4917C100.888 67.257 100.268 67.8764 99.5039 67.8765C98.7401 67.8765 98.1201 67.257 98.1201 66.4917C98.1202 65.7264 98.7401 65.1069 99.5039 65.1069Z" fill="#D2D2D2" stroke="#111B22" stroke-width="1.88846"/>
<path d="M106.824 65.1069C107.588 65.107 108.208 65.7265 108.208 66.4917C108.208 67.257 107.588 67.8764 106.824 67.8765C106.06 67.8765 105.44 67.257 105.44 66.4917C105.44 65.7264 106.06 65.1069 106.824 65.1069Z" fill="#D2D2D2" stroke="#111B22" stroke-width="1.88846"/>
<path d="M114.129 65.1069C114.893 65.107 115.513 65.7265 115.513 66.4917C115.513 67.257 114.893 67.8764 114.129 67.8765C113.365 67.8765 112.745 67.257 112.745 66.4917C112.745 65.7264 113.365 65.1069 114.129 65.1069Z" fill="#D2D2D2" stroke="#111B22" stroke-width="1.88846"/>
<path d="M132.702 74.6572H94.8139C93.3397 74.6572 92.1445 75.853 92.1445 77.3281V85.4383C92.1445 86.9134 93.3397 88.1092 94.8139 88.1092H132.702C134.176 88.1092 135.371 86.9134 135.371 85.4383V77.3281C135.371 75.853 134.176 74.6572 132.702 74.6572Z" fill="white" stroke="#111B22" stroke-width="1.11562" stroke-linecap="round" stroke-linejoin="round"/>
<path d="M99.5039 80.0229C100.268 80.023 100.888 80.6425 100.888 81.4077C100.888 82.173 100.268 82.7924 99.5039 82.7925C98.7401 82.7925 98.1201 82.173 98.1201 81.4077C98.1202 80.6424 98.7401 80.0229 99.5039 80.0229Z" fill="#D2D2D2" stroke="#111B22" stroke-width="1.88846"/>
<path d="M106.824 80.0229C107.588 80.023 108.208 80.6425 108.208 81.4077C108.208 82.173 107.588 82.7924 106.824 82.7925C106.06 82.7925 105.44 82.173 105.44 81.4077C105.44 80.6424 106.06 80.0229 106.824 80.0229Z" fill="#D2D2D2" stroke="#111B22" stroke-width="1.88846"/>
<path d="M114.129 80.0229C114.893 80.023 115.513 80.6425 115.513 81.4077C115.513 82.173 114.893 82.7924 114.129 82.7925C113.365 82.7925 112.745 82.173 112.745 81.4077C112.745 80.6424 113.365 80.0229 114.129 80.0229Z" fill="#D2D2D2" stroke="#111B22" stroke-width="1.88846"/>
<path d="M132.702 89.5732H94.8139C93.3397 89.5732 92.1445 90.769 92.1445 92.2441V100.354C92.1445 101.829 93.3397 103.025 94.8139 103.025H132.702C134.176 103.025 135.371 101.829 135.371 100.354V92.2441C135.371 90.769 134.176 89.5732 132.702 89.5732Z" fill="white" stroke="#111B22" stroke-width="1.11562" stroke-linecap="round" stroke-linejoin="round"/>
<path d="M99.5039 94.9326C100.268 94.9327 100.888 95.5521 100.888 96.3174C100.888 97.0827 100.268 97.7021 99.5039 97.7021C98.7401 97.7021 98.1201 97.0827 98.1201 96.3174C98.1202 95.5521 98.7401 94.9326 99.5039 94.9326Z" fill="#D2D2D2" stroke="#111B22" stroke-width="1.88846"/>
<path d="M106.824 94.9326C107.588 94.9327 108.208 95.5521 108.208 96.3174C108.208 97.0827 107.588 97.7021 106.824 97.7021C106.06 97.7021 105.44 97.0827 105.44 96.3174C105.44 95.5521 106.06 94.9326 106.824 94.9326Z" fill="#D2D2D2" stroke="#111B22" stroke-width="1.88846"/>
<path d="M114.129 94.9326C114.893 94.9327 115.513 95.5521 115.513 96.3174C115.513 97.0827 114.893 97.7021 114.129 97.7021C113.365 97.7021 112.745 97.0827 112.745 96.3174C112.745 95.5521 113.365 94.9326 114.129 94.9326Z" fill="#D2D2D2" stroke="#111B22" stroke-width="1.88846"/>
</g>
<g filter="url(#filter1_d_54246_1043333)">
<path d="M136.169 62.7671C133.974 62.7659 131.828 63.4249 130.002 64.6608C128.177 65.8967 126.754 67.6539 125.913 69.7102C125.072 71.7665 124.851 74.0296 125.279 76.213C125.706 78.3965 126.763 80.4024 128.314 81.9769C129.866 83.5514 131.843 84.6239 133.996 85.0586C136.148 85.4933 138.38 85.2708 140.408 84.4192C142.436 83.5676 144.169 82.1251 145.389 80.2742C146.608 78.4234 147.259 76.2473 147.259 74.0212C147.259 71.0375 146.091 68.1759 144.011 66.0655C141.931 63.9551 139.111 62.7687 136.169 62.7671Z" fill="#ACD2EC" stroke="#111B22" stroke-width="1.80871" stroke-linecap="round" stroke-linejoin="round"/>
<path d="M144.371 81.4204L148.067 85.1608" stroke="#111B22" stroke-width="1.81325" stroke-linecap="round" stroke-linejoin="round"/>
<path d="M147.152 85.1879L148.3 83.9725C148.473 83.7904 148.757 83.7843 148.937 83.9575L158.902 93.598C159.081 93.7713 159.088 94.0596 158.916 94.2417L157.768 95.4571C157.595 95.6393 157.311 95.6455 157.131 95.4721L147.166 85.8317C146.987 85.6583 146.98 85.37 147.152 85.1879Z" fill="white" stroke="#111B22" stroke-width="1.80871"/>
</g>
<defs>
<filter id="filter0_d_54246_1043333" x="82.6609" y="54.7279" width="62.1937" height="62.2426" filterUnits="userSpaceOnUse" color-interpolation-filters="sRGB">
<feFlood flood-opacity="0" result="BackgroundImageFix"/>
<feColorMatrix in="SourceAlpha" type="matrix" values="0 0 0 0 0 0 0 0 0 0 0 0 0 0 0 0 0 0 127 0" result="hardAlpha"/>
<feOffset dy="4.4625"/>
<feGaussianBlur stdDeviation="4.4625"/>
<feColorMatrix type="matrix" values="0 0 0 0 0.0705882 0 0 0 0 0.105882 0 0 0 0 0.129412 0 0 0 0.1 0"/>
<feBlend mode="normal" in2="BackgroundImageFix" result="effect1_dropShadow_54246_1043333"/>
<feBlend mode="normal" in="SourceGraphic" in2="effect1_dropShadow_54246_1043333" result="shape"/>
</filter>
<filter id="filter1_d_54246_1043333" x="112.758" y="56.1618" width="58.5852" height="57.449" filterUnits="userSpaceOnUse" color-interpolation-filters="sRGB">
<feFlood flood-opacity="0" result="BackgroundImageFix"/>
<feColorMatrix in="SourceAlpha" type="matrix" values="0 0 0 0 0 0 0 0 0 0 0 0 0 0 0 0 0 0 127 0" result="hardAlpha"/>
<feOffset dy="5.70099"/>
<feGaussianBlur stdDeviation="5.70099"/>
<feColorMatrix type="matrix" values="0 0 0 0 0.0705882 0 0 0 0 0.105882 0 0 0 0 0.129412 0 0 0 0.1 0"/>
<feBlend mode="normal" in2="BackgroundImageFix" result="effect1_dropShadow_54246_1043333"/>
<feBlend mode="normal" in="SourceGraphic" in2="effect1_dropShadow_54246_1043333" result="shape"/>
</filter>
</defs>
</svg>
