<svg width="196" height="121" viewBox="0 0 196 121" fill="none" xmlns="http://www.w3.org/2000/svg">
<rect x="0.529562" y="0.316849" width="0.874624" height="5.05094" rx="0.437312" transform="matrix(0.241636 0.970367 0.969313 -0.24583 55.7976 37.0459)" fill="#999999" stroke="#0078CE" stroke-width="0.874624"/>
<rect x="-0.323392" y="0.540498" width="0.888835" height="4.94199" rx="0.444417" transform="matrix(-0.969314 0.245827 0.241639 0.970366 66.4708 22.3045)" fill="#999999" stroke="#0078CE" stroke-width="0.888835"/>
<rect x="0.151082" y="0.601084" width="0.88366" height="4.98202" rx="0.44183" transform="matrix(-0.520314 0.853975 0.86226 0.506466 57.8559 27.6911)" fill="#999999" stroke="#0078CE" stroke-width="0.88366"/>
<path d="M67.832 102.346V33.9521L106.914 14.4111V102.346" fill="#BFDBEE"/>
<path d="M67.832 102.346V33.9521L106.914 14.4111V102.346" stroke="#17222B" stroke-width="1.46558" stroke-linecap="round" stroke-linejoin="round"/>
<path d="M136.226 102.345V53.4927L106.914 33.9517" fill="#BFDBEE"/>
<path d="M136.226 102.345V53.4927L106.914 33.9517" stroke="#17222B" stroke-width="1.46558" stroke-linecap="round" stroke-linejoin="round"/>
<path d="M87.375 43.7227V43.7695Z" fill="white"/>
<path d="M87.375 43.7227V43.7695" stroke="#0078CE" stroke-width="11.4315" stroke-linecap="round" stroke-linejoin="round"/>
<path d="M87.375 58.3784V58.4252Z" fill="white"/>
<path d="M87.375 58.3784V58.4252" stroke="#0078CE" stroke-width="11.4315" stroke-linecap="round" stroke-linejoin="round"/>
<path d="M87.375 73.0342V73.081Z" fill="white"/>
<path d="M87.375 73.0342V73.081" stroke="#0078CE" stroke-width="11.4315" stroke-linecap="round" stroke-linejoin="round"/>
<path d="M87.375 87.6899V87.7368Z" fill="white"/>
<path d="M87.375 87.6899V87.7368" stroke="#0078CE" stroke-width="11.4315" stroke-linecap="round" stroke-linejoin="round"/>
<path d="M58.0625 102.346H145.997Z" fill="white"/>
<path d="M58.0625 102.346H145.997" stroke="#17222B" stroke-width="2.63804" stroke-linecap="round" stroke-linejoin="round"/>
</svg>
