<svg width="196" height="121" viewBox="0 0 196 121" fill="none" xmlns="http://www.w3.org/2000/svg">
<path d="M139.232 19.8569H60.0566C55.8314 19.8569 52.4062 23.2122 52.4062 27.3512V92.1663C52.4062 96.3052 55.8314 99.6605 60.0566 99.6605H139.232C143.457 99.6605 146.883 96.3052 146.883 92.1663V27.3512C146.883 23.2122 143.457 19.8569 139.232 19.8569Z" fill="#BFDBEE" stroke="black" stroke-width="1.21528"/>
<path d="M149.436 33.98H70.4277C66.2025 33.98 62.7773 37.3353 62.7773 41.4742V99.3704C62.7773 103.509 66.2025 106.865 70.4277 106.865H149.436C153.662 106.865 157.087 103.509 157.087 99.3704V41.4742C157.087 37.3353 153.662 33.98 149.436 33.98Z" fill="white" stroke="black" stroke-width="1.21528"/>
<mask id="mask0_55358_765883" style="mask-type:luminance" maskUnits="userSpaceOnUse" x="82" y="50" width="44" height="43">
<path d="M125.074 50.2749H82.0664V92.4047H125.074V50.2749Z" fill="white"/>
</mask>
<g mask="url(#mask0_55358_765883)">
<path d="M103.569 53.7808C105.341 53.7808 107.074 54.2956 108.547 55.26C110.021 56.2245 111.169 57.5953 111.847 59.1991C112.525 60.8029 112.703 62.5676 112.357 64.2702C112.011 65.9728 111.158 67.5367 109.905 68.7642C108.652 69.9917 107.055 70.8276 105.317 71.1663C103.579 71.505 101.778 71.3311 100.141 70.6668C98.5033 70.0025 97.104 68.8775 96.1194 67.4342C95.1349 65.9908 94.6094 64.2938 94.6094 62.5579L94.6184 62.177C94.7186 59.9173 95.7054 57.7828 97.3731 56.2185C99.0407 54.6542 101.26 53.781 103.569 53.7808Z" fill="#0078CE"/>
<path d="M107.155 74.853C109.532 74.853 111.81 75.7777 113.49 77.4237C115.171 79.0698 116.115 81.3022 116.115 83.6301V85.3855C116.115 86.3166 115.737 87.2096 115.066 87.868C114.393 88.5264 113.481 88.8963 112.531 88.8963H94.6113C93.6608 88.8963 92.7492 88.5264 92.0771 87.868C91.405 87.2096 91.0273 86.3166 91.0273 85.3855V83.6301C91.0273 81.3022 91.9713 79.0698 93.6516 77.4237C95.332 75.7777 97.6109 74.853 99.9873 74.853H107.155Z" fill="#0078CE"/>
</g>
<mask id="mask1_55358_765883" style="mask-type:luminance" maskUnits="userSpaceOnUse" x="106" y="55" width="34" height="34">
<path d="M139.719 55.6519H106.637V88.0595H139.719V55.6519Z" fill="white"/>
</mask>
<g mask="url(#mask1_55358_765883)">
<path d="M117.664 65.1019C117.664 66.5344 118.245 67.9083 119.279 68.9212C120.313 69.9341 121.716 70.5032 123.178 70.5032C124.64 70.5032 126.043 69.9341 127.077 68.9212C128.111 67.9083 128.692 66.5344 128.692 65.1019C128.692 63.6694 128.111 62.2956 127.077 61.2827C126.043 60.2697 124.64 59.7007 123.178 59.7007C121.716 59.7007 120.313 60.2697 119.279 61.2827C118.245 62.2956 117.664 63.6694 117.664 65.1019Z" stroke="#0078CE" stroke-width="2.70063" stroke-linecap="round" stroke-linejoin="round"/>
<path d="M114.906 84.0077V81.3071C114.906 79.8746 115.487 78.5008 116.521 77.4878C117.555 76.4749 118.958 75.9058 120.42 75.9058H125.933C127.396 75.9058 128.799 76.4749 129.833 77.4878C130.867 78.5008 131.448 79.8746 131.448 81.3071V84.0077" stroke="#0078CE" stroke-width="2.70063" stroke-linecap="round" stroke-linejoin="round"/>
</g>
<g filter="url(#filter0_d_55358_765883)">
<path d="M45.4883 36.9078C45.4883 39.3942 45.9885 41.8563 46.9604 44.1534C47.9323 46.4506 49.3568 48.5378 51.1527 50.296C52.9485 52.0541 55.0804 53.4488 57.4268 54.4003C59.7732 55.3518 62.288 55.8415 64.8278 55.8415C67.3675 55.8415 69.8823 55.3518 72.2287 54.4003C74.575 53.4488 76.707 52.0541 78.5028 50.296C80.2987 48.5378 81.7232 46.4506 82.6951 44.1534C83.667 41.8563 84.1673 39.3942 84.1673 36.9078C84.1673 31.8863 82.1297 27.0704 78.5028 23.5197C74.876 19.9689 69.9569 17.9741 64.8278 17.9741C59.6986 17.9741 54.7795 19.9689 51.1527 23.5197C47.5258 27.0704 45.4883 31.8863 45.4883 36.9078Z" fill="#BFDBEE" stroke="#0078CE" stroke-width="2.09842" stroke-linecap="round" stroke-linejoin="round"/>
<path d="M58.3789 37.0956L62.433 41.0647L70.5556 33.1265" stroke="#0078CE" stroke-width="2.09842" stroke-linecap="round" stroke-linejoin="round"/>
</g>
<path d="M56.7118 31.6173C49.7833 26.2545 57.519 20.4517 57.519 20.4517C52.302 22.8227 50.1651 25.0601 47.7774 29.726C47.5708 30.1296 47.4161 30.5585 47.3177 30.9979C46.6179 34.1227 46.4391 36.3049 46.5429 39.2381C46.5957 40.7342 47.0038 42.2002 47.7122 43.5346C48.7553 45.499 49.6998 47.0792 51.0882 49.1565C51.6572 50.0077 52.3824 50.758 53.2475 51.3374C56.0843 53.2374 58.4995 54.335 60.5785 55.0224C61.3709 55.2844 62.2071 55.3918 63.0454 55.3999L67.5296 55.4437C67.5296 55.4437 63.0982 53.9104 68.8951 49.5955C74.692 45.2806 63.6404 36.9802 56.7118 31.6173Z" fill="#0078CE" fill-opacity="0.2"/>
<path d="M38.766 30.9667C38.5405 31.0645 38.2776 30.9644 38.1789 30.7431C38.0801 30.5217 38.1828 30.263 38.4082 30.1651L42.3151 28.4695C42.5405 28.3717 42.8034 28.4718 42.9022 28.6932C43.0009 28.9145 42.8983 29.1733 42.6728 29.2711L38.766 30.9667Z" fill="#999999" stroke="#0078CE" stroke-width="0.8748"/>
<path d="M45.6167 14.7686C45.5162 14.5433 45.6207 14.2799 45.8501 14.1803C46.0796 14.0807 46.3471 14.1826 46.4477 14.4079L48.1043 18.1202C48.2048 18.3454 48.1003 18.6088 47.8708 18.7084C47.6414 18.808 47.3738 18.7061 47.2733 18.4808L45.6167 14.7686Z" fill="#999999" stroke="#0078CE" stroke-width="0.890345"/>
<path d="M38.576 21.7406C38.3428 21.6541 38.2286 21.4 38.321 21.1731C38.4134 20.9462 38.6773 20.8323 38.9106 20.9189L42.8254 22.3712C43.0587 22.4578 43.1728 22.7118 43.0804 22.9388C42.9881 23.1657 42.7241 23.2795 42.4909 23.193L38.576 21.7406Z" fill="#999999" stroke="#0078CE" stroke-width="0.884686"/>
<defs>
<filter id="filter0_d_55358_765883" x="40.9199" y="15.166" width="47.8125" height="47.001" filterUnits="userSpaceOnUse" color-interpolation-filters="sRGB">
<feFlood flood-opacity="0" result="BackgroundImageFix"/>
<feColorMatrix in="SourceAlpha" type="matrix" values="0 0 0 0 0 0 0 0 0 0 0 0 0 0 0 0 0 0 127 0" result="hardAlpha"/>
<feOffset dy="1.75879"/>
<feGaussianBlur stdDeviation="1.75879"/>
<feColorMatrix type="matrix" values="0 0 0 0 0.0705882 0 0 0 0 0.105882 0 0 0 0 0.129412 0 0 0 0.1 0"/>
<feBlend mode="normal" in2="BackgroundImageFix" result="effect1_dropShadow_55358_765883"/>
<feBlend mode="normal" in="SourceGraphic" in2="effect1_dropShadow_55358_765883" result="shape"/>
</filter>
</defs>
</svg>
