<svg width="196" height="121" viewBox="0 0 196 121" fill="none" xmlns="http://www.w3.org/2000/svg">
<path d="M98.0034 59.8242C110.955 59.8243 121.438 70.2427 121.438 83.0752C121.438 95.9076 110.955 106.325 98.0034 106.325C85.0521 106.325 74.5679 95.9076 74.5679 83.0752C74.5679 70.2427 85.0521 59.8242 98.0034 59.8242Z" fill="#BFDBEE" stroke="#0078CE" stroke-width="2.38333"/>
<path d="M106.826 75.5517L98.8303 83.4876L106.826 91.4235L105.852 92.3901L97.8564 84.4542L89.8605 92.3901L88.8866 91.4235L96.8826 83.4876L88.8866 75.5517L89.8605 74.5852L97.8564 82.5211L105.852 74.5852L106.826 75.5517Z" fill="#BFDBEE" stroke="#0078CE" stroke-width="2.38333"/>
<path d="M135.12 40.2061C139.999 40.2062 144.017 44.2271 144.017 49.249H144.018C143.983 54.1287 140.214 58.0613 135.5 58.2529C135.234 58.2249 134.969 58.2249 134.704 58.2529C129.986 58.0609 126.221 54.1247 126.221 49.249C126.221 44.257 130.211 40.2061 135.12 40.2061Z" fill="white" stroke="#111B22" stroke-width="2.46268"/>
<path d="M60.665 40.2061C56.0822 40.2061 52.2992 43.8302 52.0674 48.4219L52.0557 48.8691C52.0897 53.5344 55.7272 57.3101 60.2969 57.4941C60.554 57.4675 60.8113 57.4674 61.0684 57.4941C65.6414 57.3095 69.2742 53.5302 69.2744 48.8691C69.2744 44.0967 65.4241 40.2061 60.665 40.2061Z" fill="white" stroke="#111B22" stroke-width="2.46268"/>
<path d="M132.646 69.5229C136.65 68.168 140.997 68.0303 144.536 69.3165L144.54 69.3183C147.27 70.2985 148.819 72.0367 149.315 73.9247C149.811 75.8139 149.32 78.1102 147.443 80.3468L147.442 80.348C145.021 83.2371 141.175 85.301 137.104 86.1398C137.35 83.3463 137.112 80.4719 136.395 77.6064L136.392 77.5942C135.613 74.6067 134.34 71.87 132.646 69.5229Z" fill="white" stroke="#111B22" stroke-width="2.46268"/>
<path d="M63.3553 69.5229C59.3506 68.168 55.0037 68.0303 51.4654 69.3165L51.4608 69.3183C48.7312 70.2985 47.1821 72.0367 46.6862 73.9247C46.1901 75.8139 46.6813 78.1102 48.5579 80.3468L48.5586 80.348C50.98 83.2371 54.8258 85.301 58.8972 86.1398C58.6508 83.3463 58.8886 80.4719 59.6055 77.6064L59.6087 77.5942C60.3878 74.6067 61.6606 71.87 63.3553 69.5229Z" fill="white" stroke="#111B22" stroke-width="2.46268"/>
<path d="M97.6348 14.7158C106.784 14.7158 114.231 22.244 114.231 31.5674C114.231 40.8907 106.784 48.4189 97.6348 48.4189C88.4856 48.4187 81.0391 40.8906 81.0391 31.5674C81.0391 22.2441 88.4856 14.716 97.6348 14.7158Z" fill="#BFDBEE" stroke="#111B22" stroke-width="2.46268"/>
<path d="M86.9611 77.1461C79.282 71.0785 87.8556 64.5132 87.8556 64.5132C82.0736 67.1958 79.7052 69.7272 77.0588 75.0062C76.8299 75.4628 76.6584 75.9481 76.5494 76.4452C75.7738 79.9807 75.5756 82.4497 75.6906 85.7683C75.7493 87.461 76.2014 89.1197 76.9867 90.6294C78.1427 92.852 79.1895 94.6398 80.7284 96.9901C81.359 97.9532 82.1627 98.802 83.1215 99.4576C86.2655 101.607 88.9424 102.849 91.2466 103.627C92.1248 103.923 93.0517 104.045 93.9808 104.054L98.9506 104.103C98.9506 104.103 94.0392 102.369 100.464 97.4868C106.889 92.6049 94.6402 83.2137 86.9611 77.1461Z" fill="#0078CE" fill-opacity="0.2"/>
</svg>
