<svg width="196" height="121" viewBox="0 0 196 121" fill="none" xmlns="http://www.w3.org/2000/svg">
<path d="M64.3695 21.1064H108.186C109.276 21.1064 110.321 21.6734 111.092 22.6827C111.863 23.6919 112.296 25.0607 112.296 26.488V94.7374C112.296 96.1647 111.863 97.5334 111.092 98.5426C110.321 99.552 109.276 100.12 108.186 100.12H58.7548C57.6647 100.12 56.6192 99.552 55.8484 98.5426C55.0776 97.5334 54.6445 96.1647 54.6445 94.7374V33.9684L64.3695 21.1064Z" fill="white"/>
<path fill-rule="evenodd" clip-rule="evenodd" d="M63.6751 20.5811C63.8402 20.3627 64.0981 20.2344 64.3719 20.2344H108.188C109.597 20.2344 110.883 20.9687 111.788 22.1539C112.69 23.3341 113.172 24.8955 113.172 26.4895V94.7387C113.172 96.3327 112.69 97.894 111.788 99.0743C110.883 100.259 109.597 100.993 108.188 100.993H58.7572C57.3478 100.993 56.0618 100.259 55.1566 99.0743C54.2551 97.894 53.7734 96.3327 53.7734 94.7387V33.9699C53.7734 33.7797 53.8354 33.5947 53.9501 33.443L63.6751 20.5811ZM64.8065 21.9814L55.5204 34.2629V94.7387C55.5204 95.9993 55.9047 97.1756 56.545 98.0139C57.1814 98.8471 57.9864 99.2468 58.7572 99.2468H108.188C108.959 99.2468 109.764 98.8471 110.4 98.0139C111.04 97.1756 111.425 95.9993 111.425 94.7387V26.4895C111.425 25.2288 111.04 24.0526 110.4 23.2143C109.764 22.3811 108.959 21.9814 108.188 21.9814H64.8065Z" fill="#111B22"/>
<path d="M54.6445 33.9684H62.6103C63.0776 33.9656 63.5251 33.7205 63.8547 33.2868C64.1844 32.8532 64.3695 32.2662 64.3695 31.6543V21.1064L54.6445 33.9684Z" fill="white" stroke="#111B22" stroke-width="1.747" stroke-linecap="round" stroke-linejoin="round"/>
<path d="M83.819 39.3678L63.0474 39.2734C62.6654 39.2716 62.3543 39.5799 62.3525 39.9619C62.3508 40.3439 62.6591 40.655 63.0411 40.6568L83.8126 40.7512C84.1947 40.753 84.5058 40.4447 84.5075 40.0627C84.5092 39.6806 84.2011 39.3695 83.819 39.3678Z" fill="#DCDCDC" stroke="#111B22" stroke-width="1.38343"/>
<path d="M100.462 56.7714L63.1099 56.6016C62.7279 56.5998 62.4168 56.9081 62.415 57.2901C62.4133 57.6722 62.7216 57.9833 63.1036 57.985L100.456 58.1549C100.838 58.1566 101.149 57.8483 101.15 57.4663C101.152 57.0843 100.844 56.7732 100.462 56.7714Z" fill="#DCDCDC"/>
<path d="M63.1099 56.6016L100.462 56.7714C100.844 56.7732 101.152 57.0843 101.15 57.4663C101.149 57.8483 100.838 58.1566 100.456 58.1549L63.1036 57.985C62.7216 57.9833 62.4133 57.6722 62.415 57.2901C62.4168 56.9081 62.7279 56.5998 63.1099 56.6016Z" stroke="#111B22" stroke-width="1.38343"/>
<path d="M98.1713 70.5972L63.0474 70.4375C62.6654 70.4358 62.3543 70.7441 62.3525 71.1261C62.3508 71.5081 62.6591 71.8192 63.0411 71.8209L98.1651 71.9807C98.5471 71.9824 98.8581 71.6741 98.8598 71.2921C98.8616 70.9101 98.5533 70.599 98.1713 70.5972Z" fill="#DCDCDC" stroke="#111B22" stroke-width="1.38343"/>
<path d="M93.1182 84.834L63.0474 84.6973C62.6654 84.6955 62.3543 85.0038 62.3525 85.3858C62.3508 85.7679 62.6591 86.079 63.0411 86.0807L93.112 86.2174C93.494 86.2192 93.8052 85.9109 93.8069 85.5289C93.8086 85.1469 93.5003 84.8358 93.1182 84.834Z" fill="#DCDCDC"/>
<path d="M63.0474 84.6973L93.1182 84.834C93.5003 84.8358 93.8086 85.1469 93.8069 85.5289C93.8052 85.9109 93.494 86.2192 93.112 86.2174L63.0411 86.0807C62.6591 86.079 62.3508 85.7679 62.3525 85.3858C62.3543 85.0038 62.6654 84.6955 63.0474 84.6973Z" stroke="#111B22" stroke-width="1.38343"/>
<path d="M74.783 44.86L63.0239 44.8066C62.6419 44.8048 62.3308 45.1131 62.3291 45.4951C62.3273 45.8771 62.6356 46.1882 63.0176 46.19L74.7767 46.2434C75.1587 46.2452 75.4698 45.9369 75.4716 45.5549C75.4733 45.1729 75.165 44.8618 74.783 44.86Z" fill="#EEEEEE" stroke="#111B22" stroke-width="1.38343"/>
<path d="M74.8494 62.1922L63.0903 62.1387C62.7083 62.137 62.3972 62.4452 62.3955 62.8273C62.3938 63.2093 62.702 63.5204 63.0841 63.5221L74.8431 63.5756C75.2251 63.5773 75.5362 63.269 75.538 62.887C75.5397 62.505 75.2314 62.1939 74.8494 62.1922Z" fill="#EEEEEE" stroke="#111B22" stroke-width="1.38343"/>
<path d="M74.783 76.0242L63.0239 75.9707C62.6419 75.969 62.3308 76.2773 62.3291 76.6593C62.3273 77.0413 62.6356 77.3524 63.0176 77.3541L74.7767 77.4076C75.1587 77.4093 75.4698 77.1011 75.4716 76.719C75.4733 76.337 75.165 76.0259 74.783 76.0242Z" fill="#EEEEEE" stroke="#111B22" stroke-width="1.38343"/>
<path d="M74.783 90.284L63.0239 90.2305C62.6419 90.2287 62.3308 90.537 62.3291 90.919C62.3273 91.3011 62.6356 91.6122 63.0176 91.6139L74.7767 91.6674C75.1587 91.6691 75.4698 91.3608 75.4716 90.9788C75.4733 90.5968 75.165 90.2857 74.783 90.284Z" fill="#EEEEEE" stroke="#111B22" stroke-width="1.38343"/>
<path d="M80.0922 28.0947H123.908C124.998 28.0947 126.043 28.6617 126.814 29.6709C127.585 30.6802 128.018 32.049 128.018 33.4763V101.727C128.018 103.154 127.585 104.523 126.814 105.532C126.043 106.541 124.998 107.108 123.908 107.108H74.4775C73.3874 107.108 72.3419 106.541 71.5711 105.532C70.8002 104.523 70.3672 103.154 70.3672 101.727V40.9567L80.0922 28.0947Z" fill="white"/>
<path fill-rule="evenodd" clip-rule="evenodd" d="M79.3979 27.5664C79.563 27.348 79.8209 27.2197 80.0946 27.2197H123.91C125.319 27.2197 126.605 27.954 127.511 29.1392C128.412 30.3195 128.895 31.8808 128.895 33.4748V101.725C128.895 103.319 128.412 104.88 127.511 106.061C126.605 107.246 125.319 107.98 123.91 107.98H74.4799C73.0705 107.98 71.7846 107.246 70.8793 106.061C69.9779 104.88 69.4961 103.319 69.4961 101.725V40.9552C69.4961 40.765 69.5582 40.5801 69.6729 40.4284L79.3979 27.5664ZM80.5292 28.9667L71.2431 41.2483V101.725C71.2431 102.986 71.6275 104.162 72.2677 105C72.9041 105.833 73.7091 106.233 74.4799 106.233H123.91C124.681 106.233 125.486 105.833 126.122 105C126.762 104.162 127.147 102.986 127.147 101.725V33.4748C127.147 32.2142 126.762 31.0379 126.122 30.1996C125.486 29.3664 124.681 28.9667 123.91 28.9667H80.5292Z" fill="#111B22"/>
<path d="M70.3672 40.9567H78.3329C78.8003 40.9538 79.2477 40.7088 79.5774 40.2751C79.9071 39.8414 80.0922 39.2545 80.0922 38.6426V28.0947L70.3672 40.9567Z" fill="white" stroke="#111B22" stroke-width="1.747" stroke-linecap="round" stroke-linejoin="round"/>
<path d="M99.5455 46.3562L78.7739 46.2617C78.3919 46.26 78.0808 46.5683 78.0791 46.9503C78.0773 47.3323 78.3856 47.6434 78.7676 47.6452L99.5392 47.7396C99.9212 47.7413 100.232 47.4331 100.234 47.051C100.236 46.669 99.9275 46.3579 99.5455 46.3562Z" fill="#DCDCDC" stroke="#111B22" stroke-width="1.38343"/>
<path d="M116.185 63.7617L78.8325 63.5918C78.4505 63.5901 78.1394 63.8984 78.1377 64.2804C78.1359 64.6624 78.4442 64.9735 78.8262 64.9752L116.178 65.1451C116.56 65.1468 116.871 64.8385 116.873 64.4565C116.875 64.0745 116.567 63.7634 116.185 63.7617Z" fill="#DCDCDC" stroke="#111B22" stroke-width="1.38343"/>
<path d="M113.898 77.5855L78.7739 77.4258C78.3919 77.4241 78.0808 77.7323 78.0791 78.1144C78.0773 78.4964 78.3856 78.8075 78.7676 78.8092L113.891 78.9689C114.273 78.9707 114.584 78.6624 114.586 78.2804C114.588 77.8984 114.28 77.5873 113.898 77.5855Z" fill="#DCDCDC" stroke="#111B22" stroke-width="1.38343"/>
<path d="M108.845 91.8223L78.7739 91.6856C78.3919 91.6838 78.0808 91.9921 78.0791 92.3741C78.0773 92.7561 78.3856 93.0672 78.7676 93.069L108.838 93.2057C109.22 93.2075 109.531 92.8992 109.533 92.5172C109.535 92.1351 109.227 91.824 108.845 91.8223Z" fill="#DCDCDC" stroke="#111B22" stroke-width="1.38343"/>
<path d="M90.5097 51.8484L78.7506 51.7949C78.3686 51.7932 78.0575 52.1015 78.0557 52.4835C78.054 52.8655 78.3623 53.1766 78.7443 53.1784L90.5034 53.2318C90.8854 53.2336 91.1965 52.9253 91.1982 52.5433C91.2 52.1612 90.8917 51.8501 90.5097 51.8484Z" fill="#EEEEEE" stroke="#111B22" stroke-width="1.38343"/>
<path d="M90.5722 69.1785L78.8131 69.125C78.4311 69.1233 78.12 69.4316 78.1182 69.8136C78.1165 70.1956 78.4248 70.5067 78.8068 70.5084L90.5659 70.5619C90.9479 70.5636 91.259 70.2554 91.2607 69.8733C91.2625 69.4913 90.9542 69.1802 90.5722 69.1785Z" fill="#EEEEEE" stroke="#111B22" stroke-width="1.38343"/>
<path d="M90.5097 83.0125L78.7506 82.959C78.3686 82.9573 78.0575 83.2655 78.0557 83.6476C78.054 84.0296 78.3623 84.3407 78.7443 84.3424L90.5034 84.3959C90.8854 84.3976 91.1965 84.0894 91.1982 83.7073C91.2 83.3253 90.8917 83.0142 90.5097 83.0125Z" fill="#EEEEEE" stroke="#111B22" stroke-width="1.38343"/>
<path d="M90.5097 97.2722L78.7506 97.2188C78.3686 97.217 78.0575 97.5253 78.0557 97.9073C78.054 98.2893 78.3623 98.6004 78.7443 98.6022L90.5034 98.6557C90.8854 98.6574 91.1965 98.3491 91.1982 97.9671C91.2 97.5851 90.8917 97.274 90.5097 97.2722Z" fill="#EEEEEE" stroke="#111B22" stroke-width="1.38343"/>
<g filter="url(#filter0_d_56009_734538)">
<path d="M139.087 39.6025C139.087 49.3575 131.159 57.2655 121.38 57.2655C111.6 57.2655 103.672 49.3575 103.672 39.6025C103.672 29.8475 111.6 21.9395 121.38 21.9395C131.159 21.9395 139.087 29.8475 139.087 39.6025Z" fill="#0078CE"/>
<path d="M137.633 39.6019C137.633 48.5552 130.357 55.8132 121.381 55.8132C112.405 55.8132 105.129 48.5552 105.129 39.6019C105.129 30.6487 112.405 23.3906 121.381 23.3906C130.357 23.3906 137.633 30.6487 137.633 39.6019Z" fill="#BFDBEE"/>
<path fill-rule="evenodd" clip-rule="evenodd" d="M121.381 54.8429C129.823 54.8429 136.663 48.017 136.663 39.6019C136.663 31.1868 129.823 24.3609 121.381 24.3609C112.939 24.3609 106.099 31.1868 106.099 39.6019C106.099 48.017 112.939 54.8429 121.381 54.8429ZM121.381 55.8132C130.357 55.8132 137.633 48.5552 137.633 39.6019C137.633 30.6487 130.357 23.3906 121.381 23.3906C112.405 23.3906 105.129 30.6487 105.129 39.6019C105.129 48.5552 112.405 55.8132 121.381 55.8132Z" fill="#D0EAEE"/>
</g>
<path d="M115.621 33.1845C110.438 27.2293 118.84 23.5732 118.84 23.5732C113.486 24.6971 111.026 26.2728 107.769 29.9579C107.526 30.2325 107.317 30.5379 107.149 30.8637C105.782 33.5169 105.128 35.4084 104.566 38.0397C104.293 39.3168 104.342 40.6434 104.687 41.9031C105.223 43.8625 105.751 45.4432 106.595 47.5778C106.906 48.3637 107.364 49.0865 107.96 49.6855C110.284 52.02 112.374 53.4748 114.217 54.4758C114.74 54.7598 115.307 54.9498 115.89 55.0714L120.286 55.989C120.286 55.989 116.55 53.8379 122.839 51.1275C129.128 48.417 120.804 39.1397 115.621 33.1845Z" fill="#0078CE" fill-opacity="0.2"/>
<path d="M133.75 39.5997C133.75 46.4149 128.212 51.9396 121.379 51.9396C114.547 51.9396 109.008 46.4149 109.008 39.5997C109.008 32.7845 114.547 27.2598 121.379 27.2598C128.212 27.2598 133.75 32.7845 133.75 39.5997Z" fill="white"/>
<path fill-rule="evenodd" clip-rule="evenodd" d="M121.379 50.8868C127.633 50.8868 132.697 45.8309 132.697 39.5997C132.697 33.3685 127.633 28.3126 121.379 28.3126C115.126 28.3126 110.061 33.3685 110.061 39.5997C110.061 45.8309 115.126 50.8868 121.379 50.8868ZM121.379 51.9396C128.212 51.9396 133.75 46.4149 133.75 39.5997C133.75 32.7845 128.212 27.2598 121.379 27.2598C114.547 27.2598 109.008 32.7845 109.008 39.5997C109.008 46.4149 114.547 51.9396 121.379 51.9396Z" fill="#BFDBEE"/>
<path d="M120.723 29.9534C122.619 29.8236 124.512 30.2506 126.16 31.1796C127.807 32.1086 129.134 33.4975 129.971 35.1687L121.39 39.2883L120.723 29.9534Z" fill="#0078CE"/>
<path fill-rule="evenodd" clip-rule="evenodd" d="M120.891 29.9434C120.835 29.9463 120.779 29.9496 120.723 29.9534L121.39 39.2883L129.971 35.1686C129.946 35.1186 129.92 35.0688 129.894 35.0193C129.054 33.4147 127.758 32.0807 126.16 31.1795C124.561 30.2778 122.731 29.8492 120.891 29.9434ZM120.902 30.1107L121.539 39.0305L129.743 35.092C128.918 33.5185 127.646 32.21 126.077 31.3255C124.507 30.4401 122.71 30.0187 120.902 30.1107Z" fill="#BFDBEE"/>
<path fill-rule="evenodd" clip-rule="evenodd" d="M116.983 31.753C117.143 31.6529 117.356 31.6992 117.458 31.8563L118.664 33.711C118.766 33.8681 118.719 34.0767 118.558 34.1767C118.398 34.2768 118.185 34.2306 118.083 34.0734L116.878 32.2188C116.776 32.0616 116.823 31.8531 116.983 31.753Z" fill="#0078CE"/>
<path fill-rule="evenodd" clip-rule="evenodd" d="M113.513 35.0757C113.607 34.9136 113.817 34.8564 113.982 34.948L115.963 36.044C116.128 36.1356 116.187 36.3414 116.093 36.5035C116 36.6657 115.79 36.7229 115.624 36.6313L113.644 35.5353C113.478 35.4437 113.42 35.2379 113.513 35.0757Z" fill="#0078CE"/>
<path fill-rule="evenodd" clip-rule="evenodd" d="M112.348 39.6254C112.348 39.4391 112.502 39.2881 112.692 39.2881L114.844 39.2883C115.035 39.2883 115.189 39.4394 115.189 39.6256C115.189 39.8119 115.035 39.9629 114.845 39.9629L112.692 39.9627C112.502 39.9627 112.348 39.8117 112.348 39.6254Z" fill="#0078CE"/>
<path fill-rule="evenodd" clip-rule="evenodd" d="M116.085 42.7361C116.185 42.8945 116.135 43.1023 115.974 43.2003L114.166 44.2965C114.004 44.3945 113.792 44.3455 113.692 44.1871C113.592 44.0287 113.642 43.8208 113.803 43.7228L115.611 42.6267C115.773 42.5287 115.985 42.5777 116.085 42.7361Z" fill="#0078CE"/>
<path fill-rule="evenodd" clip-rule="evenodd" d="M118.543 44.9803C118.708 45.0721 118.767 45.2778 118.673 45.44L117.554 47.3789C117.46 47.541 117.25 47.5981 117.085 47.5063C116.919 47.4146 116.861 47.2088 116.954 47.0467L118.074 45.1077C118.167 44.9456 118.377 44.8886 118.543 44.9803Z" fill="#0078CE"/>
<path fill-rule="evenodd" clip-rule="evenodd" d="M121.708 45.9482C121.898 45.9482 122.052 46.0993 122.052 46.2856V48.3089C122.052 48.4952 121.898 48.6461 121.708 48.646C121.517 48.646 121.363 48.4949 121.363 48.3086V46.2853C121.363 46.099 121.517 45.9481 121.708 45.9482Z" fill="#0078CE"/>
<path fill-rule="evenodd" clip-rule="evenodd" d="M124.811 45.0791C124.968 44.9742 125.182 45.0139 125.289 45.1678L126.58 47.0225C126.688 47.1764 126.647 47.3862 126.49 47.4911C126.333 47.596 126.119 47.5563 126.012 47.4024L124.72 45.5477C124.613 45.3938 124.654 45.184 124.811 45.0791Z" fill="#0078CE"/>
<path fill-rule="evenodd" clip-rule="evenodd" d="M127.199 42.7748C127.291 42.6118 127.501 42.5527 127.667 42.6427L129.647 43.7146C129.814 43.8047 129.874 44.0099 129.782 44.1729C129.69 44.336 129.481 44.3951 129.315 44.305L127.334 43.2331C127.168 43.143 127.107 42.9378 127.199 42.7748Z" fill="#0078CE"/>
<path fill-rule="evenodd" clip-rule="evenodd" d="M128.191 39.5188C128.191 39.3326 128.345 39.1816 128.535 39.1816L130.687 39.1818C130.878 39.1818 131.032 39.3328 131.032 39.5191C131.032 39.7053 130.878 39.8563 130.688 39.8563L128.535 39.8561C128.345 39.8561 128.191 39.7051 128.191 39.5188Z" fill="#0078CE"/>
<path fill-rule="evenodd" clip-rule="evenodd" d="M129.916 34.9466C130.082 35.229 129.983 35.59 129.695 35.753L121.946 40.1368C121.658 40.2998 121.29 40.203 121.123 39.9207C120.957 39.6383 121.056 39.2773 121.344 39.1143L129.093 34.7305C129.381 34.5675 129.749 34.6643 129.916 34.9466Z" fill="#0078CE"/>
<path d="M123.37 39.6258C123.37 40.6036 122.561 41.3962 121.562 41.3962C120.563 41.3962 119.754 40.6036 119.754 39.6258C119.754 38.6481 120.563 37.8555 121.562 37.8555C122.561 37.8555 123.37 38.6481 123.37 39.6258Z" fill="#0078CE"/>
<path d="M129.582 14.0064C129.451 13.4071 128.858 13.0254 128.258 13.1538C127.658 13.2822 127.278 13.8721 127.409 14.4714L128.548 19.6669C128.679 20.2662 129.272 20.648 129.872 20.5196C130.471 20.3911 130.851 19.8012 130.72 19.2019L129.582 14.0064Z" fill="#999999"/>
<path d="M146.756 28.4744C147.367 28.3436 147.754 27.743 147.62 27.1328C147.486 26.5226 146.883 26.1339 146.272 26.2646L141.242 27.3412C140.631 27.4719 140.245 28.0726 140.378 28.6828C140.512 29.293 141.115 29.6817 141.726 29.5509L146.756 28.4744Z" fill="#999999"/>
<path fill-rule="evenodd" clip-rule="evenodd" d="M147.62 27.1328C147.754 27.743 147.367 28.3436 146.756 28.4744L141.726 29.5509C141.115 29.6817 140.512 29.293 140.378 28.6828C140.245 28.0726 140.631 27.4719 141.242 27.3412L146.272 26.2646C146.883 26.1339 147.486 26.5226 147.62 27.1328Z" fill="#0078CE"/>
<path d="M140.889 17.3905C141.22 16.8657 141.068 16.1641 140.549 15.8234C140.031 15.4827 139.342 15.632 139.01 16.1568L136.23 20.5607C135.899 21.0855 136.051 21.7871 136.57 22.1278C137.088 22.4685 137.777 22.3192 138.109 21.7944L140.889 17.3905Z" fill="#999999"/>
<path d="M146.529 27.3447C146.534 27.3481 146.538 27.3521 146.541 27.3555C146.542 27.3582 146.544 27.3619 146.545 27.3682C146.549 27.3836 146.54 27.3971 146.525 27.4004L141.496 28.4766C141.489 28.4779 141.485 28.4781 141.482 28.4775C141.478 28.4768 141.473 28.475 141.467 28.4717C141.462 28.4683 141.458 28.4643 141.456 28.4609C141.454 28.4583 141.452 28.4544 141.451 28.4482C141.447 28.4329 141.456 28.4193 141.471 28.416L146.501 27.3398C146.507 27.3386 146.511 27.3383 146.514 27.3389C146.518 27.3396 146.524 27.3414 146.529 27.3447ZM139.944 16.7422C139.95 16.7466 139.959 16.755 139.962 16.7715C139.966 16.7877 139.962 16.798 139.958 16.8047L137.177 21.209C137.176 21.2108 137.174 21.2119 137.174 21.2119C137.174 21.2119 137.172 21.2109 137.17 21.2099C137.164 21.2055 137.156 21.1977 137.153 21.1816C137.149 21.1652 137.153 21.1541 137.158 21.1474L139.937 16.7441C139.938 16.7421 139.94 16.7402 139.94 16.7402L139.944 16.7422ZM128.499 14.2314C128.502 14.2334 128.504 14.2363 128.504 14.2363L128.505 14.2383L128.506 14.2412L129.645 19.4375V19.4403L129.643 19.4443C129.643 19.4443 129.641 19.4447 129.639 19.4452H129.634C129.634 19.4452 129.63 19.4444 129.626 19.4424L129.62 19.4355C129.62 19.4355 129.619 19.4337 129.619 19.4316L128.481 14.2363L128.48 14.2334L128.481 14.2305L128.483 14.2295C128.483 14.2295 128.484 14.2289 128.486 14.2285C128.488 14.228 128.49 14.2275 128.49 14.2275H128.492C128.492 14.2275 128.496 14.2295 128.499 14.2314Z" stroke="#0078CE" stroke-width="2.19759"/>
<defs>
<filter id="filter0_d_56009_734538" x="95.9097" y="18.0584" width="50.9394" height="50.8505" filterUnits="userSpaceOnUse" color-interpolation-filters="sRGB">
<feFlood flood-opacity="0" result="BackgroundImageFix"/>
<feColorMatrix in="SourceAlpha" type="matrix" values="0 0 0 0 0 0 0 0 0 0 0 0 0 0 0 0 0 0 127 0" result="hardAlpha"/>
<feOffset dy="3.88109"/>
<feGaussianBlur stdDeviation="3.88109"/>
<feColorMatrix type="matrix" values="0 0 0 0 0.0705882 0 0 0 0 0.105882 0 0 0 0 0.129412 0 0 0 0.1 0"/>
<feBlend mode="normal" in2="BackgroundImageFix" result="effect1_dropShadow_56009_734538"/>
<feBlend mode="normal" in="SourceGraphic" in2="effect1_dropShadow_56009_734538" result="shape"/>
</filter>
</defs>
</svg>
