<svg width="196" height="121" viewBox="0 0 196 121" fill="none" xmlns="http://www.w3.org/2000/svg">
<path d="M154.41 99.1133V82.3994H156.737L158.9 80.0832L133.278 52.3265H130.097V57.1371H122.644L118.203 52.3265H105.9L80.3063 80.0528L82.4689 82.3956H85.8946V99.1095H79.2075C69.2067 88.7453 66.5472 65.2381 67.4815 47.7509L67.646 47.3946H67.7265C72.1005 47.3946 75.9777 49.6918 78.3922 53.2325L78.4167 53.2704C80.2363 55.9354 81.3316 59.2903 81.3316 62.9181C81.3316 65.4201 80.8137 67.7894 79.8829 69.9085L79.9214 69.8099C81.8743 69.2682 83.6897 68.2576 85.2333 66.8531L85.2123 66.872C86.8195 65.3565 88.1076 63.4848 88.9896 61.3835C89.8715 59.2822 90.3268 57.0003 90.3247 54.692C90.3247 51.0717 89.2259 47.7319 87.3713 45.0404L87.3993 45.0821C85.808 42.6781 83.5576 40.8789 80.968 39.9404C78.3784 39.0019 75.5816 38.9718 72.9754 39.8545L73.0663 39.828C73.9936 39.2025 75.0609 38.649 76.1842 38.2283L76.2962 38.1903C77.8228 37.5795 79.4382 37.27 81.0656 37.2767C84.8553 37.2767 88.2881 38.9182 90.7971 41.5756L90.7936 41.5718C91.1654 39.4455 91.0537 37.2532 90.4682 35.1842L90.4927 35.279C89.9124 33.4352 88.9918 31.7386 87.7869 30.2926C86.5819 28.8467 85.1179 27.6816 83.4839 26.8684C81.8499 26.0551 80.0802 25.6107 78.2826 25.5623C76.485 25.5138 74.6971 25.8623 73.0278 26.5865L73.1153 26.5524C72.271 26.8677 71.4498 27.2517 70.6589 27.701L70.7603 27.648C70.5221 26.4624 70.169 25.3074 69.7071 24.2021L69.749 24.312C66.6697 16.8326 59.6082 13.2995 53.9639 16.3891C52.4396 17.2333 51.1299 18.4699 50.1497 19.9904L50.1287 20.0283C52.1152 20.2395 54.0288 20.9502 55.7171 22.1039C57.4053 23.2576 58.8216 24.8224 59.8531 26.6737L59.8846 26.7344C58.5752 26.0242 57.1894 25.4932 55.759 25.1536L55.64 25.1308C46.9619 23.1103 38.7036 28.2166 37.2234 36.5603C36.8279 38.8491 36.9589 41.2083 37.6049 43.4293L37.5804 43.3308C39.5209 40.9441 42.0324 39.1848 44.8377 38.2469C47.643 37.309 50.6329 37.2291 53.4775 38.016L53.3655 37.9894C54.7967 38.3154 56.0634 38.7855 57.2497 39.4034L57.1482 39.3541C54.3092 38.9444 51.4219 39.4614 48.8556 40.839C46.2893 42.2166 44.1606 44.3922 42.7418 47.0875L42.7033 47.1633C41.2219 49.8668 40.4444 52.9545 40.4533 56.0984C40.4533 62.0425 43.1722 67.2966 47.3398 70.4809L47.3923 70.5188C49.1856 71.8232 51.2317 72.6637 53.3725 72.9753L53.446 72.9829C51.9021 70.2116 51.09 67.0345 51.098 63.7976C51.098 60.4882 51.9273 57.3873 53.376 54.7299L53.334 54.8133C54.4103 52.7838 55.8859 51.036 57.6561 49.6942C59.4263 48.3524 61.4476 47.4495 63.5764 47.0496L63.6638 47.0344C58.7054 71.4969 57.3337 88.5406 61.4243 99.1057H49.5058V106.233H162V99.1057H154.41V99.1133ZM126.591 82.7861H151.667V99.1133H126.591V82.7861ZM88.5856 79.5487L105.907 60.7839L123.228 79.5487V99.1133H104.21V84.3896H94.5903V99.1133H88.5646V79.5487H88.5856Z" fill="#BFDBEE" stroke="#111B22" stroke-width="2.08333"/>
</svg>
