<svg width="196" height="121" viewBox="0 0 196 121" fill="none" xmlns="http://www.w3.org/2000/svg">
<g clip-path="url(#clip0_56365_735863)">
<mask id="mask0_56365_735863" style="mask-type:luminance" maskUnits="userSpaceOnUse" x="0" y="0" width="196" height="121">
<path d="M196 0H0V121H196V0Z" fill="white"/>
</mask>
<g mask="url(#mask0_56365_735863)">
<circle cx="98.5" cy="63.5" r="41.3816" fill="#BFDBEE" stroke="#324552" stroke-width="2.23684"/>
<g clip-path="url(#clip1_56365_735863)">
<path d="M92.126 70.8672L104.876 58.1172" stroke="#0078CE" stroke-width="4.25" stroke-linecap="round" stroke-linejoin="round"/>
<path d="M96.3755 51.7428L97.3594 50.6038C99.3522 48.6113 102.055 47.492 104.873 47.4922C107.691 47.4924 110.394 48.6121 112.386 50.6049C114.379 52.5977 115.498 55.3005 115.498 58.1186C115.498 60.9367 114.378 63.6393 112.385 65.6318L111.25 66.6178" stroke="#0078CE" stroke-width="4.25" stroke-linecap="round" stroke-linejoin="round"/>
<path d="M100.626 77.2412L99.7827 78.376C97.7666 80.3696 95.0456 81.4878 92.2102 81.4878C89.3749 81.4878 86.6539 80.3696 84.6378 78.376C83.644 77.3934 82.8551 76.2234 82.3167 74.9338C81.7782 73.6441 81.501 72.2605 81.501 70.863C81.501 69.4655 81.7782 68.0819 82.3167 66.7923C82.8551 65.5027 83.644 64.3327 84.6378 63.3501L85.7513 62.3662" stroke="#0078CE" stroke-width="4.25" stroke-linecap="round" stroke-linejoin="round"/>
</g>
<path d="M75.5259 66.4348C74.017 52.3712 75.5248 29.3505 75.5248 29.3505C72.0084 30.7059 63.4732 40.174 60.1501 46.3419C58.8891 48.6826 57.8227 51.4649 57.5776 54.127C57.1459 58.8166 58.0575 66.2501 58.5327 70.8983C58.7586 73.1073 59.1904 75.3124 60.2145 77.3058C61.6487 80.0973 63.669 83.5594 65.1329 86.19C65.903 87.574 66.844 88.861 67.9339 90.0193C70.5903 92.8425 74.1803 96.852 76.3624 98.7215C77.138 99.3861 78.0961 99.7631 79.0773 100.039L88.9351 102.812L105.935 104.582C105.935 104.582 114.118 104.031 116.914 99.6241C119.71 95.2176 77.0348 80.4985 75.5259 66.4348Z" fill="#0078CE" fill-opacity="0.2"/>
<g filter="url(#filter0_d_56365_735863)">
<path d="M130.234 13.8877C139.94 13.8877 147.788 21.6933 147.788 31.2988C147.788 40.9043 139.94 48.7099 130.234 48.71C120.529 48.71 112.681 40.9043 112.681 31.2988C112.681 21.6933 120.529 13.8877 130.234 13.8877Z" fill="#BFDBEE" stroke="#0078CE" stroke-width="2.95646"/>
<path d="M136.109 26.3478L130.845 31.5719L136.109 36.796L135.403 37.4963L130.14 32.2722L124.876 37.4963L124.17 36.796L129.434 31.5719L124.17 26.3478L124.876 25.6475L130.14 30.8716L135.403 25.6475L136.109 26.3478Z" fill="#BFDBEE" stroke="#0078CE" stroke-width="1.47823"/>
</g>
<rect x="-0.750624" y="-0.490528" width="1.27186" height="7.39599" rx="0.635931" transform="matrix(-0.202223 -0.97934 -0.978132 0.207986 163.014 35.1635)" fill="#999999" stroke="#0078CE" stroke-width="1.27186"/>
<rect x="0.50441" y="-0.771868" width="1.30018" height="7.17891" rx="0.650089" transform="matrix(0.978131 -0.207988 -0.202221 -0.97934 146.482 55.9775)" fill="#999999" stroke="#0078CE" stroke-width="1.30018"/>
<rect x="-0.185063" y="-0.882817" width="1.28989" height="7.25878" rx="0.644943" transform="matrix(0.556157 -0.831077 -0.843103 -0.537753 159.414 48.6595)" fill="#999999" stroke="#0078CE" stroke-width="1.28989"/>
</g>
</g>
<defs>
<filter id="filter0_d_56365_735863" x="97.3911" y="5.50366" width="65.6865" height="65.4014" filterUnits="userSpaceOnUse" color-interpolation-filters="sRGB">
<feFlood flood-opacity="0" result="BackgroundImageFix"/>
<feColorMatrix in="SourceAlpha" type="matrix" values="0 0 0 0 0 0 0 0 0 0 0 0 0 0 0 0 0 0 127 0" result="hardAlpha"/>
<feOffset dy="6.90552"/>
<feGaussianBlur stdDeviation="6.90552"/>
<feColorMatrix type="matrix" values="0 0 0 0 0.0705882 0 0 0 0 0.105882 0 0 0 0 0.129412 0 0 0 0.1 0"/>
<feBlend mode="normal" in2="BackgroundImageFix" result="effect1_dropShadow_56365_735863"/>
<feBlend mode="normal" in="SourceGraphic" in2="effect1_dropShadow_56365_735863" result="shape"/>
</filter>
<clipPath id="clip0_56365_735863">
<rect width="196" height="121" fill="white"/>
</clipPath>
<clipPath id="clip1_56365_735863">
<rect width="51" height="51" fill="white" transform="translate(73 38.9932)"/>
</clipPath>
</defs>
</svg>
