<svg width="196" height="121" viewBox="0 0 196 121" fill="none" xmlns="http://www.w3.org/2000/svg">
<path d="M58.8984 30.0131C58.8984 27.6392 60.8228 25.7148 63.1967 25.7148H133.695C136.069 25.7148 137.993 27.6392 137.993 30.0131V38.4106C137.993 40.7844 136.069 42.7088 133.695 42.7088H63.1967C60.8228 42.7088 58.8984 40.7844 58.8984 38.4106V30.0131Z" fill="white"/>
<path d="M60.0273 90.5439V42.7051C61.1477 43.5766 134.641 43.7944 137.106 42.7051V82.5755L133.521 86.352V92.3971C133.521 95.0347 131.382 97.1729 128.745 97.1729H66.6564C64.8515 97.1729 63.3883 95.7098 63.3883 93.9049C61.5321 93.9049 60.0273 92.4001 60.0273 90.5439Z" fill="white"/>
<path d="M126.351 93.9049V86.3962C126.351 84.2861 128.061 82.5755 130.171 82.5755H137.106M126.351 93.9049H63.3883M126.351 93.9049L133.521 86.352M137.106 82.5755V42.7051C134.641 43.7944 61.1477 43.5766 60.0273 42.7051V90.5439C60.0273 92.4001 61.5321 93.9049 63.3883 93.9049M137.106 82.5755L133.521 86.352M63.3883 93.9049C63.3883 95.7098 64.8515 97.1729 66.6564 97.1729H128.745C131.382 97.1729 133.521 95.0347 133.521 92.3971V86.352" stroke="#111B22" stroke-width="2.21213"/>
<path d="M70.0995 24.8434H63.2534C60.352 24.8434 58 27.1954 58 30.0967V38.1091C58 41.0104 60.352 43.3624 63.2534 43.3624H133.634C136.535 43.3624 138.887 41.0104 138.887 38.1091V30.0967C138.887 27.1954 136.535 24.8434 133.634 24.8434H126.564M70.0995 24.8434V20.1369C70.0995 18.4044 71.5039 17 73.2364 17C74.9689 17 76.3733 18.4044 76.3733 20.1369V24.8434M70.0995 24.8434V29.5498C70.0995 31.2823 71.5039 32.6867 73.2364 32.6867C74.9689 32.6867 76.3733 31.2823 76.3733 29.5498V24.8434M126.564 24.8434V20.1369C126.564 18.4044 125.159 17 123.427 17C121.694 17 120.29 18.4044 120.29 20.1369V24.8434M126.564 24.8434V29.5498C126.564 31.2823 125.159 32.6867 123.427 32.6867C121.694 32.6867 120.29 31.2823 120.29 29.5498V24.8434M76.3733 24.8434H120.29" stroke="#111B22" stroke-width="2.21213"/>
<path d="M126.566 20.1369V24.8434V29.5498C126.566 31.2823 125.161 32.6867 123.429 32.6867C121.697 32.6867 120.292 31.2823 120.292 29.5498V24.8434V20.1369C120.292 18.4044 121.697 17 123.429 17C125.161 17 126.566 18.4044 126.566 20.1369Z" stroke="#111B22" stroke-width="1.91032"/>
<path d="M76.3754 20.1369V24.8434V29.5498C76.3754 31.2823 74.9709 32.6867 73.2385 32.6867C71.506 32.6867 70.1016 31.2823 70.1016 29.5498V24.8434V20.1369C70.1016 18.4044 71.506 17 73.2385 17C74.9709 17 76.3754 18.4044 76.3754 20.1369Z" stroke="#111B22" stroke-width="1.91032"/>
<path d="M85.4469 55.4268H77.168C76.6405 55.4268 76.2129 55.8544 76.2129 56.3819V64.3263C76.2129 64.8539 76.6405 65.2815 77.168 65.2815H85.4469C85.9745 65.2815 86.4021 64.8539 86.4021 64.3263V56.3819C86.4021 55.8544 85.9745 55.4268 85.4469 55.4268Z" stroke="#111B22" stroke-width="1.91032"/>
<path d="M85.4469 71.1162H77.168C76.6405 71.1162 76.2129 71.5438 76.2129 72.0714V80.0158C76.2129 80.5433 76.6405 80.9709 77.168 80.9709H85.4469C85.9745 80.9709 86.4021 80.5433 86.4021 80.0158V72.0714C86.4021 71.5438 85.9745 71.1162 85.4469 71.1162Z" stroke="#111B22" stroke-width="1.91032"/>
<path d="M102.474 71.1162H94.1954C93.6679 71.1162 93.2402 71.5438 93.2402 72.0714V80.0158C93.2402 80.5433 93.6679 80.9709 94.1954 80.9709H102.474C103.002 80.9709 103.429 80.5433 103.429 80.0158V72.0714C103.429 71.5438 103.002 71.1162 102.474 71.1162Z" stroke="#111B22" stroke-width="1.91032"/>
<path d="M119.502 71.1162H111.223C110.695 71.1162 110.268 71.5438 110.268 72.0714V80.0158C110.268 80.5433 110.695 80.9709 111.223 80.9709H119.502C120.029 80.9709 120.457 80.5433 120.457 80.0158V72.0714C120.457 71.5438 120.029 71.1162 119.502 71.1162Z" stroke="#111B22" stroke-width="1.91032"/>
<path d="M102.474 55.4268H94.1954C93.6679 55.4268 93.2402 55.8544 93.2402 56.3819V64.3263C93.2402 64.8539 93.6679 65.2815 94.1954 65.2815H102.474C103.002 65.2815 103.429 64.8539 103.429 64.3263V56.3819C103.429 55.8544 103.002 55.4268 102.474 55.4268Z" stroke="#111B22" stroke-width="1.91032"/>
<path d="M119.502 55.4268H111.223C110.695 55.4268 110.268 55.8544 110.268 56.3819V64.3263C110.268 64.8539 110.695 65.2815 111.223 65.2815H119.502C120.029 65.2815 120.457 64.8539 120.457 64.3263V56.3819C120.457 55.8544 120.029 55.4268 119.502 55.4268Z" stroke="#111B22" stroke-width="1.91032"/>
<path d="M118.73 88.8079C118.73 91.2326 119.208 93.6336 120.136 95.8737C121.064 98.1139 122.424 100.149 124.138 101.864C125.853 103.578 127.889 104.938 130.129 105.866C132.369 106.794 134.77 107.272 137.195 107.272C139.619 107.272 142.02 106.794 144.261 105.866C146.501 104.938 148.536 103.578 150.251 101.864C151.965 100.149 153.325 98.1139 154.253 95.8737C155.181 93.6336 155.659 91.2326 155.659 88.8079C155.659 83.9109 153.713 79.2144 150.251 75.7517C146.788 72.289 142.092 70.3438 137.195 70.3438C132.298 70.3438 127.601 72.289 124.138 75.7517C120.676 79.2144 118.73 83.9109 118.73 88.8079Z" fill="#BDD9EB" stroke="#0078CE" stroke-width="2.46189" stroke-linecap="round" stroke-linejoin="round"/>
<path d="M142.858 92.7733C141.319 91.2346 139.232 90.3701 137.056 90.3701C134.88 90.3701 132.793 91.2346 131.254 92.7733" stroke="#0078CE" stroke-width="1.64126" stroke-linecap="round" stroke-linejoin="round"/>
<path d="M143.35 78.608C141.843 77.7375 140.051 77.5016 138.369 77.9522C136.687 78.4028 135.253 79.503 134.383 81.0108L145.753 87.5756C146.624 86.0678 146.86 84.2759 146.409 82.5942C145.958 80.9125 144.858 79.4786 143.35 78.608Z" stroke="#0078CE" stroke-width="1.64126" stroke-linecap="round" stroke-linejoin="round"/>
<path d="M141.962 85.3876C143.776 82.2474 144.396 79.2122 143.349 78.6083C142.302 78.0043 139.985 80.0591 138.172 83.1993" stroke="#0078CE" stroke-width="1.64126" stroke-linecap="round" stroke-linejoin="round"/>
<path d="M140.064 84.2939L136.781 89.979" stroke="#0078CE" stroke-width="1.64126" stroke-linecap="round" stroke-linejoin="round"/>
<path d="M126.938 95.5085C127.278 95.3392 127.651 95.2458 128.032 95.235C128.458 95.226 128.88 95.321 129.261 95.5116C129.642 95.7022 129.971 95.9828 130.22 96.3291C130.468 96.6754 130.798 96.956 131.179 97.1466C131.56 97.3372 131.982 97.4322 132.408 97.4232C132.834 97.4322 133.256 97.3372 133.638 97.1466C134.019 96.956 134.348 96.6754 134.596 96.3291C134.845 95.9828 135.174 95.7022 135.555 95.5116C135.937 95.321 136.359 95.226 136.785 95.235C137.211 95.226 137.633 95.321 138.014 95.5116C138.395 95.7022 138.724 95.9828 138.973 96.3291C139.222 96.6754 139.551 96.956 139.932 97.1466C140.313 97.3372 140.735 97.4322 141.161 97.4232C141.587 97.4322 142.009 97.3372 142.391 97.1466C142.772 96.956 143.101 96.6754 143.35 96.3291C143.598 95.9828 143.927 95.7022 144.309 95.5116C144.69 95.321 145.112 95.226 145.538 95.235C145.918 95.2458 146.291 95.3392 146.632 95.5085" stroke="#0078CE" stroke-width="1.64126" stroke-linecap="round" stroke-linejoin="round"/>
<path d="M150.587 63.4428L150.587 63.4428C150.874 63.4776 151.079 63.738 151.045 64.0243L150.468 69.0166C150.435 69.3029 150.176 69.5068 149.89 69.472L149.89 69.472C149.604 69.4372 149.399 69.1769 149.432 68.8906L150.009 63.8982C150.043 63.6119 150.301 63.408 150.587 63.4428Z" fill="#999999" stroke="#0078CE" stroke-width="1.04373"/>
<path d="M162.574 80.6794C162.867 80.715 163.077 80.9811 163.043 81.2738C163.009 81.5664 162.744 81.7749 162.452 81.7393L157.663 81.1567C157.37 81.1211 157.161 80.855 157.195 80.5623C157.229 80.2696 157.493 80.0612 157.786 80.0968L162.574 80.6794Z" fill="#999999" stroke="#0078CE" stroke-width="1.06696"/>
<path d="M160.332 69.4118L160.332 69.4118C160.511 69.6433 160.471 69.9797 160.243 70.1632L156.429 73.2368C156.202 73.4202 155.873 73.3812 155.694 73.1496L155.694 73.1496C155.516 72.9181 155.556 72.5817 155.783 72.3982L159.597 69.3246C159.825 69.1412 160.154 69.1802 160.332 69.4118Z" fill="#999999" stroke="#0078CE" stroke-width="1.05852"/>
</svg>
