<svg width="196" height="121" viewBox="0 0 196 121" fill="none" xmlns="http://www.w3.org/2000/svg">
<g clip-path="url(#clip0_56001_733767)">
<mask id="mask0_56001_733767" style="mask-type:luminance" maskUnits="userSpaceOnUse" x="0" y="0" width="196" height="121">
<path d="M196 0H0V121H196V0Z" fill="white"/>
</mask>
<g mask="url(#mask0_56001_733767)">
<path d="M62.832 30.8275C62.832 28.7406 64.5238 27.0488 66.6107 27.0488H128.588C130.675 27.0488 132.366 28.7406 132.366 30.8275V38.21C132.366 40.2968 130.675 41.9886 128.588 41.9886H66.6107C64.5238 41.9886 62.832 40.2968 62.832 38.2099V30.8275Z" fill="white"/>
<path d="M64.9326 26.6009H72.5076V30.208L73.229 32.0116L75.0326 32.733H76.8362L78.279 31.2901V28.7652V26.6009H102.447H116.876V29.1259L117.237 31.2901L119.04 33.0937L121.205 32.733L122.287 30.9294V26.2402H127.697L131.305 27.683L133.108 30.208V37.4223L132.026 40.6688L129.14 42.4723H112.907H77.1969L64.9326 42.1116L62.7683 40.6688L62.0469 35.9795L62.4076 29.1259L64.9326 26.6009Z" fill="#BFDBEE"/>
<path d="M86.2129 34.1758C93.1275 36.815 115.071 28.7653 122.645 36.3401C130.219 43.9151 132.746 36.3401 132.746 36.3401V29.4866L131.303 27.683L129.499 26.6009L125.532 26.2402L122.645 26.6009L122.285 28.7653L121.924 32.0117L119.76 33.0938L117.957 32.7331L116.874 30.5688V26.6009H116.152H78.2764V29.126L77.9157 31.651L76.1121 33.0939L74.3086 32.7331L72.8657 30.9296V26.6009H66.013L65.2805 27.0517C64.8871 27.2938 64.5043 27.5571 64.1781 27.8844C63.1203 28.9452 62.686 30.0253 62.4218 31.0423C61.8586 33.2098 61.5499 35.5817 61.8534 37.8006C61.8534 37.8006 61.2837 39.5755 65.7019 39.543C70.1202 39.5105 78.4683 32.1469 86.2129 34.1758Z" fill="#0078CE" fill-opacity="0.2"/>
<path fill-rule="evenodd" clip-rule="evenodd" d="M128.588 27.4686H66.6107C64.7556 27.4686 63.2519 28.9725 63.2519 30.8275V38.2099C63.2519 40.0649 64.7556 41.5687 66.6107 41.5687H128.588C130.443 41.5687 131.946 40.0649 131.946 38.21V30.8275C131.946 28.9725 130.443 27.4686 128.588 27.4686ZM66.6107 27.0488C64.5238 27.0488 62.832 28.7406 62.832 30.8275V38.2099C62.832 40.2968 64.5238 41.9886 66.6107 41.9886H128.588C130.675 41.9886 132.366 40.2968 132.366 38.21V30.8275C132.366 28.7406 130.675 27.0488 128.588 27.0488H66.6107Z" fill="#566976"/>
<path d="M63.8203 84.0394V41.9834C64.8052 42.7496 129.415 42.9411 131.582 41.9834V77.0344L128.43 80.3543V85.6688C128.43 87.9875 126.55 89.8672 124.232 89.8672H69.6481C68.0614 89.8672 66.775 88.5809 66.775 86.9942C65.1432 86.9942 63.8203 85.6714 63.8203 84.0394Z" fill="white"/>
<path fill-rule="evenodd" clip-rule="evenodd" d="M64.2659 41.0953C64.385 41.1124 64.5621 41.1314 64.8028 41.1511C65.3108 41.1927 66.0408 41.233 66.9693 41.2711C68.8231 41.3474 71.4273 41.4138 74.5397 41.4691C80.7621 41.5797 88.9928 41.6455 97.2626 41.6575C105.532 41.6695 113.836 41.6276 120.206 41.523C123.392 41.4706 126.087 41.4027 128.05 41.3184C129.033 41.2761 129.823 41.2301 130.395 41.1809C130.682 41.1562 130.902 41.1316 131.06 41.1081C131.165 41.0924 131.215 41.0808 131.228 41.0782L132.558 40.4906V77.4224L129.406 80.7423V85.6688C129.406 88.5245 127.091 90.8396 124.235 90.8396H69.6516C67.8289 90.8396 66.3024 89.5714 65.9063 87.8693C64.1573 87.4726 62.8516 85.9086 62.8516 84.0396V39.9951L64.2659 41.0953ZM68.0182 87.9666C68.3498 88.5225 68.9572 88.8949 69.6516 88.8949H124.235C126.017 88.8949 127.461 87.4505 127.461 85.6688V82.7909L122.548 87.9666H68.0182ZM64.7963 43.1013V84.0396C64.7963 85.1344 65.6838 86.0219 66.7786 86.0219H121.158V80.3932C121.158 78.0012 123.097 76.062 125.489 76.062H130.613V43.1139C130.596 43.1155 130.579 43.1169 130.562 43.1184C129.949 43.1712 129.127 43.2186 128.134 43.2613C126.145 43.3467 123.43 43.415 120.238 43.4674C113.852 43.5724 105.536 43.6143 97.2598 43.6023C88.9833 43.5903 80.7415 43.5245 74.5051 43.4136C71.3879 43.3582 68.7659 43.2914 66.8895 43.2142C66.0368 43.1791 65.3295 43.1416 64.7963 43.1013ZM129.322 78.0068H125.489C124.171 78.0068 123.103 79.0752 123.103 80.3932V84.5577L129.322 78.0068Z" fill="#111B22"/>
<path fill-rule="evenodd" clip-rule="evenodd" d="M75.4374 20.3588C74.4513 20.3588 73.6519 21.1581 73.6519 22.1441V30.4192C73.6519 31.4053 74.4513 32.2046 75.4374 32.2046C76.4234 32.2046 77.2227 31.4053 77.2227 30.4192V22.1441C77.2227 21.1581 76.4234 20.3588 75.4374 20.3588ZM71.7072 22.1441C71.7072 20.0841 73.3772 18.4141 75.4374 18.4141C77.4974 18.4141 79.1674 20.0841 79.1674 22.1441V25.3093H115.831V22.1441C115.831 20.0841 117.501 18.4141 119.561 18.4141C121.621 18.4141 123.291 20.0841 123.291 22.1441V25.3093H128.534C131.622 25.3093 134.125 27.8124 134.125 30.9V37.9439C134.125 41.0315 131.622 43.5345 128.534 43.5345H66.6611C63.5733 43.5345 61.0703 41.0315 61.0703 37.9439V30.9C61.0703 27.8124 63.5733 25.3093 66.6611 25.3093H71.7072V22.1441ZM71.7072 27.2541H66.6611C64.6474 27.2541 63.015 28.8864 63.015 30.9V37.9439C63.015 39.9575 64.6474 41.5898 66.6611 41.5898H128.534C130.548 41.5898 132.18 39.9575 132.18 37.9439V30.9C132.18 28.8864 130.548 27.2541 128.534 27.2541H123.291V30.4192C123.291 32.4793 121.621 34.1493 119.561 34.1493C117.501 34.1493 115.831 32.4793 115.831 30.4192V27.2541H79.1674V30.4192C79.1674 32.4793 77.4974 34.1493 75.4374 34.1493C73.3772 34.1493 71.7072 32.4793 71.7072 30.4192V27.2541ZM119.561 20.3588C118.575 20.3588 117.776 21.1581 117.776 22.1441V30.4192C117.776 31.4053 118.575 32.2046 119.561 32.2046C120.547 32.2046 121.347 31.4053 121.347 30.4192V22.1441C121.347 21.1581 120.547 20.3588 119.561 20.3588Z" fill="#111B22"/>
<path fill-rule="evenodd" clip-rule="evenodd" d="M75.4334 20.2253C74.3741 20.2253 73.5154 21.084 73.5154 22.1433V30.4184C73.5154 31.4777 74.3741 32.3364 75.4334 32.3364C76.4927 32.3364 77.3514 31.4777 77.3514 30.4184V22.1433C77.3514 21.084 76.4927 20.2253 75.4334 20.2253ZM71.8359 22.1433C71.8359 20.1565 73.4466 18.5459 75.4334 18.5459C77.4202 18.5459 79.0308 20.1565 79.0308 22.1433V30.4184C79.0308 32.4052 77.4202 34.0159 75.4334 34.0159C73.4466 34.0159 71.8359 32.4052 71.8359 30.4184V22.1433ZM115.959 22.1433C115.959 20.1565 117.57 18.5459 119.557 18.5459C121.544 18.5459 123.155 20.1565 123.155 22.1433V30.4184C123.155 32.4052 121.544 34.0159 119.557 34.0159C117.57 34.0159 115.959 32.4052 115.959 30.4184V22.1433ZM119.557 20.2253C118.498 20.2253 117.638 21.084 117.638 22.1433V30.4184C117.638 31.4777 118.498 32.3364 119.557 32.3364C120.617 32.3364 121.475 31.4777 121.475 30.4184V22.1433C121.475 21.084 120.617 20.2253 119.557 20.2253Z" fill="#111B22"/>
<path fill-rule="evenodd" clip-rule="evenodd" d="M86.1646 54.0085H78.8864V60.9926H86.1646V54.0085ZM78.8864 52.3291C77.9589 52.3291 77.207 53.081 77.207 54.0085V60.9926C77.207 61.9201 77.9589 62.672 78.8864 62.672H86.1646C87.0921 62.672 87.8439 61.9201 87.8439 60.9926V54.0085C87.8439 53.081 87.0921 52.3291 86.1646 52.3291H78.8864Z" fill="#111B22"/>
<path fill-rule="evenodd" clip-rule="evenodd" d="M86.1646 67.8005H78.8864V74.7846H86.1646V67.8005ZM78.8864 66.1211C77.9589 66.1211 77.207 66.873 77.207 67.8005V74.7846C77.207 75.7121 77.9589 76.464 78.8864 76.464H86.1646C87.0921 76.464 87.8439 75.7121 87.8439 74.7846V67.8005C87.8439 66.873 87.0921 66.1211 86.1646 66.1211H78.8864Z" fill="#111B22"/>
<path fill-rule="evenodd" clip-rule="evenodd" d="M101.141 67.8005H93.863V74.7846H101.141V67.8005ZM93.863 66.1211C92.9355 66.1211 92.1836 66.873 92.1836 67.8005V74.7846C92.1836 75.7121 92.9355 76.464 93.863 76.464H101.141C102.069 76.464 102.82 75.7121 102.82 74.7846V67.8005C102.82 66.873 102.069 66.1211 101.141 66.1211H93.863Z" fill="#111B22"/>
<path fill-rule="evenodd" clip-rule="evenodd" d="M116.107 67.8005H108.828V74.7846H116.107V67.8005ZM108.828 66.1211C107.9 66.1211 107.148 66.873 107.148 67.8005V74.7846C107.148 75.7121 107.9 76.464 108.828 76.464H116.107C117.034 76.464 117.786 75.7121 117.786 74.7846V67.8005C117.786 66.873 117.034 66.1211 116.107 66.1211H108.828Z" fill="#111B22"/>
<path fill-rule="evenodd" clip-rule="evenodd" d="M101.141 54.0085H93.863V60.9926H101.141V54.0085ZM93.863 52.3291C92.9355 52.3291 92.1836 53.081 92.1836 54.0085V60.9926C92.1836 61.9201 92.9355 62.672 93.863 62.672H101.141C102.069 62.672 102.82 61.9201 102.82 60.9926V54.0085C102.82 53.081 102.069 52.3291 101.141 52.3291H93.863Z" fill="#111B22"/>
<path fill-rule="evenodd" clip-rule="evenodd" d="M116.107 54.0085H108.828V60.9926H116.107V54.0085ZM108.828 52.3291C107.9 52.3291 107.148 53.081 107.148 54.0085V60.9926C107.148 61.9201 107.9 62.672 108.828 62.672H116.107C117.034 62.672 117.786 61.9201 117.786 60.9926V54.0085C117.786 53.081 117.034 52.3291 116.107 52.3291H108.828Z" fill="#111B22"/>
<path d="M85.4695 71.3897C85.4695 73.0304 84.1052 74.3604 82.4222 74.3604C80.7393 74.3604 79.375 73.0304 79.375 71.3897C79.375 69.749 80.7393 68.4189 82.4222 68.4189C84.1052 68.4189 85.4695 69.749 85.4695 71.3897Z" fill="#7D92A1"/>
<path fill-rule="evenodd" clip-rule="evenodd" d="M82.4222 73.9406C83.8834 73.9406 85.0497 72.7885 85.0497 71.3897C85.0497 69.9909 83.8834 68.8387 82.4222 68.8387C80.961 68.8387 79.7948 69.9909 79.7948 71.3897C79.7948 72.7885 80.961 73.9406 82.4222 73.9406ZM82.4222 74.3604C84.1052 74.3604 85.4695 73.0304 85.4695 71.3897C85.4695 69.749 84.1052 68.4189 82.4222 68.4189C80.7393 68.4189 79.375 69.749 79.375 71.3897C79.375 73.0304 80.7393 74.3604 82.4222 74.3604Z" fill="#0078CE"/>
<path d="M100.434 57.5987C100.434 59.2394 99.0701 60.5694 97.3872 60.5694C95.7042 60.5694 94.3398 59.2394 94.3398 57.5987C94.3398 55.958 95.7042 54.6279 97.3872 54.6279C99.0701 54.6279 100.434 55.958 100.434 57.5987Z" fill="#0078CE"/>
<path fill-rule="evenodd" clip-rule="evenodd" d="M97.3872 60.1496C98.8483 60.1496 100.015 58.9975 100.015 57.5987C100.015 56.1999 98.8483 55.0477 97.3872 55.0477C95.926 55.0477 94.7597 56.1999 94.7597 57.5987C94.7597 58.9975 95.926 60.1496 97.3872 60.1496ZM97.3872 60.5694C99.0701 60.5694 100.434 59.2394 100.434 57.5987C100.434 55.958 99.0701 54.6279 97.3872 54.6279C95.7042 54.6279 94.3398 55.958 94.3398 57.5987C94.3398 59.2394 95.7042 60.5694 97.3872 60.5694Z" fill="#7D92A1"/>
<path d="M115.408 71.3897C115.408 73.0304 114.044 74.3604 112.361 74.3604C110.678 74.3604 109.312 73.0304 109.312 71.3897C109.312 69.749 110.678 68.4189 112.361 68.4189C114.044 68.4189 115.408 69.749 115.408 71.3897Z" fill="#31AAB7"/>
<path fill-rule="evenodd" clip-rule="evenodd" d="M112.361 73.9406C113.822 73.9406 114.988 72.7885 114.988 71.3897C114.988 69.9909 113.822 68.8387 112.361 68.8387C110.9 68.8387 109.733 69.9909 109.733 71.3897C109.733 72.7885 110.9 73.9406 112.361 73.9406ZM112.361 74.3604C114.044 74.3604 115.408 73.0304 115.408 71.3897C115.408 69.749 114.044 68.4189 112.361 68.4189C110.678 68.4189 109.312 69.749 109.312 71.3897C109.312 73.0304 110.678 74.3604 112.361 74.3604Z" fill="#31AAB7"/>
<g filter="url(#filter0_d_56001_733767)">
<path d="M146.325 77.9052C146.325 90.94 135.732 101.507 122.665 101.507C109.597 101.507 99.0039 90.94 99.0039 77.9052C99.0039 64.8705 109.597 54.3037 122.665 54.3037C135.732 54.3037 146.325 64.8705 146.325 77.9052Z" fill="#111B22"/>
<path fill-rule="evenodd" clip-rule="evenodd" d="M139.808 56.848C142.662 59.2405 144.992 62.1936 146.652 65.5235C148.311 68.8533 149.266 72.4885 149.456 76.2025C149.646 79.9164 149.067 83.6296 147.756 87.1107C146.444 90.5918 144.428 93.7661 141.833 96.4361C139.238 99.1059 136.119 101.214 132.672 102.629C129.224 104.044 125.521 104.736 121.794 104.661C118.066 104.587 114.394 103.747 111.007 102.195C107.62 100.643 104.589 98.4128 102.104 95.6422L102.102 95.6398L100.598 96.9821C101.321 97.7889 102.088 98.5531 102.893 99.2717C105.061 101.205 107.511 102.809 110.164 104.025C113.804 105.692 117.749 106.594 121.753 106.674C125.758 106.755 129.736 106.012 133.44 104.491C137.144 102.971 140.494 100.706 143.282 97.8376C146.07 94.9692 148.236 91.5588 149.645 87.819C151.054 84.0791 151.676 80.0899 151.472 76.0999C151.268 72.1098 150.242 68.2044 148.459 64.627C147.159 62.0189 145.476 59.6259 143.472 57.5245C142.727 56.7436 141.937 56.003 141.107 55.3066L139.808 56.848Z" fill="#111B22"/>
<path d="M139.633 58.6025L139.191 54.0977L143.834 54.9444L139.633 58.6025Z" fill="#111B22"/>
<path d="M144.385 77.9067C144.385 89.8702 134.662 99.5684 122.669 99.5684C110.676 99.5684 100.953 89.8702 100.953 77.9067C100.953 65.9434 110.676 56.2451 122.669 56.2451C134.662 56.2451 144.385 65.9434 144.385 77.9067Z" fill="#BFDBEE"/>
<path fill-rule="evenodd" clip-rule="evenodd" d="M122.669 98.2719C133.949 98.2719 143.088 89.151 143.088 77.9067C143.088 66.6625 133.949 57.5416 122.669 57.5416C111.389 57.5416 102.25 66.6625 102.25 77.9067C102.25 89.151 111.389 98.2719 122.669 98.2719ZM122.669 99.5684C134.662 99.5684 144.385 89.8702 144.385 77.9067C144.385 65.9434 134.662 56.2451 122.669 56.2451C110.676 56.2451 100.953 65.9434 100.953 77.9067C100.953 89.8702 110.676 99.5684 122.669 99.5684Z" fill="#D0EAEE"/>
</g>
<path d="M114.971 69.329C108.046 61.3716 119.272 56.4863 119.272 56.4863C112.118 57.9881 108.832 60.0936 104.479 65.0176C104.155 65.3845 103.876 65.7926 103.651 66.2279C101.824 69.7732 100.95 72.3006 100.199 75.8164C99.835 77.5231 99.9001 79.2956 100.361 80.9788C101.077 83.597 101.782 85.7091 102.911 88.5615C103.326 89.6116 103.938 90.5773 104.735 91.3777C107.841 94.4971 110.632 96.4409 113.096 97.7786C113.794 98.158 114.552 98.4119 115.33 98.5744L121.205 99.8006C121.205 99.8006 116.213 96.9263 124.616 93.3045C133.019 89.6828 121.897 77.2865 114.971 69.329Z" fill="#0078CE" fill-opacity="0.2"/>
<path d="M64.4314 15.8668C64.3983 15.2622 64.8617 14.7414 65.4666 14.7034C66.0715 14.6653 66.5887 15.1246 66.6218 15.7291L66.9079 20.9473C66.941 21.5518 66.4776 22.0727 65.8727 22.1107C65.2678 22.1487 64.7506 21.6895 64.7175 21.085L64.4314 15.8668Z" fill="#999999"/>
<path d="M66.9077 20.9469C66.9408 21.5515 66.4775 22.0723 65.8726 22.1103C65.2678 22.1483 64.7506 21.6892 64.7175 21.0846L64.4314 15.8667C64.3983 15.2622 64.8617 14.7414 65.4665 14.7034C66.0713 14.6654 66.5884 15.1245 66.6216 15.729L66.9077 20.9469Z" fill="#0078CE"/>
<path d="M51.9048 34.1393C51.2908 34.1779 50.7658 33.7118 50.7322 33.0981C50.6985 32.4845 51.169 31.9558 51.783 31.9172L56.8609 31.5979C57.4749 31.5593 57.9999 32.0255 58.0335 32.6392C58.0672 33.2528 57.5967 33.7816 56.9827 33.8202L51.9048 34.1393Z" fill="#999999"/>
<path d="M56.8606 31.5979C57.4746 31.5593 57.9996 32.0255 58.0332 32.6392C58.0669 33.2528 57.5964 33.7815 56.9825 33.8201L51.9048 34.1392C51.2908 34.1778 50.7658 33.7117 50.7322 33.0981C50.6985 32.4845 51.169 31.9558 51.7829 31.9172L56.8606 31.5979Z" fill="#0078CE"/>
<path d="M139.193 77.9048C139.193 87.0112 131.792 94.3935 122.663 94.3935C113.534 94.3935 106.133 87.0112 106.133 77.9048C106.133 68.7983 113.534 61.416 122.663 61.416C131.792 61.416 139.193 68.7983 139.193 77.9048Z" fill="white"/>
<path fill-rule="evenodd" clip-rule="evenodd" d="M122.663 92.9865C131.018 92.9865 137.786 86.2309 137.786 77.9048C137.786 69.5786 131.018 62.8229 122.663 62.8229C114.307 62.8229 107.54 69.5786 107.54 77.9048C107.54 86.2309 114.307 92.9865 122.663 92.9865ZM122.663 94.3935C131.792 94.3935 139.193 87.0112 139.193 77.9048C139.193 68.7983 131.792 61.416 122.663 61.416C113.534 61.416 106.133 68.7983 106.133 77.9048C106.133 87.0112 113.534 94.3935 122.663 94.3935Z" fill="#BFDBEE"/>
<path d="M121.789 65.0129C124.323 64.8394 126.852 65.4098 129.053 66.6511C131.254 67.8925 133.027 69.7484 134.146 71.9815L122.68 77.4862L121.789 65.0129Z" fill="#0078CE"/>
<path fill-rule="evenodd" clip-rule="evenodd" d="M122.013 64.9995C121.938 65.0034 121.864 65.0078 121.789 65.0129L122.68 77.4862L134.146 71.9815C134.112 71.9147 134.078 71.8482 134.043 71.7821C132.921 69.6378 131.188 67.8553 129.053 66.6511C126.917 65.4464 124.472 64.8736 122.013 64.9995ZM122.029 65.223L122.88 77.1417L133.841 71.8791C132.739 69.7766 131.039 68.0282 128.943 66.8463C126.845 65.6632 124.444 65.1002 122.029 65.223Z" fill="#BFDBEE"/>
<path fill-rule="evenodd" clip-rule="evenodd" d="M116.791 67.4192C117.005 67.2855 117.289 67.3473 117.426 67.5572L119.036 70.0354C119.173 70.2454 119.11 70.524 118.896 70.6578C118.681 70.7915 118.397 70.7297 118.261 70.5197L116.65 68.0415C116.513 67.8316 116.577 67.5529 116.791 67.4192Z" fill="#111B22"/>
<path fill-rule="evenodd" clip-rule="evenodd" d="M112.153 71.858C112.278 71.6413 112.558 71.5649 112.779 71.6873L115.425 73.1517C115.647 73.2742 115.725 73.5491 115.6 73.7658C115.475 73.9825 115.194 74.0589 114.973 73.9365L112.327 72.4721C112.106 72.3496 112.028 72.0747 112.153 71.858Z" fill="#111B22"/>
<path fill-rule="evenodd" clip-rule="evenodd" d="M110.598 77.9369C110.598 77.688 110.803 77.4863 111.058 77.4863L113.934 77.4865C114.188 77.4865 114.394 77.6883 114.394 77.9372C114.394 78.1861 114.188 78.388 113.934 78.388L111.058 78.3876C110.804 78.3876 110.598 78.1858 110.598 77.9369Z" fill="#111B22"/>
<path fill-rule="evenodd" clip-rule="evenodd" d="M115.591 82.0935C115.725 82.3051 115.659 82.5829 115.443 82.7138L113.027 84.1785C112.811 84.3094 112.527 84.244 112.393 84.0323C112.26 83.8207 112.326 83.5429 112.542 83.412L114.958 81.9473C115.174 81.8164 115.458 81.8818 115.591 82.0935Z" fill="#111B22"/>
<path fill-rule="evenodd" clip-rule="evenodd" d="M118.878 85.0917C119.099 85.2143 119.177 85.4893 119.052 85.7059L117.556 88.2968C117.431 88.5134 117.151 88.5896 116.93 88.467C116.708 88.3444 116.63 88.0695 116.755 87.8529L118.251 85.262C118.376 85.0454 118.657 84.9691 118.878 85.0917Z" fill="#111B22"/>
<path fill-rule="evenodd" clip-rule="evenodd" d="M123.105 86.3857C123.359 86.3858 123.565 86.5877 123.565 86.8366V89.5401C123.565 89.789 123.359 89.9907 123.105 89.9906C122.851 89.9905 122.645 89.7886 122.645 89.5397V86.8362C122.645 86.5873 122.851 86.3856 123.105 86.3857Z" fill="#111B22"/>
<path fill-rule="evenodd" clip-rule="evenodd" d="M127.252 85.2238C127.461 85.0836 127.748 85.1367 127.891 85.3423L129.616 87.8206C129.759 88.0263 129.705 88.3066 129.495 88.4468C129.285 88.587 128.999 88.5339 128.856 88.3282L127.131 85.8501C126.988 85.6444 127.042 85.3639 127.252 85.2238Z" fill="#111B22"/>
<path fill-rule="evenodd" clip-rule="evenodd" d="M130.444 82.1448C130.567 81.927 130.847 81.848 131.069 81.9684L133.715 83.4006C133.938 83.521 134.019 83.7952 133.896 84.013C133.773 84.2308 133.493 84.3099 133.271 84.1895L130.625 82.7573C130.402 82.6369 130.322 82.3627 130.444 82.1448Z" fill="#111B22"/>
<path fill-rule="evenodd" clip-rule="evenodd" d="M131.766 77.7943C131.766 77.5454 131.971 77.3438 132.225 77.3438L135.102 77.3439C135.356 77.344 135.562 77.5457 135.562 77.7946C135.562 78.0435 135.356 78.2454 135.102 78.2454L132.226 78.245C131.972 78.245 131.766 78.0432 131.766 77.7943Z" fill="#111B22"/>
<path fill-rule="evenodd" clip-rule="evenodd" d="M134.075 71.6845C134.297 72.0618 134.165 72.5442 133.78 72.762L123.427 78.6197C123.042 78.8375 122.549 78.7082 122.327 78.3309C122.105 77.9536 122.237 77.4712 122.622 77.2534L132.976 71.3958C133.361 71.178 133.853 71.3073 134.075 71.6845Z" fill="#111B22"/>
<path d="M125.324 77.9369C125.324 79.2433 124.242 80.3025 122.908 80.3025C121.574 80.3025 120.492 79.2433 120.492 77.9369C120.492 76.6304 121.574 75.5713 122.908 75.5713C124.242 75.5713 125.324 76.6304 125.324 77.9369Z" fill="#111B22"/>
<path d="M54.5672 22.0774C54.1139 21.6688 54.0738 20.964 54.4778 20.5032C54.8817 20.0424 55.5767 20.0001 56.03 20.4088L59.8385 23.842C60.2918 24.2507 60.3318 24.9556 59.9279 25.4164C59.524 25.8772 58.8291 25.9194 58.3758 25.5108L54.5672 22.0774Z" fill="#999999"/>
<path d="M59.8383 23.842L59.9184 23.9221C60.2948 24.3379 60.3064 24.9843 59.9278 25.4163L59.8487 25.4977C59.4379 25.8805 58.8006 25.8937 58.3756 25.5106L54.5673 22.0774C54.114 21.6688 54.0739 20.9638 54.4778 20.5031C54.8817 20.0424 55.5767 20.0001 56.03 20.4088L59.8383 23.842Z" fill="#0078CE"/>
</g>
</g>
<defs>
<filter id="filter0_d_56001_733767" x="88.632" y="48.9117" width="73.2496" height="73.3268" filterUnits="userSpaceOnUse" color-interpolation-filters="sRGB">
<feFlood flood-opacity="0" result="BackgroundImageFix"/>
<feColorMatrix in="SourceAlpha" type="matrix" values="0 0 0 0 0 0 0 0 0 0 0 0 0 0 0 0 0 0 127 0" result="hardAlpha"/>
<feOffset dy="5.18594"/>
<feGaussianBlur stdDeviation="5.18594"/>
<feColorMatrix type="matrix" values="0 0 0 0 0.0705882 0 0 0 0 0.105882 0 0 0 0 0.129412 0 0 0 0.1 0"/>
<feBlend mode="normal" in2="BackgroundImageFix" result="effect1_dropShadow_56001_733767"/>
<feBlend mode="normal" in="SourceGraphic" in2="effect1_dropShadow_56001_733767" result="shape"/>
</filter>
<clipPath id="clip0_56001_733767">
<rect width="196" height="121" fill="white"/>
</clipPath>
</defs>
</svg>
