<svg width="196" height="121" viewBox="0 0 196 121" fill="none" xmlns="http://www.w3.org/2000/svg">
<rect x="59.082" y="28.8423" width="79.9181" height="61.7087" fill="#BFDBEE"/>
<path d="M125.608 51.1011C110.555 41.5202 106.594 30.5422 106.594 30.5422L134.125 28.147L139.473 32.3386V46.9095V81.64L137.691 89.2248L126.797 90.6221C126.797 90.6221 119.827 77.3576 120.26 68.2668C120.595 61.2486 140.662 60.6819 125.608 51.1011Z" fill="#0078CE" fill-opacity="0.2"/>
<path fill-rule="evenodd" clip-rule="evenodd" d="M62.823 30.5152C61.0538 30.5152 59.6176 31.9612 59.6176 33.7367V54.2956C59.6176 55.1621 58.9206 55.8645 58.0608 55.8645C57.2009 55.8645 56.5039 55.1621 56.5039 54.2956V33.7367C56.5039 30.2209 59.3414 27.3774 62.823 27.3774H134.508C137.989 27.3774 140.827 30.2209 140.827 33.7367V85.0342C140.827 88.5463 138.002 91.3934 134.516 91.3934H109.135V101.429H114.313C115.173 101.429 115.87 102.132 115.87 102.998C115.87 103.865 115.173 104.567 114.313 104.567H81.6313C80.7714 104.567 80.0744 103.865 80.0744 102.998C80.0744 102.132 80.7714 101.429 81.6313 101.429H87.9973V91.3934H81.6313C80.7714 91.3934 80.0744 90.691 80.0744 89.8246C80.0744 88.9581 80.7714 88.2557 81.6313 88.2557H134.516C136.282 88.2557 137.713 86.8134 137.713 85.0342V33.7367C137.713 31.9612 136.277 30.5152 134.508 30.5152H62.823ZM91.111 91.3934V101.429H106.022V91.3934H91.111Z" fill="#111B22"/>
<path d="M99.2661 83.0356C99.2661 84.1379 98.3793 85.0316 97.2854 85.0316C96.1915 85.0316 95.3047 84.1379 95.3047 83.0356C95.3047 81.9332 96.1915 81.0396 97.2854 81.0396C98.3793 81.0396 99.2661 81.9332 99.2661 83.0356Z" fill="#111B22"/>
<g filter="url(#filter0_d_54300_1045066)">
<path d="M107.074 44.7831V52.2103C107.074 53.4264 106.435 54.5557 105.402 55.1747L99.0742 58.8991C98.0409 59.5072 96.7626 59.5072 95.7187 58.8991L89.3912 55.1747C88.3579 54.5666 87.7188 53.4373 87.7188 52.2103V44.7831C87.7188 43.5669 88.3579 42.4376 89.3912 41.8187L95.7187 38.0942C96.752 37.4862 98.0302 37.4862 99.0742 38.0942L105.402 41.8187C106.435 42.4376 107.074 43.5561 107.074 44.7831Z" fill="#BFDBEE" stroke="#111B22" stroke-width="2.00038" stroke-linecap="round" stroke-linejoin="round"/>
<path d="M97.4117 47.4111C98.7825 47.4111 99.8937 46.2783 99.8937 44.881C99.8937 43.4838 98.7825 42.3511 97.4117 42.3511C96.0409 42.3511 94.9297 43.4838 94.9297 44.881C94.9297 46.2783 96.0409 47.4111 97.4117 47.4111Z" stroke="#111B22" stroke-width="1.08583" stroke-linecap="round" stroke-linejoin="round"/>
<path d="M101.666 53.5569C101.666 51.6024 99.7596 50.0171 97.4055 50.0171C95.0513 50.0171 93.1445 51.6024 93.1445 53.5569" stroke="#111B22" stroke-width="1.08583" stroke-linecap="round" stroke-linejoin="round"/>
<path d="M97.3124 62.226V69.6531C97.3124 70.8693 96.6732 71.9986 95.64 72.6175L89.3124 76.342C88.2792 76.9501 87.0009 76.9501 85.957 76.342L79.6295 72.6175C78.5962 72.0095 77.957 70.8801 77.957 69.6531V62.226C77.957 61.0098 78.5962 59.8805 79.6295 59.2616L85.957 55.5371C86.9902 54.929 88.2685 54.929 89.3124 55.5371L95.64 59.2616C96.6732 59.8805 97.3124 60.999 97.3124 62.226Z" fill="#BFDBEE" stroke="#111B22" stroke-width="2.00038" stroke-linecap="round" stroke-linejoin="round"/>
<path d="M87.6422 64.8535C89.0129 64.8535 90.1242 63.7207 90.1242 62.3234C90.1242 60.9261 89.0129 59.7935 87.6422 59.7935C86.2714 59.7935 85.1602 60.9261 85.1602 62.3234C85.1602 63.7207 86.2714 64.8535 87.6422 64.8535Z" stroke="#111B22" stroke-width="1.08583" stroke-linecap="round" stroke-linejoin="round"/>
<path d="M91.9008 70.9983C91.9008 69.0438 89.994 67.4585 87.6399 67.4585C85.2857 67.4585 83.3789 69.0438 83.3789 70.9983" stroke="#111B22" stroke-width="1.08583" stroke-linecap="round" stroke-linejoin="round"/>
<path d="M116.84 62.226V69.6531C116.84 70.8693 116.201 71.9986 115.167 72.6175L108.84 76.342C107.807 76.9501 106.528 76.9501 105.484 76.342L99.1568 72.6175C98.1235 72.0095 97.4844 70.8801 97.4844 69.6531V62.226C97.4844 61.0098 98.1235 59.8805 99.1568 59.2616L105.484 55.5371C106.518 54.929 107.796 54.929 108.84 55.5371L115.167 59.2616C116.201 59.8805 116.84 60.999 116.84 62.226Z" fill="#BFDBEE" stroke="#111B22" stroke-width="2.00038" stroke-linecap="round" stroke-linejoin="round"/>
<path d="M107.173 64.8535C108.544 64.8535 109.655 63.7207 109.655 62.3234C109.655 60.9261 108.544 59.7935 107.173 59.7935C105.803 59.7935 104.691 60.9261 104.691 62.3234C104.691 63.7207 105.803 64.8535 107.173 64.8535Z" stroke="#111B22" stroke-width="1.08583" stroke-linecap="round" stroke-linejoin="round"/>
<path d="M111.436 70.9983C111.436 69.0438 109.529 67.4585 107.175 67.4585C104.821 67.4585 102.914 69.0438 102.914 70.9983" stroke="#111B22" stroke-width="1.08583" stroke-linecap="round" stroke-linejoin="round"/>
</g>
<rect x="-0.548339" y="0.71464" width="1.27687" height="7.38587" rx="0.638436" transform="matrix(0.132867 0.991134 -0.991745 0.128226 155.897 30.1465)" stroke="#0078CE" stroke-width="1.27687"/>
<rect x="0.730667" y="0.560637" width="1.29941" height="7.21307" rx="0.649706" transform="matrix(0.991745 -0.128226 0.132866 0.991134 131.853 14.982)" stroke="#0078CE" stroke-width="1.29941"/>
<rect x="0.118109" y="0.897267" width="1.29121" height="7.27658" rx="0.645604" transform="matrix(0.798631 0.601821 -0.615688 0.78799 147.725 17.3272)" stroke="#0078CE" stroke-width="1.29121"/>
<g clip-path="url(#clip0_54300_1045066)">
<circle cx="57.9836" cy="79.0632" r="16.5031" fill="#BFDBEE"/>
<path d="M61.2333 61.7701C61.3018 61.7841 61.3704 61.7981 61.441 61.8124C64.8198 62.5192 67.9278 64.038 70.4108 66.4536C70.5559 66.5893 70.7127 66.7096 70.8679 66.8336C70.9451 66.9148 71.02 66.9983 71.0921 67.0841C71.2302 67.2466 71.3691 67.4055 71.516 67.5602C74.001 70.1821 75.4756 73.7611 75.9314 77.3121C75.9375 77.359 75.9437 77.406 75.95 77.4543C75.9989 77.8563 76.014 78.2529 76.016 78.6576C76.0165 78.7242 76.017 78.7908 76.0175 78.8593C76.0335 81.6383 76.0335 81.6383 75.7907 82.7975C75.7698 82.9004 75.7698 82.9004 75.7484 83.0053C75.0555 86.3175 73.5797 89.3489 71.2553 91.819C71.1305 91.9543 71.0126 92.0889 70.8965 92.2311C70.7607 92.3924 70.633 92.5262 70.4723 92.6607C70.3114 92.7972 70.154 92.9346 70.0009 93.0799C67.379 95.5652 63.7998 97.0398 60.2487 97.4956C60.2018 97.5018 60.1549 97.5079 60.1066 97.5142C59.7038 97.5633 59.3063 97.5783 58.9007 97.5802C58.8335 97.5806 58.7662 97.581 58.697 97.5814C58.5549 97.5821 58.4129 97.5826 58.2709 97.5828C58.0592 97.5835 57.8475 97.5857 57.6358 97.5879C56.6853 97.5931 55.7708 97.5123 54.8336 97.355C54.7537 97.3417 54.6738 97.3285 54.5915 97.3149C54.4089 97.2821 54.228 97.2456 54.0469 97.2055C53.9492 97.1839 53.9492 97.1839 53.8495 97.1619C50.8115 96.4555 48.0107 94.9545 45.7418 92.8195C45.6067 92.6948 45.4721 92.5771 45.33 92.461C45.1672 92.324 45.0318 92.1942 44.8957 92.0322C44.7159 91.8206 44.5311 91.6157 44.3419 91.4124C42.2739 89.1096 40.9365 86.2161 40.2938 83.2063C40.2798 83.1413 40.2658 83.0762 40.2514 83.0092C40.0199 81.8695 39.9685 80.7489 39.9729 79.5889C39.9731 79.5173 39.9732 79.4457 39.9734 79.3719C39.9769 78.3436 39.9984 77.338 40.2059 76.3276C40.2198 76.2563 40.2338 76.1851 40.2482 76.1118C40.9217 72.7439 42.4895 69.6168 44.8893 67.1501C45.0251 67.0049 45.1454 66.8482 45.2693 66.6929C45.3505 66.6157 45.4341 66.5408 45.5199 66.4688C45.7487 66.2739 45.9688 66.0723 46.188 65.8666C48.5395 63.7262 51.6637 62.3491 54.7633 61.7701C54.8199 61.7587 54.8765 61.7473 54.9349 61.7355C56.9034 61.3506 59.2704 61.359 61.2333 61.7701ZM46.9571 68.7324C46.9164 68.7728 46.8757 68.8132 46.8338 68.8549C45.9383 69.7548 45.1931 70.7945 44.5661 71.897C44.5252 71.9688 44.5252 71.9688 44.4835 72.0421C42.4897 75.5824 41.9996 79.7988 43.0892 83.7118C43.6724 85.7546 44.6184 87.6272 45.9726 89.2675C46.0221 89.3277 46.0221 89.3277 46.0725 89.3891C46.7666 90.2283 47.5042 90.9853 48.3637 91.6586C48.4345 91.7158 48.5054 91.773 48.5785 91.8319C49.1332 92.2752 49.7139 92.6478 50.3328 92.9948C50.3834 93.0234 50.434 93.0521 50.4861 93.0816C53.9199 95.0117 58.122 95.592 61.9365 94.5419C64.6654 93.7564 66.909 92.4016 68.9691 90.463C69.0154 90.4197 69.0618 90.3764 69.1095 90.3317C69.4716 89.9822 69.7831 89.5918 70.0943 89.1972C70.1717 89.0993 70.1717 89.0993 70.2506 88.9994C72.7427 85.7646 73.8508 81.6901 73.358 77.6411C72.8915 74.1432 71.3112 71.0152 68.8285 68.5214C68.7684 68.4609 68.7684 68.4609 68.7071 68.3992C67.6244 67.3218 66.3771 66.4908 65.0309 65.7787C64.9562 65.7388 64.9562 65.7388 64.8801 65.698C58.9723 62.585 51.5874 64.1226 46.9571 68.7324Z" fill="#17222B"/>
<path d="M60.6016 71.0556C60.6869 71.0945 60.6869 71.0945 60.7739 71.1341C61.2244 71.3622 61.5796 71.6881 61.9378 72.0401C62.0001 72.1011 62.0001 72.1011 62.0636 72.1632C62.7206 72.864 62.8938 73.7842 62.8691 74.7109C62.8177 75.7925 62.2885 76.7289 61.5862 77.5255C61.5418 77.5799 61.4975 77.6343 61.4518 77.6904C61.0759 78.1366 60.6448 78.4964 60.1878 78.8558C59.4982 79.4038 59.0791 79.9285 58.9709 80.8177C58.9403 81.0869 58.9161 81.3554 58.8998 81.6259C58.8822 81.9142 58.8682 82.1195 58.7336 82.378C58.2067 82.8104 57.5975 82.7813 56.9447 82.7297C56.6962 82.6844 56.5265 82.6117 56.3637 82.4074C55.8995 81.6599 56.0432 80.5073 56.2301 79.6889C56.6022 78.4825 57.3344 77.6909 58.3223 76.9368C58.9822 76.432 59.5442 75.9773 59.7225 75.1389C59.7754 74.7404 59.7412 74.4335 59.5467 74.0796C59.1752 73.6152 58.7213 73.4115 58.1471 73.3239C57.3382 73.2576 56.6577 73.3627 56.0216 73.8774C55.7583 74.1193 55.5682 74.3939 55.3791 74.696C55.1949 74.9329 55.0167 75.0474 54.719 75.0922C54.1943 75.0877 53.8583 75.0372 53.446 74.6905C53.1253 74.3076 53.0365 74.0058 53.0526 73.5123C53.1529 72.6557 53.6575 72.0159 54.2984 71.4715C56.0574 70.1907 58.6713 70.1736 60.6016 71.0556Z" fill="#17222B"/>
<path d="M58.4497 84.5448C58.9131 84.9404 59.2743 85.3367 59.3499 85.9626C59.3702 86.5337 59.2206 87.0805 58.8277 87.5072C58.3483 87.9289 57.874 88.058 57.2385 88.035C56.6827 87.9587 56.2617 87.6827 55.916 87.2463C55.5909 86.733 55.5485 86.1991 55.6762 85.6128C55.8295 85.1404 56.1472 84.7375 56.5761 84.483C57.1873 84.203 57.8577 84.2326 58.4497 84.5448Z" fill="#17222B"/>
</g>
<defs>
<filter id="filter0_d_54300_1045066" x="71.3723" y="33.8458" width="52.0522" height="52.3295" filterUnits="userSpaceOnUse" color-interpolation-filters="sRGB">
<feFlood flood-opacity="0" result="BackgroundImageFix"/>
<feColorMatrix in="SourceAlpha" type="matrix" values="0 0 0 0 0 0 0 0 0 0 0 0 0 0 0 0 0 0 127 0" result="hardAlpha"/>
<feOffset dy="2.79235"/>
<feGaussianBlur stdDeviation="2.79235"/>
<feColorMatrix type="matrix" values="0 0 0 0 0.0705882 0 0 0 0 0.105882 0 0 0 0 0.129412 0 0 0 0.1 0"/>
<feBlend mode="normal" in2="BackgroundImageFix" result="effect1_dropShadow_54300_1045066"/>
<feBlend mode="normal" in="SourceGraphic" in2="effect1_dropShadow_54300_1045066" result="shape"/>
</filter>
<clipPath id="clip0_54300_1045066">
<rect width="36.0068" height="36.0068" fill="white" transform="translate(40 61.5605)"/>
</clipPath>
</defs>
</svg>
