<svg width="196" height="121" viewBox="0 0 196 121" fill="none" xmlns="http://www.w3.org/2000/svg">
<path d="M93.97 20.8427C94.177 20.8406 94.384 20.8385 94.5974 20.8363C94.8238 20.8349 95.0502 20.8337 95.2766 20.8326C95.448 20.8316 95.448 20.8316 95.6229 20.8306C96.2279 20.8272 96.833 20.8248 97.4381 20.8233C98.0611 20.8215 98.6841 20.8158 99.3071 20.8093C99.7879 20.805 100.269 20.8036 100.749 20.803C100.979 20.8023 101.208 20.8004 101.438 20.7973C103.67 20.7694 103.67 20.7694 104.646 21.5281C105.348 22.2837 105.489 22.8174 105.487 23.8307C105.487 24.0344 105.487 24.2381 105.487 24.4479C105.486 24.6701 105.486 24.8923 105.485 25.1146C105.484 25.342 105.484 25.5694 105.484 25.7968C105.483 26.3949 105.482 26.9929 105.48 27.591C105.478 28.2015 105.478 28.812 105.477 29.4225C105.475 30.62 105.472 31.8175 105.469 33.015C106.12 33.015 106.772 33.015 107.443 33.015C107.497 32.7443 107.551 32.4735 107.607 32.1945C108.001 31.7498 108.244 31.7045 108.839 31.6397C109.072 31.6368 109.305 31.6366 109.537 31.6385C109.665 31.6377 109.792 31.6368 109.923 31.6359C110.344 31.6337 110.766 31.6352 111.187 31.6368C111.481 31.6365 111.774 31.636 112.068 31.6354C112.685 31.6347 113.301 31.6357 113.918 31.638C114.704 31.6408 115.491 31.6392 116.278 31.6363C116.885 31.6345 117.492 31.6351 118.1 31.6364C118.39 31.6367 118.679 31.6363 118.969 31.6351C121.45 31.6274 123.345 31.8817 125.241 33.6099C126.581 34.997 126.879 36.6322 126.884 38.4796C126.885 38.6321 126.887 38.7845 126.888 38.9416C126.891 39.4447 126.893 39.9477 126.894 40.4507C126.895 40.6228 126.896 40.7948 126.896 40.972C126.9 41.8816 126.902 42.7912 126.904 43.7008C126.906 44.6406 126.911 45.5803 126.918 46.52C126.922 47.2427 126.924 47.9655 126.924 48.6882C126.925 49.0347 126.927 49.3812 126.93 49.7277C126.934 50.2121 126.934 50.6962 126.933 51.1806C126.936 51.3952 126.936 51.3952 126.939 51.6142C126.933 52.281 126.903 52.6279 126.552 53.2125C126.197 53.5274 126.197 53.5274 125.704 53.5274C125.704 54.3938 125.704 55.2602 125.704 56.1529C125.921 56.2071 126.138 56.2612 126.362 56.317C126.804 56.7713 126.917 57.092 126.918 57.7176C126.919 57.8669 126.921 58.0162 126.922 58.17C126.921 58.3334 126.92 58.4967 126.919 58.6651C126.92 58.9262 126.92 58.9262 126.922 59.1926C126.924 59.7778 126.923 60.3631 126.922 60.9483C126.923 61.3672 126.924 61.7861 126.925 62.2049C126.928 63.226 126.928 64.2471 126.927 65.2683C126.927 66.0988 126.927 66.9294 126.928 67.7599C126.928 67.8781 126.928 67.9963 126.928 68.1181C126.928 68.3583 126.929 68.5984 126.929 68.8386C126.931 71.0921 126.93 73.3456 126.928 75.5991C126.927 77.6579 126.929 79.7168 126.933 81.7756C126.937 83.8911 126.938 86.0065 126.937 88.122C126.937 89.309 126.937 90.4961 126.94 91.6831C126.943 92.8005 126.942 93.9179 126.939 95.0353C126.938 95.4446 126.939 95.854 126.94 96.2633C126.96 101.285 126.96 101.285 125.046 103.249C123.595 104.594 122.03 104.989 120.089 104.975C119.894 104.976 119.699 104.977 119.498 104.978C118.962 104.981 118.425 104.98 117.889 104.978C117.309 104.977 116.728 104.98 116.148 104.982C115.013 104.986 113.878 104.986 112.743 104.984C111.82 104.983 110.897 104.983 109.974 104.984C109.842 104.985 109.711 104.985 109.575 104.985C109.308 104.985 109.04 104.986 108.773 104.986C106.268 104.989 103.763 104.987 101.257 104.984C98.9685 104.982 96.6795 104.984 94.3905 104.989C92.037 104.994 89.6834 104.996 87.3298 104.994C87.0633 104.994 86.7968 104.994 86.5303 104.994C86.3992 104.994 86.2681 104.993 86.133 104.993C85.2119 104.993 84.2908 104.995 83.3697 104.997C82.2459 105 81.1222 105 79.9984 104.996C79.4258 104.994 78.8531 104.994 78.2805 104.997C77.658 104.999 77.0358 104.997 76.4133 104.993C76.1452 104.996 76.1452 104.996 75.8716 104.999C74.0551 104.977 72.5432 104.365 71.234 103.101C69.4561 101.146 69.5286 98.8954 69.5336 96.3994C69.5329 96.0685 69.532 95.7376 69.531 95.4068C69.5295 94.7163 69.5299 94.0259 69.5316 93.3354C69.5335 92.4503 69.5301 91.5652 69.5253 90.6801C69.5223 89.9982 69.5223 89.3163 69.5233 88.6344C69.5233 88.3079 69.5223 87.9814 69.5203 87.655C69.5178 87.1997 69.5196 86.7447 69.5224 86.2895C69.5208 86.1548 69.5192 86.0201 69.5176 85.8813C69.5253 85.2895 69.555 84.9388 69.9083 84.4533C70.263 84.2138 70.263 84.2138 70.7565 84.2138C70.7565 83.2932 70.7565 82.3726 70.7565 81.4241C70.4851 81.3158 70.2136 81.2075 69.934 81.0959C69.5876 80.5776 69.5637 80.4573 69.5631 79.8659C69.5621 79.7139 69.5612 79.5619 69.5602 79.4053C69.5608 79.238 69.5614 79.0707 69.562 78.8983C69.5614 78.7208 69.5608 78.5433 69.5601 78.3604C69.5584 77.7626 69.5591 77.1647 69.5598 76.5668C69.559 76.1394 69.5582 75.7119 69.5572 75.2845C69.5551 74.2418 69.5548 73.1992 69.5552 72.1566C69.5555 71.3087 69.5552 70.4609 69.5545 69.613C69.5544 69.4924 69.5543 69.3718 69.5542 69.2475C69.554 69.0025 69.5538 68.7575 69.5536 68.5125C69.5518 66.2129 69.5522 63.9134 69.5532 61.6138C69.554 59.5117 69.5522 57.4097 69.549 55.3076C69.5459 53.1488 69.5445 50.99 69.5451 48.8311C69.5454 47.6193 69.545 46.4075 69.5427 45.1957C69.5405 44.0553 69.5409 42.9149 69.5431 41.7744C69.5435 41.3562 69.543 40.938 69.5417 40.5198C69.54 39.948 69.5413 39.3763 69.5434 38.8045C69.5422 38.6398 69.5409 38.4751 69.5397 38.3054C69.5549 36.3176 70.1778 34.7744 71.5174 33.3124C72.8356 32.045 74.4145 31.6796 76.1906 31.6732C76.3213 31.6721 76.4519 31.671 76.5865 31.6699C77.0168 31.6667 77.4471 31.6648 77.8775 31.6631C78.0983 31.6621 78.0983 31.6621 78.3237 31.6611C79.1021 31.6577 79.8804 31.6553 80.6588 31.6538C81.463 31.652 82.2671 31.6463 83.0713 31.6398C83.6899 31.6355 84.3084 31.6341 84.927 31.6336C85.2236 31.6328 85.5201 31.6309 85.8166 31.6278C86.2309 31.6238 86.645 31.624 87.0594 31.6251C87.1818 31.623 87.3043 31.6209 87.4305 31.6187C87.9953 31.6244 88.3033 31.6599 88.7593 32.0045C89.0174 32.3586 89.0174 32.3586 89.1819 32.8509C90.0777 32.9321 90.0777 32.9321 90.9916 33.015C90.9901 32.8901 90.9886 32.7652 90.9871 32.6365C90.9739 31.456 90.9639 30.2755 90.9575 29.0949C90.954 28.488 90.9494 27.8812 90.9419 27.2744C90.9347 26.6881 90.9308 26.1019 90.9291 25.5156C90.9279 25.2926 90.9255 25.0696 90.922 24.8466C90.8886 22.6725 90.8886 22.6725 91.6496 21.6922C92.4092 20.99 92.9517 20.8517 93.97 20.8427ZM88.3594 40.7277C88.2936 41.4761 88.3052 42.2269 88.3074 42.9779C88.3079 43.3518 88.3041 43.7255 88.2999 44.0994C88.2995 44.3361 88.2994 44.5729 88.2996 44.8096C88.2991 45.0258 88.2986 45.242 88.2981 45.4647C88.3183 45.6344 88.3385 45.804 88.3594 45.9788C88.8855 46.3287 89.0172 46.3481 89.6209 46.3487C89.7787 46.3496 89.9364 46.3505 90.099 46.3515C90.2718 46.3508 90.4446 46.3502 90.6227 46.3495C90.896 46.3503 90.896 46.3503 91.1748 46.3512C91.7786 46.3527 92.3824 46.3517 92.9863 46.3506C93.4049 46.3508 93.8234 46.3511 94.242 46.3516C95.1199 46.352 95.9979 46.3514 96.8758 46.3498C97.8909 46.348 98.906 46.3486 99.9212 46.3504C100.898 46.3521 101.874 46.3519 102.85 46.3509C103.266 46.3507 103.681 46.351 104.097 46.3517C104.677 46.3526 105.257 46.3513 105.838 46.3495C106.097 46.3505 106.097 46.3505 106.361 46.3515C106.598 46.3501 106.598 46.3501 106.839 46.3487C106.976 46.3486 107.114 46.3484 107.255 46.3483C107.656 46.3282 107.656 46.3282 108.101 45.9788C108.175 45.4426 108.175 45.4426 108.161 44.8096C108.161 44.6943 108.161 44.579 108.161 44.4602C108.16 44.2163 108.159 43.9724 108.156 43.7285C108.152 43.3547 108.153 42.981 108.154 42.6071C108.249 41.4021 108.249 41.4021 107.772 40.3995C107.219 40.3595 107.219 40.3595 106.6 40.3789C106.389 40.3819 106.178 40.3849 105.961 40.3879C105.798 40.3917 105.636 40.3955 105.469 40.3995C105.453 40.5321 105.436 40.6647 105.42 40.8014C105.167 42.6 105.167 42.6 104.482 43.1891C103.771 43.6023 103.254 43.7437 102.434 43.7477C102.227 43.7498 102.02 43.7519 101.807 43.754C101.583 43.7537 101.359 43.7532 101.135 43.7526C100.904 43.7533 100.672 43.7542 100.44 43.7552C99.9548 43.7567 99.4699 43.7563 98.9849 43.7546C98.3657 43.7527 97.7467 43.7561 97.1275 43.7608C96.6489 43.7639 96.1703 43.7638 95.6917 43.7629C95.4635 43.7629 95.2353 43.7638 95.0072 43.7659C92.7758 43.783 92.7758 43.783 91.8141 43.025C91.18 42.1762 91.0391 41.4456 90.9916 40.3995C90.6146 40.3906 90.2376 40.3842 89.8605 40.3789C89.6506 40.3751 89.4406 40.3713 89.2243 40.3674C88.6742 40.341 88.6742 40.341 88.3594 40.7277Z" fill="#BFDBEE"/>
<path d="M103.194 55.3298C86.6581 44.832 87.9371 33.0078 87.9371 33.0078H121.629L125.373 36.742L124.99 53.566V91.6204V102.09L111.334 103.957C111.334 103.957 97.2614 85.8624 103.662 78.2015C106.001 75.4009 119.729 65.8276 103.194 55.3298Z" fill="#0078CE" fill-opacity="0.2"/>
<path d="M106.457 55.0065C107.038 55.469 107.575 55.9597 108.102 56.4834C108.227 56.6042 108.351 56.7249 108.48 56.8494C110.114 58.5298 111.178 60.615 111.721 62.8832C111.764 63.0463 111.764 63.0463 111.808 63.2127C112.635 66.5425 111.972 70.2204 110.228 73.1509C108.069 76.655 105.008 78.7579 101.028 79.7854C100.929 79.814 100.83 79.8426 100.728 79.8721C97.0965 80.6559 93.6225 79.5389 90.538 77.7111C90.1852 77.4841 89.8469 77.2477 89.5117 76.9957C89.367 76.8888 89.367 76.8888 89.2193 76.7797C86.6392 74.7313 84.7906 71.2431 84.4118 67.9703C84.1444 63.5863 85.1729 60.0155 88.1063 56.6802C92.9269 51.5901 100.797 50.9472 106.457 55.0065Z" fill="#BFDBEE"/>
<path d="M93.9723 20.8427C94.1793 20.8406 94.3864 20.8385 94.5997 20.8363C94.8261 20.8349 95.0525 20.8337 95.2789 20.8326C95.4503 20.8316 95.4503 20.8316 95.6252 20.8306C96.2302 20.8272 96.8353 20.8248 97.4404 20.8233C98.0635 20.8215 98.6864 20.8158 99.3095 20.8093C99.7902 20.805 100.271 20.8036 100.752 20.803C100.981 20.8023 101.211 20.8004 101.44 20.7973C103.673 20.7694 103.673 20.7694 104.648 21.5281C105.463 22.4053 105.495 23.1145 105.49 24.2676C105.49 24.4133 105.49 24.559 105.49 24.7092C105.49 25.1913 105.488 25.6734 105.487 26.1556C105.487 26.4897 105.486 26.8238 105.486 27.1579C105.486 28.0376 105.484 28.9173 105.482 29.7971C105.481 30.6946 105.48 31.5922 105.479 32.4897C105.477 34.2511 105.474 36.0125 105.471 37.7739C105.724 37.7696 105.724 37.7696 105.982 37.7652C106.206 37.7629 106.43 37.7607 106.653 37.7585C106.764 37.7564 106.875 37.7544 106.989 37.7522C108.132 37.7439 108.924 37.9655 109.759 38.7489C110.603 39.6707 110.763 40.3259 110.775 41.5655C110.776 41.6964 110.777 41.8274 110.779 41.9623C110.781 42.2397 110.783 42.5171 110.784 42.7945C110.786 43.0766 110.789 43.3588 110.794 43.6409C110.801 44.05 110.804 44.4588 110.805 44.8679C110.81 45.0547 110.81 45.0547 110.814 45.2452C110.81 46.2524 110.541 47.1183 109.845 47.8711C109.097 48.5285 108.397 48.8083 107.409 48.8135C107.24 48.8151 107.07 48.8168 106.896 48.8184C106.712 48.8185 106.527 48.8187 106.338 48.8188C106.045 48.8208 106.045 48.8208 105.746 48.8229C105.211 48.8262 104.676 48.828 104.142 48.8288C103.807 48.8294 103.473 48.8304 103.138 48.8316C101.97 48.8356 100.801 48.8377 99.6326 48.8383C98.5457 48.8389 97.4588 48.8438 96.3719 48.8507C95.4369 48.8564 94.5019 48.8589 93.5669 48.859C93.0093 48.8592 92.4517 48.8606 91.8941 48.8653C91.2715 48.8697 90.6491 48.8689 90.0265 48.8668C89.8433 48.8693 89.6601 48.8717 89.4714 48.8742C88.3411 48.8636 87.5892 48.6847 86.7166 47.948C85.8398 47.0274 85.6778 46.1805 85.6742 44.9391C85.6731 44.8082 85.672 44.6773 85.6709 44.5425C85.6692 44.2664 85.6685 43.9902 85.6685 43.7141C85.6678 43.2942 85.6618 42.8745 85.6556 42.4545C85.6546 42.1853 85.654 41.9161 85.6536 41.6469C85.6513 41.5226 85.6489 41.3982 85.6465 41.2702C85.6553 40.2337 85.9668 39.5495 86.6748 38.7706C86.7666 38.6956 86.8584 38.6205 86.953 38.5431C87.0444 38.4659 87.1358 38.3887 87.23 38.3091C88.0357 37.7694 88.7808 37.7314 89.7292 37.7534C89.851 37.7548 89.9729 37.7563 90.0984 37.7579C90.3969 37.7617 90.6954 37.7676 90.9939 37.7739C90.9924 37.5893 90.991 37.4048 90.9894 37.2147C90.9761 35.4739 90.9662 33.7332 90.9598 31.9923C90.9563 31.0974 90.9517 30.2025 90.9442 29.3076C90.9371 28.4436 90.9331 27.5797 90.9314 26.7157C90.9302 26.3864 90.9279 26.0571 90.9243 25.7279C90.9195 25.2659 90.9189 24.8041 90.9192 24.3421C90.9168 24.2066 90.9144 24.0711 90.912 23.9315C90.9186 22.9979 91.1171 22.4621 91.6519 21.6922C92.4115 20.99 92.954 20.8517 93.9723 20.8427ZM88.3617 40.7277C88.2959 41.4761 88.3075 42.2269 88.3097 42.9779C88.3103 43.3518 88.3064 43.7255 88.3022 44.0994C88.3019 44.3361 88.3017 44.5729 88.3019 44.8096C88.3014 45.0258 88.3009 45.242 88.3004 45.4647C88.3206 45.6344 88.3409 45.804 88.3617 45.9788C88.8878 46.3287 89.0195 46.3481 89.6232 46.3487C89.781 46.3496 89.9388 46.3505 90.1013 46.3515C90.2741 46.3508 90.447 46.3502 90.625 46.3495C90.8983 46.3503 90.8983 46.3503 91.1771 46.3512C91.781 46.3527 92.3848 46.3517 92.9886 46.3506C93.4072 46.3508 93.8258 46.3511 94.2444 46.3516C95.1223 46.352 96.0002 46.3514 96.8781 46.3498C97.8932 46.348 98.9084 46.3486 99.9235 46.3504C100.9 46.3521 101.876 46.3519 102.852 46.3509C103.268 46.3507 103.684 46.351 104.099 46.3517C104.679 46.3526 105.26 46.3513 105.84 46.3495C106.099 46.3505 106.099 46.3505 106.364 46.3515C106.6 46.3501 106.6 46.3501 106.842 46.3487C106.979 46.3486 107.116 46.3484 107.257 46.3483C107.659 46.3282 107.659 46.3282 108.103 45.9788C108.178 45.4426 108.178 45.4426 108.163 44.8096C108.163 44.6943 108.163 44.579 108.163 44.4602C108.163 44.2163 108.161 43.9724 108.158 43.7285C108.155 43.3547 108.155 42.981 108.156 42.6071C108.252 41.4021 108.252 41.4021 107.774 40.3995C107.222 40.3595 107.222 40.3595 106.602 40.3789C106.391 40.3819 106.18 40.3849 105.963 40.3879C105.801 40.3917 105.638 40.3955 105.471 40.3995C105.455 40.5321 105.439 40.6647 105.422 40.8014C105.17 42.6 105.17 42.6 104.484 43.1891C103.773 43.6023 103.256 43.7437 102.437 43.7477C102.23 43.7498 102.023 43.7519 101.809 43.754C101.585 43.7537 101.362 43.7532 101.138 43.7526C100.906 43.7533 100.674 43.7542 100.442 43.7552C99.9571 43.7567 99.4722 43.7563 98.9872 43.7546C98.368 43.7527 97.749 43.7561 97.1298 43.7608C96.6512 43.7639 96.1726 43.7638 95.694 43.7629C95.4658 43.7629 95.2377 43.7638 95.0095 43.7659C92.7781 43.783 92.7781 43.783 91.8164 43.025C91.1824 42.1762 91.0414 41.4456 90.9939 40.3995C90.6169 40.3906 90.2399 40.3842 89.8629 40.3789C89.6529 40.3751 89.443 40.3713 89.2267 40.3674C88.6766 40.341 88.6766 40.341 88.3617 40.7277Z" fill="#000001"/>
<path d="M106.457 55.0065C107.038 55.469 107.575 55.9597 108.102 56.4834C108.227 56.6042 108.351 56.7249 108.48 56.8494C110.114 58.5298 111.178 60.615 111.721 62.8832C111.764 63.0463 111.764 63.0463 111.808 63.2127C112.635 66.5425 111.972 70.2204 110.228 73.1509C108.069 76.655 105.008 78.7579 101.028 79.7854C100.929 79.814 100.83 79.8426 100.728 79.8721C97.0965 80.6559 93.6225 79.5389 90.538 77.7111C90.1852 77.4841 89.8469 77.2477 89.5117 76.9957C89.367 76.8888 89.367 76.8888 89.2193 76.7797C86.6392 74.7313 84.7906 71.2431 84.4118 67.9703C84.1444 63.5863 85.1729 60.0155 88.1063 56.6802C92.9269 51.5901 100.797 50.9472 106.457 55.0065ZM89.2965 59.0583C87.9681 60.7791 87.008 62.8347 86.8795 65.0165C86.8731 65.1199 86.8666 65.2232 86.8599 65.3297C86.6873 68.4838 87.5689 71.3058 89.6762 73.7137C90.3071 74.398 90.3071 74.398 90.9923 75.0265C91.1009 75.0265 91.2095 75.0265 91.3214 75.0265C91.3256 74.8167 91.3299 74.6068 91.3342 74.3906C91.3435 74.1103 91.3529 73.83 91.3625 73.5496C91.366 73.3431 91.366 73.3431 91.3696 73.1323C91.4083 72.1356 91.6433 71.4517 92.1439 70.5959C92.1995 70.4787 92.2552 70.3615 92.3125 70.2407C92.5256 69.8406 92.7154 69.7906 93.131 69.6113C93.4134 69.4443 93.6938 69.2745 93.9735 69.103C94.7762 68.7184 95.6586 68.7598 96.5311 68.7517C96.6685 68.7504 96.8058 68.749 96.9473 68.7477C97.2376 68.7454 97.5278 68.7436 97.818 68.7423C98.1124 68.7405 98.4067 68.7371 98.701 68.7322C102.329 68.6724 102.329 68.6724 103.804 69.9805C104.817 71.0068 105.076 72.1532 105.099 73.5496C105.104 73.6924 105.109 73.8352 105.114 73.9823C105.126 74.3303 105.133 74.6784 105.14 75.0265C107.037 74.126 108.201 72.1242 108.893 70.2266C109.018 69.8589 109.138 69.4896 109.253 69.119C109.314 68.936 109.375 68.753 109.438 68.5645C109.606 67.8744 109.632 67.2513 109.623 66.5447C109.622 66.4148 109.621 66.2849 109.62 66.151C109.56 62.8592 108.307 60.1114 105.963 57.7962C103.782 55.7581 100.903 54.7271 97.9312 54.7656C94.4371 54.899 91.557 56.4296 89.2965 59.0583Z" fill="#010304"/>
<path d="M126.197 56.1519C126.6 56.5035 126.825 56.7934 126.916 57.3274C126.94 57.7807 126.943 58.2298 126.939 58.6838C126.94 58.9451 126.94 58.9451 126.942 59.2117C126.945 59.7965 126.942 60.3812 126.94 60.9659C126.941 61.3848 126.942 61.8037 126.944 62.2226C126.947 63.2432 126.946 64.2637 126.944 65.2842C126.943 66.1143 126.943 66.9444 126.943 67.7745C126.943 67.8927 126.944 68.0108 126.944 68.1326C126.944 68.3727 126.944 68.6129 126.944 68.853C126.946 71.1054 126.944 73.3578 126.94 75.6101C126.938 77.54 126.938 79.4699 126.941 81.3998C126.945 83.6424 126.946 85.885 126.944 88.1276C126.944 88.3672 126.944 88.6068 126.943 88.8464C126.943 89.0232 126.943 89.0232 126.943 89.2036C126.942 90.0314 126.943 90.8593 126.945 91.6871C126.947 92.8039 126.946 93.9206 126.942 95.0373C126.941 95.4464 126.941 95.8554 126.943 96.2645C126.959 101.285 126.959 101.285 125.046 103.248C123.595 104.593 122.03 104.988 120.089 104.974C119.894 104.975 119.699 104.976 119.498 104.977C118.962 104.98 118.425 104.979 117.889 104.977C117.309 104.976 116.728 104.979 116.148 104.981C115.013 104.985 113.878 104.985 112.743 104.983C111.82 104.982 110.897 104.982 109.974 104.983C109.842 104.984 109.711 104.984 109.575 104.984C109.308 104.984 109.04 104.984 108.773 104.985C106.268 104.988 103.763 104.986 101.257 104.983C98.9685 104.981 96.6795 104.983 94.3905 104.988C92.037 104.993 89.6834 104.995 87.3298 104.993C87.0633 104.993 86.7968 104.993 86.5303 104.993C86.3992 104.993 86.2681 104.992 86.133 104.992C85.2119 104.992 84.2908 104.994 83.3697 104.996C82.2459 104.999 81.1222 104.999 79.9984 104.995C79.4258 104.993 78.8531 104.993 78.2805 104.996C77.658 104.998 77.0358 104.996 76.4133 104.992C76.2346 104.994 76.0558 104.996 75.8716 104.998C74.0551 104.976 72.5432 104.364 71.234 103.1C69.4561 101.145 69.5286 98.8943 69.5336 96.3984C69.5329 96.0675 69.532 95.7366 69.531 95.4057C69.5295 94.7153 69.5299 94.0248 69.5316 93.3344C69.5335 92.4492 69.5301 91.5642 69.5253 90.6791C69.5223 89.9972 69.5223 89.3153 69.5233 88.6334C69.5233 88.3069 69.5223 87.9804 69.5203 87.6539C69.5178 87.1987 69.5196 86.7437 69.5224 86.2885C69.5208 86.1538 69.5192 86.0191 69.5176 85.8803C69.5252 85.2934 69.5539 84.9396 69.9031 84.4574C70.4318 84.098 70.7902 84.1238 71.4146 84.2128C71.7745 84.461 71.7745 84.461 72.0726 84.8692C72.1364 85.3439 72.1605 85.7564 72.1546 86.2308C72.1555 86.3678 72.1564 86.5047 72.1573 86.6459C72.1589 86.943 72.1589 87.2402 72.1576 87.5374C72.1555 88.0087 72.1574 88.4799 72.1602 88.9512C72.1646 89.7829 72.1655 90.6145 72.1653 91.4462C72.1649 92.7745 72.1673 94.1027 72.1744 95.4309C72.1761 95.8935 72.1746 96.356 72.173 96.8186C72.174 97.105 72.1752 97.3915 72.1764 97.678C72.1752 97.8051 72.1739 97.9323 72.1726 98.0633C72.1826 99.1567 72.4385 100.129 72.998 101.074C74.1501 102.163 75.2548 102.384 76.8038 102.368C76.994 102.369 77.1842 102.37 77.3802 102.372C77.9046 102.374 78.4288 102.373 78.9531 102.371C79.52 102.369 80.0869 102.372 80.6538 102.374C81.7629 102.378 82.872 102.377 83.9812 102.375C84.883 102.373 85.7848 102.373 86.6866 102.373C86.8151 102.374 86.9437 102.374 87.0761 102.374C87.3373 102.374 87.5984 102.374 87.8596 102.375C90.3064 102.377 92.7532 102.374 95.2 102.37C97.2975 102.366 99.3948 102.367 101.492 102.371C103.93 102.375 106.368 102.377 108.806 102.374C109.067 102.374 109.327 102.374 109.587 102.373C109.779 102.373 109.779 102.373 109.975 102.373C110.875 102.372 111.775 102.374 112.675 102.375C113.773 102.378 114.871 102.377 115.969 102.373C116.529 102.371 117.088 102.37 117.648 102.372C118.256 102.375 118.863 102.372 119.471 102.368C119.734 102.371 119.734 102.371 120.002 102.373C121.332 102.356 122.486 102.034 123.442 101.069C123.549 100.889 123.549 100.889 123.658 100.705C123.732 100.585 123.807 100.464 123.884 100.341C124.18 99.7054 124.244 99.0798 124.244 98.3854C124.244 98.2367 124.244 98.088 124.245 97.9348C124.244 97.7729 124.244 97.611 124.244 97.4442C124.244 97.2711 124.244 97.098 124.244 96.9196C124.245 96.3386 124.244 95.7576 124.244 95.1766C124.244 94.7604 124.244 94.3442 124.245 93.9281C124.245 93.1477 124.246 92.3672 124.246 91.5868C124.246 90.0539 124.248 88.5209 124.251 86.988C124.251 86.7466 124.251 86.5052 124.252 86.2638C124.253 85.8981 124.253 85.5323 124.254 85.1665C124.256 83.7881 124.259 82.4098 124.261 81.0314C124.261 80.9054 124.261 80.7795 124.261 80.6497C124.264 78.6064 124.264 76.5631 124.264 74.5198C124.264 72.4222 124.267 70.3245 124.273 68.2269C124.276 66.9328 124.277 65.6388 124.275 64.3447C124.273 63.3539 124.276 62.3631 124.28 61.3723C124.281 60.9653 124.281 60.5584 124.279 60.1514C124.277 59.5972 124.279 59.0432 124.284 58.489C124.282 58.3268 124.28 58.1645 124.278 57.9973C124.293 56.9126 124.293 56.9126 124.774 56.3808C125.311 56.099 125.6 56.0378 126.197 56.1519Z" fill="black"/>
<path d="M84.7712 83.5362C84.8904 83.5356 85.0096 83.535 85.1324 83.5344C85.532 83.5326 85.9316 83.5319 86.3311 83.5313C86.6176 83.5303 86.904 83.5292 87.1905 83.528C88.1313 83.5246 89.0721 83.5229 90.0129 83.5213C90.337 83.5206 90.661 83.5199 90.9851 83.5192C92.5075 83.5161 94.0299 83.5138 95.5524 83.5124C97.309 83.5108 99.0656 83.5065 100.822 83.4998C102.181 83.4949 103.539 83.4925 104.897 83.4919C105.708 83.4915 106.519 83.4901 107.33 83.4859C108.093 83.4821 108.857 83.4814 109.62 83.4831C109.899 83.4832 110.179 83.4822 110.459 83.4799C113.335 83.458 113.335 83.458 114.452 84.4511C115.183 85.1963 115.119 86.1671 115.124 87.1523C115.121 87.3161 115.121 87.3161 115.118 87.4833C115.114 87.8156 115.118 88.1469 115.124 88.4792C115.117 89.7246 115.08 90.6807 114.189 91.6012C112.921 92.4847 111.523 92.3514 110.041 92.3451C109.752 92.3463 109.464 92.3477 109.176 92.3494C108.396 92.3531 107.616 92.3526 106.836 92.3512C106.184 92.3503 105.532 92.3515 104.88 92.3527C103.341 92.3555 101.803 92.3549 100.264 92.3522C98.6783 92.3494 97.0927 92.352 95.507 92.3573C94.1438 92.3617 92.7806 92.3629 91.4174 92.3615C90.604 92.3607 89.7906 92.361 88.9772 92.3644C88.2123 92.3674 87.4476 92.3664 86.6827 92.3624C86.4026 92.3616 86.1225 92.3621 85.8424 92.3642C83.0809 92.3831 83.0809 92.3831 82.1086 91.4371C81.2688 90.4629 81.3491 89.3967 81.3647 88.1525C81.3683 87.8168 81.3648 87.4816 81.3606 87.1459C81.3614 86.9321 81.3623 86.7183 81.3631 86.4981C81.3643 86.2074 81.3643 86.2074 81.3654 85.9109C81.4961 85.0735 81.9065 84.5673 82.5199 84.0014C83.2501 83.5097 83.9003 83.5391 84.7712 83.5362Z" fill="#000102"/>
<path d="M94.4883 23.3133C94.6722 23.3128 94.8561 23.3123 95.0456 23.3117C95.3458 23.3122 95.3458 23.3122 95.6521 23.3127C95.8559 23.3126 96.0598 23.3124 96.2698 23.3122C96.7019 23.3121 97.1339 23.3124 97.566 23.3131C98.1209 23.3141 98.6758 23.3135 99.2307 23.3125C99.7583 23.3118 100.286 23.3123 100.814 23.3127C101.014 23.3124 101.214 23.3121 101.42 23.3117C101.696 23.3125 101.696 23.3125 101.977 23.3133C102.14 23.3134 102.303 23.3135 102.471 23.3137C102.839 23.3345 102.839 23.3345 103.004 23.4986C103.02 23.7286 103.025 23.9595 103.025 24.1901C103.025 24.3392 103.026 24.4883 103.026 24.6419C103.026 24.8068 103.025 24.9717 103.025 25.1415C103.025 25.3141 103.026 25.4868 103.026 25.6646C103.027 26.2383 103.026 26.812 103.026 27.3857C103.026 27.7824 103.026 28.1791 103.026 28.5759C103.026 29.4085 103.026 30.2412 103.025 31.0739C103.024 32.144 103.025 33.214 103.026 34.2841C103.026 35.1036 103.026 35.9232 103.026 36.7428C103.026 37.1374 103.026 37.5321 103.026 37.9268C103.027 38.4773 103.026 39.0278 103.025 39.5784C103.025 39.7432 103.026 39.9081 103.026 40.078C103.026 40.2271 103.025 40.3762 103.025 40.5298C103.025 40.6602 103.024 40.7905 103.024 40.9248C103.004 41.2213 103.004 41.2213 102.839 41.3854C102.552 41.4016 102.265 41.4064 101.977 41.4066C101.794 41.4071 101.61 41.4076 101.42 41.4082C101.22 41.4078 101.02 41.4075 100.814 41.4072C100.61 41.4073 100.406 41.4075 100.196 41.4076C99.7638 41.4078 99.3318 41.4075 98.8998 41.4068C98.3449 41.4058 97.79 41.4064 97.2351 41.4074C96.7074 41.4081 96.1797 41.4076 95.6521 41.4072C95.4519 41.4075 95.2518 41.4078 95.0456 41.4082C94.7697 41.4074 94.7697 41.4074 94.4883 41.4066C94.3255 41.4065 94.1627 41.4063 93.9949 41.4062C93.6265 41.3854 93.6265 41.3854 93.462 41.2213C93.4459 40.9912 93.4412 40.7604 93.4411 40.5298C93.4407 40.3807 93.4402 40.2316 93.4397 40.078C93.44 39.9131 93.4404 39.7482 93.4407 39.5784C93.4404 39.4057 93.4401 39.2331 93.4398 39.0553C93.4391 38.4816 93.4396 37.9079 93.4402 37.3342C93.44 36.9375 93.4399 36.5408 93.4397 36.144C93.4394 35.3113 93.4398 34.4787 93.4406 33.646C93.4415 32.5759 93.441 31.5059 93.44 30.4358C93.4394 29.6163 93.4396 28.7967 93.44 27.9771C93.4401 27.5825 93.44 27.1878 93.4396 26.7931C93.4392 26.2426 93.4398 25.6921 93.4407 25.1415C93.4404 24.9767 93.4401 24.8118 93.4397 24.6419C93.4404 24.4183 93.4404 24.4183 93.4411 24.1901C93.4412 24.0597 93.4412 23.9294 93.4413 23.7951C93.4858 23.1583 93.9539 23.3137 94.4883 23.3133Z" fill="#BFDBEE"/>
<path d="M76.192 31.6736C76.3226 31.6725 76.4533 31.6714 76.5879 31.6703C77.0182 31.6671 77.4485 31.6652 77.8788 31.6635C78.0997 31.6625 78.0997 31.6625 78.3251 31.6615C79.1034 31.6581 79.8818 31.6557 80.6602 31.6542C81.4644 31.6524 82.2685 31.6467 83.0726 31.6402C83.6912 31.6359 84.3098 31.6346 84.9284 31.634C85.2249 31.6332 85.5215 31.6313 85.818 31.6282C86.2323 31.6242 86.6464 31.6244 87.0607 31.6255C87.1832 31.6234 87.3057 31.6213 87.4319 31.6191C88.0049 31.6249 88.3043 31.6584 88.7613 32.0164C89.1699 32.5601 89.1699 32.5601 89.1833 33.0154C88.7994 33.9453 88.7994 33.9453 88.3607 34.1641C87.9528 34.1799 87.5493 34.186 87.1413 34.1848C87.0156 34.1851 86.8898 34.1854 86.7602 34.1857C86.4864 34.1864 86.2126 34.1867 85.9388 34.1868C85.3553 34.1873 84.7718 34.1908 84.1883 34.1942C83.1018 34.2004 82.0153 34.2056 80.9287 34.2052C80.1731 34.2051 79.4176 34.2089 78.662 34.2154C78.375 34.2171 78.088 34.2173 77.801 34.2161C75.372 34.2049 75.372 34.2049 73.2927 35.3796C72.2682 36.4945 72.1665 37.6242 72.1773 39.0604C72.1767 39.2378 72.1761 39.4152 72.1754 39.598C72.1739 40.1916 72.1759 40.7852 72.1778 41.3788C72.1774 41.8047 72.1768 42.2306 72.1759 42.6566C72.1744 43.5732 72.1746 44.4898 72.176 45.4064C72.1778 46.7324 72.1763 48.0584 72.1739 49.3844C72.17 51.5369 72.1678 53.6893 72.1671 55.8418C72.1671 56.0349 72.1671 56.0349 72.167 56.2319C72.1666 57.6691 72.1665 59.1063 72.1667 60.5435C72.1667 61.0651 72.1668 61.5868 72.1668 62.1084C72.1668 62.2372 72.1668 62.3659 72.1668 62.4985C72.1669 64.6437 72.1645 66.7888 72.1601 68.9339C72.1575 70.257 72.1571 71.58 72.1596 72.9031C72.1614 73.9158 72.1597 74.9285 72.1569 75.9413C72.1563 76.3572 72.1568 76.7732 72.1585 77.1892C72.1607 77.7556 72.1589 78.3218 72.156 78.8882C72.1585 79.137 72.1585 79.137 72.1609 79.3908C72.1494 80.4987 72.1494 80.4987 71.77 81.0286C71.2961 81.3389 70.9986 81.4361 70.4289 81.4245C69.9508 81.0939 69.6527 80.8261 69.5308 80.243C69.5007 79.7799 69.4983 79.3233 69.5041 78.8593C69.503 78.6815 69.502 78.5037 69.5009 78.3205C69.4984 77.7236 69.5017 77.1269 69.5051 76.53C69.5045 76.1025 69.5036 75.675 69.5023 75.2475C69.4999 74.2059 69.5019 73.1645 69.5055 72.123C69.5094 70.9094 69.5091 69.6958 69.5087 68.4822C69.5081 66.3157 69.5115 64.1493 69.5171 61.9829C69.5226 59.8826 69.5249 57.7822 69.5239 55.6819C69.5228 53.394 69.5232 51.1061 69.5264 48.8182C69.5266 48.697 69.5267 48.5759 69.5269 48.4511C69.5273 48.2078 69.5276 47.9645 69.528 47.7212C69.5291 46.8761 69.5292 46.0311 69.529 45.1861C69.5287 44.047 69.5312 42.9079 69.5354 41.7688C69.5366 41.3512 69.5369 40.9335 69.5364 40.5158C69.5358 39.9448 69.5382 39.3738 69.5414 38.8027C69.5405 38.6382 69.5397 38.4737 69.5388 38.3042C69.5579 36.3175 70.1795 34.7744 71.5188 33.3129C72.8369 32.0454 74.4159 31.68 76.192 31.6736Z" fill="black"/>
<path d="M83.9199 86.0195C93.3662 86.0195 102.813 86.0195 112.545 86.0195C112.545 87.2109 112.545 88.4022 112.545 89.6297C112.235 89.9388 111.7 89.8145 111.288 89.8146C111.172 89.8149 111.057 89.8152 110.937 89.8154C110.547 89.8161 110.157 89.8155 109.767 89.815C109.488 89.8153 109.21 89.8155 108.931 89.8159C108.173 89.8167 107.414 89.8164 106.655 89.8158C105.863 89.8154 105.071 89.8158 104.279 89.8161C102.949 89.8164 101.618 89.816 100.288 89.8152C98.7473 89.8143 97.2068 89.8146 95.6663 89.8155C94.3461 89.8162 93.026 89.8163 91.7058 89.8159C90.9163 89.8157 90.1267 89.8156 89.3371 89.8162C88.595 89.8166 87.8529 89.8163 87.1108 89.8154C86.8376 89.8151 86.5644 89.8152 86.2913 89.8156C85.9199 89.816 85.5487 89.8155 85.1773 89.8146C84.969 89.8146 84.7607 89.8145 84.5461 89.8145C84.0844 89.7938 84.0844 89.7938 83.9199 89.6297C83.9199 88.4383 83.9199 87.247 83.9199 86.0195Z" fill="#BFDBEE"/>
<path d="M109.557 31.6225C109.749 31.6212 109.749 31.6212 109.944 31.6199C110.364 31.6178 110.784 31.6205 111.204 31.6235C111.498 31.6234 111.792 31.6232 112.085 31.6227C112.701 31.6225 113.316 31.6246 113.932 31.6283C114.717 31.633 115.502 31.6325 116.288 31.6304C116.894 31.6293 117.501 31.6306 118.108 31.6326C118.397 31.6333 118.687 31.6334 118.976 31.6328C121.458 31.6298 123.358 31.8942 125.243 33.6125C126.583 34.9996 126.88 36.6349 126.886 38.4823C126.887 38.6347 126.888 38.7872 126.889 38.9443C126.892 39.4473 126.894 39.9503 126.896 40.4534C126.897 40.6254 126.897 40.7974 126.898 40.9747C126.902 41.8843 126.904 42.7939 126.905 43.7035C126.907 44.6432 126.913 45.5829 126.919 46.5226C126.924 47.2454 126.925 47.9681 126.926 48.6909C126.926 49.0374 126.928 49.3839 126.931 49.7304C126.935 50.2147 126.935 50.6989 126.934 51.1833C126.936 51.3263 126.938 51.4694 126.941 51.6168C126.935 52.2893 126.908 52.6271 126.544 53.2113C126.199 53.53 126.199 53.53 125.864 53.5915C125.699 53.5611 125.699 53.5611 125.53 53.53C125.365 53.5046 125.365 53.5046 125.196 53.4787C124.813 53.3406 124.648 53.1861 124.389 52.8736C124.342 52.3754 124.326 51.9109 124.331 51.4127C124.331 51.2632 124.33 51.1137 124.33 50.9597C124.329 50.6347 124.33 50.3096 124.332 49.9846C124.334 49.4692 124.333 48.9538 124.331 48.4384C124.326 46.9727 124.327 45.5071 124.33 44.0415C124.332 43.145 124.329 42.2486 124.325 41.3521C124.324 41.0113 124.325 40.6705 124.327 40.3298C124.394 37.6722 124.394 37.6722 123.176 35.3841C122.23 34.4938 121.026 34.2561 119.767 34.2699C119.641 34.2693 119.515 34.2687 119.385 34.268C119.115 34.267 118.844 34.267 118.573 34.2681C118.144 34.2696 117.716 34.2679 117.287 34.2653C116.069 34.2588 114.851 34.2586 113.632 34.2589C112.885 34.2589 112.138 34.2558 111.391 34.2508C110.969 34.2491 110.547 34.2511 110.125 34.2531C109.866 34.2517 109.608 34.25 109.349 34.2481C109.174 34.2505 109.174 34.2505 108.994 34.253C108.444 34.245 108.148 34.2003 107.701 33.8689C107.322 33.3395 107.342 32.9946 107.444 32.3613C108.085 31.6777 108.662 31.6106 109.557 31.6225Z" fill="black"/>
<path d="M100.7 57.9586C101.815 58.7519 102.694 59.7145 103.003 61.0764C103.191 62.6142 102.818 63.9246 101.939 65.2013C100.99 66.2701 99.5623 66.8431 98.1497 66.9327C96.787 66.86 95.546 66.1987 94.6127 65.2199C93.7433 64.1026 93.3367 62.9298 93.3987 61.5136C93.6178 59.9769 94.5735 58.8261 95.7745 57.897C97.3891 57.0061 99.0962 57.0541 100.7 57.9586Z" fill="#000203"/>
<path d="M96.5945 71.0316C96.7226 71.0305 96.8508 71.0294 96.9829 71.0283C97.2536 71.0266 97.5244 71.0258 97.7951 71.0259C98.2075 71.0252 98.6196 71.0192 99.0319 71.013C99.2956 71.012 99.5593 71.0114 99.823 71.0111C100.007 71.0075 100.007 71.0075 100.194 71.0039C101.213 71.0127 101.779 71.3416 102.484 72.05C102.737 72.5188 102.728 72.8665 102.721 73.3969C102.718 73.6825 102.718 73.6825 102.716 73.9738C102.712 74.1718 102.708 74.3698 102.703 74.5738C102.7 74.8746 102.7 74.8746 102.697 75.1815C102.691 75.6764 102.683 76.1712 102.672 76.666C99.9593 77.7182 96.8535 77.9838 94.1178 76.8301C94.0092 76.776 93.9006 76.7218 93.7887 76.666C93.7648 75.9755 93.7502 75.2851 93.7373 74.5943C93.7304 74.3991 93.7236 74.2038 93.7165 74.0026C93.6937 72.3792 93.6937 72.3792 94.1621 71.7905C94.9647 71.1194 95.5589 71.0346 96.5945 71.0316Z" fill="#BFDBEE"/>
<path d="M83.791 94.965C83.9425 94.9644 84.094 94.9638 84.2501 94.9631C84.7499 94.9619 85.2496 94.9654 85.7494 94.9691C86.097 94.9695 86.4446 94.9696 86.7923 94.9695C87.5204 94.9701 88.2485 94.9728 88.9766 94.9772C89.9102 94.9828 90.8438 94.984 91.7775 94.9838C92.4951 94.9839 93.2127 94.9857 93.9304 94.988C94.2747 94.9891 94.619 94.9897 94.9633 94.99C95.4441 94.9907 95.9249 94.9935 96.4058 94.9971C96.5482 94.9969 96.6907 94.9968 96.8375 94.9966C97.0343 94.9987 97.0343 94.9987 97.2351 95.0008C97.4055 95.0017 97.4055 95.0017 97.5793 95.0025C97.9704 95.0537 98.2261 95.1645 98.5601 95.3729C98.8891 95.8652 98.8891 95.8652 98.8583 96.4396C98.724 97.0166 98.6818 97.1615 98.2311 97.5062C97.9204 97.5686 97.9204 97.5686 97.5641 97.5698C97.4287 97.5715 97.2933 97.5731 97.1539 97.5748C96.9319 97.5736 96.9319 97.5736 96.7055 97.5725C96.4711 97.5742 96.4711 97.5742 96.232 97.5759C95.7144 97.5789 95.1969 97.5783 94.6793 97.5774C94.3201 97.5781 93.9609 97.579 93.6017 97.58C92.8484 97.5814 92.0952 97.581 91.3419 97.5794C90.3757 97.5775 89.4097 97.5808 88.4436 97.5856C87.7017 97.5886 86.9598 97.5886 86.2178 97.5877C85.8616 97.5876 85.5054 97.5886 85.1491 97.5907C84.6513 97.5931 84.1536 97.5914 83.6557 97.5885C83.5081 97.5901 83.3605 97.5917 83.2084 97.5933C82.2152 97.5815 82.2152 97.5815 81.689 97.2088C81.3352 96.6755 81.3503 96.3249 81.4508 95.7011C82.1491 94.9229 82.8129 94.9523 83.791 94.965Z" fill="#010405"/>
<path d="M93.6259 23.334C94.2774 23.334 94.9289 23.334 95.6001 23.334C95.6001 29.2908 95.6001 35.2475 95.6001 41.3848C94.9486 41.3848 94.2972 41.3848 93.6259 41.3848C93.3697 41.1292 93.4407 40.8848 93.4405 40.5293C93.4401 40.3802 93.4396 40.2311 93.4391 40.0774C93.4395 39.9126 93.4398 39.7477 93.4401 39.5778C93.4399 39.4052 93.4396 39.2326 93.4393 39.0547C93.4385 38.481 93.439 37.9074 93.4396 37.3337C93.4395 36.9369 93.4393 36.5402 93.4391 36.1435C93.4389 35.3108 93.4392 34.4781 93.44 33.6454C93.4409 32.5754 93.4404 31.5053 93.4394 30.4353C93.4388 29.6157 93.439 28.7962 93.4394 27.9766C93.4395 27.5819 93.4394 27.1873 93.439 26.7926C93.4386 26.242 93.4392 25.6915 93.4401 25.141C93.4398 24.9761 93.4395 24.8112 93.4391 24.6414C93.4398 24.4177 93.4398 24.4177 93.4405 24.1895C93.4406 24.0592 93.4407 23.9289 93.4407 23.7946C93.4614 23.4981 93.4614 23.4981 93.6259 23.334Z" fill="#0078CE" fill-opacity="0.2"/>
<path d="M98.7238 59.7658C99.6019 60.0921 100.115 60.571 100.533 61.4068C100.6 62.2672 100.511 62.8117 100.04 63.5401C99.435 64.0982 99.0058 64.3341 98.1789 64.4119C97.3259 64.3398 96.8457 64 96.287 63.3658C95.8877 62.7159 95.8636 62.1542 95.9271 61.4068C96.5357 60.2161 97.365 59.5964 98.7238 59.7658Z" fill="#D7E5EA"/>
<path d="M110.384 94.9443C110.709 94.9438 110.709 94.9438 111.04 94.9434C111.208 94.9464 111.208 94.9464 111.379 94.9496C111.72 94.9552 112.061 94.953 112.402 94.9498C114.052 94.9619 114.052 94.9619 114.665 95.3456C115.011 95.7039 115.011 95.7039 115.104 96.2783C114.995 96.9519 114.893 97.1053 114.353 97.509C113.806 97.5939 113.806 97.5939 113.16 97.5962C113.046 97.5968 112.932 97.5974 112.814 97.5981C112.573 97.5985 112.332 97.5973 112.09 97.5946C111.722 97.5911 111.354 97.5945 110.986 97.5987C110.751 97.5983 110.516 97.5975 110.281 97.5962C110.069 97.5954 109.856 97.5947 109.636 97.5939C109.003 97.4957 108.806 97.3618 108.431 96.8526C108.338 96.3706 108.338 96.3706 108.431 95.868C109.035 95.1084 109.421 94.9437 110.384 94.9443Z" fill="#010506"/>
<path d="M103.742 94.9432C103.865 94.94 103.988 94.9369 104.114 94.9336C104.801 94.9397 105.075 94.9961 105.639 95.4252C105.963 95.8663 105.963 95.8663 105.963 96.4611C105.801 97.0073 105.74 97.1723 105.305 97.5073C104.793 97.6134 104.275 97.5909 103.752 97.5893C103.611 97.594 103.47 97.5986 103.324 97.6034C102.287 97.6066 102.287 97.6066 101.758 97.1175C101.488 96.6262 101.398 96.414 101.521 95.8663C102.191 94.9942 102.709 94.9165 103.742 94.9432Z" fill="#020608"/>
<rect x="-0.600643" y="0.782816" width="1.39914" height="8.11622" rx="0.699569" transform="matrix(0.133196 0.99109 -0.991786 0.127908 142.385 33.0885)" stroke="#0078CE" stroke-width="1.39914"/>
<rect x="0.802845" y="0.616011" width="1.4273" height="7.90028" rx="0.713652" transform="matrix(0.991786 -0.127909 0.133195 0.99109 115.973 16.4754)" stroke="#0078CE" stroke-width="1.4273"/>
<rect x="0.129454" y="0.983503" width="1.41706" height="7.97969" rx="0.708529" transform="matrix(0.799359 0.600854 -0.616651 0.787237 133.41 19.0416)" stroke="#0078CE" stroke-width="1.41706"/>
</svg>
