<svg width="196" height="121" viewBox="0 0 196 121" fill="none" xmlns="http://www.w3.org/2000/svg">
<path d="M90.981 22.5683C92.6532 22.556 93.8544 22.5818 94.9331 23.3974C95.0089 23.4872 95.0857 23.5774 95.1636 23.6698L95.1694 23.6767L95.1753 23.6845C95.2586 23.779 95.3423 23.8731 95.4273 23.9696C95.8963 24.7022 96.0579 25.3743 96.0855 26.2685L96.0894 26.6728V26.6825L96.0903 27.1093C96.0907 27.4022 96.0904 27.6952 96.0884 27.9882L96.0913 29.3466C96.0939 31.7297 95.7247 33.6897 94.1724 35.3339C93.893 35.5861 93.6073 35.8341 93.314 36.0829L93.3091 36.0868C92.8356 36.4942 92.3766 36.9126 91.9273 37.3241C91.2989 37.8985 90.6647 38.4628 90.021 39.0165L90.0161 39.0224C89.5635 39.4187 89.1203 39.8228 88.6851 40.2206C88.1509 40.7088 87.6227 41.1884 87.0835 41.6522L87.0825 41.6513L87.0767 41.6571C86.9784 41.7433 86.88 41.8292 86.7788 41.9179C86.5193 42.1414 86.2536 42.3615 85.9819 42.5819L85.9732 42.5888C84.5056 43.8118 83.3195 45.3047 82.9097 47.3651L82.897 47.4276L82.8941 47.4901C82.8764 47.8453 82.8677 48.1989 82.8648 48.5487C82.8615 48.8606 82.8613 48.8614 82.8579 49.1796V49.1815C82.8571 49.2925 82.8568 49.4032 82.856 49.5175C82.8533 49.8642 82.8493 50.2115 82.8452 50.5595C82.8338 51.5511 82.8243 52.5426 82.8159 53.5341C82.8108 54.1395 82.804 54.7455 82.7964 55.3515V55.3534C82.7938 55.5848 82.7919 55.8163 82.7905 56.0478C82.7779 58.0925 82.6527 59.6186 81.4146 60.869C79.4048 62.4888 77.6124 63.5601 75.2739 63.412C74.5456 63.2639 73.9395 62.8865 73.4155 62.2958C72.7471 61.2304 72.5907 60.2313 72.5982 58.8319V57.6854C72.5987 56.9823 72.5946 56.2785 72.5913 55.58C72.5874 54.6939 72.5849 53.8094 72.5874 52.9257C72.5893 52.2017 72.5865 51.4783 72.5806 50.7558C72.5792 50.4883 72.5795 50.2211 72.5816 49.954V49.953C72.5988 47.5787 72.2187 45.2515 70.3921 43.2694C70.3176 43.187 70.2433 43.1043 70.1665 43.0194L70.1626 43.0165L69.7085 42.5292C69.2495 42.0483 68.7792 41.5839 68.3091 41.1298H68.3081C67.9201 40.7447 67.5625 40.3316 67.1773 39.8856L67.1675 39.8739C66.7433 39.4002 66.2879 38.9623 65.8667 38.5507C65.4854 38.1653 65.1306 37.755 64.7505 37.3153L64.7456 37.3085L64.7398 37.3026L64.4995 37.0429C64.4191 36.9581 64.3383 36.8748 64.2573 36.7929L63.77 36.3144C62.2185 34.7851 61.0722 33.1904 60.9126 31.2616L60.8941 30.871V30.495C60.8934 30.3611 60.8928 30.2267 60.8921 30.0888V29.2489L60.8843 27.9589C60.8774 26.1293 60.9325 24.8147 61.9028 23.6093C62.3195 23.2013 62.7058 22.9697 63.1099 22.831C63.5373 22.6842 64.0336 22.6247 64.6929 22.6249H64.6978L65.0669 22.6229C65.474 22.6212 65.8818 22.6206 66.2905 22.62C66.5836 22.619 66.8783 22.6172 67.1714 22.6161L67.1704 22.6151C68.1319 22.6118 69.0937 22.6119 70.0562 22.6103C70.3877 22.6096 70.7197 22.609 71.0513 22.6083C72.6091 22.6052 74.1673 22.6028 75.7251 22.6015C77.5229 22.5999 79.321 22.5953 81.1187 22.5888C82.5075 22.5839 83.8966 22.5815 85.2857 22.581C86.116 22.5806 86.9474 22.5792 87.7788 22.5751L87.7778 22.5741C88.5567 22.5704 89.3363 22.5705 90.1157 22.5722H90.1177C90.4056 22.5722 90.6938 22.5715 90.9819 22.5692L90.981 22.5683Z" fill="#ACD2EC" stroke="#111B22" stroke-width="1.71999"/>
<path d="M86.6596 27.6095L81.0696 23.3096H91.3895H92.6795C94.1044 23.3096 95.2595 24.4647 95.2595 25.8896V26.3196V31.4795C95.0959 32.9322 94.5081 33.8508 93.5395 34.9195L84.5096 43.0894C83.0822 44.6527 82.5339 45.6603 82.3596 47.8194C82.1993 51.8849 82.1153 54.1585 81.9296 58.1393C81.913 59.1732 81.6398 59.6022 81.0696 60.2893L80.2096 54.6994L79.3496 42.6594L85.7996 34.0595L86.6596 27.6095Z" fill="#0078CE" fill-opacity="0.2"/>
<path d="M109.287 25.102C115.368 25.0766 115.368 25.0762 118.092 26.1615C118.218 26.2099 118.345 26.2582 118.475 26.308C120.336 27.0457 121.949 28.0538 123.473 29.35C123.572 29.4269 123.67 29.5042 123.772 29.5834C127.022 32.1529 128.841 36.4175 129.4 40.3949C129.563 41.8216 129.517 43.2672 129.516 44.7006C129.516 45.0605 129.518 45.4207 129.519 45.7807C129.521 46.7527 129.52 47.7247 129.52 48.6967C129.519 49.5111 129.521 50.3256 129.521 51.14C129.523 53.1729 129.524 55.2058 129.522 57.2387C129.522 58.997 129.523 60.7557 129.526 62.5141C129.527 62.9893 129.527 63.4646 129.527 63.9398C128.379 63.7443 127.199 63.642 125.994 63.642C118.206 63.642 111.421 67.9003 107.871 74.1986C107.169 74.1974 106.466 74.1964 105.764 74.1957C104.257 74.1941 102.751 74.1895 101.244 74.183C100.079 74.1781 98.9143 74.1757 97.7492 74.1752C97.0536 74.1748 96.3579 74.1734 95.6623 74.1693C95.0075 74.1656 94.3523 74.1657 93.6975 74.1674C93.4579 74.1675 93.2183 74.1657 92.9787 74.1635C91.4653 74.1503 90.2695 74.1426 89.1945 75.3187C88.8381 76.0686 88.6128 76.807 88.8859 77.6205C89.3101 78.418 89.8654 78.9468 90.7238 79.2309C91.0626 79.247 91.4023 79.253 91.7414 79.2543C92.061 79.256 92.0611 79.2564 92.3869 79.2582C92.6237 79.2587 92.861 79.2588 93.0979 79.2592C93.3469 79.2602 93.5959 79.261 93.8449 79.2621C94.6632 79.2655 95.4818 79.2673 96.3 79.2689C96.5816 79.2696 96.8632 79.2702 97.1447 79.2709C98.4685 79.274 99.7926 79.2764 101.116 79.2777C102.644 79.2793 104.172 79.2839 105.699 79.2904C105.748 79.2906 105.797 79.2902 105.846 79.2904C105.452 80.8753 105.242 82.5322 105.242 84.2377C105.242 87.8016 106.155 91.1539 107.76 94.0775H102.641C100.798 94.0782 98.9546 94.0772 97.1115 94.0756C95.4447 94.0741 93.7773 94.0751 92.1106 94.0766C90.1691 94.0783 88.2277 94.0785 86.2863 94.0775C85.2607 94.077 84.2348 94.0774 83.2092 94.0785C82.2448 94.0794 81.2801 94.0784 80.3156 94.0766C79.9632 94.0761 79.6104 94.0758 79.258 94.0766C76.9621 94.0808 74.7239 94.0368 72.5061 93.3705C72.3921 93.3365 72.2778 93.3021 72.1604 93.267C67.7715 91.885 64.2601 88.8263 62.0285 84.8627C60.4635 81.7595 60.0339 78.6514 60.0363 75.2348C60.0354 74.9539 60.0337 74.6729 60.0324 74.392C60.0296 73.6361 60.0287 72.8803 60.0285 72.1244C60.0283 71.6515 60.0284 71.1784 60.0275 70.7055C60.0246 69.0539 60.0224 67.402 60.0227 65.7504C60.0229 64.2129 60.02 62.6755 60.0148 61.1381C60.0106 59.8147 60.0088 58.4908 60.009 57.1674C60.0091 56.3784 60.0085 55.5891 60.0051 54.8002C60.0019 54.0596 60.0017 53.3191 60.0041 52.5785C60.0044 52.307 60.0031 52.0355 60.0012 51.7641C59.9987 51.3932 60.0006 51.0226 60.0031 50.6518C60.003 50.4444 60.0023 50.2365 60.0022 50.0228C60.0974 49.3621 60.3137 49.0142 60.7316 48.4975C61.3157 48.1271 61.8228 48.1479 62.5012 48.2416C63.1035 48.4112 63.4608 48.8085 63.882 49.2504C63.9734 49.3419 64.0653 49.4335 64.1594 49.5277C64.3506 49.7203 64.5401 49.9146 64.7287 50.1098C65.0178 50.4088 65.3109 50.7039 65.6047 50.9984C65.7906 51.1866 65.9769 51.3753 66.1623 51.5639C66.293 51.6964 66.2935 51.6961 66.427 51.8314C67.0959 52.5255 67.2363 52.9597 67.2424 53.9037C67.2441 54.0885 67.2456 54.2738 67.2473 54.4643C67.2485 54.6643 67.25 54.8646 67.2512 55.0707C67.2546 55.3857 67.2574 55.701 67.2609 56.016C67.2695 56.7924 67.2767 57.5687 67.2814 58.3451C67.2842 58.7804 67.2888 59.2165 67.2941 59.6518C67.2991 60.0609 67.3018 60.4701 67.3029 60.8793C67.3347 63.1033 67.9837 64.8334 69.5266 66.4789C71.6348 68.4226 74.1836 69.1825 76.9992 69.1391C80.1171 69.0131 83.5266 66.72 85.7492 64.6684C88.0354 62.1574 88.472 59.1253 88.4826 55.8627C88.4843 55.6434 88.4865 55.4237 88.4885 55.2045C88.4969 54.2802 88.5045 53.3554 88.507 52.4311C88.5087 51.863 88.5139 51.295 88.5207 50.727C88.5237 50.4077 88.5231 50.0882 88.5227 49.7689C88.5403 48.4823 88.6302 47.8443 89.549 46.9262C89.6458 46.8474 89.7433 46.7691 89.843 46.6879C90.3912 46.2299 90.9247 45.76 91.4533 45.2797C92.0635 44.7273 92.6796 44.1825 93.3029 43.6449C93.7176 43.2825 94.1262 42.9138 94.5344 42.5443C95.047 42.0803 95.5609 41.6186 96.0842 41.1664C96.2969 40.9821 96.5101 40.798 96.7229 40.6137C96.8549 40.4996 96.9872 40.3855 97.1232 40.268C99.5446 38.1471 101.221 35.6214 101.748 32.4066C101.767 31.9684 101.778 31.5334 101.782 31.0951C101.787 30.8383 101.792 30.5814 101.797 30.3246C101.804 29.9225 101.809 29.5198 101.814 29.1176C101.818 28.7275 101.825 28.3376 101.833 27.9477C101.834 27.8285 101.835 27.7091 101.835 27.5863C101.853 26.8244 101.958 26.2794 102.397 25.6488C103.07 25.2479 103.573 25.1057 104.354 25.1039C104.641 25.1016 104.641 25.1013 104.934 25.099C105.139 25.1 105.344 25.1009 105.555 25.102C105.771 25.1016 105.988 25.1016 106.205 25.101C106.659 25.1003 107.114 25.1007 107.568 25.1029C108.141 25.1056 108.714 25.1048 109.287 25.102ZM98.8264 60.4799C97.5974 60.4923 97.0133 60.699 96.1857 61.6312C95.7147 62.2892 95.6695 62.8286 95.7502 63.6225C96.0515 64.4698 96.4964 64.8771 97.2092 65.393C97.6724 65.5462 97.962 65.5748 98.4426 65.5766C98.5959 65.5775 98.7495 65.5785 98.9074 65.5795C99.1595 65.5798 99.1601 65.5792 99.4172 65.5795C99.5943 65.5803 99.7718 65.5816 99.9543 65.5824C100.541 65.5848 101.129 65.5854 101.716 65.5863C102.124 65.5873 102.532 65.5883 102.94 65.5893C103.686 65.5907 104.432 65.5917 105.178 65.5922C106.275 65.5929 107.372 65.5953 108.469 65.6C109.42 65.6039 110.37 65.6056 111.321 65.6059C111.725 65.6063 112.13 65.6077 112.534 65.6098C113.1 65.6125 113.665 65.6118 114.23 65.6107C114.481 65.613 114.481 65.6134 114.736 65.6156C115.731 65.6099 116.493 65.5289 117.254 64.8236C117.955 63.9141 118.111 63.3173 117.96 62.1752C117.587 61.3137 117.048 60.9109 116.177 60.5658C115.575 60.4946 114.977 60.4978 114.371 60.5004C114.191 60.4993 114.01 60.4986 113.824 60.4975C113.229 60.4945 112.633 60.4946 112.038 60.4955C111.624 60.4948 111.209 60.4945 110.795 60.4936C109.927 60.4921 109.059 60.4919 108.191 60.4936C107.19 60.4954 106.188 60.493 105.187 60.4887C104.221 60.4847 103.255 60.4847 102.289 60.4857C101.879 60.4858 101.469 60.4848 101.059 60.4828C100.486 60.4804 99.913 60.482 99.34 60.4848C99.1707 60.4832 99.0008 60.4815 98.8264 60.4799Z" fill="#ACD2EC"/>
<mask id="mask0_56008_734392" style="mask-type:luminance" maskUnits="userSpaceOnUse" x="60" y="25" width="70" height="70">
<path d="M109.287 25.102C115.368 25.0766 115.368 25.0762 118.092 26.1615C118.218 26.2099 118.345 26.2582 118.475 26.308C120.336 27.0457 121.949 28.0538 123.473 29.35C123.572 29.4269 123.67 29.5042 123.772 29.5834C127.022 32.1529 128.841 36.4175 129.4 40.3949C129.563 41.8216 129.517 43.2672 129.516 44.7006C129.516 45.0605 129.518 45.4207 129.519 45.7807C129.521 46.7527 129.52 47.7247 129.52 48.6967C129.519 49.5111 129.521 50.3256 129.521 51.14C129.523 53.1729 129.524 55.2058 129.522 57.2387C129.522 58.997 129.523 60.7557 129.526 62.5141C129.527 62.9893 129.527 63.4646 129.527 63.9398C128.379 63.7443 127.199 63.642 125.994 63.642C118.206 63.642 111.421 67.9003 107.871 74.1986C107.169 74.1974 106.466 74.1964 105.764 74.1957C104.257 74.1941 102.751 74.1895 101.244 74.183C100.079 74.1781 98.9143 74.1757 97.7492 74.1752C97.0536 74.1748 96.3579 74.1734 95.6623 74.1693C95.0075 74.1656 94.3523 74.1657 93.6975 74.1674C93.4579 74.1675 93.2183 74.1657 92.9787 74.1635C91.4653 74.1503 90.2695 74.1426 89.1945 75.3187C88.8381 76.0686 88.6128 76.807 88.8859 77.6205C89.3101 78.418 89.8654 78.9468 90.7238 79.2309C91.0626 79.247 91.4023 79.253 91.7414 79.2543C92.061 79.256 92.0611 79.2564 92.3869 79.2582C92.6237 79.2587 92.861 79.2588 93.0979 79.2592C93.3469 79.2602 93.5959 79.261 93.8449 79.2621C94.6632 79.2655 95.4818 79.2673 96.3 79.2689C96.5816 79.2696 96.8632 79.2702 97.1447 79.2709C98.4685 79.274 99.7926 79.2764 101.116 79.2777C102.644 79.2793 104.172 79.2839 105.699 79.2904C105.748 79.2906 105.797 79.2902 105.846 79.2904C105.452 80.8753 105.242 82.5322 105.242 84.2377C105.242 87.8016 106.155 91.1539 107.76 94.0775H102.641C100.798 94.0782 98.9546 94.0772 97.1115 94.0756C95.4447 94.0741 93.7773 94.0751 92.1106 94.0766C90.1691 94.0783 88.2277 94.0785 86.2863 94.0775C85.2607 94.077 84.2348 94.0774 83.2092 94.0785C82.2448 94.0794 81.2801 94.0784 80.3156 94.0766C79.9632 94.0761 79.6104 94.0758 79.258 94.0766C76.9621 94.0808 74.7239 94.0368 72.5061 93.3705C72.3921 93.3365 72.2778 93.3021 72.1604 93.267C67.7715 91.885 64.2601 88.8263 62.0285 84.8627C60.4635 81.7595 60.0339 78.6514 60.0363 75.2348C60.0354 74.9539 60.0337 74.6729 60.0324 74.392C60.0296 73.6361 60.0287 72.8803 60.0285 72.1244C60.0283 71.6515 60.0284 71.1784 60.0275 70.7055C60.0246 69.0539 60.0224 67.402 60.0227 65.7504C60.0229 64.2129 60.02 62.6755 60.0148 61.1381C60.0106 59.8147 60.0088 58.4908 60.009 57.1674C60.0091 56.3784 60.0085 55.5891 60.0051 54.8002C60.0019 54.0596 60.0017 53.3191 60.0041 52.5785C60.0044 52.307 60.0031 52.0355 60.0012 51.7641C59.9987 51.3932 60.0006 51.0226 60.0031 50.6518C60.003 50.4444 60.0023 50.2365 60.0022 50.0228C60.0974 49.3621 60.3137 49.0142 60.7316 48.4975C61.3157 48.1271 61.8228 48.1479 62.5012 48.2416C63.1035 48.4112 63.4608 48.8085 63.882 49.2504C63.9734 49.3419 64.0653 49.4335 64.1594 49.5277C64.3506 49.7203 64.5401 49.9146 64.7287 50.1098C65.0178 50.4088 65.3109 50.7039 65.6047 50.9984C65.7906 51.1866 65.9769 51.3753 66.1623 51.5639C66.293 51.6964 66.2935 51.6961 66.427 51.8314C67.0959 52.5255 67.2363 52.9597 67.2424 53.9037C67.2441 54.0885 67.2456 54.2738 67.2473 54.4643C67.2485 54.6643 67.25 54.8646 67.2512 55.0707C67.2546 55.3857 67.2574 55.701 67.2609 56.016C67.2695 56.7924 67.2767 57.5687 67.2814 58.3451C67.2842 58.7804 67.2888 59.2165 67.2941 59.6518C67.2991 60.0609 67.3018 60.4701 67.3029 60.8793C67.3347 63.1033 67.9837 64.8334 69.5266 66.4789C71.6348 68.4226 74.1836 69.1825 76.9992 69.1391C80.1171 69.0131 83.5266 66.72 85.7492 64.6684C88.0354 62.1574 88.472 59.1253 88.4826 55.8627C88.4843 55.6434 88.4865 55.4237 88.4885 55.2045C88.4969 54.2802 88.5045 53.3554 88.507 52.4311C88.5087 51.863 88.5139 51.295 88.5207 50.727C88.5237 50.4077 88.5231 50.0882 88.5227 49.7689C88.5403 48.4823 88.6302 47.8443 89.549 46.9262C89.6458 46.8474 89.7433 46.7691 89.843 46.6879C90.3912 46.2299 90.9247 45.76 91.4533 45.2797C92.0635 44.7273 92.6796 44.1825 93.3029 43.6449C93.7176 43.2825 94.1262 42.9138 94.5344 42.5443C95.047 42.0803 95.5609 41.6186 96.0842 41.1664C96.2969 40.9821 96.5101 40.798 96.7229 40.6137C96.8549 40.4996 96.9872 40.3855 97.1232 40.268C99.5446 38.1471 101.221 35.6214 101.748 32.4066C101.767 31.9684 101.778 31.5334 101.782 31.0951C101.787 30.8383 101.792 30.5814 101.797 30.3246C101.804 29.9225 101.809 29.5198 101.814 29.1176C101.818 28.7275 101.825 28.3376 101.833 27.9477C101.834 27.8285 101.835 27.7091 101.835 27.5863C101.853 26.8244 101.958 26.2794 102.397 25.6488C103.07 25.2479 103.573 25.1057 104.354 25.1039C104.641 25.1016 104.641 25.1013 104.934 25.099C105.139 25.1 105.344 25.1009 105.555 25.102C105.771 25.1016 105.988 25.1016 106.205 25.101C106.659 25.1003 107.114 25.1007 107.568 25.1029C108.141 25.1056 108.714 25.1048 109.287 25.102ZM98.8264 60.4799C97.5974 60.4923 97.0133 60.699 96.1857 61.6312C95.7147 62.2892 95.6695 62.8286 95.7502 63.6225C96.0515 64.4698 96.4964 64.8771 97.2092 65.393C97.6724 65.5462 97.962 65.5748 98.4426 65.5766C98.5959 65.5775 98.7495 65.5785 98.9074 65.5795C99.1595 65.5798 99.1601 65.5792 99.4172 65.5795C99.5943 65.5803 99.7718 65.5816 99.9543 65.5824C100.541 65.5848 101.129 65.5854 101.716 65.5863C102.124 65.5873 102.532 65.5883 102.94 65.5893C103.686 65.5907 104.432 65.5917 105.178 65.5922C106.275 65.5929 107.372 65.5953 108.469 65.6C109.42 65.6039 110.37 65.6056 111.321 65.6059C111.725 65.6063 112.13 65.6077 112.534 65.6098C113.1 65.6125 113.665 65.6118 114.23 65.6107C114.481 65.613 114.481 65.6134 114.736 65.6156C115.731 65.6099 116.493 65.5289 117.254 64.8236C117.955 63.9141 118.111 63.3173 117.96 62.1752C117.587 61.3137 117.048 60.9109 116.177 60.5658C115.575 60.4946 114.977 60.4978 114.371 60.5004C114.191 60.4993 114.01 60.4986 113.824 60.4975C113.229 60.4945 112.633 60.4946 112.038 60.4955C111.624 60.4948 111.209 60.4945 110.795 60.4936C109.927 60.4921 109.059 60.4919 108.191 60.4936C107.19 60.4954 106.188 60.493 105.187 60.4887C104.221 60.4847 103.255 60.4847 102.289 60.4857C101.879 60.4858 101.469 60.4848 101.059 60.4828C100.486 60.4804 99.913 60.482 99.34 60.4848C99.1707 60.4832 99.0008 60.4815 98.8264 60.4799Z" fill="white"/>
</mask>
<g mask="url(#mask0_56008_734392)">
<path d="M118.092 26.1611L117.455 27.7589L117.466 27.7631L117.476 27.7672L118.092 26.1611ZM118.475 26.3076L119.108 24.7086L119.099 24.705L119.09 24.7016L118.475 26.3076ZM123.473 29.3496L122.358 30.6595L122.387 30.6844L122.417 30.7079L123.473 29.3496ZM123.772 29.583L124.839 28.2339L124.834 28.2293L124.828 28.2247L123.772 29.583ZM129.4 40.3945L131.109 40.2003L131.107 40.1776L131.104 40.155L129.4 40.3945ZM129.516 44.7002L127.796 44.6979V44.7036L129.516 44.7002ZM129.527 63.9394L129.239 65.635L131.25 65.9775L131.247 63.9374L129.527 63.9394ZM107.871 74.1982L107.868 75.9182L108.875 75.92L109.37 75.0427L107.871 74.1982ZM93.6978 74.167L93.6983 75.887H93.7021L93.6978 74.167ZM89.1948 75.3183L87.9252 74.158L87.7517 74.3478L87.6414 74.58L89.1948 75.3183ZM88.8862 77.6201L87.2557 78.1676L87.301 78.3023L87.3677 78.4278L88.8862 77.6201ZM90.7241 79.2305L90.1838 80.8634L90.4073 80.9373L90.6424 80.9485L90.7241 79.2305ZM91.7417 79.2539L91.751 77.5339H91.7481L91.7417 79.2539ZM92.3872 79.2578L92.3779 80.9778H92.3839L92.3872 79.2578ZM93.0982 79.2588L93.1051 77.5388H93.1012L93.0982 79.2588ZM105.846 79.29L107.515 79.7047L108.043 77.5787L105.852 77.5701L105.846 79.29ZM107.76 94.077V95.7971H110.666L109.267 93.2494L107.76 94.077ZM80.3159 94.0761L80.3192 92.3561H80.318L80.3159 94.0761ZM72.5064 93.37L73.0012 91.7227L72.9986 91.7221L72.5064 93.37ZM72.1607 93.2665L71.6441 94.9072L71.6562 94.9109L71.6684 94.9146L72.1607 93.2665ZM62.0288 84.8623L60.4931 85.6368L60.5108 85.6719L60.53 85.7061L62.0288 84.8623ZM60.0366 75.2344L61.7566 75.2356V75.2284L60.0366 75.2344ZM60.0327 74.3916L58.3127 74.398L58.3128 74.3991L60.0327 74.3916ZM60.0044 52.5781L61.7244 52.5836V52.5803L60.0044 52.5781ZM60.0034 50.6514L61.7234 50.6629V50.6499L60.0034 50.6514ZM60.0025 50.0224L58.3001 49.777L58.2824 49.8998L58.2825 50.0239L60.0025 50.0224ZM60.7319 48.4971L59.8109 47.0444L59.5723 47.1958L59.3946 47.4155L60.7319 48.4971ZM62.5015 48.2412L62.9678 46.5856L62.8539 46.5536L62.7368 46.5374L62.5015 48.2412ZM63.8823 49.25L62.6374 50.4368L62.6511 50.4512L62.6652 50.4652L63.8823 49.25ZM64.1597 49.5273L65.38 48.3153L65.3769 48.3121L64.1597 49.5273ZM65.605 50.998L66.8285 49.7891L66.8226 49.7832L65.605 50.998ZM66.1626 51.5635L64.9362 52.7694L64.938 52.7712L66.1626 51.5635ZM66.4273 51.831L67.6657 50.6374L67.6588 50.6303L67.6519 50.6233L66.4273 51.831ZM67.2427 53.9033L65.5227 53.9145L65.5228 53.9188L67.2427 53.9033ZM67.2476 54.4639L68.9675 54.4537V54.4484L67.2476 54.4639ZM67.2515 55.0703L65.5315 55.0805L65.5316 55.0888L67.2515 55.0703ZM67.3032 60.8789L65.5833 60.8835V60.8935L65.5834 60.9034L67.3032 60.8789ZM69.5269 66.4785L68.2722 67.655L68.315 67.7006L68.361 67.7431L69.5269 66.4785ZM76.9995 69.1387L77.0261 70.8584L77.0475 70.8581L77.069 70.8572L76.9995 69.1387ZM85.7495 64.668L86.9162 65.9318L86.9711 65.8811L87.0213 65.8259L85.7495 64.668ZM88.4829 55.8623L86.763 55.849L86.7629 55.8567L88.4829 55.8623ZM88.521 50.7266L90.2409 50.7471V50.7424L88.521 50.7266ZM88.523 49.7685L86.8031 49.745L86.803 49.758V49.7711L88.523 49.7685ZM89.5493 46.9258L88.463 45.5922L88.3954 45.6474L88.3336 45.7091L89.5493 46.9258ZM89.8433 46.6875L90.9296 48.021L90.9378 48.0143L90.946 48.0075L89.8433 46.6875ZM91.4536 45.2793L90.2993 44.0042L90.297 44.0062L91.4536 45.2793ZM93.3032 43.6445L94.4265 44.9471L94.4351 44.9396L93.3032 43.6445ZM96.0845 41.166L97.2091 42.4674L97.2108 42.4659L96.0845 41.166ZM96.7232 40.6133L95.5989 39.3116L95.5968 39.3134L96.7232 40.6133ZM97.1235 40.2676L98.2479 41.5693L98.2568 41.5614L97.1235 40.2676ZM101.748 32.4062L103.446 32.6845L103.463 32.5821L103.467 32.4785L101.748 32.4062ZM101.783 31.0947L100.063 31.0643L100.063 31.0777L101.783 31.0947ZM101.797 30.3242L103.517 30.3559V30.3528L101.797 30.3242ZM101.814 29.1172L100.094 29.0974V29.0989L101.814 29.1172ZM101.833 27.9473L103.553 27.9819L103.553 27.9684L103.553 27.9549L101.833 27.9473ZM101.835 27.5859L100.116 27.5452L100.116 27.5617L100.115 27.5783L101.835 27.5859ZM102.397 25.6484L101.516 24.1709L101.198 24.3609L100.985 24.6655L102.397 25.6484ZM104.354 25.1035L104.358 26.8235L104.368 26.8234L104.354 25.1035ZM104.934 25.0986L104.942 23.3787L104.931 23.3786L104.92 23.3787L104.934 25.0986ZM105.555 25.1016L105.546 26.8216L105.557 26.8215L105.555 25.1016ZM106.205 25.1006L106.202 23.3806H106.2L106.205 25.1006ZM98.8267 60.4795L98.8425 58.7596L98.8259 58.7594L98.8093 58.7596L98.8267 60.4795ZM96.186 61.6308L94.8997 60.489L94.8399 60.5564L94.7875 60.6296L96.186 61.6308ZM95.7505 63.6221L94.0393 63.796L94.0603 64.0026L94.1299 64.1983L95.7505 63.6221ZM97.2095 65.3926L96.2011 66.7859L96.4167 66.942L96.6693 67.0255L97.2095 65.3926ZM98.4429 65.5762L98.4532 63.8562H98.4491L98.4429 65.5762ZM98.9077 65.5791L98.8974 67.2991H98.9059L98.9077 65.5791ZM99.4175 65.5791L99.4252 63.8591H99.4193L99.4175 65.5791ZM101.716 65.5859L101.72 63.8659H101.719L101.716 65.5859ZM114.23 65.6103L114.246 63.8904L114.237 63.8903L114.227 63.8904L114.23 65.6103ZM114.736 65.6152L114.721 67.3351L114.734 67.3353L114.746 67.3352L114.736 65.6152ZM117.254 64.8232L118.423 66.0849L118.528 65.9871L118.616 65.873L117.254 64.8232ZM117.96 62.1748L119.665 61.9486L119.634 61.7112L119.538 61.4915L117.96 62.1748ZM116.177 60.5654L116.81 58.9663L116.602 58.8837L116.379 58.8574L116.177 60.5654ZM114.371 60.5L114.361 62.2199L114.37 62.22H114.378L114.371 60.5ZM113.824 60.4971L113.835 58.7771H113.833L113.824 60.4971ZM112.038 60.4951L112.035 62.2151H112.041L112.038 60.4951ZM110.795 60.4932L110.799 58.7732H110.798L110.795 60.4932ZM102.29 60.4853L102.29 62.2053H102.291L102.29 60.4853ZM101.059 60.4824L101.067 58.7624H101.066L101.059 60.4824ZM99.3403 60.4844L99.3245 62.2043L99.3366 62.2044L99.3486 62.2043L99.3403 60.4844ZM109.287 25.1016L109.294 26.8215C112.396 26.8086 113.777 26.8063 114.743 26.9225C115.591 27.0246 116.077 27.2098 117.455 27.7589L118.092 26.1611L118.728 24.5633C117.383 24.0271 116.507 23.6699 115.154 23.5072C113.918 23.3586 112.259 23.3692 109.28 23.3816L109.287 25.1016ZM118.092 26.1611L117.476 27.7672C117.54 27.7916 117.604 27.8161 117.668 27.8404C117.731 27.8648 117.795 27.8891 117.859 27.9136L118.475 26.3076L119.09 24.7016C119.024 24.6764 118.96 24.6515 118.896 24.6272C118.832 24.6028 118.77 24.5789 118.707 24.5551L118.092 26.1611ZM118.475 26.3076L117.841 27.9067C119.51 28.5678 120.963 29.4723 122.358 30.6595L123.473 29.3496L124.587 28.0397C122.936 26.6346 121.163 25.5227 119.108 24.7086L118.475 26.3076ZM123.473 29.3496L122.417 30.7079C122.466 30.7454 122.514 30.7831 122.564 30.8221C122.614 30.8608 122.665 30.9007 122.717 30.9413L123.772 29.583L124.828 28.2247C124.778 28.186 124.729 28.1477 124.679 28.1088C124.629 28.0701 124.579 28.0307 124.528 27.9913L123.473 29.3496ZM123.772 29.583L122.706 30.9321C125.497 33.1399 127.176 36.9316 127.697 40.634L129.4 40.3945L131.104 40.155C130.506 35.9026 128.546 31.1652 124.839 28.2339L123.772 29.583ZM129.4 40.3945L127.691 40.5888C127.839 41.8885 127.798 43.1914 127.796 44.6979L129.516 44.7002L131.236 44.7024C131.237 43.3421 131.286 41.7539 131.109 40.2003L129.4 40.3945ZM129.516 44.7002L127.796 44.7036C127.796 45.0641 127.798 45.427 127.799 45.7849L129.519 45.7803L131.239 45.7764C131.238 45.4144 131.236 45.0561 131.236 44.6968L129.516 44.7002ZM129.519 45.7803L127.799 45.7849C127.801 46.7541 127.8 47.7225 127.8 48.6955L129.52 48.6963L131.24 48.697C131.24 47.726 131.241 46.7513 131.239 45.7764L129.519 45.7803ZM129.52 48.6963L127.8 48.6955C127.799 49.5113 127.801 50.3285 127.801 51.1413L129.521 51.1396L131.241 51.138C131.241 50.3219 131.239 49.5101 131.24 48.697L129.52 48.6963ZM129.521 51.1396L127.801 51.1413C127.803 53.1732 127.804 55.2052 127.802 57.2374L129.522 57.2383L131.242 57.2392C131.243 55.2056 131.243 53.1719 131.241 51.138L129.521 51.1396ZM129.522 57.2383L127.802 57.2374C127.802 58.9973 127.803 60.7574 127.806 62.5167L129.526 62.5137L131.246 62.5107C131.243 60.7533 131.242 58.9959 131.242 57.2392L129.522 57.2383ZM129.526 62.5137L127.806 62.5167C127.807 62.9948 127.807 63.458 127.807 63.9415L129.527 63.9394L131.247 63.9374C131.247 63.4704 131.247 62.9831 131.246 62.5107L129.526 62.5137ZM129.527 63.9394L129.816 62.2439C128.573 62.0322 127.296 61.9216 125.994 61.9216V63.6416V65.3616C127.101 65.3616 128.185 65.4556 129.239 65.635L129.527 63.9394ZM125.994 63.6416V61.9216C117.565 61.9216 110.217 66.5326 106.373 73.3538L107.871 74.1982L109.37 75.0427C112.624 69.2672 118.848 65.3616 125.994 65.3616V63.6416ZM107.871 74.1982L107.874 72.4782C107.171 72.477 106.468 72.476 105.765 72.4753L105.764 74.1953L105.762 75.9153C106.464 75.916 107.166 75.917 107.868 75.9182L107.871 74.1982ZM105.764 74.1953L105.765 72.4753C104.262 72.4737 102.757 72.4691 101.252 72.4626L101.245 74.1826L101.237 75.9026C102.745 75.9091 104.254 75.9137 105.762 75.9153L105.764 74.1953ZM101.245 74.1826L101.252 72.4626C100.085 72.4578 98.9172 72.4553 97.7503 72.4548L97.7495 74.1748L97.7486 75.8948C98.9118 75.8953 100.074 75.8977 101.237 75.9026L101.245 74.1826ZM97.7495 74.1748L97.7503 72.4548C97.0563 72.4544 96.364 72.453 95.6726 72.449L95.6626 74.1689L95.6526 75.8889C96.3524 75.893 97.0514 75.8944 97.7486 75.8948L97.7495 74.1748ZM95.6626 74.1689L95.6726 72.449C95.0111 72.4452 94.3507 72.4453 93.6934 72.447L93.6978 74.167L93.7021 75.887C94.3546 75.8853 95.0043 75.8852 95.6526 75.8889L95.6626 74.1689ZM93.6978 74.167L93.6972 72.447C93.466 72.4471 93.2329 72.4454 92.9949 72.4432L92.979 74.1631L92.9631 75.883C93.2043 75.8852 93.4504 75.8871 93.6983 75.887L93.6978 74.167ZM92.979 74.1631L92.9949 72.4432C91.5488 72.4305 89.5757 72.3522 87.9252 74.158L89.1948 75.3183L90.4645 76.4787C90.7539 76.162 91.0074 76.0402 91.3087 75.9708C91.6961 75.8815 92.1584 75.876 92.9631 75.883L92.979 74.1631ZM89.1948 75.3183L87.6414 74.58C87.2316 75.4423 86.7638 76.7026 87.2557 78.1676L88.8862 77.6201L90.5168 77.0726C90.4623 76.9105 90.4453 76.6942 90.7483 76.0567L89.1948 75.3183ZM88.8862 77.6201L87.3677 78.4278C87.9653 79.5513 88.8405 80.4188 90.1838 80.8634L90.7241 79.2305L91.2645 77.5976C90.8908 77.4739 90.6556 77.284 90.4048 76.8124L88.8862 77.6201ZM90.7241 79.2305L90.6424 80.9485C91.0144 80.9662 91.3807 80.9726 91.7353 80.9739L91.7417 79.2539L91.7481 77.5339C91.4244 77.5327 91.1114 77.5269 90.8058 77.5124L90.7241 79.2305ZM91.7417 79.2539L91.7324 80.9739C91.8912 80.9747 91.9703 80.9752 92.0506 80.9758C92.1318 80.9763 92.214 80.9769 92.3779 80.9778L92.3872 79.2578L92.3965 77.5378C92.2346 77.537 92.1539 77.5364 92.0737 77.5359C91.9926 77.5353 91.9118 77.5348 91.751 77.5339L91.7417 79.2539ZM92.3872 79.2578L92.3839 80.9778C92.6155 80.9782 92.8668 80.9784 93.0951 80.9788L93.0982 79.2588L93.1012 77.5388C92.8559 77.5384 92.6326 77.5383 92.3905 77.5378L92.3872 79.2578ZM93.0982 79.2588L93.0912 80.9788C93.3426 80.9798 93.5885 80.9806 93.8374 80.9817L93.8452 79.2617L93.853 77.5417C93.6039 77.5406 93.3517 77.5398 93.1051 77.5388L93.0982 79.2588ZM93.8452 79.2617L93.8374 80.9817C94.6576 80.9851 95.4785 80.9869 96.2969 80.9885L96.3003 79.2685L96.3043 77.5486C95.4862 77.547 94.6693 77.5451 93.853 77.5417L93.8452 79.2617ZM96.3003 79.2685L96.2969 80.9885C96.5787 80.9892 96.8594 80.9898 97.1409 80.9905L97.145 79.2705L97.1491 77.5505C96.8675 77.5498 96.5857 77.5492 96.3043 77.5486L96.3003 79.2685ZM97.145 79.2705L97.1409 80.9905C98.4653 80.9935 99.7902 80.996 101.115 80.9973L101.117 79.2773L101.118 77.5573C99.7956 77.556 98.4724 77.5536 97.1491 77.5505L97.145 79.2705ZM101.117 79.2773L101.115 80.9973C102.64 80.9989 104.166 81.0035 105.692 81.01L105.699 79.29L105.707 77.5701C104.178 77.5635 102.648 77.5589 101.118 77.5573L101.117 79.2773ZM105.699 79.29L105.692 81.01C105.723 81.0101 105.752 81.0101 105.776 81.01C105.801 81.01 105.821 81.0099 105.839 81.01L105.846 79.29L105.852 77.5701C105.822 77.5699 105.792 77.57 105.769 77.57C105.744 77.5701 105.726 77.5701 105.707 77.5701L105.699 79.29ZM105.846 79.29L104.177 78.8753C103.75 80.5941 103.523 82.3902 103.523 84.2373H105.242H106.962C106.962 82.6733 107.154 81.1557 107.515 79.7047L105.846 79.29ZM105.242 84.2373H103.523C103.523 88.0984 104.512 91.7344 106.252 94.9047L107.76 94.077L109.267 93.2494C107.798 90.5724 106.962 87.5039 106.962 84.2373H105.242ZM107.76 94.077V92.357H102.641V94.077V95.7971H107.76V94.077ZM102.641 94.077V92.357C100.799 92.3577 98.956 92.3567 97.1134 92.3551L97.1118 94.0751L97.1103 95.7952C98.9538 95.7968 100.797 95.7977 102.641 95.7971V94.077ZM97.1118 94.0751L97.1134 92.3551C95.4451 92.3537 93.7764 92.3546 92.1093 92.3561L92.1109 94.0761L92.1124 95.7961C93.7789 95.7947 95.4451 95.7937 97.1103 95.7952L97.1118 94.0751ZM92.1109 94.0761L92.1093 92.3561C90.1688 92.3578 88.2282 92.358 86.2875 92.357L86.2866 94.077L86.2858 95.7971C88.2279 95.7981 90.1701 95.7979 92.1124 95.7961L92.1109 94.0761ZM86.2866 94.077L86.2875 92.357C85.2609 92.3565 84.234 92.357 83.2077 92.358L83.2095 94.078L83.2112 95.798C84.236 95.7969 85.2612 95.7966 86.2858 95.7971L86.2866 94.077ZM83.2095 94.078L83.2077 92.358C82.2456 92.359 81.2828 92.3579 80.3192 92.3561L80.3159 94.0761L80.3126 95.7961C81.278 95.798 82.2445 95.7989 83.2112 95.798L83.2095 94.078ZM80.3159 94.0761L80.318 92.3561C79.9654 92.3556 79.6102 92.3554 79.2548 92.3561L79.2583 94.0761L79.2615 95.7961C79.6109 95.7954 79.9616 95.7957 80.3139 95.7961L80.3159 94.0761ZM79.2583 94.0761L79.2548 92.3561C76.9545 92.3603 74.9491 92.3079 73.0012 91.7227L72.5064 93.37L72.0115 95.0173C74.4993 95.7646 76.9698 95.8004 79.2615 95.7961L79.2583 94.0761ZM72.5064 93.37L72.9986 91.7221C72.9426 91.7053 72.8864 91.6885 72.8287 91.6712C72.7714 91.654 72.7126 91.6364 72.6529 91.6186L72.1607 93.2665L71.6684 94.9146C71.7261 94.9319 71.7833 94.9489 71.8409 94.9662C71.8982 94.9834 71.9561 95.0008 72.0141 95.0181L72.5064 93.37ZM72.1607 93.2665L72.6773 91.626C68.7447 90.3877 65.5661 87.6393 63.5276 84.0185L62.0288 84.8623L60.53 85.7061C62.9546 90.0126 66.7988 93.3814 71.6441 94.9072L72.1607 93.2665ZM62.0288 84.8623L63.5646 84.0878C62.1643 81.3114 61.7543 78.4996 61.7566 75.2356L60.0366 75.2344L58.3166 75.2332C58.3141 78.8023 58.7632 82.2068 60.4931 85.6368L62.0288 84.8623ZM60.0366 75.2344L61.7566 75.2284C61.7556 74.9475 61.7539 74.66 61.7527 74.3841L60.0327 74.3916L58.3128 74.3991C58.314 74.685 58.3157 74.9594 58.3167 75.2403L60.0366 75.2344ZM60.0327 74.3916L61.7527 74.3841C61.7499 73.6311 61.749 72.8785 61.7488 72.1235L60.0288 72.124L58.3088 72.1245C58.309 72.8812 58.3099 73.6393 58.3127 74.398L60.0327 74.3916ZM60.0288 72.124L61.7488 72.1235C61.7486 71.6522 61.7487 71.1764 61.7478 70.702L60.0278 70.7051L58.3079 70.7082C58.3087 71.1796 58.3086 71.6498 58.3088 72.1245L60.0288 72.124ZM60.0278 70.7051L61.7478 70.702C61.7448 69.0509 61.7427 67.4003 61.7429 65.7503L60.023 65.75L58.303 65.7497C58.3027 67.4029 58.3049 69.0561 58.3079 70.7082L60.0278 70.7051ZM60.023 65.75L61.7429 65.7503C61.7431 64.2106 61.7402 62.671 61.7351 61.132L60.0151 61.1377L58.2952 61.1432C58.3003 62.679 58.3032 64.2145 58.303 65.7497L60.023 65.75ZM60.0151 61.1377L61.7351 61.132C61.7309 59.8107 61.7291 58.4889 61.7293 57.1673L60.0093 57.167L58.2893 57.1667C58.2891 58.4919 58.2909 59.8177 58.2952 61.1432L60.0151 61.1377ZM60.0093 57.167L61.7293 57.1673C61.7294 56.3776 61.7288 55.5852 61.7254 54.7923L60.0054 54.7998L58.2854 54.8071C58.2888 55.5921 58.2894 56.3784 58.2893 57.1667L60.0093 57.167ZM60.0054 54.7998L61.7254 54.7923C61.7222 54.0563 61.722 53.3202 61.7244 52.5836L60.0044 52.5781L58.2844 52.5726C58.2821 53.3172 58.2823 54.062 58.2854 54.8071L60.0054 54.7998ZM60.0044 52.5781L61.7244 52.5803C61.7247 52.302 61.7234 52.0252 61.7214 51.7513L60.0015 51.7637L58.2815 51.7753C58.2835 52.0442 58.2847 52.3112 58.2844 52.576L60.0044 52.5781ZM60.0015 51.7637L61.7214 51.7513C61.719 51.393 61.7209 51.0333 61.7234 50.6629L60.0034 50.6514L58.2835 50.6398C58.281 51.0111 58.2789 51.3918 58.2815 51.7753L60.0015 51.7637ZM60.0034 50.6514L61.7234 50.6499C61.7233 50.5451 61.7231 50.4404 61.7229 50.336C61.7227 50.2313 61.7225 50.1268 61.7224 50.021L60.0025 50.0224L58.2825 50.0239C58.2826 50.1318 58.2828 50.2381 58.283 50.3425C58.2832 50.4473 58.2834 50.5502 58.2834 50.6528L60.0034 50.6514ZM60.0025 50.0224L61.7048 50.2679C61.7304 50.0907 61.7605 50.0227 61.7816 49.981C61.8147 49.9154 61.8786 49.8145 62.0693 49.5787L60.7319 48.4971L59.3946 47.4155C59.1674 47.6964 58.9142 48.0278 58.7108 48.4305C58.4954 48.8571 58.3698 49.2934 58.3001 49.777L60.0025 50.0224ZM60.7319 48.4971L61.653 49.9497C61.6959 49.9225 61.7179 49.9145 61.7232 49.9126C61.7279 49.911 61.7364 49.9082 61.758 49.906C61.8226 49.8993 61.944 49.9005 62.2661 49.945L62.5015 48.2412L62.7368 46.5374C61.9641 46.4307 60.9325 46.3333 59.8109 47.0444L60.7319 48.4971ZM62.5015 48.2412L62.0352 49.8968C62.0656 49.9053 62.1008 49.9182 62.1781 49.9807C62.2883 50.0699 62.3945 50.182 62.6374 50.4368L63.8823 49.25L65.1273 48.0632C64.7764 47.6951 64.1027 46.9053 62.9678 46.5856L62.5015 48.2412ZM63.8823 49.25L62.6652 50.4652C62.7117 50.5118 62.7582 50.5583 62.8042 50.6043C62.8505 50.6505 62.8963 50.6963 62.9425 50.7426L64.1597 49.5273L65.3769 48.3121C65.329 48.2641 65.2818 48.2169 65.2357 48.1709C65.1894 48.1247 65.1443 48.0796 65.0995 48.0347L63.8823 49.25ZM64.1597 49.5273L62.9393 50.7394C63.1233 50.9247 63.307 51.113 63.4922 51.3046L64.729 50.1094L65.9658 48.9141C65.7738 48.7154 65.5785 48.5151 65.38 48.3153L64.1597 49.5273ZM64.729 50.1094L63.4922 51.3046C63.7913 51.6141 64.0925 51.9173 64.3874 52.2128L65.605 50.998L66.8226 49.7832C66.5299 49.4898 66.2449 49.2028 65.9658 48.9141L64.729 50.1094ZM65.605 50.998L64.3815 52.2069C64.5672 52.3948 64.7523 52.5823 64.9362 52.7694L66.1626 51.5635L67.3891 50.3576C67.2021 50.1674 67.0146 49.9775 66.8285 49.7891L65.605 50.998ZM66.1626 51.5635L64.938 52.7712C65.0049 52.8391 65.039 52.8734 65.0727 52.9075C65.1052 52.9402 65.1375 52.9727 65.2026 53.0388L66.4273 51.831L67.6519 50.6233C67.5836 50.5541 67.5489 50.5191 67.5151 50.485C67.4826 50.4522 67.451 50.4204 67.3872 50.3557L66.1626 51.5635ZM66.4273 51.831L65.1888 53.0247C65.4455 53.2909 65.4734 53.3785 65.4764 53.3863C65.4848 53.4083 65.5201 53.5054 65.5227 53.9145L67.2427 53.9033L68.9626 53.8922C68.9592 53.3572 68.9212 52.7652 68.6906 52.1606C68.4547 51.5418 68.078 51.0652 67.6657 50.6374L66.4273 51.831ZM67.2427 53.9033L65.5228 53.9188C65.5236 54.0108 65.5244 54.1029 65.5252 54.1962C65.526 54.2894 65.5268 54.3837 65.5277 54.4793L67.2476 54.4639L68.9675 54.4484C68.9666 54.3536 68.9658 54.26 68.965 54.1668C68.9642 54.0736 68.9634 53.9807 68.9626 53.8878L67.2427 53.9033ZM67.2476 54.4639L65.5276 54.474C65.5282 54.5748 65.5289 54.6756 65.5296 54.7763C65.5302 54.8773 65.5309 54.9782 65.5315 55.0805L67.2515 55.0703L68.9714 55.0601C68.9708 54.9563 68.9701 54.854 68.9695 54.7533C68.9688 54.6523 68.9681 54.5529 68.9675 54.4537L67.2476 54.4639ZM67.2515 55.0703L65.5316 55.0888C65.5349 55.3973 65.5378 55.7218 65.5414 56.035L67.2612 56.0156L68.9811 55.9966C68.9776 55.6797 68.9748 55.3734 68.9714 55.0518L67.2515 55.0703ZM67.2612 56.0156L65.5414 56.035C65.5499 56.8092 65.557 57.5824 65.5618 58.3553L67.2817 58.3447L69.0017 58.3341C68.9969 57.5543 68.9897 56.7751 68.9811 55.9966L67.2612 56.0156ZM67.2817 58.3447L65.5618 58.3553C65.5646 58.7953 65.5692 59.2353 65.5746 59.6725L67.2944 59.6514L69.0143 59.6304C69.009 59.197 69.0044 58.7648 69.0017 58.3341L67.2817 58.3447ZM67.2944 59.6514L65.5746 59.6725C65.5795 60.0753 65.5822 60.4788 65.5833 60.8835L67.3032 60.8789L69.0232 60.8743C69.0221 60.4607 69.0194 60.0458 69.0143 59.6304L67.2944 59.6514ZM67.3032 60.8789L65.5834 60.9034C65.6209 63.5305 66.4191 65.6787 68.2722 67.655L69.5269 66.4785L70.7816 65.302C69.5488 63.9873 69.049 62.6753 69.023 60.8544L67.3032 60.8789ZM69.5269 66.4785L68.361 67.7431C70.8557 70.043 73.8616 70.9073 77.0261 70.8584L76.9995 69.1387L76.973 67.4189C74.5061 67.457 72.4145 66.8013 70.6927 65.2139L69.5269 66.4785ZM76.9995 69.1387L77.069 70.8572C78.9989 70.7793 80.9007 70.0439 82.5463 69.1285C84.2086 68.2039 85.726 67.0304 86.9162 65.9318L85.7495 64.668L84.5829 63.4041C83.5504 64.3572 82.2517 65.3561 80.8741 66.1223C79.4799 66.8979 78.118 67.3721 76.9301 67.4201L76.9995 69.1387ZM85.7495 64.668L87.0213 65.8259C89.7493 62.8296 90.1919 59.2508 90.2029 55.8679L88.4829 55.8623L86.7629 55.8567C86.7527 58.9989 86.322 61.4843 84.4777 63.51L85.7495 64.668ZM88.4829 55.8623L90.2029 55.8756C90.2045 55.6579 90.2067 55.4407 90.2087 55.2198L88.4888 55.2041L86.7689 55.1884C86.7669 55.406 86.7647 55.6281 86.763 55.849L88.4829 55.8623ZM88.4888 55.2041L90.2087 55.2198C90.2171 54.2949 90.2248 53.3655 90.2273 52.4353L88.5073 52.4307L86.7874 52.4257C86.7849 53.3442 86.7773 54.2646 86.7689 55.1884L88.4888 55.2041ZM88.5073 52.4307L90.2273 52.4353C90.2289 51.8743 90.2341 51.3122 90.2409 50.7471L88.521 50.7266L86.8011 50.706C86.7943 51.2769 86.789 51.8505 86.7874 52.4257L88.5073 52.4307ZM88.521 50.7266L90.2409 50.7424C90.244 50.4124 90.2434 50.0834 90.2429 49.766L88.523 49.7685L86.803 49.7711C86.8034 50.0921 86.8039 50.4023 86.8011 50.7107L88.521 50.7266ZM88.523 49.7685L90.2428 49.7921C90.2517 49.1414 90.2838 48.897 90.336 48.7342C90.3684 48.6332 90.4364 48.4708 90.7651 48.1425L89.5493 46.9258L88.3336 45.7091C87.7434 46.2988 87.307 46.9145 87.0604 47.6837C86.8335 48.3911 86.8119 49.109 86.8031 49.745L88.523 49.7685ZM89.5493 46.9258L90.6356 48.2593C90.6812 48.2222 90.7273 48.1849 90.7767 48.1449C90.8253 48.1057 90.877 48.0639 90.9296 48.021L89.8433 46.6875L88.757 45.3539C88.7099 45.3923 88.663 45.4303 88.6137 45.4701C88.5652 45.5093 88.5142 45.5505 88.463 45.5922L89.5493 46.9258ZM89.8433 46.6875L90.946 48.0075C91.517 47.5305 92.0688 47.0442 92.6102 46.5523L91.4536 45.2793L90.297 44.0062C89.7811 44.4749 89.2661 44.9285 88.7406 45.3675L89.8433 46.6875ZM91.4536 45.2793L92.6079 46.5544C93.2082 46.011 93.814 45.4753 94.4265 44.9471L93.3032 43.6445L92.18 42.342C91.5458 42.8889 90.9193 43.4429 90.2993 44.0042L91.4536 45.2793ZM93.3032 43.6445L94.4351 44.9396C94.8622 44.5664 95.2806 44.1887 95.689 43.8191L94.5347 42.5439L93.3805 41.2687C92.9725 41.6381 92.5736 41.9979 92.1713 42.3495L93.3032 43.6445ZM94.5347 42.5439L95.689 43.8191C96.1997 43.3569 96.7014 42.9061 97.2091 42.4674L96.0845 41.166L94.9599 39.8646C94.421 40.3303 93.8951 40.8029 93.3805 41.2687L94.5347 42.5439ZM96.0845 41.166L97.2108 42.4659C97.4032 42.2992 97.654 42.0825 97.8495 41.9131L96.7232 40.6133L95.5968 39.3134C95.3668 39.5127 95.1912 39.6642 94.9582 39.8661L96.0845 41.166ZM96.7232 40.6133L97.8474 41.9149C97.9133 41.8581 97.9792 41.8012 98.0458 41.7437C98.1123 41.6862 98.1797 41.6283 98.2479 41.5693L97.1235 40.2676L95.9993 38.9659C95.9314 39.0245 95.8645 39.0822 95.7979 39.1397C95.7314 39.1972 95.6651 39.2544 95.5989 39.3116L96.7232 40.6133ZM97.1235 40.2676L98.2568 41.5614C100.904 39.2425 102.84 36.3802 103.446 32.6845L101.748 32.4062L100.051 32.128C99.6031 34.8617 98.1855 37.0509 95.9903 38.9737L97.1235 40.2676ZM101.748 32.4062L103.467 32.4785C103.486 32.0222 103.498 31.5687 103.503 31.1117L101.783 31.0947L100.063 31.0777C100.059 31.4973 100.048 31.9139 100.03 32.334L101.748 32.4062ZM101.783 31.0947L103.502 31.1252C103.507 30.8656 103.512 30.6219 103.517 30.3559L101.797 30.3242L100.078 30.2925C100.073 30.5402 100.067 30.8101 100.063 31.0643L101.783 31.0947ZM101.797 30.3242L103.517 30.3528C103.524 29.9477 103.53 29.5415 103.534 29.1354L101.814 29.1172L100.094 29.0989C100.09 29.4972 100.084 29.8964 100.078 30.2956L101.797 30.3242ZM101.814 29.1172L103.534 29.137C103.538 28.7544 103.545 28.3703 103.553 27.9819L101.833 27.9473L100.114 27.9126C100.106 28.3041 100.099 28.6999 100.094 29.0974L101.814 29.1172ZM101.833 27.9473L103.553 27.9549C103.554 27.8968 103.554 27.8384 103.554 27.7781C103.555 27.7182 103.555 27.6564 103.555 27.5935L101.835 27.5859L100.115 27.5783C100.115 27.6382 100.115 27.6975 100.114 27.7578C100.114 27.8176 100.114 27.8786 100.113 27.9396L101.833 27.9473ZM101.835 27.5859L103.555 27.6267C103.568 27.0616 103.629 26.8884 103.808 26.6313L102.397 25.6484L100.985 24.6655C100.286 25.6695 100.139 26.5864 100.116 27.5452L101.835 27.5859ZM102.397 25.6484L103.277 27.126C103.69 26.88 103.892 26.8246 104.358 26.8235L104.354 25.1035L104.35 23.3835C103.255 23.3861 102.449 23.6149 101.516 24.1709L102.397 25.6484ZM104.354 25.1035L104.368 26.8234C104.512 26.8223 104.584 26.8216 104.657 26.821C104.729 26.8204 104.802 26.8197 104.948 26.8186L104.934 25.0986L104.92 23.3787C104.773 23.3799 104.699 23.3805 104.627 23.3812C104.554 23.3818 104.483 23.3824 104.34 23.3836L104.354 25.1035ZM104.934 25.0986L104.926 26.8186C105.028 26.8191 105.13 26.8196 105.234 26.82C105.337 26.8205 105.441 26.8211 105.546 26.8216L105.555 25.1016L105.563 23.3816C105.457 23.3811 105.353 23.3806 105.25 23.3801C105.147 23.3796 105.044 23.3791 104.942 23.3787L104.934 25.0986ZM105.555 25.1016L105.557 26.8215C105.771 26.8212 105.992 26.8212 106.21 26.8206L106.205 25.1006L106.2 23.3806C105.985 23.3812 105.772 23.3812 105.552 23.3816L105.555 25.1016ZM106.205 25.1006L106.208 26.8206C106.659 26.8199 107.11 26.8203 107.56 26.8225L107.568 25.1025L107.577 23.3826C107.118 23.3803 106.66 23.3799 106.202 23.3806L106.205 25.1006ZM107.568 25.1025L107.56 26.8225C108.14 26.8252 108.719 26.8243 109.296 26.8215L109.287 25.1016L109.28 23.3816C108.71 23.3844 108.142 23.3852 107.577 23.3826L107.568 25.1025ZM98.8267 60.4795L98.8093 58.7596C98.1239 58.7665 97.4022 58.8244 96.6882 59.1251C95.9556 59.4336 95.4014 59.9238 94.8997 60.489L96.186 61.6308L97.4723 62.7727C97.7982 62.4056 97.9498 62.3264 98.0234 62.2954C98.1156 62.2566 98.3005 62.2049 98.8441 62.1994L98.8267 60.4795ZM96.186 61.6308L94.7875 60.6296C94.4269 61.1334 94.1843 61.6611 94.0716 62.2545C93.9651 62.8153 93.9934 63.344 94.0393 63.796L95.7505 63.6221L97.4617 63.4481C97.4269 63.1063 97.4375 62.9684 97.4512 62.8965C97.4586 62.8572 97.4742 62.7862 97.5846 62.6321L96.186 61.6308ZM95.7505 63.6221L94.1299 64.1983C94.6011 65.5234 95.3705 66.1848 96.2011 66.7859L97.2095 65.3926L98.2179 63.9992C97.6228 63.5686 97.5025 63.4153 97.3711 63.0458L95.7505 63.6221ZM97.2095 65.3926L96.6693 67.0255C97.352 67.2514 97.8321 67.294 98.4367 67.2961L98.4429 65.5762L98.4491 63.8562C98.0924 63.8549 97.9934 63.8402 97.7497 63.7596L97.2095 65.3926ZM98.4429 65.5762L98.4326 67.2961C98.5088 67.2966 98.5851 67.2971 98.6625 67.2976C98.7397 67.2981 98.818 67.2987 98.8974 67.2991L98.9077 65.5791L98.918 63.8591C98.8395 63.8587 98.762 63.8582 98.6847 63.8577C98.6074 63.8572 98.5303 63.8567 98.4532 63.8562L98.4429 65.5762ZM98.9077 65.5791L98.9059 67.2991C99.0336 67.2992 99.0981 67.2991 99.1625 67.2991C99.2256 67.299 99.2887 67.2989 99.4157 67.2991L99.4175 65.5791L99.4193 63.8591C99.2891 63.859 99.2234 63.859 99.1589 63.8591C99.0957 63.8592 99.0339 63.8592 98.9096 63.8591L98.9077 65.5791ZM99.4175 65.5791L99.4097 67.2991C99.4968 67.2995 99.5843 67.3 99.6738 67.3005C99.763 67.301 99.8542 67.3016 99.9468 67.302L99.9546 65.582L99.9624 63.862C99.8725 63.8616 99.7837 63.8611 99.6942 63.8606C99.6051 63.8601 99.5152 63.8595 99.4252 63.8591L99.4175 65.5791ZM99.9546 65.582L99.9468 67.302C100.537 67.3044 101.127 67.305 101.714 67.3059L101.716 65.5859L101.719 63.8659C101.131 63.865 100.547 63.8644 99.9624 63.862L99.9546 65.582ZM101.716 65.5859L101.712 67.3059C102.134 67.3069 102.514 67.3079 102.936 67.3088L102.94 65.5889L102.944 63.8689C102.551 63.868 102.114 63.8668 101.72 63.8659L101.716 65.5859ZM102.94 65.5889L102.936 67.3088C103.683 67.3103 104.43 67.3113 105.177 67.3118L105.178 65.5918L105.179 63.8718C104.434 63.8713 103.689 63.8703 102.944 63.8689L102.94 65.5889ZM105.178 65.5918L105.177 67.3118C106.272 67.3125 107.367 67.3149 108.461 67.3196L108.469 65.5996L108.476 63.8796C107.377 63.875 106.278 63.8725 105.179 63.8718L105.178 65.5918ZM108.469 65.5996L108.461 67.3196C109.414 67.3235 110.368 67.3252 111.321 67.3254V65.6055L111.323 63.8855C110.374 63.8852 109.424 63.8835 108.476 63.8796L108.469 65.5996ZM111.321 65.6055L111.319 67.3254C111.721 67.3259 112.123 67.3272 112.525 67.3293L112.534 65.6094L112.543 63.8894C112.137 63.8873 111.73 63.886 111.323 63.8855L111.321 65.6055ZM112.534 65.6094L112.525 67.3293C113.097 67.3321 113.668 67.3314 114.234 67.3303L114.23 65.6103L114.227 63.8904C113.662 63.8914 113.102 63.8921 112.543 63.8894L112.534 65.6094ZM114.23 65.6103L114.215 67.3303C114.339 67.3314 114.401 67.332 114.464 67.3327C114.527 67.3333 114.592 67.334 114.721 67.3351L114.736 65.6152L114.752 63.8953C114.625 63.8942 114.562 63.8935 114.5 63.8929C114.436 63.8922 114.372 63.8915 114.246 63.8904L114.23 65.6103ZM114.736 65.6152L114.746 67.3352C115.843 67.3288 117.168 67.2475 118.423 66.0849L117.254 64.8232L116.085 63.5615C115.911 63.7231 115.779 63.7824 115.64 63.8195C115.456 63.8685 115.204 63.8925 114.726 63.8953L114.736 65.6152ZM117.254 64.8232L118.616 65.873C119.036 65.329 119.399 64.7437 119.589 64.0282C119.779 63.3143 119.755 62.6264 119.665 61.9486L117.96 62.1748L116.255 62.401C116.317 62.8652 116.29 63.0468 116.264 63.1442C116.239 63.2401 116.173 63.408 115.891 63.7735L117.254 64.8232ZM117.96 62.1748L119.538 61.4915C119.264 60.8586 118.894 60.3202 118.382 59.8765C117.887 59.4482 117.337 59.1751 116.81 58.9663L116.177 60.5654L115.543 62.1645C115.887 62.3008 116.043 62.4017 116.129 62.4763C116.197 62.5357 116.283 62.6295 116.382 62.8581L117.96 62.1748ZM116.177 60.5654L116.379 58.8574C115.655 58.7716 114.95 58.7775 114.364 58.78L114.371 60.5L114.378 62.22C115.003 62.2173 115.495 62.2167 115.975 62.2735L116.177 60.5654ZM114.371 60.5L114.382 58.78C114.29 58.7795 114.199 58.779 114.108 58.7786C114.017 58.7781 113.926 58.7777 113.835 58.7771L113.824 60.4971L113.814 62.217C113.908 62.2176 114 62.2181 114.091 62.2185C114.182 62.219 114.272 62.2194 114.361 62.2199L114.371 60.5ZM113.824 60.4971L113.833 58.7771C113.232 58.7741 112.632 58.7742 112.035 58.7751L112.038 60.4951L112.041 62.2151C112.635 62.2142 113.226 62.2141 113.816 62.217L113.824 60.4971ZM112.038 60.4951L112.041 58.7751C111.623 58.7744 111.213 58.7741 110.799 58.7732L110.795 60.4932L110.791 62.2131C111.205 62.2141 111.624 62.2144 112.035 62.2151L112.038 60.4951ZM110.795 60.4932L110.798 58.7732C109.928 58.7717 109.058 58.7715 108.188 58.7732L108.191 60.4932L108.195 62.2131C109.06 62.2115 109.925 62.2117 110.791 62.2131L110.795 60.4932ZM108.191 60.4932L108.188 58.7732C107.191 58.775 106.194 58.7726 105.194 58.7683L105.187 60.4883L105.179 62.2082C106.183 62.2126 107.188 62.215 108.195 62.2131L108.191 60.4932ZM105.187 60.4883L105.194 58.7683C104.224 58.7643 103.254 58.7643 102.288 58.7654L102.29 60.4853L102.291 62.2053C103.256 62.2043 104.219 62.2043 105.179 62.2082L105.187 60.4883ZM102.29 60.4853L102.289 58.7654C101.882 58.7654 101.475 58.7644 101.067 58.7624L101.059 60.4824L101.051 62.2024C101.464 62.2044 101.877 62.2054 102.29 62.2053L102.29 60.4853ZM101.059 60.4824L101.066 58.7624C100.486 58.76 99.907 58.7616 99.3321 58.7644L99.3403 60.4844L99.3486 62.2043C99.9196 62.2016 100.486 62.2 101.052 62.2024L101.059 60.4824ZM99.3403 60.4844L99.3561 58.7644C99.272 58.7637 99.1876 58.7629 99.1021 58.762C99.0167 58.7612 98.9302 58.7604 98.8425 58.7596L98.8267 60.4795L98.8109 62.1994C98.8976 62.2002 98.9833 62.201 99.0688 62.2018C99.1542 62.2027 99.2394 62.2035 99.3245 62.2043L99.3403 60.4844Z" fill="#111B22"/>
</g>
<path d="M126.744 66.9902C136.563 66.9902 144.505 74.8871 144.505 84.6055C144.505 94.3239 136.564 102.222 126.744 102.222C116.925 102.222 108.984 94.3239 108.984 84.6055C108.985 74.8872 116.925 66.9903 126.744 66.9902Z" fill="#BFDBEE" stroke="#0078CE" stroke-width="2.99122"/>
<path d="M132.686 79.5962L127.36 84.8816L132.686 90.1669L131.972 90.8755L126.646 85.5901L121.321 90.8755L120.607 90.1669L125.933 84.8816L120.607 79.5962L121.321 78.8877L126.646 84.173L131.972 78.8877L132.686 79.5962Z" fill="#BFDBEE" stroke="#0078CE" stroke-width="1.49561"/>
<path d="M140.344 34.4345L140.344 34.4345C140.393 34.1088 140.167 33.8049 139.841 33.7558L134.141 32.8964C133.815 32.8472 133.512 33.0715 133.464 33.3972C133.415 33.7229 133.64 34.0268 133.966 34.0759L139.667 34.9353C139.993 34.9844 140.296 34.7602 140.344 34.4345Z" fill="#999999"/>
<path d="M140.344 34.4345L140.344 34.4345C140.296 34.7602 139.993 34.9844 139.667 34.9353L133.966 34.0759C133.64 34.0268 133.415 33.7229 133.464 33.3972L133.464 33.3972C133.512 33.0715 133.815 32.8472 134.141 32.8964L139.841 33.7558C140.167 33.8049 140.393 34.1088 140.344 34.4345Z" stroke="#0078CE" stroke-width="1.193"/>
<path d="M124.402 15.3656L124.402 15.3656C124.069 15.3152 123.758 15.5449 123.708 15.8786L122.902 21.3254C122.852 21.659 123.083 21.9704 123.417 22.0207C123.751 22.071 124.062 21.8413 124.111 21.5076L124.918 16.0609C124.967 15.7272 124.736 15.4159 124.402 15.3656Z" fill="#999999"/>
<path d="M124.402 15.3656L124.402 15.3656C124.736 15.4159 124.967 15.7272 124.918 16.0609L124.111 21.5076C124.062 21.8413 123.751 22.071 123.417 22.0207L123.417 22.0207C123.083 21.9704 122.852 21.659 122.902 21.3254L123.708 15.8786C123.758 15.5449 124.069 15.3152 124.402 15.3656Z" stroke="#0078CE" stroke-width="1.22218"/>
<path d="M136.697 21.9034L136.697 21.9033C136.495 21.6374 136.111 21.5808 135.839 21.7767L131.285 25.0583C131.013 25.2543 130.956 25.6287 131.158 25.8946C131.36 26.1606 131.745 26.2172 132.017 26.0212L136.57 22.7397C136.842 22.5437 136.899 22.1693 136.697 21.9034Z" fill="#999999"/>
<path d="M136.697 21.9033L136.697 21.9034C136.899 22.1693 136.842 22.5437 136.57 22.7397L132.017 26.0212C131.745 26.2172 131.36 26.1606 131.158 25.8946L131.158 25.8946C130.956 25.6287 131.013 25.2543 131.285 25.0583L135.839 21.7767C136.111 21.5808 136.495 21.6374 136.697 21.9033Z" stroke="#0078CE" stroke-width="1.21161"/>
</svg>
