<svg width="196" height="121" viewBox="0 0 196 121" fill="none" xmlns="http://www.w3.org/2000/svg">
<g clip-path="url(#clip0_55358_764969)">
<g filter="url(#filter0_d_55358_764969)">
<path d="M119.961 32.4116V49.4081C119.961 52.1912 118.491 54.7756 116.116 56.192L101.568 64.7151C99.1926 66.1066 96.2537 66.1066 93.8536 64.7151L79.306 56.192C76.9304 54.8004 75.4609 52.2161 75.4609 49.4081V32.4116C75.4609 29.6286 76.9304 27.0442 79.306 25.6278L93.8536 17.1047C96.2292 15.7132 99.1681 15.7132 101.568 17.1047L116.116 25.6278C118.491 27.0442 119.961 29.6037 119.961 32.4116Z" fill="#BFDBEE" stroke="#111B22" stroke-width="2.40546" stroke-linecap="round" stroke-linejoin="round"/>
<path d="M97.73 38.4247C100.882 38.4247 103.436 35.8325 103.436 32.6349C103.436 29.4373 100.882 26.8452 97.73 26.8452C94.5783 26.8452 92.0234 29.4373 92.0234 32.6349C92.0234 35.8325 94.5783 38.4247 97.73 38.4247Z" stroke="#111B22" stroke-width="2.40546" stroke-linecap="round" stroke-linejoin="round"/>
<path d="M107.527 52.4893C107.527 48.0165 103.143 44.3887 97.7302 44.3887C92.3176 44.3887 87.9336 48.0165 87.9336 52.4893" stroke="#111B22" stroke-width="2.40546" stroke-linecap="round" stroke-linejoin="round"/>
<path d="M96.4999 70.8731V87.8696C96.4999 90.6526 95.0304 93.237 92.6548 94.6534L78.1072 103.176C75.7316 104.568 72.7927 104.568 70.3926 103.176L55.8451 94.6534C53.4695 93.2619 52 90.6775 52 87.8696V70.8731C52 68.09 53.4695 65.5056 55.8451 64.0893L70.3926 55.5661C72.7682 54.1746 75.7071 54.1746 78.1072 55.5661L92.6548 64.0893C95.0304 65.5056 96.4999 68.0652 96.4999 70.8731Z" fill="#BFDBEE" stroke="#111B22" stroke-width="2.40546" stroke-linecap="round" stroke-linejoin="round"/>
<path d="M74.269 76.8852C77.4206 76.8852 79.9755 74.2929 79.9755 71.0953C79.9755 67.8977 77.4206 65.3057 74.269 65.3057C71.1174 65.3057 68.5625 67.8977 68.5625 71.0953C68.5625 74.2929 71.1174 76.8852 74.269 76.8852Z" fill="#BFDBEE" stroke="#111B22" stroke-width="2.40546" stroke-linecap="round" stroke-linejoin="round"/>
<path d="M84.0658 90.9497C84.0658 86.4769 79.6819 82.8491 74.2692 82.8491C68.8566 82.8491 64.4727 86.4769 64.4727 90.9497" fill="#BFDBEE"/>
<path d="M84.0658 90.9497C84.0658 86.4769 79.6819 82.8491 74.2692 82.8491C68.8566 82.8491 64.4727 86.4769 64.4727 90.9497" stroke="#111B22" stroke-width="2.40546" stroke-linecap="round" stroke-linejoin="round"/>
<path d="M141 72.5108V89.5073C141 92.2903 139.53 94.8747 137.155 96.2911L122.607 104.814C120.232 106.205 117.293 106.205 114.893 104.814L100.345 96.2911C97.9695 94.8995 96.5 92.3152 96.5 89.5073V72.5108C96.5 69.7277 97.9695 67.1433 100.345 65.7269L114.893 57.2038C117.268 55.8123 120.207 55.8123 122.607 57.2038L137.155 65.7269C139.53 67.1433 141 69.7029 141 72.5108Z" fill="#BFDBEE" stroke="#111B22" stroke-width="2.40546" stroke-linecap="round" stroke-linejoin="round"/>
<path d="M118.765 78.5232C121.917 78.5232 124.472 75.931 124.472 72.7334C124.472 69.5358 121.917 66.9438 118.765 66.9438C115.613 66.9438 113.059 69.5358 113.059 72.7334C113.059 75.931 115.613 78.5232 118.765 78.5232Z" stroke="#111B22" stroke-width="2.40546" stroke-linecap="round" stroke-linejoin="round"/>
<path d="M128.562 92.5868C128.562 88.114 124.178 84.4863 118.765 84.4863C113.353 84.4863 108.969 88.114 108.969 92.5868" stroke="#111B22" stroke-width="2.40546" stroke-linecap="round" stroke-linejoin="round"/>
</g>
<path d="M62.7118 31.1208L62.7118 31.1208C62.666 30.8429 62.854 30.5795 63.1316 30.5323L67.9456 29.7149C68.2232 29.6678 68.4854 29.8548 68.5312 30.1327L68.5312 30.1327C68.577 30.4105 68.3891 30.674 68.1115 30.7211L63.2975 31.5386C63.0198 31.5857 62.7576 31.3987 62.7118 31.1208Z" fill="#999999" stroke="#0078CE" stroke-width="1.01982"/>
<path d="M75.9569 14.5747L75.9569 14.5747C76.2396 14.5267 76.5066 14.7171 76.5532 15.0001L77.3212 19.6592C77.3678 19.9421 77.1765 20.2104 76.8938 20.2584C76.6111 20.3064 76.3441 20.116 76.2975 19.833L75.5295 15.1739C75.4828 14.891 75.6742 14.6227 75.9569 14.5747Z" fill="#999999"/>
<path d="M75.9569 14.5747L75.9569 14.5747C75.6742 14.6227 75.4828 14.891 75.5295 15.1739L76.2975 19.833C76.3441 20.116 76.6111 20.3064 76.8938 20.2584L76.8938 20.2584C77.1765 20.2104 77.3678 19.9421 77.3212 19.6592L76.5532 15.0001C76.5066 14.7171 76.2396 14.5267 75.9569 14.5747Z" stroke="#0078CE" stroke-width="1.03838"/>
<path d="M65.7379 21.0608C65.5045 20.8975 65.4511 20.5783 65.6186 20.3479C65.7861 20.1175 66.1111 20.0631 66.3445 20.2264L70.2617 22.9675C70.4952 23.1309 70.5486 23.45 70.3811 23.6805C70.2136 23.9109 69.8886 23.9653 69.6552 23.802L65.7379 21.0608Z" fill="#999999" stroke="#0078CE" stroke-width="1.03162"/>
</g>
<defs>
<filter id="filter0_d_55358_764969" x="37.9678" y="8.44384" width="117.064" height="117.86" filterUnits="userSpaceOnUse" color-interpolation-filters="sRGB">
<feFlood flood-opacity="0" result="BackgroundImageFix"/>
<feColorMatrix in="SourceAlpha" type="matrix" values="0 0 0 0 0 0 0 0 0 0 0 0 0 0 0 0 0 0 127 0" result="hardAlpha"/>
<feOffset dy="6.41456"/>
<feGaussianBlur stdDeviation="6.41456"/>
<feColorMatrix type="matrix" values="0 0 0 0 0.0705882 0 0 0 0 0.105882 0 0 0 0 0.129412 0 0 0 0.1 0"/>
<feBlend mode="normal" in2="BackgroundImageFix" result="effect1_dropShadow_55358_764969"/>
<feBlend mode="normal" in="SourceGraphic" in2="effect1_dropShadow_55358_764969" result="shape"/>
</filter>
<clipPath id="clip0_55358_764969">
<rect width="196" height="121" fill="white"/>
</clipPath>
</defs>
</svg>
