<svg width="196" height="121" viewBox="0 0 196 121" fill="none" xmlns="http://www.w3.org/2000/svg">
<path d="M79.4899 21.8525H122.247C123.31 21.8525 124.331 22.4051 125.083 23.3886C125.835 24.3721 126.258 25.7061 126.258 27.097V93.6072C126.258 94.9981 125.835 96.3321 125.083 97.3156C124.331 98.2991 123.31 98.8517 122.247 98.8517H74.011C72.9472 98.8517 71.927 98.2991 71.1748 97.3156C70.4226 96.3321 70 94.9981 70 93.6072V34.3868L79.4899 21.8525Z" fill="white"/>
<path fill-rule="evenodd" clip-rule="evenodd" d="M78.8143 21.3402C78.9747 21.1284 79.225 21.0039 79.4907 21.0039H122.248C123.621 21.0039 124.875 21.7185 125.758 22.873C126.637 24.0226 127.107 25.5438 127.107 27.0968V93.6071C127.107 95.1601 126.637 96.6813 125.758 97.8309C124.875 98.9854 123.621 99.7 122.248 99.7H74.0118C72.6383 99.7 71.3846 98.9854 70.5016 97.8309C69.6224 96.6813 69.1523 95.1601 69.1523 93.6071V34.3866C69.1523 34.2017 69.2127 34.0219 69.3244 33.8745L78.8143 21.3402ZM79.9126 22.7009L70.8493 34.6716V93.6071C70.8493 94.8358 71.2244 95.9826 71.8496 96.8C72.471 97.6126 73.2577 98.0031 74.0118 98.0031H122.248C123.002 98.0031 123.788 97.6126 124.41 96.8C125.035 95.9826 125.41 94.8358 125.41 93.6071V27.0968C125.41 25.8681 125.035 24.7213 124.41 23.9039C123.788 23.0914 123.002 22.7009 122.248 22.7009H79.9126Z" fill="#111B22"/>
<path d="M70 34.3868H77.7732C78.2293 34.384 78.6659 34.1452 78.9876 33.7226C79.3093 33.3 79.4899 32.728 79.4899 32.1317V21.8525L70 34.3868Z" fill="white"/>
<path d="M78.6424 24.378L71.7079 33.5381H77.7694C77.9169 33.537 78.1216 33.4608 78.3133 33.209C78.5089 32.9521 78.6424 32.5664 78.6424 32.1319V24.378ZM80.3397 32.1319C80.3397 32.8897 80.1116 33.6481 79.6639 34.2364C79.2125 34.8294 78.5436 35.2307 77.7792 35.2354H70.0008C69.6788 35.2354 69.3845 35.053 69.2411 34.7647C69.0978 34.4764 69.1299 34.1318 69.3241 33.875L78.8143 21.3408C79.0343 21.0503 79.4152 20.932 79.7606 21.0479C80.1061 21.1639 80.3397 21.4881 80.3397 21.8526V32.1319Z" fill="#111B22"/>
<path d="M83.0461 93.2176C82.6755 93.2176 82.3623 93.0875 82.1067 92.8275C81.8511 92.5674 81.7233 92.2423 81.7233 91.8522V90.4089L82.2984 90.9355C81.4421 90.8965 80.7009 90.786 80.0746 90.6039C79.4484 90.4219 78.9372 90.2398 78.541 90.0578C78.2087 89.9017 77.9722 89.6807 77.8316 89.3946C77.7038 89.1085 77.6527 88.816 77.6783 88.5169C77.7166 88.2178 77.8252 87.9447 78.0042 87.6977C78.1831 87.4506 78.4131 87.2881 78.6943 87.2101C78.9883 87.119 79.327 87.158 79.7104 87.3271C79.966 87.4701 80.3494 87.6197 80.8606 87.7757C81.3846 87.9187 82.03 87.9903 82.7969 87.9903C83.3337 87.9903 83.7554 87.9382 84.0622 87.8342C84.3817 87.7302 84.6053 87.5936 84.7331 87.4246C84.8737 87.2426 84.944 87.0475 84.944 86.8395C84.944 86.6444 84.8929 86.4819 84.7907 86.3518C84.7012 86.2088 84.5478 86.0853 84.3306 85.9812C84.1133 85.8642 83.8129 85.7602 83.4295 85.6692L81.2632 85.201C80.0746 84.928 79.1864 84.4729 78.5985 83.8357C78.0233 83.1855 77.7358 82.3468 77.7358 81.3196C77.7358 80.5394 77.9211 79.8437 78.2917 79.2326C78.6752 78.6084 79.2055 78.1013 79.8829 77.7112C80.5731 77.3211 81.3782 77.074 82.2984 76.97L81.7233 77.3016V75.9947C81.7233 75.6046 81.8511 75.2796 82.1067 75.0195C82.3623 74.7594 82.6755 74.6294 83.0461 74.6294C83.4295 74.6294 83.749 74.7594 84.0046 75.0195C84.2603 75.2796 84.3881 75.6046 84.3881 75.9947V77.3016L83.8129 76.931C84.2986 76.944 84.8226 77.0285 85.385 77.1845C85.9473 77.3276 86.4393 77.5291 86.8611 77.7892C87.1551 77.9452 87.3595 78.1598 87.4746 78.4329C87.6024 78.7059 87.6471 78.9855 87.6088 79.2716C87.5832 79.5446 87.481 79.7917 87.302 80.0127C87.1359 80.2338 86.9058 80.3833 86.6119 80.4614C86.3307 80.5264 85.992 80.4744 85.5958 80.3053C85.3019 80.1753 84.9696 80.0713 84.5989 79.9932C84.2411 79.9022 83.781 79.8567 83.2186 79.8567C82.5413 79.8567 82.0173 79.9802 81.6466 80.2273C81.2888 80.4744 81.1098 80.7929 81.1098 81.183C81.1098 81.4431 81.2121 81.6642 81.4166 81.8462C81.6339 82.0153 82.0237 82.1648 82.586 82.2948L84.7715 82.7824C85.9856 83.0555 86.8803 83.5106 87.4554 84.1478C88.0433 84.7719 88.3373 85.5846 88.3373 86.5859C88.3373 87.3661 88.1519 88.0553 87.7813 88.6534C87.4107 89.2516 86.8931 89.7392 86.2285 90.1163C85.5767 90.4934 84.8162 90.7404 83.9471 90.8575L84.3881 90.3894V91.8522C84.3881 92.2423 84.2603 92.5674 84.0046 92.8275C83.7618 93.0875 83.4423 93.2176 83.0461 93.2176Z" fill="#0078CE"/>
<path d="M98.1289 86.1762C98.1289 88.3633 98.5575 90.529 99.3902 92.5495C100.223 94.5701 101.444 96.4061 102.982 97.9526C104.521 99.4991 106.348 100.726 108.358 101.563C110.368 102.4 112.523 102.83 114.699 102.83C116.875 102.83 119.03 102.4 121.04 101.563C123.051 100.726 124.877 99.4991 126.416 97.9526C127.955 96.4061 129.175 94.5701 130.008 92.5495C130.841 90.529 131.269 88.3633 131.269 86.1762C131.269 81.7592 129.524 77.5232 126.416 74.3999C123.309 71.2766 119.094 69.522 114.699 69.522C110.304 69.522 106.09 71.2766 102.982 74.3999C99.8747 77.5232 98.1289 81.7592 98.1289 86.1762Z" fill="#BFDBEE"/>
<path d="M130.172 86.1763C130.172 82.0489 128.541 78.0911 125.639 75.1743C122.737 72.2577 118.802 70.6206 114.7 70.6206C110.599 70.6206 106.664 72.2577 103.762 75.1743C100.86 78.0911 99.2285 82.0489 99.2285 86.1763C99.2285 88.2198 99.6293 90.2436 100.407 92.1313C101.185 94.0187 102.325 95.7332 103.762 97.1772C105.199 98.6214 106.905 99.767 108.781 100.548C110.658 101.33 112.669 101.732 114.7 101.732C116.731 101.732 118.742 101.33 120.619 100.548C122.496 99.767 124.202 98.6214 125.639 97.1772C127.075 95.7332 128.215 94.0187 128.993 92.1313C129.771 90.2436 130.172 88.2198 130.172 86.1763ZM132.369 86.1763C132.369 88.5068 131.912 90.8148 131.024 92.9683C130.137 95.1215 128.836 97.0784 127.196 98.7271C125.556 100.376 123.608 101.684 121.464 102.577C119.32 103.469 117.021 103.929 114.7 103.929C112.379 103.929 110.081 103.469 107.937 102.577C105.793 101.684 103.844 100.376 102.204 98.7271C100.564 97.0784 99.2634 95.1215 98.376 92.9683C97.4885 90.8148 97.0313 88.5068 97.0312 86.1763C97.0313 81.4699 98.8914 76.9552 102.204 73.6255C105.517 70.2956 110.012 68.4233 114.7 68.4233C119.388 68.4234 123.883 70.2956 127.196 73.6255C130.509 76.9552 132.369 81.4699 132.369 86.1763Z" fill="#0078CE"/>
<path d="M109.176 86.3369L112.649 89.8282L119.609 82.8457" fill="#BFDBEE"/>
<path d="M118.571 81.8113C119.142 81.2384 120.069 81.2373 120.642 81.8084C121.215 82.3795 121.217 83.3067 120.646 83.8797L113.686 90.8621C113.411 91.1379 113.038 91.293 112.648 91.2928C112.259 91.2925 111.886 91.1371 111.611 90.8612L108.137 87.3699C107.567 86.7965 107.569 85.8693 108.142 85.2987C108.716 84.7281 109.643 84.7302 110.214 85.3035L112.649 87.7518L118.571 81.8113Z" fill="#0078CE"/>
<path d="M76.0017 41.9273C76.0051 41.1851 76.6094 40.5818 77.3516 40.5852L97.6335 40.6773C98.3756 40.6807 98.9745 41.2894 98.9711 42.0316V42.0316C98.9677 42.7737 98.3633 43.377 97.6212 43.3736L77.3393 43.2815C76.5972 43.2782 75.9983 42.6694 76.0017 41.9273V41.9273Z" fill="#DCDCDC"/>
<path d="M98.9637 42.1688C98.8967 42.8014 98.3916 43.3054 97.759 43.3674L97.6212 43.3736L77.3393 43.2815C76.5973 43.2781 75.9985 42.6697 76.0017 41.9278C76.0051 41.1856 76.6094 40.5819 77.3515 40.5852L97.6335 40.6773L97.7712 40.6848C98.4483 40.7573 98.9743 41.3364 98.9711 42.0321L98.9637 42.1688Z" fill="#111B22"/>
<path d="M76.0603 58.8125C76.0636 58.0704 76.668 57.4671 77.4102 57.4705L113.872 57.636C114.614 57.6394 115.213 58.2482 115.21 58.9903V58.9903C115.206 59.7325 114.602 60.3357 113.86 60.3324L77.3979 60.1668C76.6558 60.1634 76.0569 59.5547 76.0603 58.8125V58.8125Z" fill="#DCDCDC"/>
<path d="M115.202 59.1274C115.13 59.8054 114.555 60.3355 113.859 60.3323L77.3979 60.1667C76.6559 60.1633 76.0571 59.5549 76.0603 58.813C76.0636 58.0708 76.668 57.4671 77.4101 57.4705L113.872 57.636C114.614 57.6394 115.213 58.2486 115.209 58.9908L115.202 59.1274Z" fill="#111B22"/>
<path d="M75.9782 47.3213C75.9816 46.5792 76.586 45.9759 77.3282 45.9792L88.8153 46.0314C89.5575 46.0348 90.1563 46.6435 90.153 47.3857V47.3857C90.1496 48.1278 89.5452 48.7311 88.803 48.7277L77.3159 48.6756C76.5737 48.6722 75.9749 48.0635 75.9782 47.3213V47.3213Z" fill="#EEEEEE"/>
<path d="M90.1455 47.5229C90.0737 48.2008 89.499 48.7309 88.8031 48.7277L77.3158 48.6756C76.5739 48.6722 75.9751 48.0637 75.9782 47.3218C75.9816 46.5796 76.586 45.9759 77.3281 45.9792L88.8154 46.0314C89.5575 46.0348 90.1563 46.644 90.153 47.3862L90.1455 47.5229Z" fill="#111B22"/>
<path d="M76.0407 64.2066C76.0441 63.4644 76.6485 62.8611 77.3907 62.8645L88.8778 62.9167C89.62 62.92 90.2188 63.5288 90.2155 64.2709V64.2709C90.2121 65.0131 89.6077 65.6164 88.8655 65.613L77.3784 65.5608C76.6362 65.5575 76.0374 64.9487 76.0407 64.2066V64.2066Z" fill="#EEEEEE"/>
<path d="M90.208 64.4081C90.1362 65.086 89.5615 65.6162 88.8656 65.613L77.3783 65.5608C76.6364 65.5574 76.0376 64.949 76.0407 64.2071C76.0441 63.4649 76.6485 62.8612 77.3906 62.8645L88.8779 62.9167C89.62 62.92 90.2188 63.5292 90.2155 64.2714L90.208 64.4081Z" fill="#111B22"/>
<path d="M106.973 81.0345C100.955 76.5471 107.9 71.4118 107.9 71.4118C103.334 73.5071 101.39 75.4374 99.2414 79.3414C98.965 79.8438 98.7558 80.3823 98.6197 80.9395C98.0933 83.0954 97.8784 84.7398 97.8439 86.6606C97.8077 88.6809 98.3463 90.6736 99.3272 92.441C99.9253 93.5186 100.53 94.513 101.292 95.6669C102.018 96.7665 102.955 97.7195 104.078 98.4088C106.178 99.6976 108.012 100.49 109.625 101.006C110.526 101.294 111.474 101.39 112.419 101.379L116.071 101.338C116.071 101.338 112.186 100.1 117.39 96.2809C122.594 92.4615 112.99 85.522 106.973 81.0345Z" fill="#0078CE" fill-opacity="0.2"/>
<path d="M62.2704 32.0752C61.6874 32.2084 61.3203 32.7896 61.4504 33.3732V33.3732C61.5804 33.9569 62.1585 34.322 62.7414 34.1888L67.8327 33.0256C68.4156 32.8924 68.7828 32.3113 68.6527 31.7276V31.7276C68.5226 31.144 67.9446 30.7788 67.3617 30.912L62.2704 32.0752Z" fill="#999999"/>
<path d="M67.833 33.0251L67.9396 32.9957C68.4596 32.82 68.7743 32.275 68.6525 31.7279L68.6235 31.6204C68.4622 31.1347 67.9788 30.8301 67.4709 30.893L67.3621 30.9119L62.2706 32.0752C61.6877 32.2084 61.3203 32.7898 61.4504 33.3735C61.5806 33.957 62.1587 34.3215 62.7416 34.1884L67.833 33.0251Z" fill="#0078CE"/>
<path d="M76.3231 15.1949C76.19 14.5976 75.5983 14.2238 75.0017 14.3601V14.3601C74.405 14.4964 74.0293 15.0912 74.1624 15.6886L75.2504 20.5706C75.3835 21.168 75.9751 21.5418 76.5718 21.4055V21.4055C77.1684 21.2691 77.5442 20.6743 77.4111 20.077L76.3231 15.1949Z" fill="#999999"/>
<path d="M75.2501 20.5711L75.2804 20.6804C75.4574 21.2129 76.0123 21.5328 76.5715 21.4051L76.6809 21.3751C77.1778 21.2074 77.4917 20.71 77.4301 20.1892L77.4112 20.0773L76.3231 15.1951C76.19 14.5978 75.5981 14.2238 75.0015 14.3602C74.4049 14.4966 74.0289 15.0916 74.162 15.6889L75.2501 20.5711Z" fill="#0078CE"/>
<path d="M65.5097 21.0197C64.993 20.7017 64.3068 20.8566 63.9768 21.3657V21.3657C63.6469 21.8748 63.7983 22.5453 64.3149 22.8633L68.647 25.53C69.1636 25.848 69.8499 25.6931 70.1798 25.1839V25.1839C70.5097 24.6748 70.3584 24.0043 69.8417 23.6863L65.5097 21.0197Z" fill="#999999"/>
<path d="M68.6469 25.5303L68.7457 25.5842C69.2479 25.8273 69.8706 25.6614 70.1799 25.1842L70.236 25.0869C70.4725 24.6255 70.3459 24.0652 69.9342 23.7501L69.8418 23.6863L65.5098 21.0198C64.9932 20.7017 64.3067 20.8567 63.9768 21.3658C63.6469 21.8749 63.7983 22.5457 64.3149 22.8637L68.6469 25.5303Z" fill="#0078CE"/>
</svg>
