<svg width="196" height="121" viewBox="0 0 196 121" fill="none" xmlns="http://www.w3.org/2000/svg">
<path d="M74.2401 26.4263H115.871C116.907 26.4263 117.9 26.965 118.633 27.9239C119.365 28.8828 119.777 30.1834 119.777 31.5395V96.3857C119.777 97.7418 119.365 99.0424 118.633 100.001C117.9 100.96 116.907 101.499 115.871 101.499H68.9054C67.8696 101.499 66.8762 100.96 66.1439 100.001C65.4115 99.0424 65 97.7418 65 96.3857V38.6469L74.2401 26.4263Z" fill="white" stroke="#111B22" stroke-width="1.65989" stroke-linecap="round" stroke-linejoin="round"/>
<path d="M65 38.6469H72.5686C73.0126 38.6442 73.4377 38.4114 73.751 37.9993C74.0642 37.5873 74.2401 37.0296 74.2401 36.4482V26.4263L65 38.6469Z" fill="white" stroke="#111B22" stroke-width="1.65989" stroke-linecap="round" stroke-linejoin="round"/>
<rect x="71.5019" y="61.9454" width="42.2986" height="1.31445" rx="0.657223" transform="rotate(0.260546 71.5019 61.9454)" fill="#DCDCDC" stroke="#111B22" stroke-width="1.31445"/>
<rect x="70.6464" y="76.0542" width="19.1648" height="1.31445" rx="0.657223" transform="rotate(0.260546 70.6464 76.0542)" fill="#DCDCDC" stroke="#111B22" stroke-width="1.31445"/>
<rect x="71.4824" y="88.5035" width="17.5" height="1.31445" rx="0.657223" transform="rotate(0.260546 71.4824 88.5035)" fill="#DCDCDC" stroke="#111B22" stroke-width="1.31445"/>
<rect x="71.4824" y="66.9244" width="15.8418" height="1.31445" rx="0.657223" transform="rotate(0.260546 71.4824 66.9244)" fill="#EEEEEE" stroke="#111B22" stroke-width="1.31445"/>
<rect x="72.0175" y="81.2994" width="16.4149" height="1.31445" rx="0.657223" transform="rotate(0.260546 72.0175 81.2994)" fill="#EEEEEE" stroke="#111B22" stroke-width="1.31445"/>
<rect x="71.7284" y="93.7437" width="16.1365" height="1.31445" rx="0.657223" transform="rotate(0.260546 71.7284 93.7437)" fill="#EEEEEE" stroke="#111B22" stroke-width="1.31445"/>
<g filter="url(#filter0_d_54300_1044119)">
<path d="M82.4297 45.5804C82.4297 46.8967 82.6873 48.2001 83.1878 49.4162C83.6883 50.6323 84.4219 51.7372 85.3467 52.668C86.2715 53.5987 87.3694 54.337 88.5778 54.8407C89.7861 55.3445 91.0812 55.6037 92.3891 55.6037C93.6969 55.6037 94.992 55.3445 96.2003 54.8407C97.4087 54.337 98.5066 53.5987 99.4314 52.668C100.356 51.7372 101.09 50.6323 101.59 49.4162C102.091 48.2001 102.348 46.8967 102.348 45.5804C102.348 42.9221 101.299 40.3726 99.4314 38.4929C97.5636 36.6132 95.0304 35.5571 92.3891 35.5571C89.7477 35.5571 87.2145 36.6132 85.3467 38.4929C83.479 40.3726 82.4297 42.9221 82.4297 45.5804Z" fill="#BFDBEE" stroke="#0078CE" stroke-width="1.32668" stroke-linecap="round" stroke-linejoin="round"/>
<path d="M89.0742 45.6769L91.162 47.778L95.3449 43.5757" fill="#BFDBEE"/>
<path d="M89.0742 45.6769L91.162 47.778L95.3449 43.5757" stroke="#0078CE" stroke-width="1.76891" stroke-linecap="round" stroke-linejoin="round"/>
</g>
<path d="M94.2168 70.0283H130.385C131.535 70.0285 132.467 70.9613 132.467 72.1113V76.4199C132.467 77.5698 131.535 78.5017 130.385 78.502H94.2168C93.0668 78.5019 92.134 77.5699 92.1338 76.4199V72.1113C92.1338 70.9612 93.0666 70.0283 94.2168 70.0283Z" fill="white" stroke="#111B22" stroke-width="0.245011"/>
<path d="M92.5938 103.165V78.6226C93.1685 79.0697 130.872 79.1814 132.137 78.6226V99.0771L130.298 101.015V104.116C130.298 105.469 129.201 106.566 127.848 106.566H95.9946C95.0687 106.566 94.318 105.815 94.318 104.889C93.3657 104.889 92.5938 104.117 92.5938 103.165Z" fill="white"/>
<path d="M126.619 104.889V101.037C126.619 99.9547 127.497 99.0771 128.579 99.0771H132.137M126.619 104.889H94.318M126.619 104.889L130.298 101.015M132.137 99.0771V78.6226C130.872 79.1814 93.1685 79.0697 92.5938 78.6226V103.165C92.5938 104.117 93.3657 104.889 94.318 104.889M132.137 99.0771L130.298 101.015M94.318 104.889C94.318 105.815 95.0687 106.566 95.9946 106.566H127.848C129.201 106.566 130.298 105.469 130.298 104.116V101.015" stroke="#111B22" stroke-width="1.13488"/>
<path d="M97.766 69.4599H94.2537C92.7652 69.4599 91.5586 70.6665 91.5586 72.155V76.2655C91.5586 77.754 92.7652 78.9607 94.2537 78.9607H130.361C131.849 78.9607 133.056 77.754 133.056 76.2655V72.155C133.056 70.6665 131.849 69.4599 130.361 69.4599H126.734M97.766 69.4599V67.0453C97.766 66.1565 98.4865 65.436 99.3753 65.436C100.264 65.436 100.985 66.1565 100.985 67.0453V69.4599M97.766 69.4599V71.8744C97.766 72.7632 98.4865 73.4837 99.3753 73.4837C100.264 73.4837 100.985 72.7632 100.985 71.8744V69.4599M126.734 69.4599V67.0453C126.734 66.1565 126.013 65.436 125.124 65.436C124.236 65.436 123.515 66.1566 123.515 67.0454V69.4599M126.734 69.4599V71.8744C126.734 72.7632 126.013 73.4837 125.124 73.4837C124.236 73.4837 123.515 72.7632 123.515 71.8744V69.4599M123.515 69.4599H100.985" stroke="#111B22" stroke-width="1.13488"/>
<path d="M126.733 67.0454V69.4599V71.8744C126.733 72.7632 126.013 73.4837 125.124 73.4837C124.235 73.4837 123.515 72.7632 123.515 71.8744V69.4599V67.0454C123.515 66.1566 124.235 65.436 125.124 65.436C126.013 65.436 126.733 66.1565 126.733 67.0454Z" stroke="#111B22" stroke-width="0.980043"/>
<path d="M100.984 67.0454V69.4599V71.8744C100.984 72.7632 100.264 73.4837 99.3749 73.4837C98.4861 73.4837 97.7656 72.7632 97.7656 71.8744V69.4599V67.0454C97.7656 66.1565 98.4861 65.436 99.3749 65.436C100.264 65.436 100.984 66.1565 100.984 67.0454Z" stroke="#111B22" stroke-width="0.980043"/>
<rect x="100.896" y="85.1507" width="5.22732" height="5.05574" rx="0.490022" stroke="#111B22" stroke-width="0.980043"/>
<rect x="100.896" y="93.199" width="5.22732" height="5.05574" rx="0.490022" stroke="#111B22" stroke-width="0.980043"/>
<rect x="109.635" y="93.199" width="5.22732" height="5.05574" rx="0.490022" stroke="#111B22" stroke-width="0.980043"/>
<rect x="118.369" y="93.199" width="5.22732" height="5.05574" rx="0.490022" stroke="#111B22" stroke-width="0.980043"/>
<rect x="109.635" y="85.1507" width="5.22732" height="5.05574" rx="0.490022" stroke="#111B22" stroke-width="0.980043"/>
<rect x="118.369" y="85.1507" width="5.22732" height="5.05574" rx="0.490022" stroke="#111B22" stroke-width="0.980043"/>
<rect x="-0.70528" y="0.237535" width="1.05558" height="6.13828" rx="0.527789" transform="matrix(-0.894502 -0.447063 -0.441788 0.89712 126.347 14.464)" fill="#999999" stroke="#0078CE" stroke-width="1.05558"/>
<rect x="-0.244258" y="-0.72524" width="1.07908" height="5.95811" rx="0.539539" transform="matrix(0.441786 -0.89712 -0.894502 -0.447064 131.441 35.9126)" fill="#999999" stroke="#0078CE" stroke-width="1.07908"/>
<rect x="-0.670644" y="-0.332662" width="1.07054" height="6.0244" rx="0.535268" transform="matrix(-0.308804 -0.951126 -0.944107 0.329639 133.308 23.7334)" fill="#999999" stroke="#0078CE" stroke-width="1.07054"/>
<defs>
<filter id="filter0_d_54300_1044119" x="74.69" y="31.3557" width="35.3974" height="35.5248" filterUnits="userSpaceOnUse" color-interpolation-filters="sRGB">
<feFlood flood-opacity="0" result="BackgroundImageFix"/>
<feColorMatrix in="SourceAlpha" type="matrix" values="0 0 0 0 0 0 0 0 0 0 0 0 0 0 0 0 0 0 127 0" result="hardAlpha"/>
<feOffset dy="3.53782"/>
<feGaussianBlur stdDeviation="3.53782"/>
<feColorMatrix type="matrix" values="0 0 0 0 0.0705882 0 0 0 0 0.105882 0 0 0 0 0.129412 0 0 0 0.1 0"/>
<feBlend mode="normal" in2="BackgroundImageFix" result="effect1_dropShadow_54300_1044119"/>
<feBlend mode="normal" in="SourceGraphic" in2="effect1_dropShadow_54300_1044119" result="shape"/>
</filter>
</defs>
</svg>
