<svg width="196" height="121" viewBox="0 0 196 121" fill="none" xmlns="http://www.w3.org/2000/svg">
<path d="M97.5112 14.9541C105.23 14.9543 111.478 21.1636 111.478 28.8115C111.478 36.4595 105.23 42.6688 97.5112 42.6689C89.7923 42.6689 83.5435 36.4596 83.5435 28.8115C83.5435 21.1635 89.7923 14.9541 97.5112 14.9541Z" fill="#BFDBEE" stroke="#0078CE" stroke-width="1.42045"/>
<path d="M102.77 24.3297L98.004 29.0598L102.77 33.79L102.19 34.3658L97.4238 29.6356L92.6579 34.3658L92.0777 33.79L96.8437 29.0598L92.0777 24.3297L92.6579 23.7539L97.4238 28.484L102.19 23.7539L102.77 24.3297Z" fill="#BFDBEE" stroke="#0078CE" stroke-width="1.42045"/>
<rect x="83.2004" y="46.4138" width="29.5995" height="59.4435" rx="4.52554" fill="#BFDBEE" stroke="black" stroke-width="0.733871"/>
<rect x="0.539919" y="0.00172378" width="0.76545" height="4.42823" rx="0.382725" transform="matrix(0.703143 0.711093 0.70758 -0.706589 76.3129 35.7284)" fill="#999999" stroke="#0078CE" stroke-width="0.76545"/>
<rect x="-0.00172848" y="0.552232" width="0.779052" height="4.32395" rx="0.389526" transform="matrix(-0.70757 0.706599 0.703133 0.711103 77.7782 19.8287)" fill="#999999" stroke="#0078CE" stroke-width="0.779052"/>
<rect x="0.382408" y="0.384892" width="0.774101" height="4.36228" rx="0.387051" transform="matrix(-0.0118603 1.00005 0.999866 -0.00562222 73.695 27.7605)" fill="#999999" stroke="#0078CE" stroke-width="0.774101"/>
<rect x="-0.539919" y="0.00172378" width="0.76545" height="4.42823" rx="0.382725" transform="matrix(-0.703143 0.711093 -0.70758 -0.706589 118.129 36.4962)" fill="#999999" stroke="#0078CE" stroke-width="0.76545"/>
<rect x="0.00172848" y="0.552232" width="0.779052" height="4.32395" rx="0.389526" transform="matrix(0.70757 0.706599 -0.703133 0.711103 117.42 19.8263)" fill="#999999" stroke="#0078CE" stroke-width="0.779052"/>
<rect x="-0.382408" y="0.384892" width="0.774101" height="4.36228" rx="0.387051" transform="matrix(0.0118603 1.00005 -0.999866 -0.00562222 121.515 28.5253)" fill="#999999" stroke="#0078CE" stroke-width="0.774101"/>
<rect x="63.4841" y="59.0857" width="18.9828" height="46.2828" rx="4.52554" fill="#BFDBEE"/>
<rect x="63.4841" y="59.0857" width="18.9828" height="46.2828" rx="4.52554" stroke="black" stroke-width="0.733871"/>
<path d="M77.4331 80.3515V84.1034C77.4331 84.7178 77.1106 85.2883 76.5892 85.601L73.3966 87.4824C72.8752 87.7896 72.2302 87.7896 71.7035 87.4824L68.5108 85.601C67.9895 85.2938 67.667 84.7233 67.667 84.1034V80.3515C67.667 79.7372 67.9895 79.1667 68.5108 78.854L71.7035 76.9726C72.2249 76.6654 72.8698 76.6654 73.3966 76.9726L76.5892 78.854C77.1106 79.1667 77.4331 79.7317 77.4331 80.3515Z" fill="#BFDBEE" stroke="#111B22" stroke-width="0.530998" stroke-linecap="round" stroke-linejoin="round"/>
<path d="M72.5512 81.685C73.2428 81.685 73.8035 81.1128 73.8035 80.407C73.8035 79.7011 73.2428 79.1289 72.5512 79.1289C71.8595 79.1289 71.2988 79.7011 71.2988 80.407C71.2988 81.1128 71.8595 81.685 72.5512 81.685Z" stroke="#111B22" stroke-width="0.530998" stroke-linecap="round" stroke-linejoin="round"/>
<path d="M74.7022 84.7862C74.7022 83.7989 73.7401 82.998 72.5523 82.998C71.3644 82.998 70.4023 83.7989 70.4023 84.7862" stroke="#111B22" stroke-width="0.530998" stroke-linecap="round" stroke-linejoin="round"/>
<rect x="113.533" y="59.3513" width="18.9828" height="46.2828" rx="4.52554" fill="#BFDBEE"/>
<rect x="113.533" y="59.3513" width="18.9828" height="46.2828" rx="4.52554" stroke="black" stroke-width="0.733871"/>
<path d="M127.482 80.6172V84.3691C127.482 84.9834 127.159 85.5539 126.638 85.8666L123.445 87.748C122.924 88.0552 122.279 88.0552 121.752 87.748L118.56 85.8666C118.038 85.5594 117.716 84.9889 117.716 84.3691V80.6172C117.716 80.0028 118.038 79.4323 118.56 79.1196L121.752 77.2382C122.274 76.931 122.919 76.931 123.445 77.2382L126.638 79.1196C127.159 79.4323 127.482 79.9973 127.482 80.6172Z" fill="#BFDBEE" stroke="#111B22" stroke-width="0.530998" stroke-linecap="round" stroke-linejoin="round"/>
<path d="M122.6 81.9487C123.292 81.9487 123.852 81.3765 123.852 80.6706C123.852 79.9648 123.292 79.3926 122.6 79.3926C121.908 79.3926 121.348 79.9648 121.348 80.6706C121.348 81.3765 121.908 81.9487 122.6 81.9487Z" stroke="#111B22" stroke-width="0.530998" stroke-linecap="round" stroke-linejoin="round"/>
<path d="M124.751 85.0479C124.751 84.0606 123.789 83.2598 122.601 83.2598C121.413 83.2598 120.451 84.0606 120.451 85.0479" stroke="#111B22" stroke-width="0.530998" stroke-linecap="round" stroke-linejoin="round"/>
<path d="M105.583 68.6522V74.4789C105.583 75.4329 105.082 76.3189 104.273 76.8045L99.3145 79.7264C98.5048 80.2034 97.5032 80.2034 96.6852 79.7264L91.727 76.8045C90.9173 76.3274 90.4165 75.4415 90.4165 74.4789V68.6522C90.4165 67.6981 90.9173 66.8121 91.727 66.3265L96.6852 63.4047C97.4948 62.9276 98.4965 62.9276 99.3145 63.4047L104.273 66.3265C105.082 66.8121 105.583 67.6896 105.583 68.6522Z" fill="#BFDBEE" stroke="#111B22" stroke-width="0.824636" stroke-linecap="round" stroke-linejoin="round"/>
<path d="M98.0015 70.7177C99.0756 70.7177 99.9464 69.829 99.9464 68.7328C99.9464 67.6367 99.0756 66.748 98.0015 66.748C96.9274 66.748 96.0566 67.6367 96.0566 68.7328C96.0566 69.829 96.9274 70.7177 98.0015 70.7177Z" stroke="#111B22" stroke-width="0.824636" stroke-linecap="round" stroke-linejoin="round"/>
<path d="M101.341 75.5348C101.341 74.0015 99.8471 72.7578 98.0024 72.7578C96.1577 72.7578 94.6636 74.0015 94.6636 75.5348" stroke="#111B22" stroke-width="0.824636" stroke-linecap="round" stroke-linejoin="round"/>
<rect x="63.4964" y="101.074" width="69.0083" height="5.30833" rx="2.65417" fill="#BFDBEE" stroke="black" stroke-width="0.758333"/>
</svg>
