<svg width="196" height="121" viewBox="0 0 196 121" fill="none" xmlns="http://www.w3.org/2000/svg">
<g clip-path="url(#clip0_56008_734141)">
<path d="M81.6274 16.2913C82.3303 15.2281 83.4781 14.415 85.0258 14.415H108.669C110.275 14.415 111.524 15.1245 112.321 16.2044C113.083 17.2374 113.384 18.5345 113.352 19.7445C113.319 20.9563 112.95 22.2243 112.194 23.225C111.414 24.2572 110.213 25.0017 108.669 25.0017H103.226C102.839 25.0017 102.524 25.3113 102.524 25.6962V27.5535H90.961V25.5712C90.961 25.1977 90.6772 24.9354 90.3555 24.9283C89.0307 24.899 87.1477 24.8934 85.0987 24.9999C83.5432 25.0806 82.3641 24.3181 81.6398 23.2601C80.9494 22.2518 80.6562 20.9769 80.6562 19.7858C80.6562 18.5924 80.9502 17.3154 81.6274 16.2913Z" fill="white" stroke="#111B22" stroke-width="1.25647"/>
<path d="M95.8953 26.9326C114.8 26.9328 130.134 42.3382 130.134 61.3524C130.134 80.3668 114.8 95.7731 95.8953 95.7733C76.9902 95.7733 61.6562 80.367 61.6562 61.3524C61.6566 42.3381 76.9903 26.9326 95.8953 26.9326Z" fill="white" stroke="#111B22" stroke-width="1.88472"/>
<path d="M95.8879 31.4795C112.3 31.4795 125.608 44.854 125.608 61.3551C125.608 77.8563 112.3 91.2299 95.8879 91.2299C79.4759 91.2297 66.1681 77.8561 66.168 61.3551C66.168 44.8541 79.4758 31.4797 95.8879 31.4795Z" fill="white" stroke="#111B22" stroke-width="0.68849"/>
<path d="M95.8905 32.0781C111.969 32.0781 125.012 45.1812 125.012 61.3549C125.012 77.5286 111.969 90.6319 95.8905 90.6319C79.8118 90.6315 66.7696 77.5284 66.7695 61.3549C66.7695 45.1813 79.8117 32.0783 95.8905 32.0781Z" fill="white" stroke="#111B22" stroke-width="1.88472"/>
<path d="M94.5195 37.9171C99.018 37.6468 103.499 38.6834 107.407 40.9042C111.313 43.1241 114.47 46.4262 116.49 50.3982L96.1033 60.2607L94.5195 37.9171Z" fill="#0078CE" stroke="#111B22" stroke-width="0.414917"/>
<path d="M96.6839 77.1C97.034 77.1002 97.3138 77.3794 97.3138 77.7185V82.6735C97.3136 83.0123 97.0347 83.2908 96.685 83.2909C96.3349 83.2908 96.0552 83.0116 96.0552 82.6724V77.7174C96.0553 77.3787 96.3343 77.1001 96.6839 77.1ZM104.342 74.9368C104.63 74.743 105.022 74.8174 105.217 75.1L108.356 79.642C108.549 79.923 108.477 80.3061 108.191 80.499C107.903 80.693 107.51 80.6186 107.314 80.3359L104.177 75.7949C103.982 75.5137 104.055 75.1298 104.342 74.9368ZM88.0388 74.9368C88.209 74.6399 88.5937 74.5326 88.8978 74.7026C89.2002 74.8715 89.3042 75.2485 89.1353 75.5441L86.4146 80.2926C86.2443 80.5897 85.8597 80.6968 85.5555 80.5269C85.2532 80.3578 85.1489 79.9809 85.318 79.6854L88.0388 74.9368ZM81.9779 68.9349C82.2745 68.7538 82.6628 68.8448 82.8452 69.1352C83.0266 69.4243 82.937 69.8046 82.6418 69.9849L78.2485 72.6695C77.9518 72.8507 77.5625 72.7599 77.3801 72.4692C77.1989 72.1802 77.2887 71.7999 77.5835 71.6194L81.9779 68.9349ZM110.213 69.2209C110.38 68.9222 110.764 68.8116 111.07 68.9783L115.883 71.6029C116.187 71.769 116.295 72.1451 116.129 72.4424C115.962 72.7412 115.578 72.8519 115.272 72.685L110.46 70.0603C110.155 69.8942 110.047 69.5181 110.213 69.2209ZM96.3288 57.2809C97.2993 57.281 98.1914 57.6066 98.9008 58.1523L95.7031 59.9768C94.9038 60.4326 94.6277 61.4438 95.0908 62.2359C95.5529 63.0267 96.5747 63.2959 97.3726 62.841L100.498 61.0579C100.508 61.1736 100.515 61.2908 100.515 61.4089C100.514 63.6859 98.6432 65.5367 96.3288 65.5369C94.0142 65.5369 92.1421 63.686 92.1419 61.4089C92.1419 59.1317 94.0141 57.2809 96.3288 57.2809ZM99.2353 58.4394C99.8405 59.0157 100.269 59.7697 100.436 60.6159L97.1662 62.4807C96.5638 62.8237 95.7952 62.6184 95.4491 62.0264C95.1039 61.4357 95.3077 60.6798 95.9085 60.3371L99.2353 58.4394ZM74.7772 60.7905H80.0079C80.3579 60.7905 80.6375 61.0699 80.6377 61.4089C80.6378 61.748 80.3589 62.0274 80.0089 62.0274H74.7782C74.4281 62.0273 74.1485 61.747 74.1484 61.4078C74.1485 61.0691 74.4274 60.7904 74.7772 60.7905ZM113.275 60.5282L118.507 60.5292C118.857 60.5293 119.136 60.8087 119.136 61.1476C119.136 61.4866 118.857 61.7662 118.507 61.7662L113.276 61.7651C112.926 61.7651 112.646 61.4858 112.646 61.1467C112.646 60.8077 112.925 60.5284 113.275 60.5282ZM114.74 49.6011C115.341 49.2579 116.11 49.4632 116.457 50.0554C116.801 50.6461 116.598 51.4021 115.997 51.7446L100.814 60.4001C100.622 59.5639 100.198 58.816 99.6101 58.2257L114.74 49.6011ZM76.9485 50.3693C77.1185 50.0722 77.5034 49.9654 77.8076 50.1349L82.6201 52.8195C82.9225 52.9883 83.0273 53.3644 82.8587 53.6599C82.6887 53.9571 82.3038 54.0649 81.9996 53.8954L77.187 51.2108C76.8844 51.0418 76.7795 50.6649 76.9485 50.3693ZM85.318 42.3064C85.6123 42.1214 86.0024 42.2082 86.1885 42.4964L89.1177 47.0384C89.3028 47.3252 89.2185 47.7071 88.9256 47.8913C88.6314 48.0764 88.2412 47.9898 88.0553 47.7013L85.126 43.1593C84.9411 42.8725 85.0254 42.4906 85.318 42.3064Z" fill="#111B22" stroke="#111B22" stroke-width="0.414917"/>
<g filter="url(#filter0_d_56008_734141)">
<path d="M115.966 106.001C126.769 106.001 135.526 97.2435 135.526 86.4409C135.526 75.6382 126.769 66.8809 115.966 66.8809C105.164 66.8809 96.4062 75.6382 96.4062 86.4409C96.4062 97.2435 105.164 106.001 115.966 106.001Z" fill="#BFDBEE" stroke="#0078CE" stroke-width="2.30117"/>
</g>
<path d="M105.621 69.2812C105.621 69.2812 101.915 82.0726 109.771 84.6657C117.626 87.2587 122.941 98.3027 118.678 101.671C117.161 102.87 116.784 103.397 116.927 103.58L119.153 103.11C119.153 103.11 117.187 103.91 116.927 103.58L114.638 104.064C113.186 104.37 111.677 104.386 110.308 103.815C108.811 103.19 107.009 102.26 105.309 101.269C104.191 100.617 103.232 99.7272 102.495 98.6632C101.324 96.9763 99.9355 94.8309 98.8062 92.9925C97.7623 91.2931 97.1596 89.3629 96.995 87.3753C96.7251 84.1162 96.5633 79.8066 97.8306 77.3715C98.1867 76.6873 98.6578 76.0623 99.0168 75.3796C100.595 72.3788 101.999 71.1098 105.621 69.2812Z" fill="#0078CE" fill-opacity="0.2"/>
<path d="M124.203 79.8191L117.214 86.739L124.205 93.66L123.265 94.5894L116.274 87.6685L109.283 94.5894L108.345 93.66L115.336 86.739L108.346 79.8191L109.284 78.8896L116.274 85.8096L123.265 78.8896L124.203 79.8191Z" fill="#BFDBEE" stroke="#0078CE" stroke-width="1.95822"/>
</g>
<defs>
<filter id="filter0_d_56008_734141" x="81.9793" y="59.0922" width="67.9741" height="67.9741" filterUnits="userSpaceOnUse" color-interpolation-filters="sRGB">
<feFlood flood-opacity="0" result="BackgroundImageFix"/>
<feColorMatrix in="SourceAlpha" type="matrix" values="0 0 0 0 0 0 0 0 0 0 0 0 0 0 0 0 0 0 127 0" result="hardAlpha"/>
<feOffset dy="6.6383"/>
<feGaussianBlur stdDeviation="6.6383"/>
<feColorMatrix type="matrix" values="0 0 0 0 0.0705882 0 0 0 0 0.105882 0 0 0 0 0.129412 0 0 0 0.1 0"/>
<feBlend mode="normal" in2="BackgroundImageFix" result="effect1_dropShadow_56008_734141"/>
<feBlend mode="normal" in="SourceGraphic" in2="effect1_dropShadow_56008_734141" result="shape"/>
</filter>
<clipPath id="clip0_56008_734141">
<rect width="196" height="121" fill="white"/>
</clipPath>
</defs>
</svg>
