<svg width="196" height="121" viewBox="0 0 196 121" fill="none" xmlns="http://www.w3.org/2000/svg">
<g clip-path="url(#clip0_56415_738101)">
<mask id="mask0_56415_738101" style="mask-type:luminance" maskUnits="userSpaceOnUse" x="0" y="0" width="196" height="121">
<path d="M196 0H0V121H196V0Z" fill="white"/>
</mask>
<g mask="url(#mask0_56415_738101)">
<path d="M78.8257 21.6289H123.109C124.211 21.6289 125.268 22.2012 126.047 23.2198C126.826 24.2385 127.264 25.6201 127.264 27.0607V95.9463C127.264 97.3869 126.826 98.7684 126.047 99.7871C125.268 100.806 124.211 101.378 123.109 101.378H73.151C72.0493 101.378 70.9926 100.806 70.2136 99.7871C69.4345 98.7684 68.9968 97.3869 68.9968 95.9463V34.6108L78.8257 21.6289Z" fill="white"/>
<path fill-rule="evenodd" clip-rule="evenodd" d="M78.1252 21.0993C78.2913 20.8799 78.5506 20.751 78.8258 20.751H123.11C124.532 20.751 125.831 21.4911 126.745 22.6868C127.656 23.8775 128.143 25.453 128.143 27.0615V95.9471C128.143 97.5557 127.656 99.1311 126.745 100.322C125.831 101.518 124.532 102.258 123.11 102.258H73.1512C71.7286 102.258 70.4302 101.518 69.5156 100.322C68.605 99.1311 68.1182 97.5557 68.1182 95.9471V34.6117C68.1182 34.4202 68.1807 34.2339 68.2963 34.0812L78.1252 21.0993ZM79.2627 22.5086L69.8757 34.9068V95.9471C69.8757 97.2198 70.2642 98.4075 70.9117 99.2541C71.5554 100.096 72.3701 100.5 73.1512 100.5H123.11C123.891 100.5 124.705 100.096 125.349 99.2541C125.997 98.4075 126.385 97.2198 126.385 95.9471V27.0615C126.385 25.7889 125.997 24.6012 125.349 23.7546C124.705 22.913 123.891 22.5086 123.11 22.5086H79.2627Z" fill="#111B22"/>
<path d="M68.9968 34.6108H77.0477C77.52 34.6079 77.9722 34.3606 78.3054 33.9229C78.6386 33.4852 78.8257 32.8927 78.8257 32.2752V21.6289L68.9968 34.6108Z" fill="white"/>
<path d="M77.9472 24.2455L70.765 33.7328H77.043C77.1957 33.7317 77.4078 33.6527 77.6063 33.392C77.8089 33.1259 77.9472 32.7264 77.9472 32.2764V24.2455ZM79.7051 32.2764C79.705 33.0612 79.4688 33.8468 79.0052 34.456C78.5376 35.0702 77.8449 35.4859 77.0531 35.4907H68.997C68.6634 35.4907 68.3586 35.3018 68.2101 35.0032C68.0616 34.7046 68.0949 34.3477 68.296 34.0818L78.1252 21.0999C78.353 20.7991 78.7475 20.6765 79.1053 20.7965C79.4632 20.9167 79.7051 21.2524 79.7051 21.6299V32.2764Z" fill="#111B22"/>
<path d="M82.5098 95.5421C82.1259 95.5421 81.8016 95.4074 81.5368 95.138C81.2721 94.8687 81.1397 94.532 81.1397 94.128V92.6331L81.7354 93.1785C80.8485 93.1381 80.0808 93.0236 79.4322 92.8351C78.7835 92.6465 78.2541 92.458 77.8437 92.2694C77.4996 92.1078 77.2547 91.8789 77.1091 91.5826C76.9767 91.2863 76.9237 90.9833 76.9502 90.6735C76.9899 90.3638 77.1024 90.0809 77.2878 89.825C77.4731 89.5692 77.7114 89.4008 78.0026 89.32C78.307 89.2257 78.6578 89.2661 79.0549 89.4412C79.3196 89.5894 79.7168 89.7442 80.2462 89.9059C80.789 90.054 81.4574 90.1281 82.2516 90.1281C82.8076 90.1281 83.2444 90.0742 83.5621 89.9665C83.893 89.8587 84.1247 89.7173 84.2571 89.5422C84.4027 89.3537 84.4755 89.1517 84.4755 88.9362C84.4755 88.7342 84.4225 88.5658 84.3166 88.4311C84.224 88.283 84.0651 88.1551 83.8401 88.0473C83.6151 87.9261 83.304 87.8184 82.9069 87.7241L80.6632 87.2393C79.4322 86.9564 78.5122 86.4851 77.9033 85.8251C77.3076 85.1518 77.0098 84.2831 77.0098 83.2192C77.0098 82.4111 77.2017 81.6906 77.5856 81.0576C77.9827 80.4111 78.532 79.8859 79.2336 79.4819C79.9484 79.0778 80.7823 78.822 81.7354 78.7142L81.1397 79.0576V77.7041C81.1397 77.3001 81.2721 76.9634 81.5368 76.6941C81.8016 76.4247 82.1259 76.29 82.5098 76.29C82.9069 76.29 83.2378 76.4247 83.5025 76.6941C83.7673 76.9634 83.8997 77.3001 83.8997 77.7041V79.0576L83.304 78.6738C83.807 78.6873 84.3497 78.7748 84.9321 78.9364C85.5146 79.0846 86.0242 79.2933 86.461 79.5627C86.7655 79.7243 86.9773 79.9465 87.0964 80.2293C87.2288 80.5122 87.2751 80.8017 87.2354 81.098C87.2089 81.3808 87.103 81.6367 86.9177 81.8657C86.7456 82.0946 86.5074 82.2495 86.2029 82.3303C85.9117 82.3976 85.5609 82.3438 85.1506 82.1687C84.8461 82.034 84.5019 81.9263 84.1181 81.8455C83.7474 81.7512 83.2709 81.704 82.6885 81.704C81.9869 81.704 81.4442 81.832 81.0603 82.0879C80.6897 82.3438 80.5044 82.6737 80.5044 83.0777C80.5044 83.3471 80.6103 83.576 80.822 83.7646C81.0471 83.9397 81.4508 84.0946 82.0332 84.2292L84.2968 84.7343C85.5543 85.0171 86.4809 85.4885 87.0765 86.1484C87.6854 86.7948 87.9899 87.6366 87.9899 88.6736C87.9899 89.4816 87.798 90.1954 87.4141 90.8149C87.0302 91.4344 86.4941 91.9395 85.8058 92.33C85.1307 92.7206 84.3431 92.9765 83.443 93.0977L83.8997 92.6129V94.128C83.8997 94.532 83.7673 94.8687 83.5025 95.138C83.251 95.4074 82.9201 95.5421 82.5098 95.5421Z" fill="#0078CE"/>
<path d="M98.1306 88.25C98.1306 90.5152 98.5745 92.7582 99.437 94.851C100.299 96.9437 101.564 98.8452 103.157 100.447C104.751 102.049 106.643 103.319 108.725 104.186C110.807 105.053 113.039 105.499 115.293 105.499C117.546 105.499 119.778 105.053 121.86 104.186C123.943 103.319 125.834 102.049 127.428 100.447C129.022 98.8452 130.286 96.9437 131.148 94.851C132.011 92.7582 132.455 90.5152 132.455 88.25C132.455 83.6753 130.647 79.2879 127.428 76.0531C124.21 72.8183 119.844 71.001 115.293 71.001C110.741 71.001 106.376 72.8183 103.157 76.0531C99.9388 79.2879 98.1306 83.6753 98.1306 88.25Z" fill="#BFDBEE"/>
<path d="M131.317 88.2502C131.317 83.9754 129.628 79.8764 126.622 76.8554C123.616 73.8346 119.541 72.139 115.293 72.139C111.045 72.139 106.969 73.8346 103.964 76.8554C100.958 79.8764 99.2687 83.9754 99.2687 88.2502C99.2687 90.3668 99.6837 92.4629 100.489 94.418C101.295 96.3728 102.476 98.1485 103.964 99.6441C105.452 101.14 107.219 102.326 109.163 103.136C111.106 103.945 113.189 104.361 115.293 104.361C117.396 104.361 119.48 103.945 121.423 103.136C123.367 102.326 125.134 101.14 126.622 99.6441C128.11 98.1485 129.291 96.3728 130.096 94.418C130.902 92.4629 131.317 90.3668 131.317 88.2502ZM133.593 88.2502C133.593 90.664 133.119 93.0544 132.2 95.2848C131.281 97.5149 129.934 99.5418 128.235 101.249C126.536 102.957 124.519 104.312 122.298 105.236C120.077 106.161 117.697 106.637 115.293 106.637C112.889 106.637 110.508 106.161 108.288 105.236C106.067 104.312 104.049 102.957 102.351 101.249C100.652 99.5418 99.3048 97.5149 98.3857 95.2848C97.4665 93.0544 96.9929 90.664 96.9929 88.2502C96.9929 83.3758 98.9195 78.6998 102.351 75.2512C105.782 71.8024 110.438 69.8633 115.293 69.8633C120.148 69.8633 124.804 71.8024 128.235 75.2512C131.666 78.6998 133.593 83.3758 133.593 88.2502Z" fill="#0078CE"/>
<path d="M109.572 88.4177L113.17 92.0336L120.378 84.8018" fill="#BFDBEE"/>
<g clip-path="url(#clip1_56415_738101)">
<path d="M107.02 96.749H125.662" stroke="#0078CE" stroke-width="2.07143" stroke-linecap="round" stroke-linejoin="round"/>
<path d="M107.02 85.3545H125.662" stroke="#0078CE" stroke-width="2.07143" stroke-linecap="round" stroke-linejoin="round"/>
<path d="M109.091 81.2116L116.341 78.1045L123.591 81.2116" stroke="#0078CE" stroke-width="2.07143" stroke-linecap="round" stroke-linejoin="round"/>
<path d="M108.055 85.3545V96.7473" stroke="#0078CE" stroke-width="2.07143" stroke-linecap="round" stroke-linejoin="round"/>
<path d="M124.626 85.3545V96.7473" stroke="#0078CE" stroke-width="2.07143" stroke-linecap="round" stroke-linejoin="round"/>
<path d="M112.198 89.499V92.6062" stroke="#0078CE" stroke-width="2.07143" stroke-linecap="round" stroke-linejoin="round"/>
<path d="M116.341 89.499V92.6062" stroke="#0078CE" stroke-width="2.07143" stroke-linecap="round" stroke-linejoin="round"/>
<path d="M120.484 89.499V92.6062" stroke="#0078CE" stroke-width="2.07143" stroke-linecap="round" stroke-linejoin="round"/>
</g>
<path d="M75.2104 42.4217C75.2139 41.653 75.8399 41.0282 76.6086 41.0317L97.6148 41.1271C98.3835 41.1306 99.0037 41.7611 99.0002 42.5297V42.5297C98.9967 43.2984 98.3707 43.9232 97.6021 43.9197L76.5959 43.8243C75.8272 43.8208 75.2069 43.1904 75.2104 42.4217V42.4217Z" fill="#DCDCDC"/>
<path d="M98.9925 42.6718C98.9231 43.327 98.4 43.8491 97.7448 43.9133L97.6021 43.9197L76.5958 43.8243C75.8273 43.8208 75.2072 43.1907 75.2104 42.4222C75.2139 41.6535 75.8399 41.0283 76.6085 41.0317L97.6149 41.1271L97.7574 41.1348C98.4587 41.21 99.0035 41.8097 99.0002 42.5302L98.9925 42.6718Z" fill="#111B22"/>
<path d="M75.2722 59.908C75.2757 59.1394 75.9017 58.5145 76.6703 58.518L114.434 58.6895C115.203 58.693 115.823 59.3235 115.82 60.0922V60.0922C115.816 60.8608 115.19 61.4857 114.422 61.4822L76.6576 61.3107C75.889 61.3072 75.2687 60.6767 75.2722 59.908V59.908Z" fill="#DCDCDC"/>
<path d="M115.812 60.2342C115.737 60.9363 115.142 61.4854 114.421 61.4821L76.6576 61.3106C75.8891 61.3071 75.269 60.6769 75.2722 59.9085C75.2757 59.1399 75.9017 58.5146 76.6703 58.518L114.434 58.6895C115.203 58.693 115.823 59.324 115.819 60.0926L115.812 60.2342Z" fill="#111B22"/>
<path d="M75.1863 48.0067C75.1898 47.238 75.8158 46.6132 76.5844 46.6167L88.4818 46.6707C89.2505 46.6742 89.8707 47.3047 89.8672 48.0733V48.0733C89.8637 48.842 89.2378 49.4668 88.4691 49.4633L76.5717 49.4093C75.803 49.4058 75.1828 48.7753 75.1863 48.0067V48.0067Z" fill="#EEEEEE"/>
<path d="M89.8595 48.2154C89.7852 48.9176 89.1899 49.4666 88.4692 49.4633L76.5716 49.4093C75.8032 49.4058 75.183 48.7756 75.1863 48.0072C75.1898 47.2385 75.8157 46.6132 76.5844 46.6167L88.4819 46.6707C89.2505 46.6742 89.8707 47.3052 89.8672 48.0738L89.8595 48.2154Z" fill="#111B22"/>
<path d="M75.2517 65.4959C75.2552 64.7273 75.8812 64.1024 76.6498 64.1059L88.5472 64.16C89.3159 64.1635 89.9362 64.7939 89.9327 65.5626V65.5626C89.9292 66.3313 89.3032 66.9561 88.5345 66.9526L76.6371 66.8986C75.8685 66.8951 75.2482 66.2646 75.2517 65.4959V65.4959Z" fill="#EEEEEE"/>
<path d="M89.9249 65.7047C89.8506 66.4068 89.2553 66.9559 88.5346 66.9526L76.6371 66.8986C75.8686 66.895 75.2485 66.2649 75.2517 65.4964C75.2552 64.7278 75.8812 64.1025 76.6498 64.1059L88.5473 64.16C89.316 64.1635 89.9362 64.7944 89.9327 65.5631L89.9249 65.7047Z" fill="#111B22"/>
<path d="M107.291 82.9247C101.058 78.277 108.252 72.9583 108.252 72.9583C103.523 75.1285 101.509 77.1277 99.2839 81.1711C98.9976 81.6915 98.781 82.2492 98.6401 82.8263C98.0948 85.0592 97.8723 86.7623 97.8366 88.7517C97.799 90.8442 98.3569 92.908 99.3728 94.7385C99.9923 95.8547 100.619 96.8845 101.408 98.0796C102.16 99.2186 103.13 100.206 104.293 100.92C106.468 102.254 108.368 103.075 110.039 103.609C110.972 103.908 111.953 104.007 112.933 103.996L116.715 103.954C116.715 103.954 112.691 102.671 118.081 98.7156C123.471 94.7598 113.524 87.5724 107.291 82.9247Z" fill="#0078CE" fill-opacity="0.2"/>
<path d="M60.9914 32.218C60.3876 32.3559 60.0074 32.9578 60.1421 33.5623V33.5623C60.2768 34.1668 60.8755 34.545 61.4793 34.4071L66.7524 33.2023C67.3562 33.0643 67.7364 32.4624 67.6017 31.858V31.858C67.467 31.2535 66.8683 30.8752 66.2645 31.0132L60.9914 32.218Z" fill="#999999"/>
<path d="M66.7528 33.2018L66.8631 33.1714C67.4017 32.9894 67.7276 32.4249 67.6015 31.8583L67.5715 31.7469C67.4044 31.2439 66.9038 30.9284 66.3777 30.9935L66.265 31.0131L60.9917 32.2179C60.3879 32.3559 60.0075 32.9581 60.1422 33.5626C60.277 34.1669 60.8758 34.5445 61.4795 34.4066L66.7528 33.2018Z" fill="#0078CE"/>
<path d="M75.5475 14.7345C75.4096 14.1158 74.7969 13.7287 74.1789 13.8699V13.8699C73.5609 14.0111 73.1718 14.6271 73.3096 15.2459L74.4365 20.3022C74.5744 20.921 75.1871 21.3081 75.8051 21.1669V21.1669C76.4231 21.0257 76.8122 20.4097 76.6744 19.7909L75.5475 14.7345Z" fill="#999999"/>
<path d="M74.4362 20.3027L74.4676 20.4159C74.6509 20.9674 75.2256 21.2987 75.8048 21.1665L75.9181 21.1354C76.4328 20.9617 76.7579 20.4466 76.6941 19.9072L76.6744 19.7913L75.5476 14.7348C75.4097 14.116 74.7967 13.7288 74.1787 13.87C73.5609 14.0112 73.1714 14.6275 73.3093 15.2462L74.4362 20.3027Z" fill="#0078CE"/>
<path d="M64.348 20.7683C63.8129 20.4389 63.1021 20.5993 62.7604 21.1266V21.1266C62.4187 21.6539 62.5755 22.3484 63.1106 22.6778L67.5974 25.4396C68.1325 25.769 68.8432 25.6086 69.1849 25.0813V25.0813C69.5266 24.554 69.3699 23.8595 68.8348 23.5301L64.348 20.7683Z" fill="#999999"/>
<path d="M67.5972 25.44L67.6996 25.4958C68.2198 25.7476 68.8647 25.5757 69.185 25.0815L69.2431 24.9807C69.4881 24.5029 69.357 23.9226 68.9306 23.5962L68.8348 23.5302L64.3482 20.7683C63.8131 20.439 63.102 20.5995 62.7603 21.1268C62.4188 21.654 62.5755 22.3488 63.1105 22.6781L67.5972 25.44Z" fill="#0078CE"/>
</g>
</g>
<defs>
<clipPath id="clip0_56415_738101">
<rect width="196" height="121" fill="white"/>
</clipPath>
<clipPath id="clip1_56415_738101">
<rect width="24.8571" height="24.8571" fill="white" transform="translate(103.913 74.999)"/>
</clipPath>
</defs>
</svg>
