<svg width="196" height="121" viewBox="0 0 196 121" fill="none" xmlns="http://www.w3.org/2000/svg">
<rect x="56.5312" y="28.2231" width="79.5423" height="61.4186" fill="#BFDBEE"/>
<path d="M122.753 50.3769C107.771 40.8411 103.828 29.9147 103.828 29.9147L131.23 27.5308L136.553 31.7027V46.205V80.7723L134.779 88.3214L123.936 89.7121C123.936 89.7121 117 76.51 117.431 67.4619C117.763 60.4767 137.736 59.9127 122.753 50.3769Z" fill="#0078CE" fill-opacity="0.2"/>
<path fill-rule="evenodd" clip-rule="evenodd" d="M60.262 29.8881C58.5011 29.8881 57.0717 31.3273 57.0717 33.0945V53.5567C57.0717 54.4191 56.378 55.1182 55.5222 55.1182C54.6664 55.1182 53.9727 54.4191 53.9727 53.5567V33.0945C53.9727 29.5953 56.7968 26.7651 60.262 26.7651H131.61C135.075 26.7651 137.899 29.5953 137.899 33.0945V84.1508C137.899 87.6464 135.087 90.4801 131.618 90.4801H106.357V100.469H111.51C112.366 100.469 113.06 101.168 113.06 102.03C113.06 102.893 112.366 103.592 111.51 103.592H78.9819C78.1261 103.592 77.4323 102.893 77.4323 102.03C77.4323 101.168 78.1261 100.469 78.9819 100.469H85.3179V90.4801H78.9819C78.1261 90.4801 77.4323 89.781 77.4323 88.9186C77.4323 88.0563 78.1261 87.3572 78.9819 87.3572H131.618C133.376 87.3572 134.8 85.9216 134.8 84.1508V33.0945C134.8 31.3273 133.371 29.8881 131.61 29.8881H60.262ZM88.417 90.4801V100.469H103.258V90.4801H88.417Z" fill="#111B22"/>
<path d="M96.5287 82.1614C96.5287 83.2586 95.6461 84.1481 94.5573 84.1481C93.4686 84.1481 92.5859 83.2586 92.5859 82.1614C92.5859 81.0642 93.4686 80.1748 94.5573 80.1748C95.6461 80.1748 96.5287 81.0642 96.5287 82.1614Z" fill="#111B22"/>
<rect x="-0.545761" y="0.711279" width="1.27087" height="7.35114" rx="0.635434" transform="matrix(0.132867 0.991134 -0.991745 0.128226 152.896 29.5228)" stroke="#0078CE" stroke-width="1.27087"/>
<rect x="0.727231" y="0.558" width="1.2933" height="7.17915" rx="0.646651" transform="matrix(0.991745 -0.128226 0.132866 0.991134 128.971 14.4297)" stroke="#0078CE" stroke-width="1.2933"/>
<rect x="0.117553" y="0.893048" width="1.28514" height="7.24237" rx="0.642568" transform="matrix(0.798631 0.601821 -0.615688 0.78799 144.765 16.7636)" stroke="#0078CE" stroke-width="1.28514"/>
<path d="M71.5246 72.2632V83.1578C71.5246 84.9417 70.5826 86.5982 69.0599 87.5061L59.7348 92.9693C58.2121 93.8613 56.3282 93.8613 54.7897 92.9693L45.4647 87.5061C43.9419 86.6142 43 84.9576 43 83.1578V72.2632C43 70.4793 43.9419 68.8228 45.4647 67.9149L54.7897 62.4517C56.3125 61.5597 58.1964 61.5597 59.7348 62.4517L69.0599 67.9149C70.5826 68.8228 71.5246 70.4634 71.5246 72.2632Z" fill="#BFDBEE" stroke="#111B22" stroke-width="1.99097" stroke-linecap="round" stroke-linejoin="round"/>
<path d="M57.2789 76.1186C59.299 76.1186 60.9367 74.457 60.9367 72.4074C60.9367 70.3578 59.299 68.6963 57.2789 68.6963C55.2587 68.6963 53.6211 70.3578 53.6211 72.4074C53.6211 74.457 55.2587 76.1186 57.2789 76.1186Z" fill="#BFDBEE" stroke="#111B22" stroke-width="1.99097" stroke-linecap="round" stroke-linejoin="round"/>
<path d="M63.5551 85.1347C63.5551 82.2678 60.745 79.9424 57.2756 79.9424C53.8062 79.9424 50.9961 82.2678 50.9961 85.1347" fill="#BFDBEE"/>
<path d="M63.5551 85.1347C63.5551 82.2678 60.745 79.9424 57.2756 79.9424C53.8062 79.9424 50.9961 82.2678 50.9961 85.1347" stroke="#111B22" stroke-width="1.99097" stroke-linecap="round" stroke-linejoin="round"/>
<path d="M108.874 49.3423V72.0396H79.4521V49.3423H108.874Z" fill="#D2D2D2" stroke="#17222B" stroke-width="1.54467"/>
<path d="M109.534 40.874H78.9954C77.8071 40.874 76.8438 41.8376 76.8438 43.0262V49.5616C76.8438 50.7502 77.8071 51.7138 78.9954 51.7138H109.534C110.723 51.7138 111.686 50.7502 111.686 49.5616V43.0262C111.686 41.8376 110.723 40.874 109.534 40.874Z" fill="white" stroke="#17222B" stroke-width="0.774271" stroke-linecap="round" stroke-linejoin="round"/>
<path d="M82.6553 45.1577C83.2697 45.1577 83.7646 45.6543 83.7646 46.2632C83.7645 46.872 83.2696 47.3687 82.6553 47.3687C82.041 47.3686 81.546 46.872 81.5459 46.2632C81.5459 45.6543 82.0409 45.1577 82.6553 45.1577Z" fill="#D2D2D2" stroke="#17222B" stroke-width="1.54467"/>
<path d="M85.8431 45.3681V47.6207C85.8431 47.9895 85.6483 48.3321 85.3335 48.5198L83.4054 49.6493C83.0906 49.8338 82.7011 49.8338 82.383 49.6493L80.4549 48.5198C80.1401 48.3353 79.9453 47.9928 79.9453 47.6207V45.3681C79.9453 44.9993 80.1401 44.6568 80.4549 44.4691L82.383 43.3395C82.6978 43.1551 83.0873 43.1551 83.4054 43.3395L85.3335 44.4691C85.6483 44.6568 85.8431 44.996 85.8431 45.3681Z" fill="white" stroke="#17222B" stroke-width="0.580703" stroke-linecap="round" stroke-linejoin="round"/>
<path d="M82.893 46.1665C83.3107 46.1665 83.6493 45.8229 83.6493 45.3991C83.6493 44.9754 83.3107 44.6318 82.893 44.6318C82.4753 44.6318 82.1367 44.9754 82.1367 45.3991C82.1367 45.8229 82.4753 46.1665 82.893 46.1665Z" stroke="#17222B" stroke-width="0.580703" stroke-linecap="round" stroke-linejoin="round"/>
<path d="M84.1905 48.0306C84.1905 47.4378 83.6094 46.957 82.8921 46.957C82.1748 46.957 81.5938 47.4378 81.5938 48.0306" stroke="#17222B" stroke-width="0.580703" stroke-linecap="round" stroke-linejoin="round"/>
<rect x="87.4904" y="45.3303" width="6.58131" height="0.774271" rx="0.387136" fill="#17222B" stroke="#17222B" stroke-width="0.387136"/>
<rect x="87.4904" y="47.2668" width="9.29125" height="0.774271" rx="0.387136" fill="#17222B" stroke="#17222B" stroke-width="0.387136"/>
<path d="M109.534 52.8701H78.9954C77.8071 52.8701 76.8438 53.8337 76.8438 55.0223V61.5577C76.8438 62.7463 77.8071 63.7099 78.9954 63.7099H109.534C110.723 63.7099 111.686 62.7463 111.686 61.5577V55.0223C111.686 53.8337 110.723 52.8701 109.534 52.8701Z" fill="white" stroke="#17222B" stroke-width="0.774271" stroke-linecap="round" stroke-linejoin="round"/>
<path d="M85.8656 56.9714V59.2222C85.8656 59.5908 85.6701 59.933 85.3541 60.1206L83.4186 61.2493C83.1026 61.4335 82.7116 61.4335 82.3923 61.2493L80.4569 60.1206C80.1408 59.9363 79.9453 59.594 79.9453 59.2222V56.9714C79.9453 56.6029 80.1408 56.2606 80.4569 56.073L82.3923 54.9444C82.7083 54.7601 83.0993 54.7601 83.4186 54.9444L85.3541 56.073C85.6701 56.2606 85.8656 56.5996 85.8656 56.9714Z" fill="white" stroke="#17222B" stroke-width="0.580703" stroke-linecap="round" stroke-linejoin="round"/>
<path d="M82.9076 57.7678C83.3269 57.7678 83.6668 57.4245 83.6668 57.0011C83.6668 56.5776 83.3269 56.2344 82.9076 56.2344C82.4883 56.2344 82.1484 56.5776 82.1484 57.0011C82.1484 57.4245 82.4883 57.7678 82.9076 57.7678Z" stroke="#17222B" stroke-width="0.580703" stroke-linecap="round" stroke-linejoin="round"/>
<path d="M84.216 59.6289C84.216 59.0366 83.6328 58.5562 82.9127 58.5562C82.1926 58.5562 81.6094 59.0366 81.6094 59.6289" stroke="#17222B" stroke-width="0.580703" stroke-linecap="round" stroke-linejoin="round"/>
<rect x="87.5256" y="56.9328" width="13.2144" height="0.773358" rx="0.386679" fill="#17222B" stroke="#17222B" stroke-width="0.387136"/>
<rect x="87.5256" y="58.8689" width="10.1055" height="0.773358" rx="0.386679" fill="#17222B" stroke="#17222B" stroke-width="0.387136"/>
<path d="M106.314 57.127C106.936 57.127 107.431 57.6259 107.432 58.2305C107.432 58.8352 106.936 59.335 106.314 59.335C105.693 59.3347 105.198 58.8351 105.198 58.2305C105.198 57.626 105.693 57.1272 106.314 57.127Z" fill="#D2D2D2" stroke="#17222B" stroke-width="1.54467"/>
<path d="M109.534 64.8765H78.9954C77.8071 64.8765 76.8438 65.8401 76.8438 67.0287V73.564C76.8438 74.7527 77.8071 75.7163 78.9954 75.7163H109.534C110.723 75.7163 111.686 74.7527 111.686 73.564V67.0287C111.686 65.8401 110.723 64.8765 109.534 64.8765Z" fill="white" stroke="#17222B" stroke-width="0.774271" stroke-linecap="round" stroke-linejoin="round"/>
<path d="M85.8656 68.9861V71.2368C85.8656 71.6054 85.6701 71.9476 85.3541 72.1352L83.4186 73.2639C83.1026 73.4482 82.7116 73.4482 82.3923 73.2639L80.4569 72.1352C80.1408 71.9509 79.9453 71.6087 79.9453 71.2368V68.9861C79.9453 68.6175 80.1408 68.2753 80.4569 68.0877L82.3923 66.959C82.7083 66.7747 83.0993 66.7747 83.4186 66.959L85.3541 68.0877C85.6701 68.2753 85.8656 68.6142 85.8656 68.9861Z" fill="white" stroke="#17222B" stroke-width="0.580703" stroke-linecap="round" stroke-linejoin="round"/>
<path d="M82.9076 69.781C83.3269 69.781 83.6668 69.4377 83.6668 69.0143C83.6668 68.5908 83.3269 68.2476 82.9076 68.2476C82.4883 68.2476 82.1484 68.5908 82.1484 69.0143C82.1484 69.4377 82.4883 69.781 82.9076 69.781Z" stroke="#17222B" stroke-width="0.580703" stroke-linecap="round" stroke-linejoin="round"/>
<path d="M84.216 71.6421C84.216 71.0498 83.6328 70.5693 82.9127 70.5693C82.1926 70.5693 81.6094 71.0498 81.6094 71.6421" stroke="#17222B" stroke-width="0.580703" stroke-linecap="round" stroke-linejoin="round"/>
<rect x="87.5256" y="68.9411" width="13.2144" height="0.773358" rx="0.386679" fill="#17222B" stroke="#17222B" stroke-width="0.387136"/>
<rect x="87.5256" y="70.8781" width="10.1055" height="0.773358" rx="0.386679" fill="#17222B" stroke="#17222B" stroke-width="0.387136"/>
<path d="M106.314 69.1348C106.936 69.1348 107.431 69.6337 107.432 70.2383C107.432 70.843 106.936 71.3428 106.314 71.3428C105.693 71.3426 105.198 70.8429 105.198 70.2383C105.198 69.6338 105.693 69.135 106.314 69.1348Z" fill="#D2D2D2" stroke="#17222B" stroke-width="1.54467"/>
</svg>
