<svg width="196" height="121" viewBox="0 0 196 121" fill="none" xmlns="http://www.w3.org/2000/svg">
<rect x="-0.441362" y="0.326261" width="0.777235" height="4.53107" rx="0.388618" transform="matrix(-0.146399 0.988691 -0.989324 -0.149147 128.168 27.2307)" fill="#999999" stroke="#0078CE" stroke-width="0.777235"/>
<rect x="0.335587" y="0.452999" width="0.796245" height="4.38532" rx="0.398123" transform="matrix(0.989324 0.149147 -0.146399 0.988691 116.808 14.1494)" fill="#999999" stroke="#0078CE" stroke-width="0.796245"/>
<rect x="-0.0825294" y="0.544865" width="0.78934" height="4.43897" rx="0.39467" transform="matrix(0.603745 0.794775 -0.812855 0.585783 125.731 18.3992)" fill="#999999" stroke="#0078CE" stroke-width="0.78934"/>
<path d="M113.755 64.6997H79.3116C75.8272 64.6997 73.002 61.8149 73.002 58.3102V52.0399C73.002 48.5114 75.8507 45.6504 79.3116 45.6504H113.755C117.24 45.6504 120.065 48.5352 120.065 52.0399V58.3102C120.065 61.8149 117.216 64.6997 113.755 64.6997Z" fill="#ACD2EC" stroke="#111B22" stroke-width="1.68082" stroke-linecap="round" stroke-linejoin="round"/>
<path d="M82.5254 52.8408V57.5098" stroke="#111B22" stroke-width="1.68082" stroke-linecap="round" stroke-linejoin="round"/>
<path d="M91.8633 52.8408V57.5098" stroke="#111B22" stroke-width="1.68082" stroke-linecap="round" stroke-linejoin="round"/>
<path d="M101.203 55.1748H110.541" stroke="#111B22" stroke-width="1.68082" stroke-linecap="round" stroke-linejoin="round"/>
<path d="M113.755 41.7329H79.3116C75.8272 41.7329 73.002 38.8481 73.002 35.3434V29.0731C73.002 25.5446 75.8507 22.6836 79.3116 22.6836H113.755C117.24 22.6836 120.065 25.5684 120.065 29.0731V35.3434C120.065 38.8481 117.216 41.7329 113.755 41.7329Z" fill="#ACD2EC" stroke="#111B22" stroke-width="1.68082" stroke-linecap="round" stroke-linejoin="round"/>
<path d="M82.5254 29.8745V34.5435" stroke="#111B22" stroke-width="1.68082" stroke-linecap="round" stroke-linejoin="round"/>
<path d="M91.8633 29.8745V34.5435" stroke="#111B22" stroke-width="1.68082" stroke-linecap="round" stroke-linejoin="round"/>
<path d="M101.203 32.208H110.541" stroke="#111B22" stroke-width="1.68082" stroke-linecap="round" stroke-linejoin="round"/>
<path d="M113.757 68.3423C117.717 68.3425 120.906 71.6161 120.906 75.5728V77.7466C119.188 76.6279 117.065 76.0333 114.774 76.0591C109.121 76.1229 104.593 81.0649 104.661 87.0981C104.669 87.7731 104.737 88.4329 104.854 89.0728H79.3125C75.3524 89.0725 72.1623 85.7997 72.1621 81.8433V75.5728C72.1621 71.5882 75.3798 68.3426 79.3125 68.3423H113.757ZM82.5283 76.0923C82.3738 76.0924 82.2483 76.2181 82.248 76.3726V81.0415C82.248 81.1961 82.3737 81.3217 82.5283 81.3218C82.683 81.3218 82.8086 81.1962 82.8086 81.0415V76.3726C82.8084 76.218 82.6829 76.0923 82.5283 76.0923ZM91.8652 76.0923C91.7107 76.0923 91.5852 76.218 91.585 76.3726V81.0415C91.585 81.1962 91.7105 81.3218 91.8652 81.3218C92.02 81.3218 92.1455 81.1962 92.1455 81.0415V76.3726C92.1453 76.218 92.0198 76.0923 91.8652 76.0923ZM101.018 78.4272C100.863 78.4272 100.737 78.5528 100.737 78.7075C100.738 78.8621 100.863 78.9878 101.018 78.9878H103.819C103.974 78.9875 104.098 78.8619 104.099 78.7075C104.099 78.553 103.974 78.4275 103.819 78.4272H101.018Z" fill="#ACD2EC"/>
<path fill-rule="evenodd" clip-rule="evenodd" d="M82.5252 76.0926C82.3705 76.0926 82.2451 76.2181 82.2451 76.3728V81.0415C82.2451 81.1963 82.3705 81.3217 82.5252 81.3217C82.68 81.3217 82.8054 81.1963 82.8054 81.0415V76.3728C82.8054 76.2181 82.68 76.0926 82.5252 76.0926ZM91.8628 76.0926C91.7081 76.0926 91.5827 76.2181 91.5827 76.3728V81.0415C91.5827 81.1963 91.7081 81.3217 91.8628 81.3217C92.0175 81.3217 92.1429 81.1963 92.1429 81.0415V76.3728C92.1429 76.2181 92.0175 76.0926 91.8628 76.0926ZM101.014 78.4267C100.86 78.4267 100.734 78.5522 100.734 78.7069C100.734 78.8616 100.86 78.987 101.014 78.987H103.816C103.97 78.987 104.096 78.8616 104.096 78.7069C104.096 78.5522 103.97 78.4267 103.816 78.4267H101.014Z" fill="#ACD2EC"/>
<path d="M120.904 78.2785V75.5718C120.904 71.615 117.715 68.3418 113.754 68.3418H79.3102C75.3773 68.3418 72.1602 71.587 72.1602 75.5718V81.842C72.1602 85.7988 75.3497 89.072 79.3102 89.072H104.688C104.667 88.7946 104.656 88.5143 104.656 88.2316M82.5252 76.0926C82.3705 76.0926 82.2451 76.2181 82.2451 76.3728V81.0415C82.2451 81.1963 82.3705 81.3217 82.5252 81.3217C82.68 81.3217 82.8054 81.1963 82.8054 81.0415V76.3728C82.8054 76.2181 82.68 76.0926 82.5252 76.0926ZM91.8628 76.0926C91.7081 76.0926 91.5827 76.2181 91.5827 76.3728V81.0415C91.5827 81.1963 91.7081 81.3217 91.8628 81.3217C92.0175 81.3217 92.1429 81.1963 92.1429 81.0415V76.3728C92.1429 76.2181 92.0175 76.0926 91.8628 76.0926ZM101.014 78.4267C100.86 78.4267 100.734 78.5522 100.734 78.7069C100.734 78.8616 100.86 78.987 101.014 78.987H103.816C103.97 78.987 104.096 78.8616 104.096 78.7069C104.096 78.5522 103.97 78.4267 103.816 78.4267H101.014Z" stroke="#111B22" stroke-width="1.68082" stroke-linecap="round" stroke-linejoin="round"/>
<path d="M110.463 81.8955C112.521 80.0563 114.617 79.7626 117.365 79.9863C116.871 80.3071 116.565 80.5702 116.347 80.8125C116.221 80.9526 116.132 81.0767 116.061 81.1787C115.986 81.2858 115.946 81.3467 115.893 81.4092C115.895 81.4065 115.891 81.4114 115.871 81.4277C115.84 81.4536 115.836 81.455 115.783 81.498C115.73 81.5418 115.636 81.6204 115.554 81.7373L115.477 81.8672C115.457 81.9073 115.42 81.9585 115.337 82.0664C115.27 82.1533 115.154 82.2979 115.074 82.4609C114.619 83.3887 114.725 84.3273 114.879 85.1396C115.146 86.5463 116.41 87.8026 117.935 87.7793C119.014 87.7628 119.524 87.6082 120.926 87.1885C121.352 87.061 121.77 86.8261 122.087 86.459C122.413 86.0821 122.681 85.6969 122.928 85.2705C123.108 85.8762 123.17 86.6278 123.136 87.417C123.097 88.3144 122.939 89.2104 122.743 89.9043C121.79 91.8966 120.387 93.3998 118.35 94.1592C117.659 94.2929 117.298 94.2978 116.604 94.2061L116.597 94.2051C115.035 94.0165 113.278 93.8084 111.661 94.7451L111.627 94.7656L111.596 94.79C110.444 95.6941 109.445 96.7469 108.497 97.8096L107.562 98.8711C107.001 99.4942 106.436 100.113 105.865 100.726L105.864 100.727C105.685 100.92 105.507 101.115 105.331 101.312L104.817 101.895C104.313 102.448 103.919 102.789 103.495 103.01C103.087 103.222 102.609 103.344 101.904 103.393C101.189 103.315 100.787 103.026 100.151 102.456C99.8853 102.126 99.726 101.865 99.6123 101.596C99.5021 101.334 99.4259 101.043 99.3457 100.637C99.4959 99.8868 99.8977 99.2462 100.455 98.6328C100.752 98.306 101.077 98.0024 101.416 97.7002L102.47 96.7744C103.123 96.187 103.767 95.5911 104.407 94.998C104.736 94.6988 105.068 94.4035 105.404 94.1133C106.51 93.1706 107.144 92.6354 107.594 91.9805C108.045 91.323 108.3 90.5588 108.751 89.2334L108.778 89.1514L108.78 89.0645C108.804 87.9558 108.709 86.8773 108.601 85.8105C108.537 84.3008 109.348 83.1147 110.463 81.8955Z" fill="#0078CE" stroke="#111B22" stroke-width="1.12055"/>
<path d="M72.7233 31.083H68.2411C67.0034 31.083 66 32.0864 66 33.3241V55.1748M72.1301 79.2666H68.2411C67.0034 79.2666 66 78.2633 66 77.0255V55.1748M66 55.1748H72.7233" stroke="#111B22" stroke-width="1.68082"/>
<path d="M120.905 79.548C120.441 79.548 120.064 79.1717 120.064 78.7076C120.064 78.2434 120.441 77.8672 120.905 77.8672V78.7076V79.548ZM119.224 30.5239V29.6835H123.706V30.5239V31.3643H119.224V30.5239ZM123.706 78.7076V79.548H120.905V78.7076V77.8672H123.706V78.7076ZM125.947 32.765H126.788V54.6157H125.947H125.107V32.765H125.947ZM125.947 54.6157H126.788V76.4665H125.947H125.107V54.6157H125.947ZM125.947 54.6157V55.4562H119.224V54.6157V53.7753H125.947V54.6157ZM123.706 78.7076V77.8672C124.48 77.8672 125.107 77.24 125.107 76.4665H125.947H126.788C126.788 78.1683 125.408 79.548 123.706 79.548V78.7076ZM123.706 30.5239V29.6835C125.408 29.6835 126.788 31.0632 126.788 32.765H125.947H125.107C125.107 31.9914 124.48 31.3643 123.706 31.3643V30.5239Z" fill="#111B22"/>
</svg>
