<svg width="196" height="121" viewBox="0 0 196 121" fill="none" xmlns="http://www.w3.org/2000/svg">
<g clip-path="url(#clip0_50756_976312)">
<path d="M127.349 42.2622L88.7946 24.8252C87.6581 24.3112 86.3255 24.8277 85.8181 25.9789L73.5987 53.7013C73.0913 54.8525 73.6013 56.2024 74.7377 56.7164L113.292 74.1534C114.429 74.6674 115.762 74.1509 116.269 72.9997L128.488 45.2773C128.996 44.1261 128.486 42.7762 127.349 42.2622Z" fill="white" stroke="#111B22" stroke-width="1.25078" stroke-linecap="round" stroke-linejoin="round"/>
<path d="M131.525 51.3111L92.9699 33.874C91.8334 33.36 90.5008 33.8766 89.9934 35.0278L77.774 62.7502C77.2666 63.9014 77.7766 65.2512 78.913 65.7652L117.468 83.2023C118.604 83.7163 119.937 83.1997 120.444 82.0485L132.664 54.3261C133.171 53.1749 132.661 51.8251 131.525 51.3111Z" fill="white" stroke="#111B22" stroke-width="1.25078" stroke-linecap="round" stroke-linejoin="round"/>
<path d="M126.263 100.676H60.9919C60.1977 100.674 59.4369 100.352 58.8763 99.7824C58.3157 99.2126 58.0009 98.4408 58.0009 97.6363V51.0171C57.9913 50.6127 58.0616 50.2104 58.2075 49.8338C58.3534 49.4572 58.572 49.1139 58.8506 48.824C59.1291 48.5341 59.462 48.3034 59.8297 48.1455C60.1974 47.9876 60.5925 47.9056 60.9919 47.9043H84.7668C85.3185 47.9063 85.8589 48.0624 86.3288 48.3553C86.7986 48.6481 87.1796 49.0665 87.4301 49.5645L90.8206 56.2881C91.0701 56.7868 91.451 57.2058 91.921 57.4988C92.3911 57.7918 92.932 57.9474 93.4839 57.9482H126.263C127.056 57.9482 127.817 58.2674 128.378 58.8356C128.939 59.4038 129.254 60.1745 129.254 60.978V97.6363C129.254 98.4408 128.939 99.2126 128.378 99.7824C127.818 100.352 127.057 100.674 126.263 100.676Z" fill="#ACD2EC" stroke="#111B22" stroke-width="1.25078" stroke-linecap="round" stroke-linejoin="round"/>
<path d="M94.5095 41.6584L109.091 48.0529C109.702 48.3211 109.983 49.038 109.714 49.6558C109.445 50.2734 108.73 50.5529 108.119 50.2851L93.5377 43.8907C92.9267 43.6226 92.6448 42.9061 92.9135 42.2883C93.1825 41.6704 93.8982 41.3905 94.5095 41.6584Z" fill="#B4DAFF" stroke="#111B22" stroke-width="1.25078"/>
<path d="M91.3917 47.1299L100.273 51.0245C100.279 51.0272 100.376 51.0782 100.412 51.347C100.447 51.6027 100.404 51.9603 100.239 52.3395C100.074 52.7184 99.8418 52.9923 99.6315 53.1405C99.4103 53.2964 99.307 53.2595 99.3008 53.2567L90.4199 49.3622C90.4138 49.3595 90.3166 49.3085 90.2802 49.0397C90.2457 48.784 90.2882 48.427 90.4531 48.0481C90.6182 47.6688 90.8505 47.3944 91.061 47.2462C91.2822 47.0903 91.3855 47.1272 91.3917 47.1299Z" fill="#B4DAFF" stroke="#111B22" stroke-width="1.25078"/>
<rect x="0.341676" y="0.445293" width="0.795301" height="4.58386" rx="0.397651" transform="matrix(-0.132458 0.991189 0.991694 0.128622 74.3262 22.0376)" fill="#999999" stroke="#0078CE" stroke-width="0.795301"/>
<rect x="-0.453525" y="0.347992" width="0.806875" height="4.49513" rx="0.403437" transform="matrix(-0.991694 -0.128621 -0.132459 0.991188 88.2673 13.1537)" fill="#999999" stroke="#0078CE" stroke-width="0.806875"/>
<rect x="-0.0735375" y="0.558633" width="0.802658" height="4.52772" rx="0.401329" transform="matrix(-0.797719 0.603029 0.614484 0.788929 79.1949 14.8166)" fill="#999999" stroke="#0078CE" stroke-width="0.802658"/>
<g filter="url(#filter0_d_50756_976312)">
<path d="M110.341 69.457C107.846 69.4557 105.407 70.2055 103.332 71.6117C101.257 73.0179 99.6389 75.0173 98.6833 77.357C97.7276 79.6967 97.4768 82.2716 97.9627 84.756C98.4486 87.2404 99.6494 89.5227 101.413 91.3142C103.177 93.1057 105.424 94.3259 107.871 94.8206C110.318 95.3152 112.854 95.062 115.159 94.0931C117.465 93.1241 119.435 91.4828 120.821 89.3769C122.207 87.271 122.947 84.795 122.947 82.2621C122.947 78.8672 121.619 75.6112 119.255 73.21C116.891 70.8088 113.685 69.4589 110.341 69.457Z" fill="#ACD2EC" stroke="#111B22" stroke-width="1.58731" stroke-linecap="round" stroke-linejoin="round"/>
<path d="M119.666 90.6797L123.867 94.9356" stroke="#111B22" stroke-width="1.59128" stroke-linecap="round" stroke-linejoin="round"/>
<path d="M122.662 94.8044L123.967 93.4216C124.251 93.1201 124.723 93.1097 125.02 93.3972L136.347 104.366C136.644 104.653 136.655 105.131 136.37 105.432L135.065 106.815C134.781 107.117 134.309 107.127 134.012 106.84L122.685 95.8709C122.388 95.5835 122.377 95.106 122.662 94.8044Z" fill="white" stroke="#111B22" stroke-width="1.58731"/>
</g>
<path d="M110.525 69.2168C117.756 69.2168 123.631 75.13 123.631 82.4404C123.631 89.7511 117.756 95.665 110.525 95.665C103.294 95.665 97.4185 89.7511 97.4185 82.4404C97.4187 75.1299 103.294 69.2168 110.525 69.2168Z" fill="#BFDBEE" stroke="#111B22" stroke-width="1.83597"/>
<path d="M114.942 78.1536L111.099 82.0284L114.942 85.9032L114.522 86.3262L110.68 82.4514L106.837 86.3262L106.418 85.9032L110.26 82.0284L106.418 78.1536L106.837 77.7307L110.68 81.6054L114.522 77.7307L114.942 78.1536Z" fill="#BFDBEE" stroke="#111B22" stroke-width="1.22398"/>
</g>
<defs>
<filter id="filter0_d_50756_976312" x="86.9215" y="63.6609" width="60.4505" height="59.1961" filterUnits="userSpaceOnUse" color-interpolation-filters="sRGB">
<feFlood flood-opacity="0" result="BackgroundImageFix"/>
<feColorMatrix in="SourceAlpha" type="matrix" values="0 0 0 0 0 0 0 0 0 0 0 0 0 0 0 0 0 0 127 0" result="hardAlpha"/>
<feOffset dy="5.00313"/>
<feGaussianBlur stdDeviation="5.00313"/>
<feColorMatrix type="matrix" values="0 0 0 0 0.0705882 0 0 0 0 0.105882 0 0 0 0 0.129412 0 0 0 0.1 0"/>
<feBlend mode="normal" in2="BackgroundImageFix" result="effect1_dropShadow_50756_976312"/>
<feBlend mode="normal" in="SourceGraphic" in2="effect1_dropShadow_50756_976312" result="shape"/>
</filter>
<clipPath id="clip0_50756_976312">
<rect width="196" height="121" fill="white"/>
</clipPath>
</defs>
</svg>
