<svg width="196" height="121" viewBox="0 0 196 121" fill="none" xmlns="http://www.w3.org/2000/svg">
<rect x="56.5391" y="31.1855" width="84.0784" height="64.9211" fill="#BFDBEE"/>
<path d="M126.528 54.6022C110.691 44.5226 106.523 32.973 106.523 32.973L135.488 30.4531L141.114 34.8629V50.1923V86.7309L139.239 94.7106L127.778 96.1805C127.778 96.1805 120.446 82.2256 120.902 72.6614C121.253 65.2779 142.365 64.6818 126.528 54.6022Z" fill="#0078CE" fill-opacity="0.2"/>
<path fill-rule="evenodd" clip-rule="evenodd" d="M60.4762 32.9451C58.6149 32.9451 57.1039 34.4664 57.1039 36.3344V57.9635C57.1039 58.8751 56.3706 59.614 55.466 59.614C54.5614 59.614 53.8281 58.8751 53.8281 57.9635V36.3344C53.8281 32.6356 56.8133 29.644 60.4762 29.644H135.893C139.556 29.644 142.541 32.6356 142.541 36.3344V90.3022C142.541 93.9972 139.568 96.9926 135.902 96.9926H109.2V107.551H114.647C115.551 107.551 116.285 108.29 116.285 109.201C116.285 110.113 115.551 110.852 114.647 110.852H80.2635C79.359 110.852 78.6257 110.113 78.6257 109.201C78.6257 108.29 79.359 107.551 80.2635 107.551H86.961V96.9926H80.2635C79.359 96.9926 78.6257 96.2536 78.6257 95.342C78.6257 94.4304 79.359 93.6915 80.2635 93.6915H135.902C137.759 93.6915 139.265 92.174 139.265 90.3022V36.3344C139.265 34.4664 137.754 32.9451 135.893 32.9451H60.4762ZM90.2367 96.9926V107.551H105.924V96.9926H90.2367Z" fill="#111B22"/>
<path d="M98.816 88.2015C98.816 89.3612 97.8831 90.3014 96.7322 90.3014C95.5814 90.3014 94.6484 89.3612 94.6484 88.2015C94.6484 87.0417 95.5814 86.1016 96.7322 86.1016C97.8831 86.1016 98.816 87.0417 98.816 88.2015Z" fill="#111B22"/>
<g filter="url(#filter0_d_54246_1043540)">
<path d="M107.031 47.9617V55.7755C107.031 57.0549 106.358 58.243 105.271 58.8942L98.6145 62.8125C97.5274 63.4523 96.1826 63.4523 95.0843 62.8125L88.4275 58.8942C87.3404 58.2545 86.668 57.0664 86.668 55.7755V47.9617C86.668 46.6822 87.3404 45.4941 88.4275 44.843L95.0843 40.9246C96.1714 40.2849 97.5162 40.2849 98.6145 40.9246L105.271 44.843C106.358 45.4941 107.031 46.6708 107.031 47.9617Z" fill="#BFDBEE" stroke="#111B22" stroke-width="2.10451" stroke-linecap="round" stroke-linejoin="round"/>
<path d="M96.8651 50.7248C98.3072 50.7248 99.4763 49.5331 99.4763 48.063C99.4763 46.593 98.3072 45.4014 96.8651 45.4014C95.423 45.4014 94.2539 46.593 94.2539 48.063C94.2539 49.5331 95.423 50.7248 96.8651 50.7248Z" stroke="#111B22" stroke-width="1.14236" stroke-linecap="round" stroke-linejoin="round"/>
<path d="M101.344 57.1909C101.344 55.1346 99.3384 53.4668 96.8617 53.4668C94.3849 53.4668 92.3789 55.1346 92.3789 57.1909" stroke="#111B22" stroke-width="1.14236" stroke-linecap="round" stroke-linejoin="round"/>
<path d="M96.7575 66.3088V74.1226C96.7575 75.4021 96.085 76.5902 94.998 77.2414L88.3411 81.1597C87.254 81.7994 85.9092 81.7994 84.8109 81.1597L78.154 77.2414C77.0669 76.6016 76.3945 75.4135 76.3945 74.1226V66.3088C76.3945 65.0294 77.0669 63.8413 78.154 63.1901L84.8109 59.2718C85.898 58.6321 87.2428 58.6321 88.3411 59.2718L94.998 63.1901C96.085 63.8413 96.7575 65.018 96.7575 66.3088Z" fill="#BFDBEE" stroke="#111B22" stroke-width="2.10451" stroke-linecap="round" stroke-linejoin="round"/>
<path d="M86.5878 69.0715C88.0299 69.0715 89.199 67.8798 89.199 66.4097C89.199 64.9397 88.0299 63.748 86.5878 63.748C85.1456 63.748 83.9766 64.9397 83.9766 66.4097C83.9766 67.8798 85.1456 69.0715 86.5878 69.0715Z" stroke="#111B22" stroke-width="1.14236" stroke-linecap="round" stroke-linejoin="round"/>
<path d="M91.0671 75.5376C91.0671 73.4813 89.061 71.8135 86.5843 71.8135C84.1076 71.8135 82.1016 73.4813 82.1016 75.5376" stroke="#111B22" stroke-width="1.14236" stroke-linecap="round" stroke-linejoin="round"/>
<path d="M117.304 66.3088V74.1226C117.304 75.4021 116.632 76.5902 115.545 77.2414L108.888 81.1597C107.801 81.7994 106.456 81.7994 105.358 81.1597L98.7009 77.2414C97.6138 76.6016 96.9414 75.4135 96.9414 74.1226V66.3088C96.9414 65.0294 97.6138 63.8413 98.7009 63.1901L105.358 59.2718C106.445 58.6321 107.79 58.6321 108.888 59.2718L115.545 63.1901C116.632 63.8413 117.304 65.018 117.304 66.3088Z" fill="#BFDBEE" stroke="#111B22" stroke-width="2.10451" stroke-linecap="round" stroke-linejoin="round"/>
<path d="M107.135 69.0715C108.577 69.0715 109.746 67.8798 109.746 66.4097C109.746 64.9397 108.577 63.748 107.135 63.748C105.693 63.748 104.523 64.9397 104.523 66.4097C104.523 67.8798 105.693 69.0715 107.135 69.0715Z" stroke="#111B22" stroke-width="1.14236" stroke-linecap="round" stroke-linejoin="round"/>
<path d="M111.614 75.5376C111.614 73.4813 109.608 71.8135 107.131 71.8135C104.654 71.8135 102.648 73.4813 102.648 75.5376" stroke="#111B22" stroke-width="1.14236" stroke-linecap="round" stroke-linejoin="round"/>
</g>
<rect x="-0.576884" y="0.751842" width="1.34334" height="7.77036" rx="0.671671" transform="matrix(0.132867 0.991134 -0.991745 0.128226 158.382 32.5548)" stroke="#0078CE" stroke-width="1.34334"/>
<rect x="0.768703" y="0.589822" width="1.36706" height="7.58856" rx="0.683528" transform="matrix(0.991745 -0.128226 0.132866 0.991134 133.092 16.6018)" stroke="#0078CE" stroke-width="1.36706"/>
<rect x="0.124257" y="0.943976" width="1.35842" height="7.65538" rx="0.679212" transform="matrix(0.798631 0.601821 -0.615688 0.78799 149.786 19.0663)" stroke="#0078CE" stroke-width="1.35842"/>
<path d="M55.8984 67.3726C65.1811 67.3726 72.7188 74.9355 72.7188 84.2798C72.7186 93.6239 65.181 101.186 55.8984 101.186C46.616 101.186 39.0783 93.6238 39.0781 84.2798C39.0781 74.9356 46.6159 67.3727 55.8984 67.3726Z" fill="#BFDBEE" stroke="#111B22" stroke-width="3.15677"/>
<path d="M61.3348 78.6719L56.2933 83.737L61.3348 88.8021L61.1392 88.9987L56.0977 83.9336L51.0561 88.9987L50.8605 88.8021L55.902 83.737L50.8605 78.6719L51.0561 78.4753L56.0977 83.5404L61.1392 78.4753L61.3348 78.6719Z" fill="#BFDBEE" stroke="#111B22" stroke-width="2.10451"/>
<defs>
<filter id="filter0_d_54246_1043540" x="69.4683" y="36.4549" width="54.7625" height="55.0501" filterUnits="userSpaceOnUse" color-interpolation-filters="sRGB">
<feFlood flood-opacity="0" result="BackgroundImageFix"/>
<feColorMatrix in="SourceAlpha" type="matrix" values="0 0 0 0 0 0 0 0 0 0 0 0 0 0 0 0 0 0 127 0" result="hardAlpha"/>
<feOffset dy="2.93771"/>
<feGaussianBlur stdDeviation="2.93771"/>
<feColorMatrix type="matrix" values="0 0 0 0 0.0705882 0 0 0 0 0.105882 0 0 0 0 0.129412 0 0 0 0.1 0"/>
<feBlend mode="normal" in2="BackgroundImageFix" result="effect1_dropShadow_54246_1043540"/>
<feBlend mode="normal" in="SourceGraphic" in2="effect1_dropShadow_54246_1043540" result="shape"/>
</filter>
</defs>
</svg>
