<svg width="196" height="121" viewBox="0 0 196 121" fill="none" xmlns="http://www.w3.org/2000/svg">
<path d="M71.9883 98.8165V37.1788C71.9883 32.4957 75.6876 28.649 80.3671 28.4661L112.907 27.1943L130.386 45.9855V85.3411C130.386 96.2856 121.514 105.158 110.569 105.158H78.3296C74.8274 105.158 71.9883 102.319 71.9883 98.8165Z" fill="white"/>
<path d="M94.6324 105.557H77.537C74.4725 105.557 71.9883 103.073 71.9883 100.008V33.142C71.9883 30.0775 74.4725 27.5933 77.537 27.5933H112.907M112.907 27.5933L130.783 46.3845M112.907 27.5933V40.8358C112.907 43.9002 115.391 46.3845 118.455 46.3845H130.783M130.783 46.3845V55.1804" stroke="#111B22" stroke-width="2.91703" stroke-linecap="round"/>
<path d="M106.862 98.1381L105.231 105.874C105.108 106.457 105.649 106.962 106.223 106.8L114.124 104.564C116.452 103.905 118.574 102.664 120.291 100.96L146.366 75.0677C146.978 74.4595 146.992 73.4731 146.396 72.8485L139.05 65.1481C138.437 64.5055 137.416 64.4917 136.786 65.1175L110.769 90.9571C108.794 92.9185 107.436 95.4146 106.862 98.1381Z" fill="#BED9EC" stroke="#111B22" stroke-width="2.91703"/>
<path d="M85.1031 59.1792H119.665M85.1031 71.9732H113.706M84.3086 85.5669H100.199" stroke="#111B22" stroke-width="2.91703" stroke-linecap="round"/>
<g filter="url(#filter0_d_37793_795113)">
<ellipse cx="76.3653" cy="33.9916" rx="17.877" ry="17.9916" fill="#BED9EC" stroke="#0078CE" stroke-width="2.37801"/>
<path d="M72.8648 16.3647C72.8648 16.3647 65.4318 26.939 71.9951 31.6792C78.5585 36.4194 80.1242 48.1178 75.0847 49.9107C73.2913 50.5487 72.7744 50.9173 72.8525 51.1275L75.0847 51.3692C75.0847 51.3692 72.9939 51.5079 72.8525 51.1275L70.2742 50.8484C69.0038 50.7108 67.7624 50.3281 66.7766 49.5149C65.4889 48.4527 63.9548 46.9304 62.5664 45.3906C61.7945 44.5346 61.2213 43.5216 60.8842 42.4193C60.2807 40.4456 59.6011 37.9082 59.0937 35.7992C58.6735 34.0523 58.7065 32.2308 59.133 30.4855C59.8976 27.3561 61.1123 23.1655 63.1474 21.3258C63.6467 20.8744 64.211 20.492 64.699 20.0284C67.1529 17.6974 68.8557 16.9504 72.8648 16.3647Z" fill="#0078CE" fill-opacity="0.2"/>
<path d="M76.4535 43.0214C76.1108 43.0214 75.8213 42.8999 75.5849 42.6569C75.3486 42.4139 75.2304 42.1102 75.2304 41.7457V40.3971L75.7622 40.8892C74.9704 40.8527 74.285 40.7494 73.706 40.5793C73.127 40.4092 72.6543 40.2391 72.2879 40.069C71.9807 39.9232 71.7621 39.7167 71.6321 39.4494C71.5139 39.1821 71.4666 38.9087 71.4903 38.6293C71.5257 38.3498 71.6262 38.0947 71.7916 37.8639C71.9571 37.633 72.1698 37.4811 72.4297 37.4082C72.7015 37.3232 73.0147 37.3596 73.3692 37.5176C73.6056 37.6512 73.9601 37.791 74.4328 37.9368C74.9173 38.0704 75.514 38.1372 76.2231 38.1372C76.7194 38.1372 77.1094 38.0886 77.393 37.9914C77.6884 37.8942 77.8952 37.7667 78.0134 37.6087C78.1434 37.4386 78.2084 37.2564 78.2084 37.062C78.2084 36.8797 78.1611 36.7278 78.0665 36.6064C77.9838 36.4727 77.842 36.3573 77.6411 36.2601C77.4402 36.1507 77.1625 36.0535 76.808 35.9685L74.805 35.5311C73.706 35.2759 72.8847 34.8507 72.3411 34.2554C71.8093 33.6479 71.5435 32.8642 71.5435 31.9044C71.5435 31.1754 71.7148 30.5254 72.0575 29.9543C72.412 29.3712 72.9024 28.8973 73.5287 28.5328C74.1669 28.1683 74.9114 27.9375 75.7622 27.8403L75.2304 28.1501V26.929C75.2304 26.5646 75.3486 26.2608 75.5849 26.0178C75.8213 25.7748 76.1108 25.6533 76.4535 25.6533C76.808 25.6533 77.1034 25.7748 77.3398 26.0178C77.5761 26.2608 77.6943 26.5646 77.6943 26.929V28.1501L77.1625 27.8038C77.6116 27.816 78.0961 27.895 78.616 28.0408C79.136 28.1744 79.591 28.3627 79.9809 28.6057C80.2527 28.7515 80.4418 28.952 80.5482 29.2071C80.6663 29.4623 80.7077 29.7235 80.6722 29.9908C80.6486 30.2459 80.5541 30.4768 80.3886 30.6833C80.235 30.8899 80.0223 31.0296 79.7505 31.1025C79.4905 31.1632 79.1774 31.1146 78.811 30.9567C78.5392 30.8352 78.232 30.738 77.8893 30.6651C77.5584 30.5801 77.133 30.5375 76.613 30.5375C75.9867 30.5375 75.5022 30.653 75.1595 30.8838C74.8286 31.1146 74.6632 31.4123 74.6632 31.7768C74.6632 32.0198 74.7577 32.2264 74.9468 32.3965C75.1477 32.5544 75.5081 32.6941 76.0281 32.8156L78.0488 33.2712C79.1715 33.5264 79.9987 33.9516 80.5304 34.547C81.074 35.1302 81.3458 35.8895 81.3458 36.825C81.3458 37.554 81.1745 38.198 80.8318 38.7569C80.4891 39.3158 80.0105 39.7714 79.396 40.1237C78.7933 40.4761 78.0902 40.7069 77.2866 40.8163L77.6943 40.3789V41.7457C77.6943 42.1102 77.5761 42.4139 77.3398 42.6569C77.1153 42.8999 76.8198 43.0214 76.4535 43.0214Z" fill="#0078CE"/>
</g>
<rect x="0.692781" y="-0.177685" width="1.01452" height="5.86053" rx="0.507259" transform="matrix(0.506968 -0.862227 0.858766 0.511942 48.7754 32.3793)" stroke="#0078CE" stroke-width="1.01452"/>
<rect x="-0.181397" y="-0.708561" width="1.03126" height="5.7322" rx="0.515628" transform="matrix(-0.858765 -0.511943 0.506967 -0.862227 56.2134 50.9211)" stroke="#0078CE" stroke-width="1.03126"/>
<rect x="0.365866" y="-0.619088" width="1.02516" height="5.77935" rx="0.512581" transform="matrix(-0.256074 -0.96751 0.969847 -0.240275 48.892 42.9968)" stroke="#0078CE" stroke-width="1.02516"/>
<defs>
<filter id="filter0_d_37793_795113" x="44.618" y="8.46967" width="63.4944" height="63.7268" filterUnits="userSpaceOnUse" color-interpolation-filters="sRGB">
<feFlood flood-opacity="0" result="BackgroundImageFix"/>
<feColorMatrix in="SourceAlpha" type="matrix" values="0 0 0 0 0 0 0 0 0 0 0 0 0 0 0 0 0 0 127 0" result="hardAlpha"/>
<feOffset dy="6.34137"/>
<feGaussianBlur stdDeviation="6.34137"/>
<feColorMatrix type="matrix" values="0 0 0 0 0.0705882 0 0 0 0 0.105882 0 0 0 0 0.129412 0 0 0 0.1 0"/>
<feBlend mode="normal" in2="BackgroundImageFix" result="effect1_dropShadow_37793_795113"/>
<feBlend mode="normal" in="SourceGraphic" in2="effect1_dropShadow_37793_795113" result="shape"/>
</filter>
</defs>
</svg>
