<svg width="196" height="121" viewBox="0 0 196 121" fill="none" xmlns="http://www.w3.org/2000/svg">
<path d="M51.3578 25.9865C50.8625 25.923 50.4067 26.2727 50.3397 26.7676C50.2728 27.2625 50.6201 27.7151 51.1154 27.7786L55.4596 28.3352C55.955 28.3986 56.4108 28.0489 56.4777 27.554C56.5447 27.0592 56.1974 26.6066 55.7021 26.5431L51.3578 25.9865Z" fill="#0078CE"/>
<path d="M55.4594 28.3354L55.5523 28.342C56.0106 28.3538 56.4154 28.0176 56.4781 27.5538L56.4852 27.4619C56.5005 27.0041 56.1663 26.6026 55.7019 26.5431L51.3575 25.9865C50.8624 25.9232 50.4069 26.2727 50.3398 26.7673C50.2728 27.262 50.6199 27.7151 51.115 27.7787L55.4594 28.3354Z" fill="#0078CE"/>
<path d="M67.2974 16.8114C67.3662 16.3034 67.0097 15.8388 66.5012 15.7736C65.9927 15.7085 65.5248 16.0675 65.456 16.5755L64.8968 20.7094C64.8281 21.2174 65.1846 21.682 65.6931 21.7472C66.2016 21.8123 66.6695 21.4533 66.7382 20.9453L67.2974 16.8114Z" fill="#0078CE"/>
<path d="M64.8965 20.7093L64.889 20.8038C64.8733 21.2737 65.2162 21.6861 65.6929 21.7473L65.7875 21.7541C66.2583 21.7667 66.6738 21.4217 66.7382 20.9453L67.2974 16.8116C67.3661 16.3036 67.0095 15.8388 66.501 15.7736C65.9926 15.7086 65.5244 16.0677 65.4557 16.5757L64.8965 20.7093Z" fill="#0078CE"/>
<path d="M57.1123 18.2577C56.7979 17.8589 56.2131 17.782 55.8062 18.0858C55.3993 18.3897 55.3244 18.9593 55.6388 19.3581L58.269 22.694C58.5834 23.0927 59.1681 23.1697 59.575 22.8658C59.9819 22.562 60.0569 21.9924 59.7425 21.5936L57.1123 18.2577Z" fill="#0078CE"/>
<path d="M58.2685 22.6938L58.3314 22.765C58.6561 23.1007 59.1934 23.1504 59.5748 22.8657L59.6472 22.8062C59.9898 22.4918 60.0371 21.9673 59.7422 21.5933L57.1124 18.2578C56.7979 17.859 56.213 17.7821 55.8061 18.0859C55.3993 18.3898 55.3243 18.9596 55.6387 19.3583L58.2685 22.6938Z" fill="#0078CE"/>
<path d="M65.2227 25.7461H129.524C132.825 25.7462 135.5 28.4215 135.5 31.7217V41.8857H59.2471V31.7217C59.2471 28.4214 61.9224 25.7461 65.2227 25.7461Z" fill="#BFDBEE"/>
<path d="M65.2227 25.7461H129.524C132.825 25.7462 135.5 28.4215 135.5 31.7217V41.8857H59.2471V31.7217C59.2471 28.4214 61.9224 25.7461 65.2227 25.7461Z" stroke="#111B22" stroke-width="1.49394"/>
<path d="M87.4922 35.4564V36.2033H66.8576V35.4564H87.4922ZM89.1264 33.9625C89.1263 33.1795 88.4379 32.4686 87.4922 32.4686H66.8576C65.9119 32.4686 65.2236 33.1795 65.2235 33.9625C65.2235 34.7456 65.9119 35.4564 66.8576 35.4564V36.2033L66.6139 36.1919C65.4134 36.0771 64.4766 35.1227 64.4766 33.9625C64.4766 32.8023 65.4134 31.8479 66.6139 31.7331L66.8576 31.7217H87.4922C88.8072 31.7217 89.8732 32.7249 89.8733 33.9625C89.8733 35.2001 88.8072 36.2033 87.4922 36.2033V35.4564C88.438 35.4564 89.1264 34.7456 89.1264 33.9625Z" fill="#111B22"/>
<path d="M92.8629 36.9504C94.5131 36.9504 95.8508 35.6127 95.8508 33.9625C95.8508 32.3123 94.5131 30.9746 92.8629 30.9746C91.2127 30.9746 89.875 32.3123 89.875 33.9625C89.875 35.6127 91.2127 36.9504 92.8629 36.9504Z" fill="#CFE4F1"/>
<path d="M102.572 33.9624C102.572 32.7248 101.569 31.7215 100.331 31.7215C99.094 31.7216 98.0908 32.7248 98.0907 33.9624C98.0907 35.1999 99.0939 36.2031 100.331 36.2032V36.9501C98.6814 36.95 97.3438 35.6125 97.3438 33.9624C97.3438 32.3123 98.6814 30.9747 100.331 30.9746C101.982 30.9746 103.319 32.3123 103.319 33.9624C103.319 35.6125 101.982 36.9501 100.331 36.9501V36.2032C101.569 36.2032 102.572 35.2 102.572 33.9624Z" fill="#111B22"/>
<path d="M107.8 36.9504C109.451 36.9504 110.788 35.6127 110.788 33.9625C110.788 32.3123 109.451 30.9746 107.8 30.9746C106.15 30.9746 104.812 32.3123 104.812 33.9625C104.812 35.6127 106.15 36.9504 107.8 36.9504Z" fill="#CFE4F1"/>
<path d="M117.514 33.9624C117.514 32.7248 116.51 31.7215 115.273 31.7215C114.035 31.7216 113.032 32.7248 113.032 33.9624C113.032 35.1999 114.035 36.2031 115.273 36.2032V36.9501C113.623 36.95 112.285 35.6125 112.285 33.9624C112.285 32.3123 113.623 30.9747 115.273 30.9746C116.923 30.9746 118.261 32.3123 118.261 33.9624C118.261 35.6125 116.923 36.9501 115.273 36.9501V36.2032C116.511 36.2032 117.514 35.2 117.514 33.9624Z" fill="#111B22"/>
<path d="M122.742 36.9504C124.392 36.9504 125.73 35.6127 125.73 33.9625C125.73 32.3123 124.392 30.9746 122.742 30.9746C121.092 30.9746 119.754 32.3123 119.754 33.9625C119.754 35.6127 121.092 36.9504 122.742 36.9504Z" fill="#CFE4F1"/>
<path d="M132.451 33.9624C132.451 32.7248 131.448 31.7215 130.21 31.7215C128.973 31.7216 127.97 32.7248 127.97 33.9624C127.97 35.1999 128.973 36.2031 130.21 36.2032V36.9501C128.56 36.95 127.223 35.6125 127.223 33.9624C127.223 32.3123 128.56 30.9747 130.21 30.9746C131.861 30.9746 133.198 32.3123 133.198 33.9624C133.198 35.6125 131.861 36.9501 130.21 36.9501V36.2032C131.448 36.2032 132.451 35.2 132.451 33.9624Z" fill="#111B22"/>
<path d="M135.389 33.4626C135.389 33.4626 133.273 35.4381 105.765 29.9359C90.5995 26.9027 68.041 40.8538 63.7961 41.5742C60.4626 42.14 59.9723 42.2522 59.9154 42.2742L59.9167 42.2796C59.9167 42.2796 59.8998 42.2803 59.9154 42.2742L59.4042 40.1633C58.8892 38.0365 58.9855 35.7209 59.1348 33.5378C59.2353 32.0686 59.38 30.4215 60.0168 28.9848C60.4986 27.898 61.5004 27.1332 62.6329 26.7717C63.7603 26.4118 64.5095 26.4465 65.9507 26.1463C67.1052 25.9057 68.2417 25.7044 69.4209 25.6973C79.3789 25.6373 123.97 25.2198 130.537 25.9577C130.966 26.0058 131.356 26.1498 131.737 26.3521C135.349 28.2703 135.053 29.7706 135.389 33.4626Z" fill="#0078CE" fill-opacity="0.2"/>
<path d="M58.6367 87.2968C58.6367 91.0097 61.6466 94.0195 65.3595 94.0195H130.776C134.489 94.0195 137.499 91.0097 137.499 87.2968V47.8135H58.6367V87.2968Z" fill="white"/>
<path d="M136.088 87.2971C136.088 90.2307 133.709 92.6089 130.776 92.6089H65.3592C62.4256 92.6088 60.0475 90.2306 60.0473 87.2971V49.2243H136.088V87.2971ZM137.499 47.8138H58.6367V87.2971C58.6369 91.0097 61.6465 94.0194 65.3592 94.0195H130.776C134.489 94.0195 137.499 91.0098 137.499 87.2971V47.8138Z" fill="#111B22"/>
<g filter="url(#filter0_d_54217_1044235)">
<path d="M129.909 71.1598C129.909 78.9509 123.593 85.2668 115.802 85.2668C108.011 85.2668 101.695 78.9509 101.695 71.1598C101.695 63.3687 108.011 57.0527 115.802 57.0527C123.593 57.0527 129.909 63.3687 129.909 71.1598Z" fill="#BDD9EB"/>
<path d="M128.498 71.1595C128.498 64.1476 122.814 58.4633 115.802 58.4633C108.79 58.4635 103.106 64.1477 103.106 71.1595C103.106 78.1714 108.79 83.8555 115.802 83.8557V85.2671L115.438 85.2619C107.815 85.0688 101.695 78.8289 101.695 71.1595C101.695 63.3686 108.011 57.0529 115.802 57.0527C123.593 57.0527 129.91 63.3685 129.91 71.1595L129.904 71.5242C129.711 79.1469 123.471 85.2671 115.802 85.2671V83.8557C122.814 83.8557 128.498 78.1715 128.498 71.1595Z" fill="#0078CE"/>
</g>
<path d="M70.3649 83.8564C69.3911 83.8564 68.6016 83.067 68.6016 82.0931V70.1021C68.6016 69.1282 69.3911 68.3387 70.3649 68.3387C71.3388 68.3387 72.1283 69.1282 72.1283 70.1021V82.0931C72.1283 83.067 71.3388 83.8564 70.3649 83.8564Z" fill="#31AAB7" fill-opacity="0.4"/>
<path d="M71.3815 70.1021H72.1285V82.0934H71.3815V70.1021ZM70.3646 69.086C69.8034 69.0862 69.3485 69.5409 69.3485 70.1021V82.0934C69.3487 82.6545 69.8035 83.1093 70.3646 83.1095C70.9258 83.1095 71.3813 82.6546 71.3815 82.0934H72.1285L72.1188 82.2731C72.0286 83.1624 71.2777 83.8564 70.3646 83.8564C69.391 83.8562 68.6018 83.067 68.6016 82.0934V70.1021C68.6016 69.1283 69.3909 68.3393 70.3646 68.3391C71.2775 68.3391 72.0284 69.0325 72.1188 69.9215L72.1285 70.1021H71.3815C71.3815 69.5408 70.9259 69.086 70.3646 69.086Z" fill="#111B22"/>
<path d="M76.7126 83.8564C75.7387 83.8564 74.9492 83.067 74.9492 82.0931V60.2272C74.9492 59.2533 75.7387 58.4638 76.7126 58.4638C77.6865 58.4638 78.476 59.2533 78.476 60.2272V82.0931C78.476 83.067 77.6865 83.8564 76.7126 83.8564Z" fill="#31AAB7" fill-opacity="0.4"/>
<path d="M77.7292 60.2271H78.4761V82.0934H77.7292V60.2271ZM76.7122 59.211C76.1511 59.2112 75.6962 59.6659 75.6962 60.2271V82.0934C75.6964 82.6545 76.1512 83.1093 76.7122 83.1095C77.2735 83.1095 77.729 82.6546 77.7292 82.0934H78.4761L78.4665 82.2731C78.3763 83.1624 77.6253 83.8564 76.7122 83.8564C75.7386 83.8562 74.9494 83.067 74.9492 82.0934V60.2271L74.958 60.0465C75.0484 59.1576 75.7995 58.4643 76.7122 58.4641C77.6251 58.4641 78.376 59.1575 78.4665 60.0465L78.4761 60.2271H77.7292C77.7292 59.6658 77.2736 59.211 76.7122 59.211Z" fill="#111B22"/>
<path d="M83.0603 83.8564C82.0864 83.8564 81.2969 83.067 81.2969 82.0931V72.9235C81.2969 71.9496 82.0864 71.1601 83.0603 71.1601C84.0341 71.1601 84.8236 71.9496 84.8236 72.9235V82.0931C84.8236 83.067 84.0341 83.8564 83.0603 83.8564Z" fill="#31AAB7" fill-opacity="0.4"/>
<path d="M84.0767 72.9232H84.8236V82.0934H84.0767V72.9232ZM83.0598 71.9071C82.4987 71.9073 82.0439 72.362 82.0438 72.9232V82.0934C82.044 82.6545 82.4988 83.1093 83.0598 83.1095C83.621 83.1095 84.0765 82.6546 84.0767 82.0934H84.8236L84.814 82.2731C84.7238 83.1624 83.9729 83.8564 83.0598 83.8564C82.0863 83.8562 81.2971 83.067 81.2969 82.0934V72.9232L81.3056 72.7434C81.3957 71.8541 82.1469 71.1603 83.0598 71.1601C83.9729 71.1601 84.7238 71.8541 84.814 72.7434L84.8236 72.9232H84.0767C84.0766 72.3619 83.6211 71.9071 83.0598 71.9071Z" fill="#111B22"/>
<path d="M89.4118 83.8564C88.4379 83.8564 87.6484 83.067 87.6484 82.0931V65.87C87.6484 64.8961 88.4379 64.1066 89.4118 64.1066C90.3857 64.1066 91.1752 64.8961 91.1752 65.87V82.0931C91.1752 83.067 90.3857 83.8564 89.4118 83.8564Z" fill="#31AAB7" fill-opacity="0.4"/>
<path d="M90.4283 65.8705H91.1752V82.0934H90.4283V65.8705ZM89.4114 64.8535C88.8502 64.8537 88.3953 65.3093 88.3953 65.8705V82.0934C88.3955 82.6545 88.8503 83.1093 89.4114 83.1095C89.9726 83.1095 90.4281 82.6546 90.4283 82.0934H91.1752L91.1656 82.2732C91.0753 83.1624 90.3244 83.8564 89.4114 83.8564C88.4378 83.8562 87.6486 83.067 87.6484 82.0934V65.8705C87.6484 64.8967 88.4377 64.1068 89.4114 64.1066L89.592 64.1162C90.4219 64.2005 91.0813 64.86 91.1656 65.6899L91.1752 65.8705H90.4283C90.4283 65.3091 89.9727 64.8535 89.4114 64.8535Z" fill="#111B22"/>
<path d="M112.387 65.1063C109.3 59.6324 116.69 58.4025 116.69 58.4025C112.307 58.2741 110.055 58.9787 106.91 61.0535C106.506 61.3203 106.138 61.6412 105.818 62.0057C104.664 63.3234 103.902 64.4059 103.194 65.7088C102.336 67.2879 101.994 69.1005 102.134 70.8924C102.205 71.7942 102.306 72.6624 102.46 73.6678C102.632 74.7886 103.032 75.8677 103.678 76.7994C104.876 78.5274 106.048 79.7819 107.144 80.749C107.705 81.2441 108.355 81.6241 109.038 81.93L112.039 83.275C112.039 83.275 109.431 80.955 114.957 80.0543C120.484 79.1535 115.475 70.5802 112.387 65.1063Z" fill="#0078CE" fill-opacity="0.2"/>
<g clip-path="url(#clip0_54217_1044235)">
<path d="M120.819 71.8991C120.819 74.4948 118.712 76.6015 116.116 76.6015C113.521 76.6015 111.936 73.987 111.936 73.987M111.936 73.987H114.061M111.936 73.987V76.3381M111.414 71.8991C111.414 69.3034 113.502 67.1968 116.116 67.1968C119.253 67.1968 120.819 69.8113 120.819 69.8113M120.819 69.8113V67.4601M120.819 69.8113H118.731" stroke="#111B22" stroke-width="1.05803" stroke-linecap="round" stroke-linejoin="round"/>
</g>
<path d="M66.4531 106.797V63.5308C66.4531 62.0965 66.9045 60.7209 67.7078 59.7066C68.5112 58.6924 69.6008 58.1226 70.737 58.1226H92.1561C93.2922 58.1226 94.3818 58.6924 95.1852 59.7066C95.9886 60.7209 96.4399 62.0965 96.4399 63.5308V106.797L90.0142 101.389L85.7304 106.797L81.4465 101.389L77.1627 106.797L72.8789 101.389L66.4531 106.797Z" fill="white"/>
<path d="M95.8504 63.5311C95.8504 62.2135 95.4346 60.9697 94.7229 60.0712C94.014 59.1762 93.0869 58.7132 92.1613 58.7132H70.742C69.8165 58.7133 68.8901 59.1764 68.1812 60.0712C67.4696 60.9697 67.0538 62.2135 67.0538 63.5311V105.521L72.4989 100.938C72.6222 100.834 72.7834 100.785 72.9443 100.801C73.1051 100.817 73.2521 100.898 73.3519 101.024L77.1682 105.84L80.9844 101.024L81.0291 100.973C81.1401 100.862 81.2919 100.798 81.4516 100.798C81.6342 100.798 81.807 100.882 81.9198 101.024L85.7351 105.841L89.5514 101.024L89.6346 100.938C89.7258 100.861 89.8392 100.813 89.9599 100.801C90.1206 100.785 90.2811 100.834 90.4044 100.938L95.8504 105.521V63.5311ZM97.0409 106.797C97.0408 107.027 96.9058 107.236 96.6955 107.333C96.4851 107.43 96.2376 107.396 96.0608 107.247L90.1054 102.235L86.2033 107.162C86.0905 107.304 85.9185 107.388 85.736 107.388C85.5534 107.388 85.3807 107.304 85.2679 107.162L81.4516 102.344L77.6363 107.162C77.5235 107.304 77.3507 107.388 77.1682 107.388C76.9856 107.388 76.8128 107.304 76.7 107.162L72.7979 102.235L66.8434 107.247C66.6667 107.396 66.419 107.43 66.2087 107.333C65.9984 107.236 65.8634 107.027 65.8633 106.797V63.5311C65.8633 61.9801 66.3499 60.4713 67.2449 59.3413C68.1427 58.2079 69.3956 57.5319 70.742 57.5317H92.1613C93.5077 57.5317 94.7606 58.208 95.6584 59.3413C96.5534 60.4713 97.0409 61.9801 97.0409 63.5311V106.797Z" fill="#111B22"/>
<path d="M70.0464 79.3446C70.0488 78.8121 70.4825 78.3823 71.0151 78.3848L85.7093 78.4518C86.2418 78.4542 86.6716 78.8879 86.6692 79.4205L86.669 79.4498C86.6666 79.9824 86.2329 80.4121 85.7004 80.4097L71.0062 80.3427C70.4736 80.3402 70.0439 79.9066 70.0463 79.374L70.0464 79.3446Z" fill="#DCDCDC"/>
<path d="M86.669 79.4495C86.6665 79.982 86.2328 80.4118 85.7002 80.4094L71.0063 80.3424L70.9072 80.3376C70.4214 80.2858 70.044 79.8728 70.0463 79.3736L70.0464 79.3447C70.0487 78.8456 70.4298 78.4369 70.916 78.3896L71.0151 78.3848L85.7091 78.4518C86.2417 78.4542 86.6715 78.888 86.6691 79.4205L86.669 79.4495Z" fill="#111B22"/>
<path d="M70.0464 87.1645C70.0488 86.6319 70.4825 86.2022 71.0151 86.2046L91.7902 86.2993C92.3228 86.3018 92.7525 86.7355 92.7501 87.268L92.75 87.2974C92.7476 87.8299 92.3139 88.2597 91.7813 88.2573L71.0062 88.1625C70.4736 88.1601 70.0439 87.7264 70.0463 87.1938L70.0464 87.1645Z" fill="#DCDCDC"/>
<path d="M92.7496 87.297C92.7473 87.7963 92.3664 88.2059 91.88 88.253L91.7818 88.257L71.0063 88.1622L70.9072 88.1574C70.4214 88.1056 70.044 87.6926 70.0463 87.1935L70.0464 87.1645C70.0487 86.6654 70.4298 86.2568 70.916 86.2094L71.0151 86.2046L91.7906 86.2993L91.8888 86.3051C92.3748 86.3567 92.752 86.7688 92.7497 87.2681L92.7496 87.297Z" fill="#111B22"/>
<path d="M70.0464 91.4296C70.0488 90.8971 70.4825 90.4673 71.0151 90.4697L91.7902 90.5645C92.3228 90.5669 92.7525 91.0006 92.7501 91.5332L92.75 91.5625C92.7476 92.0951 92.3139 92.5248 91.7813 92.5224L71.0062 92.4276C70.4736 92.4252 70.0439 91.9915 70.0463 91.459L70.0464 91.4296Z" fill="#DCDCDC"/>
<path d="M92.7496 91.5622C92.7473 92.0614 92.3664 92.471 91.88 92.5182L91.7818 92.5221L71.0063 92.4274L70.9072 92.4225C70.4214 92.3708 70.044 91.9578 70.0463 91.4586L70.0464 91.4297C70.0487 90.9306 70.4298 90.5219 70.916 90.4745L71.0151 90.4697L91.7906 90.5645L91.8888 90.5702C92.3748 90.6218 92.752 91.034 92.7497 91.5332L92.7496 91.5622Z" fill="#111B22"/>
<path d="M70.0464 95.6947C70.0488 95.1622 70.4825 94.7324 71.0151 94.7349L81.1829 94.7812C81.7154 94.7837 82.1452 95.2174 82.1428 95.7499L82.1426 95.7793C82.1402 96.3118 81.7065 96.7416 81.174 96.7391L71.0062 96.6928C70.4736 96.6903 70.0439 96.2567 70.0463 95.7241L70.0464 95.6947Z" fill="#DCDCDC"/>
<path d="M82.1427 95.7789L82.137 95.878C82.0853 96.3639 81.6732 96.7411 81.174 96.7389L71.0063 96.6925L70.9072 96.6877C70.4214 96.6359 70.044 96.2229 70.0463 95.7237L70.0464 95.6948C70.0487 95.1957 70.4298 94.787 70.916 94.7397L71.0151 94.7349L81.1828 94.7812C81.7154 94.7837 82.1452 95.2174 82.1428 95.75L82.1427 95.7789Z" fill="#111B22"/>
<path d="M70.023 83.2602C70.0254 82.7276 70.4591 82.2979 70.9916 82.3003L79.3212 82.3383C79.8537 82.3407 80.2835 82.7744 80.2811 83.307L80.281 83.3363C80.2785 83.8689 79.8449 84.2986 79.3123 84.2962L70.9827 84.2582C70.4502 84.2558 70.0204 83.8221 70.0228 83.2895L70.023 83.2602Z" fill="#EEEEEE"/>
<path d="M80.2808 83.336C80.2784 83.8685 79.8447 84.2983 79.3121 84.2959L70.9828 84.2579L70.8838 84.2531C70.3979 84.2013 70.0206 83.7883 70.0228 83.2892L70.023 83.2602C70.0252 82.7611 70.4063 82.3525 70.8926 82.3051L70.9917 82.3003L79.321 82.3383C79.8536 82.3407 80.2834 82.7745 80.281 83.307L80.2808 83.336Z" fill="#111B22"/>
<g filter="url(#filter1_d_54217_1044235)">
<path d="M81.1688 74.9367C80.9942 74.9367 80.8467 74.8761 80.7262 74.7549C80.6058 74.6337 80.5456 74.4821 80.5456 74.3003V73.6275L80.8166 73.873C80.4131 73.8548 80.0639 73.8033 79.7688 73.7184C79.4737 73.6335 79.2329 73.5487 79.0462 73.4638C78.8896 73.3911 78.7782 73.288 78.712 73.1547C78.6518 73.0213 78.6277 72.885 78.6397 72.7455C78.6578 72.6061 78.709 72.4788 78.7933 72.3637C78.8776 72.2485 78.986 72.1727 79.1185 72.1364C79.2569 72.0939 79.4165 72.1121 79.5972 72.1909C79.7176 72.2576 79.8983 72.3273 80.1391 72.4C80.386 72.4667 80.6901 72.5001 81.0514 72.5001C81.3043 72.5001 81.503 72.4758 81.6475 72.4273C81.7981 72.3788 81.9035 72.3152 81.9637 72.2364C82.0299 72.1515 82.063 72.0606 82.063 71.9636C82.063 71.8727 82.039 71.7969 81.9908 71.7363C81.9486 71.6696 81.8764 71.6121 81.774 71.5636C81.6716 71.509 81.5301 71.4605 81.3495 71.4181L80.3288 71.1999C79.7688 71.0726 79.3503 70.8604 79.0733 70.5634C78.8023 70.2604 78.6668 69.8694 78.6668 69.3906C78.6668 69.0269 78.7541 68.7026 78.9288 68.4177C79.1094 68.1268 79.3593 67.8904 79.6785 67.7085C80.0036 67.5267 80.383 67.4115 80.8166 67.363L80.5456 67.5176V66.9084C80.5456 66.7266 80.6058 66.575 80.7262 66.4538C80.8467 66.3326 80.9942 66.272 81.1688 66.272C81.3495 66.272 81.5 66.3326 81.6205 66.4538C81.7409 66.575 81.8011 66.7266 81.8011 66.9084V67.5176L81.5301 67.3448C81.7589 67.3509 82.0058 67.3903 82.2708 67.463C82.5357 67.5297 82.7676 67.6237 82.9663 67.7449C83.1048 67.8176 83.2011 67.9176 83.2553 68.0449C83.3155 68.1722 83.3366 68.3025 83.3186 68.4359C83.3065 68.5632 83.2583 68.6783 83.174 68.7814C83.0958 68.8844 82.9874 68.9541 82.8489 68.9905C82.7164 69.0208 82.5568 68.9966 82.3701 68.9178C82.2316 68.8572 82.0751 68.8087 81.9005 68.7723C81.7319 68.7299 81.5151 68.7087 81.2501 68.7087C80.931 68.7087 80.6841 68.7662 80.5095 68.8814C80.3408 68.9966 80.2565 69.1451 80.2565 69.3269C80.2565 69.4481 80.3047 69.5512 80.4011 69.636C80.5034 69.7148 80.6871 69.7845 80.952 69.8452L81.9817 70.0725C82.5538 70.1998 82.9753 70.4119 83.2463 70.7089C83.5233 70.9999 83.6618 71.3787 83.6618 71.8454C83.6618 72.2091 83.5745 72.5304 83.3998 72.8092C83.2252 73.088 82.9813 73.3153 82.6682 73.4911C82.3611 73.6669 82.0028 73.782 81.5934 73.8366L81.8011 73.6184V74.3003C81.8011 74.4821 81.7409 74.6337 81.6205 74.7549C81.506 74.8761 81.3555 74.9367 81.1688 74.9367Z" fill="#111B22"/>
</g>
<defs>
<filter id="filter0_d_54217_1044235" x="90.4097" y="51.4099" width="50.7861" height="50.7856" filterUnits="userSpaceOnUse" color-interpolation-filters="sRGB">
<feFlood flood-opacity="0" result="BackgroundImageFix"/>
<feColorMatrix in="SourceAlpha" type="matrix" values="0 0 0 0 0 0 0 0 0 0 0 0 0 0 0 0 0 0 127 0" result="hardAlpha"/>
<feOffset dy="5.64281"/>
<feGaussianBlur stdDeviation="5.64281"/>
<feColorMatrix type="matrix" values="0 0 0 0 0.0705882 0 0 0 0 0.105882 0 0 0 0 0.129412 0 0 0 0.1 0"/>
<feBlend mode="normal" in2="BackgroundImageFix" result="effect1_dropShadow_54217_1044235"/>
<feBlend mode="normal" in="SourceGraphic" in2="effect1_dropShadow_54217_1044235" result="shape"/>
</filter>
<filter id="filter1_d_54217_1044235" x="74.2239" y="64.0656" width="13.849" height="17.4902" filterUnits="userSpaceOnUse" color-interpolation-filters="sRGB">
<feFlood flood-opacity="0" result="BackgroundImageFix"/>
<feColorMatrix in="SourceAlpha" type="matrix" values="0 0 0 0 0 0 0 0 0 0 0 0 0 0 0 0 0 0 127 0" result="hardAlpha"/>
<feOffset dy="2.2064"/>
<feGaussianBlur stdDeviation="2.2064"/>
<feColorMatrix type="matrix" values="0 0 0 0 0.0705882 0 0 0 0 0.105882 0 0 0 0 0.129412 0 0 0 0.1 0"/>
<feBlend mode="normal" in2="BackgroundImageFix" result="effect1_dropShadow_54217_1044235"/>
<feBlend mode="normal" in="SourceGraphic" in2="effect1_dropShadow_54217_1044235" result="shape"/>
</filter>
<clipPath id="clip0_54217_1044235">
<rect width="11.2856" height="11.2856" fill="white" transform="translate(110.473 66.2563)"/>
</clipPath>
</defs>
</svg>
