<svg width="196" height="121" viewBox="0 0 196 121" fill="none" xmlns="http://www.w3.org/2000/svg">
<g clip-path="url(#clip0_56606_741482)">
<mask id="mask0_56606_741482" style="mask-type:luminance" maskUnits="userSpaceOnUse" x="0" y="0" width="196" height="121">
<path d="M196 0H0V121H196V0Z" fill="white"/>
</mask>
<g mask="url(#mask0_56606_741482)">
<path d="M123.134 39.9619H126.867" stroke="#0078CE" stroke-width="1.86661" stroke-linecap="round" stroke-linejoin="round"/>
<path d="M125 38.0938V41.827" stroke="#0078CE" stroke-width="1.86661" stroke-linecap="round" stroke-linejoin="round"/>
<path d="M137.133 38.0938L136.2 41.827" stroke="#0078CE" stroke-width="1.86661" stroke-linecap="round" stroke-linejoin="round"/>
<path d="M149.266 39.9619H152.999" stroke="#0078CE" stroke-width="1.86661" stroke-linecap="round" stroke-linejoin="round"/>
<path d="M151.133 38.0938V41.827" stroke="#0078CE" stroke-width="1.86661" stroke-linecap="round" stroke-linejoin="round"/>
<path d="M143.666 47.4277L141.8 49.2943" stroke="#0078CE" stroke-width="1.86661" stroke-linecap="round" stroke-linejoin="round"/>
<path d="M149.266 54.8942L152.999 53.9609" stroke="#0078CE" stroke-width="1.86661" stroke-linecap="round" stroke-linejoin="round"/>
<path d="M149.266 66.0938H152.999" stroke="#0078CE" stroke-width="1.86661" stroke-linecap="round" stroke-linejoin="round"/>
<path d="M151.133 64.2266V67.9598" stroke="#0078CE" stroke-width="1.86661" stroke-linecap="round" stroke-linejoin="round"/>
<path d="M141.799 61.4605L129.633 49.2939L121.438 67.1761C121.276 67.5233 121.225 67.9119 121.292 68.2892C121.358 68.6665 121.539 69.0142 121.81 69.2851C122.081 69.556 122.429 69.737 122.806 69.8035C123.183 69.87 123.572 69.8188 123.919 69.6568L141.799 61.4605Z" stroke="#0078CE" stroke-width="1.86661" stroke-linecap="round" stroke-linejoin="round"/>
<path d="M46.2346 69.2822L45.812 65.573" stroke="#0078CE" stroke-width="1.86661" stroke-linecap="round" stroke-linejoin="round"/>
<path d="M44.1689 67.6396L47.8782 67.2171" stroke="#0078CE" stroke-width="1.86661" stroke-linecap="round" stroke-linejoin="round"/>
<path d="M42.7957 55.5834L46.6106 56.0882" stroke="#0078CE" stroke-width="1.86661" stroke-linecap="round" stroke-linejoin="round"/>
<path d="M43.2769 43.3164L42.8543 39.6072" stroke="#0078CE" stroke-width="1.86661" stroke-linecap="round" stroke-linejoin="round"/>
<path d="M41.2109 41.6748L44.9202 41.2522" stroke="#0078CE" stroke-width="1.86661" stroke-linecap="round" stroke-linejoin="round"/>
<path d="M51.329 48.036L53.3949 49.6793" stroke="#0078CE" stroke-width="1.86661" stroke-linecap="round" stroke-linejoin="round"/>
<path d="M58.1141 41.6268L56.7642 38.0232" stroke="#0078CE" stroke-width="1.86661" stroke-linecap="round" stroke-linejoin="round"/>
<path d="M69.2412 40.3604L68.8186 36.6511" stroke="#0078CE" stroke-width="1.86661" stroke-linecap="round" stroke-linejoin="round"/>
<path d="M67.1755 38.7158L70.8848 38.2932" stroke="#0078CE" stroke-width="1.86661" stroke-linecap="round" stroke-linejoin="round"/>
<path d="M65.4836 48.3028L54.7724 61.7683L73.4671 67.8859C73.8304 68.0076 74.2224 68.0145 74.5897 67.9057C74.9571 67.7969 75.282 67.5777 75.5205 67.2779C75.759 66.9781 75.8995 66.6121 75.9229 66.2297C75.9462 65.8473 75.8513 65.467 75.6511 65.1404L65.4836 48.3028Z" stroke="#0078CE" stroke-width="1.86661" stroke-linecap="round" stroke-linejoin="round"/>
<path d="M118.623 60.1133H77.2265C70.025 60.1133 64.187 65.9512 64.187 73.1528V74.9024C70.6212 74.9024 71.7589 85.1409 76.3095 87.4162C82.3771 85.1409 82.3771 74.9024 87.307 74.9024C92.6161 77.5568 92.6161 85.8993 98.3045 87.4162C103.614 84.7617 102.097 76.7983 108.164 74.9024C113.852 75.6607 114.232 85.5201 118.782 87.4162C125.23 84.0033 124.471 73.7647 131.663 74.9024V73.1528C131.663 65.9512 125.825 60.1133 118.623 60.1133Z" fill="#ACD2EC"/>
<path d="M68.7211 61.6477C73.1041 59.1354 78.8443 59.0214 83.89 59.3725L111.952 60.5103C111.952 60.5103 84.6485 63.1647 84.6485 75.2994C79.3393 87.4339 77.0639 86.6754 77.0639 86.6754C68.7211 87.4339 74.0302 71.8865 62.2742 73.8687C64.501 69.3489 64.338 64.1601 68.7211 61.6477Z" fill="#99C7E7"/>
<path d="M63.0854 105.706V70.6193C63.0854 64.1478 68.9242 58.9238 76.1345 58.9238H119.67C126.881 58.9238 132.719 64.1478 132.719 70.6193V105.706" fill="#ACD2EC"/>
<path d="M131.773 105.708V70.6222C131.773 64.768 126.458 59.8722 119.67 59.8722H76.1348C69.3462 59.8722 64.0313 64.768 64.0313 70.6222V105.708C64.0313 106.23 63.6075 106.653 63.0853 106.653C62.5631 106.653 62.1394 106.23 62.1394 105.708V70.6222C62.1394 63.5333 68.5028 57.9805 76.1348 57.9805H119.67C127.302 57.9805 133.666 63.5333 133.666 70.6222V105.708C133.666 106.23 133.242 106.653 132.719 106.653C132.197 106.653 131.773 106.23 131.773 105.708Z" fill="#111B22"/>
<path d="M81.3059 39.3975V31.6012C81.3059 31.079 81.7296 30.6553 82.2518 30.6553C82.774 30.6553 83.1977 31.079 83.1977 31.6012V39.3975C83.1977 39.9197 82.774 40.3435 82.2518 40.3435C81.7296 40.3435 81.3059 39.9197 81.3059 39.3975Z" fill="#111B22"/>
<path d="M112.653 39.3975V31.6012C112.653 31.079 113.077 30.6553 113.6 30.6553C114.122 30.6553 114.546 31.079 114.546 31.6012V39.3975C114.546 39.9197 114.122 40.3435 113.6 40.3435C113.077 40.3435 112.653 39.9197 112.653 39.3975Z" fill="#111B22"/>
<path d="M96.9824 39.3654V27.6705C96.9824 27.1483 97.4061 26.7246 97.9283 26.7246C98.4504 26.7246 98.8742 27.1483 98.8742 27.6705V39.3654C98.8741 39.8876 98.4504 40.3105 97.9283 40.3105C97.4062 40.3105 96.9825 39.8876 96.9824 39.3654Z" fill="#111B22"/>
<path d="M137.117 104.735C137.639 104.735 138.063 105.159 138.063 105.681C138.063 106.203 137.639 106.627 137.117 106.627H58.7445C58.2223 106.627 57.7986 106.203 57.7986 105.681C57.7986 105.159 58.2223 104.735 58.7445 104.735H137.117Z" fill="#324552"/>
<path d="M122.214 58.8551V47.8228C122.214 43.7626 118.506 40.3088 113.715 40.3088H82.1701C77.3374 40.3088 73.633 43.765 73.633 47.8228V58.8551C73.633 59.3773 73.2092 59.801 72.687 59.801C72.1649 59.801 71.7412 59.3773 71.7412 58.8551V47.8228C71.7412 42.5242 76.5009 38.4171 82.1701 38.417H113.715C119.348 38.417 124.104 42.5266 124.104 47.8228V58.8551C124.104 59.3773 123.681 59.801 123.159 59.801C122.637 59.8008 122.214 59.3772 122.214 58.8551Z" fill="#111B22"/>
<path d="M112.774 81.0116V79.8031C112.774 77.4105 110.816 75.4856 108.429 75.4856C106.012 75.4858 104.085 77.4405 104.085 79.8031V81.0116C104.085 84.4667 101.262 87.22 97.8489 87.22C94.3878 87.22 91.6131 84.4186 91.6129 81.0116V79.8031C91.6129 77.4106 89.6555 75.4857 87.2689 75.4856C84.8521 75.4856 82.9239 77.4404 82.9239 79.8031V81.0116C82.9238 84.4667 80.1008 87.22 76.6881 87.22C73.227 87.2199 70.4531 84.4186 70.453 81.0116V79.7249C70.453 77.36 68.5586 75.4395 66.1733 75.4074C66.1693 75.4074 66.1653 75.4075 66.1613 75.4074L64.7107 75.368C64.1888 75.3537 63.7774 74.9191 63.7914 74.3972C63.8056 73.8753 64.2402 73.4638 64.7622 73.4779L66.2119 73.5165L66.211 73.5174C69.6197 73.5696 72.344 76.3241 72.344 79.7249V81.0116C72.344 83.374 74.2714 85.329 76.6881 85.3291C79.0748 85.3291 81.0329 83.404 81.033 81.0116V79.8031C81.033 76.3959 83.8077 73.5946 87.2689 73.5946C90.6815 73.5948 93.5039 76.3479 93.5039 79.8031V81.0116C93.504 83.3741 95.4321 85.3291 97.8489 85.3291C100.235 85.3291 102.193 83.404 102.193 81.0116V79.8031C102.193 76.3961 104.968 73.5949 108.429 73.5946C111.842 73.5946 114.665 76.3478 114.665 79.8031V81.0116C114.665 83.3741 116.593 85.3291 119.009 85.3291C121.397 85.329 123.354 83.404 123.355 81.0116V79.8031C123.355 76.396 126.129 73.5947 129.589 73.5946H131.353C131.875 73.5948 132.298 74.0177 132.298 74.5397C132.298 75.0618 131.875 75.4854 131.353 75.4856H129.589C127.173 75.4857 125.246 77.4404 125.246 79.8031V81.0116C125.246 84.4667 122.422 87.22 119.009 87.22C115.549 87.22 112.774 84.4186 112.774 81.0116Z" fill="#111B22"/>
<path d="M63.8914 105.337V78.6046C66.5328 78.0234 66.7517 79.0696 69.3774 85.5778C72.4252 93.1322 81.5687 90.8073 83.3973 86.7392C85.1568 82.8253 129.352 110.43 131.068 98.0334V96.3796C131.137 96.9957 131.136 97.5455 131.068 98.0334V105.337H63.8914Z" fill="#99C7E7"/>
<path d="M90.4394 23.9805C90.9043 24.4492 91.6668 24.4555 92.1426 23.9941L92.2266 23.9043C92.618 23.4393 92.5982 22.7485 92.1623 22.3089L88.2151 18.3285C87.7501 17.8596 86.9871 17.8538 86.5113 18.3154C86.0358 18.7771 86.0274 19.5313 86.4922 20.0001L90.4394 23.9805Z" fill="#0078CE"/>
<path d="M106.366 23.5653L106.282 23.6552C105.889 24.1218 105.91 24.8149 106.347 25.2559C106.784 25.6967 107.484 25.7295 107.963 25.3503L108.055 25.2689L112.07 21.3739C112.547 20.9108 112.556 20.1542 112.09 19.684C111.623 19.2136 110.858 19.2073 110.38 19.6703L106.366 23.5653Z" fill="#0078CE"/>
<path d="M97.9761 20.3706L97.9818 20.4917C98.0375 21.0918 98.5466 21.5646 99.1713 21.5705L99.2941 21.5656C99.8627 21.5143 100.319 21.0733 100.382 20.5142L100.389 20.3932L100.444 14.8147C100.451 14.1584 99.9162 13.6213 99.2501 13.6149C98.5839 13.6087 98.038 14.1357 98.0313 14.792L97.9761 20.3706Z" fill="#0078CE"/>
</g>
</g>
<defs>
<clipPath id="clip0_56606_741482">
<rect width="196" height="121" fill="white"/>
</clipPath>
</defs>
</svg>
