<svg width="196" height="121" viewBox="0 0 196 121" fill="none" xmlns="http://www.w3.org/2000/svg">
<path d="M78.7838 24.0234H122.865C123.962 24.0234 125.013 24.5939 125.789 25.6092C126.564 26.6246 127 28.0017 127 29.4376V98.0998C127 99.5357 126.564 100.913 125.789 101.928C125.013 102.944 123.962 103.514 122.865 103.514H73.1352C72.0385 103.514 70.9867 102.944 70.2112 101.928C69.4357 100.913 69 99.5357 69 98.0998V36.9633L78.7838 24.0234Z" fill="white"/>
<path fill-rule="evenodd" clip-rule="evenodd" d="M78.0827 23.4933C78.2488 23.2736 78.5083 23.1445 78.7837 23.1445H122.865C124.283 23.1445 125.576 23.8833 126.487 25.0757C127.394 26.2631 127.879 27.8339 127.879 29.4375V98.0997C127.879 99.7033 127.394 101.274 126.487 102.461C125.576 103.654 124.283 104.393 122.865 104.393H73.1351C71.7171 104.393 70.4234 103.654 69.5127 102.461C68.6058 101.274 68.1211 99.7033 68.1211 98.0997V36.9631C68.1211 36.7718 68.1835 36.5857 68.2989 36.4331L78.0827 23.4933ZM79.221 24.9021L69.8787 37.258V98.0997C69.8787 99.3679 70.2653 100.551 70.9094 101.395C71.5497 102.233 72.3596 102.635 73.1351 102.635H122.865C123.64 102.635 124.45 102.233 125.09 101.395C125.734 100.551 126.121 99.3679 126.121 98.0997V29.4375C126.121 28.1692 125.734 26.9858 125.09 26.1425C124.45 25.3042 123.64 24.9021 122.865 24.9021H79.221Z" fill="#111B22"/>
<path d="M69 36.9633H77.014C77.4841 36.9604 77.9343 36.7138 78.266 36.2776C78.5976 35.8413 78.7838 35.2507 78.7838 34.6352V24.0234L69 36.9633Z" fill="white"/>
<path fill-rule="evenodd" clip-rule="evenodd" d="M79.0632 23.1902C79.4213 23.3103 79.6625 23.6457 79.6625 24.0234V34.6351C79.6625 35.4179 79.4276 36.2014 78.9654 36.8093C78.4996 37.4221 77.8093 37.8371 77.0192 37.842L77.0139 37.842V37.842H68.9999C68.6664 37.842 68.3617 37.6532 68.2131 37.3547C68.0646 37.0561 68.0978 36.6992 68.2989 36.4332L78.0827 23.4934C78.3105 23.1922 78.7052 23.0701 79.0632 23.1902ZM70.7661 36.0844H77.0105C77.1606 36.0828 77.3696 36.0043 77.5663 35.7457C77.7675 35.481 77.9049 35.0835 77.9049 34.6351V26.6427L70.7661 36.0844Z" fill="#111B22"/>
<path d="M76.0601 42.9914C76.0636 42.2227 76.6895 41.6024 77.4582 41.6059L98.3555 41.701C99.1241 41.7045 99.7444 42.3304 99.7409 43.0991C99.7374 43.8677 99.1115 44.488 98.3428 44.4845L77.4455 44.3895C76.6769 44.386 76.0566 43.7601 76.0601 42.9914Z" fill="#DCDCDC"/>
<path fill-rule="evenodd" clip-rule="evenodd" d="M77.4582 41.6059C76.6895 41.6024 76.0636 42.2227 76.0601 42.9914C76.0566 43.7601 76.6769 44.386 77.4455 44.3895L98.3428 44.4845C99.1115 44.488 99.7374 43.8677 99.7409 43.0991C99.7444 42.3304 99.1241 41.7045 98.3555 41.701L77.4582 41.6059Z" fill="#111B22"/>
<path d="M76.1226 60.4225C76.1261 59.6539 76.752 59.0336 77.5207 59.0371L115.099 59.208C115.868 59.2115 116.488 59.8374 116.484 60.6061C116.481 61.3747 115.855 61.995 115.086 61.9915L77.508 61.8207C76.7394 61.8172 76.1191 61.1912 76.1226 60.4225Z" fill="#DCDCDC"/>
<path fill-rule="evenodd" clip-rule="evenodd" d="M77.5207 59.0371C76.752 59.0336 76.1261 59.6539 76.1226 60.4225C76.1191 61.1912 76.7394 61.8172 77.508 61.8207L115.086 61.9915C115.855 61.995 116.481 61.3747 116.484 60.6061C116.488 59.8374 115.868 59.2115 115.099 59.208L77.5207 59.0371Z" fill="#111B22"/>
<path d="M76.0601 74.3425C76.0636 73.5738 76.6895 72.9535 77.4582 72.957L112.795 73.1177C113.563 73.1212 114.184 73.7472 114.18 74.5158C114.177 75.2845 113.551 75.9048 112.782 75.9013L77.4455 75.7406C76.6769 75.7371 76.0566 75.1111 76.0601 74.3425Z" fill="#DCDCDC"/>
<path fill-rule="evenodd" clip-rule="evenodd" d="M77.4582 72.957C76.6895 72.9535 76.0636 73.5738 76.0601 74.3425C76.0566 75.1111 76.6769 75.7371 77.4455 75.7406L112.782 75.9013C113.551 75.9048 114.177 75.2845 114.18 74.5158C114.184 73.7472 113.563 73.1212 112.795 73.1177L77.4582 72.957Z" fill="#111B22"/>
<path d="M76.0601 88.6882C76.0636 87.9195 76.6895 87.2992 77.4582 87.3027L107.711 87.4403C108.48 87.4438 109.1 88.0697 109.096 88.8384C109.093 89.6071 108.467 90.2274 107.698 90.2239L77.4455 90.0863C76.6769 90.0828 76.0566 89.4568 76.0601 88.6882Z" fill="#DCDCDC"/>
<path fill-rule="evenodd" clip-rule="evenodd" d="M77.4582 87.3027C76.6895 87.2992 76.0636 87.9195 76.0601 88.6882C76.0566 89.4568 76.6769 90.0828 77.4455 90.0863L107.698 90.2239C108.467 90.2274 109.093 89.6071 109.096 88.8384C109.1 88.0697 108.48 87.4438 107.711 87.4403L77.4582 87.3027Z" fill="#111B22"/>
<path d="M76.0366 48.5593C76.0401 47.7906 76.6661 47.1703 77.4348 47.1738L89.2649 47.2276C90.0336 47.2311 90.6539 47.8571 90.6504 48.6257C90.6469 49.3944 90.0209 50.0147 89.2523 50.0112L77.4221 49.9574C76.6534 49.9539 76.0331 49.3279 76.0366 48.5593Z" fill="#EEEEEE"/>
<path fill-rule="evenodd" clip-rule="evenodd" d="M77.4348 47.1738C76.6661 47.1703 76.0401 47.7906 76.0366 48.5593C76.0331 49.3279 76.6534 49.9539 77.4221 49.9574L89.2523 50.0112C90.0209 50.0147 90.6469 49.3944 90.6504 48.6257C90.6539 47.8571 90.0336 47.2311 89.2649 47.2276L77.4348 47.1738Z" fill="#111B22"/>
<path d="M76.0991 65.9904C76.1026 65.2218 76.7286 64.6015 77.4973 64.605L89.3274 64.6588C90.0961 64.6623 90.7164 65.2882 90.7129 66.0569C90.7094 66.8255 90.0834 67.4458 89.3148 67.4423L77.4846 67.3885C76.7159 67.385 76.0956 66.7591 76.0991 65.9904Z" fill="#EEEEEE"/>
<path fill-rule="evenodd" clip-rule="evenodd" d="M77.4973 64.605C76.7286 64.6015 76.1026 65.2218 76.0991 65.9904C76.0956 66.7591 76.7159 67.385 77.4846 67.3885L89.3148 67.4423C90.0834 67.4458 90.7094 66.8255 90.7129 66.0569C90.7164 65.2882 90.0961 64.6623 89.3274 64.6588L77.4973 64.605Z" fill="#111B22"/>
<path d="M76.0366 79.9089C76.0401 79.1402 76.6661 78.5199 77.4348 78.5234L89.2649 78.5772C90.0336 78.5807 90.6539 79.2067 90.6504 79.9753C90.6469 80.744 90.0209 81.3643 89.2523 81.3608L77.4221 81.307C76.6534 81.3035 76.0331 80.6775 76.0366 79.9089Z" fill="#EEEEEE"/>
<path fill-rule="evenodd" clip-rule="evenodd" d="M77.4348 78.5234C76.6661 78.5199 76.0401 79.1402 76.0366 79.9089C76.0331 80.6775 76.6534 81.3035 77.4221 81.307L89.2523 81.3608C90.0209 81.3643 90.6469 80.744 90.6504 79.9753C90.6539 79.2067 90.0336 78.5807 89.2649 78.5772L77.4348 78.5234Z" fill="#111B22"/>
<path d="M76.0366 94.256C76.0401 93.4874 76.6661 92.8671 77.4348 92.8706L89.2649 92.9244C90.0336 92.9279 90.6539 93.5538 90.6504 94.3225C90.6469 95.0912 90.0209 95.7114 89.2523 95.708L77.4221 95.6542C76.6534 95.6507 76.0331 95.0247 76.0366 94.256Z" fill="#EEEEEE"/>
<path fill-rule="evenodd" clip-rule="evenodd" d="M77.4348 92.8706C76.6661 92.8671 76.0401 93.4874 76.0366 94.256C76.0331 95.0247 76.6534 95.6507 77.4221 95.6542L89.2523 95.708C90.0209 95.7114 90.6469 95.0912 90.6504 94.3225C90.6539 93.5538 90.0336 92.9279 89.2649 92.9244L77.4348 92.8706Z" fill="#111B22"/>
<path d="M104.148 35.0086C104.148 37.6052 104.66 40.1763 105.654 42.5753C106.647 44.9742 108.104 47.1539 109.94 48.99C111.776 50.8261 113.956 52.2825 116.354 53.2762C118.753 54.2699 121.325 54.7813 123.921 54.7813C126.518 54.7813 129.089 54.2699 131.488 53.2762C133.887 52.2825 136.067 50.8261 137.903 48.99C139.739 47.1539 141.195 44.9742 142.189 42.5753C143.182 40.1763 143.694 37.6052 143.694 35.0086C143.694 29.7645 141.611 24.7352 137.903 21.0271C134.194 17.319 129.165 15.2358 123.921 15.2358C118.677 15.2358 113.648 17.319 109.94 21.0271C106.232 24.7352 104.148 29.7645 104.148 35.0086Z" fill="#BDD9EB"/>
<path fill-rule="evenodd" clip-rule="evenodd" d="M109.013 20.0949C112.969 16.1396 118.333 13.9175 123.927 13.9175C129.521 13.9175 134.885 16.1396 138.84 20.0949C142.796 24.0502 145.018 29.4147 145.018 35.0084C145.018 37.7781 144.472 40.5207 143.412 43.0795C142.352 45.6384 140.799 47.9634 138.84 49.9219C136.882 51.8804 134.557 53.4339 131.998 54.4938C129.439 55.5538 126.697 56.0993 123.927 56.0993C121.157 56.0993 118.415 55.5538 115.856 54.4938C113.297 53.4339 110.972 51.8804 109.013 49.9219C107.055 47.9634 105.501 45.6384 104.441 43.0795C103.381 40.5207 102.836 37.7781 102.836 35.0084C102.836 29.4147 105.058 24.0502 109.013 20.0949ZM123.927 16.5538C119.032 16.5538 114.338 18.4982 110.878 21.9591C107.417 25.42 105.472 30.1139 105.472 35.0084C105.472 37.4319 105.95 39.8316 106.877 42.0706C107.804 44.3096 109.164 46.3441 110.878 48.0577C112.591 49.7714 114.626 51.1307 116.865 52.0582C119.104 52.9856 121.503 53.4629 123.927 53.4629C126.35 53.4629 128.75 52.9856 130.989 52.0582C133.228 51.1307 135.263 49.7714 136.976 48.0577C138.69 46.3441 140.049 44.3096 140.977 42.0706C141.904 39.8316 142.381 37.4319 142.381 35.0084C142.381 30.1139 140.437 25.42 136.976 21.9591C133.515 18.4982 128.821 16.5538 123.927 16.5538Z" fill="#0078CE"/>
<g clip-path="url(#clip0_54290_1043908)">
<path fill-rule="evenodd" clip-rule="evenodd" d="M118.204 27.4882C119.598 26.9655 121.465 26.6602 123.483 26.6602C125.502 26.6602 127.369 26.9655 128.763 27.4882C129.457 27.7484 130.079 28.0794 130.544 28.4915C131.008 28.9027 131.392 29.4697 131.392 30.1753C131.392 30.8809 131.008 31.4479 130.544 31.8591C130.079 32.2712 129.457 32.6022 128.763 32.8624C127.369 33.3851 125.502 33.6905 123.483 33.6905C121.465 33.6905 119.598 33.3851 118.204 32.8624C117.51 32.6022 116.887 32.2712 116.423 31.8591C115.959 31.4479 115.574 30.8809 115.574 30.1753C115.574 29.4697 115.959 28.9027 116.423 28.4915C116.887 28.0794 117.51 27.7484 118.204 27.4882ZM117.588 29.8066C117.341 30.0262 117.332 30.1528 117.332 30.1753C117.332 30.1978 117.341 30.3244 117.588 30.544C117.835 30.7627 118.242 30.9998 118.821 31.2167C119.971 31.6481 121.62 31.9329 123.483 31.9329C125.347 31.9329 126.995 31.6481 128.146 31.2167C128.724 30.9998 129.131 30.7627 129.378 30.544C129.626 30.3244 129.635 30.1978 129.635 30.1753C129.635 30.1528 129.626 30.0262 129.378 29.8066C129.131 29.5879 128.724 29.3508 128.146 29.1339C126.995 28.7025 125.347 28.4177 123.483 28.4177C121.62 28.4177 119.971 28.7025 118.821 29.1339C118.242 29.3508 117.835 29.5879 117.588 29.8066Z" fill="#0078CE"/>
<path fill-rule="evenodd" clip-rule="evenodd" d="M116.453 29.2964C116.938 29.2964 117.332 29.6898 117.332 30.1752V35.4479C117.332 35.4704 117.341 35.597 117.588 35.8166C117.835 36.0353 118.242 36.2724 118.821 36.4893C119.971 36.9207 121.62 37.2055 123.483 37.2055C123.786 37.2055 124.084 37.1979 124.376 37.1837C124.861 37.1601 125.273 37.5339 125.297 38.0187C125.321 38.5034 124.947 38.9156 124.462 38.9392C124.141 38.9548 123.815 38.9631 123.483 38.9631C121.465 38.9631 119.598 38.6577 118.204 38.135C117.51 37.8748 116.887 37.5438 116.423 37.1317C115.959 36.7205 115.574 36.1535 115.574 35.4479V30.1752C115.574 29.6898 115.968 29.2964 116.453 29.2964Z" fill="#0078CE"/>
<path fill-rule="evenodd" clip-rule="evenodd" d="M130.516 29.2964C131.001 29.2964 131.394 29.6898 131.394 30.1752V36.3267C131.394 36.812 131.001 37.2055 130.516 37.2055C130.03 37.2055 129.637 36.812 129.637 36.3267V30.1752C129.637 29.6898 130.03 29.2964 130.516 29.2964Z" fill="#0078CE"/>
<path fill-rule="evenodd" clip-rule="evenodd" d="M116.453 34.5688C116.938 34.5688 117.332 34.9623 117.332 35.4476V40.7204C117.332 40.7428 117.341 40.8694 117.588 41.089C117.835 41.3077 118.242 41.5448 118.821 41.7618C119.971 42.1932 121.62 42.4779 123.483 42.4779C123.969 42.4779 124.362 42.8714 124.362 43.3567C124.362 43.8421 123.969 44.2355 123.483 44.2355C121.465 44.2355 119.598 43.9302 118.204 43.4074C117.51 43.1473 116.887 42.8163 116.423 42.4042C115.959 41.993 115.574 41.426 115.574 40.7204V35.4476C115.574 34.9623 115.968 34.5688 116.453 34.5688Z" fill="#0078CE"/>
<path fill-rule="evenodd" clip-rule="evenodd" d="M132.015 39.2208C132.358 39.564 132.358 40.1204 132.015 40.4636L127.621 44.8575C127.278 45.2007 126.722 45.2007 126.378 44.8575C126.035 44.5143 126.035 43.9579 126.378 43.6147L130.772 39.2208C131.116 38.8776 131.672 38.8776 132.015 39.2208Z" fill="#0078CE"/>
<path fill-rule="evenodd" clip-rule="evenodd" d="M126.559 39.8422C126.559 39.3568 126.952 38.9634 127.437 38.9634H131.392C131.877 38.9634 132.271 39.3568 132.271 39.8422V43.7967C132.271 44.2821 131.877 44.6755 131.392 44.6755C130.907 44.6755 130.513 44.2821 130.513 43.7967V40.721H127.437C126.952 40.721 126.559 40.3275 126.559 39.8422Z" fill="#0078CE"/>
</g>
<path d="M114.468 28.9393C109.9 22.1666 118.051 18.7505 118.051 18.7505C113.028 19.6055 110.609 21.1078 107.421 24.7213C107.042 25.1505 106.718 25.6279 106.458 26.1375C105.215 28.5688 104.522 30.4236 103.909 32.8133C103.445 34.6187 103.412 36.5096 103.767 38.3395C104.096 40.0368 104.452 41.5331 104.974 43.3894C105.319 44.6181 105.882 45.7811 106.679 46.7776C108.37 48.8904 109.941 50.3625 111.374 51.4534C112.216 52.0952 113.191 52.5329 114.202 52.8469L117.603 53.902C117.603 53.902 114.191 51.3362 120.29 48.8076C126.388 46.2789 119.036 35.7121 114.468 28.9393Z" fill="#0078CE" fill-opacity="0.2"/>
<path d="M155.016 44.0737C155.62 43.9453 156.008 43.3512 155.884 42.7466C155.759 42.1421 155.168 41.7561 154.564 41.8845L149.3 43.0038C148.696 43.1322 148.308 43.7264 148.433 44.3309C148.558 44.9355 149.148 45.3214 149.752 45.1931L155.016 44.0737Z" fill="#999999"/>
<path fill-rule="evenodd" clip-rule="evenodd" d="M155.884 42.7466C156.008 43.3512 155.62 43.9453 155.016 44.0737L149.752 45.1931C149.148 45.3214 148.558 44.9355 148.433 44.3309C148.308 43.7264 148.696 43.1322 149.3 43.0038L154.564 41.8845C155.168 41.7561 155.759 42.1421 155.884 42.7466Z" fill="#0078CE"/>
<path d="M140.264 61.2771C140.391 61.8951 140.995 62.2896 141.613 62.1584C142.23 62.0271 142.627 61.4198 142.499 60.8018L141.454 55.7424C141.327 55.1244 140.723 54.7298 140.106 54.861C139.488 54.9923 139.092 55.5996 139.219 56.2176L140.264 61.2771Z" fill="#999999"/>
<path fill-rule="evenodd" clip-rule="evenodd" d="M141.613 62.1584C140.995 62.2896 140.391 61.8951 140.264 61.2771L139.219 56.2176C139.092 55.5996 139.488 54.9923 140.106 54.861C140.723 54.7298 141.327 55.1244 141.454 55.7424L142.499 60.8018C142.627 61.4198 142.23 62.0271 141.613 62.1584Z" fill="#0078CE"/>
<path d="M151.502 55.4346C152.03 55.7713 152.74 55.6224 153.088 55.1022C153.436 54.5819 153.291 53.8872 152.763 53.5505L148.341 50.7298C147.813 50.3932 147.103 50.542 146.754 51.0623C146.406 51.5826 146.552 52.2773 147.08 52.6139L151.502 55.4346Z" fill="#999999"/>
<path fill-rule="evenodd" clip-rule="evenodd" d="M153.088 55.1022C152.74 55.6224 152.03 55.7713 151.502 55.4346L147.08 52.6139C146.552 52.2773 146.406 51.5826 146.754 51.0623C147.103 50.542 147.813 50.3932 148.341 50.7298L152.763 53.5505C153.291 53.8872 153.436 54.5819 153.088 55.1022Z" fill="#0078CE"/>
<defs>
<clipPath id="clip0_54290_1043908">
<rect width="21.0909" height="21.0909" fill="white" transform="translate(112.941 24.9023)"/>
</clipPath>
</defs>
</svg>
