<svg width="196" height="121" viewBox="0 0 196 121" fill="none" xmlns="http://www.w3.org/2000/svg">
<path d="M65.265 21.3213H124.045C125.507 21.3213 126.91 21.888 127.944 22.8968C128.978 23.9056 129.559 25.2739 129.559 26.7005V94.9198C129.559 96.3465 128.978 97.7147 127.944 98.7235C126.91 99.7323 125.507 100.299 124.045 100.299H57.7328C56.2704 100.299 54.8679 99.7323 53.8338 98.7235C52.7997 97.7147 52.2188 96.3465 52.2188 94.9198V34.1776L65.265 21.3213Z" fill="white" stroke="#17222B" stroke-width="1.86523" stroke-linecap="round" stroke-linejoin="round"/>
<path d="M127.776 56.0835V99.437H70.2021V56.0835H127.776Z" fill="#D2D2D2" stroke="#17222B" stroke-width="3.03629"/>
<path d="M52.2188 34.1776H62.905C63.5319 34.1748 64.1322 33.9298 64.5745 33.4964C65.0167 33.0629 65.265 32.4762 65.265 31.8646V21.3213L52.2188 34.1776Z" fill="white" stroke="#17222B" stroke-width="1.86523" stroke-linecap="round" stroke-linejoin="round"/>
<path d="M129.087 39.8413H69.313C66.9871 39.8413 65.1016 41.6853 65.1016 43.9599V56.4662C65.1016 58.7408 66.9871 60.5847 69.313 60.5847H129.087C131.413 60.5847 133.298 58.7408 133.298 56.4662V43.9599C133.298 41.6853 131.413 39.8413 129.087 39.8413Z" fill="white" stroke="#17222B" stroke-width="1.52195" stroke-linecap="round" stroke-linejoin="round"/>
<path d="M76.4727 48.0791C77.704 48.0792 78.6377 49.0435 78.6377 50.1543C78.6375 51.2649 77.7039 52.2294 76.4727 52.2295C75.2413 52.2295 74.3079 51.265 74.3076 50.1543C74.3076 49.0434 75.2412 48.0791 76.4727 48.0791Z" fill="#D2D2D2" stroke="#17222B" stroke-width="3.03629"/>
<path d="M82.7077 48.4334V52.744C82.7077 53.4498 82.3266 54.1053 81.7103 54.4645L77.9365 56.6261C77.3203 56.979 76.5579 56.979 75.9353 56.6261L72.1615 54.4645C71.5453 54.1116 71.1641 53.4561 71.1641 52.744V48.4334C71.1641 47.7276 71.5453 47.0721 72.1615 46.7129L75.9353 44.5513C76.5515 44.1984 77.3139 44.1984 77.9365 44.5513L81.7103 46.7129C82.3266 47.0721 82.7077 47.7213 82.7077 48.4334Z" fill="white" stroke="#17222B" stroke-width="1.14146" stroke-linecap="round" stroke-linejoin="round"/>
<path d="M76.9412 49.9587C77.7588 49.9587 78.4215 49.3013 78.4215 48.4903C78.4215 47.6794 77.7588 47.022 76.9412 47.022C76.1237 47.022 75.4609 47.6794 75.4609 48.4903C75.4609 49.3013 76.1237 49.9587 76.9412 49.9587Z" stroke="#17222B" stroke-width="1.14146" stroke-linecap="round" stroke-linejoin="round"/>
<path d="M79.4771 53.5251C79.4771 52.3908 78.3398 51.4707 76.9358 51.4707C75.5317 51.4707 74.3945 52.3908 74.3945 53.5251" stroke="#17222B" stroke-width="1.14146" stroke-linecap="round" stroke-linejoin="round"/>
<rect x="85.943" y="48.3717" width="12.8783" height="1.46154" rx="0.730768" fill="#17222B" stroke="#17222B" stroke-width="0.760974"/>
<rect x="85.943" y="52.0758" width="18.1825" height="1.46154" rx="0.730768" fill="#17222B" stroke="#17222B" stroke-width="0.760974"/>
<path d="M129.087 62.8081H69.313C66.9871 62.8081 65.1016 64.6521 65.1016 66.9267V79.433C65.1016 81.7076 66.9871 83.5515 69.313 83.5515H129.087C131.413 83.5515 133.298 81.7076 133.298 79.433V66.9267C133.298 64.6521 131.413 62.8081 129.087 62.8081Z" fill="white" stroke="#17222B" stroke-width="1.52195" stroke-linecap="round" stroke-linejoin="round"/>
<path d="M82.7519 70.6552V74.9624C82.7519 75.6677 82.3692 76.3226 81.7506 76.6816L77.9624 78.8415C77.3438 79.1941 76.5785 79.1941 75.9535 78.8415L72.1653 76.6816C71.5467 76.3289 71.1641 75.674 71.1641 74.9624V70.6552C71.1641 69.95 71.5467 69.295 72.1653 68.9361L75.9535 66.7762C76.5721 66.4236 77.3374 66.4236 77.9624 66.7762L81.7506 68.9361C82.3692 69.295 82.7519 69.9437 82.7519 70.6552Z" fill="white" stroke="#17222B" stroke-width="1.14146" stroke-linecap="round" stroke-linejoin="round"/>
<path d="M76.9625 72.1781C77.7832 72.1781 78.4484 71.5212 78.4484 70.7108C78.4484 69.9005 77.7832 69.2437 76.9625 69.2437C76.1418 69.2437 75.4766 69.9005 75.4766 70.7108C75.4766 71.5212 76.1418 72.1781 76.9625 72.1781Z" stroke="#17222B" stroke-width="1.14146" stroke-linecap="round" stroke-linejoin="round"/>
<path d="M79.5121 75.7428C79.5121 74.6093 78.3705 73.6899 76.9611 73.6899C75.5517 73.6899 74.4102 74.6093 74.4102 75.7428" stroke="#17222B" stroke-width="1.14146" stroke-linecap="round" stroke-linejoin="round"/>
<rect x="85.9938" y="70.5944" width="25.8613" height="1.45979" rx="0.729894" fill="#17222B" stroke="#17222B" stroke-width="0.760974"/>
<rect x="85.9938" y="74.2945" width="19.7762" height="1.45979" rx="0.729894" fill="#17222B" stroke="#17222B" stroke-width="0.760974"/>
<path d="M122.779 70.9917C124.025 70.9917 124.959 71.9611 124.959 73.064C124.959 74.1666 124.025 75.1362 122.779 75.1362C121.534 75.1361 120.601 74.1666 120.601 73.064C120.601 71.9612 121.533 70.9918 122.779 70.9917Z" fill="#D2D2D2" stroke="#17222B" stroke-width="3.03629"/>
<path d="M129.087 85.7734H69.313C66.9871 85.7734 65.1016 87.6174 65.1016 89.892V102.398C65.1016 104.673 66.9871 106.517 69.313 106.517H129.087C131.413 106.517 133.298 104.673 133.298 102.398V89.892C133.298 87.6174 131.413 85.7734 129.087 85.7734Z" fill="white" stroke="#17222B" stroke-width="1.52195" stroke-linecap="round" stroke-linejoin="round"/>
<path d="M82.7519 93.6211V97.9282C82.7519 98.6335 82.3692 99.2884 81.7506 99.6474L77.9624 101.807C77.3438 102.16 76.5785 102.16 75.9535 101.807L72.1653 99.6474C71.5467 99.2947 71.1641 98.6398 71.1641 97.9282V93.6211C71.1641 92.9158 71.5467 92.2609 72.1653 91.9019L75.9535 89.742C76.5721 89.3894 77.3374 89.3894 77.9624 89.742L81.7506 91.9019C82.3692 92.2609 82.7519 92.9095 82.7519 93.6211Z" fill="white" stroke="#17222B" stroke-width="1.14146" stroke-linecap="round" stroke-linejoin="round"/>
<path d="M76.9625 95.1439C77.7832 95.1439 78.4484 94.487 78.4484 93.6767C78.4484 92.8663 77.7832 92.2095 76.9625 92.2095C76.1418 92.2095 75.4766 92.8663 75.4766 93.6767C75.4766 94.487 76.1418 95.1439 76.9625 95.1439Z" stroke="#17222B" stroke-width="1.14146" stroke-linecap="round" stroke-linejoin="round"/>
<path d="M79.5121 98.7081C79.5121 97.5746 78.3705 96.6553 76.9611 96.6553C75.5517 96.6553 74.4102 97.5746 74.4102 98.7081" stroke="#17222B" stroke-width="1.14146" stroke-linecap="round" stroke-linejoin="round"/>
<rect x="85.9938" y="93.5597" width="25.8613" height="1.45979" rx="0.729894" fill="#17222B" stroke="#17222B" stroke-width="0.760974"/>
<rect x="85.9938" y="97.2609" width="19.7762" height="1.45979" rx="0.729894" fill="#17222B" stroke="#17222B" stroke-width="0.760974"/>
<path d="M122.779 93.9565C124.025 93.9565 124.959 94.926 124.959 96.0288C124.959 97.1315 124.025 98.1011 122.779 98.1011C121.534 98.101 120.601 97.1314 120.601 96.0288C120.601 94.926 121.533 93.9566 122.779 93.9565Z" fill="#D2D2D2" stroke="#17222B" stroke-width="3.03629"/>
<path d="M122.355 61.259C131.357 61.259 138.655 54.1395 138.655 45.3573C138.655 36.575 131.357 29.4556 122.355 29.4556C113.353 29.4556 106.055 36.575 106.055 45.3573C106.055 54.1395 113.353 61.259 122.355 61.259Z" fill="#BDD9EB" stroke="#17222B" stroke-width="2.28292" stroke-linecap="round" stroke-linejoin="round"/>
<path d="M134.742 59.0947L140.83 65.0334" stroke="#17222B" stroke-width="3.03629" stroke-linecap="round" stroke-linejoin="round"/>
<path d="M140.152 62.1499L138.262 64.0785C137.412 64.9461 137.444 66.3218 138.333 67.1511L154.754 82.4656C155.644 83.2949 157.054 83.264 157.904 82.3964L159.794 80.4677C160.644 79.6002 160.612 78.2245 159.723 77.3952L143.301 62.0807C142.412 61.2513 141.002 61.2823 140.152 62.1499Z" fill="white" stroke="#17222B" stroke-width="2.28292" stroke-linecap="round" stroke-linejoin="round"/>
<rect x="0.651251" y="0.396607" width="1.07303" height="6.27844" rx="0.536517" transform="matrix(0.233004 0.96542 0.980845 -0.226196 42.4777 32.34)" fill="#999999" stroke="#0078CE" stroke-width="1.07303"/>
<rect x="-0.412329" y="0.657009" width="1.10272" height="6.05084" rx="0.551361" transform="matrix(-0.980846 0.226193 0.233006 0.965419 56.0848 14.6292)" fill="#999999" stroke="#0078CE" stroke-width="1.10272"/>
<rect x="0.180246" y="0.734545" width="1.09195" height="6.13468" rx="0.545975" transform="matrix(-0.538507 0.832345 0.868644 0.513038 45.2252 21.0104)" fill="#999999" stroke="#0078CE" stroke-width="1.09195"/>
</svg>
