<svg width="196" height="121" viewBox="0 0 196 121" fill="none" xmlns="http://www.w3.org/2000/svg">
<circle cx="97.4689" cy="64.4694" r="38.4303" fill="#BFDBEE" stroke="#111B22" stroke-width="2.07731"/>
<g clip-path="url(#clip0_54275_1043817)">
<path d="M79.9297 51.3148C79.9297 50.7332 80.1607 50.1755 80.5719 49.7643C80.9831 49.3531 81.5409 49.1221 82.1224 49.1221H90.8933C91.4748 49.1221 92.0325 49.3531 92.4438 49.7643C92.855 50.1755 93.086 50.7332 93.086 51.3148V60.0857C93.086 60.6672 92.855 61.2249 92.4438 61.6361C92.0325 62.0474 91.4748 62.2784 90.8933 62.2784H82.1224C81.5409 62.2784 80.9831 62.0474 80.5719 61.6361C80.1607 61.2249 79.9297 60.6672 79.9297 60.0857V51.3148Z" stroke="#111B22" stroke-width="3.12184" stroke-linecap="round" stroke-linejoin="round"/>
<path d="M101.855 73.2401C101.855 72.6585 102.086 72.1008 102.498 71.6896C102.909 71.2784 103.467 71.0474 104.048 71.0474H112.819C113.401 71.0474 113.958 71.2784 114.37 71.6896C114.781 72.1008 115.012 72.6585 115.012 73.2401V82.011C115.012 82.5925 114.781 83.1502 114.37 83.5614C113.958 83.9727 113.401 84.2037 112.819 84.2037H104.048C103.467 84.2037 102.909 83.9727 102.498 83.5614C102.086 83.1502 101.855 82.5925 101.855 82.011V73.2401Z" stroke="#111B22" stroke-width="3.12184" stroke-linecap="round" stroke-linejoin="round"/>
<path d="M79.9297 73.2401C79.9297 72.6585 80.1607 72.1008 80.5719 71.6896C80.9831 71.2784 81.5409 71.0474 82.1224 71.0474H90.8933C91.4748 71.0474 92.0325 71.2784 92.4438 71.6896C92.855 72.1008 93.086 72.6585 93.086 73.2401V82.011C93.086 82.5925 92.855 83.1502 92.4438 83.5614C92.0325 83.9727 91.4748 84.2037 90.8933 84.2037H82.1224C81.5409 84.2037 80.9831 83.9727 80.5719 83.5614C80.1607 83.1502 79.9297 82.5925 79.9297 82.011V73.2401Z" stroke="#111B22" stroke-width="3.12184" stroke-linecap="round" stroke-linejoin="round"/>
<path d="M101.855 55.6992H115.012" stroke="#111B22" stroke-width="3.12184" stroke-linecap="round" stroke-linejoin="round"/>
<path d="M108.43 49.1221V62.2784" stroke="#111B22" stroke-width="3.12184" stroke-linecap="round" stroke-linejoin="round"/>
</g>
<path d="M75.824 67.6255C74.5472 54.5554 76.1477 33.129 76.1477 33.129C72.875 34.4173 64.8796 43.2851 61.7393 49.0494C60.5457 51.2403 59.5288 53.8441 59.2786 56.3306C58.8399 60.69 59.6166 67.5752 60.017 71.8932C60.2087 73.9595 60.5931 76.0214 61.5322 77.8786C62.8362 80.4575 64.6719 83.6479 66.0035 86.0765C66.7093 87.3636 67.5746 88.5583 68.5793 89.6311C71.0194 92.2366 74.3131 95.9349 76.3195 97.6543C77.0323 98.2652 77.9152 98.6071 78.82 98.8551L87.9463 101.356L103.703 102.867C103.703 102.867 111.3 102.288 113.933 98.1669C116.566 94.0454 77.1008 80.6957 75.824 67.6255Z" fill="#0078CE" fill-opacity="0.2"/>
<rect x="-0.569428" y="0.742124" width="1.32598" height="7.66993" rx="0.66299" transform="matrix(0.132867 0.991134 -0.991745 0.128226 136.902 28.7338)" stroke="#0078CE" stroke-width="1.32598"/>
<rect x="0.758767" y="0.582198" width="1.34939" height="7.49048" rx="0.674693" transform="matrix(0.991745 -0.128226 0.132866 0.991134 111.933 12.9853)" stroke="#0078CE" stroke-width="1.34939"/>
<rect x="0.122651" y="0.931775" width="1.34087" height="7.55643" rx="0.670433" transform="matrix(0.798631 0.601821 -0.615688 0.78799 128.415 15.4182)" stroke="#0078CE" stroke-width="1.34087"/>
<defs>
<clipPath id="clip0_54275_1043817">
<rect width="52.6252" height="52.6252" fill="white" transform="translate(71.1523 40.3472)"/>
</clipPath>
</defs>
</svg>
