<svg width="196" height="121" viewBox="0 0 196 121" fill="none" xmlns="http://www.w3.org/2000/svg">
<rect x="58.8672" y="28.2153" width="78.8579" height="60.8901" fill="#BFDBEE"/>
<path d="M124.512 50.1784C109.659 40.7247 105.75 29.8922 105.75 29.8922L132.916 27.5288L138.193 31.6648V46.0424V80.3123L136.434 87.7965L125.685 89.1751C125.685 89.1751 118.808 76.0867 119.235 67.1164C119.565 60.1913 139.366 59.6322 124.512 50.1784Z" fill="#0078CE" fill-opacity="0.2"/>
<path fill-rule="evenodd" clip-rule="evenodd" d="M62.5673 29.8661C60.8215 29.8661 59.4044 31.2929 59.4044 33.045V53.3311C59.4044 54.1861 58.7166 54.8792 57.8682 54.8792C57.0198 54.8792 56.332 54.1861 56.332 53.3311V33.045C56.332 29.5758 59.1319 26.77 62.5673 26.77H133.301C136.737 26.77 139.536 29.5758 139.536 33.045V83.6619C139.536 87.1275 136.749 89.9368 133.31 89.9368H108.265V99.8396H113.374C114.223 99.8396 114.911 100.533 114.911 101.388C114.911 102.243 114.223 102.936 113.374 102.936H81.1261C80.2777 102.936 79.5899 102.243 79.5899 101.388C79.5899 100.533 80.2777 99.8396 81.1261 99.8396H87.4076V89.9368H81.1261C80.2777 89.9368 79.5899 89.2438 79.5899 88.3888C79.5899 87.5338 80.2777 86.8407 81.1261 86.8407H133.31C135.052 86.8407 136.464 85.4175 136.464 83.6619V33.045C136.464 31.2929 135.047 29.8661 133.301 29.8661H62.5673ZM90.48 89.9368V99.8396H105.193V89.9368H90.48Z" fill="#111B22"/>
<path d="M98.5182 81.6897C98.5182 82.7775 97.6432 83.6593 96.5638 83.6593C95.4844 83.6593 94.6094 82.7775 94.6094 81.6897C94.6094 80.602 95.4844 79.7202 96.5638 79.7202C97.6432 79.7202 98.5182 80.602 98.5182 81.6897Z" fill="#111B22"/>
<g filter="url(#filter0_d_54300_1044850)">
<path d="M106.227 43.9495V51.2782C106.227 52.4782 105.597 53.5925 104.577 54.2033L98.3337 57.8783C97.3141 58.4783 96.0528 58.4783 95.0227 57.8783L88.7791 54.2033C87.7596 53.6033 87.1289 52.4889 87.1289 51.2782V43.9495C87.1289 42.7495 87.7596 41.6352 88.7791 41.0245L95.0227 37.3494C96.0423 36.7494 97.3036 36.7494 98.3337 37.3494L104.577 41.0245C105.597 41.6352 106.227 42.7388 106.227 43.9495Z" fill="#BFDBEE" stroke="#111B22" stroke-width="1.97384" stroke-linecap="round" stroke-linejoin="round"/>
<path d="M96.6874 46.5407C98.0399 46.5407 99.1364 45.423 99.1364 44.0443C99.1364 42.6655 98.0399 41.5479 96.6874 41.5479C95.3348 41.5479 94.2383 42.6655 94.2383 44.0443C94.2383 45.423 95.3348 46.5407 96.6874 46.5407Z" stroke="#111B22" stroke-width="1.07143" stroke-linecap="round" stroke-linejoin="round"/>
<path d="M100.897 52.6042C100.897 50.6756 99.0156 49.1113 96.6927 49.1113C94.3698 49.1113 92.4883 50.6756 92.4883 52.6042" stroke="#111B22" stroke-width="1.07143" stroke-linecap="round" stroke-linejoin="round"/>
<path d="M96.5947 61.1576V68.4862C96.5947 69.6862 95.964 70.8005 94.9444 71.4113L88.7009 75.0863C87.6813 75.6863 86.42 75.6863 85.3899 75.0863L79.1463 71.4113C78.1268 70.8113 77.4961 69.6969 77.4961 68.4862V61.1576C77.4961 59.9575 78.1268 58.8432 79.1463 58.2325L85.3899 54.5574C86.4095 53.9574 87.6708 53.9574 88.7009 54.5574L94.9444 58.2325C95.964 58.8432 96.5947 59.9468 96.5947 61.1576Z" fill="#BFDBEE" stroke="#111B22" stroke-width="1.97384" stroke-linecap="round" stroke-linejoin="round"/>
<path d="M87.0545 63.7497C88.4071 63.7497 89.5036 62.632 89.5036 61.2533C89.5036 59.8745 88.4071 58.7568 87.0545 58.7568C85.702 58.7568 84.6055 59.8745 84.6055 61.2533C84.6055 62.632 85.702 63.7497 87.0545 63.7497Z" stroke="#111B22" stroke-width="1.07143" stroke-linecap="round" stroke-linejoin="round"/>
<path d="M91.2604 69.8132C91.2604 67.8846 89.3789 66.3203 87.056 66.3203C84.733 66.3203 82.8516 67.8846 82.8516 69.8132" stroke="#111B22" stroke-width="1.07143" stroke-linecap="round" stroke-linejoin="round"/>
<path d="M115.864 61.1576V68.4862C115.864 69.6862 115.234 70.8005 114.214 71.4113L107.97 75.0863C106.951 75.6863 105.69 75.6863 104.659 75.0863L98.4159 71.4113C97.3963 70.8113 96.7656 69.6969 96.7656 68.4862V61.1576C96.7656 59.9575 97.3963 58.8432 98.4159 58.2325L104.659 54.5574C105.679 53.9574 106.94 53.9574 107.97 54.5574L114.214 58.2325C115.234 58.8432 115.864 59.9468 115.864 61.1576Z" fill="#BFDBEE" stroke="#111B22" stroke-width="1.97384" stroke-linecap="round" stroke-linejoin="round"/>
<path d="M106.328 63.7497C107.681 63.7497 108.777 62.632 108.777 61.2533C108.777 59.8745 107.681 58.7568 106.328 58.7568C104.975 58.7568 103.879 59.8745 103.879 61.2533C103.879 62.632 104.975 63.7497 106.328 63.7497Z" stroke="#111B22" stroke-width="1.07143" stroke-linecap="round" stroke-linejoin="round"/>
<path d="M110.53 69.8132C110.53 67.8846 108.648 66.3203 106.326 66.3203C104.003 66.3203 102.121 67.8846 102.121 69.8132" stroke="#111B22" stroke-width="1.07143" stroke-linecap="round" stroke-linejoin="round"/>
</g>
<rect x="-0.541065" y="0.70516" width="1.25993" height="7.2879" rx="0.629967" transform="matrix(0.132867 0.991134 -0.991745 0.128226 154.394 29.4982)" stroke="#0078CE" stroke-width="1.25993"/>
<rect x="0.720974" y="0.5532" width="1.28218" height="7.11739" rx="0.641088" transform="matrix(0.991745 -0.128226 0.132866 0.991134 130.671 14.5353)" stroke="#0078CE" stroke-width="1.28218"/>
<rect x="0.116542" y="0.885364" width="1.27408" height="7.18006" rx="0.63704" transform="matrix(0.798631 0.601821 -0.615688 0.78799 146.33 16.8495)" stroke="#0078CE" stroke-width="1.27408"/>
<path d="M44.4609 80.5542V77.9488C44.4609 76.4092 45.7193 75.136 47.2737 75.136C49.9532 75.136 51.0486 73.2412 49.7015 70.917C48.9317 69.5846 49.3906 67.8526 50.7378 67.0828L53.2988 65.6172C54.4683 64.9214 55.9783 65.3359 56.6741 66.5054L56.8369 66.7867C58.1693 69.1109 60.3602 69.1109 61.7074 66.7867L61.8702 66.5054C62.566 65.3359 64.076 64.9214 65.2455 65.6172L67.8066 67.0828C69.1537 67.8526 69.6126 69.5846 68.8428 70.917C67.4957 73.2412 68.5912 75.136 71.2707 75.136C72.8103 75.136 74.0834 76.3944 74.0834 77.9488V80.5542C74.0834 82.0938 72.8251 83.367 71.2707 83.367C68.5912 83.367 67.4957 85.2619 68.8428 87.5861C69.6126 88.9332 69.1537 90.6504 67.8066 91.4202L65.2455 92.8858C64.076 93.5816 62.566 93.1671 61.8702 91.9976L61.7074 91.7163C60.375 89.3921 58.1841 89.3921 56.8369 91.7163L56.6741 91.9976C55.9783 93.1671 54.4683 93.5816 53.2988 92.8858L50.7378 91.4202C49.3906 90.6504 48.9317 88.9184 49.7015 87.5861C51.0486 85.2619 49.9532 83.367 47.2737 83.367C45.7193 83.367 44.4609 82.0938 44.4609 80.5542Z" fill="#BFDBEE" stroke="#111B22" stroke-width="2.22057" stroke-miterlimit="10" stroke-linecap="round" stroke-linejoin="round"/>
<path d="M59.2615 83.6909C61.7142 83.6909 63.7026 81.7025 63.7026 79.2497C63.7026 76.797 61.7142 74.8086 59.2615 74.8086C56.8087 74.8086 54.8203 76.797 54.8203 79.2497C54.8203 81.7025 56.8087 83.6909 59.2615 83.6909Z" stroke="#111B22" stroke-width="2.22057" stroke-miterlimit="10" stroke-linecap="round" stroke-linejoin="round"/>
<defs>
<filter id="filter0_d_54300_1044850" x="70.9972" y="33.1573" width="51.365" height="51.6321" filterUnits="userSpaceOnUse" color-interpolation-filters="sRGB">
<feFlood flood-opacity="0" result="BackgroundImageFix"/>
<feColorMatrix in="SourceAlpha" type="matrix" values="0 0 0 0 0 0 0 0 0 0 0 0 0 0 0 0 0 0 127 0" result="hardAlpha"/>
<feOffset dy="2.7553"/>
<feGaussianBlur stdDeviation="2.7553"/>
<feColorMatrix type="matrix" values="0 0 0 0 0.0705882 0 0 0 0 0.105882 0 0 0 0 0.129412 0 0 0 0.1 0"/>
<feBlend mode="normal" in2="BackgroundImageFix" result="effect1_dropShadow_54300_1044850"/>
<feBlend mode="normal" in="SourceGraphic" in2="effect1_dropShadow_54300_1044850" result="shape"/>
</filter>
</defs>
</svg>
