<svg width="196" height="121" viewBox="0 0 196 121" fill="none" xmlns="http://www.w3.org/2000/svg">
<path d="M81.7945 19.7383H111.281C112.014 19.7383 112.718 20.1223 113.236 20.8058C113.755 21.4894 114.047 22.4164 114.047 23.3831V69.6065C114.047 70.5731 113.755 71.5002 113.236 72.1837C112.718 72.8673 112.014 73.2513 111.281 73.2513H78.016C77.2824 73.2513 76.5789 72.8673 76.0602 72.1837C75.5414 71.5002 75.25 70.5731 75.25 69.6065V28.4494L81.7945 19.7383Z" fill="white"/>
<path d="M113.166 23.3828C113.166 22.583 112.923 21.849 112.535 21.3379C112.151 20.8318 111.689 20.6191 111.28 20.6191H82.2354L76.1309 28.7432V69.6064C76.1309 70.4063 76.3738 71.1402 76.7617 71.6514C77.1457 72.1573 77.6065 72.37 78.0156 72.3701H111.28C111.689 72.3701 112.151 72.1575 112.535 71.6514C112.923 71.1402 113.166 70.4063 113.166 69.6064V23.3828ZM114.928 69.6064C114.928 70.7397 114.588 71.86 113.938 72.7158C113.285 73.5767 112.338 74.1318 111.28 74.1318H78.0156C76.9578 74.1317 76.0116 73.5766 75.3584 72.7158C74.709 71.86 74.3691 70.7397 74.3691 69.6064V28.4492C74.3692 28.2584 74.4313 28.0725 74.5459 27.9199L81.0898 19.209L81.1572 19.1309C81.3224 18.9575 81.5525 18.8574 81.7949 18.8574H111.28C112.338 18.8574 113.285 19.4125 113.938 20.2734C114.588 21.1292 114.928 22.2496 114.928 23.3828V69.6064Z" fill="#111B22"/>
<path d="M75.25 28.4494H80.6106C80.9251 28.4474 81.2262 28.2815 81.4481 27.9877C81.6699 27.694 81.7945 27.2965 81.7945 26.8821V19.7383L75.25 28.4494Z" fill="white"/>
<path d="M80.913 22.3778L77.0136 27.5682H80.6054C80.6074 27.5682 80.6179 27.5679 80.6386 27.5565C80.662 27.5436 80.7012 27.5149 80.7451 27.4569C80.837 27.3351 80.913 27.1298 80.913 26.8817V22.3778ZM82.6757 26.8817C82.6757 27.4623 82.5029 28.0528 82.1513 28.5184C81.796 28.9889 81.2536 29.326 80.6161 29.33H75.2499C74.9161 29.33 74.611 29.1413 74.4619 28.8427C74.3128 28.5441 74.3454 28.1866 74.5458 27.9198L81.0898 19.2089C81.3174 18.9059 81.7137 18.7823 82.0732 18.9022C82.4327 19.0222 82.6757 19.3591 82.6757 19.7382V26.8817Z" fill="#111B22"/>
<path d="M79.9704 32.5077C79.9727 31.9941 80.391 31.5727 80.9047 31.5751L94.8847 31.6391C95.3984 31.6415 95.8129 32.0666 95.8106 32.5803V32.5803C95.8083 33.094 95.39 33.5154 94.8763 33.513L80.8963 33.449C80.3826 33.4466 79.9681 33.0214 79.9704 32.5077V32.5077Z" fill="#DCDCDC"/>
<path d="M95.8057 32.6756C95.7593 33.1136 95.4096 33.4653 94.9719 33.5087L94.8761 33.5131L80.8958 33.4491L80.8011 33.4437C80.3324 33.3932 79.9682 32.9889 79.9704 32.5073C79.9729 31.994 80.3909 31.5729 80.9043 31.5751L94.8846 31.6391C95.3981 31.6415 95.8131 32.0664 95.811 32.5799L95.8057 32.6756Z" fill="#111B22"/>
<path d="M80.0153 44.2431C80.0176 43.7294 80.436 43.3081 80.9496 43.3104L106.088 43.4255C106.601 43.4278 107.016 43.853 107.014 44.3667V44.3667C107.011 44.8803 106.593 45.3017 106.079 45.2994L80.9412 45.1843C80.4275 45.182 80.013 44.7568 80.0153 44.2431V44.2431Z" fill="#DCDCDC"/>
<path d="M107.013 44.3662C107.011 44.8479 106.643 45.249 106.174 45.295L106.079 45.2995L80.9407 45.1844L80.846 45.1791C80.3773 45.1285 80.0131 44.7242 80.0153 44.2427C80.0179 43.7293 80.4359 43.3083 80.9492 43.3104L106.088 43.4255C106.601 43.4278 107.015 43.8527 107.013 44.3662Z" fill="#111B22"/>
<path d="M79.9704 53.6137C79.9727 53.1 80.391 52.6787 80.9047 52.681L104.543 52.7893C105.057 52.7917 105.471 53.2168 105.469 53.7305V53.7305C105.467 54.2442 105.048 54.6656 104.535 54.6632L80.8963 54.5549C80.3826 54.5526 79.9681 54.1274 79.9704 53.6137V53.6137Z" fill="#DCDCDC"/>
<path d="M105.464 53.8257C105.417 54.2638 105.068 54.6156 104.63 54.6588L104.534 54.6632L80.8958 54.5549L80.8011 54.5496C80.3324 54.499 79.9682 54.0948 79.9704 53.6132C79.9729 53.0999 80.3909 52.6789 80.9043 52.681L104.543 52.7893C105.056 52.7917 105.471 53.2166 105.469 53.73L105.464 53.8257Z" fill="#111B22"/>
<path d="M79.9704 63.2709C79.9727 62.7572 80.391 62.3359 80.9047 62.3382L101.143 62.431C101.656 62.4333 102.071 62.8585 102.069 63.3722V63.3722C102.066 63.8858 101.648 64.3072 101.134 64.3049L80.8963 64.2121C80.3826 64.2098 79.9681 63.7846 79.9704 63.2709V63.2709Z" fill="#DCDCDC"/>
<path d="M102.063 63.4673C102.017 63.9055 101.667 64.2572 101.229 64.3004L101.134 64.3048L80.8958 64.2121L80.8011 64.2068C80.3324 64.1563 79.9682 63.752 79.9704 63.2704C79.9729 62.7571 80.3909 62.3361 80.9043 62.3382L101.142 62.431C101.656 62.4333 102.071 62.8582 102.069 63.3717L102.063 63.4673Z" fill="#111B22"/>
<path d="M79.9548 36.2548C79.9571 35.7411 80.3754 35.3198 80.8891 35.3221L88.8041 35.3584C89.3178 35.3607 89.7323 35.7859 89.73 36.2996V36.2996C89.7277 36.8133 89.3093 37.2346 88.7956 37.2323L80.8806 37.196C80.3669 37.1937 79.9524 36.7685 79.9548 36.2548V36.2548Z" fill="#EEEEEE"/>
<path d="M89.7247 36.3948C89.6782 36.8329 89.3287 37.1846 88.8908 37.2278L88.7951 37.2323L80.8802 37.196L80.7855 37.1907C80.3167 37.1402 79.9526 36.7359 79.9548 36.2543C79.9573 35.741 80.3753 35.32 80.8887 35.3221L88.8036 35.3584C89.3171 35.3607 89.7321 35.7856 89.73 36.2991L89.7247 36.3948Z" fill="#111B22"/>
<path d="M80.0016 47.9911C80.0039 47.4775 80.4223 47.0561 80.936 47.0585L88.851 47.0947C89.3647 47.097 89.7792 47.5222 89.7768 48.0359V48.0359C89.7745 48.5496 89.3562 48.9709 88.8425 48.9686L80.9275 48.9324C80.4138 48.93 79.9993 48.5048 80.0016 47.9911V47.9911Z" fill="#EEEEEE"/>
<path d="M89.7715 48.1311C89.7251 48.5692 89.3755 48.9209 88.9377 48.9641L88.842 48.9686L80.9271 48.9324L80.8324 48.927C80.3636 48.8765 79.9995 48.4722 80.0016 47.9907C80.0042 47.4773 80.4222 47.0563 80.9355 47.0585L88.8504 47.0947C89.364 47.097 89.7789 47.5219 89.7768 48.0354L89.7715 48.1311Z" fill="#111B22"/>
<path d="M79.9548 57.3608C79.9571 56.8471 80.3754 56.4257 80.8891 56.4281L88.8041 56.4643C89.3178 56.4667 89.7323 56.8919 89.73 57.4056V57.4056C89.7277 57.9192 89.3093 58.3406 88.7956 58.3382L80.8806 58.302C80.3669 58.2996 79.9524 57.8745 79.9548 57.3608V57.3608Z" fill="#EEEEEE"/>
<path d="M89.7247 57.5007C89.6782 57.9389 89.3287 58.2906 88.8908 58.3338L88.7951 58.3382L80.8802 58.302L80.7855 58.2967C80.3167 58.2461 79.9526 57.8418 79.9548 57.3603C79.9573 56.847 80.3753 56.426 80.8887 56.4281L88.8036 56.4643C89.3171 56.4667 89.7321 56.8916 89.73 57.4051L89.7247 57.5007Z" fill="#111B22"/>
<path d="M79.9548 67.018C79.9571 66.5043 80.3754 66.083 80.8891 66.0853L88.8041 66.1216C89.3178 66.1239 89.7323 66.5491 89.73 67.0628V67.0628C89.7277 67.5765 89.3093 67.9978 88.7956 67.9955L80.8806 67.9592C80.3669 67.9569 79.9524 67.5317 79.9548 67.018V67.018Z" fill="#EEEEEE"/>
<path d="M89.7247 67.158C89.6782 67.5961 89.3287 67.9478 88.8908 67.991L88.7951 67.9955L80.8802 67.9592L80.7855 67.9539C80.3167 67.9033 79.9526 67.4991 79.9548 67.0175C79.9573 66.5042 80.3753 66.0832 80.8887 66.0853L88.8036 66.1216C89.3171 66.1239 89.7321 66.5488 89.73 67.0623L89.7247 67.158Z" fill="#111B22"/>
<g filter="url(#filter0_d_54614_1046504)">
<path d="M98.7598 27.1323C98.7598 28.8803 99.1019 30.6112 99.7665 32.2262C100.431 33.8411 101.405 35.3085 102.634 36.5446C103.862 37.7806 105.32 38.7611 106.924 39.43C108.529 40.099 110.249 40.4433 111.986 40.4433C113.723 40.4433 115.443 40.099 117.047 39.43C118.652 38.7611 120.11 37.7806 121.338 36.5446C122.566 35.3085 123.541 33.8411 124.205 32.2262C124.87 30.6112 125.212 28.8803 125.212 27.1323C125.212 23.602 123.818 20.2163 121.338 17.72C118.858 15.2237 115.494 13.8213 111.986 13.8213C108.478 13.8213 105.114 15.2237 102.634 17.72C100.153 20.2163 98.7598 23.602 98.7598 27.1323Z" fill="#CFE4F1"/>
<path d="M124.331 27.1318C124.331 23.8335 123.029 20.6714 120.713 18.3408C118.397 16.0106 115.258 14.7023 111.986 14.7021C108.714 14.7021 105.574 16.0105 103.259 18.3408C100.943 20.6714 99.6407 23.8335 99.6406 27.1318C99.6406 28.7649 99.9603 30.3822 100.581 31.8906C101.202 33.3991 102.112 34.7698 103.259 35.9238C104.405 37.0777 105.766 37.993 107.264 38.6172C108.761 39.2413 110.366 39.5625 111.986 39.5625C113.606 39.5624 115.211 39.2412 116.708 38.6172C118.205 37.993 119.566 37.0777 120.713 35.9238C121.86 34.7698 122.77 33.3991 123.391 31.8906C124.011 30.3822 124.331 28.7649 124.331 27.1318ZM126.093 27.1318C126.093 28.9948 125.728 30.8401 125.02 32.5615C124.311 34.2828 123.272 35.847 121.963 37.165C120.653 38.483 119.099 39.5295 117.387 40.2432C115.675 40.9568 113.84 41.3242 111.986 41.3242C110.133 41.3242 108.298 40.9567 106.586 40.2432C104.874 39.5295 103.318 38.4831 102.009 37.165C100.699 35.847 99.6606 34.2828 98.9521 32.5615C98.2437 30.8401 97.8789 28.9948 97.8789 27.1318C97.879 23.3699 99.3639 19.7605 102.009 17.0986C104.654 14.4367 108.243 12.9404 111.986 12.9404C115.729 12.9406 119.318 14.4368 121.963 17.0986C124.608 19.7605 126.093 23.3699 126.093 27.1318Z" fill="#111B22"/>
<path d="M107.576 27.2606L110.349 30.051L115.904 24.4702" fill="#CFE4F1"/>
<path d="M115.072 23.6413C115.53 23.1818 116.273 23.1808 116.733 23.6383C117.193 24.096 117.195 24.8398 116.737 25.2995L111.182 30.8795C110.962 31.101 110.662 31.2253 110.349 31.2252C110.037 31.2251 109.737 31.1003 109.516 30.8786L106.744 28.0885C106.287 27.6284 106.289 26.8846 106.749 26.4274C107.209 25.9702 107.953 25.9731 108.41 26.4332L110.349 28.3854L115.072 23.6413Z" fill="#0078CE"/>
</g>
<path d="M132.779 33.2368C133.185 33.15 133.446 32.7497 133.362 32.3427V32.3427C133.279 31.9357 132.882 31.6762 132.476 31.7631L128.962 32.5151C128.557 32.6019 128.295 33.0023 128.379 33.4092V33.4092C128.462 33.8162 128.859 34.0757 129.265 33.9889L132.779 33.2368Z" fill="#999999"/>
<path d="M128.962 32.5149L128.888 32.5347C128.525 32.6516 128.3 33.0276 128.378 33.4092L128.398 33.484C128.504 33.8234 128.836 34.04 129.189 34.001L129.264 33.9889L132.779 33.2369C133.185 33.15 133.446 32.7496 133.362 32.3426C133.279 31.9357 132.882 31.676 132.476 31.7629L128.962 32.5149Z" fill="#111B22"/>
<path d="M122.918 44.8211C123.003 45.2352 123.407 45.4992 123.82 45.4108V45.4108C124.233 45.3225 124.499 44.9152 124.414 44.5012L123.713 41.0879C123.628 40.6739 123.225 40.4099 122.812 40.4982V40.4982C122.399 40.5866 122.133 40.9938 122.218 41.4079L122.918 44.8211Z" fill="#999999"/>
<path d="M123.713 41.0883C123.628 40.6743 123.224 40.4095 122.812 40.4979L122.736 40.518C122.367 40.6371 122.139 41.0201 122.218 41.4082L122.919 44.8214C123.004 45.2352 123.407 45.4991 123.82 45.4109C124.232 45.3225 124.498 44.9154 124.413 44.5015L123.713 41.0883Z" fill="#111B22"/>
<path d="M130.434 40.8856C130.786 41.1119 131.261 41.0115 131.494 40.6612V40.6612C131.727 40.311 131.63 39.8435 131.277 39.6172L128.317 37.7172C127.965 37.4909 127.49 37.5913 127.257 37.9416V37.9416C127.024 38.2918 127.121 38.7593 127.474 38.9856L130.434 40.8856Z" fill="#999999"/>
<path d="M128.317 37.717L128.25 37.6781C127.906 37.5042 127.476 37.6138 127.257 37.9421C127.039 38.2703 127.111 38.7011 127.411 38.9402L127.474 38.9856L130.434 40.8858C130.787 41.1118 131.261 41.0114 131.494 40.6615C131.727 40.3114 131.63 39.8436 131.278 39.6172L128.317 37.717Z" fill="#111B22"/>
<path d="M86.1557 104.991L66.4252 85.6011L65.0645 88.9561H62.6301L55.1992 87.302V83.9275L60.6421 58.193L63.3636 56.0054L70.8475 58.193L72.6033 61.4468H88.4746L94.6468 58.193L100.231 59.3762L113.03 64.8501L117.792 62.1286L118.813 57.3661L124.596 56.0054L128.678 57.0259L130.719 65.5304L134.802 86.2815L133.441 88.6627L127.318 90.0234L123.916 87.9824L118.813 89.6833L118.133 92.7449L116.432 95.8065L113.37 96.8271L110.518 94.2805L113.37 99.2083L111.4 103.155L105.815 101.084L102.876 98.4217L103.505 103.971L98.4022 105.332L93.765 99.9007H92.2955L91.2584 105.332L86.1557 104.991Z" fill="white"/>
<path d="M71.0117 57.6294L71.2471 57.6978L71.3633 57.9146L72.9531 60.8599H88.3281L94.5596 57.5747L100.352 58.8013L100.408 58.814L100.461 58.8364L112.991 64.1948L117.271 61.7485L118.238 57.2427L118.315 56.8794L124.461 55.4341L124.6 55.4009L124.737 55.436L128.819 56.4565L129.165 56.5425L131.289 65.3931L131.292 65.4048L131.295 65.4175L135.377 86.1685L135.419 86.3833L133.821 89.1792L127.444 90.5972L127.215 90.6479L127.015 90.5269L123.844 88.6245L119.313 90.1353L118.705 92.8726L118.687 92.9556L118.646 93.0298L116.833 96.2915L113.231 97.4917L112.978 97.2651L112.863 97.1626L113.877 98.9146L114.036 99.188L113.895 99.4702L111.688 103.888L111.194 103.706L105.61 101.634L105.504 101.595L103.634 99.9009L104.145 104.408L98.5527 105.899L98.1953 105.995L97.9541 105.713L93.4932 100.488H92.7803L91.7363 105.952L85.8984 105.563L66.6387 86.6353L65.459 89.5435H62.5645L62.502 89.5298L54.6113 87.7729V83.8657L54.624 83.8062L60.0664 58.0718L60.1104 57.8667L60.2734 57.7349L63.2334 55.356L71.0117 57.6294ZM88.6191 62.0337H73.0576L67.0762 85.4185L86.4111 104.419L90.7773 104.71L91.8086 99.313H94.0352L98.6064 104.668L102.862 103.534L102.117 96.9419L106.125 100.573L111.108 102.42L112.702 99.228L110.009 94.5747L110.908 93.8423L113.506 96.1616L116.027 95.3218L117.577 92.5327L118.311 89.231L118.626 89.1265L123.22 87.5942L117.4 63.0278L113.32 65.3599L113.066 65.5054L112.798 65.3901L100.05 59.938L94.7324 58.811L88.6191 62.0337ZM119.309 57.8521L118.394 62.1226L124.429 87.606L127.417 89.3989L133.059 88.145L134.182 86.1792L130.147 65.6675L128.189 57.5083L124.591 56.6089L119.309 57.8521ZM61.1719 58.519L55.7852 83.9888V86.8306L62.6914 88.3687H64.668L65.8652 85.4146L71.9756 61.5229L70.4463 58.687L63.4922 56.6548L61.1719 58.519Z" fill="#111B22"/>
<g filter="url(#filter1_d_54614_1046504)">
<path d="M66.8891 55.0801C67.2354 55.1602 67.5823 55.2371 67.9294 55.3137C70.1451 55.8137 71.5635 56.3234 72.8422 58.2701C73.0689 58.7774 73.1081 59.2778 73.179 59.8268C75.3286 59.8399 77.4781 59.8449 79.6277 59.8395C80.626 59.8372 81.6241 59.8377 82.6224 59.8447C83.5867 59.8513 84.5506 59.8505 85.5149 59.8447C85.8819 59.8437 86.2489 59.8454 86.6159 59.8498C88.9438 59.9519 88.9438 59.9519 90.9216 58.9151C91.1363 58.6608 91.3487 58.4045 91.5576 58.1453C91.9436 57.869 92.3165 57.6893 92.748 57.4832C92.9346 57.3915 93.1211 57.2999 93.3132 57.2054C95.6515 56.2551 98.2283 56.3613 100.552 57.3129C103.454 58.5925 106.192 60.3068 108.896 61.9599C109.043 62.0495 109.189 62.1392 109.34 62.2315C109.47 62.3114 109.599 62.3912 109.733 62.4734C110.963 63.1771 112.21 63.3738 113.612 63.1898C114.743 62.8764 115.795 62.4806 116.786 61.8446C116.759 61.7406 116.731 61.6366 116.703 61.5294C116.477 60.1068 116.57 58.9116 117.288 57.6409C118.485 56.0076 120.336 55.652 122.214 55.2376C122.562 55.1606 122.908 55.0803 123.255 54.9997C125.103 54.5787 126.582 54.3737 128.306 55.292C129.86 56.2957 130.202 57.9129 130.585 59.6278C130.641 59.8689 130.696 60.1099 130.753 60.3508C130.911 61.0332 131.066 61.7163 131.22 62.3997C131.364 63.0388 131.51 63.6775 131.656 64.3162C132.154 66.494 132.646 68.6731 133.137 70.8525C133.392 71.9836 133.647 73.1145 133.902 74.2454C134.106 75.1489 134.31 76.0524 134.514 76.9559C134.839 78.4002 135.165 79.8443 135.503 81.2855C135.551 81.4896 135.598 81.6936 135.647 81.9038C135.73 82.2552 135.813 82.6065 135.898 82.9575C136.309 84.7067 136.548 86.4478 135.587 88.0624C134.228 89.9267 131.828 90.1662 129.704 90.651C129.512 90.6975 129.321 90.744 129.124 90.7919C127.217 91.2275 125.815 91.1475 124.138 90.094C123.699 89.7262 123.699 89.7262 123.47 89.4214C123.47 89.3104 123.47 89.1994 123.47 89.0851C123.355 89.136 123.24 89.187 123.122 89.2395C122.605 89.4689 122.087 89.6974 121.569 89.9258C121.389 90.0061 121.208 90.0863 121.022 90.1689C120.85 90.2447 120.678 90.3206 120.5 90.3988C120.341 90.4692 120.182 90.5397 120.017 90.6122C119.627 90.7666 119.627 90.7666 119.293 90.7666C119.348 90.8776 119.403 90.9886 119.46 91.1029C119.626 92.8761 119.533 94.3178 118.457 95.8111C117.209 97.2156 115.955 97.7208 114.113 97.8289C114.168 97.9399 114.223 98.0509 114.28 98.1652C114.404 99.6579 113.925 100.986 113.066 102.194C112.122 103.313 110.961 103.973 109.515 104.104C108.209 104.144 107.219 104.053 106.093 103.378C105.978 103.314 105.862 103.25 105.743 103.184C105.467 103.029 105.195 102.868 104.924 102.705C104.905 102.829 104.886 102.952 104.867 103.079C104.587 104.266 103.744 105.194 102.759 105.863C101.317 106.729 99.7468 106.816 98.1004 106.474C96.9241 106.067 96.1016 105.256 95.2333 104.387C95.1007 104.256 94.968 104.125 94.8313 103.989C94.5171 103.676 94.2056 103.36 93.8967 103.042C93.8399 103.174 93.783 103.306 93.7244 103.442C93.1758 104.638 92.6548 105.5 91.5576 106.236C91.4521 106.309 91.3465 106.382 91.2378 106.457C90.4227 106.914 89.5849 106.986 88.6651 107.014C88.5523 107.02 88.4396 107.026 88.3234 107.032C86.6404 107.028 85.1926 106 84.0478 104.842C83.9234 104.711 83.7991 104.58 83.671 104.445C83.5361 104.308 83.4011 104.17 83.2621 104.028C82.8364 103.593 82.4143 103.155 81.9924 102.716C81.5673 102.278 81.1415 101.842 80.7154 101.405C80.452 101.135 80.1894 100.864 79.9277 100.592C79.3854 100.032 78.8429 99.4862 78.2506 98.9793C77.1513 98.0285 76.1487 96.9708 75.1265 95.9379C74.8962 95.7058 74.6658 95.4738 74.4355 95.2417C73.833 94.6348 73.2311 94.0273 72.6293 93.4198C72.0135 92.7984 71.3973 92.1774 70.7811 91.5565C69.575 90.3408 68.3694 89.1246 67.1641 87.908C67.099 88.0227 67.034 88.1374 66.9669 88.2555C66.8795 88.4064 66.7921 88.5572 66.7021 88.7127C66.5734 88.9367 66.5734 88.9367 66.4422 89.1653C65.7557 90.2037 64.7886 90.6746 63.6359 91.0444C62.1769 91.2215 60.6996 90.7899 59.2893 90.4561C58.9562 90.3777 58.6226 90.3023 58.2888 90.227C56.2414 89.7476 54.9493 89.224 53.8187 87.4036C52.9572 85.0005 54.0551 82.0278 54.6071 79.6818C54.7094 79.2397 54.8108 78.7974 54.9122 78.3551C55.1522 77.3106 55.395 76.2667 55.6388 75.2231C55.9378 73.9428 56.2332 72.6617 56.5286 71.3806C56.8392 70.0337 57.1503 68.6869 57.4639 67.3407C57.8955 65.4873 58.326 63.6339 58.7352 61.7753C58.7663 61.6346 58.7975 61.4938 58.8296 61.3487C58.9669 60.7285 59.1027 60.108 59.235 59.4867C59.5676 57.9773 59.9688 56.2998 61.3294 55.3912C63.2097 54.2915 64.8489 54.6061 66.8891 55.0801ZM62.653 57.6409C62.1884 58.156 62.0379 58.6224 61.8845 59.2952C61.8378 59.4963 61.7911 59.6975 61.743 59.9048C61.693 60.1277 61.6431 60.3507 61.5931 60.5737C61.5389 60.8099 61.4846 61.0461 61.4301 61.2822C61.282 61.9265 61.1359 62.5711 60.9903 63.216C60.8366 63.8953 60.6812 64.5743 60.5261 65.2534C60.3292 66.1158 60.1325 66.9783 59.9368 67.841C59.5099 69.7218 59.0782 71.6014 58.6426 73.4802C58.3837 74.5969 58.1261 75.7139 57.869 76.831C57.6907 77.6051 57.5119 78.3792 57.3317 79.1529C57.1614 79.8846 56.9929 80.6168 56.8257 81.3492C56.7639 81.6184 56.7015 81.8874 56.6384 82.1563C55.9926 84.4633 55.9926 84.4633 56.3876 86.7205C57.4751 87.6235 59.0669 87.8222 60.4079 88.1287C60.6072 88.1774 60.8066 88.2261 61.0119 88.2762C62.4492 88.6271 62.4492 88.6271 63.8226 88.2443C64.4142 87.6185 64.6303 87.0697 64.8327 86.2365C64.8601 86.1259 64.8876 86.0152 64.9158 85.9012C64.9993 85.5617 65.0796 85.2217 65.1592 84.8813C65.2057 84.6874 65.2521 84.4934 65.3 84.2936C65.4383 83.7082 65.5723 83.1219 65.7052 82.5352C65.7558 82.3136 65.8064 82.092 65.857 81.8705C65.9923 81.2776 66.1271 80.6846 66.2618 80.0916C66.4039 79.4667 66.5464 78.8421 66.6888 78.2174C66.9276 77.1701 67.166 76.1229 67.4042 75.0755C67.7392 73.6022 68.0749 72.1289 68.4106 70.6557C68.8614 68.6777 69.312 66.6996 69.762 64.7213C69.8332 64.4082 69.9045 64.095 69.9758 63.7818C70.0971 63.2483 70.218 62.7146 70.3386 62.1809C70.3727 62.031 70.4067 61.8811 70.4417 61.7267C70.7602 60.4016 70.7602 60.4016 70.4222 59.1227C69.4842 58.0607 67.7787 57.9106 66.4541 57.6093C66.2585 57.5635 66.0629 57.5177 65.8615 57.4704C64.2115 57.0699 64.2115 57.0699 62.653 57.6409ZM123.338 57.6024C122.992 57.6823 122.646 57.7591 122.299 57.836C122.077 57.8872 121.855 57.9387 121.633 57.9903C121.332 58.059 121.332 58.059 121.026 58.1291C120.314 58.3621 119.678 58.6442 119.262 59.2959C118.855 60.379 119.38 61.8589 119.633 62.9513C119.684 63.1793 119.684 63.1793 119.737 63.4119C119.85 63.9122 119.964 64.4121 120.079 64.9121C120.16 65.267 120.24 65.622 120.321 65.9769C120.535 66.9208 120.75 67.8644 120.966 68.8079C121.188 69.7779 121.408 70.7481 121.629 71.7183C121.891 72.8671 122.153 74.0158 122.415 75.1645C122.861 77.1192 123.306 79.0743 123.744 81.0307C123.904 81.7421 124.065 82.4533 124.225 83.1645C124.306 83.5217 124.386 83.879 124.465 84.2364C124.571 84.7144 124.679 85.192 124.788 85.6695C124.817 85.8025 124.846 85.9355 124.876 86.0725C125.073 86.9251 125.312 87.5984 125.955 88.2023C126.765 88.6819 127.433 88.5618 128.325 88.3632C128.436 88.3385 128.547 88.3137 128.662 88.2882C128.897 88.2354 129.132 88.1818 129.366 88.1274C129.722 88.0452 130.079 87.9671 130.436 87.8893C130.665 87.8373 130.894 87.7851 131.123 87.7327C131.433 87.6624 131.433 87.6624 131.749 87.5907C132.594 87.3162 133.167 86.9733 133.661 86.2265C133.837 84.9577 133.525 83.7165 133.235 82.4893C133.167 82.1911 133.167 82.1911 133.098 81.8869C132.974 81.345 132.848 80.8036 132.722 80.2624C132.588 79.6892 132.457 79.1155 132.325 78.5419C132.075 77.4519 131.822 76.3623 131.57 75.2728C131.286 74.0526 131.005 72.8319 130.724 71.6112C130.379 70.1129 130.034 68.6146 129.687 67.1167C129.639 66.9059 129.59 66.6951 129.54 66.478C129.443 66.0626 129.347 65.6473 129.25 65.2321C129.023 64.2579 128.798 63.2833 128.584 62.3061C128.482 61.8398 128.378 61.374 128.274 60.9081C128.202 60.5801 128.131 60.2516 128.061 59.923C128.017 59.7243 127.972 59.5256 127.926 59.3209C127.869 59.0589 127.869 59.0589 127.811 58.7916C127.567 58.0831 127.223 57.6022 126.561 57.252C125.486 56.9545 124.393 57.3566 123.338 57.6024ZM92.393 60.8357C92.2666 60.9428 92.1402 61.0499 92.0099 61.1602C90.3641 62.598 88.9343 64.2381 87.5719 65.9453C87.0949 66.5303 86.5885 67.0856 86.0819 67.6445C85.7134 68.0622 85.3665 68.4913 85.0207 68.928C83.6167 70.6732 82.0508 72.301 80.4371 73.8504C80.159 74.1009 80.159 74.1009 80.1963 74.456C81.7466 75.7829 83.0402 76.245 85.0644 76.1946C87.6026 75.9699 89.7666 74.5469 91.8396 73.1633C94.0197 71.7089 96.1075 70.9375 98.7518 71.3386C100.44 71.7142 101.768 72.4301 103.027 73.62C103.119 73.7065 103.212 73.7931 103.307 73.8822C104.725 75.2234 106.091 76.6188 107.465 78.0055C107.769 78.3118 108.073 78.6181 108.377 78.9243C109.09 79.6421 109.802 80.3603 110.514 81.0787C111.326 81.8981 112.139 82.7169 112.952 83.5358C114.62 85.2169 116.288 86.8985 117.956 88.5806C118.303 88.4479 118.65 88.3148 118.997 88.1815C119.19 88.1074 119.383 88.0333 119.582 87.957C120.221 87.7027 120.823 87.4155 121.433 87.0988C121.535 87.0465 121.637 86.9941 121.742 86.9402C121.984 86.8154 122.226 86.6893 122.467 86.5628C122.255 85.1949 121.993 83.8467 121.686 82.4972C121.621 82.2069 121.621 82.2069 121.554 81.9107C121.412 81.2781 121.269 80.6458 121.125 80.0135C121.076 79.7945 121.026 79.5754 120.977 79.3564C120.718 78.2123 120.459 77.0685 120.199 75.9247C119.957 74.8592 119.716 73.7933 119.476 72.7273C119.27 71.8096 119.062 70.8923 118.853 69.9751C118.729 69.4282 118.605 68.8812 118.482 68.3339C118.346 67.7262 118.207 67.1189 118.069 66.5117C118.028 66.3299 117.988 66.1482 117.946 65.9609C117.908 65.7966 117.87 65.6324 117.831 65.4631C117.799 65.3196 117.766 65.176 117.732 65.0281C117.653 64.6695 117.653 64.6695 117.288 64.5351C116.868 64.6844 116.464 64.8431 116.055 65.0185C114.03 65.8737 111.835 66.0774 109.724 65.3252C107.8 64.4899 106.01 63.3036 104.213 62.2282C98.3887 58.6955 98.3887 58.6955 92.393 60.8357ZM72.8448 62.3491C72.5669 63.1817 72.5669 63.1817 72.3463 64.0206C72.3042 64.2031 72.3042 64.2031 72.2613 64.3892C72.2318 64.5194 72.2023 64.6496 72.1719 64.7838C72.1397 64.9237 72.1076 65.0637 72.0745 65.2079C71.9684 65.6708 71.8629 66.1338 71.7575 66.5969C71.6826 66.9244 71.6076 67.2519 71.5325 67.5795C71.3343 68.4454 71.1367 69.3114 70.9391 70.1775C70.7046 71.2053 70.4693 72.2328 70.2341 73.2604C70.0425 74.0979 69.8513 74.9355 69.6611 75.7733C69.3396 77.188 69.0174 78.6024 68.6814 80.0137C68.55 80.5662 68.4202 81.119 68.2905 81.6719C68.2303 81.9263 68.1693 82.1806 68.1073 82.4347C68.0233 82.7799 67.942 83.1256 67.8613 83.4716C67.8151 83.664 67.7689 83.8564 67.7213 84.0547C67.6606 84.5866 67.7047 84.782 67.9995 85.2176C68.2292 85.4971 68.2292 85.4971 68.4969 85.7569C68.5953 85.8556 68.6937 85.9544 68.7951 86.0561C68.9492 86.2081 68.9492 86.2081 69.1064 86.3632C69.2053 86.4625 69.3041 86.5619 69.406 86.6643C69.9094 87.1661 70.4222 87.6491 70.9606 88.1128C71.6872 88.7504 72.3691 89.4258 73.0481 90.114C73.1782 90.2452 73.3082 90.3763 73.4422 90.5114C73.7223 90.794 74.0023 91.0767 74.2821 91.3597C74.7257 91.8083 75.1699 92.2564 75.6142 92.7044C76.6372 93.7361 77.6594 94.7685 78.6817 95.801C79.6944 96.8239 80.7074 97.8464 81.721 98.8684C82.157 99.3083 82.5926 99.7488 83.0281 100.189C83.2973 100.461 83.5665 100.732 83.8358 101.004C83.9554 101.125 84.0751 101.246 84.1983 101.371C84.864 102.041 85.5464 102.681 86.2603 103.299C86.4989 103.506 86.7317 103.72 86.9629 103.935C87.6439 104.398 88.2767 104.614 89.1023 104.504C90.096 104.231 90.6537 103.723 91.2234 102.873C91.4347 102.448 91.4305 102.129 91.4427 101.654C91.449 101.497 91.4552 101.341 91.4617 101.179C91.2993 100.057 90.3822 99.3016 89.6029 98.5548C89.3849 98.3413 89.1671 98.1277 88.9493 97.914C88.6082 97.5812 88.2665 97.2492 87.923 96.919C87.5896 96.5978 87.2595 96.2734 86.9297 95.9484C86.8266 95.851 86.7236 95.7536 86.6175 95.6532C85.9735 95.013 85.7226 94.5752 85.7099 93.6252C85.8769 93.2153 85.8769 93.2153 86.2111 92.9526C86.7437 92.837 86.7437 92.837 87.3806 92.9526C88.576 93.7769 89.5843 94.9848 90.6019 96.0188C90.9133 96.3352 91.2254 96.651 91.5376 96.9666C92.4242 97.863 93.3099 98.7604 94.1949 99.6585C94.7385 100.21 95.2828 100.761 95.8277 101.311C96.0346 101.52 96.2411 101.73 96.4472 101.94C96.7347 102.232 97.0232 102.524 97.3119 102.815C97.3964 102.901 97.481 102.988 97.5681 103.077C98.2918 103.804 98.7846 104.099 99.8071 104.114C100.869 104.092 101.382 103.748 102.125 103C102.656 102.16 102.807 101.518 102.64 100.529C102.187 99.264 101.068 98.3726 100.13 97.4578C99.9179 97.247 99.7059 97.0358 99.4942 96.8245C98.9386 96.2711 98.3802 95.7206 97.821 95.1708C96.9247 94.2888 96.0328 93.4025 95.141 92.516C94.8296 92.2073 94.517 91.8999 94.2042 91.5927C94.0132 91.4039 93.8223 91.2151 93.6314 91.0262C93.5443 90.9414 93.4572 90.8565 93.3675 90.7691C92.9491 90.3533 92.5891 89.9862 92.393 89.4214C92.4656 88.5075 92.4656 88.5075 92.8942 88.0762C93.5561 87.9728 93.9805 87.9168 94.5555 88.2829C94.905 88.5924 95.2265 88.9176 95.5477 89.2567C95.7338 89.4449 95.7338 89.4449 95.9236 89.637C96.3324 90.0519 96.7363 90.4713 97.1404 90.8907C97.4242 91.1802 97.7083 91.4692 97.9928 91.758C98.7407 92.5188 99.4848 93.2833 100.228 94.0488C101.418 95.2733 102.613 96.4924 103.809 97.7108C104.225 98.1368 104.64 98.5645 105.055 98.9926C105.311 99.2544 105.567 99.5162 105.822 99.778C105.937 99.8973 106.052 100.017 106.17 100.139C106.855 100.838 107.493 101.425 108.49 101.595C109.317 101.586 109.901 101.506 110.605 101.024C111.418 100.186 111.774 99.5292 111.774 98.3544C111.557 97.0154 110.328 95.9903 109.404 95.0829C109.289 94.9679 109.173 94.8529 109.054 94.7344C108.805 94.487 108.556 94.2399 108.307 93.9932C107.912 93.6025 107.518 93.2105 107.125 92.8181C106.008 91.7034 104.889 90.5904 103.768 89.4799C103.08 88.7987 102.395 88.1155 101.71 87.4309C101.45 87.171 101.188 86.9118 100.926 86.6534C100.56 86.2929 100.197 85.9298 99.834 85.566C99.7252 85.4601 99.6165 85.3542 99.5044 85.2451C98.9136 84.6465 98.5957 84.2519 98.5749 83.368C98.648 82.9686 98.648 82.9686 98.742 82.6954C99.2416 82.5607 99.5722 82.4844 100.079 82.5272C100.357 82.6962 100.357 82.6962 100.639 82.9596C100.813 83.1223 100.813 83.1223 100.991 83.2884C101.85 84.1302 102.698 84.981 103.542 85.8375C103.898 86.1984 104.254 86.5587 104.611 86.9188C105.623 87.942 106.635 88.9661 107.646 89.991C108.266 90.6199 108.888 91.2481 109.509 91.8757C109.745 92.1144 109.981 92.3533 110.217 92.5926C110.545 92.9265 110.875 93.2595 111.205 93.5922C111.301 93.6907 111.398 93.7892 111.497 93.8908C112.33 94.727 113.042 95.2215 114.235 95.3172C115.076 95.2939 115.635 94.9325 116.254 94.3924C116.786 93.7651 117.003 93.308 117.016 92.4796C117.021 92.3433 117.026 92.207 117.031 92.0665C116.804 90.7161 115.734 89.8011 114.815 88.8772C114.592 88.6505 114.592 88.6505 114.365 88.4194C113.96 88.0071 113.553 87.5966 113.146 87.1864C112.891 86.9293 112.636 86.6719 112.381 86.4143C111.491 85.5135 110.599 84.6139 109.706 83.7156C108.878 82.8819 108.052 82.0454 107.227 81.2075C106.516 80.4853 105.803 79.7652 105.089 79.0465C104.663 78.6185 104.239 78.1898 103.816 77.7591C103.344 77.2777 102.867 76.8006 102.39 76.3236C102.253 76.1829 102.116 76.0421 101.975 75.8971C100.743 74.6771 99.1848 73.6121 97.4054 73.5627C97.2606 73.5564 97.1159 73.5501 96.9668 73.5436C95.3737 73.7459 94.0958 74.5337 92.7898 75.4228C91.2617 76.4306 89.7419 77.2951 88.049 77.9871C87.8952 78.0506 87.7414 78.1142 87.583 78.1796C85.6957 78.8235 83.1518 78.789 81.309 78.0403C79.9489 77.363 78.3282 76.4081 77.4498 75.0762C77.2603 74.7889 77.1716 74.4458 77.1815 74.101C77.1841 74.0139 77.1891 73.9288 77.1973 73.8439C77.244 73.3646 77.5957 72.9889 78.0242 72.7745L-nan -nanC-nan -nan nan nan nan nanCnan nan nan nan nan nanCnan nan -nan -nan -nan -nanL78.0242 72.7745C78.3287 72.4996 78.6242 72.2146 78.9138 71.9238C78.9983 71.8391 79.0828 71.7544 79.1698 71.6671C79.3487 71.4873 79.5272 71.3071 79.7053 71.1265C79.972 70.8562 80.2405 70.5878 80.5092 70.3195C81.4743 69.3494 82.372 68.3585 83.2231 67.2845C83.5892 66.8247 83.9735 66.3946 84.3732 65.9643C85.0787 65.1934 85.7423 64.3967 86.3932 63.5787C86.7123 63.1899 86.7123 63.1899 87.0054 62.9061C87.2519 62.6955 87.2519 62.6955 87.2136 62.3491C82.4719 62.3491 77.7302 62.3491 72.8448 62.3491Z" fill="#111B22"/>
</g>
<g filter="url(#filter2_d_54614_1046504)">
<path d="M123.253 54.9999C125.101 54.5788 126.58 54.3745 128.305 55.2929C129.858 56.2965 130.2 57.9131 130.583 59.6278C130.639 59.8689 130.695 60.1105 130.751 60.3514C130.909 61.0337 131.064 61.7171 131.218 62.4003C131.362 63.0392 131.509 63.6777 131.655 64.3163C132.152 66.4939 132.644 68.6732 133.135 70.8524C133.39 71.9835 133.645 73.1151 133.901 74.246C134.105 75.1493 134.309 76.0525 134.512 76.9559C134.837 78.4002 135.163 79.8447 135.501 81.286C135.549 81.49 135.597 81.694 135.646 81.9042C135.728 82.2556 135.811 82.6069 135.896 82.9579C136.307 84.707 136.546 86.4478 135.585 88.0624C134.226 89.9265 131.826 90.1665 129.702 90.6513C129.511 90.6977 129.319 90.744 129.122 90.7919L128.771 90.868C127.154 91.1914 125.888 91.0973 124.448 90.2802L124.136 90.0946C123.697 89.7268 123.698 89.7265 123.468 89.4218V89.0858C123.353 89.1368 123.239 89.1876 123.12 89.2401C122.603 89.4695 122.085 89.6982 121.568 89.9266C121.387 90.0068 121.207 90.0863 121.021 90.1688L120.498 90.3993C120.339 90.4697 120.18 90.5397 120.016 90.6122L119.784 90.702C119.604 90.767 119.541 90.7675 119.291 90.7675C119.346 90.8783 119.402 90.9892 119.458 91.1034C119.624 92.8765 119.531 94.3182 118.455 95.8114C117.207 97.2158 115.953 97.7208 114.112 97.829C114.167 97.94 114.222 98.0516 114.279 98.1659C114.402 99.6583 113.923 100.986 113.064 102.194C112.12 103.313 110.96 103.974 109.513 104.104L109.037 104.112C107.958 104.113 107.077 103.968 106.092 103.378L105.741 103.183C105.466 103.029 105.193 102.869 104.922 102.706C104.903 102.829 104.885 102.952 104.865 103.079C104.585 104.266 103.743 105.194 102.757 105.864L102.486 106.017C101.21 106.691 99.8385 106.785 98.4065 106.534L98.0989 106.474C96.9226 106.067 96.0999 105.257 95.2317 104.388L94.8294 103.99C94.5152 103.677 94.2037 103.361 93.8948 103.042C93.8379 103.174 93.7815 103.306 93.7229 103.442C93.1744 104.639 92.6531 105.5 91.5559 106.237C91.4505 106.31 91.3452 106.382 91.2366 106.457L91.0833 106.538C90.3161 106.923 89.5258 106.988 88.6633 107.015C88.5506 107.02 88.4377 107.026 88.3215 107.032C86.7437 107.028 85.3725 106.125 84.2639 105.058L84.0462 104.843C83.9218 104.712 83.7973 104.58 83.6692 104.445C83.5344 104.308 83.3989 104.17 83.26 104.028C82.8345 103.593 82.4122 103.155 81.9905 102.717L80.7141 101.405C80.4508 101.135 80.1878 100.864 79.926 100.593C79.5195 100.172 79.1126 99.7605 78.6848 99.3671L78.2493 98.9794C77.1502 98.0286 76.1473 96.9711 75.1253 95.9384L74.4339 95.2421C73.8314 94.6351 73.229 94.0274 72.6272 93.4198L70.7796 91.5565C69.5735 90.3409 68.3676 89.1246 67.1624 87.9081C67.0973 88.0227 67.0322 88.1376 66.9651 88.2557C66.8778 88.4065 66.7904 88.5574 66.7005 88.7128C66.5718 88.9368 66.5719 88.9373 66.4407 89.1659L66.3089 89.3534C65.6327 90.2624 64.7149 90.698 63.6341 91.0448C62.1751 91.2218 60.6976 90.7906 59.2874 90.4569L58.2874 90.2274C56.3681 89.778 55.1125 89.2895 54.0315 87.7304L53.8167 87.4042C52.9552 85.0012 54.0536 82.0285 54.6057 79.6825C54.708 79.2404 54.809 78.7977 54.9104 78.3554L55.637 75.2235C55.9359 73.9433 56.2312 72.6618 56.5266 71.3807C56.8373 70.0339 57.1486 68.6869 57.4622 67.3407C57.6779 66.4141 57.894 65.4877 58.1067 64.5604L58.7337 61.7753L58.8284 61.3495L59.2337 59.4872C59.5662 57.9778 59.9669 56.3001 61.3274 55.3915C63.2076 54.2919 64.8469 54.6069 66.887 55.0809C67.2333 55.1611 67.5809 55.2377 67.928 55.3143C70.1434 55.8143 71.5615 56.324 72.8401 58.2704C73.0668 58.7776 73.1061 59.2781 73.177 59.827C75.3266 59.8401 77.4766 59.8451 79.6262 59.8397L82.6204 59.8446C83.5845 59.8512 84.5488 59.8504 85.513 59.8446C85.88 59.8437 86.2475 59.8461 86.6145 59.8505C88.6513 59.9398 88.906 59.951 90.263 59.2577L90.9202 58.9159L91.5559 58.1454C91.8455 57.9381 92.1277 57.7851 92.4329 57.6347L92.7464 57.4833C92.9328 57.3916 93.1197 57.3004 93.3118 57.2059C95.65 56.2558 98.2268 56.3617 100.55 57.3134C103.453 58.5929 106.191 60.3068 108.895 61.9598C109.041 62.0495 109.188 62.14 109.339 62.2323C109.468 62.3119 109.598 62.3915 109.731 62.4735C110.883 63.1331 112.053 63.3479 113.349 63.2206L113.611 63.1903C114.742 62.8769 115.793 62.4805 116.784 61.8446L116.701 61.5302C116.489 60.1966 116.558 59.0623 117.158 57.8788L117.286 57.6415C118.334 56.2126 119.882 55.7614 121.51 55.3934L122.212 55.2382C122.56 55.1612 122.906 55.0805 123.253 54.9999ZM127.989 55.8261C126.484 55.034 125.202 55.1917 123.391 55.6044L123.39 55.6034L122.346 55.8427C120.422 56.2673 118.84 56.5928 117.805 57.9823C117.197 59.0774 117.106 60.1064 117.309 61.4052C117.334 61.5004 117.358 61.5934 117.383 61.6864L117.499 62.1229L117.119 62.3661C116.057 63.0476 114.94 63.4642 113.776 63.787L113.734 63.7987L113.691 63.8046C112.171 64.0039 110.785 63.79 109.424 63.0116L109.415 63.0067L109.407 63.0009C109.273 62.9188 109.145 62.8393 109.016 62.7597C108.865 62.6675 108.718 62.5786 108.572 62.4891C105.86 60.8314 103.166 59.1441 100.315 57.8856C98.1312 56.9914 95.7318 56.8979 93.5657 57.7714C93.3804 57.8625 93.2 57.9504 93.0198 58.0389L93.013 58.0429C92.6032 58.2385 92.2906 58.3912 91.9749 58.6093C91.7825 58.8467 91.589 59.083 91.3928 59.3153L91.3147 59.4081L91.2073 59.4638C90.2475 59.9669 89.6685 60.2762 89.0296 60.4149C88.3981 60.552 87.7253 60.5177 86.6067 60.4686C86.2429 60.4643 85.8789 60.4638 85.5149 60.4647C85.0323 60.4676 84.5495 60.4685 84.0667 60.4686L82.6165 60.4647C81.6208 60.4578 80.6244 60.4566 79.6272 60.4589C77.4757 60.4643 75.3242 60.4593 73.1731 60.4462L72.6321 60.4432L72.5628 59.9061C72.4891 59.3358 72.4555 58.955 72.2913 58.5663C71.7107 57.6949 71.1187 57.1657 70.4378 56.7929C69.7286 56.4046 68.8944 56.1662 67.7942 55.9179L66.7473 55.6835C64.7118 55.2105 63.2982 54.9626 61.6536 55.9188C60.5485 56.6693 60.1793 58.0675 59.8382 59.6151C59.7054 60.2387 59.5703 60.8622 59.4329 61.4833C59.4008 61.6282 59.3693 61.7693 59.3382 61.91C58.9282 63.7723 58.4971 65.6287 58.0657 67.4813C57.7523 68.8269 57.4408 70.1736 57.1301 71.5204C56.8348 72.8012 56.5397 74.0831 56.2405 75.3641L55.5139 78.494C55.4126 78.9361 55.3116 79.3795 55.2092 79.8222L55.2083 79.8241C54.917 81.0618 54.5242 82.3083 54.2913 83.6288C54.067 84.9004 54.025 86.095 54.3782 87.1317C54.8864 87.9349 55.412 88.43 56.0198 88.7831C56.6566 89.1529 57.4162 89.387 58.428 89.6239L59.43 89.8534C60.8753 90.1954 62.1997 90.577 63.5022 90.4345C64.5723 90.0857 65.3554 89.6748 65.9153 88.8348C66.0341 88.6279 66.0389 88.6209 66.1633 88.4042L66.1643 88.4022C66.2545 88.2466 66.3415 88.0963 66.429 87.9452C66.495 87.8289 66.5602 87.7154 66.6243 87.6024L67.0276 86.8925L67.6028 87.4725C68.8079 88.6889 70.0131 89.9055 71.219 91.121C71.8351 91.7418 72.4518 92.3627 73.0676 92.9843L75.5647 95.5018C76.599 96.5469 77.5763 97.579 78.6507 98.5087C79.1124 98.9038 79.5434 99.3196 79.9592 99.7401L80.3714 100.162L80.3723 100.163C80.6329 100.434 80.8942 100.703 81.1565 100.973L82.4348 102.285L82.4368 102.287C82.8588 102.726 83.2798 103.163 83.7034 103.596L84.1116 104.013L84.1184 104.019C84.2405 104.148 84.3678 104.282 84.4866 104.407L84.6965 104.614C85.7577 105.635 86.9777 106.405 88.3147 106.412C88.364 106.409 88.4128 106.408 88.4612 106.405C88.518 106.402 88.5748 106.399 88.6311 106.396L88.6448 106.395L88.9758 106.383C89.7228 106.346 90.3324 106.249 90.9182 105.924C91.0153 105.857 91.1106 105.792 91.2053 105.726L91.2102 105.723C92.1686 105.079 92.63 104.338 93.1594 103.183C93.216 103.052 93.2714 102.924 93.3264 102.797L93.6936 101.944L94.3401 102.611C94.6457 102.927 94.9538 103.239 95.2649 103.55L95.6673 103.947L95.6702 103.95C96.5392 104.82 97.2617 105.517 98.2649 105.876C99.7886 106.186 101.168 106.088 102.421 105.342C103.321 104.727 104.021 103.926 104.257 102.957C104.275 102.84 104.293 102.726 104.31 102.612L104.448 101.7L105.24 102.175C105.51 102.336 105.776 102.493 106.044 102.643L106.392 102.837L106.402 102.842L106.41 102.848C107.382 103.43 108.228 103.523 109.471 103.485C110.724 103.369 111.731 102.806 112.574 101.813C113.337 100.733 113.744 99.5902 113.667 98.328C113.665 98.3234 113.663 98.3184 113.66 98.3134C113.658 98.3077 113.642 98.2754 113.64 98.2714C113.622 98.236 113.574 98.1405 113.557 98.1054L113.14 97.2655L114.075 97.2108C114.948 97.1595 115.642 97.0166 116.251 96.7421C116.85 96.4724 117.4 96.0593 117.97 95.4227C118.881 94.144 118.994 92.9148 118.849 91.2684C118.845 91.2601 118.846 91.2634 118.84 91.2518C118.837 91.246 118.823 91.2168 118.82 91.2098C118.801 91.1724 118.755 91.0802 118.737 91.0429L118.291 90.1473H119.291C119.478 90.1473 119.49 90.1444 119.503 90.1415C119.51 90.14 119.528 90.1359 119.574 90.119C119.62 90.1026 119.677 90.0804 119.765 90.0458C119.929 89.9733 120.088 89.9032 120.247 89.8329L120.248 89.8319C120.26 89.8269 120.242 89.8359 120.253 89.8309C120.254 89.8304 120.256 89.8295 120.257 89.829C120.259 89.8282 120.264 89.8259 120.266 89.8251C120.268 89.8243 120.268 89.824 120.27 89.8231L120.272 89.8222C120.273 89.8217 120.273 89.8216 120.274 89.8212C120.275 89.8207 120.282 89.8177 120.282 89.8173C120.297 89.8109 120.3 89.81 120.315 89.8036C120.366 89.7811 120.33 89.7968 120.381 89.7743C120.443 89.7472 120.385 89.7721 120.447 89.745L120.45 89.743C120.451 89.7426 120.453 89.7426 120.454 89.7421C120.456 89.7413 120.461 89.7389 120.463 89.7382L120.464 89.7372H120.466L120.467 89.7362C120.471 89.7345 120.467 89.736 120.471 89.7343C120.493 89.7247 120.458 89.7404 120.479 89.7313C120.523 89.7121 120.452 89.7427 120.495 89.7235C120.498 89.7222 120.496 89.7228 120.499 89.7216L120.501 89.7206H120.503C120.506 89.7193 120.503 89.7209 120.506 89.7196L120.512 89.7167C120.534 89.7068 120.554 89.6982 120.576 89.6884C120.605 89.6757 120.613 89.6717 120.642 89.6591C120.648 89.6566 120.644 89.6587 120.65 89.6561L120.656 89.6532L120.657 89.6522C120.674 89.6444 120.656 89.6532 120.674 89.6454C120.683 89.6417 120.698 89.6345 120.706 89.6307C120.725 89.6227 120.696 89.6356 120.714 89.6278C120.719 89.6255 120.718 89.6263 120.723 89.6239L120.735 89.618C120.737 89.6168 120.736 89.6183 120.739 89.6171C120.768 89.6042 120.742 89.6152 120.771 89.6024C120.956 89.5201 121.136 89.4402 121.316 89.3602L121.318 89.3593C121.835 89.1308 122.353 88.9028 122.869 88.6737L124.087 88.1327V89.2108C124.118 89.2494 124.138 89.2726 124.163 89.2977C124.219 89.3535 124.295 89.4192 124.497 89.5888C125.259 90.0622 125.933 90.3032 126.617 90.3866C127.317 90.4718 128.065 90.3975 128.978 90.1893C129.174 90.1416 129.365 90.096 129.556 90.0497L129.564 90.0477C130.681 89.7926 131.736 89.6277 132.731 89.288C133.687 88.9616 134.488 88.5 135.064 87.7245C135.875 86.3427 135.7 84.8288 135.293 83.0995C135.209 82.7487 135.126 82.3967 135.043 82.0458L135.042 82.0448C134.998 81.8551 134.941 81.61 134.898 81.4266C134.559 79.9826 134.233 78.5363 133.907 77.0927C133.704 76.1893 133.501 75.2851 133.297 74.3817C133.042 73.251 132.786 72.1202 132.532 70.9891C132.041 68.81 131.549 66.6316 131.051 64.455C130.905 63.8166 130.758 63.1769 130.614 62.537C130.46 61.8543 130.305 61.1721 130.148 60.4921L129.98 59.7675L129.979 59.7636C129.587 58.009 129.278 56.6712 127.989 55.8261ZM87.7669 61.7304L87.8274 62.2811C87.8359 62.3577 87.8464 62.4522 87.8489 62.535C87.8515 62.6247 87.8478 62.7543 87.7952 62.8954C87.741 63.0405 87.6557 63.1424 87.5891 63.2108C87.5408 63.2605 87.4822 63.3091 87.4339 63.3505C87.2832 63.4963 87.2259 63.5534 87.1653 63.62C87.1028 63.6887 87.0349 63.7693 86.8753 63.9638C86.2189 64.7886 85.5466 65.5979 84.8284 66.3827L84.8255 66.3866C84.431 66.8112 84.058 67.2271 83.7063 67.6688C82.8384 68.7639 81.9252 69.773 80.9465 70.7567L80.9456 70.7577L80.5071 70.3202C81.3516 69.4713 82.1444 68.6059 82.8997 67.6835L83.221 67.285C83.4039 67.0553 83.5918 66.8328 83.7835 66.6141L84.3714 65.9647C85.0769 65.1938 85.741 64.397 86.3919 63.579C86.7108 63.1904 86.7112 63.1898 87.0042 62.9061C87.2502 62.6959 87.2505 62.6956 87.2122 62.3495H72.843C72.5651 63.1821 72.5656 63.1825 72.345 64.0214C72.303 64.2035 72.3029 64.2036 72.26 64.3895C72.2305 64.5197 72.2006 64.6499 72.1702 64.7841L72.0725 65.2079C71.9664 65.6708 71.8616 66.1345 71.7561 66.5975L71.5305 67.58C71.3323 68.4457 71.1352 69.3117 70.9378 70.1776L69.1751 77.8954C69.0124 78.6022 68.8479 79.3089 68.6799 80.0145L68.2883 81.6718C68.2281 81.9262 68.1676 82.1814 68.1057 82.4354L67.8596 83.4716L67.72 84.0546C67.6593 84.5866 67.7035 84.7821 67.9983 85.2177C68.2279 85.4971 68.2277 85.4979 68.4954 85.7577C68.5937 85.8563 68.692 85.9549 68.7932 86.0565C68.9473 86.2085 68.9477 86.2083 69.1048 86.3632C69.2036 86.4625 69.3027 86.5625 69.4046 86.6649C69.9079 87.1666 70.421 87.6495 70.9592 88.1132C71.6858 88.7506 72.3673 89.426 73.0462 90.1141C73.1762 90.2453 73.3067 90.3765 73.4407 90.5116C73.7208 90.7942 74.0008 91.0773 74.2805 91.3602C74.7241 91.8088 75.1683 92.2571 75.6126 92.705C76.6355 93.7366 77.6578 94.7692 78.6799 95.8016C79.6926 96.8245 80.7055 97.8471 81.719 98.869C82.1551 99.309 82.5911 99.7489 83.0266 100.189C83.2958 100.461 83.565 100.732 83.8342 101.004C83.9539 101.125 84.0733 101.247 84.1965 101.372C84.8622 102.042 85.5451 102.681 86.259 103.299C86.4975 103.506 86.7299 103.72 86.9612 103.935C87.5572 104.34 88.1164 104.556 88.8001 104.53L89.1008 104.504C90.0944 104.231 90.6522 103.724 91.2219 102.874C91.3803 102.555 91.417 102.296 91.4309 101.986L91.4407 101.655C91.4469 101.498 91.4538 101.341 91.4602 101.18C91.3385 100.339 90.7918 99.7031 90.1975 99.1229L89.6008 98.5555C89.3829 98.3421 89.1653 98.1276 88.9475 97.9139L87.9212 96.9198C87.5878 96.5986 87.2577 96.274 86.928 95.9491C86.825 95.8517 86.7216 95.7536 86.6155 95.6532C86.0522 95.0931 85.7902 94.6879 85.7249 93.9589L85.7083 93.6259C85.8336 93.3183 85.865 93.2414 86.0139 93.1112L86.2092 92.953C86.7418 92.8374 86.7422 92.8374 87.3792 92.953C88.5744 93.7773 89.5824 94.9854 90.5999 96.0194C90.9112 96.3357 91.2233 96.6512 91.5354 96.9667C92.4221 97.8631 93.3087 98.7609 94.1936 99.6591C94.7371 100.211 95.2816 100.761 95.8264 101.311C96.0332 101.521 96.2395 101.731 96.4456 101.94C96.7329 102.233 97.0212 102.524 97.3098 102.815C97.3944 102.902 97.4796 102.989 97.5667 103.078C98.1998 103.713 98.6564 104.019 99.4456 104.095L99.8049 104.114C100.867 104.093 101.38 103.748 102.123 103C102.654 102.16 102.805 101.519 102.638 100.53C102.185 99.2647 101.066 98.3727 100.128 97.4579L99.4924 96.8251L97.8196 95.1708C96.9234 94.2888 96.0307 93.403 95.1389 92.5165C94.8276 92.2078 94.5152 91.8998 94.2024 91.5927C94.0116 91.404 93.8209 91.215 93.6301 91.0263C93.5431 90.9414 93.4552 90.8568 93.3655 90.7694C92.9472 90.3536 92.587 89.9865 92.3909 89.4218C92.4545 88.6219 92.4629 88.5222 92.7512 88.2206L92.8928 88.077C93.5546 87.9737 93.979 87.917 94.554 88.2831C94.9034 88.5926 95.225 88.9176 95.5462 89.2567L95.096 89.6825C94.7934 89.3631 94.4981 89.0654 94.1839 88.7841C93.9951 88.67 93.8531 88.6322 93.7112 88.622C93.5711 88.6118 93.4171 88.6275 93.1907 88.66C93.095 88.7613 93.094 88.7709 93.0891 88.7841C93.0824 88.802 93.0696 88.8468 93.0549 88.9638C93.0433 89.0568 93.0337 89.1726 93.0208 89.3319C93.1702 89.6837 93.416 89.9461 93.7981 90.3261L94.0618 90.5829L94.0657 90.5858C94.2565 90.7746 94.4471 90.9635 94.638 91.1522L95.5755 92.0761C96.4673 92.9627 97.3592 93.8486 98.2542 94.7294C98.8136 95.2793 99.373 95.8309 99.9299 96.3856C100.14 96.5952 100.35 96.8054 100.561 97.0145C100.996 97.4395 101.554 97.9335 102.022 98.4442C102.503 98.9701 102.956 99.5798 103.221 100.321L103.24 100.373L103.248 100.427C103.341 100.975 103.352 101.464 103.248 101.95C103.145 102.434 102.936 102.874 102.647 103.331L102.611 103.389L102.563 103.436C102.181 103.821 101.811 104.151 101.367 104.38C100.911 104.615 100.419 104.721 99.8176 104.733H99.7971C99.2243 104.725 98.7483 104.637 98.302 104.42C97.8664 104.207 97.5036 103.892 97.1272 103.515L97.1233 103.511C97.0362 103.421 96.952 103.334 96.8674 103.248C96.5798 102.958 96.2914 102.666 96.0042 102.374L95.386 101.747C94.8409 101.197 94.2961 100.646 93.7522 100.094C92.8675 99.1958 91.9823 98.2983 91.096 97.4022C90.7836 97.0865 90.4704 96.7709 90.1585 96.454C89.123 95.4018 88.2168 94.3148 87.134 93.5389C86.8987 93.497 86.8209 93.4853 86.7551 93.4852C86.7019 93.4852 86.6516 93.4931 86.4798 93.5292C86.4558 93.5485 86.437 93.5642 86.4212 93.578C86.4035 93.5934 86.3956 93.6014 86.3928 93.6044C86.3907 93.6078 86.3837 93.6189 86.3714 93.6454C86.3601 93.6695 86.3481 93.6984 86.3323 93.7362C86.3465 94.0866 86.3999 94.3095 86.4856 94.4921C86.5831 94.6995 86.7431 94.9064 87.0413 95.204L87.3538 95.4989L87.3626 95.5077C87.6918 95.8322 88.0195 96.1542 88.3499 96.4725L89.3801 97.4716L89.3811 97.4725C89.5987 97.686 89.8167 97.8989 90.0344 98.1122C90.3986 98.461 90.864 98.8755 91.2405 99.3339C91.6289 99.8069 91.9695 100.379 92.0725 101.091L92.0813 101.147L92.0784 101.204C92.072 101.366 92.0661 101.523 92.0598 101.68C92.0484 102.133 92.0561 102.587 91.7766 103.149L91.7581 103.185L91.7366 103.219C91.11 104.153 90.441 104.779 89.2649 105.101L89.2239 105.112L89.1819 105.118C88.1696 105.253 87.3866 104.972 86.6135 104.447L86.5745 104.421L86.5393 104.389C86.3099 104.175 86.0837 103.967 85.8538 103.767L85.3147 103.292C84.7814 102.812 84.2641 102.319 83.7571 101.808L83.7561 101.807C83.6335 101.682 83.5119 101.56 83.3928 101.439C83.1241 101.168 82.8549 100.897 82.5862 100.626L81.2796 99.3046C80.2659 98.2825 79.2522 97.2601 78.2395 96.2372C77.2174 95.2047 76.1959 94.1719 75.1731 93.1405C74.7288 92.6925 74.284 92.2447 73.8401 91.7958C73.5605 91.513 73.2802 91.2305 73.0003 90.9481C72.8663 90.813 72.7368 90.6818 72.6067 90.5507L72.6057 90.5497C71.9289 89.8636 71.2593 89.2012 70.5501 88.579C69.9998 88.1047 69.4771 87.6118 68.9671 87.1034L68.9651 87.1014C68.8633 86.9991 68.7641 86.9 68.6653 86.8007C68.5127 86.6502 68.5112 86.6474 68.3587 86.497L68.3548 86.494C68.2557 86.3947 68.1599 86.2975 68.0637 86.2011C67.7803 85.9259 67.7644 85.9088 67.5198 85.6112L67.5012 85.5888L67.4846 85.5653C67.3256 85.3304 67.1901 85.0967 67.1233 84.8153C67.0572 84.5367 67.0727 84.2664 67.1048 83.9852L67.1087 83.9472L67.1174 83.91C67.1652 83.711 67.2107 83.5203 67.2571 83.327C67.3376 82.9819 67.4197 82.6348 67.5042 82.288C67.5657 82.0355 67.6259 81.7822 67.6858 81.5292C67.8154 80.9769 67.9459 80.4239 68.0774 79.871C68.4125 78.4632 68.7335 77.0514 69.0549 75.6366L69.6292 73.1229C69.8644 72.0953 70.0988 71.0674 70.3333 70.0399C70.5308 69.1739 70.7287 68.3074 70.927 67.4413C71.002 67.1139 71.0767 66.7863 71.1516 66.4589C71.257 65.9961 71.3628 65.5324 71.469 65.0692C71.5019 64.9258 71.5337 64.7866 71.5657 64.6473L71.6555 64.2528L71.6565 64.2509C71.6994 64.065 71.6994 64.064 71.7415 63.8817L71.7434 63.8729L71.7454 63.8632C71.9694 63.0114 71.974 62.9983 72.2561 62.1532L72.3967 61.7304H87.7669ZM95.9221 89.6376C96.3308 90.0524 96.7349 90.4721 97.1389 90.8915C97.4226 91.1808 97.7071 91.47 97.9915 91.7587C98.7392 92.5192 99.483 93.2834 100.226 94.0487C101.415 95.2731 102.611 96.4925 103.807 97.7108C104.224 98.1367 104.638 98.5651 105.053 98.993C105.309 99.2549 105.565 99.5165 105.821 99.7782C105.935 99.8975 106.05 100.017 106.168 100.14C106.811 100.794 107.411 101.351 108.305 101.558L108.489 101.596C109.212 101.588 109.75 101.526 110.344 101.187L110.603 101.024C111.366 100.239 111.726 99.6124 111.768 98.5692L111.773 98.3544C111.556 97.0155 110.326 95.9902 109.403 95.0829L109.053 94.7352L108.305 93.994C107.91 93.6033 107.516 93.2106 107.123 92.8182L103.766 89.4804C103.078 88.7992 102.393 88.116 101.708 87.4315L100.924 86.6542C100.558 86.2936 100.195 85.9301 99.8323 85.5663L99.5032 85.245C98.9492 84.6837 98.6345 84.3023 98.5803 83.5282L98.5735 83.368C98.6101 83.1683 98.6278 83.0684 98.6487 82.9843L98.7405 82.6962C99.2399 82.5615 99.5703 82.4846 100.076 82.5272C100.355 82.6962 100.355 82.6967 100.637 82.9598C100.811 83.1226 100.812 83.1229 100.99 83.2889C101.848 84.1307 102.697 84.9814 103.54 85.8378C103.896 86.1986 104.252 86.5588 104.609 86.9188C105.621 87.9419 106.633 88.9663 107.644 89.9911C108.264 90.6201 108.886 91.2482 109.508 91.8759C109.744 92.1144 109.98 92.3534 110.215 92.5927C110.544 92.9266 110.873 93.2599 111.203 93.5927C111.3 93.6911 111.396 93.79 111.495 93.8915C112.328 94.7276 113.04 95.2215 114.233 95.3173C115.074 95.294 115.633 94.9326 116.252 94.3925C116.718 93.8437 116.943 93.4253 117 92.7743L117.015 92.4804C117.02 92.3441 117.024 92.2076 117.029 92.0673C116.859 91.0546 116.215 90.2864 115.516 89.5761L114.813 88.8778C114.59 88.6513 114.591 88.6508 114.364 88.4198C113.958 88.0076 113.551 87.5966 113.144 87.1864L112.38 86.4149C111.49 85.5141 110.597 84.614 109.704 83.7157C108.876 82.882 108.049 82.0457 107.225 81.2079L103.815 77.7597L102.389 76.3241C102.252 76.1834 102.114 76.0424 101.973 75.8973C100.818 74.7537 99.3765 73.7461 97.7346 73.5839L97.4036 73.5634C97.2589 73.5571 97.1142 73.5503 96.9651 73.5438C95.3722 73.7461 94.0942 74.5337 92.7883 75.4227L92.2151 75.7948C90.8774 76.6448 89.5284 77.3817 88.0471 77.9872L87.5813 78.1796L87.22 78.2929C85.5014 78.7819 83.3449 78.7499 81.6604 78.1727L81.3069 78.0409C80.0319 77.4059 78.5281 76.5268 77.6214 75.3222L77.4485 75.077C77.2826 74.8255 77.1938 74.531 77.1809 74.2304L77.1799 74.1014L77.1956 73.8446C77.2422 73.3653 77.5942 72.9897 78.0227 72.7753C78.175 72.6378 78.3248 72.4973 78.4729 72.3554L78.9124 71.9247L79.1682 71.6679C79.3471 71.4881 79.5253 71.3074 79.7034 71.1268C79.97 70.8567 80.2385 70.5884 80.5071 70.3202L80.9456 70.7577C80.6769 71.0259 80.4098 71.2939 80.1448 71.5624L80.1438 71.5614L79.6067 72.1044L79.3508 72.3612C79.0556 72.6576 78.7521 72.9504 78.4378 73.2343L78.0227 72.7753L78.3001 73.329C77.9877 73.4853 77.8309 73.7082 77.8118 73.9042C77.8051 73.9731 77.8013 74.0442 77.7991 74.119C77.7925 74.3475 77.8517 74.5631 77.9651 74.7352C78.739 75.9087 80.2075 76.799 81.5579 77.4735C83.2502 78.1547 85.622 78.1885 87.3684 77.5966C87.5184 77.5346 87.6648 77.4752 87.8108 77.4149L87.8128 77.4139C89.4547 76.7427 90.9361 75.9021 92.4397 74.911C93.7488 74.0198 95.1341 73.1522 96.887 72.9296L96.9397 72.9227L96.9915 72.9257C97.1406 72.9321 97.2862 72.9379 97.4309 72.9442C99.3167 72.9999 100.927 74.0553 102.166 75.2225L102.409 75.4579L102.417 75.4657C102.554 75.6066 102.692 75.7488 102.825 75.8856C103.302 76.3625 103.781 76.8424 104.256 77.3261C104.677 77.7555 105.102 78.1827 105.527 78.6102L107.666 80.7733C108.49 81.6107 109.316 82.4464 110.144 83.2792C111.037 84.1779 111.93 85.0781 112.821 85.9794C113.075 86.2367 113.33 86.4942 113.584 86.7509C113.991 87.161 114.399 87.5722 114.805 87.9852C115.031 88.2154 115.032 88.2167 115.252 88.4403L115.956 89.1415C116.2 89.3896 116.445 89.6518 116.664 89.9257C117.114 90.487 117.503 91.1495 117.64 91.9647L117.65 92.0263L117.648 92.0888C117.643 92.2248 117.638 92.357 117.633 92.4891C117.626 92.9583 117.56 93.3615 117.401 93.7479C117.243 94.1289 117.01 94.4569 116.725 94.7929L116.695 94.829L116.659 94.8593C115.999 95.4353 115.304 95.9072 114.25 95.9364L114.217 95.9374L114.184 95.9345C112.785 95.8222 111.943 95.2178 111.057 94.328L111.053 94.3241C110.955 94.2239 110.855 94.1224 110.76 94.0253C110.431 93.6937 110.102 93.3608 109.774 93.0272C109.539 92.7884 109.303 92.5496 109.068 92.3114C108.446 91.6837 107.824 91.0558 107.203 90.4266C106.193 89.402 105.181 88.3773 104.169 87.3544C103.813 86.9941 103.456 86.6337 103.1 86.2723C102.258 85.4178 101.411 84.57 100.556 83.7313C100.389 83.5759 100.385 83.5719 100.215 83.413L100.214 83.412C100.065 83.2722 100.019 83.2309 99.9778 83.1991C99.9547 83.1813 99.9302 83.1674 99.8792 83.1356C99.6567 83.1286 99.4718 83.1532 99.2356 83.2079C99.2263 83.2534 99.213 83.3143 99.1956 83.4091C99.2093 83.7384 99.273 83.9441 99.3674 84.1161C99.4765 84.3145 99.6446 84.5072 99.9348 84.8016L100.264 85.1229L100.271 85.1288C100.633 85.4922 100.995 85.8542 101.359 86.2128C101.622 86.472 101.884 86.7322 102.146 86.993C102.83 87.677 103.516 88.3596 104.202 89.0399C105.324 90.151 106.443 91.2648 107.561 92.3798C107.954 92.7719 108.347 93.1638 108.74 93.5536C108.99 93.8006 109.24 94.048 109.49 94.2958L109.837 94.6415L110.567 95.3475C110.825 95.6027 111.09 95.8753 111.327 96.1591C111.81 96.7351 112.25 97.4287 112.384 98.2557L112.392 98.3046V98.3544C112.392 99.0083 112.292 99.5591 112.056 100.074C111.823 100.582 111.476 101.014 111.047 101.456L111.004 101.5L110.953 101.535C110.105 102.117 109.378 102.205 108.495 102.215L108.439 102.216L108.384 102.206C107.325 102.025 106.611 101.448 105.989 100.837L105.721 100.569C105.602 100.446 105.489 100.328 105.374 100.208C105.12 99.9474 104.865 99.6862 104.611 99.4257L104.609 99.4237C104.194 98.9958 103.78 98.5691 103.365 98.1444C102.169 96.9261 100.973 95.7059 99.7825 94.4804C99.0398 93.7152 98.2956 92.9515 97.5491 92.1923C97.2646 91.9035 96.9804 91.6145 96.6965 91.3251L96.6926 91.3212C96.2881 90.9012 95.8866 90.4841 95.4807 90.0722C95.2919 89.8812 95.2916 89.8802 95.1057 89.6923L95.096 89.6825L95.5462 89.2567C95.7323 89.4449 95.7323 89.4456 95.9221 89.6376ZM95.7913 59.0555C96.7673 58.7988 97.5943 58.6906 98.4378 58.7899C99.2783 58.8889 100.086 59.1882 101.031 59.6679C101.969 60.1442 103.085 60.8208 104.532 61.6991C106.355 62.7896 108.079 63.9338 109.945 64.747C111.88 65.4323 113.908 65.2522 115.813 64.4481C116.232 64.2683 116.647 64.1056 117.078 63.952L117.289 63.8768L117.5 63.954C117.582 63.984 117.679 64.0195 117.76 64.0575C117.848 64.0986 117.969 64.1649 118.075 64.2831C118.184 64.4035 118.237 64.5323 118.268 64.6288C118.295 64.7142 118.317 64.8134 118.334 64.8915C118.367 65.038 118.4 65.1819 118.432 65.3241L118.548 65.8222L118.549 65.827C118.593 66.0234 118.628 66.1834 118.67 66.3739L119.085 68.1981L120.801 75.788C121.061 76.9319 121.321 78.0764 121.579 79.2206C121.629 79.4394 121.678 79.6581 121.728 79.8768C121.871 80.5092 122.014 81.1422 122.157 81.7753C122.19 81.923 122.206 81.9971 122.223 82.0702C122.239 82.1433 122.256 82.2161 122.288 82.3602C122.598 83.7223 122.863 85.0846 123.077 86.4677L123.146 86.9061L122.753 87.1122C122.511 87.2388 122.268 87.3653 122.024 87.4911C121.919 87.5448 121.817 87.5962 121.716 87.6483C121.094 87.9709 120.474 88.2689 119.81 88.5331L119.802 88.536L119.217 88.7597C118.87 88.893 118.523 89.0262 118.175 89.1591L117.799 89.3036L117.515 89.0175C115.847 87.3354 114.179 85.6535 112.51 83.9725C111.697 83.1539 110.885 82.3349 110.073 81.5155C109.361 80.7973 108.648 80.0788 107.936 79.3612C107.632 79.055 107.328 78.7485 107.024 78.4423L107.023 78.4413C105.646 77.0514 104.289 75.6665 102.881 74.3348L102.602 74.0722L102.6 74.0702C101.426 72.9606 100.204 72.3001 98.638 71.9481C96.2053 71.5844 94.2772 72.2808 92.1819 73.6786C90.1314 75.0472 87.8384 76.5705 85.1174 76.8114L85.0979 76.8134L85.0784 76.8143C84.0148 76.8408 83.1045 76.7336 82.2424 76.4257C81.3808 76.1179 80.6056 75.6228 79.7923 74.9266L79.6048 74.7665L79.5784 74.5214C79.5702 74.4435 79.5593 74.3451 79.5579 74.2577C79.5563 74.1598 79.5647 74.0281 79.6214 73.8856C79.6771 73.7454 79.7605 73.6448 79.8255 73.5761C79.8807 73.5176 79.9481 73.4563 80.0071 73.4032C81.6095 71.8648 83.155 70.2571 84.5364 68.5399C84.8832 68.1021 85.2372 67.6641 85.6155 67.2352L85.6214 67.2294C86.131 66.6671 86.6254 66.1244 87.0901 65.5546C88.461 63.8371 89.9162 62.166 91.6008 60.6942L91.6077 60.6884C91.7379 60.578 91.865 60.4702 91.9915 60.3632L92.0774 60.2909L92.1829 60.2528C93.672 59.7213 94.8255 59.3096 95.7913 59.0555ZM124.834 56.6141C125.42 56.512 126.064 56.4724 126.724 56.6552L126.788 56.6737L126.848 56.705C127.576 57.0894 127.998 57.615 128.282 58.2909L128.395 58.5907L128.407 58.6249L128.414 58.66C128.443 58.7936 128.459 58.8605 128.473 58.9266C128.487 58.9921 128.501 59.0572 128.529 59.1854L128.664 59.788L128.665 59.7938C128.735 60.1222 128.805 60.4484 128.877 60.7733L129.188 62.1737C129.401 63.1468 129.624 64.1186 129.851 65.0917C129.948 65.5072 130.044 65.9231 130.141 66.3388C130.196 66.5761 130.236 66.7465 130.289 66.9774C130.636 68.4757 130.982 69.9741 131.326 71.4725C131.607 72.6931 131.888 73.9133 132.171 75.1327C132.424 76.2222 132.676 77.3126 132.927 78.4032C133.059 78.977 133.189 79.5503 133.323 80.122L133.699 81.7489C133.768 82.0469 133.77 82.058 133.836 82.3475L134.051 83.2743C134.259 84.2284 134.418 85.2574 134.273 86.3114L134.254 86.4511L134.176 86.5692C133.583 87.4651 132.874 87.8758 131.939 88.1796L131.911 88.1884L131.884 88.1952C131.569 88.2668 131.568 88.2658 131.259 88.3358C131.03 88.3884 130.801 88.442 130.572 88.494L130.567 88.495L129.504 88.7313C129.268 88.7861 129.032 88.8394 128.796 88.8925L128.795 88.8934C128.679 88.9193 128.57 88.9435 128.457 88.9686C127.559 89.1686 126.673 89.3481 125.638 88.7352L125.579 88.7011L125.53 88.6542C124.753 87.9244 124.477 87.1058 124.271 86.2118L124.269 86.205C124.241 86.0797 124.209 85.9295 124.182 85.8075L123.859 84.371C123.779 84.0144 123.7 83.658 123.619 83.3016L123.139 81.1669C122.701 79.2115 122.256 77.2569 121.81 75.3026C121.547 74.1539 121.285 73.0051 121.024 71.8563C120.803 70.886 120.582 69.9158 120.361 68.9462C120.145 68.0026 119.929 67.0585 119.715 66.1141C119.635 65.7596 119.554 65.4051 119.474 65.0507L119.131 63.5487C119.079 63.3174 119.078 63.316 119.028 63.0917L118.809 62.2245C118.727 61.901 118.646 61.5555 118.588 61.2264C118.471 60.5532 118.418 59.7776 118.681 59.078L118.703 59.0175L118.739 58.9628C119.277 58.1189 120.096 57.7816 120.831 57.5409L120.859 57.5321L120.886 57.5253C121.194 57.455 121.192 57.4555 121.493 57.3866C121.715 57.3351 121.937 57.2844 122.158 57.2333L122.163 57.2313L123.197 56.9989C123.667 56.8895 124.278 56.7112 124.834 56.6141ZM64.1887 56.5731C64.7018 56.5459 65.2185 56.6778 66.0061 56.869C66.2049 56.9156 66.3971 56.9605 66.5901 57.0057L67.6223 57.2167C67.9991 57.2935 68.393 57.3807 68.7561 57.4872C69.4626 57.6944 70.2032 58.0109 70.7727 58.5927L70.885 58.7128L70.9817 58.8231L71.0188 58.9647C71.18 59.5746 71.293 59.9817 71.2962 60.4032C71.2993 60.8203 71.1941 61.2357 71.0432 61.8632C71.0257 61.9403 71.0096 62.0173 70.9924 62.0927L70.9407 62.3182C70.8201 62.852 70.6997 63.3861 70.5784 63.9198C70.5071 64.233 70.4357 64.5462 70.3645 64.8593C69.9145 66.8376 69.4637 68.8158 69.013 70.7938C68.6772 72.2669 68.3411 73.7397 68.0061 75.2128C67.7679 76.2602 67.53 77.3081 67.2913 78.3554C67.1488 78.9802 67.0065 79.6048 66.8645 80.2294C66.7298 80.8224 66.5947 81.4155 66.4592 82.0087C66.4087 82.2297 66.3573 82.4507 66.3069 82.6718C66.1738 83.2591 66.0395 83.8482 65.9007 84.4364V84.4384C65.853 84.6371 65.8062 84.8285 65.76 85.0214L65.761 85.0223C65.6812 85.3633 65.6002 85.7068 65.5159 86.0497L65.5149 86.0507C65.487 86.1632 65.459 86.2725 65.4319 86.3817L65.4329 86.3827C65.2163 87.2745 64.9632 87.9373 64.2708 88.6698L64.1526 88.7948L63.9876 88.8417C63.3314 89.0245 62.8976 89.15 62.4466 89.1552C61.9988 89.1602 61.5506 89.0455 60.8635 88.8778C60.6611 88.8284 60.4644 88.7803 60.2678 88.7323C59.6448 88.5899 58.8501 88.4502 58.1301 88.244C57.3919 88.0326 56.6289 87.7272 55.9905 87.1972L55.8147 87.0516L55.7757 86.828C55.5828 85.7262 55.4661 85.0811 55.5022 84.4237C55.538 83.7722 55.7232 83.1214 56.0364 82.0028C56.0983 81.7391 56.1594 81.475 56.22 81.2108C56.3873 80.4779 56.5563 79.745 56.7268 79.0126C56.9068 78.2396 57.0858 77.4661 57.2639 76.6923C57.5211 75.5751 57.7784 74.4578 58.0374 73.3407C58.4728 71.4627 58.9047 69.5837 59.3313 67.704C59.5271 66.8411 59.7233 65.9784 59.9202 65.1161C60.0754 64.4369 60.2305 63.7584 60.3841 63.08L60.8245 61.1434C60.8789 60.9075 60.9334 60.6714 60.9876 60.4354C61.0373 60.2135 61.0872 59.9914 61.137 59.7694L61.138 59.7655C61.1861 59.5582 61.2329 59.3564 61.2796 59.1552C61.4412 58.4466 61.6222 57.8578 62.1917 57.2264L62.2942 57.1122L62.4387 57.0595C63.1822 56.787 63.6733 56.6005 64.1887 56.5731ZM104.211 62.2284C98.3874 58.6957 98.3866 58.6956 92.3909 60.8358C92.2645 60.9429 92.1383 61.0507 92.0081 61.161C90.3625 62.5987 88.9328 64.2383 87.5706 65.9452L87.2073 66.3798C86.84 66.8088 86.4602 67.2263 86.0803 67.6454C85.712 68.063 85.3646 68.492 85.0188 68.9286L84.4846 69.577C83.2224 71.0788 81.8477 72.4949 80.4358 73.8505L80.2757 74.0009C80.1598 74.1234 80.1667 74.1897 80.1946 74.4559C81.745 75.7829 83.0386 76.2456 85.0628 76.1952C87.2838 75.9986 89.2182 74.884 91.0559 73.6815L91.8381 73.1639C94.0182 71.7096 96.106 70.9377 98.7503 71.3388C100.438 71.7144 101.767 72.4302 103.026 73.62C103.118 73.7065 103.21 73.7935 103.305 73.8827C104.723 75.2238 106.089 76.619 107.463 78.0057C107.767 78.312 108.071 78.6185 108.375 78.9247C109.088 79.6424 109.8 80.3607 110.512 81.079C111.324 81.8984 112.138 82.7172 112.95 83.536L117.954 88.5809L118.995 88.1815C119.188 88.1075 119.381 88.0332 119.58 87.9569C120.22 87.7027 120.821 87.4162 121.432 87.0995L121.74 86.9403C121.983 86.8156 122.224 86.6897 122.465 86.5634C122.306 85.5374 122.119 84.5223 121.907 83.5097L121.685 82.4979L121.553 81.911C121.411 81.2785 121.267 80.6459 121.123 80.0136C121.074 79.7946 121.024 79.5753 120.975 79.3563L120.198 75.9247C119.955 74.8593 119.715 73.7934 119.475 72.7274L118.852 69.9755C118.728 69.4286 118.604 68.8811 118.481 68.3339C118.344 67.7263 118.205 67.1187 118.067 66.5116C118.026 66.33 117.986 66.1479 117.945 65.9608L117.829 65.4638C117.797 65.3202 117.764 65.1761 117.731 65.0282C117.651 64.67 117.651 64.6694 117.286 64.535C116.867 64.6844 116.463 64.8431 116.054 65.0184L115.672 65.1718C113.882 65.8477 111.975 66.0105 110.119 65.4559L109.723 65.3261C108.28 64.6995 106.912 63.8751 105.56 63.0487L104.211 62.2284ZM126.559 57.2528C125.484 56.9553 124.392 57.3567 123.336 57.6024L122.298 57.8368C122.076 57.8881 121.853 57.9395 121.631 57.9911L121.024 58.1298C120.312 58.3627 119.676 58.6443 119.26 59.2958C118.853 60.3789 119.378 61.8596 119.631 62.952C119.682 63.1796 119.682 63.1799 119.735 63.412C119.848 63.9121 119.963 64.4122 120.077 64.912C120.158 65.2669 120.238 65.6224 120.319 65.9774C120.533 66.9213 120.748 67.865 120.964 68.8085C121.186 69.7784 121.406 70.7485 121.627 71.7186C121.889 72.8674 122.151 74.0163 122.413 75.1649C122.86 77.1196 123.304 79.0747 123.742 81.0311C123.902 81.7425 124.063 82.4537 124.224 83.1649C124.304 83.5221 124.384 83.8798 124.463 84.2372C124.569 84.7151 124.678 85.1924 124.786 85.6698C124.815 85.8028 124.844 85.9361 124.874 86.0731C125.071 86.9256 125.311 87.5991 125.953 88.203C126.763 88.6824 127.431 88.5617 128.323 88.3632L128.66 88.2889L129.365 88.1278L130.435 87.8895C130.664 87.8376 130.893 87.7857 131.121 87.7333L131.747 87.5907C132.592 87.3163 133.165 86.9732 133.659 86.2264C133.791 85.275 133.648 84.3391 133.447 83.413L133.234 82.4901L133.096 81.8876L129.538 66.4784L129.248 65.2323C129.135 64.7452 129.022 64.258 128.91 63.7704L128.582 62.3065L128.273 60.9081C128.2 60.5803 128.13 60.252 128.06 59.9237L127.925 59.3212C127.868 59.0592 127.868 59.0592 127.81 58.7919C127.566 58.0834 127.222 57.603 126.559 57.2528ZM65.8596 57.4706C64.2099 57.0701 64.2098 57.0706 62.6516 57.6415C62.187 58.1566 62.0364 58.623 61.8831 59.2958L61.7415 59.9052C61.6915 60.1281 61.641 60.3511 61.5911 60.5741L61.428 61.2821C61.2799 61.9263 61.1342 62.5719 60.9885 63.2167L59.9348 67.8417L58.6409 73.4804L56.8235 81.3495C56.7617 81.6187 56.7001 81.8883 56.637 82.1571L56.4241 82.9227C55.9969 84.4988 56.0404 84.7459 56.386 86.7206C57.4736 87.6236 59.0655 87.8223 60.4065 88.1288C60.6057 88.1774 60.8048 88.2262 61.01 88.2763C62.4471 88.6271 62.4475 88.6276 63.8206 88.245C64.3382 87.6975 64.5692 87.2087 64.7542 86.537L64.8313 86.2372L64.9143 85.9013L65.1575 84.8817C65.204 84.6878 65.2502 84.4937 65.2981 84.2938C65.4363 83.7086 65.5705 83.1225 65.7034 82.536L65.8557 81.871C65.9911 81.2781 66.1253 80.6847 66.26 80.0917C66.402 79.4669 66.5443 78.8423 66.6868 78.2177L68.4085 70.6561C68.8592 68.6781 69.3101 66.6998 69.76 64.7216C69.8313 64.4084 69.9026 64.0953 69.9739 63.7821L70.3372 62.1815L70.4397 61.7274C70.7582 60.4023 70.7582 60.4018 70.4202 59.1229C69.7167 58.3266 68.5817 58.0432 67.4993 57.8241L66.4524 57.6093C66.2569 57.5634 66.0611 57.5178 65.8596 57.4706Z" fill="#111B22"/>
</g>
<defs>
<filter id="filter0_d_54614_1046504" x="88.4824" y="8.24218" width="47.0079" height="47.1768" filterUnits="userSpaceOnUse" color-interpolation-filters="sRGB">
<feFlood flood-opacity="0" result="BackgroundImageFix"/>
<feColorMatrix in="SourceAlpha" type="matrix" values="0 0 0 0 0 0 0 0 0 0 0 0 0 0 0 0 0 0 127 0" result="hardAlpha"/>
<feOffset dy="4.69825"/>
<feGaussianBlur stdDeviation="4.69825"/>
<feColorMatrix type="matrix" values="0 0 0 0 0.0705882 0 0 0 0 0.105882 0 0 0 0 0.129412 0 0 0 0.1 0"/>
<feBlend mode="normal" in2="BackgroundImageFix" result="effect1_dropShadow_54614_1046504"/>
<feBlend mode="normal" in="SourceGraphic" in2="effect1_dropShadow_54614_1046504" result="shape"/>
</filter>
<filter id="filter1_d_54614_1046504" x="52.9127" y="54.6431" width="83.9324" height="53.5637" filterUnits="userSpaceOnUse" color-interpolation-filters="sRGB">
<feFlood flood-opacity="0" result="BackgroundImageFix"/>
<feColorMatrix in="SourceAlpha" type="matrix" values="0 0 0 0 0 0 0 0 0 0 0 0 0 0 0 0 0 0 127 0" result="hardAlpha"/>
<feOffset dy="0.587281"/>
<feGaussianBlur stdDeviation="0.293641"/>
<feColorMatrix type="matrix" values="0 0 0 0 0.411765 0 0 0 0 0.439216 0 0 0 0 0.458824 0 0 0 0.1 0"/>
<feBlend mode="normal" in2="BackgroundImageFix" result="effect1_dropShadow_54614_1046504"/>
<feBlend mode="normal" in="SourceGraphic" in2="effect1_dropShadow_54614_1046504" result="shape"/>
</filter>
<filter id="filter2_d_54614_1046504" x="52.9108" y="54.6436" width="83.9324" height="53.5632" filterUnits="userSpaceOnUse" color-interpolation-filters="sRGB">
<feFlood flood-opacity="0" result="BackgroundImageFix"/>
<feColorMatrix in="SourceAlpha" type="matrix" values="0 0 0 0 0 0 0 0 0 0 0 0 0 0 0 0 0 0 127 0" result="hardAlpha"/>
<feOffset dy="0.587281"/>
<feGaussianBlur stdDeviation="0.293641"/>
<feColorMatrix type="matrix" values="0 0 0 0 0.411765 0 0 0 0 0.439216 0 0 0 0 0.458824 0 0 0 0.1 0"/>
<feBlend mode="normal" in2="BackgroundImageFix" result="effect1_dropShadow_54614_1046504"/>
<feBlend mode="normal" in="SourceGraphic" in2="effect1_dropShadow_54614_1046504" result="shape"/>
</filter>
</defs>
</svg>
