<svg width="196" height="121" viewBox="0 0 196 121" fill="none" xmlns="http://www.w3.org/2000/svg">
<rect x="0.705257" y="0.503078" width="1.2281" height="7.10823" rx="0.614049" transform="matrix(0.162647 0.986684 0.985888 -0.167405 44.4618 46.2176)" fill="#999999" stroke="#0078CE" stroke-width="1.2281"/>
<rect x="-0.514712" y="0.721566" width="1.25045" height="6.93687" rx="0.625225" transform="matrix(-0.985888 0.167406 0.162645 0.986685 61.1144 26.7769)" fill="#999999" stroke="#0078CE" stroke-width="1.25045"/>
<rect x="0.143693" y="0.85856" width="1.24232" height="6.99986" rx="0.621158" transform="matrix(-0.587994 0.808865 0.819325 0.573329 48.4193 33.3507)" fill="#999999" stroke="#0078CE" stroke-width="1.24232"/>
<path d="M139.098 103.901H62.5801C62.068 103.9 61.5621 103.788 61.0974 103.571C60.6327 103.354 60.2202 103.038 59.8886 102.644C59.5569 102.251 59.314 101.789 59.1766 101.292C59.0391 100.794 59.0105 100.273 59.0927 99.763L68.8792 39.9137C69.0114 39.0807 69.4341 38.3227 70.0713 37.7761C70.7084 37.2295 71.5181 36.9302 72.3545 36.9321H148.873C149.385 36.9322 149.89 37.0446 150.354 37.2617C150.819 37.4787 151.23 37.7951 151.561 38.1888C151.892 38.5826 152.134 39.0443 152.27 39.5418C152.405 40.0393 152.432 40.5607 152.348 41.0698L142.61 100.919C142.474 101.757 142.046 102.519 141.402 103.066C140.757 103.613 139.94 103.909 139.098 103.901Z" fill="white"/>
<path d="M129.114 29.224C130.228 29.6213 130.735 31.0732 130.248 32.467L118.511 66.0307C118.023 67.4245 116.726 68.2322 115.612 67.8349L77.8424 54.3564C76.7291 53.9591 76.2216 52.5072 76.709 51.1134L85.1555 23.3236L97.9072 16.2623L129.114 29.224Z" fill="white"/>
<path d="M85.1555 23.3236L76.709 51.1134C76.2216 52.5072 76.7291 53.9591 77.8424 54.3564L115.612 67.8349C116.726 68.2322 118.023 67.4245 118.511 66.0307L130.248 32.467C130.735 31.0732 130.228 29.6213 129.114 29.224L97.9072 16.2623M85.1555 23.3236L97.9072 16.2623M85.1555 23.3236L92.8017 25.434C93.7762 25.7029 94.7885 25.1725 95.1226 24.2179L97.9072 16.2623" stroke="#111B22" stroke-width="1.93116" stroke-linecap="round" stroke-linejoin="round"/>
<path d="M138.625 41.0959L113.454 30.4115L112.254 33.2377C111.283 35.5245 108.643 36.5913 106.356 35.6206L103.367 34.3519L87.7088 71.2404C87.0755 72.7323 87.7716 74.4551 89.2634 75.0883L118.863 87.6524C120.354 88.2857 122.077 87.5896 122.71 86.0978L140.179 44.9438C140.813 43.4519 140.116 41.7292 138.625 41.0959ZM111.595 30.7894L105.024 33.3569L106.967 34.1815C108.459 34.8147 110.182 34.1186 110.815 32.6268L111.595 30.7894Z" fill="white" stroke="#111B22" stroke-width="1.56371"/>
<rect x="107.281" y="40.0031" width="25.5905" height="0.913948" rx="0.456974" transform="rotate(23.7356 107.281 40.0031)" fill="#DCDCDC" stroke="#111B22" stroke-width="0.913948"/>
<rect x="92.7656" y="28.4162" width="4.95381" height="0.913948" rx="0.456974" transform="rotate(23.7356 92.7656 28.4162)" fill="#DCDCDC" stroke="#111B22" stroke-width="0.913948"/>
<rect x="105.607" y="43.384" width="9.46123" height="0.981332" rx="0.490666" transform="rotate(23.7356 105.607 43.384)" fill="#EEEEEE" stroke="#111B22" stroke-width="0.981332"/>
<rect x="91.0915" y="31.7971" width="9.46123" height="0.981332" rx="0.490666" transform="rotate(23.7356 91.0915 31.7971)" fill="#EEEEEE" stroke="#111B22" stroke-width="0.981332"/>
<path d="M89.8481 35.7947L95.0241 38.0706C95.1482 38.1252 95.2044 38.2697 95.1499 38.3937C95.0953 38.5176 94.9508 38.5739 94.8268 38.5194L89.6508 36.2434C89.5268 36.1889 89.4706 36.0444 89.5251 35.9204C89.5796 35.7964 89.7241 35.7401 89.8481 35.7947Z" fill="#EEEEEE" stroke="#111B22" stroke-width="1.472"/>
<path d="M104.333 46.7576L108.084 48.4073C108.208 48.462 108.265 48.6065 108.21 48.7304C108.156 48.8542 108.011 48.9103 107.887 48.8561L104.135 47.2063C104.011 47.1518 103.955 47.0073 104.009 46.8833C104.064 46.7593 104.208 46.703 104.333 46.7576Z" fill="#EEEEEE" stroke="#111B22" stroke-width="1.472"/>
<path d="M138.761 103.876H61.8684C60.9328 103.873 60.0365 103.495 59.3761 102.827C58.7156 102.159 58.3448 101.254 58.3448 100.31V45.6328C58.3335 45.1584 58.4163 44.6866 58.5882 44.2449C58.76 43.8032 59.0176 43.4006 59.3458 43.0606C59.6739 42.7206 60.0661 42.45 60.4993 42.2648C60.9324 42.0796 61.3979 41.9834 61.8684 41.9819H89.8764C90.5263 41.9843 91.163 42.1673 91.7165 42.5108C92.27 42.8543 92.7189 43.345 93.0139 43.929L97.0081 51.8149C97.3021 52.3997 97.7507 52.8912 98.3045 53.2348C98.8582 53.5785 99.4954 53.7609 100.146 53.762H138.761C139.695 53.762 140.592 54.1363 141.252 54.8028C141.913 55.4692 142.284 56.373 142.284 57.3154V100.31C142.284 101.254 141.914 102.159 141.253 102.827C140.593 103.495 139.696 103.873 138.761 103.876Z" fill="#BFDBEE" stroke="#111B22" stroke-width="1.93116" stroke-linecap="round" stroke-linejoin="round"/>
<path d="M77.1726 41.8257C71.2821 51.2096 62.2061 56.3094 71.8619 67.8963C81.5177 79.4833 71.8619 83.3456 77.1726 93.967C81.8194 103.261 101.621 104.053 106.499 104.106H107.588C107.588 104.106 107.196 104.113 106.499 104.106H62.2061L58.8265 102.174L58.3438 98.7949V44.7224L60.2749 42.3085L62.2061 41.8257H77.1726Z" fill="#0078CE" fill-opacity="0.2"/>
<g filter="url(#filter0_d_54246_1044002)">
<ellipse cx="17.2131" cy="17.2611" rx="17.2131" ry="17.2611" transform="matrix(-0.991395 0.1309 0.130153 0.991494 133.164 59.4253)" fill="#BFDBEE"/>
<path d="M116.211 62.5315C107.26 63.7134 100.954 71.95 102.133 80.9331C103.312 89.9163 111.529 96.2362 120.481 95.0542C129.432 93.8722 135.737 85.635 134.558 76.6518C133.378 67.6689 125.163 61.3497 116.211 62.5315Z" stroke="#0078CE" stroke-width="1.7201"/>
</g>
<path d="M128.753 75.4347V82.3602C128.753 83.4942 128.147 84.5472 127.167 85.1244L121.168 88.5972C120.189 89.1642 118.977 89.1642 117.987 88.5972L111.988 85.1244C111.008 84.5574 110.402 83.5043 110.402 82.3602V75.4347C110.402 74.3007 111.008 73.2477 111.988 72.6706L117.987 69.1977C118.967 68.6307 120.179 68.6307 121.168 69.1977L127.167 72.6706C128.147 73.2477 128.753 74.2906 128.753 75.4347Z" stroke="#111B22" stroke-width="1.51875" stroke-linecap="round" stroke-linejoin="round"/>
<path d="M119.584 77.8852C120.883 77.8852 121.937 76.829 121.937 75.5261C121.937 74.2232 120.883 73.167 119.584 73.167C118.284 73.167 117.23 74.2232 117.23 75.5261C117.23 76.829 118.284 77.8852 119.584 77.8852Z" stroke="#111B22" stroke-width="1.51875" stroke-linecap="round" stroke-linejoin="round"/>
<path d="M123.622 83.6156C123.622 81.7931 121.815 80.3149 119.583 80.3149C117.351 80.3149 115.543 81.7931 115.543 83.6156" stroke="#111B22" stroke-width="1.51875" stroke-linecap="round" stroke-linejoin="round"/>
<path d="M64.2344 64.9404H81.8086C82.4279 64.9406 82.9305 65.4429 82.9307 66.0635C82.9307 66.6842 82.428 67.1873 81.8086 67.1875H64.2344C63.615 67.1873 63.1123 66.6841 63.1123 66.0635C63.1125 65.4429 63.6151 64.9406 64.2344 64.9404Z" fill="#111B22" stroke="#111B22" stroke-width="1.81046"/>
<path d="M64.2344 73.7305H93.9746C94.5941 73.7305 95.0965 74.2329 95.0967 74.8535C95.0967 75.4743 94.5942 75.9775 93.9746 75.9775H64.2344C63.615 75.9773 63.1123 75.4742 63.1123 74.8535C63.1125 74.233 63.6151 73.7307 64.2344 73.7305Z" fill="#111B22" stroke="#111B22" stroke-width="1.81046"/>
<path d="M64.2344 85.2173H81.8086C82.4279 85.2174 82.9305 85.7198 82.9307 86.3403C82.9307 86.961 82.428 87.4642 81.8086 87.4644H64.2344C63.615 87.4642 63.1123 86.961 63.1123 86.3403C63.1125 85.7198 63.6151 85.2175 64.2344 85.2173Z" fill="#111B22" stroke="#111B22" stroke-width="1.81046"/>
<path d="M64.2344 94.0073H93.9746C94.5941 94.0073 95.0965 94.5097 95.0967 95.1304C95.0967 95.7511 94.5942 96.2544 93.9746 96.2544H64.2344C63.615 96.2542 63.1123 95.751 63.1123 95.1304C63.1125 94.5098 63.6151 94.0075 64.2344 94.0073Z" fill="#111B22" stroke="#111B22" stroke-width="1.81046"/>
<defs>
<filter id="filter0_d_54246_1044002" x="87.372" y="54.6484" width="61.9474" height="62.0495" filterUnits="userSpaceOnUse" color-interpolation-filters="sRGB">
<feFlood flood-opacity="0" result="BackgroundImageFix"/>
<feColorMatrix in="SourceAlpha" type="matrix" values="0 0 0 0 0 0 0 0 0 0 0 0 0 0 0 0 0 0 127 0" result="hardAlpha"/>
<feOffset dy="6.88042"/>
<feGaussianBlur stdDeviation="6.88042"/>
<feColorMatrix type="matrix" values="0 0 0 0 0.0705882 0 0 0 0 0.105882 0 0 0 0 0.129412 0 0 0 0.1 0"/>
<feBlend mode="normal" in2="BackgroundImageFix" result="effect1_dropShadow_54246_1044002"/>
<feBlend mode="normal" in="SourceGraphic" in2="effect1_dropShadow_54246_1044002" result="shape"/>
</filter>
</defs>
</svg>
