<svg width="196" height="121" viewBox="0 0 196 121" fill="none" xmlns="http://www.w3.org/2000/svg">
<g clip-path="url(#clip0_55358_764634)">
<path d="M60.7784 24.0776H131.844C135.516 24.0776 138.494 27.0545 138.494 30.7273V42.007H54.1289V30.7273C54.1291 27.0546 57.1059 24.0778 60.7784 24.0776Z" fill="#BFDBEE"/>
<path d="M60.7784 24.0776H131.844C135.516 24.0776 138.494 27.0545 138.494 30.7273V42.007H54.1289V30.7273C54.1291 27.0546 57.1059 24.0778 60.7784 24.0776Z" stroke="#111B22" stroke-width="1.55908"/>
<path d="M62.5817 31.1406H85.3869C86.6361 31.1406 87.6054 32.0878 87.6054 33.2044C87.6053 34.3209 86.6361 35.268 85.3869 35.268H62.5817C61.3326 35.268 60.3634 34.3209 60.3633 33.2044C60.3633 32.0878 61.3325 31.1406 62.5817 31.1406Z" fill="#CFE4F1" stroke="#111B22" stroke-width="0.825538"/>
<path d="M112.784 30.3149C114.379 30.3149 115.673 31.6081 115.673 33.2039C115.673 34.7997 114.379 36.0928 112.784 36.0928C111.188 36.0928 109.895 34.7997 109.895 33.2039C109.895 31.6081 111.188 30.3149 112.784 30.3149Z" fill="#CFE4F1" stroke="#111B22" stroke-width="0.825538"/>
<path d="M121.038 30.3149C122.633 30.3149 123.927 31.6081 123.927 33.2039C123.927 34.7997 122.633 36.0928 121.038 36.0928C119.442 36.0928 118.148 34.7997 118.148 33.2039C118.148 31.6081 119.442 30.3149 121.038 30.3149Z" fill="#CFE4F1" stroke="#111B22" stroke-width="0.825538"/>
<path d="M129.295 30.3149C130.891 30.3149 132.185 31.6081 132.185 33.2039C132.185 34.7997 130.891 36.0928 129.295 36.0928C127.7 36.0928 126.406 34.7997 126.406 33.2039C126.406 31.6081 127.7 30.3149 129.295 30.3149Z" fill="#CFE4F1" stroke="#111B22" stroke-width="0.825538"/>
<path d="M138.316 32.6518C138.316 32.6518 135.978 34.835 105.576 28.7542C88.8156 25.4019 63.8844 40.8204 59.193 41.6166C55.509 42.2419 54.9671 42.3658 54.9042 42.3902L54.9056 42.3962C54.9056 42.3962 54.887 42.3969 54.9042 42.3902L54.3392 40.0572C53.77 37.7068 53.8764 35.1476 54.0415 32.7349C54.1526 31.1112 54.3125 29.2907 55.0164 27.703C55.5487 26.5019 56.6559 25.6567 57.9075 25.2571C59.1534 24.8594 59.9815 24.8978 61.5743 24.5659C62.8502 24.3001 64.1063 24.0776 65.4095 24.0697C76.415 24.0034 125.697 23.5419 132.954 24.3575C133.428 24.4107 133.86 24.5698 134.28 24.7933C138.272 26.9134 137.945 28.5714 138.316 32.6518Z" fill="#0078CE" fill-opacity="0.2"/>
<path d="M60.8176 98.1336H131.708C135.38 98.1335 138.358 95.1566 138.358 91.484V49.0229H54.168V91.484C54.1682 95.1566 57.145 98.1334 60.8176 98.1336Z" fill="white" stroke="#111B22" stroke-width="1.55908"/>
<path d="M45.039 26.7466C44.7675 26.7116 44.577 26.4633 44.6135 26.192C44.6501 25.9206 44.8998 25.729 45.1714 25.764L49.9063 26.3733C50.1779 26.4083 50.3684 26.6565 50.3318 26.9279C50.2953 27.1992 50.0455 27.3909 49.774 27.3559L45.039 26.7466Z" stroke="#0078CE" stroke-width="0.991469"/>
<path d="M61.1341 15.013C61.1715 14.7356 61.4268 14.5397 61.7044 14.5755C61.982 14.6112 62.1767 14.865 62.1394 15.1424L61.5277 19.6841C61.4903 19.9615 61.235 20.1574 60.9574 20.1216C60.6798 20.0859 60.4851 19.8321 60.5224 19.5547L61.1341 15.013Z" stroke="#0078CE" stroke-width="1.01354"/>
<path d="M50.4025 17.0033L50.4025 17.0033C50.1804 17.1699 50.1393 17.4821 50.3107 17.7005L53.1838 21.3605C53.3553 21.5789 53.6743 21.6209 53.8965 21.4543L53.8965 21.4543C54.1186 21.2877 54.1597 20.9756 53.9882 20.7571L51.1151 17.0971C50.9437 16.8787 50.6246 16.8367 50.4025 17.0033Z" stroke="#0078CE" stroke-width="1.00552"/>
<path d="M65.8242 74.358V86.0511C65.8242 87.1275 66.6967 88 67.7731 88C68.8494 88 69.7219 87.1275 69.7219 86.0511V74.358C69.7219 73.2817 68.8494 72.4092 67.7731 72.4092C66.6967 72.4092 65.8242 73.2817 65.8242 74.358Z" fill="#ACD2EC" stroke="#111B22" stroke-width="1.55908"/>
<path d="M74.3945 63.4445V86.0511C74.3945 87.1275 75.2671 88 76.3434 88C77.4197 88 78.2922 87.1275 78.2922 86.0511V63.4445C78.2922 62.3682 77.4197 61.4956 76.3434 61.4956C75.2671 61.4956 74.3945 62.3682 74.3945 63.4445Z" fill="#ACD2EC" stroke="#111B22" stroke-width="1.55908"/>
<path d="M82.9688 77.4762V86.0511C82.9688 87.1275 83.8413 88 84.9176 88C85.9939 88 86.8665 87.1275 86.8665 86.0511V77.4762C86.8665 76.3999 85.9939 75.5273 84.9176 75.5273C83.8413 75.5273 82.9688 76.3999 82.9688 77.4762Z" fill="#ACD2EC" stroke="#111B22" stroke-width="1.55908"/>
<path d="M91.5469 69.6808V86.0511C91.5469 87.1275 92.4194 88 93.4957 88C94.572 88 95.4446 87.1275 95.4446 86.0511V69.6808C95.4446 68.6044 94.572 67.7319 93.4957 67.7319C92.4194 67.7319 91.5469 68.6044 91.5469 69.6808Z" fill="#ACD2EC" stroke="#111B22" stroke-width="1.55908"/>
<path d="M113.374 87.9995C119.402 87.9995 124.288 83.1133 124.288 77.0859C124.288 71.0585 119.402 66.1724 113.374 66.1724C107.347 66.1724 102.461 71.0585 102.461 77.0859C102.461 83.1133 107.347 87.9995 113.374 87.9995Z" fill="#ACD2EC" stroke="#111B22" stroke-width="1.55908"/>
<g filter="url(#filter0_d_55358_764634)">
<path d="M147.67 61.4951H119.133C118.272 61.4951 117.574 62.1931 117.574 63.0542V105.926C117.574 106.787 118.272 107.485 119.133 107.485H147.67C148.531 107.485 149.229 106.787 149.229 105.926V63.0542C149.229 62.1931 148.531 61.4951 147.67 61.4951Z" fill="#ACD2EC" stroke="#111B22" stroke-width="1.55908"/>
<path d="M141.716 66.9185H125.091C123.949 66.9185 123.023 67.844 123.023 68.9858V74.1542C123.023 75.2959 123.949 76.2215 125.091 76.2215H141.716C142.857 76.2215 143.783 75.2959 143.783 74.1542V68.9858C143.783 67.844 142.857 66.9185 141.716 66.9185Z" fill="white" stroke="#111B22" stroke-width="1.55908"/>
<path d="M125.108 81.3857H125.091C123.949 81.3857 123.023 82.3113 123.023 83.4531V83.4534C123.023 84.5951 123.949 85.5207 125.091 85.5207H125.108C126.25 85.5207 127.176 84.5951 127.176 83.4534V83.4531C127.176 82.3113 126.25 81.3857 125.108 81.3857Z" fill="white" stroke="#111B22" stroke-width="1.55908"/>
<path d="M125.108 89.6621H125.091C123.949 89.6621 123.023 90.5877 123.023 91.7295V91.7297C123.023 92.8715 123.949 93.7971 125.091 93.7971H125.108C126.25 93.7971 127.176 92.8715 127.176 91.7297V91.7295C127.176 90.5877 126.25 89.6621 125.108 89.6621Z" fill="white" stroke="#111B22" stroke-width="1.55908"/>
<path d="M125.108 97.9263H125.091C123.949 97.9263 123.023 98.8518 123.023 99.9936V99.9939C123.023 101.136 123.949 102.061 125.091 102.061H125.108C126.25 102.061 127.176 101.136 127.176 99.9939V99.9936C127.176 98.8518 126.25 97.9263 125.108 97.9263Z" fill="white" stroke="#111B22" stroke-width="1.55908"/>
<path d="M133.409 81.3857H133.392C132.25 81.3857 131.324 82.3113 131.324 83.4531V83.4534C131.324 84.5951 132.25 85.5207 133.392 85.5207H133.409C134.551 85.5207 135.476 84.5951 135.476 83.4534V83.4531C135.476 82.3113 134.551 81.3857 133.409 81.3857Z" fill="white" stroke="#111B22" stroke-width="1.55908"/>
<path d="M133.409 89.6621H133.392C132.25 89.6621 131.324 90.5877 131.324 91.7295V91.7297C131.324 92.8715 132.25 93.7971 133.392 93.7971H133.409C134.551 93.7971 135.476 92.8715 135.476 91.7297V91.7295C135.476 90.5877 134.551 89.6621 133.409 89.6621Z" fill="white" stroke="#111B22" stroke-width="1.55908"/>
<path d="M133.409 97.9263H133.392C132.25 97.9263 131.324 98.8518 131.324 99.9936V99.9939C131.324 101.136 132.25 102.061 133.392 102.061H133.409C134.551 102.061 135.476 101.136 135.476 99.9939V99.9936C135.476 98.8518 134.551 97.9263 133.409 97.9263Z" fill="white" stroke="#111B22" stroke-width="1.55908"/>
<path d="M141.718 81.3857H141.7C140.558 81.3857 139.633 82.3113 139.633 83.4531V83.4534C139.633 84.5951 140.558 85.5207 141.7 85.5207H141.718C142.859 85.5207 143.785 84.5951 143.785 83.4534V83.4531C143.785 82.3113 142.859 81.3857 141.718 81.3857Z" fill="white" stroke="#111B22" stroke-width="1.55908"/>
<path d="M141.718 89.6621H141.7C140.558 89.6621 139.633 90.5877 139.633 91.7295V91.7297C139.633 92.8715 140.558 93.7971 141.7 93.7971H141.718C142.859 93.7971 143.785 92.8715 143.785 91.7297V91.7295C143.785 90.5877 142.859 89.6621 141.718 89.6621Z" fill="white" stroke="#111B22" stroke-width="1.55908"/>
<path d="M141.718 97.9263H141.7C140.558 97.9263 139.633 98.8518 139.633 99.9936V99.9939C139.633 101.136 140.558 102.061 141.7 102.061H141.718C142.859 102.061 143.785 101.136 143.785 99.9939V99.9936C143.785 98.8518 142.859 97.9263 141.718 97.9263Z" fill="white" stroke="#111B22" stroke-width="1.55908"/>
</g>
</g>
<defs>
<filter id="filter0_d_55358_764634" x="104.32" y="54.479" width="58.1602" height="72.4946" filterUnits="userSpaceOnUse" color-interpolation-filters="sRGB">
<feFlood flood-opacity="0" result="BackgroundImageFix"/>
<feColorMatrix in="SourceAlpha" type="matrix" values="0 0 0 0 0 0 0 0 0 0 0 0 0 0 0 0 0 0 127 0" result="hardAlpha"/>
<feOffset dy="6.23633"/>
<feGaussianBlur stdDeviation="6.23633"/>
<feColorMatrix type="matrix" values="0 0 0 0 0.0705882 0 0 0 0 0.105882 0 0 0 0 0.129412 0 0 0 0.1 0"/>
<feBlend mode="normal" in2="BackgroundImageFix" result="effect1_dropShadow_55358_764634"/>
<feBlend mode="normal" in="SourceGraphic" in2="effect1_dropShadow_55358_764634" result="shape"/>
</filter>
<clipPath id="clip0_55358_764634">
<rect width="196" height="121" fill="white"/>
</clipPath>
</defs>
</svg>
