<svg width="196" height="121" viewBox="0 0 196 121" fill="none" xmlns="http://www.w3.org/2000/svg">
<g clip-path="url(#clip0_55358_764743)">
<path d="M62.0289 32.7264C62.0288 32.411 61.7731 32.1565 61.4577 32.158C61.1424 32.1595 60.8868 32.4163 60.8869 32.7317L60.8882 38.1904C60.8883 38.5058 61.144 38.7603 61.4594 38.7588C61.7747 38.7573 62.0303 38.5005 62.0302 38.1851L62.0289 32.7264Z" fill="#999999" stroke="#0078CE" stroke-width="1.14208"/>
<path d="M46.2679 49.2895C45.9472 49.291 45.6873 49.5522 45.6874 49.8729C45.6874 50.1936 45.9475 50.4524 46.2682 50.4509L51.5591 50.4263C51.8798 50.4248 52.1398 50.1636 52.1397 49.8429C52.1396 49.5222 51.8795 49.2634 51.5588 49.2649L46.2679 49.2895Z" fill="#999999" stroke="#0078CE" stroke-width="1.16142"/>
<path d="M50.1185 37.3878L50.1185 37.3878C49.8956 37.6156 49.8965 37.9841 50.1206 38.2109L53.8829 42.0185C54.1069 42.2452 54.4693 42.2444 54.6923 42.0166L54.6923 42.0166C54.9152 41.7887 54.9143 41.4202 54.6902 41.1935L50.9279 37.3859C50.7039 37.1591 50.3415 37.16 50.1185 37.3878Z" fill="#999999" stroke="#0078CE" stroke-width="1.15439"/>
<path d="M137.927 60.3954V80.7337C137.927 92.9366 129.776 101.072 117.55 101.072H76.7981C64.5724 101.072 56.4219 92.9366 56.4219 80.7337V60.3954C56.4219 49.3314 63.1052 41.6028 73.4972 40.3012C74.5568 40.1384 75.6571 40.0571 76.7981 40.0571H117.55C118.61 40.0571 119.629 40.0977 120.607 40.2605C131.121 41.4808 137.927 49.25 137.927 60.3954Z" fill="white"/>
<path fill-rule="evenodd" clip-rule="evenodd" d="M76.7898 41.3982C75.7124 41.3982 74.6802 41.475 73.6921 41.6268L73.6552 41.6319C68.758 42.2453 64.8052 44.3589 62.0727 47.5589C59.3375 50.762 57.7527 55.1388 57.7527 60.3972V80.7354C57.7527 86.5318 59.6826 91.2584 62.9631 94.5328C66.2438 97.8074 70.9804 99.7344 76.7898 99.7344H117.542C123.352 99.7344 128.088 97.8074 131.369 94.5328C134.649 91.2584 136.579 86.5318 136.579 80.7354V60.3972C136.579 55.1015 134.966 50.6966 132.188 47.4837C129.413 44.2737 125.402 42.168 120.445 41.5927C120.422 41.5901 120.4 41.587 120.378 41.5834C119.507 41.4385 118.575 41.3982 117.542 41.3982H76.7898ZM73.3039 38.9765C74.4291 38.8047 75.5915 38.7197 76.7898 38.7197H117.542C118.618 38.7197 119.711 38.7598 120.785 38.9358C126.328 39.5862 130.965 41.9734 134.214 45.7319C137.468 49.4952 139.258 54.5476 139.258 60.3972V80.7354C139.258 87.142 137.112 92.5846 133.261 96.4286C129.41 100.272 123.958 102.413 117.542 102.413H76.7898C70.3732 102.413 64.9218 100.272 61.0709 96.4286C57.2196 92.5846 55.0742 87.142 55.0742 80.7354V60.3972C55.0742 54.5916 56.8313 49.5721 60.0358 45.8196C63.2392 42.068 67.8174 39.6677 73.3039 38.9765Z" fill="#17222B"/>
<path d="M120.613 40.2599C119.635 40.0972 118.616 40.0565 117.557 40.0565H112.792H76.8048C75.6638 40.0565 74.5634 40.1379 73.5039 40.3006C74.0744 39.1617 74.8895 38.104 75.8675 37.1278L88.1343 21.5867L91.255 17.6331C93.9786 14.1824 99.0927 13.8545 102.235 16.929L104.983 19.6185L109.325 23.8672L114.63 29.222L116.457 31.067C119.065 33.6296 120.45 36.8837 120.613 40.2599Z" fill="white"/>
<path fill-rule="evenodd" clip-rule="evenodd" d="M101.294 17.8837C98.7204 15.3658 94.5323 15.6345 92.3018 18.4603L90.2723 21.0315C92.893 22.0602 94.8746 22.4434 96.7192 22.2412C98.6042 22.0347 100.507 21.1986 102.923 19.4783L101.294 17.8837ZM104.865 21.3792C102.092 23.4118 99.6448 24.6151 97.011 24.9038C94.3577 25.1945 91.6944 24.5364 88.544 23.2211L76.9142 37.955C76.8816 37.9964 76.8465 38.0359 76.8092 38.0731C76.5949 38.287 76.391 38.5033 76.198 38.7219C76.3978 38.7172 76.5985 38.7147 76.8004 38.7147H110.745C110.251 37.3062 110.077 35.9576 110.325 34.5418C110.624 32.8378 111.515 31.1898 112.859 29.3398L108.376 24.8145L104.865 21.3792ZM114.772 31.2709C113.695 32.8069 113.147 33.9597 112.963 35.0053C112.774 36.0823 112.948 37.1969 113.629 38.7147H117.552C118.065 38.7147 118.58 38.7238 119.096 38.7523C118.659 36.2794 117.469 33.9406 115.514 32.0198L115.501 32.007L114.772 31.2709ZM90.1993 16.8008C93.416 12.7255 99.456 12.3381 103.167 15.9693L110.272 22.9221L117.397 30.1157C120.245 32.9166 121.768 36.4873 121.947 40.1927C121.966 40.5972 121.802 40.9887 121.499 41.2579C121.197 41.527 120.789 41.6449 120.389 41.5784C119.519 41.4335 118.585 41.3932 117.552 41.3932H76.8004C75.723 41.3932 74.6908 41.4701 73.7027 41.6217C73.2077 41.6978 72.7115 41.4912 72.4168 41.0864C72.1219 40.6815 72.0777 40.146 72.302 39.6982C72.9398 38.4249 73.8299 37.272 74.86 36.2345L90.1993 16.8008Z" fill="#17222B"/>
<path d="M96.7594 34.6606C97.6631 34.6606 98.5588 34.8391 99.3937 35.1842C100.228 35.5294 100.987 36.035 101.625 36.6724C102.264 37.3098 102.77 38.0666 103.116 38.8991C103.289 39.3153 103.42 39.7468 103.507 40.1865H90.0117C90.0993 39.7468 90.2304 39.3153 90.4032 38.8991C90.7487 38.0665 91.2557 37.3099 91.8943 36.6724C92.533 36.035 93.2913 35.5294 94.1261 35.1842C94.9609 34.8391 95.8557 34.6606 96.7594 34.6606Z" stroke="#17222B" stroke-width="2.67853"/>
<path d="M137.923 62.4263H125.697C121.215 62.4263 117.547 66.0871 117.547 70.5615C117.547 75.0359 121.215 78.6969 125.697 78.6969H137.923" stroke="#17222B" stroke-width="2.67853" stroke-linecap="round" stroke-linejoin="round"/>
<g filter="url(#filter0_d_55358_764743)">
<path d="M67.566 106.208C78.6935 106.208 87.7141 97.1466 87.7141 85.9688C87.7141 74.7909 78.6935 65.7295 67.566 65.7295C56.4386 65.7295 47.418 74.7909 47.418 85.9688C47.418 97.1466 56.4386 106.208 67.566 106.208Z" fill="#BDD9EB" stroke="#0078CE" stroke-width="2.67853"/>
<path d="M67.6705 76.5898C68.0699 76.5898 68.403 76.7262 68.6694 76.9994C68.9356 77.2726 69.0688 77.6146 69.0689 78.0245V79.0607C69.3998 79.1046 69.7467 79.1744 70.108 79.2756C70.6938 79.4259 71.2062 79.6379 71.6456 79.9112C71.9518 80.0751 72.1654 80.3003 72.2853 80.5872C72.4184 80.8742 72.4645 81.1683 72.4245 81.4689C72.398 81.7559 72.292 82.0156 72.1057 82.2478C71.9326 82.4802 71.6926 82.638 71.3863 82.7201C71.0933 82.7884 70.7399 82.7333 70.3269 82.5556C70.0208 82.419 69.6748 82.3096 69.2888 82.2277C68.9159 82.132 68.4361 82.0844 67.8501 82.0844C67.1442 82.0844 66.5978 82.2141 66.2116 82.4739C65.8389 82.7335 65.6526 83.0689 65.6526 83.4787C65.6527 83.7519 65.7595 83.9837 65.9724 84.1749C66.1989 84.3525 66.6052 84.5104 67.1912 84.6471L69.4684 85.1596C70.7335 85.4466 71.6658 85.9247 72.2651 86.5943C72.8777 87.2503 73.1842 88.1047 73.1843 89.1569C73.1843 89.9769 72.9913 90.7016 72.6051 91.3302C72.2189 91.9588 71.6792 92.4715 70.9868 92.8678C70.4251 93.1956 69.7854 93.4281 69.0689 93.569V94.6929C69.0688 95.1029 68.9356 95.4447 68.6694 95.718C68.4163 95.9913 68.0833 96.1276 67.6705 96.1276C67.2844 96.1276 66.9582 95.9912 66.6918 95.718C66.4255 95.4447 66.2923 95.1029 66.2923 94.6929V93.687C65.6487 93.6288 65.0759 93.5274 64.5741 93.3803C63.9216 93.189 63.3888 92.9975 62.9759 92.8063C62.6296 92.6422 62.3829 92.4098 62.2364 92.109C62.1033 91.8085 62.0503 91.5011 62.077 91.187C62.117 90.8728 62.2297 90.5859 62.416 90.3264C62.6025 90.0667 62.8425 89.8958 63.1353 89.8138C63.4416 89.7181 63.7944 89.7584 64.1937 89.9358C64.4601 90.0863 64.8606 90.244 65.3934 90.4081C65.9392 90.5583 66.6114 90.633 67.4102 90.633C67.9693 90.633 68.4092 90.5789 68.7289 90.4695C69.0617 90.3602 69.2948 90.2164 69.428 90.0387C69.5745 89.8474 69.6479 89.642 69.6479 89.4233C69.6479 89.2185 69.5951 89.0473 69.4885 88.9107C69.3953 88.7606 69.2355 88.6307 69.0094 88.5214C68.7829 88.3983 68.4695 88.2891 68.07 88.1934L65.812 87.7021C64.5736 87.4151 63.6481 86.9361 63.0354 86.2664C62.4362 85.5831 62.1365 84.7016 62.1365 83.622C62.1365 82.8021 62.3296 82.0709 62.7157 81.4287C63.1152 80.7726 63.6684 80.2395 64.3743 79.8295C64.9396 79.5072 65.5789 79.2789 66.2923 79.1424V78.0245C66.2924 77.6146 66.4256 77.2726 66.6918 76.9994C66.9581 76.7263 67.2844 76.5898 67.6705 76.5898Z" fill="#0078CE"/>
<path d="M67.6705 76.5898C68.0699 76.5898 68.403 76.7262 68.6694 76.9994C68.9356 77.2726 69.0688 77.6146 69.0689 78.0245V79.0607C69.3998 79.1046 69.7467 79.1744 70.108 79.2756C70.6938 79.4259 71.2062 79.6379 71.6456 79.9112C71.9518 80.0751 72.1654 80.3003 72.2853 80.5872C72.4184 80.8742 72.4645 81.1683 72.4245 81.4689C72.398 81.7559 72.292 82.0156 72.1057 82.2478C71.9326 82.4802 71.6926 82.638 71.3863 82.7201C71.0933 82.7884 70.7399 82.7333 70.3269 82.5556C70.0208 82.419 69.6748 82.3096 69.2888 82.2277C68.9159 82.132 68.4361 82.0844 67.8501 82.0844C67.1442 82.0844 66.5978 82.2141 66.2116 82.4739C65.8389 82.7335 65.6526 83.0689 65.6526 83.4787C65.6527 83.7519 65.7595 83.9837 65.9724 84.1749C66.1989 84.3525 66.6052 84.5104 67.1912 84.6471L69.4684 85.1596C70.7335 85.4466 71.6658 85.9247 72.2651 86.5943C72.8777 87.2503 73.1842 88.1047 73.1843 89.1569C73.1843 89.9769 72.9913 90.7016 72.6051 91.3302C72.2189 91.9588 71.6792 92.4715 70.9868 92.8678C70.4251 93.1956 69.7854 93.4281 69.0689 93.569V94.6929C69.0688 95.1029 68.9356 95.4447 68.6694 95.718C68.4163 95.9913 68.0833 96.1276 67.6705 96.1276C67.2844 96.1276 66.9582 95.9912 66.6918 95.718C66.4255 95.4447 66.2923 95.1029 66.2923 94.6929V93.687C65.6487 93.6288 65.0759 93.5274 64.5741 93.3803C63.9216 93.189 63.3888 92.9975 62.9759 92.8063C62.6296 92.6422 62.3829 92.4098 62.2364 92.109C62.1033 91.8085 62.0503 91.5011 62.077 91.187C62.117 90.8728 62.2297 90.5859 62.416 90.3264C62.6025 90.0667 62.8425 89.8958 63.1353 89.8138C63.4416 89.7181 63.7944 89.7584 64.1937 89.9358C64.4601 90.0863 64.8606 90.244 65.3934 90.4081C65.9392 90.5583 66.6114 90.633 67.4102 90.633C67.9693 90.633 68.4092 90.5789 68.7289 90.4695C69.0617 90.3602 69.2948 90.2164 69.428 90.0387C69.5745 89.8474 69.6479 89.642 69.6479 89.4233C69.6479 89.2185 69.5951 89.0473 69.4885 88.9107C69.3953 88.7606 69.2355 88.6307 69.0094 88.5214C68.7829 88.3983 68.4695 88.2891 68.07 88.1934L65.812 87.7021C64.5736 87.4151 63.6481 86.9361 63.0354 86.2664C62.4362 85.5831 62.1365 84.7016 62.1365 83.622C62.1365 82.8021 62.3296 82.0709 62.7157 81.4287C63.1152 80.7726 63.6684 80.2395 64.3743 79.8295C64.9396 79.5072 65.5789 79.2789 66.2923 79.1424V78.0245C66.2924 77.6146 66.4256 77.2726 66.6918 76.9994C66.9581 76.7263 67.2844 76.5898 67.6705 76.5898Z" stroke="#0078CE" stroke-width="1.03314"/>
</g>
<path d="M55.5528 80.6109C49.4327 75.0444 55.8892 69.4868 55.8892 69.4868C51.5085 71.6834 49.7407 73.8411 47.8508 78.3785C47.6659 78.8222 47.5341 79.2886 47.458 79.7631C46.9637 82.8403 46.8831 85.0087 47.0668 87.9357C47.1599 89.4178 47.5497 90.8677 48.1927 92.2064C49.1485 94.1963 50.0058 95.7981 51.2532 97.8986C51.7895 98.8017 52.4721 99.614 53.2962 100.265C55.608 102.091 57.5858 103.218 59.2986 103.962C60.1922 104.35 61.16 104.524 62.1333 104.569L65.6019 104.732C65.6019 104.732 61.7481 103.065 66.5876 98.9344C71.427 94.8033 61.673 86.1775 55.5528 80.6109Z" fill="#0078CE" fill-opacity="0.2"/>
</g>
<defs>
<filter id="filter0_d_55358_764743" x="31.7843" y="57.2432" width="71.5643" height="71.745" filterUnits="userSpaceOnUse" color-interpolation-filters="sRGB">
<feFlood flood-opacity="0" result="BackgroundImageFix"/>
<feColorMatrix in="SourceAlpha" type="matrix" values="0 0 0 0 0 0 0 0 0 0 0 0 0 0 0 0 0 0 127 0" result="hardAlpha"/>
<feOffset dy="7.14693"/>
<feGaussianBlur stdDeviation="7.14693"/>
<feColorMatrix type="matrix" values="0 0 0 0 0.0705882 0 0 0 0 0.105882 0 0 0 0 0.129412 0 0 0 0.1 0"/>
<feBlend mode="normal" in2="BackgroundImageFix" result="effect1_dropShadow_55358_764743"/>
<feBlend mode="normal" in="SourceGraphic" in2="effect1_dropShadow_55358_764743" result="shape"/>
</filter>
<clipPath id="clip0_55358_764743">
<rect width="196" height="121" fill="white"/>
</clipPath>
</defs>
</svg>
