<svg width="196" height="121" viewBox="0 0 196 121" fill="none" xmlns="http://www.w3.org/2000/svg">
<rect x="0.510332" y="0.665101" width="1.18815" height="6.86156" rx="0.594075" transform="matrix(-0.132687 0.991158 0.991723 0.1284 53.8911 27.1344)" fill="#999999" stroke="#0078CE" stroke-width="1.18815"/>
<rect x="-0.678836" y="0.52087" width="1.20746" height="6.71355" rx="0.603728" transform="matrix(-0.991722 -0.128402 -0.132684 0.991158 74.7444 13.8603)" fill="#999999" stroke="#0078CE" stroke-width="1.20746"/>
<rect x="-0.109882" y="0.834752" width="1.20043" height="6.76793" rx="0.600213" transform="matrix(-0.798229 0.602355 0.615156 0.788405 61.1717 16.3458)" fill="#999999" stroke="#0078CE" stroke-width="1.20043"/>
<path d="M74.4219 26.1357C70.3906 26.1359 67.1231 29.4042 67.1231 33.4355V98.1631C67.1231 102.194 70.3906 105.463 74.4219 105.463H117.317C121.349 105.463 124.617 102.194 124.617 98.1631L124.617 33.4346C124.617 29.4034 121.349 26.1357 117.317 26.1357L74.4219 26.1357Z" fill="white" stroke="#111B22" stroke-width="2.30512"/>
<rect x="-0.467141" y="0.467141" width="43.524" height="0.934283" rx="0.467141" transform="matrix(-1 0 0 1 116.445 32.8936)" fill="#DCDCDC" stroke="#111B22" stroke-width="0.934283"/>
<rect x="-0.467141" y="0.467141" width="43.524" height="0.934283" rx="0.467141" transform="matrix(-1 0 0 1 116.445 41.3022)" fill="#DCDCDC" stroke="#111B22" stroke-width="0.934283"/>
<rect x="-0.467141" y="0.467141" width="43.524" height="0.934283" rx="0.467141" transform="matrix(-1 0 0 1 116.445 50.6455)" fill="#DCDCDC" stroke="#111B22" stroke-width="0.934283"/>
<rect x="-0.467141" y="0.467141" width="43.524" height="0.934283" rx="0.467141" transform="matrix(-1 0 0 1 116.445 57.1855)" fill="#DCDCDC" stroke="#111B22" stroke-width="0.934283"/>
<rect x="-0.233571" y="0.233571" width="23.7769" height="0.467141" rx="0.233571" transform="matrix(-1 0 0 1 106.963 64.6597)" fill="#EEEEEE" stroke="#111B22" stroke-width="0.467141"/>
<rect x="-0.233571" y="0.233571" width="23.7769" height="0.467141" rx="0.233571" transform="matrix(-1 0 0 1 106.963 71.1997)" fill="#EEEEEE" stroke="#111B22" stroke-width="0.467141"/>
<rect x="-0.233571" y="0.233571" width="23.7769" height="0.467141" rx="0.233571" transform="matrix(-1 0 0 1 106.963 77.7397)" fill="#EEEEEE" stroke="#111B22" stroke-width="0.467141"/>
<rect x="-0.233571" y="0.233571" width="23.7769" height="0.467141" rx="0.233571" transform="matrix(-1 0 0 1 106.963 86.1479)" fill="#EEEEEE" stroke="#111B22" stroke-width="0.467141"/>
<rect x="112.094" y="93.4487" width="33.344" height="10.5899" rx="4.56088" fill="#F6F6F6" stroke="#111B22" stroke-width="1.64115"/>
<rect x="118.156" y="60.9224" width="33.344" height="10.5899" rx="4.56088" fill="white" stroke="#111B22" stroke-width="1.64115"/>
<rect x="112.094" y="71.5127" width="33.344" height="10.5899" rx="4.56088" fill="white" stroke="#111B22" stroke-width="1.64115"/>
<rect x="116.641" y="82.103" width="33.344" height="10.5899" rx="4.56088" fill="white" stroke="#111B22" stroke-width="1.64115"/>
<g filter="url(#filter0_d_54217_1043907)">
<ellipse cx="67.9276" cy="89.494" rx="16.4393" ry="16.4261" fill="#BED9EC" stroke="#0078CE" stroke-width="1.51606"/>
<path d="M68.007 97.7388C67.6919 97.7388 67.4256 97.6278 67.2083 97.406C66.991 97.1841 66.8823 96.9068 66.8823 96.574V95.3427L67.3713 95.792C66.6432 95.7587 66.0129 95.6644 65.4805 95.5091C64.948 95.3538 64.5133 95.1985 64.1764 95.0432C63.8939 94.9101 63.6929 94.7216 63.5733 94.4775C63.4647 94.2335 63.4212 93.9839 63.4429 93.7288C63.4755 93.4736 63.5679 93.2407 63.72 93.0299C63.8722 92.8192 64.0678 92.6805 64.3068 92.614C64.5568 92.5363 64.8448 92.5696 65.1708 92.7138C65.3881 92.8358 65.7141 92.9634 66.1488 93.0965C66.5943 93.2185 67.1431 93.2795 67.7951 93.2795C68.2515 93.2795 68.6101 93.2351 68.8709 93.1464C69.1426 93.0577 69.3328 92.9412 69.4414 92.797C69.561 92.6417 69.6207 92.4753 69.6207 92.2978C69.6207 92.1314 69.5773 91.9928 69.4903 91.8818C69.4143 91.7598 69.2839 91.6544 69.0991 91.5657C68.9144 91.4659 68.659 91.3771 68.333 91.2995L66.4911 90.9001C65.4805 90.6672 64.7252 90.279 64.2253 89.7354C63.7363 89.1808 63.4918 88.4653 63.4918 87.589C63.4918 86.9234 63.6494 86.33 63.9645 85.8086C64.2905 85.2762 64.7415 84.8436 65.3175 84.5108C65.9043 84.178 66.5889 83.9673 67.3713 83.8785L66.8823 84.1614V83.0466C66.8823 82.7138 66.991 82.4365 67.2083 82.2146C67.4256 81.9928 67.6919 81.8818 68.007 81.8818C68.333 81.8818 68.6047 81.9928 68.822 82.2146C69.0393 82.4365 69.148 82.7138 69.148 83.0466V84.1614L68.659 83.8452C69.0719 83.8563 69.5175 83.9284 69.9956 84.0615C70.4738 84.1836 70.8921 84.3555 71.2507 84.5773C71.5007 84.7105 71.6746 84.8935 71.7724 85.1264C71.881 85.3594 71.9191 85.5979 71.8865 85.8419C71.8647 86.0749 71.7778 86.2856 71.6256 86.4742C71.4844 86.6628 71.2888 86.7903 71.0388 86.8569C70.7998 86.9123 70.5118 86.868 70.1749 86.7238C69.925 86.6128 69.6425 86.5241 69.3273 86.4575C69.023 86.3799 68.6318 86.3411 68.1537 86.3411C67.5778 86.3411 67.1322 86.4465 66.8171 86.6572C66.5128 86.868 66.3607 87.1397 66.3607 87.4725C66.3607 87.6944 66.4476 87.883 66.6215 88.0382C66.8062 88.1825 67.1377 88.31 67.6158 88.4209L69.474 88.8369C70.5064 89.0699 71.267 89.4581 71.7561 90.0016C72.2559 90.5341 72.5059 91.2274 72.5059 92.0815C72.5059 92.7471 72.3483 93.335 72.0332 93.8452C71.718 94.3555 71.2779 94.7715 70.7128 95.0932C70.1586 95.4148 69.5121 95.6256 68.7731 95.7254L69.148 95.3261V96.574C69.148 96.9068 69.0393 97.1841 68.822 97.406C68.6155 97.6278 68.3439 97.7388 68.007 97.7388Z" fill="#0078CE"/>
</g>
<path d="M60.085 76.1827C60.085 76.1827 55.826 86.1424 61.8994 89.0191C67.9729 91.8958 71.1578 101.343 67.387 103.639C66.045 104.455 65.6886 104.844 65.7861 105.006L67.6266 104.848C67.6266 104.848 65.9627 105.298 65.7861 105.006L64.4573 105.12C62.8847 105.255 61.2906 105.066 59.941 104.249C59.0302 103.697 58.0189 103.004 57.0411 102.275C55.9401 101.454 55.049 100.388 54.4196 99.1671C53.8084 97.9811 53.1377 96.6018 52.5467 95.3292C51.6561 93.4111 51.256 91.2997 51.368 89.1872C51.4962 86.771 51.8209 83.8973 52.8444 82.1851C53.2652 81.4811 53.8465 80.878 54.3234 80.2108C55.8184 78.1194 57.0951 77.2583 60.085 76.1827Z" fill="#0078CE" fill-opacity="0.2"/>
<defs>
<filter id="filter0_d_54217_1043907" x="42.6448" y="68.2672" width="50.5658" height="50.5395" filterUnits="userSpaceOnUse" color-interpolation-filters="sRGB">
<feFlood flood-opacity="0" result="BackgroundImageFix"/>
<feColorMatrix in="SourceAlpha" type="matrix" values="0 0 0 0 0 0 0 0 0 0 0 0 0 0 0 0 0 0 127 0" result="hardAlpha"/>
<feOffset dy="4.04283"/>
<feGaussianBlur stdDeviation="4.04283"/>
<feColorMatrix type="matrix" values="0 0 0 0 0.0705882 0 0 0 0 0.105882 0 0 0 0 0.129412 0 0 0 0.1 0"/>
<feBlend mode="normal" in2="BackgroundImageFix" result="effect1_dropShadow_54217_1043907"/>
<feBlend mode="normal" in="SourceGraphic" in2="effect1_dropShadow_54217_1043907" result="shape"/>
</filter>
</defs>
</svg>
