<svg width="196" height="121" viewBox="0 0 196 121" fill="none" xmlns="http://www.w3.org/2000/svg">
<path d="M148.743 37.1085L119.216 25.4468C118.481 25.1566 117.616 25.2859 116.81 25.8061C116.004 26.3263 115.324 27.1949 114.918 28.2207L95.5451 77.2737C95.14 78.2995 95.0433 79.3986 95.2762 80.3292C95.5092 81.2597 96.0528 81.9454 96.7874 82.2356L130.099 95.3916C130.833 95.6818 131.699 95.5525 132.505 95.0323C133.311 94.5121 133.991 93.6435 134.396 92.6177L151.646 48.9411L148.743 37.1085Z" fill="white"/>
<path fill-rule="evenodd" clip-rule="evenodd" d="M149.433 36.9388C149.378 36.7144 149.217 36.5307 149.002 36.4458L119.475 24.7841C118.48 24.391 117.373 24.5929 116.421 25.2076C115.472 25.8202 114.704 26.8163 114.253 27.9591L94.8798 77.0121C94.4285 78.1548 94.3081 79.4065 94.5824 80.5023C94.8577 81.6018 95.5277 82.5053 96.5231 82.8984L129.834 96.0545C130.83 96.4476 131.936 96.2457 132.888 95.6311C133.837 95.0185 134.605 94.0223 135.056 92.8795L152.306 49.203C152.36 49.0656 152.37 48.9149 152.335 48.7715L149.433 36.9388ZM148.136 37.636L150.897 48.8906L133.731 92.356C133.372 93.265 132.778 94.0059 132.116 94.4337C131.456 94.8595 130.832 94.9162 130.358 94.729L97.0466 81.573C96.5727 81.3858 96.1555 80.9178 95.9648 80.1562C95.7732 79.3909 95.8463 78.4445 96.2053 77.5356L115.578 28.4826C115.937 27.5737 116.531 26.8327 117.194 26.4049C117.853 25.9791 118.478 25.9225 118.952 26.1096L148.136 37.636Z" fill="#111B22"/>
<path d="M151.646 48.9411L146.278 46.821C145.964 46.6946 145.732 46.3994 145.633 45.9999C145.534 45.6005 145.575 45.1293 145.749 44.6896L148.743 37.1085L151.646 48.9411Z" fill="white" stroke="#111B22" stroke-width="1.4251" stroke-linecap="round" stroke-linejoin="round"/>
<rect x="-0.730631" y="0.320865" width="18.0729" height="1.12852" rx="0.564259" transform="matrix(-0.93175 -0.363101 -0.363101 0.93175 143.432 50.6013)" fill="#DCDCDC" stroke="#111B22" stroke-width="1.12852"/>
<rect x="-0.730631" y="0.320865" width="31.5985" height="1.12852" rx="0.564259" transform="matrix(-0.93175 -0.363101 -0.363101 0.93175 138.189 63.7302)" fill="#DCDCDC" stroke="#111B22" stroke-width="1.12852"/>
<rect x="-0.730631" y="0.320865" width="29.7808" height="1.12852" rx="0.564259" transform="matrix(-0.93175 -0.363101 -0.363101 0.93175 134.096 74.2454)" fill="#DCDCDC" stroke="#111B22" stroke-width="1.12852"/>
<rect x="-0.730631" y="0.320865" width="25.6588" height="1.12852" rx="0.564259" transform="matrix(-0.93175 -0.363101 -0.363101 0.93175 129.826 85.0647)" fill="#DCDCDC" stroke="#111B22" stroke-width="1.12852"/>
<rect x="-0.730631" y="0.320865" width="10.7209" height="1.12852" rx="0.564259" transform="matrix(-0.93175 -0.363101 -0.363101 0.93175 141.795 54.8074)" fill="#EEEEEE" stroke="#111B22" stroke-width="1.12852"/>
<rect x="-0.730631" y="0.320865" width="10.7209" height="1.12852" rx="0.564259" transform="matrix(-0.93175 -0.363101 -0.363101 0.93175 136.557 67.9353)" fill="#EEEEEE" stroke="#111B22" stroke-width="1.12852"/>
<rect x="-0.730631" y="0.320865" width="10.7209" height="1.12852" rx="0.564259" transform="matrix(-0.93175 -0.363101 -0.363101 0.93175 132.451 78.4509)" fill="#EEEEEE" stroke="#111B22" stroke-width="1.12852"/>
<rect x="-0.730631" y="0.320865" width="10.7209" height="1.12852" rx="0.564259" transform="matrix(-0.93175 -0.363101 -0.363101 0.93175 128.182 89.2708)" fill="#EEEEEE" stroke="#111B22" stroke-width="1.12852"/>
<path d="M52.288 38.7535L81.8154 27.0918C82.55 26.8017 83.4155 26.9309 84.2214 27.4511C85.0274 27.9713 85.7077 28.8399 86.1129 29.8657L105.486 78.9187C105.891 79.9446 105.988 81.0436 105.755 81.9742C105.522 82.9047 104.978 83.5905 104.244 83.8806L70.9327 97.0366C70.1981 97.3268 69.3326 97.1975 68.5267 96.6773C67.7207 96.1571 67.0404 95.2885 66.6352 94.2627L49.3854 50.5861L52.288 38.7535Z" fill="white"/>
<path fill-rule="evenodd" clip-rule="evenodd" d="M51.5986 38.5838C51.6536 38.3595 51.814 38.1757 52.0289 38.0908L81.5562 26.4292C82.5516 26.0361 83.6582 26.2379 84.6105 26.8526C85.5595 27.4652 86.3269 28.4614 86.7782 29.6041L106.151 78.6571C106.603 79.7998 106.723 81.0516 106.449 82.1473C106.174 83.2468 105.504 84.1503 104.508 84.5435L71.1971 97.6995C70.2017 98.0926 69.0951 97.8908 68.1429 97.2761C67.1938 96.6635 66.4264 95.6673 65.9751 94.5245L48.7252 50.848C48.671 50.7107 48.6608 50.5599 48.6959 50.4165L51.5986 38.5838ZM52.8949 39.281L50.1341 50.5356L67.3006 94.0011C67.6595 94.91 68.2529 95.6509 68.9157 96.0788C69.5754 96.5045 70.1997 96.5612 70.6736 96.374L103.985 83.218C104.459 83.0308 104.876 82.5628 105.066 81.8012C105.258 81.0359 105.185 80.0895 104.826 79.1806L85.4528 30.1276C85.0938 29.2187 84.5004 28.4777 83.8376 28.0499C83.178 27.6241 82.5536 27.5675 82.0797 27.7546L52.8949 39.281Z" fill="#111B22"/>
<path d="M49.3854 50.5861L54.7535 48.466C55.0676 48.3396 55.2996 48.0444 55.3986 47.6449C55.4977 47.2455 55.4558 46.7744 55.2821 46.3346L52.288 38.7535L49.3854 50.5861Z" fill="white" stroke="#111B22" stroke-width="1.4251" stroke-linecap="round" stroke-linejoin="round"/>
<rect x="57.0275" y="52.8106" width="18.0729" height="1.12852" rx="0.564259" transform="rotate(-21.2907 57.0275 52.8106)" fill="#DCDCDC" stroke="#111B22" stroke-width="1.12852"/>
<rect x="62.2697" y="65.939" width="31.5985" height="1.12852" rx="0.564259" transform="rotate(-21.2907 62.2697 65.939)" fill="#DCDCDC" stroke="#111B22" stroke-width="1.12852"/>
<rect x="66.3673" y="76.4551" width="29.7808" height="1.12852" rx="0.564259" transform="rotate(-21.2907 66.3673 76.4551)" fill="#DCDCDC" stroke="#111B22" stroke-width="1.12852"/>
<rect x="70.6369" y="87.2735" width="25.6588" height="1.12852" rx="0.564259" transform="rotate(-21.2907 70.6369 87.2735)" fill="#DCDCDC" stroke="#111B22" stroke-width="1.12852"/>
<rect x="58.6681" y="57.0167" width="10.7209" height="1.12852" rx="0.564259" transform="rotate(-21.2907 58.6681 57.0167)" fill="#EEEEEE" stroke="#111B22" stroke-width="1.12852"/>
<rect x="63.9103" y="70.1451" width="10.7209" height="1.12852" rx="0.564259" transform="rotate(-21.2907 63.9103 70.1451)" fill="#EEEEEE" stroke="#111B22" stroke-width="1.12852"/>
<rect x="68.008" y="80.6592" width="10.7209" height="1.12852" rx="0.564259" transform="rotate(-21.2907 68.008 80.6592)" fill="#EEEEEE" stroke="#111B22" stroke-width="1.12852"/>
<rect x="72.2814" y="91.48" width="10.7209" height="1.12852" rx="0.564259" transform="rotate(-21.2907 72.2814 91.48)" fill="#EEEEEE" stroke="#111B22" stroke-width="1.12852"/>
<path d="M78.3565 15.9961H124.93C126.089 15.9961 127.2 16.5988 128.019 17.6715C128.839 18.7443 129.299 20.1993 129.299 21.7164V94.2608C129.299 95.7779 128.839 97.2329 128.019 98.3057C127.2 99.3784 126.089 99.9811 124.93 99.9811H72.3885C71.2298 99.9811 70.1185 99.3784 69.2992 98.3057C68.4798 97.2329 68.0195 95.7779 68.0195 94.2608V29.6675L78.3565 15.9961Z" fill="white"/>
<path fill-rule="evenodd" clip-rule="evenodd" d="M77.6147 15.4359C77.7902 15.2038 78.0644 15.0674 78.3553 15.0674H124.929C126.427 15.0674 127.794 15.8479 128.756 17.1077C129.714 18.3622 130.226 20.0219 130.226 21.7161V94.2606C130.226 95.9548 129.714 97.6145 128.756 98.869C127.794 100.129 126.427 100.909 124.929 100.909H72.3873C70.8892 100.909 69.5223 100.129 68.5601 98.869C67.6019 97.6145 67.0898 95.9548 67.0898 94.2606V29.6673C67.0898 29.4652 67.1558 29.2686 67.2777 29.1073L77.6147 15.4359ZM78.8173 16.9243L68.9468 29.9788V94.2606C68.9468 95.6005 69.3553 96.8509 70.0358 97.7419C70.7123 98.6275 71.568 99.0524 72.3873 99.0524H124.929C125.748 99.0524 126.604 98.6275 127.28 97.7419C127.961 96.8509 128.369 95.6005 128.369 94.2606V21.7161C128.369 20.3762 127.961 19.1259 127.28 18.2349C126.604 17.3492 125.748 16.9243 124.929 16.9243H78.8173Z" fill="#111B22"/>
<path d="M68.0195 29.6675H76.4866C76.9834 29.6645 77.459 29.404 77.8094 28.9431C78.1598 28.4821 78.3566 27.8582 78.3565 27.2078V15.9961L68.0195 29.6675Z" fill="white" stroke="#111B22" stroke-width="1.85695" stroke-linecap="round" stroke-linejoin="round"/>
<rect x="76.2202" y="35.3045" width="45.7607" height="1.47049" rx="0.735246" transform="rotate(0.260546 76.2202 35.3045)" fill="#DCDCDC" stroke="#111B22" stroke-width="1.47049"/>
<rect x="76.2866" y="49.0799" width="41.1738" height="1.47049" rx="0.735246" transform="rotate(0.260546 76.2866 49.0799)" fill="#DCDCDC" stroke="#111B22" stroke-width="1.47049"/>
<rect x="76.2202" y="61.93" width="38.8052" height="1.47049" rx="0.735246" transform="rotate(0.260546 76.2202 61.93)" fill="#DCDCDC" stroke="#111B22" stroke-width="1.47049"/>
<rect x="76.2202" y="83.5862" width="24.007" height="1.47049" rx="0.735246" transform="rotate(0.260546 76.2202 83.5862)" fill="#DCDCDC" stroke="#111B22" stroke-width="1.47049"/>
<rect x="76.1928" y="41.1858" width="35.8165" height="1.47049" rx="0.735246" transform="rotate(0.260546 76.1928 41.1858)" fill="#EEEEEE" stroke="#111B22" stroke-width="1.47049"/>
<rect x="76.2671" y="54.9637" width="13.9697" height="1.47049" rx="0.735246" transform="rotate(0.260546 76.2671 54.9637)" fill="#EEEEEE" stroke="#111B22" stroke-width="1.47049"/>
<rect x="76.1928" y="67.8108" width="13.9697" height="1.47049" rx="0.735246" transform="rotate(0.260546 76.1928 67.8108)" fill="#EEEEEE" stroke="#111B22" stroke-width="1.47049"/>
<rect x="76.1928" y="89.4671" width="13.9697" height="1.47049" rx="0.735246" transform="rotate(0.260546 76.1928 89.4671)" fill="#EEEEEE" stroke="#111B22" stroke-width="1.47049"/>
<rect x="0.348933" y="0.610579" width="0.996704" height="5.75595" rx="0.498352" transform="matrix(-0.265166 0.964203 0.96534 0.260994 45.9927 33.4688)" fill="#999999" stroke="#0078CE" stroke-width="0.996704"/>
<rect x="-0.623188" y="0.356139" width="1.0129" height="5.6318" rx="0.506449" transform="matrix(-0.96534 -0.260997 -0.265163 0.964204 64.8306 24.7969)" fill="#999999" stroke="#0078CE" stroke-width="1.0129"/>
<rect x="-0.185787" y="0.681416" width="1.007" height="5.67741" rx="0.503501" transform="matrix(-0.872182 0.489181 0.503191 0.864175 53.2663 25.3246)" fill="#999999" stroke="#0078CE" stroke-width="1.007"/>
<path d="M135.562 84.9609C135.562 95.7293 126.833 104.459 116.064 104.459C105.296 104.459 96.5664 95.7293 96.5664 84.9609C96.5664 74.1924 105.296 65.4629 116.064 65.4629C126.833 65.4629 135.562 74.1924 135.562 84.9609Z" fill="#CFE4F1"/>
<path fill-rule="evenodd" clip-rule="evenodd" d="M116.064 102.022C125.487 102.022 133.125 94.3833 133.125 84.9609C133.125 75.5385 125.487 67.9001 116.064 67.9001C106.642 67.9001 99.0037 75.5385 99.0037 84.9609C99.0037 94.3833 106.642 102.022 116.064 102.022ZM116.064 104.459C126.833 104.459 135.562 95.7293 135.562 84.9609C135.562 74.1924 126.833 65.4629 116.064 65.4629C105.296 65.4629 96.5664 74.1924 96.5664 84.9609C96.5664 95.7293 105.296 104.459 116.064 104.459Z" fill="#0078CE"/>
<path d="M108.876 77.6502C104.535 71.2144 112.28 67.9683 112.28 67.9683C107.507 68.7808 105.208 70.2083 102.179 73.6421C101.819 74.0499 101.511 74.5035 101.264 74.9878C100.083 77.2981 99.4245 79.0607 98.8413 81.3315C98.4008 83.0471 98.3693 84.8439 98.7064 86.5828C99.0192 88.1956 99.3574 89.6176 99.8535 91.3815C100.182 92.549 100.716 93.6542 101.474 94.6011C103.081 96.6088 104.574 98.0076 105.935 99.0443C106.736 99.6542 107.661 100.07 108.623 100.368L111.854 101.371C111.854 101.371 108.612 98.933 114.407 96.5301C120.203 94.1273 113.216 84.0861 108.876 77.6502Z" fill="#0078CE" fill-opacity="0.2"/>
<path d="M109.506 86.1795L109.316 79.1779C110.982 78.2696 111.903 79.304 112.155 79.9348V82.8679C112.155 84.1547 113.417 84.981 114.047 85.2334H122.185C122.033 86.5958 121.049 89.2073 120.482 90.3427L120.671 92.8027H112.155C112.218 91.9827 112.117 90.1534 111.209 89.3965C110.3 88.6396 109.695 86.9365 109.506 86.1795Z" fill="white" stroke="#0066DD" stroke-width="0.378475"/>
<path d="M105.53 75.2041H126.726C127.039 75.2042 127.293 75.458 127.293 75.7715V84.4766C127.293 84.7899 127.039 85.0439 126.726 85.0439H114.171C114.02 85.0439 113.876 84.9842 113.77 84.8779L112.842 83.9502C112.756 83.8648 112.7 83.7541 112.682 83.6348L111.962 78.96L111.936 78.7852L111.76 78.7998L109.488 78.9893L109.32 79.0029L109.315 79.1719L109.149 84.4941C109.14 84.8004 108.888 85.0437 108.582 85.0439H105.53C105.217 85.0439 104.963 84.79 104.963 84.4766V75.7715C104.963 75.458 105.217 75.2042 105.53 75.2041Z" fill="white" stroke="#0066DD" stroke-width="0.378475"/>
<path d="M109.283 85.2333H105.151C104.733 85.2333 104.395 84.8944 104.395 84.4763V75.7716C104.395 75.3535 104.733 75.0146 105.151 75.0146H127.103C127.522 75.0146 127.86 75.3535 127.86 75.7716V84.4763C127.86 84.8944 127.522 85.2333 127.103 85.2333H120.407H113.781" stroke="#0066DD" stroke-width="0.75695"/>
<path d="M107.423 75.3931C107.423 76.8562 106.237 78.0423 104.773 78.0423" stroke="#0066DD" stroke-width="0.75695"/>
<path d="M124.831 85.2329C124.831 83.5607 126.017 82.2052 127.48 82.2052" stroke="#0066DD" stroke-width="0.75695"/>
<path d="M104.773 82.2052C106.237 82.2052 107.423 83.5607 107.423 85.2329" stroke="#0066DD" stroke-width="0.75695"/>
<path d="M127.48 78.0423C126.017 78.0423 124.831 76.8562 124.831 75.3931" stroke="#0066DD" stroke-width="0.75695"/>
<ellipse cx="116.319" cy="80.1242" rx="2.83862" ry="2.83851" fill="white" stroke="#0066DD" stroke-width="0.75695"/>
<path d="M110.073 92.8032H122.185C122.394 92.8032 122.563 92.9722 122.563 93.1812V96.5874C122.563 96.7964 122.394 96.9663 122.185 96.9663H110.073C109.864 96.9662 109.695 96.7964 109.695 96.5874V93.1812C109.695 92.9722 109.864 92.8033 110.073 92.8032Z" fill="white" stroke="#0066DD" stroke-width="0.75695"/>
<path d="M115.857 88.3731C115.941 88.5641 116.165 88.6502 116.356 88.5653C116.547 88.4804 116.633 88.2568 116.548 88.0658L116.202 88.2194L115.857 88.3731ZM120.903 89.5423L121.244 89.7069L120.903 89.5423ZM121.266 88.7889L121.607 88.9534L121.607 88.9534L121.266 88.7889ZM109.316 84.2315H109.695V79.5568H109.316H108.938V84.2315H109.316ZM110.073 78.7998V79.1783H110.728V78.7998V78.4213H110.073V78.7998ZM112.241 80.27L111.863 80.281L111.948 83.2301L112.326 83.2192L112.705 83.2082L112.62 80.2591L112.241 80.27ZM115.855 87.4371L115.509 87.5907L115.857 88.3731L116.202 88.2194L116.548 88.0658L116.201 87.2834L115.855 87.4371ZM112.199 92.4246H112.577V91.8787H112.199H111.82V92.4246H112.199ZM111.104 89.2158L111.373 88.9495L111.218 88.7933L110.949 89.0596L110.68 89.3259L110.835 89.4821L111.104 89.2158ZM120.526 91.1879H120.148V92.4246H120.526H120.905V91.1879H120.526ZM122.185 85.2337L121.815 85.154L121.305 87.5216L121.675 87.6013L122.045 87.681L122.555 85.3135L122.185 85.2337ZM121.266 88.7889L120.926 88.6243L120.562 89.3777L120.903 89.5423L121.244 89.7069L121.607 88.9534L121.266 88.7889ZM120.526 91.1879H120.905C120.905 90.675 121.021 90.1687 121.244 89.7069L120.903 89.5423L120.562 89.3777C120.289 89.9423 120.148 90.561 120.148 91.1879H120.526ZM112.199 91.8787H112.577C112.577 90.7817 112.144 89.7291 111.373 88.9495L111.104 89.2158L110.835 89.4821C111.466 90.1199 111.82 90.9812 111.82 91.8787H112.199ZM113.374 84.8523L113.206 85.1915C114.23 85.6978 115.045 86.5466 115.509 87.5907L115.855 87.4371L116.201 87.2834C115.665 86.0777 114.724 85.0976 113.542 84.513L113.374 84.8523ZM112.326 83.2192L111.948 83.2301C111.972 84.0663 112.456 84.8208 113.206 85.1915L113.374 84.8523L113.542 84.513C113.043 84.2664 112.721 83.7645 112.705 83.2082L112.326 83.2192ZM110.728 78.7998V79.1783C111.342 79.1783 111.845 79.6669 111.863 80.281L112.241 80.27L112.62 80.2591C112.59 79.2357 111.752 78.4213 110.728 78.4213V78.7998ZM109.316 79.5568H109.695C109.695 79.3477 109.864 79.1783 110.073 79.1783V78.7998V78.4213C109.446 78.4213 108.938 78.9297 108.938 79.5568H109.316ZM109.759 87.0925L110.12 86.978C109.838 86.0898 109.695 85.1634 109.695 84.2315H109.316H108.938C108.938 85.2411 109.093 86.2447 109.399 87.207L109.759 87.0925ZM121.675 87.6013L121.305 87.5216C121.222 87.9029 121.095 88.2731 120.926 88.6243L121.266 88.7889L121.607 88.9534C121.803 88.5481 121.95 88.121 122.045 87.681L121.675 87.6013ZM109.759 87.0925L109.399 87.207C109.652 88.0048 110.091 88.7311 110.68 89.3259L110.949 89.0596L111.218 88.7933C110.713 88.2837 110.337 87.6615 110.12 86.978L109.759 87.0925Z" fill="#0066DD"/>
<path d="M117.091 79.6319C117.091 79.4553 116.958 79.1021 116.426 79.1021C115.895 79.1021 115.762 79.4553 115.762 79.6319C115.762 79.8085 115.895 80.1618 116.426 80.1618C117.091 80.1618 117.091 80.5592 117.091 80.6916C117.091 80.8241 117.091 81.2215 116.426 81.2215C115.895 81.2215 115.762 80.8682 115.762 80.6916" stroke="#566976" stroke-width="0.378475" stroke-linecap="round"/>
<path d="M116.43 78.7993V81.5243" stroke="#566976" stroke-width="0.378475" stroke-linecap="round"/>
</svg>
