<svg width="196" height="121" viewBox="0 0 196 121" fill="none" xmlns="http://www.w3.org/2000/svg">
<path opacity="0.729957" d="M70.47 84.4279C72.8222 84.4279 74.729 83.4223 74.729 82.1817C74.729 80.9412 72.8222 79.9355 70.47 79.9355C68.1178 79.9355 66.2109 80.9412 66.2109 82.1817C66.2109 83.4223 68.1178 84.4279 70.47 84.4279Z" fill="white"/>
<path d="M87.0843 95.3276C84.5421 98.0901 94.6023 100.642 113.111 101.242C133.265 106.515 142.424 107.946 146.126 105.221C149.828 102.494 133.936 93.99 121.493 91.3029C109.05 88.6159 102.215 90.3572 94.5872 92.2884C93.5545 92.5499 94.0667 92.3497 91.7236 93.1054C89.3804 93.8612 87.7025 94.6558 87.0843 95.3276Z" fill="#BFDBEE" stroke="#111B22" stroke-width="1.91995"/>
<path d="M114.322 79.6943C114.322 79.6943 106.519 88.0419 111.296 93.1887C105.213 93.5568 101.207 96.3459 101.207 96.3459L97.8945 84.872L114.322 79.6943Z" fill="white" stroke="#111B22" stroke-width="1.91995"/>
<path d="M101.447 95.7203C101.447 95.7203 95.3749 93.2311 92.9479 93.227C90.5208 93.223 98.0291 84.5044 98.0291 84.5044L102.417 94.9213L101.447 95.7203Z" fill="url(#paint0_linear_55358_764854)" stroke="#111B22" stroke-width="1.91995"/>
<path fill-rule="evenodd" clip-rule="evenodd" d="M53.9102 83.8986C53.947 83.9343 53.9841 83.97 54.0212 84.0057C69.8774 99.233 95.6179 99.2017 111.515 83.936C127.411 68.6705 127.443 43.9514 111.586 28.7244C111.549 28.6888 111.513 28.6532 111.476 28.6177L53.9102 83.8986Z" fill="#CFE4F1"/>
<path d="M53.9097 83.899L53.2309 83.2471L52.5547 83.8965L53.2283 84.5484L53.9097 83.899ZM111.475 28.6181L112.152 27.9638L111.472 27.3169L110.796 27.9662L111.475 28.6181ZM54.0207 84.0061L54.6995 83.3542C54.6633 83.3194 54.6272 83.2846 54.591 83.2496L53.9097 83.899L53.2283 84.5484C53.2661 84.5849 53.3039 84.6214 53.342 84.6579L54.0207 84.0061ZM111.514 83.9364L110.835 83.2845C95.312 98.1915 70.1793 98.2198 54.6995 83.3542L54.0207 84.0061L53.342 84.6579C69.5747 100.247 95.9231 100.213 112.193 84.5882L111.514 83.9364ZM111.586 28.7248L110.908 29.3766C126.388 44.2421 126.358 68.3774 110.835 83.2845L111.514 83.9364L112.193 84.5882C128.463 68.9642 128.497 43.6615 112.265 28.0729L111.586 28.7248ZM111.475 28.6181L110.799 29.2724C110.835 29.307 110.872 29.3418 110.908 29.3766L111.586 28.7248L112.265 28.0729C112.227 28.0364 112.189 28.0001 112.152 27.9638L111.475 28.6181ZM111.475 28.6181L110.796 27.9662L53.2309 83.2471L53.9097 83.899L54.5885 84.5508L112.154 29.27L111.475 28.6181Z" fill="#111B22"/>
<path d="M111.216 34.4284L111.958 31.2197L112.329 29.437L116.785 34.7849L120.869 42.985L123.467 51.5418L122.725 65.4463L117.156 77.5684L111.958 83.6293L101.191 91.1164L105.647 83.9859C105.647 83.9859 102.306 76.4988 110.101 64.7333C117.898 52.9678 100.82 49.4026 100.82 49.4026L108.245 39.4198L111.216 34.4284Z" fill="#0078CE" fill-opacity="0.2"/>
<path d="M54.0211 83.7928C57.3456 86.9853 72.9268 77.1984 88.8229 61.9332C104.719 46.6679 114.91 31.705 111.586 28.5125C108.261 25.32 92.6801 35.1069 76.7841 50.3721C60.888 65.6373 50.6967 80.6003 54.0211 83.7928Z" fill="white" stroke="#111B22" stroke-width="1.91995"/>
<mask id="mask0_55358_764854" style="mask-type:luminance" maskUnits="userSpaceOnUse" x="52" y="27" width="62" height="59">
<path d="M54.3627 84.1208C57.8758 87.4945 73.6099 77.8544 89.506 62.5892C105.402 47.3239 115.44 32.2141 111.927 28.8405C108.414 25.4668 92.6801 35.1069 76.7841 50.3721C60.888 65.6373 50.8496 80.7472 54.3627 84.1208Z" fill="white" stroke="white" stroke-width="1.91995"/>
</mask>
<g mask="url(#mask0_55358_764854)">
<path d="M94.8615 58.9687L78.3633 51.3359L84.7314 67.1889" fill="white"/>
<path d="M94.8615 58.9687L78.3633 51.3359L84.7314 67.1889" stroke="#111B22" stroke-width="1.91995"/>
</g>
<path d="M80.9107 54.0072C83.1815 51.8265 83.1752 48.2847 80.8964 46.0963C78.6177 43.908 74.9295 43.9019 72.6586 46.0826C70.3878 48.2634 70.3942 51.8052 72.6729 53.9935C74.9516 56.1819 78.6398 56.188 80.9107 54.0072Z" fill="#BFDBEE" stroke="#111B22" stroke-width="1.91995"/>
<path d="M65.9854 40.6075C67.5519 39.1031 69.7784 38.3823 72.0713 38.6286C72.7054 38.6961 73.1953 39.2565 73.1514 39.8461C73.1244 40.4519 72.5727 40.8855 71.9542 40.803C70.3279 40.6253 68.7582 41.134 67.646 42.2022C66.5183 43.2853 65.9893 44.8239 66.208 46.4177C66.2524 46.7611 66.1185 47.0831 65.8995 47.2937C65.7272 47.4592 65.4869 47.5605 65.2129 47.5981C64.5822 47.6239 64.0157 47.1694 63.9298 46.5756C63.6232 44.3256 64.3721 42.1569 65.9854 40.6075ZM60.9927 34.835C63.6311 32.3014 67.3007 30.9395 71.0356 31.0973C71.6525 31.1137 72.1276 31.6314 72.1127 32.224C72.0978 32.8164 71.5609 33.2717 70.9439 33.2557C67.8263 33.114 64.7737 34.2483 62.5776 36.3571C60.3499 38.4963 59.1682 41.4584 59.3474 44.4829C59.3637 44.802 59.2529 45.0905 59.0317 45.3028C58.8421 45.4849 58.5891 45.6065 58.3043 45.606C57.6875 45.6504 57.1644 45.1787 57.1157 44.5862C56.9198 40.969 58.3226 37.3992 60.9927 34.835Z" fill="#0078CE"/>
<path d="M73.1466 39.8456L72.1891 39.7801L72.1881 39.7931L72.1875 39.8061L73.1466 39.8456ZM71.9493 40.8026L72.0813 39.8894L72.0696 39.8879L72.0579 39.8866L71.9493 40.8026ZM66.2031 46.4172L67.1557 46.3036L67.1548 46.2968L66.2031 46.4172ZM65.208 47.5977L65.2489 48.5188L65.2967 48.5168L65.3441 48.5103L65.208 47.5977ZM63.9249 46.5751L62.9731 46.6948L62.9741 46.7019L63.9249 46.5751ZM71.0307 31.0968L70.9885 32.0178L70.9963 32.0182L71.0042 32.0184L71.0307 31.0968ZM70.9391 33.2552L70.8937 34.176L70.9033 34.1765L70.9129 34.1767L70.9391 33.2552ZM59.3425 44.4824L60.3014 44.437L60.3009 44.43L59.3425 44.4824ZM58.2995 45.6055L58.3009 44.6837L58.2643 44.6836L58.2276 44.6862L58.2995 45.6055ZM57.1109 44.5858L56.1522 44.6336L56.1528 44.6459L56.1539 44.6582L57.1109 44.5858ZM65.9805 40.607L66.6593 41.2589C68.0086 39.9631 69.9413 39.3275 71.9598 39.5443L72.0665 38.6281L72.1732 37.712C69.6056 37.4362 67.0855 38.2421 65.3017 39.9552L65.9805 40.607ZM72.0665 38.6281L71.9598 39.5443C72.0124 39.5499 72.0769 39.5788 72.1285 39.6373C72.1809 39.6965 72.1912 39.7516 72.1891 39.7801L73.1466 39.8456L74.1042 39.9112C74.1856 38.813 73.3043 37.8324 72.1732 37.712L72.0665 38.6281ZM73.1466 39.8456L72.1875 39.8061C72.1865 39.8268 72.1817 39.84 72.1774 39.8483C72.1726 39.8574 72.166 39.8655 72.1576 39.8721C72.1421 39.8844 72.1184 39.8944 72.0813 39.8894L71.9493 40.8026L71.8174 41.7157C72.99 41.872 74.054 41.0405 74.1056 39.8852L73.1466 39.8456ZM71.9493 40.8026L72.0579 39.8866C70.1554 39.6787 68.2915 40.2734 66.9623 41.5498L67.6411 42.2018L68.3199 42.8536C69.2152 41.9938 70.4908 41.5711 71.8408 41.7185L71.9493 40.8026ZM67.6411 42.2018L66.9623 41.5498C65.6136 42.8452 64.9956 44.6733 65.2513 46.5377L66.2031 46.4172L67.1548 46.2968C66.9733 44.9734 67.4131 43.7245 68.3199 42.8536L67.6411 42.2018ZM66.2031 46.4172L65.2504 46.5309C65.2534 46.5541 65.2505 46.5762 65.2428 46.597C65.2345 46.6195 65.2226 46.6348 65.2156 46.6417L65.8947 47.2932L66.5734 47.945C66.9914 47.5434 67.2384 46.9424 67.1557 46.3036L66.2031 46.4172ZM65.8947 47.2932L65.2156 46.6417C65.2224 46.6351 65.1911 46.6688 65.0719 46.6852L65.208 47.5977L65.3441 48.5103C65.7731 48.4513 66.2219 48.2826 66.5734 47.945L65.8947 47.2932ZM65.208 47.5977L65.1672 46.6767C65.1062 46.6792 65.0369 46.6587 64.976 46.61C64.9148 46.5611 64.8834 46.5011 64.8758 46.4482L63.9249 46.5751L62.9741 46.7019C63.1283 47.7686 64.1263 48.5646 65.2489 48.5188L65.208 47.5977ZM63.9249 46.5751L64.8768 46.4554C64.6074 44.4785 65.2649 42.5982 66.6593 41.2589L65.9805 40.607L65.3017 39.9552C63.4697 41.7148 62.6293 44.1717 62.9731 46.6948L63.9249 46.5751ZM60.9878 34.8345L61.6666 35.4864C64.1134 33.1368 67.5209 31.8713 70.9885 32.0178L71.0307 31.0968L71.0728 30.1758C67.0707 30.0068 63.1391 31.465 60.3091 34.1827L60.9878 34.8345ZM71.0307 31.0968L71.0042 32.0184C71.0312 32.0191 71.0629 32.0293 71.0949 32.0633C71.129 32.0993 71.1495 32.1492 71.1483 32.2013L72.1079 32.2235L73.0676 32.2459C73.0941 31.1863 72.2442 30.2068 71.0572 30.1753L71.0307 31.0968ZM72.1079 32.2235L71.1483 32.2013C71.1475 32.2274 71.1371 32.2561 71.104 32.285C71.0686 32.3158 71.0189 32.3351 70.9651 32.3337L70.9391 33.2552L70.9129 34.1767C72.0197 34.2055 73.0387 33.3872 73.0676 32.2459L72.1079 32.2235ZM70.9391 33.2552L70.9844 32.3344C67.5973 32.1805 64.2817 33.4119 61.8939 35.7047L62.5727 36.3566L63.2515 37.0084C65.256 35.0837 68.0455 34.0466 70.8937 34.176L70.9391 33.2552ZM62.5727 36.3566L61.8939 35.7047C59.4735 38.029 58.1893 41.2471 58.3841 44.5347L59.3425 44.4824L60.3009 44.43C60.1374 41.6688 61.2165 38.9627 63.2515 37.0084L62.5727 36.3566ZM59.3425 44.4824L58.3836 44.5277C58.3876 44.6062 58.3637 44.6354 58.348 44.6505L59.0268 45.3024L59.7055 45.9543C60.1321 45.5446 60.3301 44.9968 60.3014 44.437L59.3425 44.4824ZM59.0268 45.3024L58.348 44.6505C58.3279 44.6698 58.3118 44.6787 58.304 44.6821C58.298 44.6847 58.2981 44.6837 58.3009 44.6837L58.2995 45.6055L58.2979 46.5275C58.8804 46.5284 59.3681 46.2783 59.7055 45.9543L59.0268 45.3024ZM58.2995 45.6055L58.2276 44.6862C58.202 44.6882 58.1716 44.6818 58.1371 44.6518C58.1001 44.6195 58.0726 44.57 58.0679 44.5134L57.1109 44.5858L56.1539 44.6582C56.24 45.7073 57.1769 46.6109 58.3712 46.5248L58.2995 45.6055ZM57.1109 44.5858L58.0695 44.5378C57.8875 41.1774 59.1918 37.863 61.6666 35.4864L60.9878 34.8345L60.3091 34.1827C57.4437 36.9343 55.9423 40.7598 56.1522 44.6336L57.1109 44.5858Z" fill="#0078CE"/>
<path d="M50.4417 44.3023C50.2529 44.4836 50.0014 44.6046 49.703 44.6202C49.0906 44.6365 48.5891 44.185 48.5432 43.5971C48.3498 38.2448 50.5114 33.0088 54.46 29.2169C56.4541 27.3019 58.781 25.8365 61.3168 24.8746C61.5157 24.7755 63.2142 24.5453 63.4582 25.2448C63.7022 25.9444 62.076 26.901 62.076 26.901C59.8459 27.7571 57.7985 29.0507 56.0426 30.7369C52.5346 34.1057 50.6255 38.7683 50.7885 43.5478C50.7723 43.8041 50.6461 44.1058 50.4417 44.3023Z" fill="#0078CE" stroke="#0078CE" stroke-width="1.91995"/>
<path d="M107.805 15.8564C107.724 15.5207 107.945 15.1929 108.3 15.1243C108.654 15.0556 109.007 15.2721 109.088 15.6078L110.456 21.2605C110.537 21.5962 110.315 21.9239 109.961 21.9926C109.607 22.0612 109.253 21.8447 109.172 21.5091L107.805 15.8564Z" fill="#999999" stroke="#0078CE" stroke-width="1.30446"/>
<path d="M129.847 29.4927C130.204 29.4236 130.559 29.6415 130.641 29.9794C130.723 30.3174 130.5 30.6473 130.143 30.7164L124.091 31.8885C123.734 31.9576 123.379 31.7396 123.297 31.4017C123.215 31.0638 123.438 30.7338 123.795 30.6647L129.847 29.4927Z" fill="#999999" stroke="#0078CE" stroke-width="1.31316"/>
<path d="M121.558 18.1566C121.756 17.8691 122.169 17.7887 122.481 17.9772C122.794 18.1656 122.887 18.5515 122.689 18.839L119.384 23.6521C119.187 23.9396 118.773 24.0199 118.461 23.8315C118.149 23.6431 118.056 23.2572 118.253 22.9697L121.558 18.1566Z" fill="#999999" stroke="#0078CE" stroke-width="1.31719"/>
<defs>
<linearGradient id="paint0_linear_55358_764854" x1="96.1177" y1="97.7302" x2="103.192" y2="91.4223" gradientUnits="userSpaceOnUse">
<stop stop-color="#F8FBFF"/>
<stop offset="1" stop-color="#D9DDE2"/>
</linearGradient>
</defs>
</svg>
