<svg width="196" height="121" viewBox="0 0 196 121" fill="none" xmlns="http://www.w3.org/2000/svg">
<path d="M57.6914 27.9238H133.38C137.265 27.9239 140.414 31.0733 140.414 34.9579V46.9218H50.6572V34.9579C50.6573 31.0733 53.8068 27.9238 57.6914 27.9238Z" fill="#BFDBEE"/>
<path d="M57.6914 27.9238H133.38C137.265 27.9239 140.414 31.0733 140.414 34.9579V46.9218H50.6572V34.9579C50.6573 31.0733 53.8068 27.9238 57.6914 27.9238Z" stroke="#111B22" stroke-width="1.7585"/>
<path d="M59.6161 35.3984H83.9052C85.2357 35.3984 86.2684 36.4074 86.2685 37.5966C86.2685 38.7859 85.2357 39.7949 83.9052 39.7949H59.6161C58.2856 39.7949 57.2529 38.7859 57.2529 37.5966C57.2529 36.4074 58.2856 35.3984 59.6161 35.3984Z" fill="#CFE4F1" stroke="#111B22" stroke-width="0.879248"/>
<path d="M113.084 34.5186C114.783 34.5186 116.162 35.8963 116.162 37.5957C116.162 39.2953 114.784 40.6739 113.084 40.6739C111.385 40.6736 110.007 39.2952 110.007 37.5957C110.007 35.8965 111.385 34.5188 113.084 34.5186Z" fill="#CFE4F1" stroke="#111B22" stroke-width="0.879248"/>
<path d="M121.877 34.5186C123.576 34.5186 124.955 35.8963 124.955 37.5957C124.955 39.2953 123.577 40.6739 121.877 40.6739C120.178 40.6736 118.8 39.2952 118.8 37.5957C118.8 35.8965 120.178 34.5188 121.877 34.5186Z" fill="#CFE4F1" stroke="#111B22" stroke-width="0.879248"/>
<path d="M130.67 34.5186C132.369 34.5186 133.748 35.8963 133.748 37.5957C133.748 39.2953 132.37 40.6739 130.67 40.6739C128.971 40.6736 127.593 39.2952 127.593 37.5957C127.593 35.8965 128.971 34.5188 130.67 34.5186Z" fill="#CFE4F1" stroke="#111B22" stroke-width="0.879248"/>
<path d="M140.281 37.0077C140.281 37.0077 137.79 39.333 105.41 32.8565C87.5602 29.2861 61.007 45.7077 56.0104 46.5557C52.0866 47.2217 51.5094 47.3537 51.4424 47.3797L51.444 47.386C51.444 47.386 51.4241 47.3868 51.4424 47.3797L50.8407 44.8949C50.2345 42.3915 50.3479 39.6659 50.5237 37.0962C50.642 35.3668 50.8122 33.428 51.5619 31.7369C52.129 30.4577 53.3082 29.5574 54.6412 29.1319C55.9682 28.7083 56.8501 28.7492 58.5465 28.3957C59.9055 28.1126 61.2432 27.8756 62.6313 27.8672C74.3527 27.7966 126.84 27.3052 134.57 28.1737C135.075 28.2304 135.534 28.3999 135.982 28.6379C140.234 30.8959 139.886 32.6618 140.281 37.0077Z" fill="#0078CE" fill-opacity="0.2"/>
<path d="M57.6914 106.701H133.38C137.265 106.701 140.414 103.551 140.414 99.666V54.4912H50.6572V99.666C50.6573 103.551 53.8068 106.701 57.6914 106.701Z" fill="white" stroke="#111B22" stroke-width="1.7585"/>
<g filter="url(#filter0_d_56001_733596)">
<path d="M131.333 70.1406V97.8212H95.5615V70.1406H131.333Z" fill="#D2D2D2" stroke="#111B22" stroke-width="1.85493"/>
<path d="M132.072 59.7803H94.8574C93.4093 59.7803 92.2354 60.9548 92.2354 62.4037V70.3699C92.2354 71.8188 93.4093 72.9934 94.8574 72.9934H132.072C133.52 72.9934 134.694 71.8188 134.694 70.3699V62.4037C134.694 60.9548 133.52 59.7803 132.072 59.7803Z" fill="white" stroke="#111B22" stroke-width="1.09581" stroke-linecap="round" stroke-linejoin="round"/>
<path d="M99.4678 65.0439C100.218 65.0441 100.826 65.6526 100.826 66.4042C100.826 67.1557 100.218 67.7643 99.4678 67.7646C98.7177 67.7646 98.1086 67.1558 98.1084 66.4042C98.1084 65.6525 98.7176 65.0439 99.4678 65.0439Z" fill="#D2D2D2" stroke="#111B22" stroke-width="1.85493"/>
<path d="M106.655 65.0439C107.405 65.0441 108.014 65.6526 108.014 66.4042C108.014 67.1557 107.405 67.7643 106.655 67.7646C105.905 67.7646 105.296 67.1558 105.296 66.4042C105.296 65.6525 105.905 65.0439 106.655 65.0439Z" fill="#D2D2D2" stroke="#111B22" stroke-width="1.85493"/>
<path d="M113.835 65.0439C114.585 65.0441 115.193 65.6526 115.193 66.4042C115.193 67.1557 114.585 67.7643 113.835 67.7646C113.085 67.7646 112.476 67.1558 112.476 66.4042C112.476 65.6525 113.085 65.0439 113.835 65.0439Z" fill="#D2D2D2" stroke="#111B22" stroke-width="1.85493"/>
<path d="M132.072 74.4258H94.8574C93.4093 74.4258 92.2354 75.6004 92.2354 77.0492V85.0154C92.2354 86.4643 93.4093 87.6389 94.8574 87.6389H132.072C133.52 87.6389 134.694 86.4643 134.694 85.0154V77.0492C134.694 75.6004 133.52 74.4258 132.072 74.4258Z" fill="white" stroke="#111B22" stroke-width="1.09581" stroke-linecap="round" stroke-linejoin="round"/>
<path d="M99.4678 79.6943C100.218 79.6946 100.826 80.3031 100.826 81.0547C100.826 81.8061 100.218 82.4148 99.4678 82.4151C98.7177 82.4151 98.1086 81.8063 98.1084 81.0547C98.1084 80.303 98.7176 79.6943 99.4678 79.6943Z" fill="#D2D2D2" stroke="#111B22" stroke-width="1.85493"/>
<path d="M106.655 79.6943C107.405 79.6946 108.014 80.3031 108.014 81.0547C108.014 81.8061 107.405 82.4148 106.655 82.4151C105.905 82.4151 105.296 81.8063 105.296 81.0547C105.296 80.303 105.905 79.6943 106.655 79.6943Z" fill="#D2D2D2" stroke="#111B22" stroke-width="1.85493"/>
<path d="M113.835 79.6943C114.585 79.6946 115.193 80.3031 115.193 81.0547C115.193 81.8061 114.585 82.4148 113.835 82.4151C113.085 82.4151 112.476 81.8063 112.476 81.0547C112.476 80.303 113.085 79.6943 113.835 79.6943Z" fill="#D2D2D2" stroke="#111B22" stroke-width="1.85493"/>
<path d="M132.072 89.0771H94.8574C93.4093 89.0771 92.2354 90.2516 92.2354 91.7005V99.6667C92.2354 101.115 93.4093 102.29 94.8574 102.29H132.072C133.52 102.29 134.694 101.115 134.694 99.6667V91.7005C134.694 90.2516 133.52 89.0771 132.072 89.0771Z" fill="white" stroke="#111B22" stroke-width="1.09581" stroke-linecap="round" stroke-linejoin="round"/>
<path d="M99.4678 94.3408C100.218 94.341 100.826 94.9495 100.826 95.7011C100.826 96.4526 100.218 97.0612 99.4678 97.0615C98.7177 97.0615 98.1086 96.4527 98.1084 95.7011C98.1084 94.9494 98.7176 94.3408 99.4678 94.3408Z" fill="#D2D2D2" stroke="#111B22" stroke-width="1.85493"/>
<path d="M106.655 94.3408C107.405 94.341 108.014 94.9495 108.014 95.7011C108.014 96.4526 107.405 97.0612 106.655 97.0615C105.905 97.0615 105.296 96.4527 105.296 95.7011C105.296 94.9494 105.905 94.3408 106.655 94.3408Z" fill="#D2D2D2" stroke="#111B22" stroke-width="1.85493"/>
<path d="M113.835 94.3408C114.585 94.341 115.193 94.9495 115.193 95.7011C115.193 96.4526 114.585 97.0612 113.835 97.0615C113.085 97.0615 112.476 96.4527 112.476 95.7011C112.476 94.9494 113.085 94.3408 113.835 94.3408Z" fill="#D2D2D2" stroke="#111B22" stroke-width="1.85493"/>
</g>
<g filter="url(#filter1_d_56001_733596)">
<path d="M145.598 64.1865C143.442 64.1854 141.334 64.8327 139.541 66.0466C137.747 67.2606 136.35 68.9866 135.524 71.0064C134.698 73.0262 134.481 75.249 134.901 77.3937C135.321 79.5384 136.359 81.5086 137.883 83.0552C139.407 84.6017 141.349 85.6551 143.463 86.0821C145.578 86.5092 147.769 86.2906 149.761 85.4541C151.753 84.6176 153.456 83.2008 154.654 81.3828C155.852 79.5648 156.491 77.4273 156.491 75.2408C156.491 72.31 155.343 69.4992 153.301 67.4264C151.258 65.3535 148.487 64.1881 145.598 64.1865Z" fill="#ACD2EC" stroke="#111B22" stroke-width="1.77659" stroke-linecap="round" stroke-linejoin="round"/>
<path d="M153.653 82.5088L157.284 86.1828" stroke="#111B22" stroke-width="1.78104" stroke-linecap="round" stroke-linejoin="round"/>
<path d="M156.391 86.2096L157.519 85.0156C157.688 84.8367 157.967 84.8302 158.143 85.0001L167.932 94.4695C168.108 94.6397 168.114 94.9232 167.945 95.1021L166.817 96.2962C166.648 96.475 166.369 96.4805 166.193 96.3103L156.405 86.8409C156.229 86.6707 156.222 86.3885 156.391 86.2096Z" fill="white" stroke="#111B22" stroke-width="1.77659"/>
</g>
<path d="M37.6181 29.0592C37.3289 29.022 37.126 28.7576 37.1649 28.4686C37.2038 28.1796 37.4698 27.9755 37.759 28.0127L42.802 28.6617C43.0913 28.6989 43.2942 28.9634 43.2552 29.2524C43.2163 29.5413 42.9503 29.7454 42.6611 29.7082L37.6181 29.0592Z" stroke="#0078CE" stroke-width="1.05597"/>
<path d="M54.7587 16.5612C54.7985 16.2658 55.0704 16.0571 55.366 16.0952C55.6617 16.1332 55.8691 16.4036 55.8293 16.699L55.1778 21.5362C55.138 21.8316 54.8661 22.0402 54.5705 22.0022C54.2748 21.9641 54.0674 21.6938 54.1072 21.3984L54.7587 16.5612Z" stroke="#0078CE" stroke-width="1.07948"/>
<path d="M43.3304 18.6816L43.3304 18.6816C43.0938 18.8591 43.0501 19.1915 43.2327 19.4241L46.2927 23.3223C46.4753 23.5549 46.8151 23.5996 47.0517 23.4222L47.0517 23.4222C47.2883 23.2447 47.332 22.9123 47.1494 22.6797L44.0894 18.7815C43.9068 18.5489 43.567 18.5042 43.3304 18.6816Z" stroke="#0078CE" stroke-width="1.07094"/>
<path d="M71.3688 76.8606V71.0488H69.2932L68.8781 73.5395L66.3873 74.7849L63.4814 73.1244L61.4057 75.2L62.6511 78.1059L61.8209 80.1816L58.915 81.0118V84.3329L61.8209 84.748L62.6511 87.2388L61.4057 90.1447L63.4814 92.2203L65.9722 90.9749L68.4629 91.8052L69.2932 94.7111H73.8596V88.069H70.1234L65.9722 85.9934V80.1816L71.3688 76.8606Z" fill="#ACD2EC"/>
<path d="M73.4443 73.5387L75.5199 71.048H76.3502V75.1992L78.4258 76.0295L80.5015 75.1992V73.9539L80.9166 70.6328L82.162 71.048L83.4074 73.9539V76.0295L82.5771 78.1051L80.5015 80.1808V93.4649L78.0107 95.1254L76.3502 93.4649V80.5959L75.1048 78.9354L73.4443 76.4446V73.5387Z" fill="#ACD2EC"/>
<path d="M76.6105 69.6899C76.833 69.9013 76.9763 70.0772 77.018 70.3872C77.0172 70.5027 77.0172 70.5027 77.0165 70.6205C77.0165 70.6633 77.0165 70.706 77.0166 70.7501C77.0164 70.8903 77.0146 71.0305 77.0128 71.1708C77.0123 71.2684 77.012 71.3661 77.0117 71.4638C77.0109 71.72 77.0086 71.9762 77.006 72.2325C77.0036 72.4943 77.0025 72.7561 77.0013 73.0179C76.9988 73.531 76.9949 74.0441 76.9899 74.5571C77.0296 74.5688 77.0693 74.5805 77.1102 74.5925C77.1624 74.608 77.2147 74.6235 77.2685 74.6395C77.3203 74.6548 77.372 74.6701 77.4252 74.6859C77.6766 74.7644 77.9164 74.8695 78.1586 74.9722C78.5139 75.0783 78.8315 74.8906 79.1609 74.7578C79.2553 74.7198 79.3498 74.6821 79.4443 74.6445C79.4859 74.6277 79.5274 74.611 79.5702 74.5937C79.6753 74.5571 79.6753 74.5571 79.7921 74.5571C79.7915 74.5031 79.791 74.449 79.7905 74.3933C79.7858 73.8831 79.7823 73.3729 79.78 72.8627C79.7788 72.6004 79.7771 72.3381 79.7745 72.0759C79.7719 71.8226 79.7705 71.5694 79.7699 71.3162C79.7695 71.2197 79.7686 71.1232 79.7674 71.0267C79.7657 70.8913 79.7654 70.7559 79.7656 70.6205C79.765 70.5435 79.7645 70.4665 79.764 70.3872C79.8058 70.0772 79.949 69.9013 80.1715 69.6899C80.5222 69.5271 80.873 69.5215 81.2378 69.6534C82.6709 70.3909 83.7603 71.7365 84.2506 73.2619C84.7135 74.8299 84.5506 76.4948 83.8201 77.943C83.7896 78.0041 83.759 78.0652 83.7275 78.1282C83.3713 78.785 82.8719 79.3422 82.3059 79.8257C82.2594 79.8654 82.2594 79.8654 82.212 79.906C82.0356 80.0506 81.8725 80.1402 81.6601 80.2198C81.6604 80.2856 81.6606 80.3514 81.6608 80.4193C81.666 82.0228 81.6698 83.6263 81.6722 85.2299C81.6734 86.0053 81.6751 86.7808 81.6778 87.5562C81.6801 88.2323 81.6816 88.9083 81.6821 89.5844C81.6824 89.9422 81.6831 90.3 81.6848 90.6578C81.6864 90.995 81.6869 91.3321 81.6866 91.6692C81.6866 91.7926 81.6871 91.916 81.688 92.0394C81.6924 92.6706 81.6955 93.2358 81.4266 93.8217C81.3979 93.8859 81.3691 93.9501 81.3395 94.0162C80.8599 94.8766 80.187 95.3698 79.2573 95.6962C78.5519 95.8598 77.7023 95.8328 77.0483 95.5147C76.9922 95.4879 76.936 95.4611 76.8782 95.4335C76.0034 94.9855 75.4912 94.275 75.1774 93.3493C75.1057 93.0934 75.106 92.8465 75.1078 92.5822C75.1077 92.5292 75.1076 92.4762 75.1075 92.4215C75.1073 92.2445 75.108 92.0675 75.1086 91.8905C75.1086 91.7633 75.1086 91.6361 75.1086 91.509C75.1085 91.1642 75.1092 90.8194 75.11 90.4746C75.1108 90.1141 75.1108 89.7536 75.111 89.3931C75.1113 88.7106 75.1123 88.0281 75.1135 87.3457C75.1148 86.5686 75.1154 85.7916 75.116 85.0145C75.1172 83.4163 75.1193 81.818 75.1219 80.2198C75.0553 80.1951 75.0553 80.1951 74.9875 80.17C73.9498 79.7286 73.1629 78.4629 72.7409 77.4712C72.4292 76.6933 72.2873 75.9326 72.2942 75.0935C72.2947 75.0167 72.2952 74.94 72.2957 74.861C72.3057 74.2829 72.3587 73.7592 72.5533 73.2145C72.568 73.1728 72.5827 73.1311 72.5978 73.0881C73.1007 71.7016 74.0138 70.6353 75.2386 69.8286C75.282 69.7994 75.3253 69.7702 75.37 69.7401C75.7487 69.516 76.2153 69.5064 76.6105 69.6899ZM75.0635 72.5723C74.327 73.578 74.102 74.6848 74.2631 75.9114C74.3087 76.1522 74.3866 76.3743 74.4797 76.6003C74.5074 76.6678 74.5351 76.7352 74.5636 76.8047C74.9926 77.7451 75.6578 78.346 76.5327 78.8714C76.7452 79.0287 76.9039 79.1921 76.953 79.4619C76.9616 79.6022 76.9626 79.7408 76.9611 79.8813C76.9616 79.9617 76.9616 79.9617 76.9622 80.0436C76.9631 80.2229 76.9623 80.402 76.9616 80.5813C76.9619 80.7099 76.9623 80.8385 76.9628 80.9671C76.9637 81.2439 76.9639 81.5208 76.9635 81.7976C76.9629 82.2355 76.9639 82.6734 76.9651 83.1113C76.9667 83.7254 76.9675 84.3394 76.9677 84.9535C76.9677 84.9924 76.9677 85.0314 76.9677 85.0715C76.9678 85.13 76.9678 85.13 76.9678 85.1897C76.968 85.742 76.9684 86.2944 76.969 86.8468C76.9691 86.8856 76.9691 86.9245 76.9692 86.9645C76.97 87.613 76.9712 88.2616 76.9728 88.9101C76.9737 89.3452 76.974 89.7804 76.9738 90.2155C76.9738 90.4865 76.9742 90.7575 76.9748 91.0284C76.975 91.1539 76.9749 91.2793 76.9747 91.4048C76.9743 91.5764 76.9747 91.748 76.9753 91.9195C76.9749 91.9936 76.9749 91.9936 76.9744 92.0691C76.9778 92.5985 77.0456 93.0622 77.436 93.4498C77.7927 93.7716 78.0867 93.8501 78.5661 93.8395C78.9494 93.8006 79.1776 93.6374 79.4345 93.3583C79.7853 92.927 79.8008 92.477 79.7997 91.9406C79.7999 91.8869 79.8 91.8332 79.8001 91.7779C79.8005 91.5983 79.8004 91.4187 79.8003 91.2391C79.8005 91.1102 79.8007 90.9813 79.801 90.8524C79.8014 90.575 79.8017 90.2976 79.8019 90.0202C79.8023 89.5816 79.8032 89.143 79.8043 88.7044C79.8047 88.5542 79.8051 88.4041 79.8054 88.2539C79.8056 88.1787 79.8058 88.1035 79.806 88.026C79.8069 87.6374 79.8078 87.2487 79.8086 86.86C79.8087 86.8015 79.8087 86.8015 79.8088 86.7418C79.8101 86.1096 79.8107 85.4774 79.8112 84.8451C79.8116 84.1956 79.813 83.5461 79.8151 82.8965C79.8163 82.532 79.817 82.1675 79.8167 81.803C79.8165 81.4603 79.8173 81.1176 79.8189 80.7749C79.8193 80.6491 79.8193 80.5233 79.8189 80.3974C79.8184 80.2258 79.8193 80.0542 79.8205 79.8825C79.8198 79.8077 79.8198 79.8077 79.819 79.7315C79.8233 79.4192 79.878 79.2425 80.084 78.9938C80.195 78.9035 80.195 78.9035 80.3138 78.8333C81.3557 78.1701 82.0973 77.3687 82.4738 76.1662C82.7123 75.0541 82.5436 73.9503 81.9976 72.9638C81.8975 72.8116 81.7904 72.6986 81.6601 72.5723C81.6599 72.6088 81.6597 72.6453 81.6595 72.683C81.6571 73.0637 81.653 73.4444 81.648 73.8251C81.6464 73.9671 81.6451 74.1091 81.6443 74.2511C81.6431 74.4555 81.6404 74.6597 81.6373 74.8641C81.6373 74.9274 81.6372 74.9907 81.6371 75.0559C81.6304 75.4024 81.6138 75.6332 81.3683 75.8998C81.2492 75.9852 81.2492 75.9852 81.1176 76.0451C81.0664 76.0686 81.0151 76.0921 80.9623 76.1164C80.6069 76.2669 80.2497 76.4116 79.8906 76.5529C79.8113 76.5843 79.7321 76.6158 79.6529 76.6472C79.5079 76.7047 79.3629 76.7621 79.2178 76.8193C79.1049 76.8639 78.9924 76.9098 78.8809 76.9579C78.2167 77.2008 77.5633 76.8538 76.9564 76.5978C76.7887 76.5272 76.6204 76.4584 76.4519 76.3899C76.3443 76.3455 76.2367 76.301 76.1291 76.2565C76.0792 76.236 76.0293 76.2155 75.9778 76.1943C75.6345 76.0487 75.328 75.9133 75.1802 75.5496C75.164 75.4084 75.164 75.4084 75.1616 75.2497C75.1605 75.1902 75.1593 75.1306 75.1581 75.0692C75.1574 75.0052 75.1568 74.9413 75.1561 74.8755C75.1549 74.8097 75.1538 74.744 75.1526 74.6762C75.1492 74.4663 75.1464 74.2563 75.1438 74.0463C75.1415 73.904 75.1393 73.7616 75.1369 73.6192C75.1313 73.2703 75.1263 72.9213 75.1219 72.5723C75.1026 72.5723 75.0833 72.5723 75.0635 72.5723Z" fill="#111B22"/>
<path d="M70.7117 69.5697C70.8348 69.5702 70.9578 69.5685 71.0809 69.5666C71.1601 69.5665 71.2393 69.5666 71.3185 69.5668C71.4251 69.5666 71.4251 69.5666 71.5337 69.5664C71.8359 69.611 72.0145 69.7577 72.2211 69.9752C72.3611 70.2767 72.36 70.5531 72.316 70.88C72.1905 71.1503 72.0108 71.3494 71.7322 71.4638C71.5003 71.4919 71.2721 71.4859 71.039 71.4784C70.9765 71.4773 70.9141 71.4763 70.8497 71.4752C70.6963 71.4725 70.5429 71.4686 70.3895 71.4638C70.3904 71.52 70.3904 71.52 70.3912 71.5773C70.3947 72.0109 70.3741 72.4399 70.3421 72.8722C70.3359 72.9698 70.3359 72.9698 70.3297 73.0694C70.2645 73.9547 70.2645 73.9547 69.9569 74.3131C69.6823 74.5107 69.3412 74.5833 69.0213 74.6782C68.2819 74.9092 67.6192 75.2228 66.9466 75.6044C66.6464 75.7635 66.375 75.7622 66.0513 75.6706C65.7998 75.5513 65.6103 75.3576 65.4087 75.1692C65.0094 74.8007 64.5775 74.4749 64.1431 74.1492C63.7193 74.573 63.2955 74.9968 62.8588 75.4335C63.0933 75.7461 63.3272 76.0432 63.5849 76.3347C64.4567 77.3315 64.4567 77.3315 64.4496 77.8192C64.4253 78.0262 64.3307 78.1954 64.2307 78.3742C64.1875 78.4563 64.1445 78.5385 64.1016 78.6207C64.0795 78.663 64.0573 78.7052 64.0344 78.7487C63.7169 79.3656 63.4591 79.9961 63.2771 80.666C63.1918 80.9645 63.094 81.1728 62.8588 81.388C62.466 81.5958 62.0165 81.605 61.5818 81.6324C61.5172 81.6372 61.4525 81.642 61.3859 81.6469C60.9789 81.6754 60.5839 81.6799 60.1735 81.6799C60.1735 82.3349 60.1735 82.9899 60.1735 83.6647C60.3854 83.6647 60.5973 83.6647 60.8156 83.6647C61.0715 83.6747 61.3265 83.6933 61.5818 83.7121C61.6795 83.7183 61.6795 83.7183 61.7791 83.7246C62.6696 83.7901 62.6696 83.7901 63.0239 84.1018C63.2074 84.3568 63.2808 84.6626 63.3696 84.9599C63.5953 85.6759 63.8882 86.3392 64.2412 87.0009C64.433 87.3618 64.4954 87.596 64.3803 88.0029C64.2609 88.2545 64.0673 88.4439 63.8788 88.6455C63.5104 89.0448 63.1846 89.4767 62.8588 89.9111C63.2827 90.3349 63.7065 90.7587 64.1431 91.1954C64.4557 90.9609 64.7529 90.727 65.0443 90.4693C65.9929 89.6407 65.9929 89.6407 66.437 89.6028C66.6882 89.6218 66.8641 89.7042 67.0803 89.8235C67.1629 89.8667 67.2456 89.9097 67.3284 89.9526C67.3922 89.9859 67.3922 89.9859 67.4574 90.0198C68.0757 90.3357 68.705 90.595 69.3756 90.7771C69.6741 90.8625 69.8825 90.9602 70.0976 91.1954C70.3054 91.5882 70.3147 92.0377 70.3421 92.4724C70.3469 92.537 70.3517 92.6017 70.3566 92.6683C70.385 93.0754 70.3895 93.4703 70.3895 93.8808C71.0445 93.8808 71.6995 93.8808 72.3744 93.8808C72.3936 93.7459 72.4129 93.6111 72.4327 93.4721C72.5851 93.2239 72.7423 93.1016 73.0165 93.0051C73.415 92.9511 73.688 92.9947 74.0089 93.2386C74.2253 93.4891 74.305 93.7275 74.3008 94.0559C74.2605 94.5304 74.0489 94.9531 73.7104 95.2866C73.2267 95.6835 72.7894 95.7759 72.1778 95.7742C72.1151 95.7745 72.0523 95.7748 71.9877 95.7751C71.8555 95.7755 71.7233 95.7754 71.5911 95.7749C71.3903 95.7744 71.1895 95.7761 70.9886 95.7779C70.8596 95.778 70.7306 95.778 70.6016 95.7778C70.5422 95.7785 70.4829 95.7791 70.4217 95.7798C69.893 95.7747 69.4161 95.6402 69.0234 95.2716C68.4915 94.6643 68.4477 94.0111 68.3974 93.235C68.3924 93.1622 68.3873 93.0893 68.3821 93.0143C68.3698 92.8361 68.3579 92.6579 68.3463 92.4797C68.3143 92.4736 68.2823 92.4676 68.2493 92.4613C67.9181 92.3939 67.6199 92.2925 67.3101 92.1586C67.2253 92.1227 67.1405 92.0869 67.0556 92.051C67.0165 92.0343 66.9774 92.0176 66.9372 92.0004C66.8044 91.9441 66.6708 91.8904 66.5366 91.8375C66.4441 91.9129 66.3517 91.9883 66.2593 92.0638C66.1714 92.1352 66.1714 92.1352 66.0817 92.2081C65.9577 92.3096 65.8363 92.4134 65.7164 92.5196C65.1389 93.0237 64.7221 93.2277 63.9454 93.2019C63.0879 93.1138 62.546 92.4129 61.9653 91.8369C61.9064 91.7787 61.8473 91.7207 61.7879 91.6631C61.2383 91.1292 60.8711 90.6889 60.8558 89.9038C60.858 89.2047 61.1167 88.8112 61.5718 88.3039C61.7981 88.0511 62.0064 87.7837 62.2167 87.5176C62.1996 87.4752 62.1825 87.4329 62.1649 87.3892C62.0872 87.1961 62.0097 87.0029 61.9321 86.8098C61.9052 86.7431 61.8784 86.6764 61.8507 86.6077C61.8117 86.5107 61.8117 86.5107 61.772 86.4116C61.7362 86.3227 61.7362 86.3227 61.6997 86.2319C61.6331 86.0587 61.5734 85.8844 61.5161 85.7079C61.4513 85.7035 61.4513 85.7035 61.3852 85.699C61.1868 85.6854 60.9884 85.6711 60.7901 85.6568C60.7221 85.6522 60.6541 85.6476 60.584 85.6429C59.891 85.5922 59.2779 85.5187 58.7676 85.0008C58.3708 84.517 58.2783 84.0798 58.2801 83.4681C58.2798 83.4054 58.2795 83.3426 58.2791 83.278C58.2788 83.1458 58.2788 83.0136 58.2793 82.8815C58.2798 82.6806 58.2782 82.4798 58.2763 82.2789C58.2762 82.1499 58.2763 82.0209 58.2764 81.8919C58.2758 81.8326 58.2751 81.7732 58.2744 81.712C58.2798 81.1567 58.4312 80.6745 58.8226 80.2683C59.3968 79.78 60.0385 79.7403 60.7572 79.695C60.8415 79.6887 60.9258 79.6823 61.0101 79.6756C61.1982 79.6614 61.3863 79.6483 61.5745 79.6366C61.5889 79.5618 61.6033 79.487 61.6181 79.41C61.6866 79.1015 61.8013 78.8231 61.9284 78.5348C61.9705 78.4376 62.0126 78.3405 62.0545 78.2433C62.0731 78.2011 62.0916 78.1589 62.1107 78.1154C62.1504 78.021 62.1843 77.9241 62.2167 77.8269C62.1264 77.6858 62.1264 77.6858 61.9941 77.5387C61.946 77.4817 61.8978 77.4246 61.8482 77.3659C61.7445 77.2455 61.6396 77.1263 61.5344 77.0074C61.0321 76.4339 60.8277 76.0095 60.8519 75.2362C60.9399 74.3952 61.606 73.8708 62.1698 73.3031C62.2377 73.2346 62.3053 73.1657 62.3727 73.0967C62.4715 72.9954 62.571 72.8949 62.6707 72.7946C62.7002 72.7641 62.7297 72.7336 62.7601 72.7021C63.1612 72.3033 63.5914 72.157 64.1504 72.1461C64.8495 72.1484 65.243 72.4071 65.7503 72.8621C66.0031 73.0884 66.2705 73.2968 66.5366 73.507C66.579 73.4896 66.6214 73.4723 66.665 73.4543C66.858 73.3754 67.0512 73.2971 67.2444 73.2188C67.3111 73.1914 67.3778 73.1641 67.4465 73.1359C67.5112 73.1097 67.5759 73.0836 67.6426 73.0566C67.7019 73.0325 67.7612 73.0083 67.8223 72.9835C67.9972 72.9228 68.1632 72.8898 68.3463 72.8649C68.3507 72.7974 68.3507 72.7974 68.3552 72.7285C68.3688 72.5222 68.3831 72.3159 68.3974 72.1096C68.402 72.0388 68.4066 71.968 68.4113 71.8951C68.4607 71.1942 68.5294 70.5742 69.0535 70.0579C69.5773 69.6282 70.0513 69.5656 70.7117 69.5697Z" fill="#111B22"/>
<path d="M71.1506 76.4262C71.3658 76.647 71.4019 76.828 71.4133 77.1268C71.3999 77.4995 71.2963 77.6869 71.0288 77.9447C70.8069 78.0962 70.5966 78.1386 70.337 78.1958C69.1199 78.4932 68.1467 79.1803 67.4619 80.2317C66.824 81.3032 66.6206 82.6477 66.9146 83.8657C67.2577 85.025 67.993 86.0485 69.0508 86.6515C70.1501 87.2397 71.3819 87.4616 72.6032 87.1207C72.6988 87.09 72.7944 87.0592 72.8899 87.0282C73.1665 86.9518 73.4 86.9607 73.6718 87.0619C73.9115 87.2164 74.0947 87.36 74.1862 87.6347C74.2265 88.0487 74.2206 88.3574 73.9527 88.6855C72.9216 89.3664 71.2367 89.3717 70.0576 89.1451C69.8545 89.0981 69.656 89.0417 69.4577 88.9774C69.4179 88.9649 69.3781 88.9524 69.3371 88.9395C68.5065 88.672 67.783 88.266 67.1226 87.6931C67.0754 87.6544 67.0282 87.6156 66.9796 87.5757C66.0065 86.7492 65.3784 85.6375 65.021 84.424C65.0011 84.3594 64.9812 84.2948 64.9608 84.2283C64.7057 83.2197 64.7224 81.9162 65.021 80.9213C65.0402 80.8516 65.0594 80.7818 65.0791 80.7099C65.5904 79.0098 66.7684 77.6625 68.3157 76.8166C68.7385 76.5937 69.1736 76.4409 69.6328 76.3095C69.7076 76.2879 69.7076 76.2879 69.784 76.2659C70.2816 76.1391 70.7287 76.1056 71.1506 76.4262Z" fill="#111B22"/>
<defs>
<filter id="filter0_d_56001_733596" x="82.921" y="54.8492" width="61.0876" height="61.1384" filterUnits="userSpaceOnUse" color-interpolation-filters="sRGB">
<feFlood flood-opacity="0" result="BackgroundImageFix"/>
<feColorMatrix in="SourceAlpha" type="matrix" values="0 0 0 0 0 0 0 0 0 0 0 0 0 0 0 0 0 0 127 0" result="hardAlpha"/>
<feOffset dy="4.38324"/>
<feGaussianBlur stdDeviation="4.38324"/>
<feColorMatrix type="matrix" values="0 0 0 0 0.0705882 0 0 0 0 0.105882 0 0 0 0 0.129412 0 0 0 0.1 0"/>
<feBlend mode="normal" in2="BackgroundImageFix" result="effect1_dropShadow_56001_733596"/>
<feBlend mode="normal" in="SourceGraphic" in2="effect1_dropShadow_56001_733596" result="shape"/>
</filter>
<filter id="filter1_d_56001_733596" x="122.604" y="57.6981" width="57.5513" height="56.4234" filterUnits="userSpaceOnUse" color-interpolation-filters="sRGB">
<feFlood flood-opacity="0" result="BackgroundImageFix"/>
<feColorMatrix in="SourceAlpha" type="matrix" values="0 0 0 0 0 0 0 0 0 0 0 0 0 0 0 0 0 0 127 0" result="hardAlpha"/>
<feOffset dy="5.59974"/>
<feGaussianBlur stdDeviation="5.59974"/>
<feColorMatrix type="matrix" values="0 0 0 0 0.0705882 0 0 0 0 0.105882 0 0 0 0 0.129412 0 0 0 0.1 0"/>
<feBlend mode="normal" in2="BackgroundImageFix" result="effect1_dropShadow_56001_733596"/>
<feBlend mode="normal" in="SourceGraphic" in2="effect1_dropShadow_56001_733596" result="shape"/>
</filter>
</defs>
</svg>
