<svg width="196" height="121" viewBox="0 0 196 121" fill="none" xmlns="http://www.w3.org/2000/svg">
<g clip-path="url(#clip0_55998_733345)">
<mask id="mask0_55998_733345" style="mask-type:luminance" maskUnits="userSpaceOnUse" x="0" y="0" width="196" height="121">
<path d="M196 0H0V121H196V0Z" fill="white"/>
</mask>
<g mask="url(#mask0_55998_733345)">
<path d="M157.665 65.1886C158.606 63.3867 157.831 61.2597 155.935 60.4378L132.058 50.0918C130.16 49.2699 127.861 50.0644 126.92 51.8663L109.142 85.9259C108.201 87.7278 108.977 89.8548 110.874 90.6768L134.751 101.023C136.647 101.844 138.948 101.05 139.889 99.248L157.665 65.1886Z" fill="white"/>
<path d="M141.363 99.7905L159.141 65.731C160.434 63.2533 159.368 60.3292 156.76 59.199L156.122 60.4222L156.296 60.5031C158.065 61.3768 158.765 63.4274 157.854 65.1731L140.076 99.2327C139.165 100.978 136.977 101.778 135.116 101.08L134.939 101.007L111.061 90.6608L110.886 90.5806C109.174 89.7351 108.465 87.7872 109.247 86.0804L109.33 85.9099L127.107 51.8508C128.018 50.105 130.206 49.3051 132.066 50.004L132.245 50.0763L132.883 48.853C130.275 47.723 127.113 48.8152 125.82 51.2928L108.042 85.352C106.749 87.8296 107.815 90.7545 110.423 91.8846L134.3 102.231C136.908 103.36 140.07 102.268 141.363 99.7905ZM132.883 48.853L132.245 50.0763L156.122 60.4222L156.76 59.199L132.883 48.853Z" fill="#111B22"/>
<path d="M149.539 72.9526C149.774 72.5042 149.58 71.975 149.109 71.7704L126.05 61.7789C125.577 61.5744 125.005 61.7721 124.772 62.2205C124.537 62.6689 124.73 63.1981 125.202 63.4026L148.261 73.3942C148.733 73.5986 149.305 73.4009 149.539 72.9526Z" fill="#111B22"/>
<path d="M145.048 81.5874C145.281 81.139 145.089 80.6097 144.616 80.4052L121.557 70.4137C121.086 70.2092 120.513 70.4069 120.279 70.8553C120.045 71.3036 120.239 71.8329 120.71 72.0374L143.769 82.029C144.241 82.2334 144.814 82.0358 145.048 81.5874Z" fill="#DCDCDC"/>
<path d="M120.24 70.9399C120.082 71.3397 120.243 71.7823 120.624 71.9954L120.71 72.0375L143.769 82.029L143.859 82.0628C144.311 82.2077 144.828 82.0075 145.047 81.5874C145.266 81.1671 145.111 80.6757 144.702 80.4474L144.616 80.4049L121.557 70.4134L121.468 70.38C121.015 70.2349 120.498 70.4347 120.279 70.855L120.24 70.9399Z" fill="#111B22"/>
<path d="M140.532 90.2192C140.765 89.7709 140.573 89.2416 140.101 89.037L117.041 79.0455C116.57 78.841 115.997 79.0387 115.763 79.4871C115.53 79.9354 115.722 80.4647 116.195 80.6692L139.254 90.6607C139.725 90.8652 140.298 90.6675 140.532 90.2192Z" fill="#DCDCDC"/>
<path d="M115.725 79.5717C115.566 79.9716 115.728 80.4142 116.11 80.6273L116.194 80.6694L139.253 90.6609L139.343 90.6946C139.796 90.8395 140.312 90.6393 140.532 90.2192C140.752 89.799 140.596 89.3077 140.187 89.0793L140.1 89.0368L117.042 79.0453L116.952 79.0119C116.5 78.8667 115.983 79.0666 115.763 79.487L115.725 79.5717Z" fill="#111B22"/>
<path d="M147.743 76.407C147.977 75.9587 147.784 75.4294 147.312 75.2249L140.053 72.0797C139.582 71.8752 139.009 72.0729 138.775 72.5212C138.542 72.9696 138.734 73.4989 139.207 73.7034L146.464 76.8486C146.937 77.0531 147.508 76.8554 147.743 76.407Z" fill="#EEEEEE"/>
<path d="M138.736 72.6061C138.578 73.0058 138.739 73.4481 139.12 73.6613L139.206 73.7038L146.464 76.8487L146.555 76.8825C147.007 77.0274 147.523 76.8272 147.743 76.4071C147.962 75.9869 147.806 75.4955 147.397 75.2671L147.312 75.2247L140.054 72.0796C139.582 71.8752 139.009 72.073 138.775 72.5214L138.736 72.6061Z" fill="#111B22"/>
<path d="M143.243 85.0378C143.477 84.5895 143.285 84.0603 142.812 83.8557L135.554 80.7105C135.082 80.5061 134.51 80.7038 134.275 81.1521C134.041 81.6005 134.235 82.1297 134.706 82.3343L141.965 85.4794C142.437 85.6839 143.009 85.4862 143.243 85.0378Z" fill="#EEEEEE"/>
<path d="M134.237 81.237C134.078 81.6367 134.239 82.079 134.621 82.2922L134.706 82.3346L141.965 85.4796L142.055 85.5133C142.507 85.6582 143.024 85.458 143.243 85.0379C143.462 84.6177 143.307 84.1264 142.898 83.898L142.812 83.8555L135.555 80.7105C135.082 80.5061 134.509 80.7039 134.275 81.1522L134.237 81.237Z" fill="#111B22"/>
<path d="M138.731 93.6707C138.965 93.2223 138.773 92.693 138.3 92.4885L131.041 89.3434C130.57 89.1388 129.997 89.3365 129.763 89.7849C129.53 90.2333 129.722 90.7625 130.194 90.967L137.453 94.1123C137.925 94.3167 138.497 94.119 138.731 93.6707Z" fill="#EEEEEE"/>
<path d="M129.724 89.8698C129.566 90.2694 129.727 90.7118 130.108 90.925L130.195 90.9674L137.453 94.1124L137.543 94.1462C137.995 94.2911 138.512 94.0909 138.731 93.6707C138.95 93.2505 138.794 92.7591 138.385 92.5308L138.3 92.4883L131.042 89.3434C130.57 89.1388 129.997 89.3366 129.763 89.785L129.724 89.8698Z" fill="#111B22"/>
<path d="M131.936 48.4827C129.632 54.9915 133.321 61.9127 140.174 63.9417C147.027 65.9706 154.45 62.339 156.752 55.8302C159.056 49.3214 155.367 42.4002 148.514 40.3712C141.661 38.3422 134.238 41.9739 131.936 48.4827Z" fill="#BED9EC"/>
<path d="M133.183 48.8518C135.255 42.9965 141.932 39.7305 148.095 41.5553C154.258 43.3802 157.577 49.6056 155.506 55.4607C153.434 61.3158 146.757 64.582 140.594 62.7573L140.175 63.9414C147.028 65.9701 154.45 62.3386 156.753 55.8299C159.056 49.3213 155.367 42.4003 148.514 40.3712C141.661 38.3423 134.238 41.9737 131.936 48.4825L131.832 48.788C129.749 55.2066 133.429 61.9442 140.175 63.9414L140.594 62.7573C134.43 60.9325 131.111 54.707 133.183 48.8518Z" fill="#0078CE"/>
<path d="M140.028 48.5857L138.154 51.9266C137.846 52.4737 137.869 53.1256 138.21 53.6368L140.315 56.7377C140.659 57.244 141.275 57.5321 141.931 57.4937L145.918 57.2439C146.568 57.2033 147.161 56.8392 147.471 56.2873L149.345 52.9465C149.653 52.3994 149.63 51.7474 149.289 51.2362L147.184 48.1353C146.84 47.629 146.224 47.341 145.568 47.3794L141.582 47.6291C140.928 47.6747 140.339 48.0338 140.028 48.5857Z" stroke="#111B22" stroke-width="0.862133" stroke-linecap="round" stroke-linejoin="round"/>
<path d="M144.017 51.9464C143.358 51.6376 143.108 50.8776 143.461 50.2491C143.814 49.6206 144.635 49.3615 145.295 49.6703C145.955 49.9792 146.204 50.739 145.851 51.3675C145.498 51.996 144.676 52.2552 144.017 51.9464Z" stroke="#111B22" stroke-width="0.862133" stroke-linecap="round" stroke-linejoin="round"/>
<path d="M140.418 53.7511C140.911 52.872 142.229 52.5885 143.363 53.1189C144.496 53.6493 145.013 54.7919 144.52 55.6711" stroke="#111B22" stroke-width="0.862133" stroke-linecap="round" stroke-linejoin="round"/>
<path d="M37.6187 64.7914C36.6781 62.9894 37.4531 60.8623 39.3499 60.0405L63.2272 49.6943C65.1239 48.8724 67.4239 49.6671 68.3646 51.4691L86.1422 85.5284C87.0828 87.3304 86.3077 89.4574 84.411 90.2793L60.5337 100.625C58.637 101.447 56.3369 100.653 55.3963 98.8506L37.6187 64.7914Z" fill="white"/>
<path d="M53.9175 99.3924L36.1398 65.3328C34.8465 62.855 35.912 59.9308 38.52 58.8008L39.1585 60.024L38.9842 60.1049C37.2151 60.9784 36.516 63.0292 37.4273 64.7749L55.205 98.8344L55.2972 99.0004C56.2572 100.63 58.3634 101.357 60.1636 100.682L60.3424 100.609L84.2197 90.2629L84.3941 90.1821C86.106 89.3367 86.8157 87.3888 86.0339 85.6819L85.951 85.512L68.1732 51.4525C67.2619 49.7068 65.0749 48.9066 63.2147 49.6056L63.0358 49.6778L62.3973 48.4546C65.0053 47.3246 68.1674 48.4169 69.4606 50.8946L87.2385 84.9542C88.5315 87.4319 87.466 90.3561 84.8582 91.4862L60.9809 101.833C58.373 102.962 55.211 101.87 53.9175 99.3924ZM62.3973 48.4546L63.0358 49.6778L39.1585 60.024L38.52 58.8008L62.3973 48.4546Z" fill="#111B22"/>
<path d="M45.7362 72.5571C45.5022 72.1088 45.695 71.5795 46.167 71.375L69.2261 61.3834C69.698 61.1789 70.2703 61.3766 70.5044 61.825C70.7384 62.2734 70.5455 62.8026 70.0735 63.0071L47.0145 72.9987C46.5426 73.2032 45.9703 73.0055 45.7362 72.5571Z" fill="#111B22"/>
<path d="M50.2284 81.19C49.9944 80.7416 50.1873 80.2123 50.6592 80.0078L73.7182 70.0162C74.1902 69.8117 74.7625 70.0094 74.9965 70.4578C75.2305 70.9062 75.0377 71.4355 74.5658 71.6399L51.5067 81.6315C51.0348 81.836 50.4625 81.6383 50.2284 81.19Z" fill="#DCDCDC"/>
<path d="M75.035 70.5436C75.2049 70.972 75.0076 71.4489 74.5652 71.6406L51.5066 81.6319L51.4168 81.6664C50.9644 81.8113 50.4479 81.6111 50.2285 81.191C50.009 80.7707 50.1647 80.2793 50.5736 80.0509L50.6593 80.0085L73.7178 70.0171C74.1897 69.8127 74.7624 70.0105 74.9964 70.4589L75.035 70.5436Z" fill="#111B22"/>
<path d="M54.7401 89.8217C54.5061 89.3734 54.6989 88.8442 55.171 88.6396L78.23 78.648C78.7019 78.4436 79.2742 78.6413 79.5083 79.0897C79.7423 79.5381 79.5494 80.0672 79.0775 80.2718L56.0184 90.2634C55.5465 90.4678 54.9742 90.2701 54.7401 89.8217Z" fill="#DCDCDC"/>
<path d="M79.5468 79.1745C79.7167 79.6029 79.5193 80.0798 79.0768 80.2715L56.0184 90.2628L55.9286 90.2972C55.4761 90.4422 54.9596 90.242 54.7401 89.8218C54.5208 89.4015 54.6764 88.9102 55.0854 88.6818L55.1711 88.6393L78.2295 78.648C78.7015 78.4435 79.2741 78.6414 79.5082 79.0897L79.5468 79.1745Z" fill="#111B22"/>
<path d="M47.5253 76.0096C47.2913 75.5613 47.4841 75.032 47.956 74.8274L55.2148 71.6822C55.6867 71.4777 56.259 71.6755 56.4931 72.1238C56.7271 72.5722 56.5342 73.1015 56.0623 73.306L48.8036 76.4512C48.3317 76.6556 47.7593 76.458 47.5253 76.0096Z" fill="#EEEEEE"/>
<path d="M56.532 72.2085C56.6906 72.6084 56.5294 73.051 56.1474 73.264L56.062 73.3055L48.8036 76.4506L48.7138 76.485C48.2613 76.63 47.7447 76.4298 47.5253 76.0097C47.306 75.5893 47.4616 75.098 47.8706 74.8696L47.9562 74.8271L55.2147 71.682L55.3041 71.6486C55.7568 71.5034 56.2739 71.7034 56.4934 72.1237L56.532 72.2085Z" fill="#111B22"/>
<path d="M52.0409 84.6424C51.8069 84.194 51.9997 83.6648 52.4716 83.4603L59.7304 80.315C60.2023 80.1106 60.7747 80.3083 61.0087 80.7567C61.2427 81.2051 61.0499 81.7343 60.5779 81.9388L53.3192 85.084C52.8472 85.2885 52.2749 85.0908 52.0409 84.6424Z" fill="#EEEEEE"/>
<path d="M61.0476 80.8413C61.2062 81.2412 61.045 81.6839 60.6629 81.8969L60.5777 81.9383L53.3192 85.0835L53.2294 85.1179C52.7769 85.2628 52.2604 85.0625 52.0409 84.6424C51.8216 84.2222 51.9772 83.7309 52.3861 83.5025L52.4717 83.46L59.7303 80.3148L59.8197 80.2815C60.2724 80.1362 60.7896 80.3361 61.009 80.7566L61.0476 80.8413Z" fill="#111B22"/>
<path d="M56.5487 93.2733C56.3147 92.8249 56.5076 92.2956 56.9795 92.0912L64.2382 88.9459C64.7102 88.7414 65.2825 88.9391 65.5165 89.3875C65.7506 89.8359 65.5577 90.3651 65.0858 90.5696L57.827 93.7148C57.3551 93.9194 56.7828 93.7217 56.5487 93.2733Z" fill="#EEEEEE"/>
<path d="M65.5555 89.4732C65.7141 89.873 65.5529 90.3156 65.1708 90.5287L65.0855 90.5701L57.827 93.7152L57.7372 93.7498C57.2847 93.8947 56.7682 93.6944 56.5488 93.2743C56.3294 92.8541 56.485 92.3626 56.894 92.1342L56.9796 92.0919L64.2382 88.9466L64.3276 88.9133C64.7803 88.768 65.2973 88.968 65.5168 89.3884L65.5555 89.4732Z" fill="#111B22"/>
<path d="M62.9168 48.4866C65.2196 54.9954 61.5308 61.9166 54.6778 63.9456C47.8246 65.9745 40.4022 62.3429 38.0994 55.8341C35.7966 49.3253 39.4853 42.4041 46.3384 40.3751C53.1916 38.3462 60.6139 41.9778 62.9168 48.4866Z" fill="#BFDBEE"/>
<path d="M61.6691 48.8556C59.5974 43.0007 52.9209 39.7344 46.7573 41.5592C40.5937 43.3842 37.2753 49.6095 39.3466 55.4645C41.418 61.3195 48.0949 64.5863 54.2587 62.7615L54.6776 63.9457L54.3564 64.0366C47.5942 65.8605 40.3662 62.2409 38.0993 55.8337C35.7967 49.325 39.4854 42.4041 46.3382 40.3751C53.1913 38.3461 60.6133 41.9778 62.9163 48.4863C65.2191 54.9952 61.5307 61.9168 54.6776 63.9457L54.2587 62.7615C60.4224 60.9367 63.7406 54.7106 61.6691 48.8556Z" fill="#0078CE"/>
<path d="M54.6579 48.3651L56.5332 51.7059C56.8403 52.253 56.8178 52.9049 56.4766 53.4161L54.3711 56.5171C54.0273 57.0233 53.412 57.3113 52.7558 57.273L48.7695 57.0233C48.1186 56.9825 47.5258 56.6186 47.216 56.0666L45.3407 52.7258C45.0336 52.1787 45.0561 51.5267 45.3973 51.0156L47.5028 47.9146C47.8466 47.4083 48.462 47.1203 49.118 47.1587L53.1043 47.4084C53.758 47.454 54.3481 47.8131 54.6579 48.3651Z" stroke="#111B22" stroke-width="0.862133" stroke-linecap="round" stroke-linejoin="round"/>
<path d="M50.6579 51.7257C51.3178 51.4168 51.5667 50.6569 51.2139 50.0284C50.8611 49.3999 50.0402 49.1407 49.3804 49.4496C48.7206 49.7584 48.4716 50.5183 48.8244 51.1468C49.1772 51.7753 49.9982 52.0346 50.6579 51.7257Z" stroke="#111B22" stroke-width="0.862133" stroke-linecap="round" stroke-linejoin="round"/>
<path d="M54.2579 53.5305C53.7643 52.6512 52.4462 52.3678 51.3129 52.8982C50.1797 53.4285 49.6621 54.5713 50.1556 55.4504" stroke="#111B22" stroke-width="0.862133" stroke-linecap="round" stroke-linejoin="round"/>
<path d="M124.273 41.4916C124.273 38.2344 121.573 35.5938 118.242 35.5938H79.4723C76.1415 35.5938 73.4414 38.2344 73.4414 41.4916V98.7857C73.4414 102.044 76.1415 104.684 79.4723 104.684H118.242C121.573 104.684 124.273 102.044 124.273 98.7857V41.4916Z" fill="white"/>
<path d="M119.315 69.6288C119.315 68.8641 118.681 68.2393 117.899 68.2393H79.6548C78.8725 68.2393 78.2383 68.8641 78.2383 69.6288C78.2383 70.3935 78.8725 71.0183 79.6548 71.0183H117.899C118.681 71.0183 119.315 70.3935 119.315 69.6288Z" fill="#DCDCDC"/>
<path d="M78.2383 69.6285C78.2383 70.3454 78.7953 70.9396 79.5096 71.0112L79.6544 71.0185H117.899L118.044 71.0112C118.758 70.9395 119.315 70.3453 119.315 69.6285C119.315 68.8641 118.681 68.2395 117.899 68.2393H79.6544L79.5096 68.2467C78.7954 68.3182 78.2385 68.9118 78.2383 69.6285Z" fill="#111B22"/>
<path fill-rule="evenodd" clip-rule="evenodd" d="M118.225 33.5186H79.455C74.9515 33.5186 71.3008 37.0888 71.3008 41.493V98.7869C71.3008 103.191 74.9515 106.761 79.455 106.761H118.225C122.729 106.761 126.379 103.191 126.379 98.7869V41.493C126.379 37.0888 122.729 33.5186 118.225 33.5186ZM118.225 35.5951C121.556 35.5951 124.256 38.2356 124.256 41.493V98.7869C124.256 102.044 121.556 104.685 118.225 104.685H79.455C76.1242 104.685 73.424 102.044 73.424 98.7869V41.493C73.424 38.2356 76.1242 35.5951 79.455 35.5951H118.225Z" fill="#111B22"/>
<path d="M119.905 55.7391C119.905 54.9744 119.271 54.3496 118.489 54.3496H80.2446C79.4623 54.3496 78.8281 54.9744 78.8281 55.7391C78.8281 56.5038 79.4623 57.1286 80.2446 57.1286H118.489C119.271 57.1286 119.905 56.5038 119.905 55.7391Z" fill="#DCDCDC"/>
<path d="M78.8281 55.7389C78.8281 56.4557 79.3853 57.05 80.0995 57.1215L80.2443 57.1289H118.489L118.634 57.1215C119.347 57.0499 119.905 56.4556 119.905 55.7389C119.905 54.9744 119.271 54.3498 118.489 54.3496H80.2443L80.0995 54.3571C79.3854 54.4285 78.8283 55.0221 78.8281 55.7389Z" fill="#111B22"/>
<path d="M119.905 82.8524C119.905 82.0877 119.271 81.4629 118.489 81.4629H80.2446C79.4623 81.4629 78.8281 82.0877 78.8281 82.8524C78.8281 83.6171 79.4623 84.242 80.2446 84.242H118.489C119.271 84.242 119.905 83.6171 119.905 82.8524Z" fill="#DCDCDC"/>
<path d="M78.8281 82.8521C78.8281 83.569 79.3853 84.1633 80.0995 84.2347L80.2443 84.2422H118.489L118.634 84.2347C119.347 84.1632 119.905 83.5689 119.905 82.8521C119.905 82.0876 119.271 81.4631 118.489 81.4629H80.2443L80.0995 81.4703C79.3854 81.5418 78.8283 82.1354 78.8281 82.8521Z" fill="#111B22"/>
<path d="M118.399 63.4745C118.399 62.7098 117.765 62.085 116.983 62.085H104.944C104.162 62.085 103.527 62.7098 103.527 63.4745C103.527 64.2392 104.162 64.864 104.944 64.864H116.983C117.765 64.864 118.399 64.2392 118.399 63.4745Z" fill="#EEEEEE"/>
<path d="M103.527 63.4742C103.527 64.1911 104.085 64.7852 104.799 64.8568L104.944 64.8642H116.983L117.128 64.8568C117.843 64.7852 118.399 64.191 118.399 63.4742C118.399 62.7097 117.765 62.0852 116.983 62.085H104.944L104.799 62.0924C104.085 62.164 103.528 62.7575 103.527 63.4742Z" fill="#111B22"/>
<path d="M119.313 75.1873C119.313 74.4226 118.679 73.7979 117.897 73.7979H105.858C105.076 73.7979 104.441 74.4226 104.441 75.1873C104.441 75.952 105.076 76.5769 105.858 76.5769H117.897C118.679 76.5769 119.313 75.952 119.313 75.1873Z" fill="#EEEEEE"/>
<path d="M104.441 75.187C104.441 75.9038 104.999 76.4981 105.713 76.5697L105.858 76.577H117.897L118.042 76.5697C118.757 76.498 119.313 75.9038 119.313 75.187C119.313 74.4226 118.679 73.7981 117.897 73.7979H105.858L105.713 73.8053C104.999 73.8768 104.441 74.4703 104.441 75.187Z" fill="#111B22"/>
<path d="M119.313 89.0789C119.313 88.3142 118.679 87.6895 117.897 87.6895H105.858C105.076 87.6895 104.441 88.3142 104.441 89.0789C104.441 89.8436 105.076 90.4684 105.858 90.4684H117.897C118.679 90.4684 119.313 89.8436 119.313 89.0789Z" fill="#EEEEEE"/>
<path d="M104.441 89.0786C104.441 89.7955 104.999 90.3897 105.713 90.4612L105.858 90.4686H117.897L118.042 90.4612C118.757 90.3896 119.313 89.7955 119.313 89.0786C119.313 88.3142 118.679 87.6896 117.897 87.6895H105.858L105.713 87.6968C104.999 87.7684 104.441 88.3619 104.441 89.0786Z" fill="#111B22"/>
<g filter="url(#filter0_d_55998_733345)">
<path d="M79.3841 35.5213C80.7918 46.0086 90.6014 53.3909 101.294 52.0102C111.987 50.6295 119.515 41.0086 118.107 30.5213C116.699 20.0338 106.89 12.6515 96.197 14.0322C85.5036 15.4129 77.9764 25.0339 79.3841 35.5213Z" fill="#BFDBEE"/>
</g>
<g filter="url(#filter1_d_55998_733345)">
<path d="M81.3206 35.2713C80.0524 25.8236 86.8334 17.1672 96.451 15.9253C106.07 14.6836 114.902 21.3237 116.171 30.7713C117.439 40.219 110.659 48.8753 101.041 50.1173L101.295 52.0104L101.793 51.9394C112.055 50.3543 119.261 41.1436 118.167 31.0117L118.107 30.5213C116.7 20.034 106.89 12.6516 96.197 14.0322C85.5042 15.4129 77.9764 25.034 79.3841 35.5213L79.4566 36.0101C81.0987 46.2369 90.769 53.3695 101.295 52.0104L101.041 50.1173C91.423 51.3592 82.5889 44.7191 81.3206 35.2713Z" fill="#0078CE"/>
</g>
<path d="M28.8599 46.7286C28.2027 46.6454 27.5987 47.0985 27.5107 47.7405C27.4228 48.3825 27.8843 48.9705 28.5415 49.0536L34.2235 49.7728C34.8807 49.8559 35.4848 49.4029 35.5727 48.7609C35.6606 48.1188 35.1991 47.5309 34.5419 47.4477L28.8599 46.7286Z" fill="#999999"/>
<path d="M34.2232 49.7725C34.8805 49.8556 35.4852 49.4028 35.5731 48.7608L35.5827 48.6408C35.6019 48.0471 35.1576 47.5256 34.5416 47.4476L28.8597 46.7286C28.2027 46.6454 27.5988 47.0985 27.5107 47.7404C27.4228 48.3823 27.8842 48.9701 28.5413 49.0533L34.2232 49.7725Z" fill="#0078CE"/>
<path d="M54.2376 32.2175C54.327 31.565 53.8579 30.9676 53.1901 30.883C52.5222 30.7986 51.9083 31.259 51.819 31.9114L51.0812 37.2989C50.9919 37.9513 51.4608 38.5488 52.1288 38.6333C52.7966 38.7178 53.4104 38.2574 53.4998 37.605L54.2376 32.2175Z" fill="#999999"/>
<path d="M51.0808 37.2998L51.0709 37.4214C51.0513 38.025 51.5027 38.5549 52.1289 38.6342C52.7548 38.7133 53.3337 38.3138 53.4772 37.726L53.4996 37.606L54.2375 32.2182C54.3266 31.5659 53.8579 30.9687 53.1902 30.884C52.5224 30.7995 51.9081 31.2597 51.8185 31.912L51.0808 37.2998Z" fill="#0078CE"/>
<path d="M38.002 34.5313C37.5901 34.0154 36.8229 33.9166 36.2885 34.3109C35.7541 34.7051 35.6547 35.443 36.0666 35.959L39.5253 40.2921C39.9372 40.808 40.7044 40.9068 41.2387 40.5126C41.7731 40.1184 41.8726 39.3805 41.4607 38.8645L38.002 34.5313Z" fill="#999999"/>
<path d="M39.5251 40.292L39.6067 40.3834C40.0323 40.8181 40.7376 40.882 41.2386 40.5125L41.3338 40.4351C41.7838 40.0273 41.8467 39.3482 41.4605 38.8643L38.0019 34.5314C37.59 34.0154 36.8229 33.9166 36.2884 34.3108C35.7541 34.705 35.6547 35.4429 36.0665 35.9589L39.5251 40.292Z" fill="#0078CE"/>
<path d="M108.609 29.3891V37.0733C108.609 38.3314 107.922 39.4998 106.81 40.1402L100.004 43.9935C98.892 44.6226 97.517 44.6226 96.394 43.9935L89.5881 40.1402C88.4765 39.511 87.7891 38.3427 87.7891 37.0733V29.3891C87.7891 28.1309 88.4765 26.9625 89.5881 26.3221L96.394 22.4689C97.506 21.8398 98.881 21.8398 100.004 22.4689L106.81 26.3221C107.922 26.9625 108.609 28.1197 108.609 29.3891Z" stroke="#111B22" stroke-width="1.72427" stroke-linecap="round" stroke-linejoin="round"/>
<path d="M98.209 32.1073C99.683 32.1073 100.879 30.9353 100.879 29.4897C100.879 28.044 99.683 26.8721 98.209 26.8721C96.734 26.8721 95.5391 28.044 95.5391 29.4897C95.5391 30.9353 96.734 32.1073 98.209 32.1073Z" stroke="#111B22" stroke-width="1.72427" stroke-linecap="round" stroke-linejoin="round"/>
<path d="M102.792 38.467C102.792 36.4448 100.741 34.8047 98.208 34.8047C95.6761 34.8047 93.625 36.4448 93.625 38.467" stroke="#111B22" stroke-width="1.72427" stroke-linecap="round" stroke-linejoin="round"/>
</g>
</g>
<defs>
<filter id="filter0_d_55998_733345" x="63.5919" y="6.05474" width="70.3074" height="69.5564" filterUnits="userSpaceOnUse" color-interpolation-filters="sRGB">
<feFlood flood-opacity="0" result="BackgroundImageFix"/>
<feColorMatrix in="SourceAlpha" type="matrix" values="0 0 0 0 0 0 0 0 0 0 0 0 0 0 0 0 0 0 127 0" result="hardAlpha"/>
<feOffset dy="7.81147"/>
<feGaussianBlur stdDeviation="7.81147"/>
<feColorMatrix type="matrix" values="0 0 0 0 0.0705882 0 0 0 0 0.105882 0 0 0 0 0.129412 0 0 0 0.1 0"/>
<feBlend mode="normal" in2="BackgroundImageFix" result="effect1_dropShadow_55998_733345"/>
<feBlend mode="normal" in="SourceGraphic" in2="effect1_dropShadow_55998_733345" result="shape"/>
</filter>
<filter id="filter1_d_55998_733345" x="63.5919" y="6.05474" width="70.3074" height="69.5564" filterUnits="userSpaceOnUse" color-interpolation-filters="sRGB">
<feFlood flood-opacity="0" result="BackgroundImageFix"/>
<feColorMatrix in="SourceAlpha" type="matrix" values="0 0 0 0 0 0 0 0 0 0 0 0 0 0 0 0 0 0 127 0" result="hardAlpha"/>
<feOffset dy="7.81147"/>
<feGaussianBlur stdDeviation="7.81147"/>
<feColorMatrix type="matrix" values="0 0 0 0 0.0705882 0 0 0 0 0.105882 0 0 0 0 0.129412 0 0 0 0.1 0"/>
<feBlend mode="normal" in2="BackgroundImageFix" result="effect1_dropShadow_55998_733345"/>
<feBlend mode="normal" in="SourceGraphic" in2="effect1_dropShadow_55998_733345" result="shape"/>
</filter>
<clipPath id="clip0_55998_733345">
<rect width="196" height="121" fill="white"/>
</clipPath>
</defs>
</svg>
