<svg width="196" height="121" viewBox="0 0 196 121" fill="none" xmlns="http://www.w3.org/2000/svg">
<path d="M77.2526 23.71H121.686C122.791 23.71 123.851 24.2821 124.633 25.3004C125.415 26.3187 125.854 27.6998 125.854 29.1399V98.0027C125.854 99.4428 125.415 100.823 124.633 101.842C123.851 102.86 122.791 103.432 121.686 103.432H71.5588C70.4534 103.432 69.3932 102.86 68.6115 101.842C67.8298 100.823 67.3906 99.4428 67.3906 98.0027V36.6876L77.2526 23.71Z" fill="white"/>
<path fill-rule="evenodd" clip-rule="evenodd" d="M76.5451 23.1789C76.7125 22.9586 76.9741 22.8291 77.2517 22.8291H121.685C123.114 22.8291 124.418 23.57 125.336 24.7659C126.25 25.9567 126.739 27.5321 126.739 29.1404V98.0032C126.739 99.6115 126.25 101.187 125.336 102.378C124.418 103.574 123.114 104.315 121.685 104.315H71.5579C70.1286 104.315 68.8246 103.574 67.9066 102.378C66.9925 101.187 66.5039 99.6115 66.5039 98.0032V36.6881C66.5039 36.4962 66.5668 36.3096 66.6831 36.1565L76.5451 23.1789ZM77.6924 24.5918L68.2755 36.9838V98.0032C68.2755 99.2751 68.6653 100.462 69.3145 101.308C69.9599 102.149 70.7763 102.552 71.5579 102.552H121.685C122.466 102.552 123.283 102.149 123.928 101.308C124.577 100.462 124.967 99.2751 124.967 98.0032V29.1404C124.967 27.8685 124.577 26.6816 123.928 25.8358C123.283 24.9951 122.466 24.5918 121.685 24.5918H77.6924Z" fill="#111B22"/>
<path d="M67.3906 36.6876H75.4686C75.9425 36.6847 76.3963 36.4374 76.7306 35.9999C77.0649 35.5623 77.2526 34.9701 77.2526 34.3527V23.71L67.3906 36.6876Z" fill="white" stroke="#111B22" stroke-width="1.77162" stroke-linecap="round" stroke-linejoin="round"/>
<path d="M96.9795 42.2298L75.9153 42.134C75.5279 42.1323 75.2124 42.4449 75.2107 42.8323L75.2107 42.8323C75.2089 43.2197 75.5215 43.5352 75.9089 43.537L96.9731 43.6327C97.3605 43.6345 97.676 43.3219 97.6777 42.9345C97.6795 42.5471 97.3669 42.2316 96.9795 42.2298Z" fill="#DCDCDC"/>
<path d="M75.9153 42.134L96.9795 42.2298C97.3669 42.2316 97.6795 42.5471 97.6777 42.9345L97.6777 42.9345C97.676 43.3219 97.3605 43.6345 96.9731 43.6327L75.9089 43.537C75.5215 43.5352 75.2089 43.2197 75.2107 42.8323L75.2107 42.8323C75.2124 42.4449 75.5279 42.1323 75.9153 42.134Z" stroke="#111B22" stroke-width="1.40292"/>
<path d="M113.856 59.8766L75.9778 59.7044C75.5904 59.7026 75.2749 60.0152 75.2732 60.4026L75.2732 60.4026C75.2714 60.79 75.584 61.1055 75.9714 61.1073L113.85 61.2795C114.237 61.2813 114.553 60.9687 114.554 60.5813C114.556 60.1939 114.244 59.8784 113.856 59.8766Z" fill="#DCDCDC"/>
<path d="M75.9778 59.7044L113.856 59.8766C114.244 59.8784 114.556 60.1939 114.554 60.5813L114.554 60.5813C114.553 60.9687 114.237 61.2813 113.85 61.2795L75.9714 61.1073C75.584 61.1055 75.2714 60.79 75.2732 60.4026L75.2732 60.4026C75.2749 60.0152 75.5904 59.7026 75.9778 59.7044Z" stroke="#111B22" stroke-width="1.40292"/>
<path d="M111.534 73.8976L75.9153 73.7356C75.5279 73.7339 75.2124 74.0465 75.2107 74.4339C75.2089 74.8213 75.5215 75.1368 75.9089 75.1385L111.528 75.3005C111.915 75.3023 112.231 74.9896 112.232 74.6022C112.234 74.2148 111.921 73.8993 111.534 73.8976Z" fill="#DCDCDC" stroke="#111B22" stroke-width="1.40292"/>
<path d="M106.41 88.3352L75.9153 88.1965C75.5279 88.1948 75.2124 88.5074 75.2107 88.8948L75.2107 88.8948C75.2089 89.2822 75.5215 89.5977 75.9089 89.5995L106.403 89.7381C106.791 89.7399 107.106 89.4273 107.108 89.0399C107.11 88.6525 106.797 88.337 106.41 88.3352Z" fill="#DCDCDC"/>
<path d="M75.9153 88.1965L106.41 88.3352C106.797 88.337 107.11 88.6525 107.108 89.0399L107.108 89.0399C107.106 89.4273 106.791 89.7399 106.403 89.7381L75.9089 89.5995C75.5215 89.5977 75.2089 89.2822 75.2107 88.8948L75.2107 88.8948C75.2124 88.5074 75.5279 88.1948 75.9153 88.1965Z" stroke="#111B22" stroke-width="1.40292"/>
<path d="M87.8126 47.8006L75.888 47.7464C75.5006 47.7446 75.1851 48.0572 75.1833 48.4446L75.1833 48.4446C75.1816 48.832 75.4942 49.1475 75.8816 49.1493L87.8063 49.2035C88.1937 49.2052 88.5091 48.8926 88.5109 48.5052C88.5127 48.1178 88.2 47.8023 87.8126 47.8006Z" fill="#EEEEEE"/>
<path d="M75.888 47.7464L87.8126 47.8006C88.2 47.8023 88.5127 48.1178 88.5109 48.5052L88.5109 48.5052C88.5091 48.8926 88.1937 49.2052 87.8063 49.2035L75.8816 49.1493C75.4942 49.1475 75.1816 48.832 75.1833 48.4446L75.1833 48.4446C75.1851 48.0572 75.5006 47.7446 75.888 47.7464Z" stroke="#111B22" stroke-width="1.40292"/>
<path d="M87.879 65.3719L75.9544 65.3176C75.567 65.3159 75.2515 65.6285 75.2497 66.0159L75.2497 66.0159C75.248 66.4033 75.5606 66.7188 75.948 66.7205L87.8727 66.7748C88.2601 66.7765 88.5755 66.4639 88.5773 66.0765L88.5773 66.0765C88.5791 65.6891 88.2664 65.3736 87.879 65.3719Z" fill="#EEEEEE" stroke="#111B22" stroke-width="1.40292"/>
<path d="M87.8126 79.4012L75.888 79.3469C75.5006 79.3452 75.1851 79.6578 75.1833 80.0452C75.1816 80.4326 75.4942 80.7481 75.8816 80.7498L87.8063 80.8041C88.1937 80.8058 88.5091 80.4932 88.5109 80.1058C88.5127 79.7184 88.2 79.4029 87.8126 79.4012Z" fill="#EEEEEE" stroke="#111B22" stroke-width="1.40292"/>
<path d="M87.8126 93.8631L75.888 93.8089C75.5006 93.8071 75.1851 94.1197 75.1833 94.5071C75.1816 94.8945 75.4942 95.21 75.8816 95.2118L87.8063 95.266C88.1937 95.2678 88.5091 94.9551 88.5109 94.5677C88.5127 94.1803 88.2 93.8648 87.8126 93.8631Z" fill="#EEEEEE" stroke="#111B22" stroke-width="1.40292"/>
<g filter="url(#filter0_d_56001_733844)">
<path d="M102.402 32.1418C102.402 34.4062 102.848 36.6485 103.713 38.7405C104.579 40.8326 105.847 42.7335 107.446 44.3347C109.045 45.9359 110.943 47.206 113.032 48.0726C115.122 48.9391 117.361 49.3851 119.622 49.3851C121.884 49.3851 124.123 48.9391 126.212 48.0726C128.301 47.206 130.2 45.9359 131.799 44.3347C133.398 42.7335 134.666 40.8326 135.531 38.7405C136.397 36.6485 136.842 34.4062 136.842 32.1418C136.842 27.5686 135.028 23.1826 131.799 19.9489C128.569 16.7151 124.189 14.8984 119.622 14.8984C115.055 14.8984 110.675 16.7151 107.446 19.9489C104.217 23.1826 102.402 27.5686 102.402 32.1418Z" fill="#BDD9EB"/>
<path fill-rule="evenodd" clip-rule="evenodd" d="M106.635 19.1441C110.079 15.6956 114.751 13.7568 119.625 13.7568C124.498 13.7568 129.171 15.6956 132.615 19.1441C136.058 22.5924 137.992 27.2678 137.992 32.1413C137.992 34.5546 137.517 36.9444 136.594 39.1744C135.672 41.4044 134.32 43.4311 132.615 45.1386C130.909 46.8461 128.885 48.2009 126.656 49.1254C124.427 50.0499 122.038 50.5258 119.625 50.5258C117.212 50.5258 114.822 50.0499 112.594 49.1254C110.365 48.2009 108.34 46.8461 106.635 45.1386C104.93 43.4311 103.577 41.4044 102.655 39.1744C101.733 36.9444 101.258 34.5546 101.258 32.1413C101.258 27.2678 103.191 22.5924 106.635 19.1441ZM119.625 16.0392C115.364 16.0392 111.277 17.7339 108.262 20.7528C105.247 23.772 103.552 27.8684 103.552 32.1413C103.552 34.2569 103.968 36.3516 104.776 38.3058C105.584 40.2599 106.769 42.035 108.262 43.5299C109.755 45.0248 111.527 46.2102 113.476 47.0188C115.426 47.8274 117.515 48.2435 119.625 48.2435C121.734 48.2435 123.824 47.8274 125.773 47.0188C127.723 46.2102 129.495 45.0248 130.987 43.5299C132.48 42.035 133.665 40.2599 134.473 38.3058C135.282 36.3516 135.698 34.2569 135.698 32.1413C135.698 27.8684 134.003 23.772 130.987 20.7528C127.973 17.7339 123.885 16.0392 119.625 16.0392Z" fill="#0078CE"/>
<path d="M113.883 32.3508L117.493 35.9837L124.725 28.7178" stroke="#0078CE" stroke-width="3.05848" stroke-linecap="round" stroke-linejoin="round"/>
</g>
<path d="M149.101 36.4991L149.101 36.4991C149.164 36.8038 148.968 37.1032 148.664 37.1679L143.358 38.2962C143.053 38.3609 142.756 38.1664 142.693 37.8617L142.693 37.8617C142.63 37.557 142.826 37.2576 143.13 37.1929L148.436 36.0646C148.74 35.9999 149.038 36.1944 149.101 36.4991Z" fill="#999999" stroke="#0078CE" stroke-width="1.12663"/>
<path d="M135.15 55.3841L135.15 55.3841C134.839 55.4503 134.535 55.2514 134.47 54.9399L133.417 49.8401C133.353 49.5286 133.553 49.2225 133.864 49.1564C134.175 49.0902 134.48 49.2891 134.544 49.6006L135.597 54.7004C135.661 55.0119 135.461 55.318 135.15 55.3841Z" fill="#999999"/>
<path d="M135.15 55.3841L135.15 55.3841C135.461 55.318 135.661 55.0119 135.597 54.7004L134.544 49.6006C134.48 49.2891 134.175 49.0902 133.864 49.1564L133.864 49.1564C133.553 49.2225 133.353 49.5286 133.417 49.8401L134.47 54.9399C134.535 55.2514 134.839 55.4503 135.15 55.3841Z" stroke="#0078CE" stroke-width="1.15171"/>
<path d="M146.189 47.7461C146.455 47.9158 146.528 48.2659 146.353 48.5281C146.177 48.7904 145.82 48.8654 145.553 48.6957L141.096 45.8525C140.83 45.6828 140.756 45.3327 140.932 45.0705C141.107 44.8082 141.465 44.7332 141.731 44.9029L146.189 47.7461Z" fill="#999999" stroke="#0078CE" stroke-width="1.14259"/>
<path d="M114.108 25.1131C109.504 18.3206 117.719 14.8945 117.719 14.8945C112.657 15.7518 110.219 17.2579 107.007 20.8797C106.623 21.3122 106.295 21.7935 106.031 22.3076C104.784 24.7347 104.087 26.5893 103.471 28.9715C102.998 30.7995 102.965 32.7151 103.326 34.5683C103.656 36.2548 104.012 37.746 104.533 39.591C104.884 40.8328 105.455 42.0077 106.264 43.0129C107.966 45.1278 109.548 46.6018 110.99 47.6944C111.839 48.3372 112.818 48.7752 113.836 49.0892L117.267 50.1487C117.267 50.1487 113.828 47.5754 119.976 45.0394C126.123 42.5034 118.712 31.9057 114.108 25.1131Z" fill="#0078CE" fill-opacity="0.2"/>
<defs>
<filter id="filter0_d_56001_733844" x="89.0239" y="7.63987" width="61.2023" height="61.2364" filterUnits="userSpaceOnUse" color-interpolation-filters="sRGB">
<feFlood flood-opacity="0" result="BackgroundImageFix"/>
<feColorMatrix in="SourceAlpha" type="matrix" values="0 0 0 0 0 0 0 0 0 0 0 0 0 0 0 0 0 0 127 0" result="hardAlpha"/>
<feOffset dy="6.11697"/>
<feGaussianBlur stdDeviation="6.11697"/>
<feColorMatrix type="matrix" values="0 0 0 0 0.0705882 0 0 0 0 0.105882 0 0 0 0 0.129412 0 0 0 0.1 0"/>
<feBlend mode="normal" in2="BackgroundImageFix" result="effect1_dropShadow_56001_733844"/>
<feBlend mode="normal" in="SourceGraphic" in2="effect1_dropShadow_56001_733844" result="shape"/>
</filter>
</defs>
</svg>
