<svg width="196" height="121" viewBox="0 0 196 121" fill="none" xmlns="http://www.w3.org/2000/svg">
<path d="M58.6832 35.4876C58.3618 35.5538 58.0488 35.3466 57.9842 35.0249C57.9196 34.7032 58.1277 34.3887 58.4492 34.3226L64.0217 33.1751C64.3432 33.109 64.6561 33.3161 64.7207 33.6379C64.7854 33.9596 64.5772 34.274 64.2558 34.3402L58.6832 35.4876Z" fill="#999999" stroke="#0078CE" stroke-width="1.18834"/>
<path d="M72.7385 15.2167L72.7385 15.2167C73.0658 15.1493 73.3844 15.3603 73.4502 15.6878L74.5339 21.0825C74.5997 21.4101 74.3877 21.7302 74.0605 21.7976C73.7332 21.865 73.4146 21.6541 73.3488 21.3265L72.2651 15.9319C72.1993 15.6043 72.4113 15.2841 72.7385 15.2167Z" fill="#999999"/>
<path d="M72.7385 15.2167L72.7385 15.2167C72.4113 15.2841 72.1993 15.6043 72.2651 15.9319L73.3488 21.3265C73.4146 21.6541 73.7332 21.865 74.0605 21.7976L74.0605 21.7976C74.3877 21.7302 74.5997 21.4101 74.5339 21.0825L73.4502 15.6878C73.3844 15.3603 73.0658 15.1493 72.7385 15.2167Z" stroke="#0078CE" stroke-width="1.20993"/>
<path d="M61.0973 23.1869C60.8189 23.0061 60.7437 22.6366 60.9294 22.3615C61.1151 22.0863 61.4913 22.0098 61.7698 22.1905L66.4429 25.2235C66.7213 25.4043 66.7965 25.7738 66.6108 26.0489C66.4251 26.3241 66.0488 26.4006 65.7704 26.2199L61.0973 23.1869Z" fill="#999999" stroke="#0078CE" stroke-width="1.20207"/>
<path d="M97.681 26.21C119.16 26.2101 136.573 43.6228 136.573 65.1025C136.573 86.5821 119.16 103.995 97.681 103.995C76.2009 103.995 58.7882 86.5822 58.7881 65.1025C58.7881 43.6227 76.2008 26.21 97.681 26.21Z" fill="#BFDBEE" stroke="#111B22" stroke-width="1.34113"/>
<path d="M89.1994 38.5932L95.3872 27.5518C82.275 28.1508 75.9327 32.1804 66.1178 43.3306C65.8524 43.6321 65.6097 43.9653 65.4062 44.3117C59.955 53.5879 58.9315 59.5192 59.6684 70.1984C59.6982 70.6298 59.7735 71.0651 59.8893 71.4817C63.3296 83.8501 66.5927 89.7557 76.0509 96.5591C84.9419 101.759 89.1328 102.749 95.7206 102.647L101.756 92.6278C102.615 91.2011 103.21 89.6312 103.513 87.9934C104.459 82.8701 102.454 77.6485 98.322 74.4754L94.4896 71.5326C93.313 70.6292 92.22 69.594 91.2512 68.4706C87.7114 64.3657 85.719 59.0736 85.719 53.6532V51.9227C85.719 47.2549 86.9174 42.6652 89.1994 38.5932Z" fill="#A6D2F0"/>
<path d="M112.333 45.7275C112.403 46.6945 112.625 47.6457 112.998 48.5439C113.456 49.648 114.128 50.6502 114.976 51.4932C115.819 52.3427 116.824 53.0177 117.93 53.4766C118.828 53.8493 119.78 54.0708 120.747 54.1406V103.996H74.6123V54.1387C76.7823 53.9763 78.8317 53.0452 80.3809 51.4961C81.93 49.9469 82.8611 47.8976 83.0234 45.7275H112.333Z" fill="white" stroke="#111B22" stroke-width="1.34113"/>
<path d="M97.68 54.6953C104.301 54.6953 109.669 60.0629 109.669 66.6846C109.669 73.3063 104.301 78.6738 97.68 78.6738C91.058 78.6738 85.6904 73.3062 85.6904 66.6846C85.6905 60.0629 91.058 54.6953 97.68 54.6953Z" fill="#BFDBEE" stroke="#111B22" stroke-width="1.34113"/>
<path d="M93.6602 66.5109L96.3928 69.2611L101.868 63.7607" stroke="#0078CE" stroke-width="2.31529" stroke-linecap="round" stroke-linejoin="round"/>
<path d="M90.8213 83.1816H104.536C105.04 83.1817 105.448 83.5901 105.448 84.0938C105.448 84.5972 105.04 85.0048 104.536 85.0049H90.8213C90.3178 85.0049 89.9094 84.5972 89.9092 84.0938C89.9092 83.5901 90.3176 83.1816 90.8213 83.1816Z" fill="#111B22" stroke="#111B22" stroke-width="1.34113"/>
<path d="M86.0713 89.5107H109.281C109.785 89.5107 110.193 89.9192 110.193 90.4228C110.193 90.9263 109.785 91.334 109.281 91.334H86.0713C85.5678 91.334 85.1594 90.9263 85.1592 90.4228C85.1592 89.9192 85.5676 89.5107 86.0713 89.5107Z" fill="#111B22" stroke="#111B22" stroke-width="1.34113"/>
</svg>
