<svg width="196" height="121" viewBox="0 0 196 121" fill="none" xmlns="http://www.w3.org/2000/svg">
<rect x="53.2975" y="23.0284" width="90.5392" height="14.7029" rx="7.35147" fill="white" stroke="#111B22" stroke-width="2.32152"/>
<path d="M69.7812 102.976V36.9413C69.7812 34.7521 70.6478 32.6526 72.1902 31.1046C73.7327 29.5567 75.8247 28.687 78.0061 28.687H119.13C121.311 28.687 123.403 29.5567 124.946 31.1046C126.488 32.6526 127.355 34.7521 127.355 36.9413V102.976L115.018 94.7213L106.793 102.976L98.5681 94.7213L90.3433 102.976L82.1185 94.7213L69.7812 102.976Z" fill="#BFDBEE"/>
<path fill-rule="evenodd" clip-rule="evenodd" d="M78.0067 29.8479C76.1345 29.8479 74.3382 30.5942 73.0131 31.9241C71.6879 33.254 70.9426 35.0588 70.9426 36.9414V100.802L81.4736 93.7567C81.9347 93.4481 82.5497 93.5091 82.9413 93.9021L90.3439 101.331L97.7464 93.9021C97.9642 93.6835 98.2601 93.5606 98.5687 93.5606C98.8772 93.5606 99.1731 93.6835 99.3909 93.9021L106.793 101.331L114.196 93.9021C114.588 93.5091 115.203 93.4481 115.664 93.7567L126.195 100.802V36.9414C126.195 35.0588 125.449 33.254 124.124 31.9241C122.799 30.5942 121.003 29.8479 119.131 29.8479H78.0067ZM71.3686 30.2854C73.1284 28.5193 75.5161 27.5264 78.0067 27.5264H119.131C121.621 27.5264 124.009 28.5193 125.769 30.2854C127.528 32.0514 128.516 34.4457 128.516 36.9414V102.976C128.516 103.404 128.28 103.798 127.902 104C127.524 104.201 127.066 104.179 126.71 103.94L115.166 96.2172L107.616 103.795C107.398 104.014 107.102 104.136 106.793 104.136C106.485 104.136 106.189 104.014 105.971 103.795L98.5687 96.3659L91.1661 103.795C90.9483 104.014 90.6524 104.136 90.3439 104.136C90.0353 104.136 89.7394 104.014 89.5216 103.795L81.9708 96.2172L70.4273 103.94C70.0712 104.179 69.6129 104.201 69.235 104C68.8571 103.798 68.6211 103.404 68.6211 102.976V36.9414C68.6211 34.4457 69.6089 32.0514 71.3686 30.2854Z" fill="#111B22"/>
<g filter="url(#filter0_d_54275_1043769)">
<ellipse cx="98.4746" cy="52.692" rx="17.5527" ry="17.5045" fill="#BFDBEE" stroke="#0078CE" stroke-width="1.61376"/>
<path d="M98.5586 44.5791C98.9066 44.5791 99.1967 44.6973 99.4287 44.9336C99.6608 45.17 99.7773 45.4657 99.7773 45.8203V46.7158C100.066 46.7538 100.367 46.8149 100.682 46.9023C101.192 47.0324 101.64 47.2148 102.022 47.4512C102.289 47.593 102.475 47.7889 102.579 48.0371C102.695 48.2851 102.736 48.539 102.701 48.7988C102.678 49.0469 102.585 49.2718 102.423 49.4727C102.272 49.6736 102.063 49.8099 101.796 49.8809C101.541 49.94 101.233 49.8929 100.873 49.7393C100.606 49.6211 100.305 49.526 99.9688 49.4551C99.6439 49.3723 99.2254 49.3311 98.7148 49.3311C98.1001 49.3311 97.6245 49.4434 97.2881 49.668C96.9632 49.8926 96.8008 50.1825 96.8008 50.5371C96.8009 50.7733 96.8936 50.9742 97.0791 51.1396C97.2763 51.2933 97.6302 51.4297 98.1406 51.5479L100.125 51.9912C101.227 52.2394 102.039 52.6532 102.562 53.2324C103.095 53.7998 103.362 54.5382 103.362 55.4482C103.362 56.1575 103.194 56.7844 102.857 57.3281C102.521 57.8717 102.051 58.3155 101.448 58.6582C100.959 58.9416 100.401 59.1419 99.7773 59.2637V60.2354C99.7773 60.5899 99.6607 60.8857 99.4287 61.1221C99.2083 61.3585 98.9183 61.4766 98.5586 61.4766C98.2221 61.4765 97.9381 61.3585 97.7061 61.1221C97.474 60.8857 97.3574 60.5899 97.3574 60.2354V59.3652C96.7971 59.3149 96.2983 59.2278 95.8613 59.1006C95.2928 58.9351 94.8284 58.77 94.4688 58.6045C94.1672 58.4627 93.9529 58.2618 93.8252 58.002C93.7092 57.742 93.6624 57.4759 93.6855 57.2041C93.7204 56.9322 93.819 56.6836 93.9814 56.459C94.1439 56.2344 94.3532 56.0865 94.6084 56.0156C94.8751 55.9331 95.1824 55.9685 95.5303 56.1221C95.7623 56.2521 96.1102 56.3885 96.5742 56.5303C97.0498 56.6603 97.636 56.7246 98.332 56.7246C98.8193 56.7246 99.203 56.6776 99.4814 56.583C99.7711 56.4885 99.9738 56.3644 100.09 56.2109C100.217 56.0454 100.281 55.8678 100.281 55.6787C100.281 55.5015 100.235 55.3535 100.143 55.2354C100.061 55.1054 99.9218 54.993 99.7246 54.8984C99.5275 54.7921 99.2549 54.6979 98.9072 54.6152L96.9404 54.1895C95.8614 53.9412 95.0542 53.5275 94.5205 52.9482C93.9985 52.3573 93.7373 51.5948 93.7373 50.6611C93.7373 49.9519 93.9057 49.3192 94.2422 48.7637C94.5902 48.1964 95.0718 47.7355 95.6865 47.3809C96.1788 47.1022 96.7362 46.9042 97.3574 46.7861V45.8203C97.3574 45.4657 97.474 45.17 97.7061 44.9336C97.9381 44.6973 98.2222 44.5791 98.5586 44.5791Z" fill="#0078CE"/>
<path d="M98.5586 44.5791C98.9066 44.5791 99.1967 44.6973 99.4287 44.9336C99.6608 45.17 99.7773 45.4657 99.7773 45.8203V46.7158C100.066 46.7538 100.367 46.8149 100.682 46.9023C101.192 47.0324 101.64 47.2148 102.022 47.4512C102.289 47.593 102.475 47.7889 102.579 48.0371C102.695 48.2851 102.736 48.539 102.701 48.7988C102.678 49.0469 102.585 49.2718 102.423 49.4727C102.272 49.6736 102.063 49.8099 101.796 49.8809C101.541 49.94 101.233 49.8929 100.873 49.7393C100.606 49.6211 100.305 49.526 99.9688 49.4551C99.6439 49.3723 99.2254 49.3311 98.7148 49.3311C98.1001 49.3311 97.6245 49.4434 97.2881 49.668C96.9632 49.8926 96.8008 50.1825 96.8008 50.5371C96.8009 50.7733 96.8936 50.9742 97.0791 51.1396C97.2763 51.2933 97.6302 51.4297 98.1406 51.5479L100.125 51.9912C101.227 52.2394 102.039 52.6532 102.562 53.2324C103.095 53.7998 103.362 54.5382 103.362 55.4482C103.362 56.1575 103.194 56.7844 102.857 57.3281C102.521 57.8717 102.051 58.3155 101.448 58.6582C100.959 58.9416 100.401 59.1419 99.7773 59.2637V60.2354C99.7773 60.5899 99.6607 60.8857 99.4287 61.1221C99.2083 61.3585 98.9183 61.4766 98.5586 61.4766C98.2221 61.4765 97.9381 61.3585 97.7061 61.1221C97.474 60.8857 97.3574 60.5899 97.3574 60.2354V59.3652C96.7971 59.3149 96.2983 59.2278 95.8613 59.1006C95.2928 58.9351 94.8284 58.77 94.4688 58.6045C94.1672 58.4627 93.9529 58.2618 93.8252 58.002C93.7092 57.742 93.6624 57.4759 93.6855 57.2041C93.7204 56.9322 93.819 56.6836 93.9814 56.459C94.1439 56.2344 94.3532 56.0865 94.6084 56.0156C94.8751 55.9331 95.1824 55.9685 95.5303 56.1221C95.7623 56.2521 96.1102 56.3885 96.5742 56.5303C97.0498 56.6603 97.636 56.7246 98.332 56.7246C98.8193 56.7246 99.203 56.6776 99.4814 56.583C99.7711 56.4885 99.9738 56.3644 100.09 56.2109C100.217 56.0454 100.281 55.8678 100.281 55.6787C100.281 55.5015 100.235 55.3535 100.143 55.2354C100.061 55.1054 99.9218 54.993 99.7246 54.8984C99.5275 54.7921 99.2549 54.6979 98.9072 54.6152L96.9404 54.1895C95.8614 53.9412 95.0542 53.5275 94.5205 52.9482C93.9985 52.3573 93.7373 51.5948 93.7373 50.6611C93.7373 49.9519 93.9057 49.3192 94.2422 48.7637C94.5902 48.1964 95.0718 47.7355 95.6865 47.3809C96.1788 47.1022 96.7362 46.9042 97.3574 46.7861V45.8203C97.3574 45.4657 97.474 45.17 97.7061 44.9336C97.9381 44.6973 98.2222 44.5791 98.5586 44.5791Z" stroke="#0078CE"/>
</g>
<path d="M83.002 77.9038H101.029C101.665 77.9038 102.181 78.4193 102.181 79.0562C102.181 79.6929 101.665 80.2085 101.029 80.2085H83.002C82.3664 80.2085 81.8506 79.6929 81.8506 79.0562C81.8506 78.4193 82.3664 77.9038 83.002 77.9038Z" fill="#111B22" stroke="#111B22" stroke-width="1.85721"/>
<path d="M83.002 86.9204H113.51C114.145 86.9204 114.661 87.4359 114.661 88.0728C114.661 88.7095 114.145 89.2251 113.51 89.2251H83.002C82.3664 89.2251 81.8506 88.7095 81.8506 88.0728C81.8506 87.4359 82.3664 86.9204 83.002 86.9204Z" fill="#111B22" stroke="#111B22" stroke-width="1.85721"/>
<path d="M84.5187 58.9137C74.656 46.9972 84.2607 39.6659 90.4438 29.606L77.2886 29.9929L75.7409 30.3798L74.5801 30.7667L72.2586 32.7013L71.4848 34.249L70.7109 36.1836V90.6909V100.799L74.5801 98.4776L82.3185 93.4477L89.9431 101.573L98.1822 93.4477L100.504 90.7392C100.504 90.7392 95.3676 96.6492 89.9431 85.7257C84.5187 74.8023 94.3813 70.8301 84.5187 58.9137Z" fill="#0078CE" fill-opacity="0.2"/>
<rect x="0.56521" y="0.403179" width="0.984228" height="5.69671" rx="0.492114" transform="matrix(0.162647 0.986684 0.985888 -0.167405 42.5758 29.9018)" fill="#999999" stroke="#0078CE" stroke-width="0.984228"/>
<rect x="-0.412503" y="0.578281" width="1.00214" height="5.55938" rx="0.501071" transform="matrix(-0.985888 0.167406 0.162645 0.986685 55.9188 14.3224)" fill="#999999" stroke="#0078CE" stroke-width="1.00214"/>
<rect x="0.115159" y="0.688071" width="0.995622" height="5.60986" rx="0.497811" transform="matrix(-0.587994 0.808865 0.819325 0.573329 45.7441 19.5911)" fill="#999999" stroke="#0078CE" stroke-width="0.995622"/>
<defs>
<filter id="filter0_d_54275_1043769" x="71.5066" y="30.0775" width="53.9361" height="53.836" filterUnits="userSpaceOnUse" color-interpolation-filters="sRGB">
<feFlood flood-opacity="0" result="BackgroundImageFix"/>
<feColorMatrix in="SourceAlpha" type="matrix" values="0 0 0 0 0 0 0 0 0 0 0 0 0 0 0 0 0 0 127 0" result="hardAlpha"/>
<feOffset dy="4.30336"/>
<feGaussianBlur stdDeviation="4.30336"/>
<feColorMatrix type="matrix" values="0 0 0 0 0.0705882 0 0 0 0 0.105882 0 0 0 0 0.129412 0 0 0 0.1 0"/>
<feBlend mode="normal" in2="BackgroundImageFix" result="effect1_dropShadow_54275_1043769"/>
<feBlend mode="normal" in="SourceGraphic" in2="effect1_dropShadow_54275_1043769" result="shape"/>
</filter>
</defs>
</svg>
