<svg width="196" height="121" viewBox="0 0 196 121" fill="none" xmlns="http://www.w3.org/2000/svg">
<path d="M48.9289 39.7944L80.1117 27.4789C80.8875 27.1725 81.8015 27.309 82.6527 27.8584C83.5038 28.4078 84.2223 29.325 84.6502 30.4084L105.11 82.2115C105.537 83.2949 105.64 84.4556 105.394 85.4383C105.148 86.421 104.573 87.1452 103.798 87.4516L68.6189 101.345C67.8431 101.652 66.9291 101.515 66.078 100.966C65.2269 100.416 64.5083 99.4991 64.0805 98.4158L45.8635 52.2905L48.9289 39.7944Z" fill="white" stroke="#111B22" stroke-width="1.505" stroke-linecap="round" stroke-linejoin="round"/>
<path d="M45.8635 52.2905L51.5326 50.0515C51.8643 49.918 52.1093 49.6062 52.2139 49.1844C52.3185 48.7625 52.2743 48.265 52.0909 47.8006L48.9289 39.7944L45.8635 52.2905Z" fill="white" stroke="#111B22" stroke-width="1.505" stroke-linecap="round" stroke-linejoin="round"/>
<rect x="53.9278" y="54.6401" width="19.0862" height="1.19179" rx="0.595894" transform="rotate(-21.2907 53.9278 54.6401)" fill="#DCDCDC" stroke="#111B22" stroke-width="1.19179"/>
<rect x="59.463" y="68.5044" width="33.3701" height="1.19179" rx="0.595894" transform="rotate(-21.2907 59.463 68.5044)" fill="#DCDCDC" stroke="#111B22" stroke-width="1.19179"/>
<rect x="63.7911" y="79.6099" width="31.4505" height="1.19179" rx="0.595894" transform="rotate(-21.2907 63.7911 79.6099)" fill="#DCDCDC" stroke="#111B22" stroke-width="1.19179"/>
<rect x="68.3028" y="91.0351" width="27.0974" height="1.19179" rx="0.595894" transform="rotate(-21.2907 68.3028 91.0351)" fill="#DCDCDC" stroke="#111B22" stroke-width="1.19179"/>
<rect x="55.6622" y="59.0815" width="11.322" height="1.19179" rx="0.595894" transform="rotate(-21.2907 55.6622 59.0815)" fill="#EEEEEE" stroke="#111B22" stroke-width="1.19179"/>
<rect x="61.1974" y="72.9463" width="11.322" height="1.19179" rx="0.595894" transform="rotate(-21.2907 61.1974 72.9463)" fill="#EEEEEE" stroke="#111B22" stroke-width="1.19179"/>
<rect x="65.5255" y="84.0498" width="11.322" height="1.19179" rx="0.595894" transform="rotate(-21.2907 65.5255 84.0498)" fill="#EEEEEE" stroke="#111B22" stroke-width="1.19179"/>
<rect x="70.0411" y="95.4775" width="11.322" height="1.19179" rx="0.595894" transform="rotate(-21.2907 70.0411 95.4775)" fill="#EEEEEE" stroke="#111B22" stroke-width="1.19179"/>
<path d="M150.79 38.0566L119.607 25.7411C118.831 25.4347 117.917 25.5712 117.066 26.1206C116.215 26.67 115.496 27.5872 115.069 28.6706L94.6092 80.4737C94.1813 81.5571 94.0792 82.7178 94.3252 83.7005C94.5712 84.6832 95.1453 85.4074 95.9211 85.7138L131.1 99.6075C131.876 99.9139 132.79 99.7774 133.641 99.228C134.492 98.6786 135.21 97.7613 135.638 96.678L153.855 50.5527L150.79 38.0566Z" fill="white" stroke="#111B22" stroke-width="1.505" stroke-linecap="round" stroke-linejoin="round"/>
<path d="M153.855 50.5527L148.186 48.3137C147.854 48.1802 147.609 47.8684 147.505 47.4466C147.4 47.0247 147.444 46.5272 147.628 46.0628L150.79 38.0566L153.855 50.5527Z" fill="white" stroke="#111B22" stroke-width="1.505" stroke-linecap="round" stroke-linejoin="round"/>
<rect x="-0.771594" y="0.338855" width="19.0862" height="1.19179" rx="0.595894" transform="matrix(-0.93175 -0.363101 -0.363101 0.93175 145.183 52.305)" fill="#DCDCDC" stroke="#111B22" stroke-width="1.19179"/>
<rect x="-0.771594" y="0.338855" width="33.3701" height="1.19179" rx="0.595894" transform="matrix(-0.93175 -0.363101 -0.363101 0.93175 139.648 66.1707)" fill="#DCDCDC" stroke="#111B22" stroke-width="1.19179"/>
<rect x="-0.771594" y="0.338855" width="31.4505" height="1.19179" rx="0.595894" transform="matrix(-0.93175 -0.363101 -0.363101 0.93175 135.316 77.2752)" fill="#DCDCDC" stroke="#111B22" stroke-width="1.19179"/>
<rect x="-0.771594" y="0.338855" width="27.0974" height="1.19179" rx="0.595894" transform="matrix(-0.93175 -0.363101 -0.363101 0.93175 130.812 88.701)" fill="#DCDCDC" stroke="#111B22" stroke-width="1.19179"/>
<rect x="-0.771594" y="0.338855" width="11.322" height="1.19179" rx="0.595894" transform="matrix(-0.93175 -0.363101 -0.363101 0.93175 143.453 56.7469)" fill="#EEEEEE" stroke="#111B22" stroke-width="1.19179"/>
<rect x="-0.771594" y="0.338855" width="11.322" height="1.19179" rx="0.595894" transform="matrix(-0.93175 -0.363101 -0.363101 0.93175 137.918 70.6111)" fill="#EEEEEE" stroke="#111B22" stroke-width="1.19179"/>
<rect x="-0.771594" y="0.338855" width="11.322" height="1.19179" rx="0.595894" transform="matrix(-0.93175 -0.363101 -0.363101 0.93175 133.586 81.7166)" fill="#EEEEEE" stroke="#111B22" stroke-width="1.19179"/>
<rect x="-0.771594" y="0.338855" width="11.322" height="1.19179" rx="0.595894" transform="matrix(-0.93175 -0.363101 -0.363101 0.93175 129.074 93.1424)" fill="#EEEEEE" stroke="#111B22" stroke-width="1.19179"/>
<path d="M76.4517 15.7603H125.636C126.86 15.7603 128.034 16.3967 128.899 17.5296C129.764 18.6625 130.25 20.1991 130.25 21.8012V98.4129C130.25 100.015 129.764 101.552 128.899 102.685C128.034 103.817 126.86 104.454 125.636 104.454H70.1491C68.9254 104.454 67.7518 103.817 66.8865 102.685C66.0213 101.552 65.5352 100.015 65.5352 98.4129V30.1982L76.4517 15.7603Z" fill="white" stroke="#111B22" stroke-width="1.96106" stroke-linecap="round" stroke-linejoin="round"/>
<path d="M65.5352 30.1982H74.477C75.0015 30.195 75.5038 29.9199 75.8739 29.4331C76.244 28.9463 76.4517 28.2874 76.4517 27.6006V15.7603L65.5352 30.1982Z" fill="white" stroke="#111B22" stroke-width="1.96106" stroke-linecap="round" stroke-linejoin="round"/>
<rect x="74.1987" y="36.1506" width="48.3263" height="1.55294" rx="0.776468" transform="rotate(0.260546 74.1987 36.1506)" fill="#DCDCDC" stroke="#111B22" stroke-width="1.55294"/>
<rect x="74.2651" y="50.6989" width="43.4822" height="1.55294" rx="0.776468" transform="rotate(0.260546 74.2651 50.6989)" fill="#DCDCDC" stroke="#111B22" stroke-width="1.55294"/>
<rect x="74.1987" y="64.2692" width="40.9809" height="1.55294" rx="0.776468" transform="rotate(0.260546 74.1987 64.2692)" fill="#DCDCDC" stroke="#111B22" stroke-width="1.55294"/>
<rect x="74.1987" y="87.1394" width="25.3529" height="1.55294" rx="0.776468" transform="rotate(0.260546 74.1987 87.1394)" fill="#DCDCDC" stroke="#111B22" stroke-width="1.55294"/>
<rect x="74.1675" y="42.362" width="37.8246" height="1.55294" rx="0.776468" transform="rotate(0.260546 74.1675 42.362)" fill="#EEEEEE" stroke="#111B22" stroke-width="1.55294"/>
<rect x="74.2417" y="56.9128" width="14.7529" height="1.55294" rx="0.776468" transform="rotate(0.260546 74.2417 56.9128)" fill="#EEEEEE" stroke="#111B22" stroke-width="1.55294"/>
<rect x="74.1675" y="70.4797" width="14.7529" height="1.55294" rx="0.776468" transform="rotate(0.260546 74.1675 70.4797)" fill="#EEEEEE" stroke="#111B22" stroke-width="1.55294"/>
<rect x="74.1675" y="93.3503" width="14.7529" height="1.55294" rx="0.776468" transform="rotate(0.260546 74.1675 93.3503)" fill="#EEEEEE" stroke="#111B22" stroke-width="1.55294"/>
<rect x="0.538435" y="0.511527" width="1.05259" height="6.07867" rx="0.526293" transform="matrix(0.0234586 0.999725 0.999614 -0.0277813 44.1473 34.07)" fill="#999999" stroke="#0078CE" stroke-width="1.05259"/>
<rect x="-0.522089" y="0.549554" width="1.06969" height="5.94754" rx="0.534844" transform="matrix(-0.999614 0.0277787 0.0234613 0.999725 60.572 19.5718)" fill="#999999" stroke="#0078CE" stroke-width="1.06969"/>
<rect x="0.0191357" y="0.745642" width="1.06346" height="5.99572" rx="0.53173" transform="matrix(-0.69456 0.719434 0.730548 0.682861 49.0307 23.6246)" fill="#999999" stroke="#0078CE" stroke-width="1.06346"/>
<path d="M118.733 77.6021C126.952 77.6021 133.615 84.2648 133.615 92.4839C133.615 100.703 126.952 107.366 118.733 107.366C110.514 107.366 103.852 100.703 103.852 92.4839C103.852 84.2648 110.514 77.6021 118.733 77.6021Z" fill="#CFE4F1" stroke="#0078CE" stroke-width="1.98425"/>
<path d="M112.688 86.7404C109.154 81.5007 115.459 78.8579 115.459 78.8579C111.573 79.5194 109.702 80.6816 107.235 83.4771C106.942 83.8092 106.692 84.1785 106.49 84.5728C105.529 86.4537 104.993 87.8887 104.518 89.7374C104.16 91.1341 104.134 92.597 104.408 94.0127C104.663 95.3258 104.938 96.4834 105.342 97.9195C105.61 98.87 106.045 99.7697 106.662 100.541C107.97 102.175 109.185 103.314 110.293 104.158C110.945 104.655 111.699 104.993 112.482 105.236L115.113 106.052C115.113 106.052 112.473 104.067 117.191 102.111C121.909 100.155 116.222 91.98 112.688 86.7404Z" fill="#0078CE" fill-opacity="0.2"/>
<path d="M122.189 80.936C122.225 80.9448 122.259 80.9568 122.292 80.9731L122.384 81.0327C122.587 81.2003 122.69 81.4556 122.695 81.8218C122.7 82.1949 122.601 82.6432 122.439 83.1274C122.279 83.6081 122.067 84.1004 121.861 84.5571C121.66 85.0041 121.458 85.4326 121.338 85.7563C121.274 85.9267 121.252 86.1091 121.298 86.2915C121.344 86.474 121.45 86.6251 121.586 86.7456L121.588 86.7476C123.485 88.3983 125.417 90.6754 126.444 93.0845C127.468 95.4859 127.579 97.9714 125.933 100.132C124.087 102.556 120.509 103.65 117.187 103.265C113.869 102.881 110.951 101.045 110.3 97.77C109.474 93.6117 112.222 89.5107 115.491 86.8999L115.49 86.8989C115.681 86.7484 115.811 86.5347 115.858 86.2964C115.906 86.0571 115.867 85.8081 115.75 85.5942C115.412 84.97 115.036 84.2471 114.778 83.4995C114.52 82.7491 114.393 82.0052 114.521 81.3325V81.3276C114.527 81.2891 114.545 81.2545 114.568 81.2271C114.58 81.2133 114.593 81.2013 114.607 81.1919L114.652 81.1704C114.933 81.0812 115.214 81.0723 115.502 81.144L115.505 81.145C115.633 81.1758 115.722 81.2409 115.79 81.353C115.974 81.6594 116.236 81.8677 116.566 81.9585L116.712 81.9907C117.064 82.0484 117.381 81.9386 117.621 81.6743L117.623 81.6733C118.036 81.2139 118.385 81.0613 118.675 81.0757C118.969 81.0903 119.32 81.2817 119.722 81.7866C119.842 81.94 120.011 82.0478 120.201 82.0913C120.392 82.1349 120.592 82.1109 120.768 82.0249H120.769C121.135 81.8434 121.422 81.5568 121.631 81.1821C121.668 81.1166 121.718 81.0603 121.777 81.0171C121.837 80.9738 121.905 80.9441 121.976 80.9302C122.046 80.9163 122.119 80.9185 122.189 80.936ZM119.101 88.3657C118.744 88.2552 118.387 88.25 118.04 88.3589H118.039C117.856 88.4164 117.697 88.5305 117.583 88.6841C117.469 88.8377 117.406 89.0241 117.403 89.2153V89.2173C117.4 89.6664 117.266 89.7953 117.152 89.8403C116.009 90.2917 115.181 91.2356 114.93 92.2808C114.673 93.3475 115.028 94.49 116.188 95.2544C117.017 95.8012 118.059 96.0235 119.286 95.9556H119.287C119.633 95.9352 119.757 96.0279 119.811 96.1108C119.883 96.2232 119.929 96.4656 119.828 96.9282C119.811 97.0061 119.779 97.0625 119.73 97.1069L119.676 97.1479L119.67 97.1519C119.173 97.4715 118.717 97.5097 118.264 97.3823C117.789 97.2491 117.301 96.9293 116.78 96.4976C116.526 96.2846 116.235 96.1446 115.919 96.1675C115.601 96.1906 115.34 96.3726 115.133 96.6235C115.027 96.7476 114.95 96.8931 114.922 97.0581C114.901 97.1818 114.91 97.3039 114.94 97.4214L114.978 97.5376C115.389 98.5922 116.146 99.3151 117.224 99.6909C117.283 99.712 117.312 99.7383 117.329 99.7593C117.338 99.77 117.346 99.7847 117.354 99.8052L117.374 99.8872L117.444 100.454C117.468 100.645 117.559 100.823 117.701 100.954C117.844 101.085 118.03 101.161 118.225 101.165H118.229L118.894 101.171V101.169C119.072 101.172 119.256 101.131 119.408 101.009C119.56 100.888 119.639 100.719 119.677 100.545L119.678 100.546L119.825 99.9009L119.826 99.895C119.838 99.8408 119.862 99.7894 119.899 99.7466C119.937 99.7037 119.985 99.6709 120.039 99.6509C121.48 99.1161 122.276 97.9192 122.319 96.6978C122.363 95.4686 121.642 94.2618 120.169 93.7339L119.993 93.6792C119.581 93.5669 119.148 93.5566 118.77 93.5415C118.314 93.5233 117.92 93.4984 117.568 93.355L117.565 93.354L117.49 93.3169C117.419 93.2747 117.357 93.2159 117.311 93.144C117.248 93.0479 117.215 92.9334 117.219 92.8169C117.222 92.7003 117.261 92.5876 117.329 92.4956C117.397 92.4038 117.491 92.3366 117.596 92.3022H117.597C118.245 92.0887 118.806 92.0702 119.295 92.2173C119.783 92.3642 120.233 92.6862 120.64 93.2153L120.641 93.2173C120.719 93.3181 120.822 93.3979 120.939 93.4487C121.057 93.4995 121.186 93.5195 121.313 93.5063C121.441 93.4932 121.563 93.447 121.668 93.3735C121.773 93.3001 121.857 93.2017 121.914 93.0874L121.915 93.0864L122.055 92.7983C122.182 92.5411 122.243 92.2737 122.215 92.0015C122.187 91.7287 122.074 91.4776 121.896 91.2515L121.894 91.2485L121.704 91.0239C121.249 90.516 120.707 90.1095 120.082 89.8052L120.079 89.8032L119.984 89.7466C119.928 89.7039 119.886 89.651 119.855 89.5835L119.818 89.4712L119.729 89.0581H119.73C119.658 88.7151 119.437 88.4724 119.104 88.3657H119.101Z" fill="#0078CE" stroke="#111B22" stroke-width="0.684567"/>
</svg>
