<svg width="196" height="121" viewBox="0 0 196 121" fill="none" xmlns="http://www.w3.org/2000/svg">
<path d="M86.9826 20.5372C86.7603 20.3369 86.7458 19.9959 86.9502 19.7757C87.1546 19.5555 87.5006 19.5394 87.7229 19.7397L91.4806 23.1258C91.703 23.3262 91.7175 23.6671 91.5131 23.8874C91.3087 24.1076 90.9627 24.1237 90.7404 23.9233L86.9826 20.5372Z" fill="#999999" stroke="#0078CE" stroke-width="1.08595"/>
<path d="M108.625 19.786C108.83 19.5658 109.176 19.5496 109.398 19.75C109.621 19.9504 109.635 20.2913 109.431 20.5116L105.976 24.2331C105.772 24.4533 105.426 24.4694 105.203 24.2691C104.981 24.0687 104.967 23.7277 105.171 23.5075L108.625 19.786Z" fill="#999999" stroke="#0078CE" stroke-width="1.08604"/>
<path d="M97.3559 15.6289C97.3433 15.3315 97.5776 15.079 97.8794 15.065C98.1811 15.0509 98.4361 15.2806 98.4487 15.578L98.6631 20.6039C98.6758 20.9013 98.4414 21.1538 98.1397 21.1678C97.8379 21.1818 97.583 20.9521 97.5703 20.6547L97.3559 15.6289Z" fill="#999999" stroke="#0078CE" stroke-width="1.08595"/>
<path d="M99.0337 62.7017H96.9727V100.985H99.0337V62.7017Z" fill="white"/>
<mask id="mask0_55358_765043" style="mask-type:luminance" maskUnits="userSpaceOnUse" x="96" y="62" width="4" height="39">
<path d="M99.0337 62.7017H96.9727V100.985H99.0337V62.7017Z" fill="white"/>
</mask>
<g mask="url(#mask0_55358_765043)">
<path d="M96.975 62.7021V59.481H93.7539V62.7021H96.975ZM99.036 62.7021H102.257V59.481H99.036V62.7021ZM99.036 100.985V104.206H102.257V100.985H99.036ZM96.975 100.985H93.7539V104.206H96.975V100.985ZM96.975 62.7021V65.9232H99.036V62.7021V59.481H96.975V62.7021ZM99.036 62.7021H95.815V100.985H99.036H102.257V62.7021H99.036ZM99.036 100.985V97.7642H96.975V100.985V104.206H99.036V100.985ZM96.975 100.985H100.196V62.7021H96.975H93.7539V100.985H96.975Z" fill="#111B22"/>
</g>
<path d="M97.9974 32.8682C106.665 38.869 111.558 48.5464 114.283 56.7997C115.655 60.9563 116.474 64.7378 116.949 67.4791C117.187 68.849 117.339 69.9583 117.431 70.7243C117.441 70.8071 117.447 70.8867 117.456 70.9612C114.318 68.6515 109.686 67.5016 105.776 66.9224C103.643 66.6065 101.7 66.4561 100.291 66.3855C99.5868 66.3502 99.015 66.3356 98.6186 66.3289C98.4204 66.3255 98.2659 66.324 98.1606 66.3236H97.8422C97.7369 66.324 97.5821 66.3255 97.3843 66.3289C96.9878 66.3358 96.4159 66.3515 95.7116 66.3868C94.3029 66.4575 92.3609 66.6064 90.2278 66.9224C86.3145 67.5022 81.6766 68.6531 78.5391 70.9665C78.5476 70.8874 78.5554 70.8034 78.5653 70.7152C78.6525 69.9447 78.7962 68.8284 79.0259 67.4514C79.4857 64.697 80.2863 60.9007 81.6462 56.7339C84.3461 48.4604 89.2362 38.7845 97.9974 32.8682Z" fill="#ACD2EC" stroke="#111B22" stroke-width="0.805275"/>
<path d="M96.8278 32.8325C88.342 40.0913 83.5683 49.6398 80.9067 57.4562C79.5277 61.5062 78.713 65.0991 78.2432 67.6802C78.0083 68.9705 77.8597 70.0085 77.7694 70.7255C77.7489 70.888 77.7329 71.035 77.7181 71.1637C77.6991 71.1512 77.6802 71.1373 77.6602 71.1242C77.2574 70.8594 76.6696 70.4891 75.9258 70.0649C74.4383 69.2166 72.3222 68.1487 69.8062 67.2736C65.0073 65.6044 58.7078 64.6202 52.5469 67.246C52.6101 67.0746 52.6803 66.878 52.7641 66.6617C53.1267 65.7246 53.6846 64.3818 54.4644 62.7663C56.0245 59.5337 58.4697 55.213 62.009 50.8591C68.9234 42.3534 80.0024 33.7328 96.8278 32.8325Z" fill="#ACD2EC" stroke="#111B22" stroke-width="0.805275"/>
<path d="M99.168 32.8325C115.995 33.7322 127.075 42.3528 133.99 50.8591C137.529 55.213 139.973 59.5337 141.534 62.7663C142.314 64.3818 142.872 65.7246 143.234 66.6617C143.318 66.8778 143.387 67.0746 143.45 67.246C137.289 64.6208 130.991 65.6044 126.192 67.2736C123.676 68.1487 121.56 69.2166 120.073 70.0649C119.329 70.4892 118.741 70.8594 118.338 71.1242C118.318 71.1376 118.298 71.1509 118.279 71.1637C118.264 71.035 118.249 70.888 118.229 70.7255C118.139 70.0085 117.99 68.9704 117.755 67.6802C117.285 65.0991 116.471 61.5062 115.092 57.4562C112.43 49.6394 107.654 40.0916 99.168 32.8325Z" fill="#ACD2EC" stroke="#111B22" stroke-width="0.805275"/>
<path d="M137.698 69.1108C140.818 69.7263 142.501 71.0782 143.405 72.5127C144.366 74.0375 144.485 75.7164 144.416 76.8554L144.392 77.2437L144.78 77.2806C144.806 77.2829 144.828 77.2813 144.846 77.2806C145 77.3105 145.129 77.3976 145.217 77.5228L145.483 77.9044L145.822 77.5846C148.42 75.1362 151.077 75.0878 153.1 75.6422C154.12 75.9215 154.981 76.3555 155.588 76.7212C155.815 76.8587 156.005 76.9876 156.155 77.0923C154.28 78.7349 152.104 79.544 150.344 79.9388C149.41 80.1484 148.6 80.2402 148.025 80.2798C147.737 80.2995 147.509 80.307 147.354 80.3086C147.276 80.3096 147.216 80.3092 147.177 80.3086C147.158 80.3083 147.144 80.3075 147.134 80.3074H147.122L147.121 80.3127L146.94 81.0759C149.284 82.1432 150.204 84.1231 150.537 85.8806C150.704 86.7603 150.72 87.5748 150.695 88.1704C150.688 88.3411 150.677 88.4933 150.666 88.6232C146.676 86.9489 145.249 84.2529 144.729 82.5025L144.599 82.0629L144.179 82.2498C144.077 82.2955 143.998 82.3076 143.931 82.2971C143.87 82.288 143.81 82.2618 143.74 82.2129L143.378 81.9616L143.159 82.3419C141.592 85.0593 139.287 89.9412 139.21 95.2875L139.208 95.5112L139.395 95.6322C141.24 96.8174 142.684 98.5655 143.489 100.634H124.078C124.919 98.4733 126.459 96.6615 128.423 95.4783L128.588 95.3795L128.615 95.1887C129.141 91.3246 128.019 87.558 127.191 85.4332L127.033 85.0265L126.639 85.2187C126.593 85.2413 126.562 85.2463 126.541 85.2463C126.519 85.2463 126.484 85.2392 126.425 85.2016L126.039 84.9581L125.844 85.37C125.3 86.5245 124.039 88.2359 121.137 89.0101C121.142 88.9577 121.144 88.9016 121.15 88.8429C121.197 88.4184 121.297 87.8432 121.51 87.2401C121.935 86.0355 122.792 84.7507 124.544 84.2554L124.481 83.4684C124.48 83.4683 124.476 83.4674 124.473 83.4671C124.467 83.4663 124.457 83.4649 124.444 83.4632C124.417 83.4594 124.375 83.4536 124.321 83.4447C124.211 83.4268 124.05 83.3978 123.848 83.3526C123.444 83.2621 122.878 83.1081 122.237 82.8577C121.061 82.3979 119.651 81.6162 118.516 80.3139C118.607 80.2713 118.711 80.2249 118.828 80.1771C119.297 79.9839 119.953 79.7707 120.703 79.6836C122.186 79.5115 124.047 79.829 125.614 81.8353L125.901 82.2024L126.222 81.8641C126.278 81.8055 126.35 81.771 126.429 81.7655C126.442 81.7677 126.457 81.7724 126.474 81.7734L126.863 81.797L126.899 81.4076C126.973 80.5939 127.24 79.4282 128.075 78.4636C128.839 77.5814 130.122 76.819 132.307 76.6922C132.237 76.9126 132.134 77.2061 131.966 77.5556C131.551 78.4149 130.77 79.6297 129.313 80.9983L128.428 81.8313L129.635 81.6918C129.635 81.6918 129.637 81.6921 129.639 81.6918C129.643 81.6914 129.65 81.6912 129.66 81.6904C129.679 81.6888 129.711 81.686 129.752 81.684C129.834 81.6797 129.958 81.6763 130.114 81.6799C130.425 81.6873 130.863 81.7239 131.36 81.8406C132.229 82.0443 133.269 82.4909 134.149 83.4486C133.823 83.5453 133.363 83.6688 132.808 83.7777C131.641 84.0057 130.059 84.1757 128.381 83.9553L127.996 83.9053L127.93 84.2856C127.912 84.3938 127.874 84.4624 127.836 84.5015L127.625 84.7133L127.766 84.9765C129.452 88.1365 130.235 91.7886 130.582 94.0188L130.651 94.4623L131.085 94.3452C131.947 94.114 132.85 93.986 133.784 93.986C134.471 93.986 135.142 94.0603 135.797 94.1885L136.155 94.2583L136.261 93.9095C137.115 91.0558 139.002 85.7394 142.22 81.4339L142.4 81.193L142.221 80.9522C142.154 80.8599 142.11 80.7268 142.108 80.5535L142.101 80.1666L141.714 80.1586L141.275 80.1429C139.097 80.0375 137.131 79.5082 135.677 78.9861C134.904 78.7081 134.278 78.4325 133.847 78.2281C133.792 78.2015 133.739 78.1732 133.691 78.1491C135.168 76.8874 136.789 76.458 138.091 76.3553C138.803 76.2991 139.417 76.3417 139.85 76.3975C140.067 76.4254 140.239 76.4567 140.353 76.4804C140.411 76.4924 140.456 76.5026 140.484 76.5094C140.497 76.5127 140.508 76.5157 140.514 76.5173L140.52 76.5185L141.693 76.8383L140.943 75.8817C139.235 73.7009 138.418 71.8669 138.027 70.5926C137.83 69.9551 137.742 69.456 137.7 69.1214C137.7 69.1178 137.7 69.1143 137.698 69.1108Z" fill="#ACD2EC" stroke="#0078CE" stroke-width="0.805275"/>
<path d="M58.2994 69.1214C58.2585 69.456 58.1686 69.9551 57.973 70.5926C57.5818 71.8669 56.7653 73.7007 55.0568 75.8817L54.3066 76.8383L55.4793 76.5185L55.4857 76.5173C55.4921 76.5157 55.5033 76.5127 55.5174 76.5094C55.5457 76.5026 55.5891 76.4923 55.6464 76.4804C55.7616 76.4567 55.9325 76.4254 56.149 76.3975C56.5829 76.3417 57.1968 76.2991 57.9099 76.3553C59.2107 76.458 60.8316 76.8879 62.3079 78.1491C62.259 78.173 62.2083 78.2017 62.1527 78.2281C61.7221 78.4325 61.096 78.7081 60.3221 78.9861C58.7721 79.5429 56.6383 80.1088 54.2869 80.1586L53.9 80.1666L53.8921 80.5535C53.889 80.7269 53.8469 80.8599 53.7789 80.9522L53.6013 81.193L53.7802 81.4339C56.9989 85.7394 58.8864 91.0558 59.7405 93.9095L59.8444 94.2583L60.2023 94.1885C60.8579 94.0603 61.5289 93.986 62.2159 93.986C63.1497 93.986 64.0541 94.114 64.9163 94.3452L65.3493 94.4623L65.4177 94.0188C65.7643 91.7884 66.5486 88.1366 68.2353 84.9765L68.3747 84.7133L68.1641 84.5015C68.1253 84.4624 68.088 84.3937 68.0694 84.2856L68.0036 83.9053L67.6193 83.9553C65.9413 84.1755 64.36 84.0056 63.1937 83.7777C62.6363 83.6687 62.1765 83.5454 61.85 83.4486C62.7298 82.4905 63.7714 82.0444 64.6399 81.8406C65.1368 81.7239 65.5746 81.6873 65.8861 81.6799C66.0417 81.6763 66.1652 81.6797 66.2481 81.684C66.2893 81.686 66.3203 81.6888 66.3401 81.6904C66.35 81.6912 66.357 81.6914 66.3612 81.6918H66.3652L67.572 81.8313L66.6863 80.9983C65.23 79.6298 64.4506 78.4147 64.0359 77.5556C63.8669 77.2057 63.7617 76.9127 63.6924 76.6922C65.8775 76.8188 67.1602 77.5811 67.9246 78.4636C68.7601 79.4284 69.0267 80.5939 69.1012 81.4076L69.1367 81.797L69.5276 81.7734C69.5431 81.7724 69.557 81.7675 69.5696 81.7655C69.6486 81.7708 69.7212 81.8053 69.7776 81.8641L70.0987 82.2024L70.3856 81.8353C71.9534 79.8289 73.8147 79.5114 75.2982 79.6836C76.0482 79.7707 76.7042 79.9839 77.1735 80.1771C77.2894 80.2248 77.3933 80.2714 77.4842 80.3139C76.3494 81.6158 74.9403 82.3981 73.7637 82.8577C73.1228 83.1081 72.5572 83.2621 72.153 83.3526C71.951 83.3978 71.7898 83.4268 71.6805 83.4447C71.6259 83.4536 71.584 83.4594 71.5568 83.4632C71.5437 83.4649 71.5342 83.4663 71.5278 83.4671C71.5251 83.4674 71.5226 83.4683 71.5214 83.4684L71.4568 84.2554C73.2096 84.7507 74.0664 86.0355 74.4916 87.2401C74.7044 87.8432 74.8038 88.4184 74.8508 88.8429C74.8573 88.9016 74.8581 88.9577 74.8626 89.0101C71.9617 88.2357 70.7005 86.5244 70.1567 85.37L69.9618 84.9581L69.5762 85.2016C69.5169 85.2392 69.4825 85.2463 69.4605 85.2463C69.4389 85.2463 69.4083 85.2413 69.3617 85.2187L68.9682 85.0265L68.8103 85.4332C67.9825 87.558 66.8604 91.3246 67.3864 95.1887L67.4127 95.3795L67.5786 95.4783C69.5422 96.6616 71.083 98.473 71.924 100.634H52.5116C53.3164 98.5655 54.7615 96.8174 56.6057 95.6322L56.7938 95.5112L56.7913 95.2875C56.7139 89.9412 54.4108 85.0594 52.8419 82.3419L52.6221 81.9616L52.2616 82.2129C52.1918 82.2618 52.1304 82.288 52.0708 82.2971C52.0032 82.3076 51.9247 82.2955 51.822 82.2498L51.4023 82.0629L51.272 82.5025C50.7517 84.253 49.3243 86.9489 45.3341 88.6232C45.3226 88.4933 45.3124 88.3412 45.3051 88.1704C45.2801 87.5749 45.2964 86.7603 45.4631 85.8806C45.7963 84.1231 46.7163 82.1434 49.0598 81.0759L48.8781 80.3074H48.8663C48.8571 80.3075 48.8423 80.3083 48.8229 80.3086C48.7838 80.3092 48.7241 80.3096 48.6465 80.3086C48.4915 80.307 48.2627 80.2995 47.9754 80.2798C47.3999 80.2402 46.5899 80.1484 45.6566 79.9388C43.8969 79.544 41.7189 78.7356 39.8438 77.0923C39.9931 76.9875 40.1839 76.8589 40.4123 76.7212C41.0191 76.3555 41.8798 75.9215 42.8995 75.6422C44.9232 75.0878 47.58 75.1363 50.1784 77.5846L50.5179 77.9044L50.7851 77.5228C50.8724 77.3981 50.9998 77.3108 51.1522 77.2806C51.1708 77.2814 51.1943 77.283 51.2206 77.2806L51.6075 77.2437L51.5838 76.8554C51.5145 75.7164 51.6342 74.0375 52.5945 72.5127C53.4978 71.0785 55.1806 69.7264 58.2994 69.1108C58.299 69.1142 58.2998 69.1178 58.2994 69.1214Z" fill="#ACD2EC" stroke="#0078CE" stroke-width="0.805275"/>
<path d="M144.346 104.669H51.6523V107.269H144.346V104.669Z" fill="white"/>
<mask id="mask1_55358_765043" style="mask-type:luminance" maskUnits="userSpaceOnUse" x="51" y="104" width="94" height="4">
<path d="M144.346 104.669H51.6523V107.269H144.346V104.669Z" fill="white"/>
</mask>
<g mask="url(#mask1_55358_765043)">
<path d="M51.6507 104.669V101.448H48.4297V104.669H51.6507ZM144.344 104.669H147.566V101.448H144.344V104.669ZM144.344 107.27V110.491H147.566V107.27H144.344ZM51.6507 107.27H48.4297V110.491H51.6507V107.27ZM51.6507 104.669V107.891H144.344V104.669V101.448H51.6507V104.669ZM144.344 104.669H141.123V107.27H144.344H147.566V104.669H144.344ZM144.344 107.27V104.049H51.6507V107.27V110.491H144.344V107.27ZM51.6507 107.27H54.8718V104.669H51.6507H48.4297V107.27H51.6507Z" fill="#111B22"/>
</g>
<path d="M73.0379 41.2396C62.7304 48.3261 55.5903 61.1031 53.3086 66.6057C62.972 62.4183 73.4405 67.5452 77.4669 70.632C76.3932 65.1293 74.3264 52.8355 74.6485 47.6816C74.9705 42.5279 84.1775 38.5552 88.7407 37.2132C87.8013 35.6027 83.3454 34.1532 73.0379 41.2396Z" fill="#99C7E7"/>
<path d="M122.919 41.0587C133.461 48.2858 140.764 61.3165 143.096 66.9283C133.214 62.6578 122.507 67.8865 118.389 71.0346C119.488 65.4227 121.601 52.8847 121.272 47.6287C120.943 42.3726 111.526 38.3211 106.859 36.9523C107.82 35.3099 112.377 33.8316 122.919 41.0587Z" fill="#99C7E7"/>
</svg>
