<svg width="196" height="121" viewBox="0 0 196 121" fill="none" xmlns="http://www.w3.org/2000/svg">
<path d="M136.566 31.4156C137.483 31.7022 137.994 32.6779 137.708 33.5947L123.177 80.0804C122.89 80.9973 121.915 81.5082 120.998 81.2216L101.906 75.2539C100.989 74.9673 100.478 73.9917 100.765 73.0748L109.372 45.539C109.51 45.0987 109.817 44.7311 110.225 44.5171L112.896 43.1183C113.224 42.9467 113.598 42.884 113.964 42.9394L124.71 44.567L125.852 39.4567L114.293 35.4431C113.406 35.135 112.923 34.1777 113.204 33.281L115.296 26.5891C115.582 25.6722 116.558 25.1613 117.475 25.4479L136.566 31.4156Z" fill="white"/>
<path d="M137.139 32.5049L122.089 80.651C121.946 81.1093 121.458 81.3654 121 81.2222L101.908 75.2543C101.45 75.111 101.195 74.6229 101.338 74.1645L116.388 26.0185C116.531 25.5602 117.018 25.305 117.477 25.4482L136.569 31.4161C137.027 31.5594 137.282 32.0466 137.139 32.5049Z" stroke="#111B22" stroke-width="1.73939"/>
<path d="M135.582 37.486C132.373 36.4829 130.585 33.0682 131.588 29.859" stroke="#111B22" stroke-width="1.73939"/>
<path d="M102.062 68.9246C105.73 70.0711 107.89 73.6019 106.887 76.8111" stroke="#111B22" stroke-width="1.73939"/>
<path d="M122.457 27.0054C121.454 30.2146 117.668 31.8868 114 30.7404" stroke="#111B22" stroke-width="1.73939"/>
<path d="M116.018 79.6647C117.021 76.4555 120.435 74.6672 123.644 75.6703" stroke="#111B22" stroke-width="1.73939"/>
<ellipse cx="119.11" cy="53.7504" rx="6.52282" ry="6.52262" transform="rotate(107.358 119.11 53.7504)" fill="white" stroke="#111B22" stroke-width="1.73939"/>
<path d="M117.138 54.6542C117.019 55.0423 117.074 55.9079 118.243 56.265C119.411 56.6221 119.94 55.9352 120.059 55.547C120.178 55.1589 120.123 54.2934 118.954 53.9362C117.494 53.4898 117.761 52.6165 117.85 52.3254C117.939 52.0343 118.205 51.1611 119.666 51.6075C120.835 51.9646 120.889 52.8301 120.771 53.2183" stroke="#0078CE" stroke-width="0.869696" stroke-linecap="round"/>
<path d="M118.039 56.9302L119.869 50.9419" stroke="#0078CE" stroke-width="0.869696" stroke-linecap="round"/>
<path d="M78.2696 25.2426C79.1692 24.9055 80.1717 25.3616 80.5087 26.2612L97.5958 71.8691C97.9329 72.7687 97.4768 73.7712 96.5773 74.1082L77.846 81.1259C76.9465 81.4629 75.944 81.0069 75.607 80.1073L65.4854 53.0914C65.3235 52.6595 65.3399 52.1809 65.5309 51.761L66.7793 49.0167C66.9325 48.6799 67.1891 48.4008 67.5117 48.2198L76.9921 42.903L74.7541 38.169L63.1675 42.1018C62.2779 42.4037 61.3092 41.9447 60.9796 41.0649L58.5198 34.4993C58.1828 33.5998 58.6388 32.5973 59.5384 32.2603L78.2696 25.2426Z" fill="white"/>
<path d="M79.3891 25.7514L97.0866 72.9883C97.2551 73.4381 97.0277 73.9395 96.578 74.1081L77.8465 81.1259C77.3968 81.2943 76.8959 81.0657 76.7274 80.616L59.0299 33.379C58.8615 32.9293 59.0892 32.4287 59.5389 32.2602L78.2703 25.2424C78.72 25.074 79.2206 25.3017 79.3891 25.7514Z" stroke="#111B22" stroke-width="1.73939"/>
<path d="M81.2218 30.6385C78.0734 31.8181 74.5647 30.2219 73.3851 27.0733" stroke="#111B22" stroke-width="1.73939"/>
<path d="M74.0829 76.0344C77.6811 74.6863 81.5544 76.1458 82.734 79.2944" stroke="#111B22" stroke-width="1.73939"/>
<path d="M64.4254 30.4287C65.605 33.5773 63.6443 37.2225 60.046 38.5706" stroke="#111B22" stroke-width="1.73939"/>
<path d="M91.6898 75.9391C90.5102 72.7905 92.1063 69.2818 95.2547 68.1022" stroke="#111B22" stroke-width="1.73939"/>
<ellipse cx="78.2117" cy="53.5909" rx="6.52282" ry="6.52262" transform="rotate(69.4614 78.2117 53.5909)" fill="white" stroke="#111B22" stroke-width="1.73939"/>
<path d="M77.2199 55.5124C77.3646 55.8915 77.9396 56.5409 79.081 56.1049C80.2225 55.669 80.2182 54.8018 80.0734 54.4226C79.9286 54.0435 79.3537 53.3942 78.2123 53.8301C76.7855 54.375 76.4597 53.5219 76.3511 53.2375C76.2425 52.9532 75.9167 52.1001 77.3435 51.5552C78.4849 51.1193 79.0599 51.7686 79.2047 52.1478" stroke="#0078CE" stroke-width="0.869696" stroke-linecap="round"/>
<path d="M79.3281 56.7554L77.0942 50.9057" stroke="#0078CE" stroke-width="0.869696" stroke-linecap="round"/>
<path d="M111.064 14.5921C112.265 14.5946 113.236 15.5701 113.234 16.7709L113.105 77.6505C113.103 78.8513 112.127 79.8227 110.927 79.8201L85.9232 79.7674C84.7224 79.7649 83.751 78.7894 83.7536 77.5886L83.8296 41.5266C83.8308 40.9499 84.0611 40.3974 84.4697 39.9905L87.14 37.3313C87.4677 37.005 87.8909 36.7917 88.3481 36.7223L101.781 34.6846L101.252 28.1606L85.9652 27.6507C84.7915 27.6115 83.861 26.6474 83.8635 25.473L83.882 16.709C83.8845 15.5082 84.86 14.5368 86.0608 14.5394L111.064 14.5921Z" fill="white"/>
<path d="M112.151 15.6813L112.018 78.7358C112.016 79.336 111.529 79.8215 110.929 79.8205L85.9247 79.7677C85.3245 79.7664 84.839 79.2787 84.8401 78.6785L84.973 15.624C84.9745 15.0238 85.462 14.5382 86.0622 14.5394L111.066 14.5921C111.666 14.5936 112.152 15.0812 112.151 15.6813Z" stroke="#111B22" stroke-width="2.17424"/>
<path d="M112.136 22.2047C107.934 22.1958 104.534 18.7815 104.543 14.5787" stroke="#111B22" stroke-width="2.17424"/>
<path d="M83.77 72.1528C88.5731 72.1629 92.4596 75.5782 92.4507 79.781" stroke="#111B22" stroke-width="2.17424"/>
<path d="M92.5835 14.553C92.5747 18.7559 88.6738 22.1547 83.8707 22.1446" stroke="#111B22" stroke-width="2.17424"/>
<path d="M104.398 79.8067C104.407 75.6039 107.821 72.204 112.024 72.2128" stroke="#111B22" stroke-width="2.17424"/>
<ellipse cx="98.4897" cy="47.7237" rx="8.15352" ry="8.15328" transform="rotate(90.1208 98.4897 47.7237)" fill="white" stroke="#111B22" stroke-width="2.17424"/>
<path d="M96.4761 49.5313C96.4783 50.0386 96.8644 51.0516 98.3917 51.0452C99.919 51.0387 100.296 50.0225 100.294 49.5152C100.292 49.0079 99.9061 47.9949 98.3788 48.0013C96.4697 48.0094 96.4649 46.8679 96.4633 46.4875C96.4617 46.107 96.4568 44.9655 98.3659 44.9575C99.8932 44.951 100.279 45.964 100.281 46.4713" stroke="#0078CE" stroke-width="1.08712" stroke-linecap="round"/>
<path d="M98.3984 51.915L98.3653 44.088" stroke="#0078CE" stroke-width="1.08712" stroke-linecap="round"/>
<rect x="0.327299" y="0.648394" width="1.03021" height="5.99075" rx="0.515104" transform="matrix(-0.315397 0.94896 0.950801 0.309803 54.4937 23.552)" fill="#999999" stroke="#0078CE" stroke-width="1.03021"/>
<rect x="-0.666745" y="0.336562" width="1.05314" height="5.81492" rx="0.526572" transform="matrix(-0.950801 -0.309802 -0.315399 0.948959 74.5125 15.6295)" fill="#999999" stroke="#0078CE" stroke-width="1.05314"/>
<rect x="-0.228349" y="0.694024" width="1.04481" height="5.87961" rx="0.522404" transform="matrix(-0.897583 0.440845 0.46047 0.887675 62.4737 15.5434)" fill="#999999" stroke="#0078CE" stroke-width="1.04481"/>
<g filter="url(#filter0_d_54300_1043796)">
<path d="M77.2617 80.5648C77.2617 83.4915 77.8345 86.3896 78.9474 89.0936C80.0603 91.7976 81.6914 94.2545 83.7478 96.324C85.8041 98.3935 88.2453 100.035 90.9321 101.155C93.6188 102.275 96.4984 102.852 99.4065 102.852C102.315 102.852 105.194 102.275 107.881 101.155C110.568 100.035 113.009 98.3935 115.065 96.324C117.122 94.2545 118.753 91.7976 119.866 89.0936C120.978 86.3896 121.551 83.4915 121.551 80.5648C121.551 74.6539 119.218 68.9851 115.065 64.8055C110.912 60.6259 105.28 58.2778 99.4065 58.2778C93.5333 58.2778 87.9007 60.6259 83.7478 64.8055C79.5948 68.9851 77.2617 74.6539 77.2617 80.5648Z" fill="#BFDBEE" stroke="#0078CE" stroke-width="2.43" stroke-linecap="round" stroke-linejoin="round"/>
<path d="M92.0273 80.7794L96.6695 85.4514L105.97 76.1074" stroke="#0078CE" stroke-width="2.43" stroke-linecap="round" stroke-linejoin="round"/>
</g>
<path d="M90.0376 74.5003C82.1521 68.1229 90.955 61.2237 90.955 61.2237C85.0182 64.0425 82.5864 66.7027 79.8696 72.2505C79.6346 72.7304 79.4586 73.2403 79.3466 73.7628C78.5506 77.4784 78.3473 80.0731 78.4657 83.5608C78.5261 85.3397 78.9905 87.0831 79.797 88.6698C80.9842 91.0056 82.0592 92.8847 83.6395 95.3548C84.2872 96.3671 85.1125 97.2593 86.0971 97.9483C89.3256 100.208 92.0744 101.513 94.4404 102.331C95.3422 102.642 96.2939 102.77 97.248 102.78L102.351 102.832C102.351 102.832 97.3078 101.009 103.905 95.8786C110.501 90.7485 97.9231 80.8777 90.0376 74.5003Z" fill="#0078CE" fill-opacity="0.2"/>
<defs>
<filter id="filter0_d_54300_1043796" x="71.9735" y="55.0263" width="54.8656" height="55.1507" filterUnits="userSpaceOnUse" color-interpolation-filters="sRGB">
<feFlood flood-opacity="0" result="BackgroundImageFix"/>
<feColorMatrix in="SourceAlpha" type="matrix" values="0 0 0 0 0 0 0 0 0 0 0 0 0 0 0 0 0 0 127 0" result="hardAlpha"/>
<feOffset dy="2.03671"/>
<feGaussianBlur stdDeviation="2.03671"/>
<feColorMatrix type="matrix" values="0 0 0 0 0.0705882 0 0 0 0 0.105882 0 0 0 0 0.129412 0 0 0 0.1 0"/>
<feBlend mode="normal" in2="BackgroundImageFix" result="effect1_dropShadow_54300_1043796"/>
<feBlend mode="normal" in="SourceGraphic" in2="effect1_dropShadow_54300_1043796" result="shape"/>
</filter>
</defs>
</svg>
