<svg width="196" height="121" viewBox="0 0 196 121" fill="none" xmlns="http://www.w3.org/2000/svg">
<path d="M122.006 20.7754H81.1992V25.3105C81.1992 28.9835 78.2217 31.9609 74.5488 31.9609H69.6562V91.1855C69.6562 93.5815 71.5982 95.5242 73.9941 95.5244H122.006C124.402 95.5242 126.344 93.5816 126.344 91.1855V25.1133C126.344 22.7174 124.402 20.7756 122.006 20.7754ZM78.8877 22.3486L71.3545 29.6494H74.5488C76.9449 29.6494 78.8877 27.7067 78.8877 25.3105V22.3486Z" fill="white" stroke="#111B22" stroke-width="2.31184"/>
<rect x="75.0002" y="54.6223" width="11.6809" height="11.6809" rx="2.27128" stroke="#111B22" stroke-width="0.648937"/>
<path d="M77.5977 60.9169L79.5944 62.734L84.087 58.1914" stroke="#111B22" stroke-width="0.648937" stroke-linejoin="round"/>
<path d="M93.5264 56.2236H106.55C106.857 56.2239 107.281 56.5479 107.281 57.1797C107.281 57.8117 106.857 58.1365 106.55 58.1367H93.5264C93.2192 58.1367 92.7939 57.812 92.7939 57.1797C92.7941 56.5476 93.2193 56.2236 93.5264 56.2236Z" fill="#111B22" stroke="#111B22" stroke-width="1.54122"/>
<path d="M106.763 63.5449C106.783 63.5694 106.814 63.6122 106.851 63.6855C106.962 63.9056 107.053 64.2637 107.053 64.7012C107.053 65.1385 106.961 65.4967 106.851 65.7168C106.814 65.7896 106.783 65.8319 106.763 65.8564H92.7012C92.6809 65.8319 92.65 65.7895 92.6133 65.7168C92.5024 65.4967 92.4112 65.1385 92.4111 64.7012C92.4111 64.2637 92.5024 63.9056 92.6133 63.6855C92.6502 63.6123 92.6809 63.5695 92.7012 63.5449H106.763Z" fill="#111B22" stroke="#111B22" stroke-width="1.54122"/>
<rect x="75.0002" y="36.8977" width="11.6809" height="11.6809" rx="2.27128" stroke="#111B22" stroke-width="0.648937"/>
<path d="M77.5977 43.1923L79.5944 45.0094L84.087 40.4668" stroke="#111B22" stroke-width="0.648937" stroke-linejoin="round"/>
<path d="M93.75 38.5H108.71C109.237 38.5001 109.665 38.9278 109.665 39.4561C109.665 39.9845 109.237 40.413 108.71 40.4131H93.75C93.2226 40.4131 92.7939 39.9845 92.7939 39.4561C92.7941 38.9278 93.2227 38.5 93.75 38.5Z" fill="#111B22" stroke="#111B22" stroke-width="1.54122"/>
<path d="M93.75 45.9829H119.066C119.594 45.9829 120.022 46.4107 120.022 46.939C120.022 47.4674 119.594 47.896 119.066 47.896H93.75C93.2226 47.896 92.7939 47.4674 92.7939 46.939C92.7941 46.4107 93.2227 45.9829 93.75 45.9829Z" fill="#111B22" stroke="#111B22" stroke-width="1.54122"/>
<rect x="75.0002" y="72.3455" width="11.6809" height="11.6809" rx="2.27128" stroke="#111B22" stroke-width="0.648937"/>
<path d="M77.5977 78.6401L79.5944 80.4571L84.087 75.9146" stroke="#111B22" stroke-width="0.648937" stroke-linejoin="round"/>
<path d="M97.7754 73.9458C97.8503 74.1545 97.9111 74.4923 97.9111 74.9019C97.9111 75.3117 97.8503 75.6501 97.7754 75.8589H92.9297C92.8547 75.6501 92.7939 75.3118 92.7939 74.9019C92.794 74.4923 92.8548 74.1545 92.9297 73.9458H97.7754Z" fill="#111B22" stroke="#111B22" stroke-width="1.54122"/>
<path d="M101.521 81.4307C101.595 81.6394 101.656 81.9771 101.656 82.3867C101.656 82.7966 101.595 83.135 101.521 83.3438H92.9297C92.8547 83.135 92.7939 82.7966 92.7939 82.3867C92.794 81.9771 92.8548 81.6394 92.9297 81.4307H101.521Z" fill="#111B22" stroke="#111B22" stroke-width="1.54122"/>
<path d="M102.027 83.9608C102.027 86.2378 102.476 88.4925 103.347 90.5961C104.219 92.6997 105.496 94.6112 107.106 96.2212C108.716 97.8313 110.627 99.1084 112.731 99.9798C114.834 100.851 117.089 101.3 119.366 101.3C121.643 101.3 123.898 100.851 126.001 99.9798C128.105 99.1084 130.016 97.8313 131.626 96.2212C133.237 94.6112 134.514 92.6997 135.385 90.5961C136.256 88.4925 136.705 86.2378 136.705 83.9608C136.705 79.3623 134.878 74.9521 131.626 71.7005C128.375 68.4488 123.965 66.6221 119.366 66.6221C114.768 66.6221 110.357 68.4488 107.106 71.7005C103.854 74.9521 102.027 79.3623 102.027 83.9608Z" fill="#CFE4F1" stroke="#0078CE" stroke-width="2.31184" stroke-linecap="round" stroke-linejoin="round"/>
<path d="M112.736 77.9912C108.366 71.4582 116.163 68.1631 116.163 68.1631C111.332 68.9923 109.019 70.4525 105.945 73.9786C105.616 74.3558 105.335 74.7739 105.108 75.2199C103.852 77.6864 103.179 79.5321 102.569 81.9869C102.179 83.5603 102.149 85.2028 102.449 86.7961C102.788 88.5958 103.148 90.1337 103.701 92.1002C104.002 93.1723 104.49 94.1871 105.178 95.0628C106.875 97.2229 108.447 98.7008 109.874 99.7831C110.618 100.347 111.475 100.737 112.366 101.016L115.735 102.07C115.735 102.07 112.47 99.5951 118.305 97.156C124.139 94.7169 117.106 84.5241 112.736 77.9912Z" fill="#0078CE" fill-opacity="0.2"/>
<path d="M119.937 82.4219L127.048 89.5674C127.841 90.3573 127.841 91.6365 127.048 92.4254C126.668 92.8042 126.152 93.0168 125.615 93.0168C125.078 93.0168 124.563 92.8042 124.182 92.4254L117.047 85.3117" stroke="#0078CE" stroke-width="1.92653" stroke-linecap="round" stroke-linejoin="round"/>
<path d="M113.199 81.4585L117.052 85.3116" stroke="#0078CE" stroke-width="1.92653" stroke-linecap="round" stroke-linejoin="round"/>
<path d="M119.947 82.4219L116.094 78.5688" stroke="#0078CE" stroke-width="1.92653" stroke-linecap="round" stroke-linejoin="round"/>
<path d="M110.312 93.0176H117.055" stroke="#0078CE" stroke-width="1.92653" stroke-linecap="round" stroke-linejoin="round"/>
<path d="M113.963 88.0009L110.509 84.5466C110.328 84.366 110.227 84.121 110.227 83.8656C110.227 83.6102 110.328 83.3652 110.509 83.1846L112.717 80.9758L113.199 81.4574L116.089 78.5676L115.607 78.086L117.816 75.8772C117.997 75.6967 118.242 75.5952 118.497 75.5952C118.752 75.5952 118.997 75.6967 119.178 75.8772L122.632 79.3315C122.813 79.5122 122.914 79.7571 122.914 80.0125C122.914 80.268 122.813 80.5129 122.632 80.6936L120.423 82.9023L119.942 82.4207L117.052 85.3105L117.534 85.7921L115.325 88.0009C115.144 88.1815 114.899 88.2829 114.644 88.2829C114.388 88.2829 114.144 88.1815 113.963 88.0009Z" stroke="#0078CE" stroke-width="1.92653" stroke-linecap="round" stroke-linejoin="round"/>
<rect x="0.531672" y="0.44137" width="0.980113" height="5.69944" rx="0.490056" transform="matrix(0.0894741 0.995989 0.995445 -0.0953377 57.744 27.7708)" fill="#999999" stroke="#0078CE" stroke-width="0.980113"/>
<rect x="-0.453862" y="0.546719" width="1.00193" height="5.53215" rx="0.500966" transform="matrix(-0.995445 0.0953392 0.0894725 0.995989 72.2017 13.2554)" fill="#999999" stroke="#0078CE" stroke-width="1.00193"/>
<rect x="0.0642761" y="0.692118" width="0.994002" height="5.5937" rx="0.497001" transform="matrix(-0.64711 0.762396 0.776438 0.630194 61.6661 17.7568)" fill="#999999" stroke="#0078CE" stroke-width="0.994002"/>
</svg>
