<svg width="196" height="121" viewBox="0 0 196 121" fill="none" xmlns="http://www.w3.org/2000/svg">
<rect x="-0.435925" y="0.676913" width="1.14139" height="6.60609" rx="0.570694" transform="matrix(-0.977854 0.209288 0.214003 0.976833 111.962 15.4453)" fill="#999999" stroke="#0078CE" stroke-width="1.14139"/>
<rect x="-0.692541" y="-0.44599" width="1.16212" height="6.44714" rx="0.581061" transform="matrix(-0.214003 -0.976833 -0.977854 0.209288 130.715 30.0465)" fill="#999999" stroke="#0078CE" stroke-width="1.16212"/>
<rect x="-0.790693" y="0.171262" width="1.15458" height="6.50556" rx="0.577288" transform="matrix(-0.835861 -0.54894 -0.533806 0.845607 124.085 18.5465)" fill="#999999" stroke="#0078CE" stroke-width="1.15458"/>
<g clip-path="url(#clip0_54233_1044491)">
<path d="M112.546 29.5005H70.1836V34.2095C70.1834 38.0223 67.0922 41.1128 63.2793 41.1128H58.2002V102.596C58.2002 105.084 60.2166 107.1 62.7041 107.1H112.546C115.033 107.1 117.05 105.084 117.05 102.596V34.0044C117.05 31.5169 115.033 29.5005 112.546 29.5005ZM67.7842 31.1323L59.9619 38.7134H63.2793C65.7667 38.7134 67.784 36.6968 67.7842 34.2095V31.1323Z" fill="white" stroke="#111B22" stroke-width="2.4"/>
<path d="M83.5889 47.5H99.1191C99.6667 47.5 100.111 47.9445 100.111 48.4932C100.111 49.0417 99.6666 49.4854 99.1191 49.4854H83.5889C83.0414 49.4853 82.5968 49.0417 82.5967 48.4932C82.5967 47.9445 83.0413 47.5 83.5889 47.5Z" fill="#111B22" stroke="#111B22" stroke-width="1.6"/>
<path d="M83.5889 55.2686H109.871C110.419 55.2686 110.863 55.7131 110.863 56.2617C110.863 56.8102 110.419 57.2539 109.871 57.2539H83.5889C83.0414 57.2539 82.5968 56.8102 82.5967 56.2617C82.5967 55.7131 83.0413 55.2686 83.5889 55.2686Z" fill="#111B22" stroke="#111B22" stroke-width="1.6"/>
<path d="M83.5889 66.6997H99.1191C99.6667 66.6997 100.111 67.1443 100.111 67.6929C100.111 68.2414 99.6666 68.6851 99.1191 68.6851H83.5889C83.0414 68.6851 82.5968 68.2414 82.5967 67.6929C82.5967 67.1443 83.0413 66.6997 83.5889 66.6997Z" fill="#111B22" stroke="#111B22" stroke-width="1.6"/>
<path d="M83.5889 74.4683H109.871C110.419 74.4683 110.863 74.9128 110.863 75.4614C110.863 76.01 110.419 76.4536 109.871 76.4536H83.5889C83.0414 76.4536 82.5968 76.0099 82.5967 75.4614C82.5967 74.9128 83.0413 74.4683 83.5889 74.4683Z" fill="#111B22" stroke="#111B22" stroke-width="1.6"/>
<path d="M83.1904 86.2998H98.7207C99.2682 86.2998 99.7129 86.7444 99.7129 87.293C99.7128 87.8415 99.2682 88.2852 98.7207 88.2852H83.1904C82.643 88.2852 82.1983 87.8415 82.1982 87.293C82.1982 86.7444 82.6429 86.2998 83.1904 86.2998Z" fill="#111B22" stroke="#111B22" stroke-width="1.6"/>
<path d="M83.1904 94.0684H109.473C110.02 94.0684 110.465 94.5129 110.465 95.0615C110.465 95.6101 110.02 96.0537 109.473 96.0537H83.1904C82.643 96.0537 82.1983 95.61 82.1982 95.0615C82.1982 94.5129 82.6429 94.0684 83.1904 94.0684Z" fill="#111B22" stroke="#111B22" stroke-width="1.6"/>
<rect x="63.7353" y="84.6366" width="12.1263" height="12.1263" rx="2.35789" stroke="#111B22" stroke-width="0.673684"/>
<path d="M66.4297 91.1713L68.5026 93.0576L73.1665 88.3418" stroke="#111B22" stroke-width="0.673684" stroke-linejoin="round"/>
<rect x="98.2" y="51.8997" width="37.6" height="55.1" rx="1.3" fill="#BFDBEE" stroke="#111B22" stroke-width="2.4"/>
<rect x="104.5" y="58.1997" width="25" height="11.25" rx="2.5" fill="#BFDBEE" stroke="#111B22" stroke-width="2.5"/>
<rect x="104.5" y="75.6997" width="5" height="5" rx="2.5" fill="#BFDBEE" stroke="#111B22" stroke-width="2.5"/>
<rect x="104.5" y="85.6997" width="5" height="5" rx="2.5" fill="#BFDBEE" stroke="#111B22" stroke-width="2.5"/>
<rect x="104.5" y="95.6997" width="5" height="5" rx="2.5" fill="#BFDBEE" stroke="#111B22" stroke-width="2.5"/>
<rect x="114.5" y="75.6997" width="5" height="5" rx="2.5" fill="#BFDBEE" stroke="#111B22" stroke-width="2.5"/>
<rect x="114.5" y="85.6997" width="5" height="5" rx="2.5" fill="#BFDBEE" stroke="#111B22" stroke-width="2.5"/>
<rect x="114.5" y="95.6997" width="5" height="5" rx="2.5" fill="#BFDBEE" stroke="#111B22" stroke-width="2.5"/>
<rect x="124.5" y="75.6997" width="5" height="5" rx="2.5" fill="#BFDBEE" stroke="#111B22" stroke-width="2.5"/>
<rect x="124.5" y="85.6997" width="5" height="5" rx="2.5" fill="#BFDBEE" stroke="#111B22" stroke-width="2.5"/>
<rect x="124.5" y="95.6997" width="5" height="5" rx="2.5" fill="#BFDBEE" stroke="#111B22" stroke-width="2.5"/>
<path d="M114.201 67.2681C107.018 56.7867 120.999 52.6999 120.999 52.6999C119.391 52.6999 117.637 52.7266 115.822 52.758C109.011 52.876 98.402 64.9213 98.7868 71.7224C98.9371 74.3803 98.9992 76.8044 98.9989 78.7C98.9989 84.3 98.9982 91.9 98.9989 96.7C98.9994 98.3329 98.5827 101.007 98.3871 103.076C98.1753 105.315 100.215 105.9 102.465 105.9H119.13C119.13 105.9 113.764 101.929 123.354 98.0159C132.944 94.1026 121.384 77.7495 114.201 67.2681Z" fill="#0078CE" fill-opacity="0.2"/>
</g>
<rect x="64.1376" y="45.8368" width="12.1263" height="12.1263" rx="2.35789" stroke="#111B22" stroke-width="0.673684"/>
<path d="M66.832 52.3715L68.9049 54.2578L73.5689 49.542" stroke="#111B22" stroke-width="0.673684" stroke-linejoin="round"/>
<rect x="64.1376" y="65.037" width="12.1263" height="12.1263" rx="2.35789" stroke="#111B22" stroke-width="0.673684"/>
<path d="M66.832 71.5717L68.9049 73.458L73.5689 68.7422" stroke="#111B22" stroke-width="0.673684" stroke-linejoin="round"/>
<defs>
<clipPath id="clip0_54233_1044491">
<rect width="80" height="80" fill="white" transform="translate(57 28.3003)"/>
</clipPath>
</defs>
</svg>
