<svg width="196" height="121" viewBox="0 0 196 121" fill="none" xmlns="http://www.w3.org/2000/svg">
<path fill-rule="evenodd" clip-rule="evenodd" d="M148.457 97.0774L137.852 85.906L144.101 79.3232L154.707 90.4946C156.433 92.3124 156.433 95.2596 154.707 97.0774C152.981 98.8952 150.183 98.8952 148.457 97.0774Z" fill="white" stroke="#111B22" stroke-width="2.59998"/>
<path d="M74.6914 22.7565C74.6914 18.7213 77.9625 15.4502 81.9977 15.4502H111.672C115.707 15.4502 118.978 18.7213 118.978 22.7565V46.9022C118.978 48.0884 118.309 49.175 117.314 49.8211C114.775 51.4703 109.956 55.2113 107.362 61.1765C105.136 66.2943 104.411 71.4121 104.184 74.606C104.057 76.3842 102.607 77.8703 100.824 77.8703H81.9977C77.9625 77.8703 74.6914 74.5991 74.6914 70.564V22.7565Z" fill="white"/>
<path d="M47.479 47.6097C46.1389 43.8636 48.0424 39.7339 51.7611 38.3197L65.146 33.2291C69.0839 31.7315 73.469 33.8657 74.7199 37.8888L81.4723 59.6046C81.7783 60.5885 82.544 61.3575 83.5178 61.6942C88.9113 63.5592 106.304 70.1956 103.23 77.2655C101.134 82.0839 100.156 85.2381 99.7038 87.0438C99.4121 88.2086 98.6116 89.2401 97.4915 89.6725L73.7567 98.8347C69.9259 100.313 65.6293 98.3459 64.2462 94.4796L47.479 47.6097Z" fill="white"/>
<path d="M149.024 52.1239C150.341 48.3023 148.305 44.1377 144.48 42.8301L124.298 35.9299C121.525 34.9818 118.453 35.7824 116.496 37.9636L101.269 54.933C101.13 55.088 101.012 55.2474 100.909 55.4282C99.6238 57.6786 90.6708 73.8434 94.0438 81.5993C96.1393 86.4176 97.1173 89.5718 97.5696 91.3776C97.8614 92.5423 98.6619 93.5739 99.782 94.0063L123.435 103.137C127.297 104.628 131.625 102.615 132.973 98.701L149.024 52.1239Z" fill="white"/>
<path fill-rule="evenodd" clip-rule="evenodd" d="M90.9679 24.7097C91.4966 24.2297 92.3289 24.2536 92.8271 24.7629L96.4731 28.4911L100.119 24.7629C100.617 24.2536 101.45 24.2297 101.978 24.7097C102.507 25.1897 102.532 25.9917 102.034 26.5011L98.2802 30.339L102.034 34.1768C102.532 34.6862 102.507 35.4882 101.978 35.9682C101.45 36.4482 100.617 36.4244 100.119 35.915L96.4731 32.1868L92.8271 35.915C92.3289 36.4244 91.4966 36.4482 90.9679 35.9682C90.4393 35.4882 90.4146 34.6862 90.9127 34.1768L94.666 30.339L90.9127 26.5011C90.4146 25.9917 90.4393 25.1897 90.9679 24.7097Z" fill="#111B22"/>
<path fill-rule="evenodd" clip-rule="evenodd" d="M82.7688 44.4758C82.7688 43.9679 83.1738 43.5562 83.6734 43.5562H110.09C110.59 43.5562 110.995 43.9679 110.995 44.4758C110.995 44.9838 110.59 45.3955 110.09 45.3955H83.6734C83.1738 45.3955 82.7688 44.9838 82.7688 44.4758ZM82.7688 52.3852C82.7688 51.8773 83.1738 51.4655 83.6734 51.4655H90.9109C91.4105 51.4655 91.8155 51.8773 91.8155 52.3852C91.8155 52.8931 91.4105 53.3049 90.9109 53.3049H83.6734C83.1738 53.3049 82.7688 52.8931 82.7688 52.3852ZM97.2436 52.3852C97.2436 51.8773 97.6486 51.4655 98.1483 51.4655H105.205C105.704 51.4655 106.109 51.8773 106.109 52.3852C106.109 52.8931 105.704 53.3049 105.205 53.3049H98.1483C97.6486 53.3049 97.2436 52.8931 97.2436 52.3852ZM74.526 54.3694L63.1271 57.8642C62.6487 58.0109 62.144 57.7355 61.9997 57.2492C61.8554 56.7629 62.1263 56.2498 62.6046 56.1031L74.0036 52.6083L74.526 54.3694ZM82.7688 60.6624C82.7688 60.1545 83.1738 59.7428 83.6734 59.7428H98.1483C98.6479 59.7428 99.053 60.1545 99.053 60.6624C99.053 61.1704 98.6479 61.5821 98.1483 61.5821H83.6734C83.1738 61.5821 82.7688 61.1704 82.7688 60.6624ZM74.5201 62.8323L65.2923 65.5914C64.813 65.7347 64.3101 65.4559 64.1692 64.9686C64.0282 64.4813 64.3025 63.9701 64.7818 63.8268L74.0095 61.0677L74.5201 62.8323ZM82.7688 68.9397C82.7688 68.4318 83.1738 68.02 83.6734 68.02H87.654C88.1537 68.02 88.5587 68.4318 88.5587 68.9397C88.5587 69.4476 88.1537 69.8594 87.654 69.8594H83.6734C83.1738 69.8594 82.7688 69.4476 82.7688 68.9397ZM90.0062 68.9397C90.0062 68.4318 90.4112 68.02 90.9109 68.02H95.4342C95.9339 68.02 96.3389 68.4318 96.3389 68.9397C96.3389 69.4476 95.9339 69.8594 95.4342 69.8594H90.9109C90.4112 69.8594 90.0062 69.4476 90.0062 68.9397ZM74.5069 71.2973L67.9932 73.1367C67.5118 73.2727 67.0132 72.9861 66.8794 72.4967C66.7457 72.0073 67.0276 71.5004 67.509 71.3644L74.0227 69.525L74.5069 71.2973ZM77.2649 78.6412L70.2084 81.0324C69.7344 81.1931 69.2221 80.9326 69.0641 80.4508C68.9061 79.9689 69.1623 79.4481 69.6363 79.2874L76.6927 76.8962L77.2649 78.6412ZM88.5172 83.0114C88.6668 83.496 88.4017 84.0122 87.925 84.1644L72.3646 89.1307C71.8879 89.2828 71.3801 89.0133 71.2304 88.5287C71.0808 88.0441 71.3459 87.5279 71.8226 87.3758L87.383 82.4094C87.8597 82.2573 88.3675 82.5268 88.5172 83.0114Z" fill="#111B22"/>
<path fill-rule="evenodd" clip-rule="evenodd" d="M79.4986 16.9357C77.0935 16.9357 75.1438 18.9072 75.1438 21.3392V22.807C75.1438 23.6176 74.4939 24.2748 73.6922 24.2748C72.8905 24.2748 72.2406 23.6176 72.2406 22.807V21.3392C72.2406 17.2859 75.4901 14 79.4986 14H113.974C117.983 14 121.233 17.2859 121.233 21.3392V33.1112L146.276 41.2148C150.177 42.4768 152.273 46.7495 150.907 50.653L148.73 56.8733C148.463 57.6375 147.633 58.0378 146.877 57.7674C146.122 57.497 145.726 56.6582 145.993 55.894L148.17 49.6737C148.989 47.3316 147.732 44.768 145.392 44.0108L121.233 36.1935V44.4575C121.233 45.2682 120.583 45.9253 119.781 45.9253C118.979 45.9253 118.329 45.2682 118.329 44.4575V21.3392C118.329 18.9072 116.38 16.9357 113.974 16.9357H79.4986ZM73.6922 27.9444C74.4939 27.9444 75.1438 28.6016 75.1438 29.4122V72.3463C75.1438 74.7783 77.0935 76.7498 79.4986 76.7498H101.273C102.075 76.7498 102.724 77.407 102.724 78.2176C102.724 79.0283 102.075 79.6855 101.273 79.6855H79.4986C75.4901 79.6855 72.2406 76.3996 72.2406 72.3463V32.7288L52.2622 39.4181C49.9788 40.1826 48.7408 42.6743 49.4972 44.9832L65.4552 93.6908C66.2076 95.9873 68.6513 97.24 70.9279 96.4962L100.827 86.7287C101.589 86.4795 102.408 86.9028 102.654 87.6742C102.901 88.4456 102.482 89.273 101.719 89.5222L97.6807 90.8415L125.823 101.587C128.051 102.437 130.542 101.32 131.414 99.0793L133.672 93.2759C133.966 92.5216 134.808 92.1506 135.554 92.4474C136.3 92.7442 136.667 93.5964 136.374 94.3507L134.116 100.154C132.662 103.889 128.511 105.751 124.798 104.333L93.2516 92.2884L71.8205 99.2897C68.0261 100.529 63.9533 98.4415 62.6993 94.614L46.7413 45.9064C45.4806 42.0583 47.5439 37.9055 51.3496 36.6312L72.2406 29.6364V29.4122C72.2406 28.6016 72.8905 27.9444 73.6922 27.9444Z" fill="#111B22"/>
<path d="M127.681 52.3164C137.365 52.3164 145.257 60.3231 145.257 70.251C145.257 80.1787 137.365 88.1846 127.681 88.1846C117.997 88.1845 110.105 80.1786 110.104 70.251C110.104 60.3232 117.997 52.3165 127.681 52.3164ZM127.681 57.5986C120.787 57.5987 115.24 63.2865 115.24 70.251C115.24 77.2154 120.787 82.9032 127.681 82.9033C134.575 82.9033 140.122 77.2154 140.122 70.251C140.122 63.2864 134.575 57.5986 127.681 57.5986Z" fill="#BFDBEE" stroke="#111B22" stroke-width="2.59998"/>
<path d="M139.657 70.2499C139.657 76.864 134.294 82.2258 127.678 82.2258C121.062 82.2258 115.699 76.864 115.699 70.2499C115.699 63.6357 121.062 58.2739 127.678 58.2739C134.294 58.2739 139.657 63.6357 139.657 70.2499ZM116.939 70.2499C116.939 76.1795 121.747 80.9865 127.678 80.9865C133.61 80.9865 138.418 76.1795 138.418 70.2499C138.418 64.3202 133.61 59.5132 127.678 59.5132C121.747 59.5132 116.939 64.3202 116.939 70.2499Z" fill="#111B22"/>
<rect x="0.746905" y="0.214609" width="1.10227" height="6.4098" rx="0.551136" transform="matrix(0.481759 0.876304 0.873452 -0.486911 35.6254 48.5201)" fill="#999999" stroke="#0078CE" stroke-width="1.10227"/>
<rect x="-0.220682" y="0.768044" width="1.12681" height="6.22167" rx="0.563406" transform="matrix(-0.873451 0.486912 0.481757 0.876305 43.9666 27.035)" fill="#999999" stroke="#0078CE" stroke-width="1.12681"/>
<rect x="0.378666" y="0.683898" width="1.11789" height="6.29089" rx="0.558946" transform="matrix(-0.286643 0.958037 0.964107 0.265513 35.1482 36.434)" fill="#999999" stroke="#0078CE" stroke-width="1.11789"/>
</svg>
