<svg width="196" height="121" viewBox="0 0 196 121" fill="none" xmlns="http://www.w3.org/2000/svg">
<path d="M57.9062 28.1285C57.9062 25.7335 59.8479 23.792 62.2429 23.792H133.37C135.765 23.792 137.706 25.7335 137.706 28.1285V36.6009C137.706 38.9959 135.765 40.9374 133.37 40.9374H62.2429C59.8479 40.9374 57.9062 38.9959 57.9062 36.6009V28.1285Z" fill="white"/>
<path d="M59.043 89.1978V40.9326C60.1733 41.8119 134.322 42.0317 136.808 40.9326V81.1584L133.191 84.9685V91.0676C133.191 93.7287 131.034 95.8859 128.373 95.8859H65.7311C63.9101 95.8859 62.4339 94.4097 62.4339 92.5887C60.5611 92.5887 59.043 91.0705 59.043 89.1978Z" fill="white"/>
<path d="M125.957 92.5887V85.0131C125.957 82.8842 127.683 81.1584 129.812 81.1584H136.808M125.957 92.5887H62.4339M125.957 92.5887L133.191 84.9685M136.808 81.1584V40.9326C134.322 42.0317 60.1733 41.8119 59.043 40.9326V89.1978C59.043 91.0705 60.5611 92.5887 62.4339 92.5887M136.808 81.1584L133.191 84.9685M62.4339 92.5887C62.4339 94.4097 63.9101 95.8859 65.7311 95.8859H128.373C131.034 95.8859 133.191 93.7287 133.191 91.0676V84.9685" stroke="#111B22" stroke-width="2.23185"/>
<path d="M69.2073 22.9133H62.3002C59.373 22.9133 57 25.2863 57 28.2135V36.2972C57 39.2244 59.373 41.5974 62.3002 41.5974H133.308C136.235 41.5974 138.608 39.2244 138.608 36.2972V28.2135C138.608 25.2863 136.235 22.9133 133.308 22.9133H126.175M69.2073 22.9133V18.1649C69.2073 16.417 70.6243 15 72.3722 15C74.1201 15 75.5371 16.417 75.5371 18.1649V22.9133M69.2073 22.9133V27.6617C69.2073 29.4096 70.6243 30.8266 72.3722 30.8266C74.1201 30.8266 75.5371 29.4096 75.5371 27.6617V22.9133M126.175 22.9133V18.1649C126.175 16.417 124.758 15 123.01 15C121.262 15 119.845 16.417 119.845 18.1649V22.9133M126.175 22.9133V27.6617C126.175 29.4096 124.758 30.8266 123.01 30.8266C121.262 30.8266 119.845 29.4096 119.845 27.6617V22.9133M75.5371 22.9133H119.845" stroke="#111B22" stroke-width="2.23185"/>
<path d="M126.167 18.1649V22.9133V27.6617C126.167 29.4096 124.75 30.8265 123.002 30.8265C121.254 30.8265 119.837 29.4096 119.837 27.6617V22.9133V18.1649C119.837 16.417 121.254 15 123.002 15C124.75 15 126.167 16.417 126.167 18.1649Z" stroke="#111B22" stroke-width="1.92734"/>
<path d="M75.529 18.1649V22.9133V27.6617C75.529 29.4096 74.112 30.8265 72.3641 30.8265C70.6162 30.8265 69.1992 29.4096 69.1992 27.6617V22.9133V18.1649C69.1992 16.417 70.6162 15 72.3641 15C74.112 15 75.529 16.417 75.529 18.1649Z" stroke="#111B22" stroke-width="1.92734"/>
<path d="M84.6825 53.7686H76.3299C75.7977 53.7686 75.3662 54.2 75.3662 54.7322V62.7475C75.3662 63.2797 75.7977 63.7111 76.3299 63.7111H84.6825C85.2148 63.7111 85.6462 63.2797 85.6462 62.7475V54.7322C85.6462 54.2 85.2148 53.7686 84.6825 53.7686Z" stroke="#111B22" stroke-width="1.92734"/>
<path d="M84.6825 69.5977H76.3299C75.7977 69.5977 75.3662 70.0291 75.3662 70.5613V78.5766C75.3662 79.1088 75.7977 79.5402 76.3299 79.5402H84.6825C85.2148 79.5402 85.6462 79.1088 85.6462 78.5766V70.5613C85.6462 70.0291 85.2148 69.5977 84.6825 69.5977Z" stroke="#111B22" stroke-width="1.92734"/>
<path d="M101.87 69.5977H93.5174C92.9852 69.5977 92.5537 70.0291 92.5537 70.5613V78.5766C92.5537 79.1088 92.9852 79.5402 93.5174 79.5402H101.87C102.402 79.5402 102.834 79.1088 102.834 78.5766V70.5613C102.834 70.0291 102.402 69.5977 101.87 69.5977Z" stroke="#111B22" stroke-width="1.92734"/>
<path d="M119.046 69.5977H110.693C110.161 69.5977 109.729 70.0291 109.729 70.5613V78.5766C109.729 79.1088 110.161 79.5402 110.693 79.5402H119.046C119.578 79.5402 120.009 79.1088 120.009 78.5766V70.5613C120.009 70.0291 119.578 69.5977 119.046 69.5977Z" stroke="#111B22" stroke-width="1.92734"/>
<path d="M101.87 53.7686H93.5174C92.9852 53.7686 92.5537 54.2 92.5537 54.7322V62.7475C92.5537 63.2797 92.9852 63.7111 93.5174 63.7111H101.87C102.402 63.7111 102.834 63.2797 102.834 62.7475V54.7322C102.834 54.2 102.402 53.7686 101.87 53.7686Z" stroke="#111B22" stroke-width="1.92734"/>
<path d="M119.046 53.7686H110.693C110.161 53.7686 109.729 54.2 109.729 54.7322V62.7475C109.729 63.2797 110.161 63.7111 110.693 63.7111H119.046C119.578 63.7111 120.009 63.2797 120.009 62.7475V54.7322C120.009 54.2 119.578 53.7686 119.046 53.7686Z" stroke="#111B22" stroke-width="1.92734"/>
<path d="M118.27 87.4471C118.27 89.8934 118.751 92.3158 119.688 94.576C120.624 96.8361 121.996 98.8897 123.726 100.619C125.456 102.349 127.509 103.721 129.769 104.657C132.029 105.593 134.452 106.075 136.898 106.075C139.345 106.075 141.767 105.593 144.027 104.657C146.287 103.721 148.341 102.349 150.071 100.619C151.801 98.8897 153.173 96.8361 154.109 94.576C155.045 92.3158 155.527 89.8934 155.527 87.4471C155.527 82.5064 153.564 77.7682 150.071 74.2746C146.577 70.781 141.839 68.8184 136.898 68.8184C131.958 68.8184 127.219 70.781 123.726 74.2746C120.232 77.7682 118.27 82.5064 118.27 87.4471Z" fill="#BDD9EB" stroke="#0078CE" stroke-width="2.48383" stroke-linecap="round" stroke-linejoin="round"/>
<mask id="mask0_56001_733922" style="mask-type:luminance" maskUnits="userSpaceOnUse" x="124" y="75" width="25" height="26">
<path d="M148.905 75.4404H124.066V100.279H148.905V75.4404Z" fill="white"/>
</mask>
<g mask="url(#mask0_56001_733922)">
<path d="M128.207 83.7198V81.6499C128.207 81.101 128.425 80.5745 128.813 80.1863C129.201 79.7981 129.728 79.5801 130.277 79.5801H132.347" stroke="#0078CE" stroke-width="2.06986" stroke-linecap="round" stroke-linejoin="round"/>
<path d="M128.207 91.999V94.0689C128.207 94.6178 128.425 95.1443 128.813 95.5325C129.201 95.9206 129.728 96.1387 130.277 96.1387H132.347" stroke="#0078CE" stroke-width="2.06986" stroke-linecap="round" stroke-linejoin="round"/>
<path d="M140.621 79.5801H142.691C143.24 79.5801 143.766 79.7981 144.155 80.1863C144.543 80.5745 144.761 81.101 144.761 81.6499V83.7198" stroke="#0078CE" stroke-width="2.06986" stroke-linecap="round" stroke-linejoin="round"/>
<path d="M140.621 96.1387H142.691C143.24 96.1387 143.766 95.9206 144.155 95.5325C144.543 95.1443 144.761 94.6178 144.761 94.0689V91.999" stroke="#0078CE" stroke-width="2.06986" stroke-linecap="round" stroke-linejoin="round"/>
<path d="M133.383 87.8587C133.383 88.6821 133.71 89.4718 134.292 90.0541C134.874 90.6363 135.664 90.9635 136.488 90.9635C137.311 90.9635 138.101 90.6363 138.683 90.0541C139.265 89.4718 139.592 88.6821 139.592 87.8587C139.592 87.0352 139.265 86.2455 138.683 85.6633C138.101 85.081 137.311 84.7539 136.488 84.7539C135.664 84.7539 134.874 85.081 134.292 85.6633C133.71 86.2455 133.383 87.0352 133.383 87.8587Z" stroke="#0078CE" stroke-width="2.06986" stroke-linecap="round" stroke-linejoin="round"/>
</g>
<path d="M128.816 80.9001C124.513 74.5192 132.191 71.3008 132.191 71.3008C127.459 72.1064 125.18 73.5217 122.176 76.9261C121.82 77.3305 121.514 77.7802 121.269 78.2604C120.098 80.551 119.446 82.2985 118.867 84.5499C118.431 86.2509 118.399 88.0324 118.734 89.7564C119.044 91.3555 119.379 92.7653 119.871 94.5142C120.196 95.6717 120.726 96.7674 121.478 97.7063C123.071 99.6969 124.551 101.084 125.9 102.112C126.694 102.716 127.612 103.129 128.566 103.424L131.769 104.418C131.769 104.418 128.554 102.001 134.3 99.6188C140.046 97.2365 133.12 87.281 128.816 80.9001Z" fill="#0078CE" fill-opacity="0.2"/>
<path d="M149.819 62.3168C149.852 62.0279 150.113 61.8222 150.402 61.8573C150.691 61.8924 150.898 62.1551 150.864 62.4439L150.282 67.4808C150.248 67.7696 149.987 67.9753 149.698 67.9402C149.41 67.9051 149.203 67.6424 149.236 67.3536L149.819 62.3168Z" fill="#999999" stroke="#0078CE" stroke-width="1.05303"/>
<path d="M162.496 79.2465C162.791 79.2824 163.002 79.5509 162.968 79.8462C162.934 80.1415 162.667 80.3518 162.372 80.3159L157.54 79.7281C157.245 79.6922 157.034 79.4237 157.068 79.1284C157.102 78.8331 157.369 78.6228 157.664 78.6587L162.496 79.2465Z" fill="#999999" stroke="#0078CE" stroke-width="1.07647"/>
<path d="M159.496 67.7908C159.726 67.6057 160.058 67.6451 160.238 67.8787C160.418 68.1124 160.377 68.4518 160.148 68.6368L156.3 71.7379C156.07 71.9229 155.738 71.8835 155.558 71.6499C155.378 71.4163 155.419 71.0769 155.648 70.8918L159.496 67.7908Z" fill="#999999" stroke="#0078CE" stroke-width="1.06795"/>
</svg>
