<svg width="196" height="121" viewBox="0 0 196 121" fill="none" xmlns="http://www.w3.org/2000/svg">
<path d="M132.987 39.0254V47.7415C132.987 53.4321 129.397 57.0338 123.724 57.0338H111.445V31.858C111.445 27.8602 114.713 24.6187 118.698 24.6187C122.611 24.6547 126.201 26.2394 128.786 28.8326C131.371 31.4619 132.987 35.0635 132.987 39.0254Z" fill="white" stroke="#111B22" stroke-width="2.27654" stroke-miterlimit="10" stroke-linecap="round" stroke-linejoin="round"/>
<path d="M61.1719 42.6271V93.0507C61.1719 96.0401 64.5466 97.7329 66.9162 95.9321L73.0556 91.3219C74.4917 90.2414 76.5023 90.3855 77.7948 91.6821L83.7545 97.6969C85.1547 99.1015 87.4527 99.1015 88.8529 97.6969L94.8845 91.6461C96.1411 90.3855 98.1516 90.2414 99.5518 91.3219L105.691 95.9321C108.061 97.6969 111.436 96.0041 111.436 93.0507V31.822C111.436 27.8602 114.667 24.6187 118.616 24.6187H79.1232H75.5329C64.7621 24.6187 61.1719 31.0657 61.1719 39.0254V42.6271Z" fill="#BFDBEE" stroke="#111B22" stroke-width="2.27654" stroke-miterlimit="10" stroke-linecap="round" stroke-linejoin="round"/>
<path d="M62.3134 37.8374V93.2332C62.9208 95.6615 65.0957 95.5098 66.1073 95.1303C76.6047 85.5183 93.7293 66.2941 78.2488 66.2941C58.8982 66.2941 96.4612 43.9082 89.6315 40.1139C82.8019 36.3197 87.7344 25.3164 74.8344 25.3164C64.514 26.8341 62.1869 34.2961 62.3134 37.8374Z" fill="#99C7E7"/>
<path d="M75.5312 55.6699H97.0728" stroke="#111B22" stroke-width="3.03539" stroke-linecap="round" stroke-linejoin="round"/>
<path d="M78.2266 61.9604H94.3827" stroke="#111B22" stroke-width="3.03539" stroke-linecap="round" stroke-linejoin="round"/>
<rect x="-0.320036" y="0.605382" width="0.97041" height="5.65628" rx="0.485205" transform="matrix(-0.955993 0.292301 0.296404 0.955381 123.687 13.9375)" fill="#999999" stroke="#0078CE" stroke-width="0.97041"/>
<rect x="-0.622444" y="-0.329552" width="0.994003" height="5.4754" rx="0.497002" transform="matrix(-0.296405 -0.95538 -0.955993 0.2923 140.651 25.0354)" fill="#999999" stroke="#0078CE" stroke-width="0.994003"/>
<rect x="-0.657443" y="0.203387" width="0.985433" height="5.54198" rx="0.492717" transform="matrix(-0.877108 -0.477883 -0.457216 0.89067 134.183 15.7124)" fill="#999999" stroke="#0078CE" stroke-width="0.985433"/>
<path d="M86.7588 70.1138H119.827C120.879 70.1138 121.731 70.9664 121.731 72.0181V75.9565C121.731 77.0082 120.879 77.8608 119.827 77.8608H86.7588C85.7071 77.8608 84.8545 77.0082 84.8545 75.9565V72.0181C84.8545 70.9664 85.7071 70.1138 86.7588 70.1138Z" fill="white" stroke="#111B22" stroke-width="0.224021"/>
<path d="M85.2695 100.411V77.9707C85.795 78.3795 120.269 78.4817 121.425 77.9707V96.673L119.743 98.4444V101.28C119.743 102.517 118.74 103.52 117.503 103.52H88.3791C87.5324 103.52 86.8461 102.834 86.8461 101.987C85.9754 101.987 85.2695 101.281 85.2695 100.411Z" fill="white"/>
<path d="M116.38 101.987V98.4651C116.38 97.4754 117.183 96.673 118.172 96.673H121.425M116.38 101.987H86.8461M116.38 101.987L119.743 98.4444M121.425 96.673V77.9707C120.269 78.4817 85.795 78.3795 85.2695 77.9707V100.411C85.2695 101.281 85.9754 101.987 86.8461 101.987M121.425 96.673L119.743 98.4444M86.8461 101.987C86.8461 102.834 87.5324 103.52 88.3791 103.52H117.503C118.74 103.52 119.743 102.517 119.743 101.28V98.4444" stroke="#111B22" stroke-width="1.03766"/>
<path d="M89.9998 69.5937H86.7885C85.4275 69.5937 84.3242 70.697 84.3242 72.0579V75.8163C84.3242 77.1773 85.4275 78.2805 86.7885 78.2805H119.802C121.163 78.2805 122.267 77.1773 122.267 75.8163V72.0579C122.267 70.697 121.163 69.5937 119.802 69.5937H116.486M89.9998 69.5937V67.386C89.9998 66.5733 90.6586 65.9146 91.4713 65.9146C92.2839 65.9146 92.9427 66.5733 92.9427 67.386V69.5937M89.9998 69.5937V71.8014C89.9998 72.614 90.6586 73.2728 91.4713 73.2728C92.2839 73.2728 92.9427 72.614 92.9427 71.8014V69.5937M116.486 69.5937V67.386C116.486 66.5733 115.827 65.9146 115.014 65.9146C114.202 65.9146 113.543 66.5733 113.543 67.386V69.5937M116.486 69.5937V71.8014C116.486 72.614 115.827 73.2728 115.014 73.2728C114.202 73.2728 113.543 72.614 113.543 71.8014V69.5937M113.543 69.5937H92.9427" stroke="#111B22" stroke-width="1.03766"/>
<path d="M116.482 67.386V69.5937V71.8014C116.482 72.614 115.823 73.2728 115.011 73.2728C114.198 73.2728 113.539 72.614 113.539 71.8014V69.5937V67.386C113.539 66.5733 114.198 65.9146 115.011 65.9146C115.823 65.9146 116.482 66.5733 116.482 67.386Z" stroke="#111B22" stroke-width="0.896085"/>
<path d="M92.939 67.386V69.5937V71.8014C92.939 72.614 92.2802 73.2728 91.4675 73.2728C90.6549 73.2728 89.9961 72.614 89.9961 71.8014V69.5937V67.386C89.9961 66.5733 90.6549 65.9146 91.4675 65.9146C92.2802 65.9146 92.939 66.5733 92.939 67.386Z" stroke="#111B22" stroke-width="0.896085"/>
<rect x="92.8582" y="83.9397" width="4.7795" height="4.62262" rx="0.448042" stroke="#111B22" stroke-width="0.896085"/>
<rect x="92.8582" y="91.2991" width="4.7795" height="4.62262" rx="0.448042" stroke="#111B22" stroke-width="0.896085"/>
<rect x="100.85" y="91.2991" width="4.7795" height="4.62262" rx="0.448042" stroke="#111B22" stroke-width="0.896085"/>
<rect x="108.839" y="91.2991" width="4.7795" height="4.62262" rx="0.448042" stroke="#111B22" stroke-width="0.896085"/>
<rect x="100.85" y="83.9397" width="4.7795" height="4.62262" rx="0.448042" stroke="#111B22" stroke-width="0.896085"/>
<rect x="108.839" y="83.9397" width="4.7795" height="4.62262" rx="0.448042" stroke="#111B22" stroke-width="0.896085"/>
<g filter="url(#filter0_d_54300_1044200)">
<path d="M78.2539 40.9317C78.2539 42.1352 78.4894 43.3269 78.9471 44.4388C79.4047 45.5508 80.0755 46.561 80.921 47.4121C81.7666 48.2631 82.7705 48.9381 83.8753 49.3987C84.9801 49.8593 86.1642 50.0963 87.3601 50.0963C88.5559 50.0963 89.74 49.8593 90.8448 49.3987C91.9497 48.9381 92.9535 48.2631 93.7991 47.4121C94.6447 46.561 95.3154 45.5508 95.7731 44.4388C96.2307 43.3269 96.4662 42.1352 96.4662 40.9317C96.4662 38.5011 95.5068 36.17 93.7991 34.4513C92.0914 32.7326 89.7752 31.7671 87.3601 31.7671C84.945 31.7671 82.6288 32.7326 80.921 34.4513C79.2133 36.17 78.2539 38.5011 78.2539 40.9317Z" fill="#BFDBEE" stroke="#0078CE" stroke-width="1.21303" stroke-linecap="round" stroke-linejoin="round"/>
<path d="M84.3281 41.0198L86.237 42.941L90.0616 39.0986" stroke="#0078CE" stroke-width="1.61737" stroke-linecap="round" stroke-linejoin="round"/>
</g>
<defs>
<filter id="filter0_d_54300_1044200" x="71.1789" y="27.9259" width="32.3648" height="32.481" filterUnits="userSpaceOnUse" color-interpolation-filters="sRGB">
<feFlood flood-opacity="0" result="BackgroundImageFix"/>
<feColorMatrix in="SourceAlpha" type="matrix" values="0 0 0 0 0 0 0 0 0 0 0 0 0 0 0 0 0 0 127 0" result="hardAlpha"/>
<feOffset dy="3.23474"/>
<feGaussianBlur stdDeviation="3.23474"/>
<feColorMatrix type="matrix" values="0 0 0 0 0.0705882 0 0 0 0 0.105882 0 0 0 0 0.129412 0 0 0 0.1 0"/>
<feBlend mode="normal" in2="BackgroundImageFix" result="effect1_dropShadow_54300_1044200"/>
<feBlend mode="normal" in="SourceGraphic" in2="effect1_dropShadow_54300_1044200" result="shape"/>
</filter>
</defs>
</svg>
