<svg width="196" height="121" viewBox="0 0 196 121" fill="none" xmlns="http://www.w3.org/2000/svg">
<rect x="-0.414225" y="0.644922" width="1.08331" height="6.35165" rx="0.541655" transform="matrix(-0.975984 0.212007 0.211245 0.978643 128.256 14.0611)" fill="#999999" stroke="#0078CE" stroke-width="1.08331"/>
<rect x="-0.662025" y="-0.427493" width="1.11524" height="6.10683" rx="0.557622" transform="matrix(-0.211245 -0.978643 -0.975984 0.212007 146.015 28.1051)" fill="#999999" stroke="#0078CE" stroke-width="1.11524"/>
<rect x="-0.749886" y="0.16605" width="1.10366" height="6.19705" rx="0.551831" transform="matrix(-0.828336 -0.552122 -0.530569 0.853029 139.748 17.0469)" fill="#999999" stroke="#0078CE" stroke-width="1.10366"/>
<path d="M65.9976 22.0459H108.789C109.853 22.0459 110.874 22.5996 111.627 23.5853C112.38 24.5709 112.803 25.9077 112.803 27.3016V93.9548C112.803 95.3487 112.38 96.6856 111.627 97.6712C110.874 98.6569 109.853 99.2106 108.789 99.2106H60.5142C59.4496 99.2106 58.4285 98.6569 57.6757 97.6712C56.9229 96.6856 56.5 95.3487 56.5 93.9548V34.6071L65.9976 22.0459Z" fill="white" stroke="#111B22" stroke-width="1.70615" stroke-linecap="round" stroke-linejoin="round"/>
<path d="M56.5 34.6071H64.2795C64.7359 34.6043 65.1729 34.365 65.4948 33.9415C65.8168 33.5179 65.9976 32.9447 65.9976 32.3471V22.0459L56.5 34.6071Z" fill="white" stroke="#111B22" stroke-width="1.70615" stroke-linecap="round" stroke-linejoin="round"/>
<mask id="path-6-inside-1_54217_1043936" fill="white">
<rect x="63.3594" y="39.1079" width="22.9882" height="2.70215" rx="1.35108" transform="rotate(0.260546 63.3594 39.1079)"/>
</mask>
<rect x="63.3594" y="39.1079" width="22.9882" height="2.70215" rx="1.35108" transform="rotate(0.260546 63.3594 39.1079)" fill="#DCDCDC" stroke="#111B22" stroke-width="2.70215" mask="url(#path-6-inside-1_54217_1043936)"/>
<mask id="path-7-inside-2_54217_1043936" fill="white">
<rect x="63.418" y="56.0303" width="39.1812" height="2.70215" rx="1.35108" transform="rotate(0.260546 63.418 56.0303)"/>
</mask>
<rect x="63.418" y="56.0303" width="39.1812" height="2.70215" rx="1.35108" transform="rotate(0.260546 63.418 56.0303)" fill="#DCDCDC" stroke="#111B22" stroke-width="2.70215" mask="url(#path-7-inside-2_54217_1043936)"/>
<mask id="path-8-inside-3_54217_1043936" fill="white">
<rect x="63.3594" y="69.541" width="37.005" height="2.70215" rx="1.35108" transform="rotate(0.260546 63.3594 69.541)"/>
</mask>
<rect x="63.3594" y="69.541" width="37.005" height="2.70215" rx="1.35108" transform="rotate(0.260546 63.3594 69.541)" fill="#DCDCDC" stroke="#111B22" stroke-width="2.70215" mask="url(#path-8-inside-3_54217_1043936)"/>
<mask id="path-9-inside-4_54217_1043936" fill="white">
<rect x="63.3594" y="83.4673" width="32.0701" height="2.70215" rx="1.35108" transform="rotate(0.260546 63.3594 83.4673)"/>
</mask>
<rect x="63.3594" y="83.4673" width="32.0701" height="2.70215" rx="1.35108" transform="rotate(0.260546 63.3594 83.4673)" fill="#DCDCDC" stroke="#111B22" stroke-width="2.70215" mask="url(#path-9-inside-4_54217_1043936)"/>
<mask id="path-10-inside-5_54217_1043936" fill="white">
<rect x="63.3398" y="44.5122" width="14.1863" height="2.70215" rx="1.35108" transform="rotate(0.260546 63.3398 44.5122)"/>
</mask>
<rect x="63.3398" y="44.5122" width="14.1863" height="2.70215" rx="1.35108" transform="rotate(0.260546 63.3398 44.5122)" fill="#EEEEEE" stroke="#111B22" stroke-width="2.70215" mask="url(#path-10-inside-5_54217_1043936)"/>
<mask id="path-11-inside-6_54217_1043936" fill="white">
<rect x="63.3984" y="61.4355" width="14.1863" height="2.70215" rx="1.35108" transform="rotate(0.260546 63.3984 61.4355)"/>
</mask>
<rect x="63.3984" y="61.4355" width="14.1863" height="2.70215" rx="1.35108" transform="rotate(0.260546 63.3984 61.4355)" fill="#EEEEEE" stroke="#111B22" stroke-width="2.70215" mask="url(#path-11-inside-6_54217_1043936)"/>
<mask id="path-12-inside-7_54217_1043936" fill="white">
<rect x="63.3398" y="74.9458" width="14.1863" height="2.70215" rx="1.35108" transform="rotate(0.260546 63.3398 74.9458)"/>
</mask>
<rect x="63.3398" y="74.9458" width="14.1863" height="2.70215" rx="1.35108" transform="rotate(0.260546 63.3398 74.9458)" fill="#EEEEEE" stroke="#111B22" stroke-width="2.70215" mask="url(#path-12-inside-7_54217_1043936)"/>
<mask id="path-13-inside-8_54217_1043936" fill="white">
<rect x="63.3398" y="88.8721" width="14.1863" height="2.70215" rx="1.35108" transform="rotate(0.260546 63.3398 88.8721)"/>
</mask>
<rect x="63.3398" y="88.8721" width="14.1863" height="2.70215" rx="1.35108" transform="rotate(0.260546 63.3398 88.8721)" fill="#EEEEEE" stroke="#111B22" stroke-width="2.70215" mask="url(#path-13-inside-8_54217_1043936)"/>
<path d="M81.3491 28.8706H124.14C125.205 28.8706 126.226 29.4243 126.979 30.41C127.732 31.3956 128.155 32.7324 128.155 34.1263V100.78C128.155 102.173 127.732 103.51 126.979 104.496C126.226 105.482 125.205 106.035 124.14 106.035H75.8657C74.8011 106.035 73.7801 105.482 73.0273 104.496C72.2745 103.51 71.8516 102.173 71.8516 100.78V41.4318L81.3491 28.8706Z" fill="white" stroke="#111B22" stroke-width="1.70615" stroke-linecap="round" stroke-linejoin="round"/>
<path d="M71.8516 41.4318H79.6311C80.0875 41.429 80.5244 41.1897 80.8464 40.7662C81.1684 40.3426 81.3491 39.7694 81.3491 39.1718V28.8706L71.8516 41.4318Z" fill="white" stroke="#111B22" stroke-width="1.70615" stroke-linecap="round" stroke-linejoin="round"/>
<mask id="path-16-inside-9_54217_1043936" fill="white">
<rect x="78.7188" y="45.9321" width="22.9882" height="2.70215" rx="1.35108" transform="rotate(0.260546 78.7188 45.9321)"/>
</mask>
<rect x="78.7188" y="45.9321" width="22.9882" height="2.70215" rx="1.35108" transform="rotate(0.260546 78.7188 45.9321)" fill="#DCDCDC" stroke="#111B22" stroke-width="2.70215" mask="url(#path-16-inside-9_54217_1043936)"/>
<mask id="path-17-inside-10_54217_1043936" fill="white">
<rect x="78.7773" y="62.855" width="39.1812" height="2.70215" rx="1.35108" transform="rotate(0.260546 78.7773 62.855)"/>
</mask>
<rect x="78.7773" y="62.855" width="39.1812" height="2.70215" rx="1.35108" transform="rotate(0.260546 78.7773 62.855)" fill="#DCDCDC" stroke="#111B22" stroke-width="2.70215" mask="url(#path-17-inside-10_54217_1043936)"/>
<mask id="path-18-inside-11_54217_1043936" fill="white">
<rect x="78.7188" y="76.3662" width="37.005" height="2.70215" rx="1.35108" transform="rotate(0.260546 78.7188 76.3662)"/>
</mask>
<rect x="78.7188" y="76.3662" width="37.005" height="2.70215" rx="1.35108" transform="rotate(0.260546 78.7188 76.3662)" fill="#DCDCDC" stroke="#111B22" stroke-width="2.70215" mask="url(#path-18-inside-11_54217_1043936)"/>
<mask id="path-19-inside-12_54217_1043936" fill="white">
<rect x="78.7188" y="90.292" width="32.0701" height="2.70215" rx="1.35108" transform="rotate(0.260546 78.7188 90.292)"/>
</mask>
<rect x="78.7188" y="90.292" width="32.0701" height="2.70215" rx="1.35108" transform="rotate(0.260546 78.7188 90.292)" fill="#DCDCDC" stroke="#111B22" stroke-width="2.70215" mask="url(#path-19-inside-12_54217_1043936)"/>
<mask id="path-20-inside-13_54217_1043936" fill="white">
<rect x="78.6953" y="51.3369" width="14.1863" height="2.70215" rx="1.35108" transform="rotate(0.260546 78.6953 51.3369)"/>
</mask>
<rect x="78.6953" y="51.3369" width="14.1863" height="2.70215" rx="1.35108" transform="rotate(0.260546 78.6953 51.3369)" fill="#EEEEEE" stroke="#111B22" stroke-width="2.70215" mask="url(#path-20-inside-13_54217_1043936)"/>
<mask id="path-21-inside-14_54217_1043936" fill="white">
<rect x="78.7578" y="68.2598" width="14.1863" height="2.70215" rx="1.35108" transform="rotate(0.260546 78.7578 68.2598)"/>
</mask>
<rect x="78.7578" y="68.2598" width="14.1863" height="2.70215" rx="1.35108" transform="rotate(0.260546 78.7578 68.2598)" fill="#EEEEEE" stroke="#111B22" stroke-width="2.70215" mask="url(#path-21-inside-14_54217_1043936)"/>
<mask id="path-22-inside-15_54217_1043936" fill="white">
<rect x="78.6953" y="81.77" width="14.1863" height="2.70215" rx="1.35108" transform="rotate(0.260546 78.6953 81.77)"/>
</mask>
<rect x="78.6953" y="81.77" width="14.1863" height="2.70215" rx="1.35108" transform="rotate(0.260546 78.6953 81.77)" fill="#EEEEEE" stroke="#111B22" stroke-width="2.70215" mask="url(#path-22-inside-15_54217_1043936)"/>
<mask id="path-23-inside-16_54217_1043936" fill="white">
<rect x="78.6953" y="95.6958" width="14.1863" height="2.70215" rx="1.35108" transform="rotate(0.260546 78.6953 95.6958)"/>
</mask>
<rect x="78.6953" y="95.6958" width="14.1863" height="2.70215" rx="1.35108" transform="rotate(0.260546 78.6953 95.6958)" fill="#EEEEEE" stroke="#111B22" stroke-width="2.70215" mask="url(#path-23-inside-16_54217_1043936)"/>
<circle cx="121.758" cy="40.387" r="16.2084" fill="#CFE4F1" stroke="#0078CE" stroke-width="2.55923"/>
<path d="M121.003 31.2456C121.355 30.2249 122.278 29.5418 123.396 29.769C125.087 30.113 126.69 30.8397 128.075 31.9058C129.46 32.9718 130.575 34.3359 131.345 35.8862C131.855 36.915 131.432 37.9876 130.542 38.5913L130.088 38.8989L130.181 39.4399C130.453 41.0447 130.297 42.6989 129.722 44.2319C129.046 46.0333 127.824 47.5771 126.229 48.646C124.633 49.7146 122.745 50.2558 120.828 50.1929C118.911 50.1299 117.062 49.4665 115.54 48.2954C114.018 47.1242 112.9 45.5035 112.343 43.6616C111.786 41.8196 111.818 39.8486 112.435 38.0259C113.052 36.2034 114.222 34.6211 115.781 33.5005C117.108 32.5469 118.66 31.9681 120.275 31.8169L120.823 31.7651L121.003 31.2456ZM119.892 32.396C118.524 32.5939 117.217 33.1183 116.085 33.9321C114.614 34.9888 113.511 36.4807 112.93 38.1978C112.348 39.9148 112.319 41.7712 112.844 43.5063C113.369 45.2414 114.422 46.7682 115.857 47.8726C117.293 48.9769 119.037 49.6032 120.846 49.6626C122.654 49.7219 124.435 49.2114 125.939 48.2036C127.444 47.1957 128.595 45.7414 129.232 44.0444C129.723 42.7373 129.89 41.3362 129.727 39.9614L129.61 38.9829L128.657 39.2388L124.003 40.4888C122.424 40.9131 120.867 39.7204 120.867 38.0728V32.2554L119.892 32.396ZM123.292 30.2886C122.845 30.1979 122.43 30.3094 122.099 30.5591L121.962 30.6743C121.613 31.0028 121.391 31.4971 121.391 32.0425V38.0728C121.391 39.3659 122.616 40.3138 123.869 39.9771L129.678 38.4155C130.205 38.2738 130.624 37.9294 130.85 37.5073C131.076 37.0848 131.108 36.5898 130.877 36.1245C130.143 34.6461 129.08 33.3447 127.758 32.3276C126.436 31.3105 124.907 30.6169 123.292 30.2886Z" fill="#CFE4F1" stroke="#0078CE" stroke-width="1.70615"/>
<path d="M118.819 33.788C113.579 27.3778 122.929 24.1445 122.929 24.1445C117.162 24.9544 114.387 26.3777 110.726 29.8028C110.298 30.2036 109.923 30.6612 109.614 31.16C108.323 33.2469 107.551 34.8866 106.893 36.8674C106.205 38.94 106.164 41.1769 106.689 43.2967C107.012 44.5987 107.37 45.8165 107.856 47.255C108.295 48.5573 108.996 49.762 109.955 50.7458C111.993 52.8345 113.879 54.2549 115.586 55.2934C116.357 55.7619 117.206 56.081 118.08 56.3047L122.415 57.4145C122.415 57.4145 118.5 54.986 125.497 52.5927C132.494 50.1994 124.06 40.1982 118.819 33.788Z" fill="#0078CE" fill-opacity="0.2"/>
</svg>
