<svg width="196" height="121" viewBox="0 0 196 121" fill="none" xmlns="http://www.w3.org/2000/svg">
<path d="M138.996 40.2764V49.8025C138.996 56.022 135.072 59.9584 128.873 59.9584H115.453V32.4429C115.453 28.0735 119.024 24.5308 123.38 24.5308C127.657 24.5701 131.58 26.3021 134.406 29.1363C137.231 32.0099 138.996 35.9464 138.996 40.2764Z" fill="white" stroke="#111B22" stroke-width="2.48811" stroke-miterlimit="10" stroke-linecap="round" stroke-linejoin="round"/>
<path d="M60.5156 44.2128V99.3226C60.5156 102.59 64.204 104.44 66.7938 102.471L73.5038 97.4331C75.0734 96.2522 77.2708 96.4096 78.6834 97.8267L85.1971 104.4C86.7274 105.935 89.2389 105.935 90.7692 104.4L97.3614 97.7874C98.7347 96.4096 100.933 96.2522 102.463 97.4331L109.173 102.471C111.762 104.4 115.451 102.551 115.451 99.3226V32.4036C115.451 28.0735 118.982 24.5308 123.299 24.5308H80.1353H76.2114C64.4396 24.5308 60.5156 31.5769 60.5156 40.2764V44.2128Z" fill="white" stroke="#111B22" stroke-width="2.48811" stroke-miterlimit="10" stroke-linecap="round" stroke-linejoin="round"/>
<path d="M76.2148 52.0859H99.7584" stroke="#111B22" stroke-width="3.31748" stroke-linecap="round" stroke-linejoin="round"/>
<path d="M79.1523 67.8364H96.8099" stroke="#111B22" stroke-width="3.31748" stroke-linecap="round" stroke-linejoin="round"/>
<path d="M128.499 14.2024C128.412 13.9226 128.569 13.6264 128.849 13.5407C129.128 13.4551 129.426 13.6126 129.513 13.8924L131.031 18.7852C131.117 19.065 130.961 19.3613 130.681 19.4469C130.401 19.5325 130.104 19.375 130.017 19.0952L128.499 14.2024Z" fill="#999999" stroke="#0078CE" stroke-width="1.06059"/>
<path d="M147.069 24.6516C147.356 24.5639 147.66 24.7252 147.749 25.0118C147.838 25.2984 147.678 25.6018 147.391 25.6895L142.709 27.1212C142.422 27.2089 142.117 27.0476 142.028 26.761C141.939 26.4744 142.1 26.171 142.387 26.0833L147.069 24.6516Z" fill="#999999" stroke="#0078CE" stroke-width="1.08637"/>
<path d="M139.641 15.3019C139.777 15.037 140.099 14.9374 140.36 15.0796C140.621 15.2217 140.722 15.5517 140.586 15.8165L138.309 20.2521C138.173 20.517 137.851 20.6165 137.59 20.4744C137.329 20.3323 137.228 20.0023 137.364 19.7374L139.641 15.3019Z" fill="#999999" stroke="#0078CE" stroke-width="1.07702"/>
<g filter="url(#filter0_d_55358_765149)">
<path d="M46.0039 30.4524C46.0039 32.5933 46.4243 34.7133 47.241 36.6913C48.0576 38.6692 49.2548 40.4665 50.7638 41.9804C52.2729 43.4942 54.0644 44.6951 56.0361 45.5145C58.0078 46.3338 60.121 46.7554 62.2552 46.7554C64.3893 46.7554 66.5026 46.3338 68.4743 45.5145C70.446 44.6951 72.2375 43.4942 73.7466 41.9804C75.2557 40.4665 76.4527 38.6692 77.2694 36.6913C78.0862 34.7133 78.5066 32.5933 78.5066 30.4524C78.5066 26.1286 76.7943 21.9818 73.7466 18.9244C70.6989 15.8671 66.5653 14.1494 62.2552 14.1494C57.9451 14.1494 53.8115 15.8671 50.7638 18.9244C47.716 21.9818 46.0039 26.1286 46.0039 30.4524Z" fill="#BFDBEE" stroke="#0078CE" stroke-width="2.14771" stroke-linecap="round" stroke-linejoin="round"/>
<path d="M61.832 23.3477V37.5606" stroke="#0078CE" stroke-width="3.31748" stroke-linecap="round"/>
<path d="M55.1758 30.0337H69.3436" stroke="#0078CE" stroke-width="3.31748" stroke-linecap="round"/>
</g>
<defs>
<filter id="filter0_d_55358_765149" x="33.4752" y="7.34845" width="57.5613" height="57.6624" filterUnits="userSpaceOnUse" color-interpolation-filters="sRGB">
<feFlood flood-opacity="0" result="BackgroundImageFix"/>
<feColorMatrix in="SourceAlpha" type="matrix" values="0 0 0 0 0 0 0 0 0 0 0 0 0 0 0 0 0 0 127 0" result="hardAlpha"/>
<feOffset dy="5.72724"/>
<feGaussianBlur stdDeviation="5.72724"/>
<feColorMatrix type="matrix" values="0 0 0 0 0.0705882 0 0 0 0 0.105882 0 0 0 0 0.129412 0 0 0 0.1 0"/>
<feBlend mode="normal" in2="BackgroundImageFix" result="effect1_dropShadow_55358_765149"/>
<feBlend mode="normal" in="SourceGraphic" in2="effect1_dropShadow_55358_765149" result="shape"/>
</filter>
</defs>
</svg>
