<svg width="196" height="121" viewBox="0 0 196 121" fill="none" xmlns="http://www.w3.org/2000/svg">
<g clip-path="url(#clip0_55358_765213)">
<path d="M62.1725 25.2949H132.92C136.55 25.2951 139.494 28.2388 139.494 31.8697V43.0527H55.5977V31.8697C55.5977 28.2386 58.5414 25.2949 62.1725 25.2949Z" fill="#BFDBEE"/>
<path d="M62.1725 25.2949H132.92C136.55 25.2951 139.494 28.2388 139.494 31.8697V43.0527H55.5977V31.8697C55.5977 28.2386 58.5414 25.2949 62.1725 25.2949Z" stroke="#111B22" stroke-width="1.64369"/>
<path d="M63.975 32.2798H86.6785C87.922 32.2799 88.8868 33.2236 88.8868 34.3352C88.8866 35.4466 87.9218 36.3896 86.6785 36.3897H63.975C62.7315 36.3897 61.7658 35.4466 61.7656 34.3352C61.7656 33.2235 62.7313 32.2798 63.975 32.2798Z" fill="#CFE4F1" stroke="#111B22" stroke-width="0.821845"/>
<path d="M113.95 31.458C115.538 31.458 116.828 32.746 116.828 34.3344C116.828 35.9231 115.539 37.2118 113.95 37.2118C112.362 37.2116 111.074 35.9229 111.074 34.3344C111.074 32.7461 112.363 31.4582 113.95 31.458Z" fill="#CFE4F1" stroke="#111B22" stroke-width="0.821845"/>
<path d="M122.17 31.458C123.758 31.458 125.047 32.746 125.047 34.3344C125.047 35.9231 123.758 37.2118 122.17 37.2118C120.581 37.2116 119.293 35.9229 119.293 34.3344C119.294 32.7461 120.581 31.4582 122.17 31.458Z" fill="#CFE4F1" stroke="#111B22" stroke-width="0.821845"/>
<path d="M130.388 31.458C131.977 31.458 133.265 32.746 133.266 34.3344C133.266 35.9231 131.977 37.2118 130.388 37.2118C128.8 37.2116 127.512 35.9229 127.512 34.3344C127.513 32.7461 128.8 31.4582 130.388 31.458Z" fill="#CFE4F1" stroke="#111B22" stroke-width="0.821845"/>
<path d="M139.369 33.7865C139.369 33.7865 137.041 35.9598 106.775 29.9062C90.0891 26.5689 65.2695 41.9184 60.5991 42.7111C56.9315 43.3336 56.392 43.4569 56.3293 43.4813L56.3309 43.4871C56.3309 43.4871 56.3123 43.4878 56.3293 43.4813L55.7669 41.1587C55.2004 38.8188 55.3063 36.271 55.4706 33.8691C55.5812 32.2526 55.7404 30.4404 56.441 28.8597C56.9711 27.664 58.0733 26.8225 59.3193 26.4248C60.5597 26.0289 61.384 26.0671 62.9697 25.7366C64.2399 25.472 65.4904 25.2505 66.7878 25.2427C77.7439 25.1767 126.805 24.7173 134.03 25.5292C134.501 25.5821 134.932 25.7406 135.35 25.9631C139.324 28.0736 138.999 29.7243 139.369 33.7865Z" fill="#0078CE" fill-opacity="0.2"/>
<path d="M62.1725 98.9283H132.745C136.376 98.9283 139.32 95.9846 139.32 92.3535V50.1289H55.5977V92.3535C55.5977 95.9846 58.5414 98.9283 62.1725 98.9283Z" fill="white" stroke="#111B22" stroke-width="1.64369"/>
<g filter="url(#filter0_d_55358_765213)">
<path d="M140.318 99.6359L136.94 100.773C136.009 101.084 135.263 101.808 134.952 102.759L133.812 106.13C132.839 109.047 128.737 108.984 127.825 106.068L123.993 93.7622C123.247 91.3217 125.504 89.0466 127.928 89.8119L140.277 93.6381C143.177 94.5481 143.218 98.6638 140.318 99.6359Z" fill="white"/>
<path d="M140.318 99.6359L136.94 100.773C136.009 101.084 135.263 101.808 134.952 102.759L133.812 106.13C132.839 109.047 128.737 108.984 127.825 106.068L123.993 93.7622C123.247 91.3217 125.504 89.0466 127.928 89.8119L140.277 93.6381C143.177 94.5481 143.218 98.6638 140.318 99.6359Z" stroke="#111B22" stroke-width="1.64369" stroke-linecap="round" stroke-linejoin="round"/>
</g>
<path d="M46.5105 27.9086C46.2403 27.8737 46.0505 27.6264 46.0867 27.3563C46.123 27.0862 46.3715 26.8955 46.6418 26.9304L51.3281 27.536C51.5984 27.5709 51.7882 27.8182 51.7519 28.0884C51.7157 28.3585 51.4672 28.5491 51.1969 28.5142L46.5105 27.9086Z" fill="#999999" stroke="#0078CE" stroke-width="0.98696"/>
<path d="M62.4639 16.2208C62.5008 15.9457 62.7538 15.7516 63.029 15.7872C63.3042 15.8227 63.4974 16.0745 63.4605 16.3495L62.853 20.8789C62.8161 21.154 62.5631 21.3481 62.2879 21.3125C62.0127 21.277 61.8195 21.0252 61.8564 20.7502L62.4639 16.2208Z" fill="#999999" stroke="#0078CE" stroke-width="1.00489"/>
<path d="M51.82 18.2071L51.82 18.2071C52.0402 18.0412 52.3564 18.0828 52.5262 18.3L55.3759 21.9453C55.5457 22.1625 55.5049 22.473 55.2846 22.6389C55.0644 22.8047 54.7483 22.7631 54.5785 22.5459L51.7287 18.9006C51.5589 18.6834 51.5998 18.3729 51.82 18.2071Z" fill="#999999"/>
<path d="M51.82 18.2071L51.82 18.2071C51.5998 18.3729 51.5589 18.6834 51.7287 18.9006L54.5785 22.5459C54.7483 22.7631 55.0644 22.8047 55.2846 22.6389L55.2846 22.6389C55.5049 22.473 55.5457 22.1625 55.3759 21.9453L52.5262 18.3C52.3564 18.0828 52.0402 18.0412 51.82 18.2071Z" stroke="#0078CE" stroke-width="0.998364"/>
<path d="M118.413 59.4404C126.532 59.4404 133.113 66.0212 133.113 74.1392C133.113 82.2574 126.532 88.839 118.413 88.839C110.295 88.8388 103.715 82.2573 103.715 74.1392C103.715 66.0213 110.295 59.4405 118.413 59.4404Z" fill="#BFDBEE" stroke="#111B22" stroke-width="1.64369"/>
<path d="M124.548 68.4729L118.904 74.1169L124.548 79.7609L123.828 80.4804L118.184 74.8362L112.54 80.4804L111.82 79.7609L117.465 74.1169L111.82 68.4729L112.54 67.7534L118.184 73.3976L123.828 67.7534L124.548 68.4729Z" fill="#BFDBEE" stroke="#111B22" stroke-width="1.64369"/>
<path d="M87.7621 60.9473H62.9284C61.8569 60.9473 60.9883 61.8159 60.9883 62.8874C60.9883 63.9589 61.8569 64.8275 62.9284 64.8275H87.7621C88.8336 64.8275 89.7022 63.9589 89.7022 62.8874C89.7022 61.8159 88.8336 60.9473 87.7621 60.9473Z" fill="#111B22"/>
<path d="M96.2987 67.2935H62.9284C61.8569 67.2935 60.9883 68.1621 60.9883 69.2336C60.9883 70.3051 61.8569 71.1737 62.9284 71.1737H96.2987C97.3702 71.1737 98.2389 70.3051 98.2389 69.2336C98.2389 68.1621 97.3702 67.2935 96.2987 67.2935Z" fill="#111B22"/>
<path d="M75.3452 73.6392H62.9284C61.8569 73.6392 60.9883 74.5078 60.9883 75.5793C60.9883 76.6508 61.8569 77.5194 62.9284 77.5194H75.3452C76.4167 77.5194 77.2854 76.6508 77.2854 75.5793C77.2854 74.5078 76.4167 73.6392 75.3452 73.6392Z" fill="#111B22"/>
<path d="M83.8819 79.9849H62.9284C61.8569 79.9849 60.9883 80.8535 60.9883 81.925C60.9883 82.9965 61.8569 83.8651 62.9284 83.8651H83.8819C84.9534 83.8651 85.822 82.9965 85.822 81.925C85.822 80.8535 84.9534 79.9849 83.8819 79.9849Z" fill="#111B22"/>
</g>
<defs>
<filter id="filter0_d_55358_765213" x="109.874" y="82.2626" width="46.5686" height="46.57" filterUnits="userSpaceOnUse" color-interpolation-filters="sRGB">
<feFlood flood-opacity="0" result="BackgroundImageFix"/>
<feColorMatrix in="SourceAlpha" type="matrix" values="0 0 0 0 0 0 0 0 0 0 0 0 0 0 0 0 0 0 127 0" result="hardAlpha"/>
<feOffset dy="6.57476"/>
<feGaussianBlur stdDeviation="6.57476"/>
<feColorMatrix type="matrix" values="0 0 0 0 0.0705882 0 0 0 0 0.105882 0 0 0 0 0.129412 0 0 0 0.1 0"/>
<feBlend mode="normal" in2="BackgroundImageFix" result="effect1_dropShadow_55358_765213"/>
<feBlend mode="normal" in="SourceGraphic" in2="effect1_dropShadow_55358_765213" result="shape"/>
</filter>
<clipPath id="clip0_55358_765213">
<rect width="196" height="121" fill="white"/>
</clipPath>
</defs>
</svg>
