<svg width="196" height="121" viewBox="0 0 196 121" fill="none" xmlns="http://www.w3.org/2000/svg">
<g clip-path="url(#clip0_55358_765309)">
<path d="M63.177 27.8712L63.177 27.8712C63.1914 27.6101 63.4201 27.4089 63.6877 27.4219L68.3154 27.6458C68.583 27.6588 68.7883 27.8809 68.7738 28.142C68.7594 28.4031 68.5308 28.6043 68.2631 28.5913L63.6355 28.3674C63.3678 28.3544 63.1626 28.1323 63.177 27.8712Z" fill="#999999"/>
<path d="M63.177 27.8712L63.177 27.8712C63.1626 28.1323 63.3678 28.3544 63.6355 28.3674L68.2631 28.5913C68.5308 28.6043 68.7594 28.4031 68.7738 28.142L68.7738 28.142C68.7883 27.8809 68.583 27.6588 68.3154 27.6458L63.6877 27.4219C63.4201 27.4089 63.1914 27.6101 63.177 27.8712Z" stroke="#0078CE" stroke-width="0.970343"/>
<path d="M78.8474 15.523L78.8474 15.523C79.1194 15.5362 79.328 15.762 79.3133 16.0273L79.0712 20.4089C79.0565 20.6742 78.8242 20.8786 78.5522 20.8655C78.2802 20.8523 78.0716 20.6266 78.0863 20.3612L78.3284 15.9796C78.3431 15.7143 78.5754 15.5099 78.8474 15.523Z" fill="#999999"/>
<path d="M78.8474 15.523L78.8474 15.523C78.5754 15.5099 78.3431 15.7143 78.3284 15.9796L78.0863 20.3612C78.0716 20.6266 78.2802 20.8523 78.5522 20.8655L78.5522 20.8655C78.8242 20.8786 79.0565 20.6742 79.0712 20.4089L79.3133 16.0273C79.328 15.762 79.1194 15.5362 78.8474 15.523Z" stroke="#0078CE" stroke-width="0.98611"/>
<path d="M68.0392 19.3557C67.8563 19.1609 67.8722 18.8609 68.0747 18.6856C68.2772 18.5103 68.5897 18.5261 68.7726 18.7208L71.8445 21.9919C72.0274 22.1867 72.0115 22.4867 71.809 22.662C71.6065 22.8373 71.294 22.8216 71.1111 22.6268L68.0392 19.3557Z" fill="#999999" stroke="#0078CE" stroke-width="0.980368"/>
<path d="M99.4902 21.5986C123.302 21.5986 142.61 40.4741 142.61 63.7623C142.61 87.0508 123.303 105.927 99.4902 105.927C75.6778 105.926 56.3711 87.0506 56.3711 63.7623C56.3712 40.4742 75.6779 21.5989 99.4902 21.5986Z" fill="#BFDBEE" stroke="#111B22" stroke-width="1.87309"/>
<path d="M99.8363 54.8091V42.8939M99.8363 42.8939H74.0586M99.8363 42.8939V28.2264C99.8363 27.7216 100.255 27.3125 100.773 27.3125H114.834M99.8363 73.1402V85.0554M99.8363 85.0554H119.052M99.8363 85.0554V93.3071C99.8363 93.8118 99.4169 94.221 98.8997 94.221H82.0262" stroke="#111B22" stroke-width="1.87309"/>
<g filter="url(#filter0_d_55358_765309)">
<path d="M73.52 30.52H54.9142C53.5809 30.52 52.5 31.5747 52.5 32.8758V51.078C52.5 52.3791 53.5809 53.4338 54.9142 53.4338H73.52C74.8533 53.4338 75.9342 52.3791 75.9342 51.078V32.8758C75.9342 31.5747 74.8533 30.52 73.52 30.52Z" fill="white"/>
<path d="M71.6387 33.2666H56.7823C55.9663 33.2666 55.3047 33.9122 55.3047 34.7085V49.2445C55.3047 50.0409 55.9663 50.6865 56.7823 50.6865H71.6387C72.4547 50.6865 73.1163 50.0409 73.1163 49.2445V34.7085C73.1163 33.9122 72.4547 33.2666 71.6387 33.2666Z" fill="white" stroke="#111B22" stroke-width="1.87309"/>
<path d="M67.4998 37.853H60.9365C60.4193 37.853 60 38.2622 60 38.7669V45.1881C60 45.6928 60.4193 46.102 60.9365 46.102H67.4998C68.017 46.102 68.4363 45.6928 68.4363 45.1881V38.7669C68.4363 38.2622 68.017 37.853 67.4998 37.853Z" fill="#0078CE"/>
</g>
<g filter="url(#filter1_d_55358_765309)">
<path d="M132.582 14.0229H113.977C112.643 14.0229 111.562 15.0777 111.562 16.3787V34.581C111.562 35.882 112.643 36.9368 113.977 36.9368H132.582C133.916 36.9368 134.997 35.882 134.997 34.581V16.3787C134.997 15.0777 133.916 14.0229 132.582 14.0229Z" fill="white"/>
<path d="M130.705 16.7695H115.849C115.033 16.7695 114.371 17.4151 114.371 18.2114V32.7475C114.371 33.5438 115.033 34.1894 115.849 34.1894H130.705C131.521 34.1894 132.183 33.5438 132.183 32.7475V18.2114C132.183 17.4151 131.521 16.7695 130.705 16.7695Z" fill="white" stroke="#111B22" stroke-width="1.87309"/>
<path d="M127.875 25.567C127.875 27.8926 125.903 29.778 123.469 29.778C121.035 29.778 119.062 27.8926 119.062 25.567C119.062 23.2413 121.035 21.356 123.469 21.356C125.903 21.356 127.875 23.2413 127.875 25.567Z" fill="#0078CE"/>
</g>
<g filter="url(#filter2_d_55358_765309)">
<path d="M107.266 51.6016H88.6603C87.327 51.6016 86.2461 52.6563 86.2461 53.9574V72.1596C86.2461 73.4606 87.327 74.5154 88.6603 74.5154H107.266C108.599 74.5154 109.68 73.4606 109.68 72.1596V53.9574C109.68 52.6563 108.599 51.6016 107.266 51.6016Z" fill="white"/>
<path d="M105.385 54.3481H90.5284C89.7123 54.3481 89.0508 54.9937 89.0508 55.7901V70.3261C89.0508 71.1224 89.7123 71.768 90.5284 71.768H105.385C106.201 71.768 106.862 71.1224 106.862 70.3261V55.7901C106.862 54.9937 106.201 54.3481 105.385 54.3481Z" fill="white" stroke="#111B22" stroke-width="1.87309"/>
<path d="M102.559 63.146C102.559 65.4716 100.586 67.3569 98.1525 67.3569C95.7189 67.3569 93.7461 65.4716 93.7461 63.146C93.7461 60.8203 95.7189 58.9351 98.1525 58.9351C100.586 58.9351 102.559 60.8203 102.559 63.146Z" fill="#0078CE"/>
</g>
<g filter="url(#filter3_d_55358_765309)">
<path d="M81.02 82.7671H62.4142C61.0809 82.7671 60 83.8218 60 85.1229V103.325C60 104.626 61.0809 105.681 62.4142 105.681H81.02C82.3533 105.681 83.4342 104.626 83.4342 103.325V85.1229C83.4342 83.8218 82.3533 82.7671 81.02 82.7671Z" fill="white"/>
<path d="M79.1426 85.5151H64.2863C63.4702 85.5151 62.8086 86.1607 62.8086 86.957V101.493C62.8086 102.289 63.4702 102.935 64.2863 102.935H79.1426C79.9586 102.935 80.6202 102.289 80.6202 101.493V86.957C80.6202 86.1607 79.9586 85.5151 79.1426 85.5151Z" fill="white" stroke="#111B22" stroke-width="1.87309"/>
<path d="M76.3127 94.311C76.3127 96.6367 74.3399 98.522 71.9063 98.522C69.4727 98.522 67.5 96.6367 67.5 94.311C67.5 91.9854 69.4727 90.1001 71.9063 90.1001C74.3399 90.1001 76.3127 91.9854 76.3127 94.311Z" fill="#0078CE"/>
</g>
<g filter="url(#filter4_d_55358_765309)">
<path d="M138.207 74.5181H119.602C118.268 74.5181 117.188 75.5728 117.188 76.8739V95.0761C117.188 96.3772 118.268 97.4319 119.602 97.4319H138.207C139.541 97.4319 140.622 96.3772 140.622 95.0761V76.8739C140.622 75.5728 139.541 74.5181 138.207 74.5181Z" fill="white"/>
<path d="M136.334 77.2651H121.478C120.662 77.2651 120 77.9107 120 78.707V93.2431C120 94.0394 120.662 94.685 121.478 94.685H136.334C137.15 94.685 137.812 94.0394 137.812 93.2431V78.707C137.812 77.9107 137.15 77.2651 136.334 77.2651Z" fill="white" stroke="#111B22" stroke-width="1.87309"/>
<path d="M132.187 81.8516H125.624C125.107 81.8516 124.688 82.2607 124.688 82.7654V89.1867C124.688 89.6914 125.107 90.1005 125.624 90.1005H132.187C132.705 90.1005 133.124 89.6914 133.124 89.1867V82.7654C133.124 82.2607 132.705 81.8516 132.187 81.8516Z" fill="#0078CE"/>
</g>
</g>
<defs>
<filter id="filter0_d_55358_765309" x="37.5153" y="23.0277" width="53.403" height="52.883" filterUnits="userSpaceOnUse" color-interpolation-filters="sRGB">
<feFlood flood-opacity="0" result="BackgroundImageFix"/>
<feColorMatrix in="SourceAlpha" type="matrix" values="0 0 0 0 0 0 0 0 0 0 0 0 0 0 0 0 0 0 127 0" result="hardAlpha"/>
<feOffset dy="7.49236"/>
<feGaussianBlur stdDeviation="7.49236"/>
<feColorMatrix type="matrix" values="0 0 0 0 0.0705882 0 0 0 0 0.105882 0 0 0 0 0.129412 0 0 0 0.1 0"/>
<feBlend mode="normal" in2="BackgroundImageFix" result="effect1_dropShadow_55358_765309"/>
<feBlend mode="normal" in="SourceGraphic" in2="effect1_dropShadow_55358_765309" result="shape"/>
</filter>
<filter id="filter1_d_55358_765309" x="96.5778" y="6.53059" width="53.403" height="52.883" filterUnits="userSpaceOnUse" color-interpolation-filters="sRGB">
<feFlood flood-opacity="0" result="BackgroundImageFix"/>
<feColorMatrix in="SourceAlpha" type="matrix" values="0 0 0 0 0 0 0 0 0 0 0 0 0 0 0 0 0 0 127 0" result="hardAlpha"/>
<feOffset dy="7.49236"/>
<feGaussianBlur stdDeviation="7.49236"/>
<feColorMatrix type="matrix" values="0 0 0 0 0.0705882 0 0 0 0 0.105882 0 0 0 0 0.129412 0 0 0 0.1 0"/>
<feBlend mode="normal" in2="BackgroundImageFix" result="effect1_dropShadow_55358_765309"/>
<feBlend mode="normal" in="SourceGraphic" in2="effect1_dropShadow_55358_765309" result="shape"/>
</filter>
<filter id="filter2_d_55358_765309" x="71.2614" y="44.1092" width="53.403" height="52.883" filterUnits="userSpaceOnUse" color-interpolation-filters="sRGB">
<feFlood flood-opacity="0" result="BackgroundImageFix"/>
<feColorMatrix in="SourceAlpha" type="matrix" values="0 0 0 0 0 0 0 0 0 0 0 0 0 0 0 0 0 0 127 0" result="hardAlpha"/>
<feOffset dy="7.49236"/>
<feGaussianBlur stdDeviation="7.49236"/>
<feColorMatrix type="matrix" values="0 0 0 0 0.0705882 0 0 0 0 0.105882 0 0 0 0 0.129412 0 0 0 0.1 0"/>
<feBlend mode="normal" in2="BackgroundImageFix" result="effect1_dropShadow_55358_765309"/>
<feBlend mode="normal" in="SourceGraphic" in2="effect1_dropShadow_55358_765309" result="shape"/>
</filter>
<filter id="filter3_d_55358_765309" x="45.0153" y="75.2747" width="53.403" height="52.883" filterUnits="userSpaceOnUse" color-interpolation-filters="sRGB">
<feFlood flood-opacity="0" result="BackgroundImageFix"/>
<feColorMatrix in="SourceAlpha" type="matrix" values="0 0 0 0 0 0 0 0 0 0 0 0 0 0 0 0 0 0 127 0" result="hardAlpha"/>
<feOffset dy="7.49236"/>
<feGaussianBlur stdDeviation="7.49236"/>
<feColorMatrix type="matrix" values="0 0 0 0 0.0705882 0 0 0 0 0.105882 0 0 0 0 0.129412 0 0 0 0.1 0"/>
<feBlend mode="normal" in2="BackgroundImageFix" result="effect1_dropShadow_55358_765309"/>
<feBlend mode="normal" in="SourceGraphic" in2="effect1_dropShadow_55358_765309" result="shape"/>
</filter>
<filter id="filter4_d_55358_765309" x="102.203" y="67.0257" width="53.403" height="52.883" filterUnits="userSpaceOnUse" color-interpolation-filters="sRGB">
<feFlood flood-opacity="0" result="BackgroundImageFix"/>
<feColorMatrix in="SourceAlpha" type="matrix" values="0 0 0 0 0 0 0 0 0 0 0 0 0 0 0 0 0 0 127 0" result="hardAlpha"/>
<feOffset dy="7.49236"/>
<feGaussianBlur stdDeviation="7.49236"/>
<feColorMatrix type="matrix" values="0 0 0 0 0.0705882 0 0 0 0 0.105882 0 0 0 0 0.129412 0 0 0 0.1 0"/>
<feBlend mode="normal" in2="BackgroundImageFix" result="effect1_dropShadow_55358_765309"/>
<feBlend mode="normal" in="SourceGraphic" in2="effect1_dropShadow_55358_765309" result="shape"/>
</filter>
<clipPath id="clip0_55358_765309">
<rect width="196" height="121" fill="white"/>
</clipPath>
</defs>
</svg>
