<svg width="196" height="121" viewBox="0 0 196 121" fill="none" xmlns="http://www.w3.org/2000/svg">
<path d="M143.708 47.9121C144.797 48.2524 145.404 49.4109 145.064 50.4996L127.81 105.696C127.47 106.785 126.311 107.391 125.223 107.051L102.553 99.9651C101.465 99.6248 100.858 98.4663 101.198 97.3776L111.418 64.682C111.582 64.1592 111.946 63.7227 112.431 63.4686L115.603 61.8077C115.992 61.6039 116.436 61.5295 116.87 61.5953L129.631 63.5279L130.987 57.46L117.262 52.6943C116.208 52.3284 115.635 51.1918 115.968 50.1271L118.452 42.1812C118.792 41.0925 119.951 40.4858 121.039 40.8261L143.708 47.9121Z" fill="#CFE4F1"/>
<path d="M144.387 49.2064L126.517 106.374C126.347 106.918 125.767 107.221 125.223 107.051L102.554 99.965C102.01 99.7948 101.706 99.2161 101.876 98.6718L119.746 41.5041C119.916 40.9598 120.495 40.6559 121.04 40.8259L143.709 47.912C144.253 48.0821 144.557 48.662 144.387 49.2064Z" stroke="#111B22" stroke-width="2.06533"/>
<path d="M142.531 55.1198C138.72 53.9287 136.597 49.8741 137.788 46.0636" stroke="#111B22" stroke-width="2.06533"/>
<path d="M102.735 92.4496C107.09 93.8108 109.654 98.0033 108.463 101.814" stroke="#111B22" stroke-width="2.06533"/>
<path d="M126.951 42.6756C125.76 46.4862 121.264 48.4717 116.91 47.1105" stroke="#111B22" stroke-width="2.06533"/>
<path d="M119.308 105.203C120.499 101.392 124.553 99.2688 128.364 100.46" stroke="#111B22" stroke-width="2.06533"/>
<ellipse cx="122.977" cy="74.4323" rx="7.7451" ry="7.74487" transform="rotate(107.358 122.977 74.4323)" fill="#CFE4F1" stroke="#0078CE" stroke-width="2.06533"/>
<path d="M120.638 75.5031C120.497 75.9639 120.562 76.9917 121.949 77.4157C123.337 77.8398 123.965 77.0241 124.106 76.5632C124.247 76.1024 124.182 75.0746 122.794 74.6506C121.06 74.1205 121.377 73.0836 121.483 72.7379C121.588 72.3923 121.905 71.3554 123.64 71.8854C125.027 72.3095 125.092 73.3372 124.951 73.7981" stroke="#0078CE" stroke-width="1.03267" stroke-linecap="round"/>
<path d="M121.703 78.2065L123.876 71.0962" stroke="#0078CE" stroke-width="1.03267" stroke-linecap="round"/>
<path d="M74.4722 40.5815C75.5403 40.1813 76.7307 40.7228 77.1308 41.791L97.4199 95.9452C97.8201 97.0134 97.2786 98.2037 96.2104 98.6039L73.9693 106.937C72.9011 107.337 71.7108 106.795 71.3106 105.727L59.2924 73.6489C59.1002 73.136 59.1197 72.5677 59.3465 72.0691L60.8288 68.8106C61.0107 68.4107 61.3153 68.0793 61.6985 67.8644L72.9553 61.5512L70.2979 55.9301L56.5402 60.5999C55.4839 60.9585 54.3337 60.4134 53.9423 59.3688L51.0216 51.5729C50.6214 50.5048 51.1629 49.3144 52.231 48.9143L74.4722 40.5815Z" fill="#CFE4F1"/>
<path d="M75.8049 41.1859L96.8185 97.2742C97.0186 97.8083 96.7472 98.4033 96.2132 98.6033L73.9719 106.936C73.4379 107.136 72.8432 106.866 72.6431 106.332L51.6295 50.2433C51.4294 49.7093 51.6997 49.1138 52.2336 48.9137L74.4749 40.5809C75.009 40.3808 75.6048 40.6519 75.8049 41.1859Z" stroke="#111B22" stroke-width="2.06533"/>
<path d="M77.9775 46.9885C74.2391 48.3891 70.073 46.4939 68.6723 42.7553" stroke="#111B22" stroke-width="2.06533"/>
<path d="M69.499 100.892C73.7715 99.2911 78.3706 101.024 79.7712 104.763" stroke="#111B22" stroke-width="2.06533"/>
<path d="M58.0369 46.7398C59.4375 50.4784 57.1094 54.8067 52.8369 56.4075" stroke="#111B22" stroke-width="2.06533"/>
<path d="M90.4106 100.778C89.01 97.0392 90.9051 92.8731 94.6436 91.4724" stroke="#111B22" stroke-width="2.06533"/>
<ellipse cx="74.4061" cy="74.2429" rx="7.7451" ry="7.74487" transform="rotate(69.4614 74.4061 74.2429)" fill="#CFE4F1" stroke="#0078CE" stroke-width="2.06533"/>
<path d="M73.2248 76.524C73.3968 76.9742 74.0794 77.7452 75.4348 77.2276C76.7901 76.71 76.7851 75.6802 76.6131 75.23C76.4412 74.7798 75.7585 74.0088 74.4032 74.5264C72.709 75.1734 72.3222 74.1605 72.1933 73.8228C72.0643 73.4852 71.6775 72.4723 73.3716 71.8253C74.727 71.3077 75.4096 72.0787 75.5816 72.5288" stroke="#0078CE" stroke-width="1.03267" stroke-linecap="round"/>
<path d="M75.7266 77.999L73.074 71.0532" stroke="#0078CE" stroke-width="1.03267" stroke-linecap="round"/>
<path d="M113.418 27.935C114.844 27.938 115.998 29.0963 115.995 30.5221L115.842 102.81C115.839 104.235 114.681 105.389 113.255 105.386L83.5665 105.323C82.1407 105.32 80.9873 104.162 80.9903 102.736L81.0806 59.9166C81.082 59.2319 81.3554 58.5759 81.8405 58.0927L85.0113 54.9352C85.4004 54.5478 85.9029 54.2944 86.4458 54.2121L102.396 51.7925L101.767 44.0461L83.6163 43.4405C82.2227 43.394 81.1178 42.2493 81.1208 40.8549L81.1427 30.4486C81.1457 29.0228 82.304 27.8694 83.7298 27.8724L113.418 27.935Z" fill="white"/>
<path d="M114.707 29.2302L114.55 104.099C114.548 104.812 113.969 105.389 113.256 105.387L83.5674 105.325C82.8547 105.323 82.2777 104.744 82.2791 104.031L82.437 29.1621C82.4385 28.4493 83.018 27.8725 83.7307 27.8738L113.419 27.9364C114.132 27.938 114.709 28.5173 114.707 29.2302Z" stroke="#111B22" stroke-width="2.58166"/>
<path d="M114.688 36.9749C109.698 36.9644 105.661 32.9103 105.671 27.9199" stroke="#111B22" stroke-width="2.58166"/>
<path d="M81.0073 96.2834C86.7105 96.2954 91.3253 100.351 91.3148 105.341" stroke="#111B22" stroke-width="2.58166"/>
<path d="M91.4788 27.8899C91.4683 32.8803 86.8364 36.9161 81.1333 36.9041" stroke="#111B22" stroke-width="2.58166"/>
<path d="M105.507 105.371C105.518 100.38 109.572 96.3432 114.562 96.3537" stroke="#111B22" stroke-width="2.58166"/>
<ellipse cx="98.4899" cy="67.2757" rx="9.68138" ry="9.68109" transform="rotate(90.1208 98.4899 67.2757)" fill="#CFE4F1" stroke="#0078CE" stroke-width="2.18977"/>
<path d="M96.1071 69.4215C96.1097 70.0239 96.5681 71.2267 98.3816 71.2191C100.195 71.2114 100.643 70.0047 100.641 69.4024C100.638 68.8 100.18 67.5971 98.3663 67.6048C96.0995 67.6144 96.0937 66.2591 96.0918 65.8073C96.0899 65.3555 96.0842 64.0002 98.351 63.9906C100.164 63.9829 100.623 65.1857 100.626 65.7881" stroke="#0078CE" stroke-width="1.29083" stroke-linecap="round"/>
<path d="M98.3828 72.2515L98.3435 62.9577" stroke="#0078CE" stroke-width="1.29083" stroke-linecap="round"/>
<rect x="-0.355225" y="0.555424" width="0.935689" height="5.46805" rx="0.467845" transform="matrix(-0.977425 0.211281 0.218145 0.975916 109.985 15.2691)" fill="#0078CE" stroke="#0078CE" stroke-width="0.935689"/>
<rect x="-0.574209" y="-0.367239" width="0.96056" height="5.27737" rx="0.48028" transform="matrix(-0.218145 -0.975916 -0.977425 0.211281 125.438 27.3218)" fill="#0078CE" stroke="#0078CE" stroke-width="0.96056"/>
<rect x="-0.648456" y="0.14262" width="0.951532" height="5.34759" rx="0.475766" transform="matrix(-0.835354 -0.549712 -0.527618 0.849482 119.948 17.8286)" fill="#0078CE" stroke="#0078CE" stroke-width="0.951532"/>
</svg>
