<svg width="196" height="121" viewBox="0 0 196 121" fill="none" xmlns="http://www.w3.org/2000/svg">
<path d="M42.7389 32.6039C42.4739 32.6764 42.2011 32.5214 42.1296 32.2576C42.0581 31.9938 42.2149 31.7212 42.4799 31.6487L47.0498 30.3977C47.3148 30.3252 47.5875 30.4803 47.6591 30.744C47.7306 31.0078 47.5738 31.2804 47.3088 31.353L42.7389 32.6039Z" fill="#999999" stroke="#0078CE" stroke-width="0.996366"/>
<path d="M52.9628 15.628C52.8903 15.3604 53.0493 15.0838 53.3181 15.0103C53.5869 14.9367 53.8636 15.094 53.9362 15.3616L55.1376 19.7917C55.2101 20.0593 55.0511 20.3359 54.7823 20.4094C54.5135 20.483 54.2368 20.3257 54.1642 20.0582L52.9628 15.628Z" fill="#999999" stroke="#0078CE" stroke-width="1.01073"/>
<path d="M44.069 22.2574C43.8274 22.1224 43.7447 21.8196 43.8842 21.581C44.0236 21.3425 44.3325 21.2586 44.5741 21.3936L48.6341 23.6627C48.8757 23.7977 48.9584 24.1006 48.8189 24.3391C48.6795 24.5776 48.3706 24.6616 48.129 24.5266L44.069 22.2574Z" fill="#999999" stroke="#0078CE" stroke-width="1.00548"/>
<path d="M58.2735 25.7832H137.838C140.368 25.7833 142.419 27.8183 142.419 30.3277V39.859C142.419 42.3684 140.368 44.4025 137.838 44.4026H58.2735C55.7433 44.4026 53.6914 42.3684 53.6914 39.859V30.3277C53.6914 27.8182 55.7432 25.7832 58.2735 25.7832Z" fill="white" stroke="#111B22" stroke-width="0.538997"/>
<path d="M54.6953 98.61V44.665C55.9597 45.6472 138.904 45.8928 141.686 44.665V89.6028L137.64 93.8593V100.711C137.64 103.662 135.227 106.056 132.25 106.056H62.2023C60.1513 106.056 58.4885 104.407 58.4885 102.372C56.3936 102.372 54.6953 100.689 54.6953 98.61Z" fill="white"/>
<path d="M129.547 102.372V93.8795C129.547 91.5176 131.478 89.6028 133.86 89.6028H141.686M129.547 102.372H58.4885M129.547 102.372L137.64 93.8593M141.686 89.6028V44.665C138.904 45.8928 55.9597 45.6472 54.6953 44.665V98.61C54.6953 100.689 56.3936 102.372 58.4885 102.372M141.686 89.6028L137.64 93.8593M58.4885 102.372C58.4885 104.407 60.1513 106.056 62.2023 106.056H132.25C135.227 106.056 137.64 103.662 137.64 100.711V93.8593" stroke="#111B22" stroke-width="2.49661"/>
<path d="M58.3391 24.5337H66.0656V19.2047C66.0656 17.2655 67.6507 15.6934 69.6059 15.6934C71.5612 15.6934 73.1463 17.2655 73.1463 19.2047V24.5337H122.71V19.2047C122.71 17.2655 124.296 15.6934 126.251 15.6934C128.206 15.6934 129.792 17.2655 129.792 19.2047V24.5337H137.771C141.045 24.5337 143.699 27.1664 143.699 30.414V39.526C143.699 42.7737 141.045 45.4065 137.771 45.4065H58.3391C55.0646 45.4065 52.4102 42.7737 52.4102 39.526V30.414C52.4102 27.1664 55.0646 24.5337 58.3391 24.5337Z" fill="#BFDBEE"/>
<path d="M66.0656 24.5337H58.3391C55.0646 24.5337 52.4102 27.1664 52.4102 30.414V39.526C52.4102 42.7737 55.0646 45.4065 58.3391 45.4065H137.771C141.045 45.4065 143.699 42.7737 143.699 39.526V30.414C143.699 27.1664 141.045 24.5337 137.771 24.5337H129.792M66.0656 24.5337V19.2047C66.0656 17.2655 67.6507 15.6934 69.6059 15.6934C71.5612 15.6934 73.1463 17.2655 73.1463 19.2047V24.5337M66.0656 24.5337V29.8626C66.0656 31.8018 67.6507 33.3739 69.6059 33.3739C71.5612 33.3739 73.1463 31.8018 73.1463 29.8626V24.5337M129.792 24.5337V19.2047C129.792 17.2655 128.206 15.6934 126.251 15.6934C124.296 15.6934 122.71 17.2655 122.71 19.2047V24.5337M129.792 24.5337V29.8626C129.792 31.8018 128.206 33.3739 126.251 33.3739C124.296 33.3739 122.71 31.8018 122.71 29.8626V24.5337M73.1463 24.5337H122.71" stroke="#111B22" stroke-width="2.49661"/>
<path d="M129.784 19.2047V24.5337V29.8626C129.784 31.8018 128.198 33.3739 126.243 33.3739C124.288 33.3739 122.703 31.8018 122.703 29.8626V24.5337V19.2047C122.703 17.2655 124.288 15.6934 126.243 15.6934C128.198 15.6934 129.784 17.2655 129.784 19.2047Z" stroke="#111B22" stroke-width="2.15599"/>
<path d="M73.1392 19.2047V24.5337V29.8626C73.1392 31.8018 71.5542 33.3739 69.5989 33.3739C67.6437 33.3739 66.0586 31.8018 66.0586 29.8626V24.5337V19.2047C66.0586 17.2655 67.6437 15.6934 69.5989 15.6934C71.5542 15.6934 73.1392 17.2655 73.1392 19.2047Z" stroke="#111B22" stroke-width="2.15599"/>
<path d="M83.3786 58.998H74.035C73.4397 58.998 72.957 59.4767 72.957 60.0672V69.0509C72.957 69.6414 73.4397 70.12 74.035 70.12H83.3786C83.9739 70.12 84.4566 69.6414 84.4566 69.0509V60.0672C84.4566 59.4767 83.9739 58.998 83.3786 58.998Z" stroke="#111B22" stroke-width="2.15599"/>
<path d="M83.3786 76.6797H74.035C73.4397 76.6797 72.957 77.1584 72.957 77.7488V86.7325C72.957 87.323 73.4397 87.8017 74.035 87.8017H83.3786C83.9739 87.8017 84.4566 87.323 84.4566 86.7325V77.7488C84.4566 77.1584 83.9739 76.6797 83.3786 76.6797Z" stroke="#111B22" stroke-width="2.15599"/>
<path d="M102.601 76.6797H93.2577C92.6623 76.6797 92.1797 77.1584 92.1797 77.7488V86.7325C92.1797 87.323 92.6623 87.8017 93.2577 87.8017H102.601C103.197 87.8017 103.679 87.323 103.679 86.7325V77.7488C103.679 77.1584 103.197 76.6797 102.601 76.6797Z" stroke="#111B22" stroke-width="2.15599"/>
<path d="M121.816 76.6797H112.473C111.877 76.6797 111.395 77.1584 111.395 77.7488V86.7325C111.395 87.323 111.877 87.8017 112.473 87.8017H121.816C122.411 87.8017 122.894 87.323 122.894 86.7325V77.7488C122.894 77.1584 122.411 76.6797 121.816 76.6797Z" stroke="#111B22" stroke-width="2.15599"/>
<path d="M102.601 58.998H93.2577C92.6623 58.998 92.1797 59.4767 92.1797 60.0672V69.0509C92.1797 69.6414 92.6623 70.12 93.2577 70.12H102.601C103.197 70.12 103.679 69.6414 103.679 69.0509V60.0672C103.679 59.4767 103.197 58.998 102.601 58.998Z" stroke="#111B22" stroke-width="2.15599"/>
<path d="M121.816 58.998H112.473C111.877 58.998 111.395 59.4767 111.395 60.0672V69.0509C111.395 69.6414 111.877 70.12 112.473 70.12H121.816C122.411 70.12 122.894 69.6414 122.894 69.0509V60.0672C122.894 59.4767 122.411 58.998 121.816 58.998Z" stroke="#111B22" stroke-width="2.15599"/>
<path d="M78.5729 78.8262C80.5892 78.8264 82.2151 80.417 82.2151 82.3681C82.2149 84.3191 80.5891 85.9089 78.5729 85.9091C76.5566 85.9091 74.9298 84.3193 74.9297 82.3681C74.9297 80.4169 76.5565 78.8262 78.5729 78.8262Z" fill="#0078CE" stroke="#111B22" stroke-width="0.538997"/>
<path d="M97.788 61.1436C99.804 61.1438 101.43 62.7344 101.43 64.6855C101.43 66.6365 99.804 68.2262 97.788 68.2265C95.771 68.2265 94.1446 66.6366 94.1445 64.6855C94.1445 62.7342 95.771 61.1436 97.788 61.1436Z" fill="#0078CE" stroke="#111B22" stroke-width="0.538997"/>
<path d="M117.006 78.8262C119.023 78.8264 120.649 80.417 120.649 82.3681C120.648 84.3191 119.022 85.9089 117.006 85.9091C114.99 85.9091 113.363 84.3193 113.363 82.3681C113.363 80.4169 114.989 78.8262 117.006 78.8262Z" fill="#0078CE" stroke="#111B22" stroke-width="0.538997"/>
</svg>
