<svg width="196" height="121" viewBox="0 0 196 121" fill="none" xmlns="http://www.w3.org/2000/svg">
<path d="M117.83 23.2061H75.2529V27.9385C75.2529 31.7706 72.1465 34.8777 68.3145 34.8779H63.209V96.6719C63.209 99.1719 65.2353 101.199 67.7354 101.199H117.83C120.33 101.199 122.356 99.1718 122.356 96.6719V27.7324C122.356 25.2327 120.33 23.2063 117.83 23.2061ZM72.8408 24.8477L64.9805 32.4658H68.3145C70.8143 32.4656 72.8408 30.4384 72.8408 27.9385V24.8477Z" fill="white" stroke="#111B22" stroke-width="2.41215"/>
<rect x="68.7721" y="40.028" width="12.1877" height="12.1877" rx="2.36983" stroke="#111B22" stroke-width="0.677094"/>
<path d="M71.4805 46.5957L73.5638 48.4916L78.2514 43.752" stroke="#111B22" stroke-width="0.677094" stroke-linejoin="round"/>
<path d="M88.3242 41.6992H103.934C104.484 41.6992 104.931 42.1459 104.931 42.6973C104.931 43.2487 104.484 43.6953 103.934 43.6953H88.3242C87.774 43.6952 87.3271 43.2486 87.3271 42.6973C87.3272 42.146 87.7741 41.6994 88.3242 41.6992Z" fill="#111B22" stroke="#111B22" stroke-width="1.6081"/>
<path d="M88.3242 49.5073H114.74C115.291 49.5073 115.737 49.954 115.737 50.5054C115.737 51.0568 115.291 51.5034 114.74 51.5034H88.3242C87.774 51.5033 87.3271 51.0567 87.3271 50.5054C87.3272 49.9541 87.7741 49.5075 88.3242 49.5073Z" fill="#111B22" stroke="#111B22" stroke-width="1.6081"/>
<rect x="68.7721" y="58.5212" width="12.1877" height="12.1877" rx="2.36983" stroke="#111B22" stroke-width="0.677094"/>
<path d="M71.4805 65.0889L73.5638 66.9848L78.2514 62.2451" stroke="#111B22" stroke-width="0.677094" stroke-linejoin="round"/>
<path d="M88.0918 60.1924H101.68C102 60.1924 102.443 60.5308 102.443 61.1904C102.443 61.8501 102 62.1885 101.68 62.1885H88.0918C87.7713 62.1885 87.3271 61.8501 87.3271 61.1904C87.3272 60.5308 87.7713 60.1924 88.0918 60.1924Z" fill="#111B22" stroke="#111B22" stroke-width="1.6081"/>
<path d="M101.899 67.8306C101.921 67.8561 101.953 67.9006 101.991 67.9771C102.107 68.2066 102.202 68.5804 102.202 69.0366C102.202 69.4929 102.107 69.8665 101.991 70.0962C101.953 70.1719 101.922 70.217 101.9 70.2427H87.2275C87.2064 70.217 87.1741 70.1723 87.1357 70.0962C87.0201 69.8665 86.9248 69.4929 86.9248 69.0366C86.9249 68.5804 87.02 68.2066 87.1357 67.9771C87.1745 67.9002 87.2074 67.856 87.2285 67.8306H101.899Z" fill="#111B22" stroke="#111B22" stroke-width="1.6081"/>
<rect x="68.7721" y="77.0138" width="12.1877" height="12.1877" rx="2.36983" stroke="#111B22" stroke-width="0.677094"/>
<path d="M71.4805 83.5816L73.5638 85.4775L78.2514 80.7378" stroke="#111B22" stroke-width="0.677094" stroke-linejoin="round"/>
<path d="M92.5244 78.6855C92.6026 78.9033 92.666 79.2559 92.666 79.6836C92.666 80.1112 92.6026 80.4638 92.5244 80.6816H87.4697C87.3915 80.4638 87.3271 80.1113 87.3271 79.6836C87.3272 79.2558 87.3915 78.9033 87.4697 78.6855H92.5244Z" fill="#111B22" stroke="#111B22" stroke-width="1.6081"/>
<path d="M96.4326 86.4937C96.5108 86.7114 96.5742 87.0641 96.5742 87.4917C96.5742 87.9192 96.5108 88.2719 96.4326 88.4897H87.4697C87.3915 88.2719 87.3271 87.9194 87.3271 87.4917C87.3272 87.0639 87.3915 86.7114 87.4697 86.4937H96.4326Z" fill="#111B22" stroke="#111B22" stroke-width="1.6081"/>
<rect x="0.49148" y="0.527508" width="1.02264" height="5.94674" rx="0.51132" transform="matrix(-0.0382765 0.999267 0.999475 0.0323914 51.9909 26.6477)" fill="#999999" stroke="#0078CE" stroke-width="1.02264"/>
<rect x="-0.542437" y="0.50539" width="1.04541" height="5.77219" rx="0.522703" transform="matrix(-0.999475 -0.0323899 -0.0382781 0.999267 68.884 13.5516)" fill="#999999" stroke="#0078CE" stroke-width="1.04541"/>
<rect x="-0.0255794" y="0.724805" width="1.03713" height="5.83641" rx="0.518566" transform="matrix(-0.739056 0.673644 0.689728 0.724068 57.3853 16.8061)" fill="#999999" stroke="#0078CE" stroke-width="1.03713"/>
<path d="M98.9883 85.118C98.9883 87.4937 99.4562 89.8462 100.365 92.0411C101.275 94.236 102.607 96.2304 104.287 97.9103C105.967 99.5902 107.961 100.923 110.156 101.832C112.351 102.741 114.704 103.209 117.079 103.209C119.455 103.209 121.808 102.741 124.003 101.832C126.197 100.923 128.192 99.5902 129.872 97.9103C131.552 96.2304 132.884 94.236 133.793 92.0411C134.703 89.8462 135.17 87.4937 135.17 85.118C135.17 80.3199 133.264 75.7184 129.872 72.3256C126.479 68.9329 121.877 67.0269 117.079 67.0269C112.281 67.0269 107.68 68.9329 104.287 72.3256C100.894 75.7184 98.9883 80.3199 98.9883 85.118Z" fill="#CFE4F1" stroke="#0078CE" stroke-width="2.41215" stroke-linecap="round" stroke-linejoin="round"/>
<path d="M110.162 78.8898C105.602 72.0734 113.737 68.6353 113.737 68.6353C108.697 69.5004 106.284 71.024 103.076 74.7031C102.733 75.0967 102.439 75.5329 102.202 75.9982C100.892 78.5718 100.19 80.4976 99.5538 83.0588C99.1463 84.7006 99.1149 86.4144 99.4279 88.0767C99.7815 89.9546 100.158 91.5592 100.735 93.611C101.049 94.7296 101.558 95.7884 102.276 96.7021C104.046 98.9559 105.687 100.498 107.175 101.627C107.951 102.216 108.846 102.623 109.776 102.914L113.29 104.013C113.29 104.013 109.884 101.431 115.972 98.8861C122.059 96.3412 114.721 85.7062 110.162 78.8898Z" fill="#0078CE" fill-opacity="0.2"/>
<path d="M112.816 85.52H107.027" stroke="#0078CE" stroke-width="2.41215" stroke-linecap="round" stroke-linejoin="round"/>
<path d="M109.922 88.4146L107.027 85.5201L109.922 82.6255" stroke="#0078CE" stroke-width="2.41215" stroke-linecap="round" stroke-linejoin="round"/>
<path d="M126.324 85.52H120.535" stroke="#0078CE" stroke-width="2.41215" stroke-linecap="round" stroke-linejoin="round"/>
<path d="M123.43 88.4146L126.324 85.5201L123.43 82.6255" stroke="#0078CE" stroke-width="2.41215" stroke-linecap="round" stroke-linejoin="round"/>
<path d="M116.676 77.8013V93.239" stroke="#0078CE" stroke-width="2.41215" stroke-linecap="round" stroke-linejoin="round"/>
</svg>
