<svg width="196" height="121" viewBox="0 0 196 121" fill="none" xmlns="http://www.w3.org/2000/svg">
<path d="M93.4394 54.2275L69.9648 61.7748L92.9564 69.6123L116.238 61.7748L93.4394 54.2275Z" fill="#CFE4F1"/>
<path d="M86.1615 61.1507C93.4881 58.4584 93.4881 54.2275 93.4881 54.2275L70.3516 61.9199L93.1024 69.6123C93.1024 69.6123 78.8349 63.843 86.1615 61.1507Z" fill="#0078CE" fill-opacity="0.2"/>
<path d="M62.6367 91.9203V78.074L83.8452 85.3817L85.7732 84.6125L93.871 72.3047L95.4134 74.2278L102.354 83.8433L103.897 84.6125L124.72 78.4586V81.9202V91.9203L123.948 93.4587L122.02 94.228L94.2566 102.305H92.3285L63.7935 93.4587L62.6367 91.9203Z" fill="#CFE4F1"/>
<path d="M62.6367 91.9205V78.0742L81.5567 90.4265C83.0789 91.4202 84.6925 92.2663 86.3756 92.953L87.1457 93.2673C90.5683 94.6638 94.2297 95.3821 97.9263 95.3821H101.583L107.119 94.6292C109.071 94.3637 110.966 93.7797 112.729 92.9004C115.533 91.5021 117.923 89.3965 119.664 86.7917L121.635 83.8435L124.72 78.4588V81.9204V91.9205L123.948 93.459L122.02 94.2282L94.2566 102.305H92.3285L63.7935 93.459L62.6367 91.9205Z" fill="#0078CE" fill-opacity="0.2"/>
<path d="M61.3847 64.8491C61.6332 64.5031 61.5542 64.0212 61.2082 63.7728C60.8623 63.5243 60.3804 63.6033 60.1319 63.9493L60.7583 64.3992L61.3847 64.8491ZM121.026 63.8792C121.431 63.7482 121.653 63.3134 121.522 62.9081C121.391 62.5029 120.957 62.2805 120.551 62.4115L120.789 63.1453L121.026 63.8792ZM96.0997 74.2643C95.8485 73.9204 95.366 73.8452 95.022 74.0964C94.6781 74.3476 94.6029 74.8301 94.8542 75.1741L95.4769 74.7192L96.0997 74.2643ZM63.3722 80.8919C63.3722 80.466 63.0269 80.1207 62.601 80.1207C62.175 80.1207 61.8297 80.466 61.8297 80.8919H62.601H63.3722ZM67.0101 59.7138C66.6064 59.8496 66.3892 60.287 66.525 60.6907C66.6608 61.0944 67.0981 61.3115 67.5018 61.1757L67.256 60.4448L67.0101 59.7138ZM64.2495 93.7395L64.4742 93.0017L64.2495 93.7395ZM101.969 83.6079L102.592 83.153L101.969 83.6079ZM104.526 84.4611L104.301 83.7234L104.526 84.4611ZM103.67 40.504L103.437 41.2392L103.67 40.504ZM131.151 52.3008L130.504 51.8808L131.151 52.3008ZM63.4962 62.2745L63.2611 63.009L63.4962 62.2745ZM62.0747 61.209L62.7138 60.7773L62.0747 61.209ZM94.3104 102.485L94.5338 103.223L94.3104 102.485ZM92.9586 102.484L93.1833 101.746L92.9586 102.484ZM83.4778 40.1395L83.2393 39.4061L83.4778 40.1395ZM132.216 72.8811L131.577 73.3126L132.216 72.8811ZM130.966 76.4082L130.741 75.6705L130.966 76.4082ZM83.3698 85.0564L83.1317 85.79L83.3698 85.0564ZM86.0622 84.0739L86.7168 84.4818L86.0622 84.0739ZM123.209 93.7375L122.986 92.9994L123.209 93.7375ZM54.8579 72.6146L55.4843 73.0645L54.8579 72.6146ZM60.7583 64.3992L60.1319 63.9493L54.2315 72.1647L54.8579 72.6146L55.4843 73.0645L61.3847 64.8491L60.7583 64.3992ZM56.0294 76.1845L55.7913 76.918L83.1317 85.79L83.3698 85.0564L83.6078 84.3229L56.2674 75.4509L56.0294 76.1845ZM86.0622 84.0739L86.7168 84.4818L94.2889 72.33L93.6343 71.9222L92.9798 71.5143L85.4077 83.6661L86.0622 84.0739ZM93.6343 71.9222L93.8715 72.656L121.026 63.8792L120.789 63.1453L120.551 62.4115L93.3971 71.1883L93.6343 71.9222ZM93.6343 71.9222L93.8695 71.1877L63.7314 61.54L63.4962 62.2745L63.2611 63.009L93.3992 72.6567L93.6343 71.9222ZM62.0747 61.209L62.7138 60.7773L56.6287 51.77L55.9897 52.2018L55.3506 52.6335L61.4357 61.6407L62.0747 61.209ZM57.1978 48.6872L57.4364 49.4206L83.7164 40.8729L83.4778 40.1395L83.2393 39.4061L56.9593 47.9538L57.1978 48.6872ZM86.0911 41.0005L85.4633 41.4484L93.0066 52.0194L93.6343 51.5715L94.2621 51.1235L86.7188 40.5525L86.0911 41.0005ZM93.6343 51.5715L93.3903 52.3031L124.618 62.7195L124.862 61.988L125.106 61.2564L93.8784 50.8399L93.6343 51.5715ZM124.862 61.988L125.509 62.4079L131.798 52.7207L131.151 52.3008L130.504 51.8808L124.215 61.568L124.862 61.988ZM129.902 48.8163L130.135 48.0811L103.902 39.7688L103.67 40.504L103.437 41.2392L129.669 49.5515L129.902 48.8163ZM101.085 41.3532L100.462 40.8996L94.8533 48.6102L95.4769 49.0638L96.1006 49.5175L101.709 41.8069L101.085 41.3532ZM124.862 61.988L124.222 62.4195L131.577 73.3126L132.216 72.8811L132.855 72.4496L125.501 61.5564L124.862 61.988ZM101.969 83.6079L102.592 83.153L96.0997 74.2643L95.4769 74.7192L94.8542 75.1741L101.347 84.0627L101.969 83.6079ZM130.966 76.4082L130.741 75.6705L124.637 77.5296L124.862 78.2673L125.086 79.0051L131.19 77.146L130.966 76.4082ZM124.862 78.2673L124.637 77.5296L104.301 83.7234L104.526 84.4611L104.75 85.1989L125.086 79.0051L124.862 78.2673ZM124.862 78.2673H124.09V91.5109H124.862H125.633V78.2673H124.862ZM123.209 93.7375L122.986 92.9994L94.087 101.747L94.3104 102.485L94.5338 103.223L123.433 94.4757L123.209 93.7375ZM92.9586 102.484L93.1833 101.746L64.4742 93.0017L64.2495 93.7395L64.0248 94.4772L92.7339 103.221L92.9586 102.484ZM62.601 91.5141H63.3722V80.8919H62.601H61.8297V91.5141H62.601ZM93.6343 51.5715L93.3884 50.8405L67.0101 59.7138L67.256 60.4448L67.5018 61.1757L93.8802 52.3024L93.6343 51.5715ZM64.2495 93.7395L64.4742 93.0017C63.8195 92.8023 63.3722 92.1984 63.3722 91.5141H62.601H61.8297C61.8297 92.8772 62.7208 94.0801 64.0248 94.4772L64.2495 93.7395ZM101.969 83.6079L101.347 84.0627C102.124 85.127 103.49 85.5829 104.75 85.1989L104.526 84.4611L104.301 83.7234C103.668 83.9162 102.982 83.6873 102.592 83.153L101.969 83.6079ZM103.67 40.504L103.902 39.7688C102.632 39.3661 101.246 39.8216 100.462 40.8996L101.085 41.3532L101.709 41.8069C102.103 41.2657 102.799 41.037 103.437 41.2392L103.67 40.504ZM131.151 52.3008L131.798 52.7207C132.912 51.0047 132.086 48.6991 130.135 48.0811L129.902 48.8163L129.669 49.5515C130.648 49.8618 131.063 51.0193 130.504 51.8808L131.151 52.3008ZM63.4962 62.2745L63.7314 61.54C63.3162 61.4071 62.9578 61.1385 62.7138 60.7773L62.0747 61.209L61.4357 61.6407C61.8734 62.2887 62.5164 62.7706 63.2611 63.009L63.4962 62.2745ZM94.3104 102.485L94.087 101.747C93.7923 101.836 93.4778 101.836 93.1833 101.746L92.9586 102.484L92.7339 103.221C93.3205 103.4 93.9469 103.401 94.5338 103.223L94.3104 102.485ZM83.4778 40.1395L83.7164 40.8729C84.3619 40.6629 85.069 40.8959 85.4633 41.4484L86.0911 41.0005L86.7188 40.5525C85.9335 39.4519 84.525 38.9879 83.2393 39.4061L83.4778 40.1395ZM132.216 72.8811L131.577 73.3126C132.162 74.1796 131.742 75.3657 130.741 75.6705L130.966 76.4082L131.19 77.146C133.184 76.5389 134.021 74.1765 132.855 72.4496L132.216 72.8811ZM83.3698 85.0564L83.1317 85.79C84.4854 86.2292 85.9642 85.6896 86.7168 84.4818L86.0622 84.0739L85.4077 83.6661C85.0298 84.2725 84.2874 84.5434 83.6078 84.3229L83.3698 85.0564ZM124.862 91.5109H124.09C124.09 92.1963 123.642 92.8008 122.986 92.9994L123.209 93.7375L123.433 94.4757C124.739 94.0802 125.633 92.876 125.633 91.5109H124.862ZM55.9897 52.2018L56.6287 51.77C56.0499 50.9132 56.453 49.7404 57.4364 49.4206L57.1978 48.6872L56.9593 47.9538C55.0006 48.5909 54.1976 50.9267 55.3506 52.6335L55.9897 52.2018ZM54.8579 72.6146L54.2315 72.1647C53.0078 73.8686 53.796 76.2705 55.7913 76.918L56.0294 76.1845L56.2674 75.4509C55.2656 75.1258 54.8699 73.9199 55.4843 73.0645L54.8579 72.6146Z" fill="#111B22"/>
<path d="M85.495 51.9196C85.495 51.9196 77.0358 35.5233 91.7433 36.7772C106.451 38.031 116.427 33.8697 110.777 20.3809" stroke="#0078CE" stroke-width="1.93864" stroke-linecap="round" stroke-dasharray="2.91 2.91"/>
<path d="M93.1016 21.1504C96.9723 29.4318 107.133 27.137 102.875 21.1504" stroke="#111B22" stroke-width="0.977948"/>
<path d="M93.1016 19.9966C97.1483 12.1195 106.051 12.9616 103.421 17.0425" stroke="#111B22" stroke-width="0.977948"/>
<path d="M92.3301 20.3809H104.67" stroke="#0078CE" stroke-width="2.93384" stroke-linecap="round"/>
<rect x="-0.584511" y="0.379537" width="0.988561" height="5.76047" rx="0.494281" transform="matrix(-0.977446 -0.210934 -0.205104 0.978792 131.766 36.9038)" fill="#0078CE" stroke="#0078CE" stroke-width="0.988561"/>
<rect x="-0.390942" y="-0.602212" width="1.01235" height="5.57805" rx="0.506177" transform="matrix(0.205103 -0.978792 -0.977446 -0.210934 141.364 55.2055)" fill="#0078CE" stroke="#0078CE" stroke-width="1.01235"/>
<rect x="-0.685907" y="-0.14568" width="1.00371" height="5.64519" rx="0.501855" transform="matrix(-0.53445 -0.844971 -0.832292 0.554689 140.234 43.7027)" fill="#0078CE" stroke="#0078CE" stroke-width="1.00371"/>
</svg>
