<svg width="196" height="121" viewBox="0 0 196 121" fill="none" xmlns="http://www.w3.org/2000/svg">
<rect width="196" height="121" fill="white"/>
<path d="M58.2178 27.2852H135.969C139.917 27.2852 143.117 30.4857 143.117 34.4336V46.5918H51.0693V34.4336C51.0693 30.4857 54.2699 27.2852 58.2178 27.2852Z" fill="#BFDBEE"/>
<path d="M58.2178 27.2852H135.969C139.917 27.2852 143.117 30.4857 143.117 34.4336V46.5918H51.0693V34.4336C51.0693 30.4857 54.2699 27.2852 58.2178 27.2852Z" stroke="#17222B" stroke-width="1.78707"/>
<path d="M60.1729 34.8799H84.8564C86.2085 34.88 87.2578 35.9057 87.2578 37.1143C87.2578 38.3228 86.2085 39.3476 84.8564 39.3477H60.1729C58.8207 39.3477 57.7705 38.3228 57.7705 37.1143C57.7705 35.9057 58.8207 34.8799 60.1729 34.8799Z" fill="#CFE4F1" stroke="#17222B" stroke-width="0.893537"/>
<path d="M114.508 33.9863C116.235 33.9863 117.635 35.387 117.635 37.1142C117.635 38.8413 116.235 40.2411 114.508 40.2411C112.781 40.2411 111.38 38.8414 111.38 37.1142C111.38 35.387 112.781 33.9863 114.508 33.9863Z" fill="#CFE4F1" stroke="#17222B" stroke-width="0.893537"/>
<path d="M123.441 33.9863C125.169 33.9863 126.568 35.387 126.568 37.1142C126.568 38.8413 125.169 40.2411 123.441 40.2411C121.714 40.2411 120.314 38.8414 120.313 37.1142C120.313 35.387 121.714 33.9863 123.441 33.9863Z" fill="#CFE4F1" stroke="#17222B" stroke-width="0.893537"/>
<path d="M132.379 33.9863C134.106 33.9863 135.506 35.387 135.506 37.1142C135.506 38.8413 134.106 40.2411 132.379 40.2411C130.652 40.2411 129.251 38.8414 129.251 37.1142C129.251 35.387 130.652 33.9863 132.379 33.9863Z" fill="#CFE4F1" stroke="#17222B" stroke-width="0.893537"/>
<path d="M142.146 36.5169C142.146 36.5169 139.615 38.8799 106.709 32.2982C88.5687 28.6698 61.584 45.3582 56.5062 46.2201C52.5186 46.8968 51.932 47.031 51.864 47.0574L51.8655 47.0638C51.8655 47.0638 51.8454 47.0646 51.864 47.0574L51.2525 44.5323C50.6364 41.9882 50.7516 39.2183 50.9303 36.6068C51.0505 34.8493 51.2235 32.879 51.9854 31.1604C52.5617 29.8604 53.76 28.9455 55.1147 28.5131C56.4633 28.0826 57.3595 28.1241 59.0835 27.7649C60.4645 27.4772 61.824 27.2364 63.2347 27.2279C75.1465 27.1561 128.487 26.6567 136.343 27.5394C136.855 27.597 137.322 27.7692 137.778 28.0111C142.098 30.3057 141.744 32.1004 142.146 36.5169Z" fill="#0078CE" fill-opacity="0.2"/>
<path d="M58.2178 107.342H135.969C139.917 107.342 143.117 104.141 143.117 100.193V54.2852H51.0693V100.193C51.0693 104.141 54.2699 107.342 58.2178 107.342Z" fill="white" stroke="#17222B" stroke-width="1.78707"/>
<mask id="mask0_56001_733674" style="mask-type:luminance" maskUnits="userSpaceOnUse" x="57" y="66" width="31" height="31">
<path d="M87.375 66.0479H57V96.4229H87.375V66.0479Z" fill="white"/>
</mask>
<g mask="url(#mask0_56001_733674)">
<path d="M74.9157 66.2246C74.9736 66.2364 75.0314 66.2482 75.091 66.2603C77.9413 66.8566 80.5632 68.1378 82.6578 70.1755C82.7802 70.2901 82.9125 70.3915 83.0434 70.4961C83.1086 70.5646 83.1717 70.6351 83.2325 70.7074C83.349 70.8445 83.4662 70.9786 83.5901 71.109C85.6864 73.3209 86.9304 76.3401 87.3149 79.3357C87.3201 79.3753 87.3253 79.4149 87.3306 79.4556C87.3719 79.7948 87.3846 80.1293 87.3863 80.4708C87.3867 80.5269 87.3871 80.583 87.3875 80.6409C87.4011 82.9852 87.4011 82.9852 87.1962 83.9631C87.1786 84.0499 87.1786 84.0499 87.1605 84.1384C86.576 86.9326 85.331 89.4898 83.3702 91.5736C83.2649 91.6877 83.1655 91.8013 83.0675 91.9212C82.953 92.0573 82.8453 92.1702 82.7097 92.2836C82.5739 92.3988 82.4412 92.5146 82.312 92.6373C80.1002 94.7338 77.0808 95.9778 74.0852 96.3623C74.0456 96.3675 74.006 96.3727 73.9653 96.378C73.6255 96.4194 73.2902 96.432 72.948 96.4337C72.8913 96.434 72.8346 96.4343 72.7761 96.4347C72.6563 96.4353 72.5365 96.4356 72.4167 96.4359C72.2381 96.4364 72.0595 96.4383 71.8809 96.4402C71.0791 96.4445 70.3076 96.3764 69.517 96.2436C69.4496 96.2325 69.3822 96.2213 69.3127 96.2098C69.1587 96.1822 69.0061 96.1514 68.8533 96.1176C68.7709 96.0994 68.7709 96.0994 68.6869 96.0808C66.124 95.4849 63.7613 94.2186 61.8473 92.4176C61.7333 92.3124 61.6197 92.2131 61.4999 92.1151C61.3625 91.9995 61.2483 91.8901 61.1335 91.7534C60.9818 91.5749 60.826 91.402 60.6663 91.2306C58.9218 89.2879 57.7935 86.847 57.2514 84.308C57.2396 84.2531 57.2278 84.1982 57.2156 84.1417C57.0203 83.1802 56.977 82.2349 56.9807 81.2564C56.9808 81.196 56.9809 81.1356 56.9811 81.0733C56.984 80.2059 57.0022 79.3576 57.1772 78.5051C57.189 78.445 57.2008 78.385 57.2129 78.3231C57.781 75.482 59.1037 72.844 61.1281 70.7631C61.2427 70.6406 61.3441 70.5084 61.4487 70.3774C61.5172 70.3123 61.5877 70.2491 61.66 70.1883C61.8531 70.024 62.0388 69.8539 62.2236 69.6803C64.2074 67.8747 66.843 66.713 69.4577 66.2246C69.5055 66.215 69.5532 66.2053 69.6024 66.1954C71.2631 65.8707 73.2599 65.8778 74.9157 66.2246ZM62.8725 72.0979C62.8382 72.132 62.8038 72.1661 62.7685 72.2012C62.013 72.9604 61.3843 73.8375 60.8554 74.7676C60.8209 74.8282 60.8209 74.8282 60.7858 74.89C59.1038 77.8765 58.6904 81.4334 59.6096 84.7344C60.1016 86.4577 60.8996 88.0374 62.0419 89.4211C62.0837 89.4719 62.0837 89.4719 62.1263 89.5237C62.7118 90.2316 63.334 90.8702 64.059 91.4382C64.1188 91.4865 64.1786 91.5347 64.2403 91.5845C64.7082 91.9584 65.1981 92.2727 65.7202 92.5654C65.7628 92.5896 65.8055 92.6138 65.8495 92.6387C68.7463 94.2669 72.291 94.7564 75.509 93.8706C77.811 93.2079 79.7037 92.065 81.4416 90.4297C81.4807 90.3931 81.5198 90.3566 81.56 90.3189C81.8655 90.024 82.1283 89.6947 82.3908 89.3618C82.4561 89.2792 82.4561 89.2792 82.5227 89.195C84.625 86.4661 85.5597 83.0289 85.144 79.6132C84.7505 76.6624 83.4173 74.0236 81.323 71.9199C81.2723 71.8689 81.2723 71.8689 81.2206 71.8168C80.3072 70.908 79.255 70.2069 78.1193 69.6062C78.0564 69.5725 78.0564 69.5725 77.9921 69.5381C73.0083 66.912 66.7786 68.2092 62.8725 72.0979Z" fill="#17222B"/>
<path d="M74.3815 74.0557C74.4535 74.0885 74.4535 74.0885 74.5268 74.122C74.9069 74.3143 75.2066 74.5892 75.5087 74.8862C75.5613 74.9376 75.5613 74.9376 75.6149 74.9901C76.1691 75.5812 76.3152 76.3575 76.2943 77.1392C76.251 78.0517 75.8046 78.8416 75.2121 79.5137C75.1747 79.5596 75.1373 79.6055 75.0988 79.6527C74.7816 80.0291 74.418 80.3327 74.0324 80.6358C73.4507 81.0981 73.0972 81.5408 73.0059 82.2909C72.9801 82.518 72.9596 82.7445 72.9459 82.9727C72.931 83.2159 72.9192 83.3891 72.8057 83.6072C72.3612 83.9719 71.8473 83.9474 71.2966 83.9038C71.0869 83.8657 70.9438 83.8043 70.8064 83.632C70.4149 83.0013 70.5361 82.029 70.6938 81.3387C71.0077 80.3209 71.6254 79.6531 72.4588 79.0171C73.0154 78.5912 73.4895 78.2076 73.6399 77.5003C73.6845 77.1642 73.6557 76.9053 73.4916 76.6067C73.1782 76.2149 72.7953 76.0431 72.3109 75.9692C71.6285 75.9132 71.0545 76.002 70.5179 76.4361C70.2958 76.6402 70.1354 76.8718 69.9759 77.1267C69.8204 77.3265 69.6702 77.4231 69.419 77.4609C68.9763 77.4571 68.6929 77.4146 68.3451 77.1221C68.0746 76.799 67.9997 76.5444 68.0132 76.1281C68.0979 75.4055 68.5235 74.8658 69.0642 74.4065C70.5481 73.3261 72.7531 73.3116 74.3815 74.0557Z" fill="#17222B"/>
<path d="M72.5679 85.4362C72.9589 85.7699 73.2635 86.1042 73.3273 86.6322C73.3444 87.114 73.2182 87.5753 72.8868 87.9353C72.4824 88.291 72.0823 88.3999 71.5461 88.3805C71.0773 88.3161 70.7222 88.0833 70.4305 87.7151C70.1563 87.2821 70.1206 86.8317 70.2282 86.3372C70.3576 85.9386 70.6256 85.5988 70.9874 85.384C71.503 85.1479 72.0685 85.1729 72.5679 85.4362Z" fill="#17222B"/>
</g>
<g filter="url(#filter0_d_56001_733674)">
<path d="M133.806 70.1865V98.3174H97.1104V70.1865H133.806Z" fill="#D2D2D2" stroke="#111B22" stroke-width="1.88507"/>
<path d="M134.558 59.6582H96.3994C94.9146 59.6582 93.7109 60.8519 93.7109 62.3243V70.42C93.7109 71.8924 94.9146 73.086 96.3994 73.086H134.558C136.042 73.086 137.246 71.8924 137.246 70.42V62.3243C137.246 60.8519 136.042 59.6582 134.558 59.6582Z" fill="white" stroke="#111B22" stroke-width="1.11362" stroke-linecap="round" stroke-linejoin="round"/>
<path d="M101.122 65.0068C101.904 65.0069 102.524 65.6337 102.524 66.3897C102.524 67.1456 101.904 67.7715 101.122 67.7715C100.34 67.7715 99.7198 67.1456 99.7197 66.3897C99.7197 65.6336 100.34 65.0068 101.122 65.0068Z" fill="#D2D2D2" stroke="#111B22" stroke-width="1.88507"/>
<path d="M108.493 65.0068C109.275 65.0069 109.896 65.6337 109.896 66.3897C109.895 67.1456 109.275 67.7715 108.493 67.7715C107.711 67.7715 107.091 67.1456 107.091 66.3897C107.091 65.6336 107.711 65.0068 108.493 65.0068Z" fill="#D2D2D2" stroke="#111B22" stroke-width="1.88507"/>
<path d="M115.856 65.0068C116.638 65.0069 117.259 65.6337 117.259 66.3897C117.259 67.1456 116.638 67.7715 115.856 67.7715C115.075 67.7715 114.454 67.1456 114.454 66.3897C114.454 65.6336 115.075 65.0068 115.856 65.0068Z" fill="#D2D2D2" stroke="#111B22" stroke-width="1.88507"/>
<path d="M134.558 74.541H96.3994C94.9146 74.541 93.7109 75.7347 93.7109 77.2071V85.3028C93.7109 86.7752 94.9146 87.9688 96.3994 87.9688H134.558C136.042 87.9688 137.246 86.7752 137.246 85.3028V77.2071C137.246 75.7347 136.042 74.541 134.558 74.541Z" fill="white" stroke="#111B22" stroke-width="1.11362" stroke-linecap="round" stroke-linejoin="round"/>
<path d="M101.122 79.8965C101.904 79.8966 102.524 80.5233 102.524 81.2793C102.524 82.0352 101.904 82.6611 101.122 82.6612C100.34 82.6612 99.7198 82.0353 99.7197 81.2793C99.7197 80.5233 100.34 79.8965 101.122 79.8965Z" fill="#D2D2D2" stroke="#111B22" stroke-width="1.88507"/>
<path d="M108.493 79.8965C109.275 79.8966 109.896 80.5233 109.896 81.2793C109.895 82.0352 109.275 82.6611 108.493 82.6612C107.711 82.6612 107.091 82.0353 107.091 81.2793C107.091 80.5233 107.711 79.8965 108.493 79.8965Z" fill="#D2D2D2" stroke="#111B22" stroke-width="1.88507"/>
<path d="M115.856 79.8965C116.638 79.8966 117.259 80.5233 117.259 81.2793C117.259 82.0352 116.638 82.6611 115.856 82.6612C115.075 82.6612 114.454 82.0353 114.454 81.2793C114.454 80.5233 115.075 79.8965 115.856 79.8965Z" fill="#D2D2D2" stroke="#111B22" stroke-width="1.88507"/>
<path d="M134.558 89.4307H96.3994C94.9146 89.4307 93.7109 90.6243 93.7109 92.0968V100.192C93.7109 101.664 94.9146 102.858 96.3994 102.858H134.558C136.042 102.858 137.246 101.664 137.246 100.192V92.0968C137.246 90.6243 136.042 89.4307 134.558 89.4307Z" fill="white" stroke="#111B22" stroke-width="1.11362" stroke-linecap="round" stroke-linejoin="round"/>
<path d="M101.122 94.7793C101.904 94.7794 102.524 95.4061 102.524 96.1621C102.524 96.918 101.904 97.5439 101.122 97.544C100.34 97.544 99.7198 96.9181 99.7197 96.1621C99.7197 95.4061 100.34 94.7793 101.122 94.7793Z" fill="#D2D2D2" stroke="#111B22" stroke-width="1.88507"/>
<path d="M108.493 94.7793C109.275 94.7794 109.896 95.4061 109.896 96.1621C109.895 96.918 109.275 97.5439 108.493 97.544C107.711 97.544 107.091 96.9181 107.091 96.1621C107.091 95.4061 107.711 94.7793 108.493 94.7793Z" fill="#D2D2D2" stroke="#111B22" stroke-width="1.88507"/>
<path d="M115.856 94.7793C116.638 94.7794 117.259 95.4061 117.259 96.1621C117.259 96.918 116.638 97.5439 115.856 97.544C115.075 97.544 114.454 96.9181 114.454 96.1621C114.454 95.4061 115.075 94.7793 115.856 94.7793Z" fill="#D2D2D2" stroke="#111B22" stroke-width="1.88507"/>
</g>
<g filter="url(#filter1_d_56001_733674)">
<path d="M138.049 62.6729C135.838 62.6717 133.677 63.3295 131.838 64.5632C130 65.7969 128.566 67.5509 127.72 69.6035C126.873 71.6562 126.651 73.915 127.081 76.0945C127.512 78.2741 128.576 80.2764 130.138 81.8481C131.701 83.4198 133.692 84.4903 135.86 84.9243C138.028 85.3582 140.276 85.1361 142.318 84.286C144.361 83.4359 146.106 81.9961 147.335 80.1486C148.563 78.301 149.218 76.1288 149.218 73.9067C149.218 70.9284 148.042 68.0719 145.947 65.9653C143.853 63.8587 141.012 62.6745 138.049 62.6729Z" fill="#BFDBEE" stroke="#111B22" stroke-width="1.80546" stroke-linecap="round" stroke-linejoin="round"/>
<path d="M146.312 81.292L150.035 85.0257" stroke="#111B22" stroke-width="1.80998" stroke-linecap="round" stroke-linejoin="round"/>
<path d="M149.112 85.0497L150.269 83.8359C150.444 83.6529 150.733 83.6466 150.916 83.8213L160.952 93.4443C161.134 93.6191 161.141 93.9097 160.967 94.0928L159.81 95.3066C159.635 95.4896 159.346 95.496 159.163 95.3212L149.127 85.6982C148.945 85.5234 148.938 85.2328 149.112 85.0497Z" fill="white" stroke="#111B22" stroke-width="1.80546"/>
</g>
<path d="M37.2393 27.8365L37.2393 27.8365C37.2792 27.5428 37.5499 27.3351 37.8439 27.3726L43.0332 28.0345C43.3272 28.072 43.5331 28.3405 43.4932 28.6341L43.4932 28.6341C43.4533 28.9278 43.1826 29.1355 42.8886 29.098L37.6993 28.4361C37.4053 28.3986 37.1994 28.1301 37.2393 27.8365Z" fill="#999999" stroke="#0078CE" stroke-width="1.07331"/>
<path d="M55.2789 15.7452C55.32 15.4424 55.5991 15.2282 55.9023 15.2669C56.2054 15.3056 56.4178 15.5824 56.3767 15.8852L55.7112 20.7822C55.6701 21.085 55.3909 21.2992 55.0878 21.2605C54.7847 21.2218 54.5723 20.945 54.6134 20.6422L55.2789 15.7452Z" fill="#999999" stroke="#0078CE" stroke-width="1.10669"/>
<path d="M43.4633 18.6475C43.2756 18.4105 43.3202 18.0723 43.5627 17.8919C43.8053 17.7116 44.1541 17.7575 44.3418 17.9945L47.4762 21.952C47.6639 22.1889 47.6194 22.5272 47.3768 22.7075C47.1342 22.8879 46.7854 22.842 46.5978 22.605L43.4633 18.6475Z" fill="#999999" stroke="#0078CE" stroke-width="1.09459"/>
<defs>
<filter id="filter0_d_56001_733674" x="84.2454" y="54.6471" width="62.4663" height="62.1314" filterUnits="userSpaceOnUse" color-interpolation-filters="sRGB">
<feFlood flood-opacity="0" result="BackgroundImageFix"/>
<feColorMatrix in="SourceAlpha" type="matrix" values="0 0 0 0 0 0 0 0 0 0 0 0 0 0 0 0 0 0 127 0" result="hardAlpha"/>
<feOffset dy="4.45447"/>
<feGaussianBlur stdDeviation="4.45447"/>
<feColorMatrix type="matrix" values="0 0 0 0 0.0705882 0 0 0 0 0.105882 0 0 0 0 0.129412 0 0 0 0.1 0"/>
<feBlend mode="normal" in2="BackgroundImageFix" result="effect1_dropShadow_56001_733674"/>
<feBlend mode="normal" in="SourceGraphic" in2="effect1_dropShadow_56001_733674" result="shape"/>
</filter>
<filter id="filter1_d_56001_733674" x="114.583" y="56.0798" width="58.7942" height="57.343" filterUnits="userSpaceOnUse" color-interpolation-filters="sRGB">
<feFlood flood-opacity="0" result="BackgroundImageFix"/>
<feColorMatrix in="SourceAlpha" type="matrix" values="0 0 0 0 0 0 0 0 0 0 0 0 0 0 0 0 0 0 127 0" result="hardAlpha"/>
<feOffset dy="5.69074"/>
<feGaussianBlur stdDeviation="5.69074"/>
<feColorMatrix type="matrix" values="0 0 0 0 0.0705882 0 0 0 0 0.105882 0 0 0 0 0.129412 0 0 0 0.1 0"/>
<feBlend mode="normal" in2="BackgroundImageFix" result="effect1_dropShadow_56001_733674"/>
<feBlend mode="normal" in="SourceGraphic" in2="effect1_dropShadow_56001_733674" result="shape"/>
</filter>
</defs>
</svg>
