<svg width="196" height="121" viewBox="0 0 196 121" fill="none" xmlns="http://www.w3.org/2000/svg">
<path d="M57.083 27.3184H134.136C138.09 27.3185 141.296 30.5239 141.296 34.4785V46.6582H49.9229V34.4785C49.9229 30.5239 53.1284 27.3185 57.083 27.3184Z" fill="#BFDBEE"/>
<path d="M57.083 27.3184H134.136C138.09 27.3185 141.296 30.5239 141.296 34.4785V46.6582H49.9229V34.4785C49.9229 30.5239 53.1284 27.3185 57.083 27.3184Z" stroke="#111B22" stroke-width="1.79019"/>
<path d="M59.041 34.9258H83.7676C85.1221 34.9258 86.1729 35.9534 86.1729 37.1641C86.1727 38.3746 85.122 39.4014 83.7676 39.4014H59.041C57.6866 39.4014 56.6349 38.3746 56.6348 37.1641C56.6348 35.9534 57.6865 34.9258 59.041 34.9258Z" fill="#CFE4F1" stroke="#111B22" stroke-width="0.895094"/>
<path d="M113.475 34.0308C115.205 34.0308 116.607 35.4335 116.607 37.1636C116.607 38.8938 115.205 40.2964 113.475 40.2964C111.745 40.2962 110.342 38.8937 110.342 37.1636C110.342 35.4336 111.745 34.0309 113.475 34.0308Z" fill="#CFE4F1" stroke="#111B22" stroke-width="0.895094"/>
<path d="M122.424 34.0308C124.154 34.0308 125.556 35.4335 125.557 37.1636C125.557 38.8938 124.154 40.2964 122.424 40.2964C120.694 40.2962 119.291 38.8937 119.291 37.1636C119.291 35.4336 120.694 34.0309 122.424 34.0308Z" fill="#CFE4F1" stroke="#111B22" stroke-width="0.895094"/>
<path d="M131.377 34.0308C133.107 34.0308 134.51 35.4335 134.51 37.1636C134.51 38.8938 133.107 40.2964 131.377 40.2964C129.647 40.2962 128.244 38.8937 128.244 37.1636C128.244 35.4336 129.647 34.0309 131.377 34.0308Z" fill="#CFE4F1" stroke="#111B22" stroke-width="0.895094"/>
<path d="M141.153 36.5653C141.153 36.5653 138.618 38.9325 105.654 32.3392C87.4817 28.7045 60.4499 45.4221 55.3633 46.2854C51.3687 46.9633 50.7812 47.0978 50.713 47.1242L50.7145 47.1306C50.7145 47.1306 50.6943 47.1314 50.713 47.1242L50.1004 44.5947C49.4833 42.0462 49.5987 39.2714 49.7777 36.6553C49.8981 34.8948 50.0714 32.9211 50.8346 31.1995C51.4119 29.8972 52.6123 28.9807 53.9694 28.5476C55.3203 28.1163 56.2181 28.1579 57.9451 27.7981C59.3285 27.5099 60.6904 27.2686 62.1035 27.2601C74.0361 27.1882 127.47 26.6879 135.339 27.5721C135.853 27.6298 136.321 27.8023 136.777 28.0447C141.105 30.3433 140.75 32.1411 141.153 36.5653Z" fill="#0078CE" fill-opacity="0.2"/>
<path d="M57.083 107.514H134.136C138.09 107.513 141.296 104.308 141.296 100.354V54.3652H49.9229V100.354C49.923 104.308 53.1284 107.514 57.083 107.514Z" fill="white" stroke="#111B22" stroke-width="1.79019"/>
<rect x="0.461362" y="0.601299" width="1.07501" height="6.25124" rx="0.537503" transform="matrix(-0.133477 0.991052 0.991821 0.127639 35.7156 26.8046)" stroke="#0078CE" stroke-width="1.07501"/>
<rect x="-0.618317" y="0.474419" width="1.09894" height="6.06776" rx="0.549469" transform="matrix(-0.991821 -0.127637 -0.133478 0.991052 54.6989 14.7964)" stroke="#0078CE" stroke-width="1.09894"/>
<rect x="-0.099488" y="0.755875" width="1.09024" height="6.13527" rx="0.545119" transform="matrix(-0.799978 0.600029 0.617471 0.786594 42.3425 17.0467)" stroke="#0078CE" stroke-width="1.09024"/>
<path d="M77.9852 75.8454V72.511C77.9852 69.9754 76.7174 68.7075 74.1817 68.7075H67.8426C65.3069 68.7075 64.0391 69.9754 64.0391 72.511V75.7567" fill="#ACD2EC"/>
<path d="M77.9852 75.8454V72.511C77.9852 69.9754 76.7174 68.7075 74.1817 68.7075H67.8426C65.3069 68.7075 64.0391 69.9754 64.0391 72.511V75.7567" stroke="#111B22" stroke-width="1.90175" stroke-linecap="round" stroke-linejoin="round"/>
<path d="M61.1992 80.1438V86.4449C61.1992 88.7524 61.1992 88.7524 63.3799 90.2231L69.3767 93.6843C70.2769 94.2041 71.7476 94.2041 72.6477 93.6843L78.6446 90.2231C80.8253 88.7524 80.8253 88.7524 80.8253 86.4449V80.1438C80.8253 77.8364 80.8253 77.8364 78.6446 76.3657L72.6477 72.9045C71.7476 72.3847 70.2769 72.3847 69.3767 72.9045L63.3799 76.3657C61.1992 77.8364 61.1992 77.8364 61.1992 80.1438Z" fill="#ACD2EC" stroke="#111B22" stroke-width="1.90175" stroke-linecap="round" stroke-linejoin="round"/>
<path d="M71.8126 80.1053L72.5352 81.2336C72.6493 81.4111 72.9029 81.5886 73.0931 81.6393L74.3863 81.969C75.185 82.1718 75.4005 82.8565 74.8807 83.4904L74.0313 84.5173C73.9045 84.6821 73.8031 84.9737 73.8157 85.1766L73.8918 86.5078C73.9425 87.3319 73.3593 87.7503 72.5986 87.446L71.3561 86.9516C71.166 86.8755 70.849 86.8755 70.6588 86.9516L69.4164 87.446C68.6557 87.7503 68.0725 87.3192 68.1232 86.5078L68.1992 85.1766C68.2119 84.9737 68.1105 84.6695 67.9837 84.5173L67.1343 83.4904C66.6145 82.8565 66.83 82.1718 67.6287 81.969L68.9219 81.6393C69.1248 81.5886 69.3783 81.3985 69.4798 81.2336L70.2024 80.1053C70.6588 79.4206 71.3688 79.4206 71.8126 80.1053Z" fill="#ACD2EC" stroke="#111B22" stroke-width="1.90175" stroke-linecap="round" stroke-linejoin="round"/>
<g filter="url(#filter0_d_54246_1043386)">
<path d="M131.946 70.2949V98.4746H95.5303V70.2949H131.946Z" fill="#D2D2D2" stroke="#111B22" stroke-width="1.88836"/>
<path d="M132.699 59.7485H94.8138C93.3396 59.7485 92.1445 60.9443 92.1445 62.4192V70.529C92.1445 72.004 93.3396 73.1997 94.8138 73.1997H132.699C134.173 73.1997 135.368 72.004 135.368 70.529V62.4192C135.368 60.9443 134.173 59.7485 132.699 59.7485Z" fill="white" stroke="#111B22" stroke-width="1.11556" stroke-linecap="round" stroke-linejoin="round"/>
<path d="M99.5078 65.1069C100.271 65.1071 100.892 65.7265 100.892 66.4917C100.892 67.2569 100.271 67.8763 99.5078 67.8765C98.7441 67.8765 98.1241 67.2569 98.124 66.4917C98.124 65.7264 98.7441 65.1069 99.5078 65.1069Z" fill="#D2D2D2" stroke="#111B22" stroke-width="1.88836"/>
<path d="M106.824 65.1069C107.588 65.1071 108.208 65.7265 108.208 66.4917C108.208 67.2569 107.588 67.8763 106.824 67.8765C106.06 67.8765 105.44 67.2569 105.44 66.4917C105.44 65.7264 106.06 65.1069 106.824 65.1069Z" fill="#D2D2D2" stroke="#111B22" stroke-width="1.88836"/>
<path d="M114.129 65.1069C114.893 65.1071 115.513 65.7265 115.513 66.4917C115.513 67.2569 114.893 67.8763 114.129 67.8765C113.365 67.8765 112.745 67.2569 112.745 66.4917C112.745 65.7264 113.365 65.1069 114.129 65.1069Z" fill="#D2D2D2" stroke="#111B22" stroke-width="1.88836"/>
<path d="M132.699 74.6572H94.8138C93.3396 74.6572 92.1445 75.8529 92.1445 77.3279V85.4377C92.1445 86.9127 93.3396 88.1084 94.8138 88.1084H132.699C134.173 88.1084 135.368 86.9127 135.368 85.4377V77.3279C135.368 75.8529 134.173 74.6572 132.699 74.6572Z" fill="white" stroke="#111B22" stroke-width="1.11556" stroke-linecap="round" stroke-linejoin="round"/>
<path d="M99.5078 80.0225C100.271 80.0226 100.892 80.642 100.892 81.4072C100.892 82.1724 100.271 82.7919 99.5078 82.792C98.7441 82.792 98.1241 82.1725 98.124 81.4072C98.124 80.642 98.7441 80.0225 99.5078 80.0225Z" fill="#D2D2D2" stroke="#111B22" stroke-width="1.88836"/>
<path d="M106.824 80.0225C107.588 80.0226 108.208 80.642 108.208 81.4072C108.208 82.1724 107.588 82.7919 106.824 82.792C106.06 82.792 105.44 82.1725 105.44 81.4072C105.44 80.642 106.06 80.0225 106.824 80.0225Z" fill="#D2D2D2" stroke="#111B22" stroke-width="1.88836"/>
<path d="M114.129 80.0225C114.893 80.0226 115.513 80.642 115.513 81.4072C115.513 82.1724 114.893 82.7919 114.129 82.792C113.365 82.792 112.745 82.1725 112.745 81.4072C112.745 80.642 113.365 80.0225 114.129 80.0225Z" fill="#D2D2D2" stroke="#111B22" stroke-width="1.88836"/>
<path d="M132.699 89.5723H94.8138C93.3396 89.5723 92.1445 90.768 92.1445 92.243V100.353C92.1445 101.828 93.3396 103.023 94.8138 103.023H132.699C134.173 103.023 135.368 101.828 135.368 100.353V92.243C135.368 90.768 134.173 89.5723 132.699 89.5723Z" fill="white" stroke="#111B22" stroke-width="1.11556" stroke-linecap="round" stroke-linejoin="round"/>
<path d="M99.5078 94.9307C100.271 94.9308 100.892 95.5502 100.892 96.3154C100.892 97.0806 100.271 97.7001 99.5078 97.7002C98.7441 97.7002 98.1241 97.0807 98.124 96.3154C98.124 95.5502 98.7441 94.9307 99.5078 94.9307Z" fill="#D2D2D2" stroke="#111B22" stroke-width="1.88836"/>
<path d="M106.824 94.9307C107.588 94.9308 108.208 95.5502 108.208 96.3154C108.208 97.0806 107.588 97.7001 106.824 97.7002C106.06 97.7002 105.44 97.0807 105.44 96.3154C105.44 95.5502 106.06 94.9307 106.824 94.9307Z" fill="#D2D2D2" stroke="#111B22" stroke-width="1.88836"/>
<path d="M114.129 94.9307C114.893 94.9308 115.513 95.5502 115.513 96.3154C115.513 97.0806 114.893 97.7001 114.129 97.7002C113.365 97.7002 112.745 97.0807 112.745 96.3154C112.745 95.5502 113.365 94.9307 114.129 94.9307Z" fill="#D2D2D2" stroke="#111B22" stroke-width="1.88836"/>
</g>
<g filter="url(#filter1_d_54246_1043386)">
<path d="M136.168 62.7676C133.973 62.7664 131.827 63.4254 130.002 64.6612C128.177 65.897 126.753 67.6541 125.913 69.7103C125.072 71.7665 124.851 74.0294 125.279 76.2127C125.706 78.3961 126.763 80.4018 128.314 81.9763C129.866 83.5507 131.843 84.6231 133.995 85.0578C136.148 85.4925 138.379 85.27 140.407 84.4184C142.435 83.5669 144.168 82.1245 145.387 80.2737C146.607 78.423 147.258 76.247 147.258 74.021C147.258 71.0375 146.09 68.176 144.01 66.0658C141.93 63.9555 139.11 62.7692 136.168 62.7676Z" fill="#ACD2EC" stroke="#111B22" stroke-width="1.80861" stroke-linecap="round" stroke-linejoin="round"/>
<path d="M144.371 81.4199L148.067 85.1601" stroke="#111B22" stroke-width="1.81314" stroke-linecap="round" stroke-linejoin="round"/>
<path d="M147.156 85.1869L148.304 83.9716C148.476 83.7894 148.761 83.7832 148.94 83.9565L158.905 93.5963C159.084 93.7696 159.091 94.0579 158.919 94.2401L157.771 95.4554C157.599 95.6376 157.314 95.6438 157.135 95.4705L147.17 85.8307C146.991 85.6574 146.984 85.3691 147.156 85.1869Z" fill="white" stroke="#111B22" stroke-width="1.80861"/>
</g>
<defs>
<filter id="filter0_d_54246_1043386" x="82.6615" y="54.7287" width="62.1888" height="62.2391" filterUnits="userSpaceOnUse" color-interpolation-filters="sRGB">
<feFlood flood-opacity="0" result="BackgroundImageFix"/>
<feColorMatrix in="SourceAlpha" type="matrix" values="0 0 0 0 0 0 0 0 0 0 0 0 0 0 0 0 0 0 127 0" result="hardAlpha"/>
<feOffset dy="4.46224"/>
<feGaussianBlur stdDeviation="4.46224"/>
<feColorMatrix type="matrix" values="0 0 0 0 0.0705882 0 0 0 0 0.105882 0 0 0 0 0.129412 0 0 0 0.1 0"/>
<feBlend mode="normal" in2="BackgroundImageFix" result="effect1_dropShadow_54246_1043386"/>
<feBlend mode="normal" in="SourceGraphic" in2="effect1_dropShadow_54246_1043386" result="shape"/>
</filter>
<filter id="filter1_d_54246_1043386" x="112.759" y="56.1626" width="58.5839" height="57.4457" filterUnits="userSpaceOnUse" color-interpolation-filters="sRGB">
<feFlood flood-opacity="0" result="BackgroundImageFix"/>
<feColorMatrix in="SourceAlpha" type="matrix" values="0 0 0 0 0 0 0 0 0 0 0 0 0 0 0 0 0 0 127 0" result="hardAlpha"/>
<feOffset dy="5.70066"/>
<feGaussianBlur stdDeviation="5.70066"/>
<feColorMatrix type="matrix" values="0 0 0 0 0.0705882 0 0 0 0 0.105882 0 0 0 0 0.129412 0 0 0 0.1 0"/>
<feBlend mode="normal" in2="BackgroundImageFix" result="effect1_dropShadow_54246_1043386"/>
<feBlend mode="normal" in="SourceGraphic" in2="effect1_dropShadow_54246_1043386" result="shape"/>
</filter>
</defs>
</svg>
