<svg width="196" height="121" viewBox="0 0 196 121" fill="none" xmlns="http://www.w3.org/2000/svg">
<path d="M69.5891 25.7363H108.287C109.25 25.7363 110.173 26.2346 110.854 27.1216C111.535 28.0085 111.918 29.2115 111.918 30.4658V90.4452C111.918 91.6995 111.535 92.9025 110.854 93.7895C110.173 94.6764 109.25 95.1747 108.287 95.1747H64.6302C63.6674 95.1747 62.7441 94.6764 62.0633 93.7895C61.3825 92.9025 61 91.6995 61 90.4452V37.0398L69.5891 25.7363Z" fill="white" stroke="#17222B" stroke-width="1.52364" stroke-linecap="round" stroke-linejoin="round"/>
<path d="M61 37.0398H68.0354C68.4481 37.0373 68.8433 36.8219 69.1345 36.4408C69.4257 36.0597 69.5891 35.5439 69.5891 35.0061V25.7363L61 37.0398Z" fill="white" stroke="#17222B" stroke-width="1.52364" stroke-linecap="round" stroke-linejoin="round"/>
<rect x="67.8076" y="41.6544" width="23.0226" height="1.20655" rx="0.603275" transform="rotate(0.260546 67.8076 41.6544)" fill="#DCDCDC" stroke="#17222B" stroke-width="1.20655"/>
<rect x="67.8622" y="52.959" width="24.6564" height="1.20655" rx="0.603275" transform="rotate(0.260546 67.8622 52.959)" fill="#DCDCDC" stroke="#17222B" stroke-width="1.20655"/>
<path d="M68.409 63.8072L81.5602 63.867C81.7267 63.8678 81.8613 64.0036 81.8606 64.1702C81.8596 64.3365 81.7238 64.4703 81.5574 64.4696L68.4072 64.4107C68.2406 64.41 68.1061 64.2742 68.1068 64.1076C68.1076 63.9412 68.2426 63.8067 68.409 63.8072Z" fill="#DCDCDC" stroke="#17222B" stroke-width="1.80982"/>
<rect x="67.8076" y="81.2711" width="6.41179" height="1.20655" rx="0.603275" transform="rotate(0.260546 67.8076 81.2711)" fill="#DCDCDC" stroke="#17222B" stroke-width="1.20655"/>
<rect x="67.7841" y="46.482" width="34.991" height="1.20655" rx="0.603275" transform="rotate(0.260546 67.7841 46.482)" fill="#EEEEEE" stroke="#17222B" stroke-width="1.20655"/>
<rect x="67.8427" y="57.7862" width="11.4622" height="1.20655" rx="0.603275" transform="rotate(0.260546 67.8427 57.7862)" fill="#EEEEEE" stroke="#17222B" stroke-width="1.20655"/>
<rect x="67.7841" y="68.3282" width="7.90146" height="1.20655" rx="0.603275" transform="rotate(0.260546 67.7841 68.3282)" fill="#EEEEEE" stroke="#17222B" stroke-width="1.20655"/>
<rect x="67.7841" y="86.0967" width="11.4622" height="1.20655" rx="0.603275" transform="rotate(0.260546 67.7841 86.0967)" fill="#EEEEEE" stroke="#17222B" stroke-width="1.20655"/>
<path d="M133.514 68.9508C134.132 69.143 134.476 69.7994 134.282 70.4168L124.448 101.721C124.254 102.339 123.596 102.683 122.978 102.491L110.11 98.4886C109.492 98.2964 109.148 97.64 109.342 97.0225L115.167 78.4795C115.26 78.183 115.467 77.9353 115.743 77.7909L117.545 76.8472C117.766 76.7314 118.018 76.6889 118.265 76.7259L125.51 77.8132L126.284 74.3722L118.493 71.6794C117.895 71.4726 117.571 70.8286 117.76 70.2247L119.176 65.7183C119.37 65.1008 120.028 64.7561 120.646 64.9483L133.514 68.9508Z" fill="#BFDBEE"/>
<g filter="url(#filter0_d_54300_1044483)">
<path d="M133.898 69.6828L123.713 102.105C123.616 102.414 123.287 102.586 122.978 102.49L110.11 98.4879C109.801 98.3918 109.63 98.0635 109.726 97.7549L119.911 65.3324C120.008 65.0237 120.338 64.8513 120.647 64.9474L133.514 68.9497C133.823 69.0458 133.995 69.374 133.898 69.6828Z" stroke="#17222B" stroke-width="1.17185"/>
</g>
<path d="M132.837 73.0371C130.674 72.3643 129.471 70.067 130.15 67.9059" stroke="#17222B" stroke-width="1.17185"/>
<path d="M110.217 94.2276C112.689 94.9965 114.143 97.3717 113.464 99.5328" stroke="#17222B" stroke-width="1.17185"/>
<path d="M123.999 65.9918C123.32 68.1529 120.766 69.2815 118.294 68.5126" stroke="#17222B" stroke-width="1.17185"/>
<path d="M119.615 101.446C120.294 99.2853 122.598 98.0788 124.76 98.7515" stroke="#17222B" stroke-width="1.17185"/>
<ellipse cx="4.3945" cy="4.39436" rx="4.3945" ry="4.39436" transform="matrix(-0.299696 0.954041 -0.95487 -0.297005 127.234 81.1108)" fill="#BFDBEE" stroke="#0078CE" stroke-width="1.17185"/>
<path d="M120.397 84.6093C120.317 84.8707 120.353 85.4533 121.141 85.6928C121.928 85.9323 122.286 85.4694 122.366 85.2081C122.446 84.9467 122.41 84.3641 121.622 84.1246C120.638 83.8252 120.818 83.2371 120.879 83.0411C120.939 82.8451 121.12 82.257 122.104 82.5564C122.892 82.7959 122.928 83.3785 122.848 83.6399" stroke="#0078CE" stroke-width="0.585924" stroke-linecap="round"/>
<path d="M121 86.1406L122.239 82.1081" stroke="#0078CE" stroke-width="0.585924" stroke-linecap="round"/>
<path d="M93.7301 64.8737C94.3365 64.6476 95.013 64.9554 95.2411 65.561L106.803 96.2684C107.031 96.8741 106.725 97.5484 106.118 97.7744L93.491 102.482C92.8845 102.708 92.2081 102.4 91.98 101.794L85.1311 83.6048C85.0216 83.314 85.0322 82.9919 85.1607 82.7095L86.0004 80.8637C86.1034 80.6372 86.2762 80.4495 86.4937 80.328L92.8832 76.7577L91.3699 73.57L83.5587 76.2071C82.9589 76.4095 82.3052 76.0998 82.0822 75.5075L80.4177 71.0869C80.1897 70.4813 80.4964 69.807 81.1028 69.5809L93.7301 64.8737Z" fill="#BFDBEE"/>
<g filter="url(#filter1_d_54300_1044483)">
<path d="M94.4889 65.2169L106.464 97.0212C106.578 97.324 106.425 97.6612 106.122 97.7742L93.4948 102.481C93.1917 102.594 92.8534 102.44 92.7393 102.138L80.764 70.3333C80.65 70.0305 80.8033 69.6933 81.1066 69.5803L93.7334 64.8732C94.0366 64.7602 94.3749 64.9141 94.4889 65.2169Z" stroke="#17222B" stroke-width="1.17185"/>
</g>
<path d="M95.7226 68.5074C93.6001 69.2986 91.2325 68.2215 90.4343 66.1016" stroke="#17222B" stroke-width="1.17185"/>
<path d="M90.9492 99.0522C93.3749 98.1479 95.9884 99.1334 96.7866 101.253" stroke="#17222B" stroke-width="1.17185"/>
<path d="M84.3999 68.352C85.1981 70.4719 83.8788 72.9234 81.4531 73.8277" stroke="#17222B" stroke-width="1.17185"/>
<path d="M102.825 99.0025C102.027 96.8826 103.1 94.5226 105.223 93.7314" stroke="#17222B" stroke-width="1.17185"/>
<ellipse cx="4.3945" cy="4.39436" rx="4.3945" ry="4.39436" transform="matrix(0.352377 0.935851 -0.937016 0.349305 96.2852 78.3037)" fill="#BFDBEE" stroke="#0078CE" stroke-width="1.17185"/>
<path d="M93.052 85.2421C93.1499 85.4973 93.5382 85.9348 94.3077 85.6424C95.0772 85.35 95.0736 84.7663 94.9756 84.511C94.8776 84.2557 94.4893 83.8183 93.7199 84.1107C92.758 84.4762 92.5376 83.9019 92.4641 83.7104C92.3907 83.5189 92.1702 82.9446 93.132 82.5791C93.9015 82.2866 94.2898 82.7241 94.3878 82.9794" stroke="#0078CE" stroke-width="0.585924" stroke-linecap="round"/>
<path d="M94.4727 86.0811L92.9611 82.1425" stroke="#0078CE" stroke-width="0.585924" stroke-linecap="round"/>
<path d="M116.051 57.5799C116.86 57.5816 117.514 58.2388 117.513 59.0478L117.426 100.063C117.424 100.872 116.767 101.526 115.958 101.525L99.1132 101.489C98.3042 101.488 97.6497 100.83 97.6515 100.021L97.7027 75.726C97.7035 75.3375 97.8586 74.9653 98.1339 74.6911L99.9329 72.8996C100.154 72.6797 100.439 72.536 100.747 72.4893L109.797 71.1165L109.44 66.7212L99.1415 66.3776C98.3507 66.3512 97.7238 65.7017 97.7255 64.9105L97.7379 59.0061C97.7396 58.1971 98.3968 57.5427 99.2058 57.5444L116.051 57.5799Z" fill="#BFDBEE"/>
<g filter="url(#filter2_d_54300_1044483)">
<path d="M116.78 58.3149L116.691 100.795C116.69 101.2 116.361 101.527 115.957 101.526L99.1119 101.491C98.7075 101.49 98.3803 101.161 98.381 100.757L98.4706 58.2763C98.4714 57.8718 98.8001 57.5445 99.2046 57.5454L116.049 57.5809C116.454 57.5817 116.781 57.9104 116.78 58.3149Z" stroke="#17222B" stroke-width="1.46481"/>
</g>
<path d="M116.77 62.7084C113.939 62.7025 111.649 60.4022 111.655 57.5707" stroke="#17222B" stroke-width="1.46481"/>
<path d="M97.6592 96.358C100.895 96.3648 103.514 98.6657 103.508 101.497" stroke="#17222B" stroke-width="1.46481"/>
<path d="M103.605 57.5539C103.599 60.3854 100.971 62.6752 97.7353 62.6684" stroke="#17222B" stroke-width="1.46481"/>
<path d="M111.565 101.514C111.571 98.6821 113.871 96.3915 116.702 96.3975" stroke="#17222B" stroke-width="1.46481"/>
<ellipse cx="107.581" cy="79.901" rx="5.49312" ry="5.49296" transform="rotate(90.1208 107.581 79.901)" fill="#BFDBEE" stroke="#0078CE" stroke-width="1.46481"/>
<path d="M106.228 81.1193C106.229 81.4611 106.49 82.1436 107.519 82.1392C108.547 82.1349 108.802 81.4502 108.8 81.1084C108.799 80.7667 108.539 80.0842 107.51 80.0885C106.224 80.094 106.22 79.325 106.219 79.0686C106.218 78.8123 106.215 78.0433 107.501 78.0379C108.53 78.0335 108.79 78.716 108.792 79.0578" stroke="#0078CE" stroke-width="0.732405" stroke-linecap="round"/>
<path d="M107.52 82.7261L107.497 77.4529" stroke="#0078CE" stroke-width="0.732405" stroke-linecap="round"/>
<rect x="-0.434233" y="0.441771" width="0.878213" height="5.1114" rx="0.439106" transform="matrix(0.0112302 0.999778 -1.00013 0.00629028 123.415 26.7135)" fill="#999999" stroke="#0078CE" stroke-width="0.878213"/>
<rect x="0.454325" y="0.446295" width="0.898442" height="4.95631" rx="0.449221" transform="matrix(1.00013 -0.00629028 0.0112302 0.999778 108.288 14.23)" fill="#999999" stroke="#0078CE" stroke-width="0.898442"/>
<rect x="0.00505008" y="0.622761" width="0.891091" height="5.01338" rx="0.445545" transform="matrix(0.720863 0.692243 -0.709529 0.705506 118.994 17.2673)" fill="#999999" stroke="#0078CE" stroke-width="0.891091"/>
<defs>
<filter id="filter0_d_54300_1044483" x="107.457" y="63.5067" width="28.7117" height="42.0803" filterUnits="userSpaceOnUse" color-interpolation-filters="sRGB">
<feFlood flood-opacity="0" result="BackgroundImageFix"/>
<feColorMatrix in="SourceAlpha" type="matrix" values="0 0 0 0 0 0 0 0 0 0 0 0 0 0 0 0 0 0 127 0" result="hardAlpha"/>
<feOffset dy="0.828304"/>
<feGaussianBlur stdDeviation="0.828304"/>
<feColorMatrix type="matrix" values="0 0 0 0 0.411765 0 0 0 0 0.439216 0 0 0 0 0.458824 0 0 0 0.2 0"/>
<feBlend mode="normal" in2="BackgroundImageFix" result="effect1_dropShadow_54300_1044483"/>
<feBlend mode="normal" in="SourceGraphic" in2="effect1_dropShadow_54300_1044483" result="shape"/>
</filter>
<filter id="filter1_d_54300_1044483" x="78.484" y="63.4222" width="30.2624" height="42.1662" filterUnits="userSpaceOnUse" color-interpolation-filters="sRGB">
<feFlood flood-opacity="0" result="BackgroundImageFix"/>
<feColorMatrix in="SourceAlpha" type="matrix" values="0 0 0 0 0 0 0 0 0 0 0 0 0 0 0 0 0 0 127 0" result="hardAlpha"/>
<feOffset dy="0.828304"/>
<feGaussianBlur stdDeviation="0.828304"/>
<feColorMatrix type="matrix" values="0 0 0 0 0.411765 0 0 0 0 0.439216 0 0 0 0 0.458824 0 0 0 0.2 0"/>
<feBlend mode="normal" in2="BackgroundImageFix" result="effect1_dropShadow_54300_1044483"/>
<feBlend mode="normal" in="SourceGraphic" in2="effect1_dropShadow_54300_1044483" result="shape"/>
</filter>
<filter id="filter2_d_54300_1044483" x="95.9918" y="55.9847" width="23.1765" height="48.7585" filterUnits="userSpaceOnUse" color-interpolation-filters="sRGB">
<feFlood flood-opacity="0" result="BackgroundImageFix"/>
<feColorMatrix in="SourceAlpha" type="matrix" values="0 0 0 0 0 0 0 0 0 0 0 0 0 0 0 0 0 0 127 0" result="hardAlpha"/>
<feOffset dy="0.828304"/>
<feGaussianBlur stdDeviation="0.828304"/>
<feColorMatrix type="matrix" values="0 0 0 0 0.411765 0 0 0 0 0.439216 0 0 0 0 0.458824 0 0 0 0.2 0"/>
<feBlend mode="normal" in2="BackgroundImageFix" result="effect1_dropShadow_54300_1044483"/>
<feBlend mode="normal" in="SourceGraphic" in2="effect1_dropShadow_54300_1044483" result="shape"/>
</filter>
</defs>
</svg>
