<svg width="196" height="121" viewBox="0 0 196 121" fill="none" xmlns="http://www.w3.org/2000/svg">
<path d="M63.6536 95.2515C47.8286 95.2515 35 82.9028 35 67.6684C35 52.4402 47.8286 40.0915 63.6536 40.0915C66.0717 29.2503 74.6918 20.4025 86.2652 16.877C97.8325 13.3575 110.606 15.6895 119.761 23.0298C128.917 30.3516 133.064 41.5313 130.652 52.3725H136.743C148.513 52.3725 158.056 61.9709 158.056 73.8212C158.056 85.6777 148.513 95.2761 136.737 95.2761H63.6536" stroke="black" stroke-width="2.21501" stroke-linecap="round" stroke-linejoin="round"/>
<path d="M57.0112 24.8174C64.5457 24.8174 70.6343 30.8617 70.6343 38.293C70.6342 45.7242 64.5457 51.7676 57.0112 51.7676C49.4768 51.7675 43.3882 45.7241 43.3882 38.293C43.3882 30.8618 49.4768 24.8175 57.0112 24.8174Z" fill="#BFDBEE" stroke="#0078CE" stroke-width="2.28807"/>
<path d="M61.5693 34.4609L57.4858 38.5035L61.57 42.5468L61.0217 43.0896L56.9375 39.0463L52.8533 43.0896L52.305 42.5468L56.3892 38.5035L52.3057 34.4609L52.854 33.9181L56.9375 37.9607L61.021 33.9181L61.5693 34.4609Z" fill="#BFDBEE" stroke="#0078CE" stroke-width="1.14403"/>
<path d="M138.367 45.7344L138.376 45.7466" stroke="black" stroke-width="1.47668" stroke-linecap="round" stroke-linejoin="round"/>
<path d="M139.368 39.6647C140.978 39.9305 142.416 40.8248 143.366 42.1508C144.317 43.4769 144.702 45.1261 144.436 46.7359" stroke="black" stroke-width="1.47668" stroke-linecap="round" stroke-linejoin="round"/>
<path d="M140.37 33.5921C141.965 33.8551 143.492 34.4296 144.864 35.2828C146.237 36.136 147.428 37.2511 148.369 38.5646C149.311 39.8781 149.984 41.3642 150.351 42.9379C150.719 44.5117 150.772 46.1424 150.509 47.7369" stroke="black" stroke-width="1.47668" stroke-linecap="round" stroke-linejoin="round"/>
<path d="M141.371 27.5212C151.43 29.1795 158.239 38.6786 156.605 48.7747" stroke="black" stroke-width="1.47668" stroke-linecap="round" stroke-linejoin="round"/>
<path d="M91.7362 55.266L66.7989 96.9021C66.2848 97.7923 66.0127 98.8017 66.0098 99.8297C66.0068 100.858 66.2731 101.869 66.7821 102.762C67.2911 103.655 68.025 104.399 68.9109 104.921C69.7969 105.442 70.8039 105.723 71.8319 105.734H121.713C122.74 105.723 123.747 105.442 124.632 104.921C125.518 104.399 126.251 103.655 126.76 102.763C127.269 101.87 127.536 100.86 127.533 99.8319C127.53 98.8043 127.259 97.7953 126.746 96.9051L101.808 55.2629C101.284 54.3969 100.545 53.6808 99.6624 53.1839C98.7802 52.6869 97.7848 52.4258 96.7723 52.4258C95.7598 52.4258 94.7643 52.6869 93.8822 53.1839C93 53.6808 92.2609 54.3969 91.7362 55.2629V55.266Z" fill="#BFDBEE" stroke="#0078CE" stroke-width="2.21501" stroke-linecap="round" stroke-linejoin="round"/>
<path d="M96.7734 71.9023V84.208" stroke="#0078CE" stroke-width="6.15281" stroke-linecap="round" stroke-linejoin="round"/>
<path d="M96.7734 93.4375H96.8035" stroke="#0078CE" stroke-width="6.15281" stroke-linecap="round" stroke-linejoin="round"/>
<path d="M86.4281 83.6139C79.8019 78.6661 90.8576 62.026 90.8576 62.026C85.7933 64.3534 78.2639 77.2811 75.3144 82.7763C75.0144 83.3353 74.8043 83.9289 74.5485 84.5094C72.7201 88.6583 65.8296 95.031 66.0095 98.9423C66.132 101.61 69.0705 104.756 73.2483 104.919C78.553 105.126 84.6587 104.222 89.7412 105.756C90.6922 106.042 91.3603 106.058 92.3536 106.047L96.4469 106C96.4469 106 90.7169 101.676 96.4469 97.4646C102.177 93.2534 93.0543 88.5617 86.4281 83.6139Z" fill="#0078CE" fill-opacity="0.2"/>
</svg>
