<svg width="196" height="121" viewBox="0 0 196 121" fill="none" xmlns="http://www.w3.org/2000/svg">
<path d="M95.5317 15.1973C120.868 15.1973 141.407 35.7363 141.407 61.0723C141.407 61.8442 141.385 62.6116 141.347 63.374C138.832 62.5012 136.132 62.0264 133.324 62.0264C119.812 62.0266 108.86 72.9799 108.86 86.4912C108.86 92.6818 111.161 98.3361 114.952 102.645C109.055 105.404 102.475 106.947 95.5317 106.947C70.1958 106.947 49.6567 86.4082 49.6567 61.0723C49.6568 35.7363 70.1958 15.1973 95.5317 15.1973ZM133.95 67.2402C144.721 67.2402 153.453 75.9722 153.453 86.7432C153.452 97.5139 144.721 106.245 133.95 106.245C123.179 106.245 114.447 97.5139 114.447 86.7432C114.447 75.9723 123.179 67.2403 133.95 67.2402ZM145.689 82.1631C144.348 80.6765 142.074 80.4736 140.489 81.7207L140.481 81.7266L140.445 81.7549L140.437 81.7617L132.855 87.9395L129.889 84.7393L129.887 84.7373L129.876 84.7256L129.873 84.7217L129.735 84.582C128.279 83.1795 125.963 83.151 124.472 84.5498C122.943 85.9844 122.844 88.3737 124.237 89.9297L124.245 89.9375L124.276 89.9717L124.283 89.9785L129.342 95.4385L129.344 95.4404L129.355 95.4521L129.358 95.4551C129.701 95.8214 130.113 96.1164 130.57 96.3232C130.981 96.5092 131.421 96.6194 131.871 96.6514C132.978 96.9319 134.2 96.7157 135.167 95.958L135.168 95.959L135.177 95.9512L135.217 95.9189L135.227 95.9111L145.262 87.7344C146.889 86.4093 147.154 84.0312 145.872 82.3809L145.866 82.373L145.837 82.3369L145.832 82.3301L145.822 82.3174L145.816 82.3105L145.689 82.1631ZM95.8794 33.9121C93.4246 33.9121 91.4297 35.8824 91.3901 38.3281V60.0918L69.7495 60.0527H69.7358C67.2786 60.0563 65.2891 62.0507 65.2925 64.5078C65.296 66.9464 67.2517 68.9269 69.6812 68.9707V68.9717H69.7544L95.8696 69.0195H95.8843C97.1355 69.0178 98.2671 68.4984 99.0728 67.667L99.0796 67.6602L99.1157 67.6221L99.1147 67.6211L99.1431 67.5938L99.1489 67.5879C99.9153 66.7752 100.35 65.7048 100.369 64.5879V38.4014C100.368 35.922 98.3588 33.9121 95.8794 33.9121Z" fill="#BED9EC" stroke="black" stroke-width="2.39513"/>
<path d="M82.267 17.8474C82.267 17.8474 68.995 50.9196 86.8089 59.3573C104.623 67.7949 113.965 95.5056 102.904 102.237C98.9683 104.633 97.9228 105.773 98.2089 106.247L103.607 105.784C103.607 105.784 98.7268 107.106 98.2089 106.247L90.076 106.945C88.2568 107.101 86.42 106.894 84.7346 106.193C81.7935 104.969 77.7935 103.03 74.3682 100.797C69.7169 97.7653 63.7743 93.9743 60.2403 89.6914C56.6799 85.3766 53.4271 79.0469 51.392 74.5447C50.3844 72.3154 49.9713 69.8778 50.1368 67.4361C50.7461 58.4464 52.6298 42.2351 57.8968 36.2093C58.5212 35.495 59.1692 34.7998 59.7111 34.0209C65.0826 26.2997 72.6694 21.3002 82.267 17.8474Z" fill="#0078CE" fill-opacity="0.2"/>
</svg>
