<svg width="196" height="121" viewBox="0 0 196 121" fill="none" xmlns="http://www.w3.org/2000/svg">
<g clip-path="url(#clip0_55358_765457)">
<path d="M71.5281 35.3728L71.5281 35.3728C71.4716 35.0137 71.7166 34.6751 72.0753 34.6165L78.3301 33.5942C78.6888 33.5356 79.0254 33.7791 79.082 34.1381L79.082 34.1382C79.1385 34.4972 78.8935 34.8358 78.5348 34.8944L72.2799 35.9167C71.9212 35.9754 71.5846 35.7318 71.5281 35.3728Z" stroke="#0078CE" stroke-width="1.31625"/>
<path d="M88.8517 14.1085L88.8517 14.1085C88.485 14.1685 88.2345 14.5146 88.2923 14.8816L89.2383 20.8915C89.296 21.2586 89.6401 21.5075 90.0068 21.4476L90.0068 21.4476C90.3735 21.3877 90.624 21.0415 90.5662 20.6745L89.6202 14.6646C89.5625 14.2975 89.2184 14.0486 88.8517 14.1085Z" stroke="#0078CE" stroke-width="1.34555"/>
<path d="M75.3997 21.4871L75.3997 21.4871C75.1804 21.7834 75.2466 22.1961 75.5477 22.4088L80.592 25.9742C80.8931 26.1869 81.3149 26.1193 81.5342 25.823L81.5342 25.823C81.7536 25.5267 81.6873 25.1141 81.3863 24.9013L76.3419 21.3359C76.0409 21.1232 75.6191 21.1909 75.3997 21.4871Z" stroke="#0078CE" stroke-width="1.3349"/>
<mask id="mask0_55358_765457" style="mask-type:luminance" maskUnits="userSpaceOnUse" x="70" y="52" width="58" height="29">
<path d="M127.374 80.1472C127.374 76.4608 126.637 72.8105 125.206 69.4047C123.775 65.9989 121.677 62.9043 119.033 60.2976C116.388 57.691 113.249 55.6232 109.794 54.2125C106.339 52.8018 102.636 52.0757 98.8958 52.0757C95.156 52.0757 91.4529 52.8018 87.9978 54.2125C84.5427 55.6232 81.4033 57.691 78.7589 60.2977C76.1145 62.9043 74.0169 65.9989 72.5857 69.4047C71.1546 72.8105 70.418 76.4608 70.418 80.1472H98.8958H127.374Z" fill="white"/>
</mask>
<g mask="url(#mask0_55358_765457)">
<path d="M127.374 80.1472C127.374 76.4608 126.637 72.8105 125.206 69.4047C123.775 65.9989 121.677 62.9043 119.033 60.2976C116.388 57.691 113.249 55.6232 109.794 54.2125C106.339 52.8018 102.636 52.0757 98.8958 52.0757C95.156 52.0757 91.4529 52.8018 87.9978 54.2125C84.5427 55.6232 81.4033 57.691 78.7589 60.2977C76.1145 62.9043 74.0169 65.9989 72.5857 69.4047C71.1546 72.8105 70.418 76.4608 70.418 80.1472H98.8958H127.374Z" fill="#BFDBEE" stroke="#111B22" stroke-width="3.20186"/>
</g>
<path d="M104.893 66.2059C104.893 70.1201 102.052 73.7863 98.1693 74.8589C97.9051 74.9309 97.617 74.9309 97.3528 74.8589C93.4706 73.7863 90.6289 70.1201 90.6289 66.2059V62.6918C90.6289 62.0354 91.1252 61.291 91.7416 61.0428L96.2001 59.2178C97.2007 58.8096 98.3294 58.8096 99.33 59.2178L103.789 61.0428C104.397 61.291 104.901 62.0354 104.901 62.6918L104.893 66.2059Z" stroke="#0078CE" stroke-width="1.60093" stroke-linecap="round" stroke-linejoin="round"/>
<path d="M97.7611 67.3108C98.6453 67.3108 99.362 66.594 99.362 65.7098C99.362 64.8257 98.6453 64.1089 97.7611 64.1089C96.8769 64.1089 96.1602 64.8257 96.1602 65.7098C96.1602 66.594 96.8769 67.3108 97.7611 67.3108Z" stroke="#0078CE" stroke-width="1.60093" stroke-miterlimit="10" stroke-linecap="round" stroke-linejoin="round"/>
<path d="M97.7617 67.3105V69.7118" stroke="#0078CE" stroke-width="1.60093" stroke-miterlimit="10" stroke-linecap="round" stroke-linejoin="round"/>
<path d="M130.236 42.8091C134.312 42.8093 137.667 46.0124 137.872 50.0601L137.883 50.4536C137.854 54.5715 134.618 57.9164 130.54 58.0679C130.327 58.044 130.114 58.0439 129.901 58.0679C125.822 57.9155 122.59 54.5685 122.59 50.4536C122.59 46.2476 126.004 42.8091 130.236 42.8091Z" fill="white" stroke="#111B22" stroke-width="1.44084"/>
<path d="M68.7402 42.8091C64.6584 42.8091 61.332 46.0897 61.332 50.144C61.3599 54.0891 64.4891 57.3028 68.4443 57.4487C68.6509 57.4259 68.8578 57.4258 69.0644 57.4487C73.0214 57.3022 76.1474 54.0865 76.1474 50.144C76.1473 46.1145 72.8466 42.8093 68.7402 42.8091Z" fill="white" stroke="#111B22" stroke-width="1.44084"/>
<path d="M127.719 66.8223C131.183 65.5808 135.008 65.412 138.117 66.526L138.12 66.5271C140.447 67.3509 141.806 68.8276 142.243 70.4676C142.68 72.1085 142.237 74.0712 140.637 75.9507L140.636 75.9509C138.509 78.4531 135.101 80.2001 131.542 80.8412C131.799 78.4839 131.616 76.047 130.999 73.615L130.997 73.6084C130.327 71.0757 129.211 68.7698 127.719 66.8223Z" fill="white" stroke="#111B22" stroke-width="1.44084"/>
<path d="M71.4285 66.8223C67.9644 65.5808 64.1396 65.412 61.0307 66.526L61.0273 66.5271C58.7003 67.3509 57.342 68.8276 56.905 70.4676C56.4679 72.1085 56.9104 74.0712 58.5103 75.9507C60.6379 78.4529 64.047 80.2001 67.606 80.8412C67.3483 78.4839 67.5315 76.047 68.1488 73.615L68.1505 73.6084C68.8205 71.0757 69.9361 68.7698 71.4285 66.8223Z" fill="white" stroke="#111B22" stroke-width="1.44084"/>
<path d="M99.2744 22.0513C107.009 22.0515 113.279 28.3202 113.279 36.0532C113.279 43.7864 107.009 50.056 99.2744 50.0562C91.5396 50.0562 85.2695 43.7865 85.2695 36.0532C85.2697 28.3201 91.5397 22.0513 99.2744 22.0513Z" fill="#BFDBEE" stroke="#111B22" stroke-width="1.44084"/>
<g filter="url(#filter0_d_55358_765457)">
<path d="M54 93.4864C54 89.5077 57.2254 86.2822 61.2042 86.2822H135.027C139.005 86.2822 142.231 89.5077 142.231 93.4864V99.0896C142.231 103.069 139.005 106.294 135.027 106.294H61.2042C57.2254 106.294 54 103.069 54 99.0896V93.4864Z" fill="white"/>
<path d="M61.2041 87.1299H135.026C138.537 87.1299 141.383 89.9758 141.383 93.4863V99.0896C141.383 102.601 138.537 105.447 135.026 105.447H61.2041C57.6936 105.447 54.8477 102.601 54.8477 99.0896V93.4863C54.8477 89.9758 57.6936 87.1299 61.2041 87.1299Z" stroke="#111B22" stroke-width="1.6954"/>
<path d="M64.1738 93.4878C65.8123 93.4878 67.1405 94.8161 67.1406 96.4546C67.1406 98.0936 65.8124 99.4216 64.1738 99.4216C62.5353 99.4216 61.207 98.0936 61.207 96.4546C61.2071 94.8161 62.5353 93.4879 64.1738 93.4878Z" fill="#31AAB7" fill-opacity="0.4" stroke="#17222B" stroke-width="0.847698"/>
<path d="M72.6465 93.4878C74.2851 93.4878 75.6132 94.8161 75.6133 96.4546C75.6133 98.0936 74.2851 99.4216 72.6465 99.4216C71.008 99.4216 69.6797 98.0936 69.6797 96.4546C69.6798 94.8161 71.0081 93.4879 72.6465 93.4878Z" fill="#31AAB7" fill-opacity="0.4" stroke="#17222B" stroke-width="0.847698"/>
<path d="M81.123 93.4878C82.7615 93.4878 84.0897 94.8161 84.0898 96.4546C84.0898 98.0936 82.7616 99.4216 81.123 99.4216C79.4845 99.4216 78.1562 98.0936 78.1562 96.4546C78.1563 94.8161 79.4845 93.4879 81.123 93.4878Z" fill="#31AAB7" fill-opacity="0.4" stroke="#17222B" stroke-width="0.847698"/>
<path d="M89.6035 93.4878C91.242 93.4878 92.5702 94.8161 92.5703 96.4546C92.5703 98.0936 91.2421 99.4216 89.6035 99.4216C87.9649 99.4216 86.6367 98.0936 86.6367 96.4546C86.6368 94.8161 87.965 93.4879 89.6035 93.4878Z" fill="#31AAB7" fill-opacity="0.4" stroke="#17222B" stroke-width="0.847698"/>
<path d="M98.0762 93.4878C99.7148 93.4878 101.043 94.8161 101.043 96.4546C101.043 98.0936 99.7148 99.4216 98.0762 99.4216C96.4377 99.4216 95.1094 98.0936 95.1094 96.4546C95.1095 94.8161 96.4378 93.4879 98.0762 93.4878Z" fill="#31AAB7" fill-opacity="0.4" stroke="#17222B" stroke-width="0.847698"/>
<path d="M105.424 96.0781H111.928C112.083 96.0781 112.255 96.2209 112.255 96.4551C112.255 96.6891 112.083 96.8311 111.928 96.8311H105.424C105.269 96.8308 105.098 96.6889 105.098 96.4551C105.098 96.2211 105.269 96.0784 105.424 96.0781Z" fill="#31AAB7" fill-opacity="0.4" stroke="#BFDBEE" stroke-width="0.847698"/>
</g>
</g>
<defs>
<filter id="filter0_d_55358_765457" x="41.1926" y="79.8785" width="113.845" height="45.6271" filterUnits="userSpaceOnUse" color-interpolation-filters="sRGB">
<feFlood flood-opacity="0" result="BackgroundImageFix"/>
<feColorMatrix in="SourceAlpha" type="matrix" values="0 0 0 0 0 0 0 0 0 0 0 0 0 0 0 0 0 0 127 0" result="hardAlpha"/>
<feOffset dy="6.40372"/>
<feGaussianBlur stdDeviation="6.40372"/>
<feColorMatrix type="matrix" values="0 0 0 0 0.0705882 0 0 0 0 0.105882 0 0 0 0 0.129412 0 0 0 0.1 0"/>
<feBlend mode="normal" in2="BackgroundImageFix" result="effect1_dropShadow_55358_765457"/>
<feBlend mode="normal" in="SourceGraphic" in2="effect1_dropShadow_55358_765457" result="shape"/>
</filter>
<clipPath id="clip0_55358_765457">
<rect width="196" height="121" fill="white"/>
</clipPath>
</defs>
</svg>
