<svg width="196" height="121" viewBox="0 0 196 121" fill="none" xmlns="http://www.w3.org/2000/svg">
<rect x="-0.399991" y="0.624229" width="1.04192" height="5.94774" rx="0.52096" transform="matrix(-0.974526 0.218496 0.206732 0.979733 111.151 15.2768)" fill="#999999" stroke="#0078CE" stroke-width="1.04192"/>
<rect x="-0.608366" y="-0.392106" width="1.02942" height="5.80945" rx="0.514712" transform="matrix(-0.207282 -0.979611 -0.974672 0.217814 127.919 28.5158)" fill="#999999" stroke="#0078CE" stroke-width="1.02942"/>
<rect x="-0.700166" y="0.158776" width="1.02787" height="5.89312" rx="0.513933" transform="matrix(-0.83265 -0.544984 -0.529721 0.853927 121.988 18.0723)" fill="#999999" stroke="#0078CE" stroke-width="1.02787"/>
<path d="M73.0553 28.0762H116.106C117.178 28.0762 118.205 28.6422 118.962 29.6496C119.72 30.6571 120.145 32.0235 120.145 33.4482V101.576C120.145 103.001 119.72 104.368 118.962 105.375C118.205 106.382 117.178 106.948 116.106 106.948H67.5386C66.4675 106.948 65.4402 106.382 64.6829 105.375C63.9255 104.368 63.5 103.001 63.5 101.576V40.9153L73.0553 28.0762Z" fill="white" stroke="#111B22" stroke-width="1.81562" stroke-linecap="round" stroke-linejoin="round"/>
<path d="M63.5 40.9153H71.3268C71.7859 40.9125 72.2256 40.6679 72.5495 40.235C72.8734 39.8021 73.0553 39.2162 73.0553 38.6054V28.0762L63.5 40.9153Z" fill="white" stroke="#111B22" stroke-width="2.03685" stroke-linecap="round" stroke-linejoin="round"/>
<rect x="0.687389" y="0.69367" width="21.7469" height="1.38097" rx="0.690487" transform="matrix(0.999989 0.00461995 -0.00447594 0.99999 70.4055 45.5139)" fill="#DCDCDC" stroke="#111B22" stroke-width="1.38097"/>
<rect x="0.687401" y="0.693682" width="38.0383" height="1.38097" rx="0.690487" transform="matrix(0.999989 0.00463803 -0.00445849 0.99999 70.4601 62.8108)" fill="#DCDCDC" stroke="#111B22" stroke-width="1.38097"/>
<rect x="0.687389" y="0.69367" width="35.8489" height="1.38097" rx="0.690487" transform="matrix(0.999989 0.00461995 -0.00447594 0.99999 70.4055 76.6194)" fill="#DCDCDC" stroke="#111B22" stroke-width="1.38097"/>
<rect x="0.687389" y="0.69367" width="30.884" height="1.38097" rx="0.690487" transform="matrix(0.999989 0.00461995 -0.00447594 0.99999 70.4055 90.8557)" fill="#DCDCDC" stroke="#111B22" stroke-width="1.38097"/>
<rect x="0.687389" y="0.69367" width="12.8915" height="1.38097" rx="0.690487" transform="matrix(0.999989 0.00461995 -0.00447594 0.99999 70.3781 51.0383)" fill="#EEEEEE" stroke="#111B22" stroke-width="1.38097"/>
<rect x="0.687401" y="0.693682" width="12.8915" height="1.38097" rx="0.690487" transform="matrix(0.999989 0.00463803 -0.00445849 0.99999 70.4445 68.3352)" fill="#EEEEEE" stroke="#111B22" stroke-width="1.38097"/>
<rect x="0.687389" y="0.69367" width="12.8915" height="1.38097" rx="0.690487" transform="matrix(0.999989 0.00461995 -0.00447594 0.99999 70.3781 82.1453)" fill="#EEEEEE" stroke="#111B22" stroke-width="1.38097"/>
<rect x="0.687389" y="0.69367" width="12.8915" height="1.38097" rx="0.690487" transform="matrix(0.999989 0.00461995 -0.00447594 0.99999 70.3781 96.3782)" fill="#EEEEEE" stroke="#111B22" stroke-width="1.38097"/>
<g filter="url(#filter0_d_54246_1043182)">
<ellipse cx="13.7135" cy="13.9636" rx="13.7135" ry="13.9636" transform="matrix(-0.991122 0.132952 0.128143 0.991756 119.039 22.978)" fill="#BFDBEE"/>
</g>
<path d="M105.122 32.9175C101.219 27.7509 108.182 25.145 108.182 25.145C103.977 25.7842 101.908 26.8976 99.2637 29.5362C98.8298 29.9692 98.4568 30.4612 98.1561 30.9953C97.3748 32.383 96.8572 33.5347 96.4252 34.8252C95.7423 36.8652 95.716 39.0728 96.2269 41.1625C96.3996 41.8689 96.5906 42.565 96.8219 43.3295C97.2289 44.6749 97.904 45.9324 98.8644 46.9587C100.091 48.2694 101.24 49.2317 102.303 49.9718C103.136 50.5521 104.087 50.9313 105.065 51.2024L107.799 51.96C107.799 51.96 104.884 50.0027 110.094 48.0737C115.304 46.1448 109.024 38.084 105.122 32.9175Z" fill="#0078CE" fill-opacity="0.2"/>
<g filter="url(#filter1_d_54246_1043182)">
<path d="M105.563 25.702C98.5692 26.6405 93.6184 33.1863 94.5443 40.3526C95.4704 47.5188 101.915 52.5361 108.909 51.5981C115.904 50.6599 120.854 44.1139 119.928 36.9475C119.002 29.7811 112.558 24.7638 105.563 25.702Z" stroke="#0078CE" stroke-width="1.81562"/>
</g>
<path d="M115.647 35.8441L115.647 41.448C115.647 42.3656 115.164 43.2177 114.384 43.6847L109.606 46.4949C108.826 46.9537 107.86 46.9537 107.072 46.4949L102.294 43.6847C101.514 43.2259 101.031 42.3738 101.031 41.448L101.031 35.8441C101.031 34.9265 101.514 34.0744 102.294 33.6074L107.072 30.7972C107.852 30.3384 108.818 30.3384 109.606 30.7972L114.384 33.6074C115.164 34.0744 115.647 34.9183 115.647 35.8441Z" stroke="#0078CE" stroke-width="1.36171" stroke-linecap="round" stroke-linejoin="round"/>
<path d="M108.343 37.8267C109.378 37.8267 110.217 36.972 110.217 35.9177C110.217 34.8634 109.378 34.0088 108.343 34.0088C107.308 34.0088 106.469 34.8634 106.469 35.9177C106.469 36.972 107.308 37.8267 108.343 37.8267Z" stroke="#0078CE" stroke-width="1.36171" stroke-linecap="round" stroke-linejoin="round"/>
<path d="M111.56 42.4638C111.56 40.9891 110.12 39.793 108.343 39.793C106.565 39.793 105.125 40.9891 105.125 42.4638" stroke="#0078CE" stroke-width="1.36171" stroke-linecap="round" stroke-linejoin="round"/>
<rect x="0.459104" y="0.854139" width="14.3734" height="41.8559" rx="7.1867" transform="matrix(0.955571 0.294866 -0.281267 0.959641 117.495 62.8429)" fill="white" stroke="#111B22" stroke-width="1.36171"/>
<path d="M123.002 76.5436L123.656 74.3859C123.702 74.2339 123.686 74.0689 123.612 73.9272C123.537 73.7855 123.41 73.6788 123.258 73.6305L122.992 73.5459L123.494 71.8914C123.619 71.4787 123.575 71.031 123.372 70.6466C123.17 70.2622 122.825 69.9724 122.413 69.8409L121.717 69.6194C121.305 69.4888 120.861 69.5272 120.481 69.7263C120.102 69.9254 119.818 70.2688 119.692 70.6813L119.192 72.3328L118.926 72.2483C118.851 72.2245 118.772 72.2159 118.694 72.2228C118.615 72.2298 118.539 72.2522 118.47 72.2889C118.401 72.3255 118.34 72.3757 118.29 72.4364C118.24 72.4972 118.203 72.5673 118.181 72.6429L111.152 95.8219C111.136 95.8792 111.127 95.9388 111.127 95.9987L111.147 101.843C111.148 101.971 111.189 102.097 111.265 102.201C111.342 102.305 111.449 102.382 111.571 102.421L112.633 102.76C112.756 102.799 112.887 102.797 113.007 102.756C113.128 102.714 113.231 102.635 113.303 102.529L116.551 97.7256C116.584 97.676 116.61 97.622 116.628 97.565L122.126 79.4313C122.351 79.6256 122.515 79.8811 122.599 80.1662C122.682 80.4514 122.681 80.7538 122.596 81.0363L120.865 86.7451C120.819 86.8971 120.835 87.0621 120.909 87.2038C120.984 87.3455 121.111 87.4522 121.263 87.5005C121.856 87.6883 122.495 87.633 123.041 87.3465C123.587 87.0601 123.995 86.566 124.176 85.9726L125.401 81.9301C125.712 80.9003 125.64 79.7875 125.199 78.7975C124.758 77.8074 123.977 77.0068 123.002 76.5436ZM119.151 73.5791L122.34 74.5942L116.611 93.4869L113.423 92.4719L119.151 73.5791ZM113.075 93.6186L116.264 94.6336L115.659 96.6278L112.47 95.6128L113.075 93.6186ZM120.837 71.0456C120.87 70.937 120.945 70.8466 121.045 70.7942C121.144 70.7418 121.261 70.7317 121.37 70.7661L122.066 70.9877C122.174 71.0223 122.265 71.0985 122.318 71.1997C122.372 71.3009 122.383 71.4187 122.35 71.5273L121.849 73.1788L120.336 72.6971L120.837 71.0456ZM112.559 101.475L112.342 101.406L112.324 96.8236L115.107 97.7095L112.559 101.475ZM123.034 85.6076C122.977 85.7939 122.874 85.9619 122.734 86.0957C122.594 86.2296 122.422 86.3248 122.234 86.3723L123.741 81.4017C123.919 80.8134 123.892 80.1793 123.665 79.6031C123.439 79.027 123.025 78.5429 122.493 78.2301L122.653 77.7006C123.324 78.0619 123.851 78.6458 124.144 79.3515C124.437 80.0572 124.478 80.8407 124.259 81.5668L123.034 85.6076Z" fill="#111B22"/>
<defs>
<filter id="filter0_d_54246_1043182" x="80.5219" y="18.1775" width="53.4288" height="53.9498" filterUnits="userSpaceOnUse" color-interpolation-filters="sRGB">
<feFlood flood-opacity="0" result="BackgroundImageFix"/>
<feColorMatrix in="SourceAlpha" type="matrix" values="0 0 0 0 0 0 0 0 0 0 0 0 0 0 0 0 0 0 127 0" result="hardAlpha"/>
<feOffset dy="6.50272"/>
<feGaussianBlur stdDeviation="6.50272"/>
<feColorMatrix type="matrix" values="0 0 0 0 0.0705882 0 0 0 0 0.105882 0 0 0 0 0.129412 0 0 0 0.1 0"/>
<feBlend mode="normal" in2="BackgroundImageFix" result="effect1_dropShadow_54246_1043182"/>
<feBlend mode="normal" in="SourceGraphic" in2="effect1_dropShadow_54246_1043182" result="shape"/>
</filter>
<filter id="filter1_d_54246_1043182" x="80.5219" y="18.1775" width="53.4288" height="53.9498" filterUnits="userSpaceOnUse" color-interpolation-filters="sRGB">
<feFlood flood-opacity="0" result="BackgroundImageFix"/>
<feColorMatrix in="SourceAlpha" type="matrix" values="0 0 0 0 0 0 0 0 0 0 0 0 0 0 0 0 0 0 127 0" result="hardAlpha"/>
<feOffset dy="6.50272"/>
<feGaussianBlur stdDeviation="6.50272"/>
<feColorMatrix type="matrix" values="0 0 0 0 0.0705882 0 0 0 0 0.105882 0 0 0 0 0.129412 0 0 0 0.1 0"/>
<feBlend mode="normal" in2="BackgroundImageFix" result="effect1_dropShadow_54246_1043182"/>
<feBlend mode="normal" in="SourceGraphic" in2="effect1_dropShadow_54246_1043182" result="shape"/>
</filter>
</defs>
</svg>
