<svg width="196" height="121" viewBox="0 0 196 121" fill="none" xmlns="http://www.w3.org/2000/svg">
<g clip-path="url(#clip0_55358_765759)">
<path d="M58.8555 31.2133C58.8555 29.1282 60.5876 27.438 62.7243 27.438H126.181C128.318 27.438 130.05 29.1282 130.05 31.2133V38.5892C130.05 40.6742 128.318 42.3644 126.181 42.3644H62.7243C60.5876 42.3644 58.8555 40.6742 58.8555 38.5892V31.2133Z" fill="white"/>
<path d="M61.0054 26.9897H68.7613V30.5937L69.5 32.3957L71.3466 33.1165H73.1933L74.6706 31.6749V29.1522V26.9897H99.4157H114.189V29.5125L114.558 31.6749L116.405 33.4769L118.621 33.1165L119.729 31.3145V26.6294H125.268L128.962 28.0709L130.809 30.5937V37.8016L129.701 41.0452L126.746 42.8471H110.127H73.5626L61.0054 42.4868L58.7894 41.0452L58.0508 36.3601L58.4201 29.5125L61.0054 26.9897Z" fill="#BFDBEE"/>
<path d="M82.7975 34.5604C89.8772 37.1974 112.344 29.1546 120.099 36.7229C127.854 44.2911 130.441 36.7229 130.441 36.7229V29.8753L128.964 28.0735L127.117 26.9923L123.055 26.6318L120.099 26.9923L119.731 29.1546L119.362 32.3982L117.145 33.4794L115.299 33.119L114.191 30.9566V26.9923H113.451H74.6715V29.5151L74.3022 32.0379L72.4555 33.4794L70.6088 33.119L69.1316 31.317V26.9923H62.1152L61.3652 27.4427C60.9624 27.6845 60.5705 27.9477 60.2365 28.2745C59.1533 29.3343 58.7088 30.4136 58.4382 31.4296C57.8616 33.5952 57.5454 35.965 57.8562 38.1819C57.8562 38.1819 57.2729 39.9552 61.7967 39.9228C66.3205 39.8903 74.8681 32.5333 82.7975 34.5604Z" fill="#0078CE" fill-opacity="0.2"/>
<path fill-rule="evenodd" clip-rule="evenodd" d="M126.181 27.8575H62.7243C60.825 27.8575 59.2853 29.3599 59.2853 31.2133V38.5892C59.2853 40.4425 60.825 41.9449 62.7243 41.9449H126.181C128.08 41.9449 129.62 40.4425 129.62 38.5892V31.2133C129.62 29.3599 128.08 27.8575 126.181 27.8575ZM62.7243 27.438C60.5876 27.438 58.8555 29.1282 58.8555 31.2133V38.5892C58.8555 40.6742 60.5876 42.3644 62.7243 42.3644H126.181C128.318 42.3644 130.05 40.6742 130.05 38.5892V31.2133C130.05 29.1282 128.318 27.438 126.181 27.438H62.7243Z" fill="#566976"/>
<path d="M59.8672 84.3766V42.3579C60.8756 43.1233 127.028 43.3147 129.247 42.3579V77.3777L126.02 80.6946V86.0043C126.02 88.321 124.096 90.1991 121.721 90.1991H65.8341C64.2095 90.1991 62.8925 88.9139 62.8925 87.3286C61.2217 87.3286 59.8672 86.0069 59.8672 84.3766Z" fill="white"/>
<path fill-rule="evenodd" clip-rule="evenodd" d="M60.3231 41.4689C60.4451 41.4859 60.6263 41.5048 60.8728 41.5246C61.3929 41.5661 62.1404 41.6063 63.0911 41.6446C64.9892 41.7207 67.6555 41.7871 70.8422 41.8423C77.2134 41.9529 85.6406 42.0185 94.1079 42.0306C102.575 42.0425 111.078 42.0006 117.599 41.8961C120.861 41.8439 123.621 41.776 125.63 41.6917C126.637 41.6495 127.445 41.6036 128.031 41.5544C128.324 41.5297 128.551 41.5051 128.712 41.4816C128.82 41.466 128.871 41.4544 128.884 41.4518L130.246 40.8646V77.7636L127.018 81.0806V86.0026C127.018 88.8559 124.648 91.1689 121.724 91.1689H65.8374C63.9712 91.1689 62.4083 89.9019 62.0026 88.2012C60.2118 87.8049 58.875 86.2422 58.875 84.3749V40.3696L60.3231 41.4689ZM64.165 88.2984C64.5046 88.8539 65.1265 89.2259 65.8374 89.2259H121.724C123.549 89.2259 125.027 87.7828 125.027 86.0026V83.1273L119.996 88.2984H64.165ZM60.8662 43.4731V84.3749C60.8662 85.4687 61.7749 86.3554 62.8958 86.3554H118.574V80.7317C118.574 78.3419 120.559 76.4045 123.008 76.4045H128.254V43.4857C128.237 43.4872 128.219 43.4887 128.202 43.4902C127.574 43.543 126.732 43.5902 125.716 43.6329C123.68 43.7183 120.899 43.7865 117.631 43.8388C111.094 43.9436 102.579 43.9855 94.105 43.9736C85.6309 43.9615 77.1922 43.8957 70.8068 43.785C67.6152 43.7297 64.9307 43.663 63.0093 43.5859C62.1363 43.5508 61.4121 43.5133 60.8662 43.4731ZM126.932 78.3475H123.008C121.659 78.3475 120.564 79.4149 120.564 80.7317V84.8925L126.932 78.3475Z" fill="#111B22"/>
<path fill-rule="evenodd" clip-rule="evenodd" d="M71.7648 20.755C70.7552 20.755 69.9369 21.5536 69.9369 22.5388V30.8065C69.9369 31.7916 70.7552 32.5903 71.7648 32.5903C72.7744 32.5903 73.5928 31.7916 73.5928 30.8065V22.5388C73.5928 21.5536 72.7744 20.755 71.7648 20.755ZM67.9457 22.5388C67.9457 20.4805 69.6556 18.812 71.7648 18.812C73.8741 18.812 75.584 20.4805 75.584 22.5388V25.7011H113.123V22.5388C113.123 20.4805 114.833 18.812 116.942 18.812C119.052 18.812 120.761 20.4805 120.761 22.5388V25.7011H126.13C129.291 25.7011 131.854 28.2019 131.854 31.2869V38.3244C131.854 41.4094 129.291 43.9101 126.13 43.9101H62.7789C59.6176 43.9101 57.0547 41.4094 57.0547 38.3244V31.2869C57.0547 28.202 59.6175 25.7011 62.7789 25.7011H67.9457V22.5388ZM67.9457 27.6441H62.7789C60.7172 27.6441 59.0458 29.275 59.0458 31.2869V38.3244C59.0458 40.3363 60.7172 41.9672 62.7789 41.9672H126.13C128.192 41.9672 129.862 40.3363 129.862 38.3244V31.2869C129.862 29.275 128.192 27.6441 126.13 27.6441H120.761V30.8065C120.761 32.8647 119.052 34.5333 116.942 34.5333C114.833 34.5333 113.123 32.8647 113.123 30.8065V27.6441H75.584V30.8065C75.584 32.8647 73.8741 34.5333 71.7648 34.5333C69.6556 34.5333 67.9457 32.8647 67.9457 30.8065V27.6441ZM116.942 20.755C115.932 20.755 115.114 21.5536 115.114 22.5388V30.8065C115.114 31.7916 115.932 32.5903 116.942 32.5903C117.951 32.5903 118.77 31.7916 118.77 30.8065V22.5388C118.77 21.5536 117.951 20.755 116.942 20.755Z" fill="#111B22"/>
<path fill-rule="evenodd" clip-rule="evenodd" d="M71.7575 20.6203C70.6729 20.6203 69.7937 21.4782 69.7937 22.5366V30.8043C69.7937 31.8627 70.6729 32.7206 71.7575 32.7206C72.8421 32.7206 73.7213 31.8627 73.7213 30.8043V22.5366C73.7213 21.4782 72.8421 20.6203 71.7575 20.6203ZM68.0742 22.5366C68.0742 20.5516 69.7233 18.9424 71.7575 18.9424C73.7918 18.9424 75.4408 20.5516 75.4408 22.5366V30.8043C75.4408 32.7893 73.7918 34.3985 71.7575 34.3985C69.7233 34.3985 68.0742 32.7893 68.0742 30.8043V22.5366ZM113.251 22.5366C113.251 20.5516 114.9 18.9424 116.935 18.9424C118.97 18.9424 120.619 20.5516 120.619 22.5366V30.8043C120.619 32.7893 118.97 34.3985 116.935 34.3985C114.9 34.3985 113.251 32.7893 113.251 30.8043V22.5366ZM116.935 20.6203C115.85 20.6203 114.971 21.4782 114.971 22.5366V30.8043C114.971 31.8627 115.85 32.7206 116.935 32.7206C118.019 32.7206 118.899 31.8627 118.899 30.8043V22.5366C118.899 21.4782 118.019 20.6203 116.935 20.6203Z" fill="#111B22"/>
<path fill-rule="evenodd" clip-rule="evenodd" d="M113.402 68.1536H105.95V75.1315H113.402V68.1536ZM105.95 66.4756C104.999 66.4756 104.23 67.2269 104.23 68.1536V75.1315C104.23 76.0581 104.999 76.8093 105.95 76.8093H113.402C114.351 76.8093 115.121 76.0581 115.121 75.1315V68.1536C115.121 67.2269 114.351 66.4756 113.402 66.4756H105.95Z" fill="#111B22"/>
<g filter="url(#filter0_d_55358_765759)">
<path d="M144.343 78.2441C144.343 91.2672 133.496 101.824 120.116 101.824C106.737 101.824 95.8906 91.2672 95.8906 78.2441C95.8906 65.2209 106.737 54.6636 120.116 54.6636C133.496 54.6636 144.343 65.2209 144.343 78.2441Z" fill="#111B22"/>
<path fill-rule="evenodd" clip-rule="evenodd" d="M137.667 57.2105C140.589 59.6009 142.974 62.5514 144.673 65.8783C146.373 69.2052 147.35 72.8371 147.545 76.5478C147.74 80.2584 147.148 83.9683 145.804 87.4463C144.461 90.9243 142.397 94.0958 139.74 96.7634C137.083 99.4308 133.889 101.537 130.36 102.951C126.83 104.365 123.038 105.056 119.222 104.981C115.406 104.907 111.646 104.068 108.177 102.517C104.709 100.967 101.607 98.7383 99.0622 95.9702L99.0599 95.9677L97.5195 97.3089C98.2604 98.115 99.0451 98.8785 99.8699 99.5964C102.089 101.529 104.597 103.131 107.315 104.345C111.042 106.011 115.08 106.913 119.181 106.992C123.281 107.073 127.354 106.331 131.146 104.811C134.939 103.292 138.37 101.029 141.224 98.1637C144.079 95.2979 146.296 91.8905 147.739 88.154C149.182 84.4175 149.819 80.4318 149.609 76.4453C149.4 72.4587 148.35 68.5568 146.524 64.9826C145.194 62.3768 143.47 59.9859 141.418 57.8864C140.655 57.1062 139.847 56.3662 138.996 55.6704L137.667 57.2105Z" fill="#111B22"/>
<path d="M137.487 58.9583L137.035 54.4575L141.788 55.3034L137.487 58.9583Z" fill="#111B22"/>
<path d="M142.352 78.2459C142.352 90.1986 132.398 99.888 120.118 99.888C107.838 99.888 97.8828 90.1986 97.8828 78.2459C97.8828 66.2932 107.838 56.6035 120.118 56.6035C132.398 56.6035 142.352 66.2932 142.352 78.2459Z" fill="#BFDBEE"/>
<path fill-rule="evenodd" clip-rule="evenodd" d="M120.118 98.5929C131.667 98.5929 141.025 89.4802 141.025 78.2459C141.025 67.0116 131.667 57.8988 120.118 57.8988C108.568 57.8988 99.2103 67.0116 99.2103 78.2459C99.2103 89.4802 108.568 98.5929 120.118 98.5929ZM120.118 99.888C132.398 99.888 142.352 90.1986 142.352 78.2459C142.352 66.2932 132.398 56.6035 120.118 56.6035C107.838 56.6035 97.8828 66.2932 97.8828 78.2459C97.8828 90.1986 107.838 99.888 120.118 99.888Z" fill="#D0EAEE"/>
</g>
<path d="M112.248 69.6795C105.157 61.7292 116.65 56.8481 116.65 56.8481C109.326 58.3486 105.961 60.4523 101.505 65.372C101.172 65.7386 100.887 66.1463 100.657 66.5812C98.7863 70.1232 97.8919 72.6484 97.1231 76.1612C96.7498 77.8662 96.8165 79.6373 97.2881 81.3189C98.0216 83.9348 98.7435 86.045 99.8993 88.8948C100.325 89.944 100.951 90.909 101.767 91.7086C104.947 94.8252 107.804 96.7674 110.326 98.1038C111.042 98.4829 111.818 98.7365 112.615 98.8989L118.63 100.124C118.63 100.124 113.518 97.2521 122.122 93.6337C130.725 90.0152 119.339 77.6299 112.248 69.6795Z" fill="#0078CE" fill-opacity="0.2"/>
<path d="M61.5841 15.6473L61.5841 15.6473C61.2745 15.6662 61.0372 15.9264 61.0542 16.2284L61.3471 21.442C61.364 21.744 61.6288 21.9734 61.9385 21.9544L61.9385 21.9544C62.2482 21.9354 62.4854 21.6752 62.4685 21.3732L62.1755 16.1597C62.1586 15.8577 61.8938 15.6283 61.5841 15.6473Z" fill="#999999" stroke="#0078CE" stroke-width="1.12299"/>
<path d="M47.5654 32.8579C47.251 32.8772 47.0102 33.1413 47.0274 33.4479C47.0446 33.7544 47.3134 33.9873 47.6278 33.968L52.8269 33.6491C53.1413 33.6298 53.3821 33.3657 53.3649 33.0592C53.3477 32.7526 53.0789 32.5197 52.7646 32.539L47.5654 32.8579Z" fill="#999999" stroke="#0078CE" stroke-width="1.13995"/>
<path d="M137.037 78.2499C137.037 87.3482 129.46 94.7239 120.112 94.7239C110.765 94.7239 103.188 87.3482 103.188 78.2499C103.188 69.1516 110.765 61.7759 120.112 61.7759C129.46 61.7759 137.037 69.1516 137.037 78.2499Z" fill="white"/>
<path fill-rule="evenodd" clip-rule="evenodd" d="M120.112 93.3183C128.668 93.3183 135.596 86.5686 135.596 78.2499C135.596 69.9312 128.668 63.1815 120.112 63.1815C111.556 63.1815 104.628 69.9312 104.628 78.2499C104.628 86.5686 111.556 93.3183 120.112 93.3183ZM120.112 94.7239C129.46 94.7239 137.037 87.3482 137.037 78.2499C137.037 69.1516 129.46 61.7759 120.112 61.7759C110.765 61.7759 103.188 69.1516 103.188 78.2499C103.188 87.3482 110.765 94.7239 120.112 94.7239Z" fill="#BFDBEE"/>
<path d="M119.215 65.3708C121.809 65.1974 124.399 65.7674 126.653 67.0075C128.907 68.2477 130.722 70.102 131.866 72.3332L120.127 77.833L119.215 65.3708Z" fill="#0078CE"/>
<path fill-rule="evenodd" clip-rule="evenodd" d="M119.443 65.3574C119.368 65.3612 119.291 65.3657 119.215 65.3707L120.127 77.833L131.866 72.3331C131.832 72.2663 131.798 72.1999 131.762 72.1338C130.613 69.9916 128.838 68.2106 126.653 67.0075C124.465 65.8037 121.961 65.2315 119.443 65.3574ZM119.461 65.5806L120.332 77.4887L131.555 72.2307C130.426 70.1302 128.685 68.3833 126.539 67.2025C124.392 66.0204 121.933 65.4579 119.461 65.5806Z" fill="#BFDBEE"/>
<path fill-rule="evenodd" clip-rule="evenodd" d="M114.1 67.7766C114.32 67.643 114.611 67.7048 114.751 67.9146L116.4 70.3906C116.54 70.6003 116.475 70.8787 116.255 71.0123C116.036 71.1459 115.746 71.0842 115.606 70.8744L113.957 68.3984C113.817 68.1886 113.881 67.9102 114.1 67.7766Z" fill="#111B22"/>
<path fill-rule="evenodd" clip-rule="evenodd" d="M109.35 72.2112C109.478 71.9948 109.765 71.9184 109.992 72.0407L112.7 73.5039C112.928 73.6262 113.007 73.9008 112.88 74.1174C112.751 74.3339 112.464 74.4103 112.237 74.2879L109.529 72.8247C109.302 72.7024 109.222 72.4278 109.35 72.2112Z" fill="#111B22"/>
<path fill-rule="evenodd" clip-rule="evenodd" d="M107.758 78.2852C107.758 78.0366 107.968 77.835 108.228 77.835L111.173 77.8353C111.433 77.8353 111.644 78.0369 111.644 78.2855C111.644 78.5342 111.433 78.7358 111.173 78.7358L108.229 78.7355C107.969 78.7355 107.758 78.5339 107.758 78.2852Z" fill="#111B22"/>
<path fill-rule="evenodd" clip-rule="evenodd" d="M112.872 82.4381C113.009 82.6495 112.942 82.927 112.721 83.0579L110.246 84.5212C110.025 84.652 109.735 84.5867 109.598 84.3752C109.461 84.1637 109.529 83.8862 109.751 83.7554L112.224 82.292C112.445 82.1612 112.736 82.2266 112.872 82.4381Z" fill="#111B22"/>
<path fill-rule="evenodd" clip-rule="evenodd" d="M116.235 85.4344C116.461 85.5569 116.54 85.8317 116.412 86.048L114.881 88.6367C114.753 88.8531 114.466 88.9292 114.24 88.8068C114.013 88.6843 113.933 88.4095 114.061 88.1932L115.592 85.6045C115.721 85.3881 116.008 85.312 116.235 85.4344Z" fill="#111B22"/>
<path fill-rule="evenodd" clip-rule="evenodd" d="M120.56 86.7261C120.821 86.7262 121.031 86.9279 121.031 87.1765V89.8777C121.031 90.1264 120.821 90.3279 120.56 90.3278C120.3 90.3276 120.09 90.126 120.09 89.8773V87.1762C120.09 86.9275 120.3 86.726 120.56 86.7261Z" fill="#111B22"/>
<path fill-rule="evenodd" clip-rule="evenodd" d="M124.806 85.5666C125.022 85.4265 125.315 85.4795 125.461 85.685L127.228 88.161C127.374 88.3664 127.319 88.6466 127.104 88.7867C126.889 88.9267 126.596 88.8737 126.449 88.6682L124.683 86.1921C124.537 85.9867 124.592 85.7066 124.806 85.5666Z" fill="#111B22"/>
<path fill-rule="evenodd" clip-rule="evenodd" d="M128.078 82.4889C128.204 82.2712 128.49 82.1923 128.718 82.3126L131.427 83.7435C131.655 83.8638 131.737 84.1378 131.612 84.3554C131.486 84.5731 131.2 84.652 130.971 84.5318L128.263 83.1008C128.035 82.9805 127.953 82.7065 128.078 82.4889Z" fill="#111B22"/>
<path fill-rule="evenodd" clip-rule="evenodd" d="M129.43 78.1431C129.43 77.8944 129.641 77.6928 129.901 77.6929L132.846 77.6931C133.106 77.6931 133.317 77.8947 133.317 78.1434C133.317 78.3921 133.106 78.5936 132.846 78.5936L129.901 78.5934C129.641 78.5933 129.431 78.3918 129.43 78.1431Z" fill="#111B22"/>
<path fill-rule="evenodd" clip-rule="evenodd" d="M131.792 72.0392C132.019 72.4162 131.885 72.8982 131.49 73.1158L120.889 78.9682C120.495 79.1858 119.991 79.0566 119.763 78.6797C119.535 78.3027 119.671 77.8207 120.065 77.6031L130.666 71.7507C131.061 71.5331 131.564 71.6623 131.792 72.0392Z" fill="#111B22"/>
<path d="M122.834 78.2853C122.834 79.5906 121.726 80.6488 120.361 80.6488C118.994 80.6488 117.887 79.5906 117.887 78.2853C117.887 76.9801 118.994 75.9219 120.361 75.9219C121.726 75.9219 122.834 76.9801 122.834 78.2853Z" fill="#111B22"/>
<path d="M51.5167 21.2221C51.2846 21.0179 50.9289 21.039 50.7221 21.2692C50.5153 21.4994 50.5358 21.8515 50.7679 22.0557L54.6673 25.4859C54.8994 25.69 55.2552 25.6689 55.4619 25.4387C55.6687 25.2085 55.6482 24.8564 55.4162 24.6523L51.5167 21.2221Z" fill="#999999" stroke="#0078CE" stroke-width="1.13375"/>
<mask id="mask0_55358_765759" style="mask-type:luminance" maskUnits="userSpaceOnUse" x="64" y="53" width="24" height="24">
<path d="M87.9743 53.6606H64.6953V76.3764H87.9743V53.6606Z" fill="white"/>
</mask>
<g mask="url(#mask0_55358_765759)">
<path d="M76.3342 55.5518C77.2935 55.5518 78.2311 55.8293 79.0286 56.3493C79.8262 56.8693 80.4478 57.6084 80.8148 58.4732C81.182 59.3379 81.2779 60.2894 81.0908 61.2075C80.9036 62.1254 80.4417 62.9687 79.7635 63.6305C79.0852 64.2924 78.2211 64.7431 77.2804 64.9258C76.3396 65.1084 75.3645 65.0146 74.4783 64.6565C73.5921 64.2982 72.8347 63.6916 72.3018 62.9134C71.7688 62.1352 71.4844 61.2202 71.4844 60.2842L71.4893 60.0788C71.5435 58.8604 72.0776 57.7095 72.9803 56.8661C73.883 56.0227 75.0845 55.5519 76.3342 55.5518Z" fill="#0078CE"/>
<path d="M78.2765 66.9126C79.5628 66.9126 80.7963 67.4112 81.7058 68.2987C82.6153 69.1862 83.1263 70.39 83.1263 71.6451V72.5916C83.1263 73.0936 82.9219 73.5751 82.5581 73.9301C82.1943 74.2851 81.7009 74.4845 81.1864 74.4845H71.4867C70.9723 74.4845 70.4788 74.2851 70.115 73.9301C69.7513 73.5751 69.5469 73.0936 69.5469 72.5916V71.6451C69.5469 70.39 70.0578 69.1862 70.9673 68.2987C71.8768 67.4112 73.1104 66.9126 74.3967 66.9126H78.2765Z" fill="#0078CE"/>
</g>
<mask id="mask1_55358_765759" style="mask-type:luminance" maskUnits="userSpaceOnUse" x="76" y="56" width="19" height="18">
<path d="M94.2428 56.2808H76.3359V73.7544H94.2428V56.2808Z" fill="white"/>
</mask>
<g mask="url(#mask1_55358_765759)">
<path d="M82.3086 61.3776C82.3086 62.15 82.623 62.8908 83.1828 63.437C83.7425 63.9831 84.5016 64.2899 85.2931 64.2899C86.0846 64.2899 86.8438 63.9831 87.4035 63.437C87.9632 62.8908 88.2776 62.15 88.2776 61.3776C88.2776 60.6053 87.9632 59.8645 87.4035 59.3183C86.8438 58.7721 86.0846 58.4653 85.2931 58.4653C84.5016 58.4653 83.7425 58.7721 83.1828 59.3183C82.623 59.8645 82.3086 60.6053 82.3086 61.3776Z" stroke="#0078CE" stroke-width="1.49224" stroke-linecap="round" stroke-linejoin="round"/>
<path d="M80.8164 71.5706V70.1144C80.8164 69.3421 81.1308 68.6013 81.6905 68.0551C82.2502 67.509 83.0093 67.2021 83.8008 67.2021H86.7853C87.5769 67.2021 88.336 67.509 88.8957 68.0551C89.4554 68.6013 89.7698 69.3421 89.7698 70.1144V71.5706" stroke="#0078CE" stroke-width="1.49224" stroke-linecap="round" stroke-linejoin="round"/>
</g>
</g>
<defs>
<filter id="filter0_d_55358_765759" x="85.271" y="49.1477" width="74.997" height="73.7802" filterUnits="userSpaceOnUse" color-interpolation-filters="sRGB">
<feFlood flood-opacity="0" result="BackgroundImageFix"/>
<feColorMatrix in="SourceAlpha" type="matrix" values="0 0 0 0 0 0 0 0 0 0 0 0 0 0 0 0 0 0 127 0" result="hardAlpha"/>
<feOffset dy="5.3098"/>
<feGaussianBlur stdDeviation="5.3098"/>
<feColorMatrix type="matrix" values="0 0 0 0 0.0705882 0 0 0 0 0.105882 0 0 0 0 0.129412 0 0 0 0.1 0"/>
<feBlend mode="normal" in2="BackgroundImageFix" result="effect1_dropShadow_55358_765759"/>
<feBlend mode="normal" in="SourceGraphic" in2="effect1_dropShadow_55358_765759" result="shape"/>
</filter>
<clipPath id="clip0_55358_765759">
<rect width="196" height="121" fill="white"/>
</clipPath>
</defs>
</svg>
