<svg width="196" height="121" viewBox="0 0 196 121" fill="none" xmlns="http://www.w3.org/2000/svg">
<path d="M56.7354 27.0713H134.344C138.327 27.0713 141.557 30.3008 141.557 34.2842V46.5518H49.5225V34.2842C49.5225 30.3008 52.752 27.0713 56.7354 27.0713Z" fill="#BFDBEE"/>
<path d="M56.7354 27.0713H134.344C138.327 27.0713 141.557 30.3008 141.557 34.2842V46.5518H49.5225V34.2842C49.5225 30.3008 52.752 27.0713 56.7354 27.0713Z" stroke="#111B22" stroke-width="1.80313"/>
<path d="M58.71 34.7349H83.6152C84.9795 34.7349 86.0381 35.7693 86.0381 36.9888C86.0379 38.208 84.9794 39.2427 83.6152 39.2427H58.71C57.3458 39.2427 56.2873 38.208 56.2871 36.9888C56.2871 35.7693 57.3457 34.7349 58.71 34.7349Z" fill="#CFE4F1" stroke="#111B22" stroke-width="0.901563"/>
<path d="M113.536 33.8335C115.279 33.8336 116.691 35.2461 116.691 36.9888C116.691 38.7313 115.279 40.1439 113.536 40.144C111.793 40.144 110.381 38.7314 110.381 36.9888C110.381 35.2461 111.793 33.8335 113.536 33.8335Z" fill="#CFE4F1" stroke="#111B22" stroke-width="0.901563"/>
<path d="M122.552 33.8335C124.294 33.8336 125.707 35.2461 125.707 36.9888C125.707 38.7313 124.294 40.1439 122.552 40.144C120.809 40.144 119.397 38.7314 119.396 36.9888C119.396 35.2461 120.809 33.8335 122.552 33.8335Z" fill="#CFE4F1" stroke="#111B22" stroke-width="0.901563"/>
<path d="M131.567 33.8335C133.31 33.8336 134.723 35.2461 134.723 36.9888C134.723 38.7313 133.31 40.1439 131.567 40.144C129.825 40.144 128.412 38.7314 128.412 36.9888C128.412 35.2461 129.825 33.8335 131.567 33.8335Z" fill="#CFE4F1" stroke="#111B22" stroke-width="0.901563"/>
<path d="M141.415 36.3856C141.415 36.3856 138.861 38.7699 105.66 32.1291C87.356 28.4681 60.129 45.3064 55.0055 46.176C50.9822 46.8588 50.3903 46.9942 50.3217 47.0209L50.3232 47.0273C50.3232 47.0273 50.3029 47.0282 50.3217 47.0209L49.7047 44.473C49.0831 41.9061 49.1993 39.1113 49.3796 36.4763C49.5009 34.7031 49.6755 32.7151 50.4441 30.9811C51.0256 29.6694 52.2347 28.7462 53.6016 28.31C54.9623 27.8756 55.8666 27.9175 57.6061 27.5551C58.9995 27.2648 60.3712 27.0218 61.7945 27.0132C73.8133 26.9408 127.633 26.4368 135.559 27.3275C136.077 27.3856 136.548 27.5593 137.008 27.8035C141.366 30.1187 141.01 31.9294 141.415 36.3856Z" fill="#0078CE" fill-opacity="0.2"/>
<path d="M56.7354 107.847H134.344C138.327 107.847 141.557 104.618 141.557 100.634V54.314H49.5225V100.634C49.5225 104.618 52.752 107.847 56.7354 107.847Z" fill="white" stroke="#111B22" stroke-width="1.80313"/>
<g filter="url(#filter0_d_54246_1043222)">
<path d="M132.24 70.3594V98.7432H95.5605V70.3594H132.24Z" fill="#D2D2D2" stroke="#111B22" stroke-width="1.902"/>
<path d="M133 59.7368H94.8409C93.3561 59.7368 92.1523 60.9412 92.1523 62.4268V70.5952C92.1523 72.0809 93.3561 73.2852 94.8409 73.2852H133C134.485 73.2852 135.689 72.0809 135.689 70.5952V62.4268C135.689 60.9412 134.485 59.7368 133 59.7368Z" fill="white" stroke="#111B22" stroke-width="1.12362" stroke-linecap="round" stroke-linejoin="round"/>
<path d="M99.5635 65.1343C100.333 65.1343 100.957 65.7581 100.957 66.5288C100.957 67.2996 100.333 67.9243 99.5635 67.9243C98.7942 67.9243 98.1699 67.2996 98.1699 66.5288C98.17 65.7581 98.7943 65.1343 99.5635 65.1343Z" fill="#D2D2D2" stroke="#111B22" stroke-width="1.902"/>
<path d="M106.935 65.1343C107.704 65.1343 108.328 65.7581 108.328 66.5288C108.328 67.2996 107.704 67.9243 106.935 67.9243C106.165 67.9243 105.541 67.2996 105.541 66.5288C105.541 65.7581 106.165 65.1343 106.935 65.1343Z" fill="#D2D2D2" stroke="#111B22" stroke-width="1.902"/>
<path d="M114.294 65.1343C115.063 65.1343 115.687 65.7581 115.688 66.5288C115.688 67.2996 115.063 67.9243 114.294 67.9243C113.525 67.9243 112.9 67.2996 112.9 66.5288C112.9 65.7581 113.525 65.1343 114.294 65.1343Z" fill="#D2D2D2" stroke="#111B22" stroke-width="1.902"/>
<path d="M133 74.7529H94.8409C93.3561 74.7529 92.1523 75.9573 92.1523 77.4429V85.6113C92.1523 87.097 93.3561 88.3013 94.8409 88.3013H133C134.485 88.3013 135.689 87.097 135.689 85.6113V77.4429C135.689 75.9573 134.485 74.7529 133 74.7529Z" fill="white" stroke="#111B22" stroke-width="1.12362" stroke-linecap="round" stroke-linejoin="round"/>
<path d="M99.5635 80.1572C100.333 80.1572 100.957 80.781 100.957 81.5518C100.957 82.3226 100.333 82.9473 99.5635 82.9473C98.7942 82.9473 98.1699 82.3226 98.1699 81.5518C98.17 80.781 98.7942 80.1572 99.5635 80.1572Z" fill="#D2D2D2" stroke="#111B22" stroke-width="1.902"/>
<path d="M106.935 80.1572C107.704 80.1572 108.328 80.781 108.328 81.5518C108.328 82.3226 107.704 82.9473 106.935 82.9473C106.165 82.9473 105.541 82.3226 105.541 81.5518C105.541 80.781 106.165 80.1572 106.935 80.1572Z" fill="#D2D2D2" stroke="#111B22" stroke-width="1.902"/>
<path d="M114.294 80.1572C115.063 80.1572 115.687 80.781 115.688 81.5518C115.688 82.3226 115.063 82.9473 114.294 82.9473C113.525 82.9473 112.9 82.3226 112.9 81.5518C112.9 80.781 113.525 80.1572 114.294 80.1572Z" fill="#D2D2D2" stroke="#111B22" stroke-width="1.902"/>
<path d="M133 89.7764H94.8409C93.3561 89.7764 92.1523 90.9807 92.1523 92.4664V100.635C92.1523 102.12 93.3561 103.325 94.8409 103.325H133C134.485 103.325 135.689 102.12 135.689 100.635V92.4664C135.689 90.9807 134.485 89.7764 133 89.7764Z" fill="white" stroke="#111B22" stroke-width="1.12362" stroke-linecap="round" stroke-linejoin="round"/>
<path d="M99.5635 95.1733C100.333 95.1734 100.957 95.7971 100.957 96.5679C100.957 97.3387 100.333 97.9634 99.5635 97.9634C98.7942 97.9634 98.1699 97.3387 98.1699 96.5679C98.17 95.7971 98.7943 95.1733 99.5635 95.1733Z" fill="#D2D2D2" stroke="#111B22" stroke-width="1.902"/>
<path d="M106.935 95.1733C107.704 95.1734 108.328 95.7972 108.328 96.5679C108.328 97.3387 107.704 97.9634 106.935 97.9634C106.165 97.9634 105.541 97.3387 105.541 96.5679C105.541 95.7971 106.165 95.1733 106.935 95.1733Z" fill="#D2D2D2" stroke="#111B22" stroke-width="1.902"/>
<path d="M114.294 95.1733C115.063 95.1734 115.687 95.7972 115.688 96.5679C115.688 97.3387 115.063 97.9634 114.294 97.9634C113.525 97.9634 112.9 97.3387 112.9 96.5679C112.9 95.7971 113.525 95.1733 114.294 95.1733Z" fill="#D2D2D2" stroke="#111B22" stroke-width="1.902"/>
</g>
<g filter="url(#filter1_d_54246_1043222)">
<path d="M136.49 62.7773C134.28 62.7761 132.119 63.4399 130.28 64.6846C128.441 65.9294 127.008 67.6992 126.161 69.7703C125.314 71.8413 125.092 74.1205 125.523 76.3197C125.953 78.5188 127.017 80.539 128.58 82.1248C130.143 83.7106 132.134 84.7908 134.302 85.2286C136.47 85.6665 138.717 85.4424 140.76 84.5846C142.802 83.7269 144.548 82.2741 145.776 80.41C147.005 78.5459 147.66 76.3542 147.66 74.1121C147.66 71.107 146.484 68.2249 144.389 66.0994C142.295 63.9739 139.453 62.779 136.49 62.7773Z" fill="#ACD2EC" stroke="#111B22" stroke-width="1.82168" stroke-linecap="round" stroke-linejoin="round"/>
<path d="M144.754 81.564L148.477 85.3312" stroke="#111B22" stroke-width="1.82624" stroke-linecap="round" stroke-linejoin="round"/>
<path d="M147.559 85.3589L148.715 84.135C148.888 83.9515 149.175 83.9447 149.356 84.1192L159.392 93.8289C159.573 94.0035 159.579 94.2941 159.406 94.4775L158.25 95.7014C158.076 95.8849 157.79 95.8911 157.609 95.7165L147.572 86.0068C147.392 85.8322 147.385 85.5423 147.559 85.3589Z" fill="white" stroke="#111B22" stroke-width="1.82168"/>
</g>
<rect x="0.464696" y="0.605644" width="1.08277" height="6.29642" rx="0.541387" transform="matrix(-0.133477 0.991052 0.991821 0.127639 35.2151 26.5541)" stroke="#0078CE" stroke-width="1.08277"/>
<rect x="-0.622785" y="0.477848" width="1.10688" height="6.11161" rx="0.55344" transform="matrix(-0.991821 -0.127637 -0.133478 0.991052 54.3389 14.459)" stroke="#0078CE" stroke-width="1.10688"/>
<rect x="-0.100207" y="0.761337" width="1.09812" height="6.17961" rx="0.549059" transform="matrix(-0.799978 0.600029 0.617471 0.786594 41.8925 16.7255)" stroke="#0078CE" stroke-width="1.09812"/>
<path d="M84.8073 90.7556C84.8328 91.7133 84.5774 92.62 84.1177 93.399C83.8623 93.8587 83.5175 94.2801 83.1344 94.6249C82.2533 95.4422 81.0912 95.9402 79.8014 95.9785C77.937 96.0168 76.2897 95.0591 75.383 93.5905C74.8978 92.8371 74.6041 91.9305 74.5913 90.9727C74.553 89.3637 75.2681 87.9079 76.4174 86.9502C77.2858 86.235 78.384 85.7881 79.5844 85.7626C82.4065 85.6987 84.7434 87.9334 84.8073 90.7556Z" stroke="#111B22" stroke-width="1.70266" stroke-miterlimit="10" stroke-linecap="round" stroke-linejoin="round"/>
<path d="M77.7031 90.9084L78.9929 92.1342L81.6618 89.5547" stroke="#111B22" stroke-width="1.70266" stroke-linecap="round" stroke-linejoin="round"/>
<path d="M83.0321 79.5955V86.8233C83.0321 86.8872 83.0321 86.9382 83.0193 87.0021C82.1254 86.2231 80.9761 85.7634 79.6991 85.7634C78.4988 85.7634 77.3878 86.1848 76.5066 86.8872C75.3318 87.8194 74.5912 89.2624 74.5912 90.8714C74.5912 91.8291 74.8593 92.7358 75.3318 93.502C75.4467 93.7063 75.5872 93.8979 75.7404 94.0766L73.4036 95.3664C71.9478 96.1837 69.5726 96.1837 68.1168 95.3664L61.2976 91.5865C59.7525 90.7309 58.4883 88.5856 58.4883 86.8233V79.5955C58.4883 77.8333 59.7525 75.6879 61.2976 74.8323L68.1168 71.0524C69.5726 70.2351 71.9478 70.2351 73.4036 71.0524L80.2227 74.8323C81.7679 75.6879 83.0321 77.8333 83.0321 79.5955Z" fill="#ACD2EC" stroke="#111B22" stroke-width="1.70266" stroke-linecap="round" stroke-linejoin="round"/>
<path d="M59.4844 77.3862L70.7602 83.9117L81.9594 77.4245" stroke="#111B22" stroke-width="1.70266" stroke-linecap="round" stroke-linejoin="round"/>
<path d="M70.7617 95.4818V83.8994" stroke="#111B22" stroke-width="1.70266" stroke-linecap="round" stroke-linejoin="round"/>
<defs>
<filter id="filter0_d_54246_1043222" x="82.6009" y="54.6803" width="62.6381" height="62.6899" filterUnits="userSpaceOnUse" color-interpolation-filters="sRGB">
<feFlood flood-opacity="0" result="BackgroundImageFix"/>
<feColorMatrix in="SourceAlpha" type="matrix" values="0 0 0 0 0 0 0 0 0 0 0 0 0 0 0 0 0 0 127 0" result="hardAlpha"/>
<feOffset dy="4.49449"/>
<feGaussianBlur stdDeviation="4.49449"/>
<feColorMatrix type="matrix" values="0 0 0 0 0.0705882 0 0 0 0 0.105882 0 0 0 0 0.129412 0 0 0 0.1 0"/>
<feBlend mode="normal" in2="BackgroundImageFix" result="effect1_dropShadow_54246_1043222"/>
<feBlend mode="normal" in="SourceGraphic" in2="effect1_dropShadow_54246_1043222" result="shape"/>
</filter>
<filter id="filter1_d_54246_1043222" x="112.915" y="56.1248" width="59.0065" height="57.8605" filterUnits="userSpaceOnUse" color-interpolation-filters="sRGB">
<feFlood flood-opacity="0" result="BackgroundImageFix"/>
<feColorMatrix in="SourceAlpha" type="matrix" values="0 0 0 0 0 0 0 0 0 0 0 0 0 0 0 0 0 0 127 0" result="hardAlpha"/>
<feOffset dy="5.74186"/>
<feGaussianBlur stdDeviation="5.74186"/>
<feColorMatrix type="matrix" values="0 0 0 0 0.0705882 0 0 0 0 0.105882 0 0 0 0 0.129412 0 0 0 0.1 0"/>
<feBlend mode="normal" in2="BackgroundImageFix" result="effect1_dropShadow_54246_1043222"/>
<feBlend mode="normal" in="SourceGraphic" in2="effect1_dropShadow_54246_1043222" result="shape"/>
</filter>
</defs>
</svg>
