<svg width="196" height="121" viewBox="0 0 196 121" fill="none" xmlns="http://www.w3.org/2000/svg">
<g clip-path="url(#clip0_50757_976805)">
<path d="M50.9385 45.9995C50.9385 43.2589 52.0272 40.6305 53.9651 38.6926C55.903 36.7547 58.5313 35.666 61.272 35.666H133.606C136.347 35.666 138.975 36.7547 140.913 38.6926C142.851 40.6305 143.94 43.2589 143.94 45.9995V92.5001C143.94 95.2407 142.851 97.8691 140.913 99.807C138.975 101.745 136.347 102.834 133.606 102.834H61.272C58.5313 102.834 55.903 101.745 53.9651 99.807C52.0272 97.8691 50.9385 95.2407 50.9385 92.5001V45.9995Z" fill="#BFDBEE" stroke="#17222B" stroke-width="1.32222" stroke-linecap="round" stroke-linejoin="round"/>
<path d="M76.7725 35.6669V25.3335C76.7725 22.5929 77.8612 19.9645 79.7991 18.0266C81.737 16.0887 84.3653 15 87.1059 15H107.773C110.513 15 113.142 16.0887 115.08 18.0266C117.018 19.9645 118.106 22.5929 118.106 25.3335V35.6669" stroke="#111B22" stroke-width="1.32222" stroke-linecap="round" stroke-linejoin="round"/>
<path d="M97.4404 61.5V61.5512" stroke="black" stroke-width="10.3335" stroke-linecap="round" stroke-linejoin="round"/>
<path d="M50.9385 66.6641C65.3618 73.932 81.288 77.7179 97.4391 77.7179C113.59 77.7179 129.516 73.932 143.94 66.6641" stroke="#17222B" stroke-width="1.14212" stroke-linecap="round" stroke-linejoin="round"/>
<rect x="0.920408" y="0.817225" width="1.74769" height="10.0796" rx="0.873844" transform="matrix(0.998572 -0.0627659 0.0547145 0.997974 59.7891 15.6102)" fill="#999999" stroke="#0078CE" stroke-width="1.74769"/>
<rect x="0.837246" y="-0.940926" width="1.77409" height="9.87716" rx="0.887046" transform="matrix(-0.054713 -0.997974 0.998572 -0.0627676 40.016 46.357)" fill="#999999" stroke="#0078CE" stroke-width="1.77409"/>
<rect x="1.23668" y="-0.0752108" width="1.76447" height="9.95151" rx="0.882236" transform="matrix(0.660495 -0.753475 0.741258 0.668225 43.3745 26.9205)" fill="#999999" stroke="#0078CE" stroke-width="1.76447"/>
<g filter="url(#filter0_d_50757_976805)">
<path d="M112.595 83.4604C112.595 86.3948 113.169 89.3004 114.285 92.0115C115.401 94.7225 117.036 97.1858 119.098 99.2607C121.159 101.336 123.607 102.982 126.301 104.105C128.995 105.228 131.882 105.805 134.797 105.805C137.713 105.805 140.6 105.228 143.294 104.105C145.988 102.982 148.435 101.336 150.497 99.2607C152.559 97.1858 154.194 94.7225 155.31 92.0115C156.426 89.3004 157 86.3948 157 83.4604C157 77.5341 154.661 71.8505 150.497 67.66C146.333 63.4694 140.686 61.1152 134.797 61.1152C128.909 61.1152 123.262 63.4694 119.098 67.66C114.934 71.8505 112.595 77.5341 112.595 83.4604Z" fill="#CFE4F1" stroke="#111B22" stroke-width="1.32222" stroke-linecap="round" stroke-linejoin="round"/>
<path d="M127.397 83.6764L132.051 88.3606L141.376 78.9922" fill="#CFE4F1"/>
<path d="M127.397 83.6764L132.051 88.3606L141.376 78.9922" stroke="#0078CE" stroke-width="3.94347" stroke-linecap="round" stroke-linejoin="round"/>
</g>
<path d="M83.3046 44.9631C92.0948 47.8075 120.043 38.9942 129.657 47.1974C139.27 55.4005 142.51 47.1651 142.51 47.1651L142.532 39.7212L140.702 37.767L138.41 36.5974L133.362 36.2183L129.688 36.6193L129.223 38.9712L128.754 42.4984L125.996 43.6806L123.702 43.2946L122.332 40.9474L122.345 36.6378L121.425 36.6401L73.2297 36.7612L73.2216 39.5037L72.7545 42.2473L70.4548 43.8202L68.161 43.4342L66.3307 41.4799L66.3445 36.7785L57.6245 36.8004L55.9378 37.6892C54.0742 39.0292 53.4078 40.4128 53.021 41.6998C52.3268 44.0101 51.9206 46.5948 52.2956 48.9778C52.2956 48.9778 51.565 50.9074 57.1873 50.858C62.8096 50.8086 73.4561 42.7841 83.3046 44.9631Z" fill="#0078CE" fill-opacity="0.2"/>
</g>
<defs>
<filter id="filter0_d_50757_976805" x="96.1597" y="52.5681" width="77.2753" height="77.5595" filterUnits="userSpaceOnUse" color-interpolation-filters="sRGB">
<feFlood flood-opacity="0" result="BackgroundImageFix"/>
<feColorMatrix in="SourceAlpha" type="matrix" values="0 0 0 0 0 0 0 0 0 0 0 0 0 0 0 0 0 0 127 0" result="hardAlpha"/>
<feOffset dy="7.88694"/>
<feGaussianBlur stdDeviation="7.88694"/>
<feColorMatrix type="matrix" values="0 0 0 0 0.0705882 0 0 0 0 0.105882 0 0 0 0 0.129412 0 0 0 0.1 0"/>
<feBlend mode="normal" in2="BackgroundImageFix" result="effect1_dropShadow_50757_976805"/>
<feBlend mode="normal" in="SourceGraphic" in2="effect1_dropShadow_50757_976805" result="shape"/>
</filter>
<clipPath id="clip0_50757_976805">
<rect width="196" height="121" fill="white"/>
</clipPath>
</defs>
</svg>
