<svg width="196" height="121" viewBox="0 0 196 121" fill="none" xmlns="http://www.w3.org/2000/svg">
<path d="M166 36.7676L130.782 64.4594H101.435" stroke="black" stroke-width="2.64131" stroke-linecap="round" stroke-linejoin="round"/>
<path d="M166 57.5391L130.782 85.2309H101.435" stroke="black" stroke-width="2.64131" stroke-linecap="round" stroke-linejoin="round"/>
<path d="M166 78.3066L130.782 105.998H101.435" stroke="black" stroke-width="2.64131" stroke-linecap="round" stroke-linejoin="round"/>
<path d="M101.41 105.998H60.3228V43.6918C60.3228 42.6171 60.5349 41.5571 60.9424 40.5958C61.3499 39.6345 61.9416 38.7983 62.6706 38.1534L89.6706 16H130.758L103.758 38.1534C103.029 38.7983 102.437 39.6345 102.029 40.5958C101.622 41.5571 101.41 42.6171 101.41 43.6918V105.998Z" fill="#ACD2EC" stroke="black" stroke-width="2.64131" stroke-linecap="round" stroke-linejoin="round"/>
<path d="M60.3479 64.4609H31" stroke="black" stroke-width="2.64131" stroke-linecap="round" stroke-linejoin="round"/>
<path d="M60.3479 85.2324H31" stroke="black" stroke-width="2.64131" stroke-linecap="round" stroke-linejoin="round"/>
<path d="M60.3479 105.998H31" stroke="black" stroke-width="2.64131" stroke-linecap="round" stroke-linejoin="round"/>
<path d="M130.782 16H166L130.782 43.6918H101.435" fill="#ACD2EC"/>
<path d="M130.782 16H166L130.782 43.6918H101.435" stroke="black" stroke-width="2.64131" stroke-linecap="round" stroke-linejoin="round"/>
<path d="M60.3479 43.6918H31L66.2174 16H89.6957" fill="#ACD2EC"/>
<path d="M60.3479 43.6918H31L66.2174 16H89.6957" stroke="black" stroke-width="2.64131" stroke-linecap="round" stroke-linejoin="round"/>
<path d="M81.3086 85.1406V91.6309" stroke="black" stroke-width="2.64131" stroke-linecap="round" stroke-linejoin="round"/>
<path d="M81.3086 52.6914V59.1817" stroke="black" stroke-width="2.64131" stroke-linecap="round" stroke-linejoin="round"/>
<path d="M70.3032 85.1427H86.8114C88.2708 85.1427 89.6704 84.4589 90.7024 83.2418C91.7344 82.0246 92.3141 80.3738 92.3141 78.6524C92.3141 76.9311 91.7344 75.2803 90.7024 74.0631C89.6704 72.846 88.2708 72.1622 86.8114 72.1622H75.8059C74.3465 72.1622 72.9469 71.4784 71.9149 70.2612C70.883 69.0441 70.3032 67.3932 70.3032 65.6719C70.3032 63.9506 70.883 62.2998 71.9149 61.0826C72.9469 59.8654 74.3465 59.1816 75.8059 59.1816H92.3141" stroke="black" stroke-width="2.64131" stroke-linecap="round" stroke-linejoin="round"/>
</svg>
