<svg width="196" height="121" viewBox="0 0 196 121" fill="none" xmlns="http://www.w3.org/2000/svg">
<path d="M98.0002 104.895C120.586 104.895 138.895 86.5857 138.895 64.0002C138.895 41.4146 120.586 23.1055 98.0002 23.1055C75.4146 23.1055 57.1055 41.4146 57.1055 64.0002C57.1055 86.5857 75.4146 104.895 98.0002 104.895Z" fill="#BFDBEE" stroke="#111B22" stroke-width="2.21053"/>
<mask id="mask0_56009_734428" style="mask-type:luminance" maskUnits="userSpaceOnUse" x="71" y="40" width="54" height="53">
<path d="M124.308 40.0195H71.6826V92.6447H124.308V40.0195Z" fill="white"/>
</mask>
<g mask="url(#mask0_56009_734428)">
<path d="M80.46 50.9876C80.46 50.406 80.691 49.8483 81.1022 49.4371C81.5134 49.0259 82.0712 48.7949 82.6527 48.7949H91.4236C92.0051 48.7949 92.5628 49.0259 92.9741 49.4371C93.3853 49.8483 93.6163 50.406 93.6163 50.9876V59.7585C93.6163 60.34 93.3853 60.8977 92.9741 61.3089C92.5628 61.7202 92.0051 61.9512 91.4236 61.9512H82.6527C82.0712 61.9512 81.5134 61.7202 81.1022 61.3089C80.691 60.8977 80.46 60.34 80.46 59.7585V50.9876Z" stroke="#111B22" stroke-width="3.12184" stroke-linecap="round" stroke-linejoin="round"/>
<path d="M102.386 72.9134C102.386 72.3318 102.617 71.7741 103.029 71.3629C103.44 70.9517 103.998 70.7207 104.579 70.7207H113.35C113.932 70.7207 114.489 70.9517 114.901 71.3629C115.312 71.7741 115.543 72.3318 115.543 72.9134V81.6843C115.543 82.2658 115.312 82.8235 114.901 83.2347C114.489 83.646 113.932 83.877 113.35 83.877H104.579C103.998 83.877 103.44 83.646 103.029 83.2347C102.617 82.8235 102.386 82.2658 102.386 81.6843V72.9134Z" stroke="#111B22" stroke-width="3.12184" stroke-linecap="round" stroke-linejoin="round"/>
<path d="M80.46 72.9134C80.46 72.3318 80.691 71.7741 81.1022 71.3629C81.5134 70.9517 82.0712 70.7207 82.6527 70.7207H91.4236C92.0051 70.7207 92.5628 70.9517 92.9741 71.3629C93.3853 71.7741 93.6163 72.3318 93.6163 72.9134V81.6843C93.6163 82.2658 93.3853 82.8235 92.9741 83.2347C92.5628 83.646 92.0051 83.877 91.4236 83.877H82.6527C82.0712 83.877 81.5134 83.646 81.1022 83.2347C80.691 82.8235 80.46 82.2658 80.46 81.6843V72.9134Z" stroke="#111B22" stroke-width="3.12184" stroke-linecap="round" stroke-linejoin="round"/>
<path d="M102.386 55.3721H115.543" stroke="#111B22" stroke-width="3.12184" stroke-linecap="round" stroke-linejoin="round"/>
<path d="M108.96 48.7949V61.9512" stroke="#111B22" stroke-width="3.12184" stroke-linecap="round" stroke-linejoin="round"/>
</g>
<path d="M75.2951 66.9C73.8039 53.0018 75.2939 30.252 75.2939 30.252C71.8189 31.5914 63.3841 40.9481 60.1002 47.0435C58.854 49.3566 57.8001 52.1062 57.5579 54.737C57.1313 59.3714 58.0322 66.7175 58.5018 71.311C58.725 73.494 59.1517 75.6731 60.1638 77.6431C61.5811 80.4017 63.5776 83.8231 65.0243 86.4228C65.7854 87.7905 66.7153 89.0623 67.7924 90.207C70.4175 92.997 73.9653 96.9594 76.1217 98.8069C76.8883 99.4636 77.8351 99.8363 78.8047 100.109L88.5465 102.849L105.346 104.599C105.346 104.599 113.433 104.053 116.196 99.6988C118.96 95.3442 76.7862 80.7983 75.2951 66.9Z" fill="#0078CE" fill-opacity="0.2"/>
<g filter="url(#filter0_d_56009_734428)">
<path d="M129.363 14.9717C138.954 14.9719 146.71 22.6855 146.71 32.1777C146.71 41.6702 138.954 49.3846 129.363 49.3848C119.772 49.3848 112.016 41.6703 112.016 32.1777C112.016 22.6854 119.772 14.9717 129.363 14.9717Z" fill="#BFDBEE" stroke="#0078CE" stroke-width="2.92168"/>
<path d="M135.163 27.2832L129.961 32.4461L135.163 37.609L134.467 38.3003L129.265 33.1375L124.063 38.3003L123.366 37.609L128.568 32.4461L123.366 27.2832L124.063 26.5918L129.265 31.7547L134.467 26.5918L135.163 27.2832Z" fill="#BFDBEE" stroke="#0078CE" stroke-width="1.46084"/>
</g>
<path d="M161.514 35.5228C161.853 35.4506 162.186 35.6677 162.256 36.0076C162.326 36.3475 162.108 36.6816 161.768 36.7538L155.848 38.0125C155.509 38.0847 155.177 37.8677 155.107 37.5277C155.036 37.1878 155.255 36.8538 155.594 36.7816L161.514 35.5228Z" fill="#999999" stroke="#0078CE" stroke-width="1.2569"/>
<path d="M147.187 56.3126C147.259 56.6601 147.036 57.0016 146.689 57.0754C146.342 57.1492 146.002 56.9273 145.931 56.5798L144.756 50.8903C144.684 50.5428 144.907 50.2013 145.254 50.1275C145.601 50.0537 145.941 50.2756 146.013 50.623L147.187 56.3126Z" fill="#999999" stroke="#0078CE" stroke-width="1.28488"/>
<path d="M159.005 48.5549C159.301 48.7442 159.383 49.1348 159.187 49.4273C158.992 49.7199 158.592 49.8036 158.296 49.6143L153.322 46.4423C153.026 46.253 152.944 45.8624 153.14 45.5698C153.335 45.2773 153.735 45.1936 154.031 45.3829L159.005 48.5549Z" fill="#999999" stroke="#0078CE" stroke-width="1.27471"/>
<defs>
<filter id="filter0_d_56009_734428" x="96.9061" y="6.68646" width="64.9133" height="64.6321" filterUnits="userSpaceOnUse" color-interpolation-filters="sRGB">
<feFlood flood-opacity="0" result="BackgroundImageFix"/>
<feColorMatrix in="SourceAlpha" type="matrix" values="0 0 0 0 0 0 0 0 0 0 0 0 0 0 0 0 0 0 127 0" result="hardAlpha"/>
<feOffset dy="6.82428"/>
<feGaussianBlur stdDeviation="6.82428"/>
<feColorMatrix type="matrix" values="0 0 0 0 0.0705882 0 0 0 0 0.105882 0 0 0 0 0.129412 0 0 0 0.1 0"/>
<feBlend mode="normal" in2="BackgroundImageFix" result="effect1_dropShadow_56009_734428"/>
<feBlend mode="normal" in="SourceGraphic" in2="effect1_dropShadow_56009_734428" result="shape"/>
</filter>
</defs>
</svg>
