<svg width="196" height="121" viewBox="0 0 196 121" fill="none" xmlns="http://www.w3.org/2000/svg">
<path d="M87.6294 87.2017H56.5C59.3273 85.6006 61.7391 83.3582 63.5414 80.6547C65.3437 77.9513 66.486 74.8625 66.8765 71.637V56.0723C67.1855 49.4888 69.2802 43.1135 72.9361 37.6297C76.5919 32.1458 81.6712 27.7602 87.6294 24.9429C87.6294 22.1909 88.7226 19.5516 90.6686 17.6056C92.6146 15.6596 95.2538 14.5664 98.0059 14.5664C100.758 14.5664 103.397 15.6596 105.343 17.6056C107.289 19.5516 108.382 22.1909 108.382 24.9429C114.341 27.7602 119.42 32.1458 123.076 37.6297C126.732 43.1135 128.826 49.4888 129.135 56.0723" stroke="black" stroke-width="2.05" stroke-linecap="round" stroke-linejoin="round"/>
<path d="M82.4414 87.2031V92.3914C82.4414 99.6964 87.474 105.829 94.2706 107.505" stroke="black" stroke-width="2.05" stroke-linecap="round" stroke-linejoin="round"/>
<path d="M102.532 87.8759C102.532 90.1175 102.974 92.3371 103.832 94.4081C104.689 96.479 105.947 98.3607 107.532 99.9457C109.117 101.531 110.998 102.788 113.069 103.646C115.14 104.504 117.36 104.945 119.602 104.945C121.843 104.945 124.063 104.504 126.134 103.646C128.205 102.788 130.086 101.531 131.671 99.9457C133.256 98.3607 134.514 96.479 135.371 94.4081C136.229 92.3371 136.671 90.1175 136.671 87.8759C136.671 85.6344 136.229 83.4147 135.371 81.3438C134.514 79.2729 133.256 77.3911 131.671 75.8061C130.086 74.2211 128.205 72.9638 126.134 72.106C124.063 71.2482 121.843 70.8066 119.602 70.8066C117.36 70.8066 115.14 71.2482 113.069 72.106C110.998 72.9638 109.117 74.2211 107.532 75.8061C105.947 77.3911 104.689 79.2729 103.832 81.3438C102.974 83.4147 102.532 85.6344 102.532 87.8759Z" fill="#BFDBEE" stroke="#0078CE" stroke-width="2.05" stroke-linecap="round" stroke-linejoin="round"/>
<path d="M119.879 83.7695V91.0849H124.756" stroke="#0078CE" stroke-width="2.05" stroke-linecap="round" stroke-linejoin="round"/>
<path d="M107.409 65.9277L100.704 70.8047" stroke="#0078CE" stroke-width="2.05" stroke-linecap="round" stroke-linejoin="round"/>
<path d="M131.794 65.9277L138.5 70.8047" stroke="#0078CE" stroke-width="2.05" stroke-linecap="round" stroke-linejoin="round"/>
<path d="M74.2671 24.498C81.2401 24.4982 86.8745 30.0922 86.8745 36.9697C86.8743 43.8471 81.24 49.4403 74.2671 49.4404C67.294 49.4404 61.6589 43.8472 61.6587 36.9697C61.6587 30.0921 67.2939 24.498 74.2671 24.498Z" fill="#BFDBEE" stroke="#0078CE" stroke-width="2.11761"/>
<path d="M78.4868 33.419L74.7072 37.1607L78.4868 40.9024L77.9787 41.4053L74.1992 37.6636L70.4197 41.4053L69.9117 40.9024L73.6912 37.1607L69.9117 33.419L70.4197 32.9161L74.1992 36.6578L77.9787 32.9161L78.4868 33.419Z" fill="#BFDBEE" stroke="#0078CE" stroke-width="1.05881"/>
</svg>
