<svg width="196" height="121" viewBox="0 0 196 121" fill="none" xmlns="http://www.w3.org/2000/svg">
<path d="M121.544 54.1973H74.4458C66.2524 54.1973 59.6104 60.8393 59.6104 69.0327V71.0232C66.9307 71.0232 68.225 82.6719 73.4024 85.2605C80.3056 82.6719 80.3056 71.0232 85.9145 71.0232C91.9548 74.0432 91.9548 83.5347 98.4266 85.2605C104.467 82.2404 102.741 73.1803 109.644 71.0232C116.116 71.886 116.548 83.1033 121.725 85.2605C129.06 81.3776 128.197 69.7289 136.38 71.0232V69.0327C136.38 60.8393 129.738 54.1973 121.544 54.1973Z" fill="#ACD2EC"/>
<path d="M64.7694 55.9441C69.7561 53.0857 76.2868 52.956 82.0275 53.3555L113.955 54.65C113.955 54.65 82.8904 57.67 82.8904 71.4759C76.85 85.2817 74.2613 84.4187 74.2613 84.4187C64.7694 85.2817 70.8097 67.593 57.4346 69.8482C59.9681 64.7059 59.7827 58.8025 64.7694 55.9441Z" fill="#99C7E7"/>
<path d="M58.3594 106.073V66.1539C58.3594 58.7911 65.0023 52.8477 73.2056 52.8477H122.737C130.941 52.8477 137.583 58.7911 137.583 66.1539V106.073" fill="#ACD2EC"/>
<path d="M136.507 106.072V66.1543C136.507 59.4939 130.46 53.9238 122.737 53.9238H73.2051C65.4815 53.9238 59.4346 59.4939 59.4346 66.1543V106.072C59.4346 106.666 58.9525 107.148 58.3584 107.148C57.7643 107.148 57.2822 106.666 57.2822 106.072V66.1543C57.2822 58.0891 64.522 51.7715 73.2051 51.7715H122.737C131.42 51.7715 138.66 58.0891 138.66 66.1543V106.072C138.66 106.666 138.178 107.148 137.583 107.148C136.989 107.148 136.507 106.666 136.507 106.072Z" fill="#111B22"/>
<path d="M79.0879 30.6299V21.7598C79.0879 21.1657 79.5699 20.6836 80.1641 20.6836C80.7582 20.6836 81.2402 21.1657 81.2402 21.7598V30.6299C81.2402 31.224 80.7582 31.7061 80.1641 31.7061C79.5699 31.7061 79.0879 31.224 79.0879 30.6299Z" fill="#111B22"/>
<path d="M114.753 30.6299V21.7598C114.753 21.1657 115.235 20.6836 115.83 20.6836C116.424 20.6836 116.906 21.1657 116.906 21.7598V30.6299C116.906 31.224 116.424 31.7061 115.83 31.7061C115.235 31.7061 114.753 31.224 114.753 30.6299Z" fill="#111B22"/>
<path d="M96.9229 30.5947V17.2891C96.9229 16.6949 97.4049 16.2129 97.999 16.2129C98.5931 16.2129 99.0752 16.6949 99.0752 17.2891V30.5947C99.0751 31.1888 98.5931 31.6699 97.999 31.6699C97.405 31.6699 96.923 31.1888 96.9229 30.5947Z" fill="#111B22"/>
<path d="M142.587 104.965C143.181 104.965 143.663 105.447 143.663 106.041C143.663 106.635 143.181 107.117 142.587 107.117H53.4199C52.8258 107.117 52.3438 106.635 52.3438 106.041C52.3438 105.447 52.8258 104.965 53.4199 104.965H142.587Z" fill="#324552"/>
<path d="M125.63 52.7686V40.2168C125.63 35.5974 121.412 31.668 115.961 31.668H80.0713C74.573 31.668 70.3584 35.6002 70.3584 40.2168V52.7686C70.3584 53.3627 69.8763 53.8447 69.2822 53.8447C68.6881 53.8447 68.2061 53.3627 68.2061 52.7686V40.2168C68.2061 34.1885 73.6213 29.5157 80.0713 29.5156H115.961C122.369 29.5156 127.781 34.1912 127.781 40.2168V52.7686C127.781 53.3627 127.299 53.8447 126.705 53.8447C126.111 53.8445 125.63 53.3625 125.63 52.7686Z" fill="#111B22"/>
<path d="M114.891 77.976V76.601C114.891 73.8789 112.663 71.6889 109.947 71.6889C107.198 71.6891 105.005 73.9131 105.005 76.601V77.976C105.005 81.9069 101.793 85.0395 97.9096 85.0395C93.9718 85.0394 90.815 81.8522 90.8148 77.976V76.601C90.8148 73.879 88.5878 71.689 85.8725 71.6889C83.1228 71.6889 80.9291 73.9129 80.9291 76.601V77.976C80.929 81.9069 77.7171 85.0395 73.8344 85.0395C69.8967 85.0393 66.7407 81.8522 66.7406 77.976V76.5121C66.7406 73.8215 64.5853 71.6365 61.8715 71.6C61.8669 71.5999 61.8624 71.6001 61.8578 71.6L60.2074 71.5551C59.6137 71.5389 59.1456 71.0444 59.1615 70.4506C59.1777 69.8569 59.6722 69.3887 60.266 69.4047L61.9154 69.4486L61.9144 69.4496C65.7925 69.509 68.892 72.6429 68.892 76.5121V77.976C68.8921 80.6638 71.0849 82.888 73.8344 82.8881C76.5498 82.8881 78.7776 80.6979 78.7777 77.976V76.601C78.7777 72.7246 81.9346 69.5375 85.8725 69.5375C89.7551 69.5377 92.9662 72.67 92.9662 76.601V77.976C92.9663 80.6639 95.16 82.8881 97.9096 82.8881C100.625 82.8881 102.853 80.6979 102.853 77.976V76.601C102.853 72.7248 106.01 69.5378 109.947 69.5375C113.83 69.5375 117.042 72.6699 117.042 76.601V77.976C117.042 80.6639 119.236 82.8881 121.985 82.8881C124.701 82.888 126.928 80.6979 126.929 77.976V76.601C126.929 72.7247 130.085 69.5376 134.022 69.5375H136.029C136.623 69.5377 137.104 70.0188 137.104 70.6127C137.104 71.2067 136.623 71.6887 136.029 71.6889H134.022C131.273 71.689 129.08 73.913 129.08 76.601V77.976C129.08 81.9069 125.868 85.0394 121.985 85.0395C118.048 85.0395 114.891 81.8522 114.891 77.976Z" fill="#111B22"/>
<path d="M59.2754 105.65V75.236C62.2806 74.5748 62.5297 75.7651 65.517 83.1696C68.9846 91.7645 79.3873 89.1193 81.4678 84.491C83.4696 80.038 133.752 111.445 135.704 97.3407V95.4591C135.783 96.1601 135.781 96.7856 135.704 97.3407V105.65H59.2754Z" fill="#99C7E7"/>
<path d="M56.6902 39.4211C56.0085 39.7367 55.7066 40.5501 56.016 41.2379C56.3254 41.9257 57.1288 42.2274 57.8105 41.9118L63.5988 39.2321C64.2805 38.9165 64.5823 38.1031 64.273 37.4153C63.9636 36.7275 63.1602 36.4258 62.4785 36.7413L56.6902 39.4211Z" fill="#999999"/>
<path d="M63.5982 39.2322C64.2798 38.9166 64.5821 38.1034 64.273 37.4156L64.2094 37.2909C63.8637 36.6921 63.1171 36.4455 62.478 36.7414L56.6903 39.4208C56.0086 39.7364 55.7066 40.5504 56.016 41.2382C56.3255 41.9258 57.129 42.2271 57.8106 41.9116L63.5982 39.2322Z" fill="#0078CE"/>
<path d="M69.1927 15.084C68.8823 14.3939 68.0761 14.0911 67.3921 14.4078C66.7081 14.7244 66.4052 15.5406 66.7156 16.2308L69.3258 22.034C69.6362 22.7242 70.4424 23.027 71.1264 22.7103C71.8104 22.3936 72.1133 21.5774 71.8029 20.8873L69.1927 15.084Z" fill="#999999"/>
<path d="M69.3258 22.0345L69.3894 22.1592C69.7363 22.7599 70.4855 23.007 71.1267 22.7102C71.7677 22.4133 72.074 21.6775 71.8541 21.0182L71.8029 20.8877L69.1925 15.0838C68.882 14.394 68.0762 14.0913 67.3925 14.4077C66.7086 14.7243 66.4052 15.5405 66.7154 16.2306L69.3258 22.0345Z" fill="#0078CE"/>
<path d="M57.6728 24.9753C56.973 24.7139 56.191 25.0777 55.9261 25.788C55.6611 26.4983 56.0136 27.286 56.7134 27.5474L62.6585 29.7685C63.3582 30.03 64.1402 29.6661 64.4052 28.9558C64.6701 28.2455 64.3176 27.4578 63.6179 27.1964L57.6728 24.9753Z" fill="#999999"/>
<path d="M62.6586 29.769L62.7903 29.8098C63.4538 29.9828 64.1569 29.6215 64.4053 28.9556L64.4477 28.8223C64.6132 28.1942 64.3183 27.5354 63.7447 27.2512L63.6181 27.1965L57.6724 24.9752C56.9728 24.714 56.1911 25.0777 55.9261 25.7877C55.6612 26.4979 56.0133 27.2861 56.7128 27.5477L62.6586 29.769Z" fill="#0078CE"/>
</svg>
