<svg width="196" height="121" viewBox="0 0 196 121" fill="none" xmlns="http://www.w3.org/2000/svg">
<path d="M51.3597 25.986C50.8644 25.9225 50.4086 26.2723 50.3417 26.7671C50.2747 27.262 50.622 27.7146 51.1173 27.7781L55.4616 28.3347C55.9569 28.3981 56.4127 28.0484 56.4797 27.5536C56.5466 27.0587 56.1993 26.6061 55.704 26.5426L51.3597 25.986Z" fill="#0078CE"/>
<path d="M55.4614 28.3349L55.5543 28.3415C56.0126 28.3534 56.4173 28.0171 56.4801 27.5533L56.4872 27.4614C56.5024 27.0037 56.1682 26.6021 55.7038 26.5426L51.3594 25.986C50.8643 25.9227 50.4088 26.2722 50.3417 26.7668C50.2748 27.2616 50.6218 27.7146 51.117 27.7782L55.4614 28.3349Z" fill="#0078CE"/>
<path d="M67.2994 16.811C67.3681 16.3029 67.0116 15.8383 66.5031 15.7731C65.9946 15.708 65.5267 16.067 65.458 16.575L64.8988 20.7089C64.8301 21.2169 65.1866 21.6815 65.6951 21.7467C66.2035 21.8118 66.6715 21.4528 66.7402 20.9448L67.2994 16.811Z" fill="#0078CE"/>
<path d="M64.8984 20.7088L64.8909 20.8033C64.8752 21.2732 65.2182 21.6856 65.6948 21.7468L65.7895 21.7536C66.2603 21.7662 66.6757 21.4212 66.7402 20.9448L67.2994 16.8111C67.3681 16.3031 67.0114 15.8383 66.5029 15.7731C65.9945 15.7081 65.5263 16.0672 65.4576 16.5752L64.8984 20.7088Z" fill="#0078CE"/>
<path d="M57.1142 18.2572C56.7998 17.8584 56.2151 17.7815 55.8082 18.0853C55.4013 18.3892 55.3263 18.9588 55.6407 19.3576L58.2709 22.6935C58.5854 23.0923 59.1701 23.1692 59.577 22.8654C59.9839 22.5615 60.0588 21.9919 59.7444 21.5931L57.1142 18.2572Z" fill="#0078CE"/>
<path d="M58.2705 22.6933L58.3333 22.7646C58.6581 23.1002 59.1954 23.15 59.5767 22.8653L59.6492 22.8057C59.9918 22.4913 60.039 21.9668 59.7442 21.5928L57.1143 18.2573C56.7999 17.8585 56.215 17.7816 55.8081 18.0854C55.4013 18.3893 55.3262 18.9591 55.6406 19.3579L58.2705 22.6933Z" fill="#0078CE"/>
<path d="M65.2227 25.7461H129.524C132.825 25.7462 135.5 28.4215 135.5 31.7217V41.8857H59.2471V31.7217C59.2471 28.4214 61.9224 25.7461 65.2227 25.7461Z" fill="#BFDBEE"/>
<path d="M65.2227 25.7461H129.524C132.825 25.7462 135.5 28.4215 135.5 31.7217V41.8857H59.2471V31.7217C59.2471 28.4214 61.9224 25.7461 65.2227 25.7461Z" stroke="#111B22" stroke-width="1.49394"/>
<path d="M87.4903 35.4564V36.2033H66.8557V35.4564H87.4903ZM89.1244 33.9625C89.1244 33.1795 88.436 32.4686 87.4903 32.4686H66.8557C65.91 32.4686 65.2216 33.1795 65.2215 33.9625C65.2215 34.7456 65.9099 35.4564 66.8557 35.4564V36.2033L66.612 36.1919C65.4114 36.0771 64.4746 35.1227 64.4746 33.9625C64.4747 32.8023 65.4115 31.8479 66.612 31.7331L66.8557 31.7217H87.4903C88.8052 31.7217 89.8713 32.7249 89.8713 33.9625C89.8713 35.2001 88.8052 36.2033 87.4903 36.2033V35.4564C88.436 35.4564 89.1244 34.7456 89.1244 33.9625Z" fill="#111B22"/>
<path d="M92.8609 36.9504C94.5111 36.9504 95.8488 35.6127 95.8488 33.9625C95.8488 32.3123 94.5111 30.9746 92.8609 30.9746C91.2108 30.9746 89.873 32.3123 89.873 33.9625C89.873 35.6127 91.2108 36.9504 92.8609 36.9504Z" fill="#CFE4F1"/>
<path d="M102.57 33.9624C102.57 32.7248 101.567 31.7215 100.33 31.7215C99.092 31.7216 98.0888 32.7248 98.0887 33.9624C98.0887 35.1999 99.092 36.2031 100.33 36.2032V36.9501C98.6794 36.95 97.3418 35.6125 97.3418 33.9624C97.3419 32.3123 98.6795 30.9747 100.33 30.9746C101.98 30.9746 103.317 32.3123 103.317 33.9624C103.317 35.6125 101.98 36.9501 100.33 36.9501V36.2032C101.567 36.2032 102.57 35.2 102.57 33.9624Z" fill="#111B22"/>
<path d="M107.8 36.9504C109.451 36.9504 110.788 35.6127 110.788 33.9625C110.788 32.3123 109.451 30.9746 107.8 30.9746C106.15 30.9746 104.812 32.3123 104.812 33.9625C104.812 35.6127 106.15 36.9504 107.8 36.9504Z" fill="#CFE4F1"/>
<path d="M117.51 33.9624C117.51 32.7248 116.507 31.7215 115.269 31.7215C114.031 31.7216 113.028 32.7248 113.028 33.9624C113.028 35.1999 114.031 36.2031 115.269 36.2032V36.9501C113.619 36.95 112.281 35.6125 112.281 33.9624C112.281 32.3123 113.619 30.9747 115.269 30.9746C116.919 30.9746 118.257 32.3123 118.257 33.9624C118.257 35.6125 116.919 36.9501 115.269 36.9501V36.2032C116.507 36.2032 117.51 35.2 117.51 33.9624Z" fill="#111B22"/>
<path d="M122.74 36.9504C124.39 36.9504 125.728 35.6127 125.728 33.9625C125.728 32.3123 124.39 30.9746 122.74 30.9746C121.09 30.9746 119.752 32.3123 119.752 33.9625C119.752 35.6127 121.09 36.9504 122.74 36.9504Z" fill="#CFE4F1"/>
<path d="M132.449 33.9624C132.449 32.7248 131.446 31.7215 130.208 31.7215C128.971 31.7216 127.968 32.7248 127.968 33.9624C127.968 35.1999 128.971 36.2031 130.208 36.2032V36.9501C128.558 36.95 127.221 35.6125 127.221 33.9624C127.221 32.3123 128.558 30.9747 130.208 30.9746C131.859 30.9746 133.196 32.3123 133.196 33.9624C133.196 35.6125 131.859 36.9501 130.208 36.9501V36.2032C131.446 36.2032 132.449 35.2 132.449 33.9624Z" fill="#111B22"/>
<path d="M135.389 33.4626C135.389 33.4626 133.273 35.4381 105.765 29.9359C90.5995 26.9027 68.041 40.8538 63.7961 41.5742C60.4626 42.14 59.9723 42.2522 59.9154 42.2742L59.9167 42.2796C59.9167 42.2796 59.8998 42.2803 59.9154 42.2742L59.4042 40.1633C58.8892 38.0365 58.9855 35.7209 59.1348 33.5378C59.2353 32.0686 59.38 30.4215 60.0168 28.9848C60.4986 27.898 61.5004 27.1332 62.6329 26.7717C63.7603 26.4118 64.5095 26.4465 65.9507 26.1463C67.1052 25.9057 68.2417 25.7044 69.4209 25.6973C79.3789 25.6373 123.97 25.2198 130.537 25.9577C130.966 26.0058 131.356 26.1498 131.737 26.3521C135.349 28.2703 135.053 29.7706 135.389 33.4626Z" fill="#0078CE" fill-opacity="0.2"/>
<path d="M58.6406 87.2968C58.6406 91.0097 61.6505 94.0195 65.3634 94.0195H130.78C134.493 94.0195 137.503 91.0097 137.503 87.2968V47.8135H58.6406V87.2968Z" fill="white"/>
<path d="M136.092 87.2971C136.092 90.2307 133.713 92.6089 130.78 92.6089H65.3631C62.4295 92.6088 60.0514 90.2306 60.0512 87.2971V49.2243H136.092V87.2971ZM137.503 47.8138H58.6406V87.2971C58.6408 91.0097 61.6504 94.0194 65.3631 94.0195H130.78C134.492 94.0195 137.503 91.0098 137.503 87.2971V47.8138Z" fill="#111B22"/>
<g filter="url(#filter0_d_55517_763935)">
<path d="M129.911 71.1598C129.911 78.9509 123.595 85.2668 115.804 85.2668C108.013 85.2668 101.697 78.9509 101.697 71.1598C101.697 63.3687 108.013 57.0527 115.804 57.0527C123.595 57.0527 129.911 63.3687 129.911 71.1598Z" fill="#BDD9EB"/>
<path d="M128.5 71.1595C128.5 64.1476 122.816 58.4633 115.804 58.4633C108.792 58.4635 103.108 64.1477 103.108 71.1595C103.108 78.1714 108.792 83.8555 115.804 83.8557V85.2671L115.44 85.2619C107.817 85.0688 101.697 78.8289 101.697 71.1595C101.697 63.3686 108.013 57.0529 115.804 57.0527C123.595 57.0527 129.912 63.3685 129.912 71.1595L129.906 71.5242C129.713 79.1469 123.473 85.2671 115.804 85.2671V83.8557C122.816 83.8557 128.5 78.1715 128.5 71.1595Z" fill="#0078CE"/>
</g>
<path d="M70.3669 83.8564C69.393 83.8564 68.6035 83.067 68.6035 82.0931V70.1021C68.6035 69.1282 69.393 68.3387 70.3669 68.3387C71.3408 68.3387 72.1303 69.1282 72.1303 70.1021V82.0931C72.1303 83.067 71.3408 83.8564 70.3669 83.8564Z" fill="#31AAB7" fill-opacity="0.4"/>
<path d="M71.3835 70.1021H72.1304V82.0934H71.3835V70.1021ZM70.3665 69.086C69.8054 69.0862 69.3505 69.5409 69.3505 70.1021V82.0934C69.3506 82.6545 69.8055 83.1093 70.3665 83.1095C70.9278 83.1095 71.3833 82.6546 71.3835 82.0934H72.1304L72.1208 82.2731C72.0306 83.1624 71.2796 83.8564 70.3665 83.8564C69.3929 83.8562 68.6037 83.067 68.6035 82.0934V70.1021C68.6035 69.1283 69.3928 68.3393 70.3665 68.3391C71.2794 68.3391 72.0303 69.0325 72.1208 69.9215L72.1304 70.1021H71.3835C71.3835 69.5408 70.9279 69.086 70.3665 69.086Z" fill="#111B22"/>
<path d="M76.7146 83.8564C75.7407 83.8564 74.9512 83.067 74.9512 82.0931V60.2272C74.9512 59.2533 75.7407 58.4638 76.7146 58.4638C77.6884 58.4638 78.4779 59.2533 78.4779 60.2272V82.0931C78.4779 83.067 77.6884 83.8564 76.7146 83.8564Z" fill="#31AAB7" fill-opacity="0.4"/>
<path d="M77.7311 60.2271H78.4781V82.0934H77.7311V60.2271ZM76.7142 59.211C76.153 59.2112 75.6981 59.6659 75.6981 60.2271V82.0934C75.6983 82.6545 76.1531 83.1093 76.7142 83.1095C77.2754 83.1095 77.731 82.6546 77.7311 82.0934H78.4781L78.4684 82.2731C78.3782 83.1624 77.6273 83.8564 76.7142 83.8564C75.7406 83.8562 74.9514 83.067 74.9512 82.0934V60.2271L74.9599 60.0465C75.0504 59.1576 75.8014 58.4643 76.7142 58.4641C77.6271 58.4641 78.378 59.1575 78.4684 60.0465L78.4781 60.2271H77.7311C77.7311 59.6658 77.2755 59.211 76.7142 59.211Z" fill="#111B22"/>
<path d="M83.0603 83.8564C82.0864 83.8564 81.2969 83.067 81.2969 82.0931V72.9235C81.2969 71.9496 82.0864 71.1601 83.0603 71.1601C84.0341 71.1601 84.8236 71.9496 84.8236 72.9235V82.0931C84.8236 83.067 84.0341 83.8564 83.0603 83.8564Z" fill="#31AAB7" fill-opacity="0.4"/>
<path d="M84.0767 72.9232H84.8236V82.0934H84.0767V72.9232ZM83.0598 71.9071C82.4987 71.9073 82.0439 72.362 82.0438 72.9232V82.0934C82.044 82.6545 82.4988 83.1093 83.0598 83.1095C83.621 83.1095 84.0765 82.6546 84.0767 82.0934H84.8236L84.814 82.2731C84.7238 83.1624 83.9729 83.8564 83.0598 83.8564C82.0863 83.8562 81.2971 83.067 81.2969 82.0934V72.9232L81.3056 72.7434C81.3957 71.8541 82.1469 71.1603 83.0598 71.1601C83.9729 71.1601 84.7238 71.8541 84.814 72.7434L84.8236 72.9232H84.0767C84.0766 72.3619 83.6211 71.9071 83.0598 71.9071Z" fill="#111B22"/>
<path d="M89.4157 83.8564C88.4418 83.8564 87.6523 83.067 87.6523 82.0931V65.87C87.6523 64.8961 88.4418 64.1066 89.4157 64.1066C90.3896 64.1066 91.1791 64.8961 91.1791 65.87V82.0931C91.1791 83.067 90.3896 83.8564 89.4157 83.8564Z" fill="#31AAB7" fill-opacity="0.4"/>
<path d="M90.4322 65.8705H91.1791V82.0934H90.4322V65.8705ZM89.4153 64.8535C88.8541 64.8537 88.3992 65.3093 88.3992 65.8705V82.0934C88.3994 82.6545 88.8543 83.1093 89.4153 83.1095C89.9765 83.1095 90.432 82.6546 90.4322 82.0934H91.1791L91.1695 82.2732C91.0792 83.1624 90.3283 83.8564 89.4153 83.8564C88.4417 83.8562 87.6525 83.067 87.6523 82.0934V65.8705C87.6523 64.8967 88.4416 64.1068 89.4153 64.1066L89.5959 64.1162C90.4258 64.2005 91.0852 64.86 91.1695 65.6899L91.1791 65.8705H90.4322C90.4322 65.3091 89.9766 64.8535 89.4153 64.8535Z" fill="#111B22"/>
<path d="M112.387 65.1063C109.3 59.6324 116.69 58.4025 116.69 58.4025C112.307 58.2741 110.055 58.9787 106.91 61.0535C106.506 61.3203 106.138 61.6412 105.818 62.0057C104.664 63.3234 103.902 64.4059 103.194 65.7088C102.336 67.2879 101.994 69.1005 102.134 70.8924C102.205 71.7942 102.306 72.6624 102.46 73.6678C102.632 74.7886 103.032 75.8677 103.678 76.7994C104.876 78.5274 106.048 79.7819 107.144 80.749C107.705 81.2441 108.355 81.6241 109.038 81.93L112.039 83.275C112.039 83.275 109.431 80.955 114.957 80.0543C120.484 79.1535 115.475 70.5802 112.387 65.1063Z" fill="#0078CE" fill-opacity="0.2"/>
<g filter="url(#filter1_d_55517_763935)">
<path d="M120.746 64.3069V67.7444C120.746 68.3072 120.449 68.8299 119.968 69.1164L117.026 70.8402C116.546 71.1216 115.951 71.1216 115.466 70.8402L112.524 69.1164C112.043 68.8349 111.746 68.3123 111.746 67.7444V64.3069C111.746 63.744 112.043 63.2213 112.524 62.9349L115.466 61.2111C115.946 60.9296 116.541 60.9296 117.026 61.2111L119.968 62.9349C120.449 63.2213 120.746 63.739 120.746 64.3069Z" fill="#BFDBEE" stroke="#111B22" stroke-width="0.486498" stroke-linecap="round" stroke-linejoin="round"/>
<path d="M116.252 65.5231C116.889 65.5231 117.406 64.9988 117.406 64.3521C117.406 63.7054 116.889 63.1812 116.252 63.1812C115.614 63.1812 115.098 63.7054 115.098 64.3521C115.098 64.9988 115.614 65.5231 116.252 65.5231Z" stroke="#111B22" stroke-width="0.486498" stroke-linecap="round" stroke-linejoin="round"/>
<path d="M118.232 68.3678C118.232 67.4632 117.346 66.7295 116.251 66.7295C115.156 66.7295 114.27 67.4632 114.27 68.3678" stroke="#111B22" stroke-width="0.486498" stroke-linecap="round" stroke-linejoin="round"/>
<path d="M116 72.0852V75.5227C116 76.0856 115.703 76.6082 115.222 76.8947L112.28 78.6185C111.8 78.8999 111.205 78.8999 110.72 78.6185L107.778 76.8947C107.297 76.6133 107 76.0906 107 75.5227V72.0852C107 71.5223 107.297 70.9996 107.778 70.7132L110.72 68.9894C111.2 68.708 111.795 68.708 112.28 68.9894L115.222 70.7132C115.703 70.9996 116 71.5173 116 72.0852Z" fill="#BFDBEE" stroke="#111B22" stroke-width="0.486498" stroke-linecap="round" stroke-linejoin="round"/>
<path d="M111.506 73.3024C112.143 73.3024 112.66 72.7781 112.66 72.1314C112.66 71.4847 112.143 70.9604 111.506 70.9604C110.868 70.9604 110.352 71.4847 110.352 72.1314C110.352 72.7781 110.868 73.3024 111.506 73.3024Z" fill="#BFDBEE" stroke="#111B22" stroke-width="0.486498" stroke-linecap="round" stroke-linejoin="round"/>
<path d="M113.486 76.1461C113.486 75.2415 112.599 74.5078 111.505 74.5078C110.41 74.5078 109.523 75.2415 109.523 76.1461" fill="#BFDBEE"/>
<path d="M113.486 76.1461C113.486 75.2415 112.599 74.5078 111.505 74.5078C110.41 74.5078 109.523 75.2415 109.523 76.1461" stroke="#111B22" stroke-width="0.486498" stroke-linecap="round" stroke-linejoin="round"/>
<path d="M125 72.4172V75.8547C125 76.4176 124.703 76.9403 124.222 77.2267L121.28 78.9505C120.8 79.2319 120.205 79.2319 119.72 78.9505L116.778 77.2267C116.297 76.9453 116 76.4226 116 75.8547V72.4172C116 71.8543 116.297 71.3317 116.778 71.0452L119.72 69.3214C120.2 69.04 120.795 69.04 121.28 69.3214L124.222 71.0452C124.703 71.3317 125 71.8493 125 72.4172Z" fill="#BFDBEE" stroke="#111B22" stroke-width="0.486498" stroke-linecap="round" stroke-linejoin="round"/>
<path d="M120.506 73.6329C121.143 73.6329 121.66 73.1087 121.66 72.462C121.66 71.8153 121.143 71.291 120.506 71.291C119.868 71.291 119.352 71.8153 119.352 72.462C119.352 73.1087 119.868 73.6329 120.506 73.6329Z" stroke="#111B22" stroke-width="0.486498" stroke-linecap="round" stroke-linejoin="round"/>
<path d="M122.486 76.4767C122.486 75.5721 121.599 74.8384 120.505 74.8384C119.41 74.8384 118.523 75.5721 118.523 76.4767" stroke="#111B22" stroke-width="0.486498" stroke-linecap="round" stroke-linejoin="round"/>
</g>
<g filter="url(#filter2_d_55517_763935)">
<path d="M116.81 80.2959C118.752 80.2959 120.324 81.8584 120.324 83.7812C120.324 85.7042 118.752 87.2666 116.81 87.2666C114.867 87.2664 113.296 85.704 113.296 83.7812C113.296 81.8586 114.867 80.2961 116.81 80.2959Z" fill="#BFDBEE" stroke="#0078CE" stroke-width="0.591845"/>
<path d="M117.985 82.7899L116.932 83.8356L117.986 84.8819L117.845 85.0216L116.791 83.9752L115.737 85.0216L115.596 84.8819L116.65 83.8356L115.597 82.7899L115.737 82.6503L116.791 83.6959L117.845 82.6503L117.985 82.7899Z" fill="#BFDBEE" stroke="#0078CE" stroke-width="0.295922"/>
</g>
<path d="M66.4551 106.797V63.5308C66.4551 62.0965 66.9064 60.7209 67.7098 59.7066C68.5132 58.6924 69.6028 58.1226 70.7389 58.1226H92.158C93.2942 58.1226 94.3838 58.6924 95.1872 59.7066C95.9905 60.7209 96.4419 62.0965 96.4419 63.5308V106.797L90.0161 101.389L85.7323 106.797L81.4485 101.389L77.1646 106.797L72.8808 101.389L66.4551 106.797Z" fill="white"/>
<path d="M95.8484 63.5311C95.8484 62.2135 95.4327 60.9697 94.721 60.0712C94.012 59.1762 93.085 58.7132 92.1593 58.7132H70.7401C69.8146 58.7133 68.8881 59.1764 68.1793 60.0712C67.4676 60.9697 67.0519 62.2135 67.0519 63.5311V105.521L72.497 100.938C72.6203 100.834 72.7815 100.785 72.9423 100.801C73.1031 100.817 73.2501 100.898 73.35 101.024L77.1662 105.84L80.9824 101.024L81.0271 100.973C81.1382 100.862 81.29 100.798 81.4497 100.798C81.6323 100.798 81.805 100.882 81.9178 101.024L85.7332 105.841L89.5494 101.024L89.6327 100.938C89.7238 100.861 89.8372 100.813 89.9579 100.801C90.1187 100.785 90.2792 100.834 90.4024 100.938L95.8484 105.521V63.5311ZM97.0389 106.797C97.0388 107.027 96.9038 107.236 96.6935 107.333C96.4832 107.43 96.2356 107.396 96.0588 107.247L90.1035 102.235L86.2013 107.162C86.0886 107.304 85.9165 107.388 85.7341 107.388C85.5515 107.388 85.3787 107.304 85.2659 107.162L81.4497 102.344L77.6344 107.162C77.5215 107.304 77.3488 107.388 77.1662 107.388C76.9836 107.388 76.8109 107.304 76.6981 107.162L72.7959 102.235L66.8415 107.247C66.6647 107.396 66.4171 107.43 66.2067 107.333C65.9964 107.236 65.8614 107.027 65.8613 106.797V63.5311C65.8613 61.9801 66.348 60.4713 67.243 59.3413C68.1407 58.2079 69.3936 57.5319 70.7401 57.5317H92.1593C93.5058 57.5317 94.7586 58.208 95.6564 59.3413C96.5515 60.4713 97.0389 61.9801 97.0389 63.5311V106.797Z" fill="#111B22"/>
<path d="M70.0484 79.3446C70.0508 78.8121 70.4845 78.3823 71.017 78.3848L85.7112 78.4518C86.2438 78.4542 86.6735 78.8879 86.6711 79.4205L86.671 79.4498C86.6686 79.9824 86.2349 80.4121 85.7023 80.4097L71.0081 80.3427C70.4756 80.3402 70.0458 79.9066 70.0482 79.374L70.0484 79.3446Z" fill="#DCDCDC"/>
<path d="M86.6709 79.4495C86.6685 79.982 86.2347 80.4118 85.7022 80.4094L71.0082 80.3424L70.9092 80.3376C70.4233 80.2858 70.046 79.8728 70.0482 79.3736L70.0484 79.3447C70.0506 78.8456 70.4317 78.4369 70.918 78.3896L71.0171 78.3848L85.7111 78.4518C86.2436 78.4542 86.6735 78.888 86.671 79.4205L86.6709 79.4495Z" fill="#111B22"/>
<path d="M70.0484 87.1645C70.0508 86.6319 70.4845 86.2022 71.017 86.2046L91.7922 86.2993C92.3247 86.3018 92.7545 86.7355 92.7521 87.268L92.7519 87.2974C92.7495 87.8299 92.3159 88.2597 91.7833 88.2573L71.0081 88.1625C70.4756 88.1601 70.0458 87.7264 70.0482 87.1938L70.0484 87.1645Z" fill="#DCDCDC"/>
<path d="M92.7516 87.297C92.7493 87.7963 92.3684 88.2059 91.8819 88.253L91.7837 88.257L71.0082 88.1622L70.9092 88.1574C70.4233 88.1056 70.046 87.6926 70.0482 87.1935L70.0484 87.1645C70.0506 86.6654 70.4317 86.2568 70.918 86.2094L71.0171 86.2046L91.7926 86.2993L91.8907 86.3051C92.3768 86.3567 92.7539 86.7688 92.7517 87.2681L92.7516 87.297Z" fill="#111B22"/>
<path d="M70.0484 91.4296C70.0508 90.8971 70.4845 90.4673 71.017 90.4697L91.7922 90.5645C92.3247 90.5669 92.7545 91.0006 92.7521 91.5332L92.7519 91.5625C92.7495 92.0951 92.3159 92.5248 91.7833 92.5224L71.0081 92.4276C70.4756 92.4252 70.0458 91.9915 70.0482 91.459L70.0484 91.4296Z" fill="#DCDCDC"/>
<path d="M92.7516 91.5622C92.7493 92.0614 92.3684 92.471 91.8819 92.5182L91.7837 92.5221L71.0082 92.4274L70.9092 92.4225C70.4233 92.3708 70.046 91.9578 70.0482 91.4586L70.0484 91.4297C70.0506 90.9306 70.4317 90.5219 70.918 90.4745L71.0171 90.4697L91.7926 90.5645L91.8907 90.5702C92.3768 90.6218 92.7539 91.034 92.7517 91.5332L92.7516 91.5622Z" fill="#111B22"/>
<path d="M70.0484 95.6947C70.0508 95.1622 70.4845 94.7324 71.017 94.7349L81.1848 94.7812C81.7174 94.7837 82.1471 95.2174 82.1447 95.7499L82.1446 95.7793C82.1422 96.3118 81.7085 96.7416 81.1759 96.7391L71.0081 96.6928C70.4756 96.6903 70.0458 96.2567 70.0482 95.7241L70.0484 95.6947Z" fill="#DCDCDC"/>
<path d="M82.1446 95.7789L82.1389 95.878C82.0873 96.3639 81.6751 96.7411 81.1759 96.7389L71.0082 96.6925L70.9092 96.6877C70.4233 96.6359 70.046 96.2229 70.0482 95.7237L70.0484 95.6948C70.0506 95.1957 70.4317 94.787 70.918 94.7397L71.0171 94.7349L81.1848 94.7812C81.7173 94.7837 82.1472 95.2174 82.1448 95.75L82.1446 95.7789Z" fill="#111B22"/>
<path d="M70.023 83.2602C70.0254 82.7276 70.4591 82.2979 70.9916 82.3003L79.3212 82.3383C79.8537 82.3407 80.2835 82.7744 80.2811 83.307L80.281 83.3363C80.2785 83.8689 79.8449 84.2986 79.3123 84.2962L70.9827 84.2582C70.4502 84.2558 70.0204 83.8221 70.0228 83.2895L70.023 83.2602Z" fill="#EEEEEE"/>
<path d="M80.2808 83.336C80.2784 83.8685 79.8447 84.2983 79.3121 84.2959L70.9828 84.2579L70.8838 84.2531C70.3979 84.2013 70.0206 83.7883 70.0228 83.2892L70.023 83.2602C70.0252 82.7611 70.4063 82.3525 70.8926 82.3051L70.9917 82.3003L79.321 82.3383C79.8536 82.3407 80.2834 82.7745 80.281 83.307L80.2808 83.336Z" fill="#111B22"/>
<g filter="url(#filter3_d_55517_763935)">
<path d="M81.1688 74.9367C80.9942 74.9367 80.8467 74.8761 80.7262 74.7549C80.6058 74.6337 80.5456 74.4821 80.5456 74.3003V73.6275L80.8166 73.873C80.4131 73.8548 80.0639 73.8033 79.7688 73.7184C79.4737 73.6335 79.2329 73.5487 79.0462 73.4638C78.8896 73.3911 78.7782 73.288 78.712 73.1547C78.6518 73.0213 78.6277 72.885 78.6397 72.7455C78.6578 72.6061 78.709 72.4788 78.7933 72.3637C78.8776 72.2485 78.986 72.1727 79.1185 72.1364C79.2569 72.0939 79.4165 72.1121 79.5972 72.1909C79.7176 72.2576 79.8983 72.3273 80.1391 72.4C80.386 72.4667 80.6901 72.5001 81.0514 72.5001C81.3043 72.5001 81.503 72.4758 81.6475 72.4273C81.7981 72.3788 81.9035 72.3152 81.9637 72.2364C82.0299 72.1515 82.063 72.0606 82.063 71.9636C82.063 71.8727 82.039 71.7969 81.9908 71.7363C81.9486 71.6696 81.8764 71.6121 81.774 71.5636C81.6716 71.509 81.5301 71.4605 81.3495 71.4181L80.3288 71.1999C79.7688 71.0726 79.3503 70.8604 79.0733 70.5634C78.8023 70.2604 78.6668 69.8694 78.6668 69.3906C78.6668 69.0269 78.7541 68.7026 78.9288 68.4177C79.1094 68.1268 79.3593 67.8904 79.6785 67.7085C80.0036 67.5267 80.383 67.4115 80.8166 67.363L80.5456 67.5176V66.9084C80.5456 66.7266 80.6058 66.575 80.7262 66.4538C80.8467 66.3326 80.9942 66.272 81.1688 66.272C81.3495 66.272 81.5 66.3326 81.6205 66.4538C81.7409 66.575 81.8011 66.7266 81.8011 66.9084V67.5176L81.5301 67.3448C81.7589 67.3509 82.0058 67.3903 82.2708 67.463C82.5357 67.5297 82.7676 67.6237 82.9663 67.7449C83.1048 67.8176 83.2011 67.9176 83.2553 68.0449C83.3155 68.1722 83.3366 68.3025 83.3186 68.4359C83.3065 68.5632 83.2583 68.6783 83.174 68.7814C83.0958 68.8844 82.9874 68.9541 82.8489 68.9905C82.7164 69.0208 82.5568 68.9966 82.3701 68.9178C82.2316 68.8572 82.0751 68.8087 81.9005 68.7723C81.7319 68.7299 81.5151 68.7087 81.2501 68.7087C80.931 68.7087 80.6841 68.7662 80.5095 68.8814C80.3408 68.9966 80.2565 69.1451 80.2565 69.3269C80.2565 69.4481 80.3047 69.5512 80.4011 69.636C80.5034 69.7148 80.6871 69.7845 80.952 69.8452L81.9817 70.0725C82.5538 70.1998 82.9753 70.4119 83.2463 70.7089C83.5233 70.9999 83.6618 71.3787 83.6618 71.8454C83.6618 72.2091 83.5745 72.5304 83.3998 72.8092C83.2252 73.088 82.9813 73.3153 82.6682 73.4911C82.3611 73.6669 82.0028 73.782 81.5934 73.8366L81.8011 73.6184V74.3003C81.8011 74.4821 81.7409 74.6337 81.6205 74.7549C81.506 74.8761 81.3555 74.9367 81.1688 74.9367Z" fill="#111B22"/>
</g>
<defs>
<filter id="filter0_d_55517_763935" x="90.4116" y="51.4099" width="50.7861" height="50.7856" filterUnits="userSpaceOnUse" color-interpolation-filters="sRGB">
<feFlood flood-opacity="0" result="BackgroundImageFix"/>
<feColorMatrix in="SourceAlpha" type="matrix" values="0 0 0 0 0 0 0 0 0 0 0 0 0 0 0 0 0 0 127 0" result="hardAlpha"/>
<feOffset dy="5.64281"/>
<feGaussianBlur stdDeviation="5.64281"/>
<feColorMatrix type="matrix" values="0 0 0 0 0.0705882 0 0 0 0 0.105882 0 0 0 0 0.129412 0 0 0 0.1 0"/>
<feBlend mode="normal" in2="BackgroundImageFix" result="effect1_dropShadow_55517_763935"/>
<feBlend mode="normal" in="SourceGraphic" in2="effect1_dropShadow_55517_763935" result="shape"/>
</filter>
<filter id="filter1_d_55517_763935" x="104.161" y="59.4595" width="23.6776" height="23.8373" filterUnits="userSpaceOnUse" color-interpolation-filters="sRGB">
<feFlood flood-opacity="0" result="BackgroundImageFix"/>
<feColorMatrix in="SourceAlpha" type="matrix" values="0 0 0 0 0 0 0 0 0 0 0 0 0 0 0 0 0 0 127 0" result="hardAlpha"/>
<feOffset dy="1.29733"/>
<feGaussianBlur stdDeviation="1.29733"/>
<feColorMatrix type="matrix" values="0 0 0 0 0.0705882 0 0 0 0 0.105882 0 0 0 0 0.129412 0 0 0 0.1 0"/>
<feBlend mode="normal" in2="BackgroundImageFix" result="effect1_dropShadow_55517_763935"/>
<feBlend mode="normal" in="SourceGraphic" in2="effect1_dropShadow_55517_763935" result="shape"/>
</filter>
<filter id="filter2_d_55517_763935" x="110.235" y="78.6176" width="13.1487" height="13.0926" filterUnits="userSpaceOnUse" color-interpolation-filters="sRGB">
<feFlood flood-opacity="0" result="BackgroundImageFix"/>
<feColorMatrix in="SourceAlpha" type="matrix" values="0 0 0 0 0 0 0 0 0 0 0 0 0 0 0 0 0 0 127 0" result="hardAlpha"/>
<feOffset dy="1.3824"/>
<feGaussianBlur stdDeviation="1.3824"/>
<feColorMatrix type="matrix" values="0 0 0 0 0.0705882 0 0 0 0 0.105882 0 0 0 0 0.129412 0 0 0 0.1 0"/>
<feBlend mode="normal" in2="BackgroundImageFix" result="effect1_dropShadow_55517_763935"/>
<feBlend mode="normal" in="SourceGraphic" in2="effect1_dropShadow_55517_763935" result="shape"/>
</filter>
<filter id="filter3_d_55517_763935" x="74.2239" y="64.0656" width="13.851" height="17.4902" filterUnits="userSpaceOnUse" color-interpolation-filters="sRGB">
<feFlood flood-opacity="0" result="BackgroundImageFix"/>
<feColorMatrix in="SourceAlpha" type="matrix" values="0 0 0 0 0 0 0 0 0 0 0 0 0 0 0 0 0 0 127 0" result="hardAlpha"/>
<feOffset dy="2.2064"/>
<feGaussianBlur stdDeviation="2.2064"/>
<feColorMatrix type="matrix" values="0 0 0 0 0.0705882 0 0 0 0 0.105882 0 0 0 0 0.129412 0 0 0 0.1 0"/>
<feBlend mode="normal" in2="BackgroundImageFix" result="effect1_dropShadow_55517_763935"/>
<feBlend mode="normal" in="SourceGraphic" in2="effect1_dropShadow_55517_763935" result="shape"/>
</filter>
</defs>
</svg>
