<svg width="196" height="121" viewBox="0 0 196 121" fill="none" xmlns="http://www.w3.org/2000/svg">
<path d="M144.124 101.024V86.9841H146.079L147.896 85.0385L126.374 61.7229H123.702V65.7638H117.441L113.711 61.7229H103.376L81.8773 85.013L83.6938 86.9809H86.5715V101.021H80.9543C72.5536 92.3147 70.3197 72.5687 71.1045 57.8794L71.2426 57.5801H71.3102C74.9845 57.5801 78.2413 59.5098 80.2695 62.4839L80.29 62.5158C81.8185 64.7543 82.7385 67.5725 82.7385 70.6199C82.7385 72.7215 82.3035 74.7117 81.5216 76.4918L81.554 76.409C83.1944 75.9539 84.7193 75.1051 86.0159 73.9252L85.9983 73.9411C87.3483 72.6681 88.4304 71.0959 89.1712 69.3308C89.9121 67.5657 90.2945 65.6489 90.2927 63.7099C90.2927 60.6689 89.3698 57.8635 87.8119 55.6026L87.8354 55.6376C86.4987 53.6183 84.6084 52.1069 82.4331 51.3186C80.2579 50.5302 77.9085 50.505 75.7193 51.2464L75.7957 51.2242C76.5747 50.6987 77.4712 50.2338 78.4147 49.8804L78.5088 49.8485C79.7912 49.3354 81.1481 49.0755 82.5151 49.0811C85.6985 49.0811 88.582 50.4599 90.6895 52.6921L90.6866 52.6889C90.9989 50.9029 90.9051 49.0613 90.4132 47.3234L90.4338 47.403C89.9464 45.8542 89.1731 44.4291 88.161 43.2145C87.1488 41.9999 85.919 41.0212 84.5465 40.3381C83.1739 39.6549 81.6874 39.2816 80.1774 39.2409C78.6674 39.2002 77.1656 39.493 75.7634 40.1013L75.8369 40.0726C75.1276 40.3375 74.4378 40.66 73.7734 41.0375L73.8587 40.9929C73.6585 39.997 73.362 39.0268 72.9739 38.0984L73.0092 38.1907C70.4225 31.908 64.4909 28.9402 59.7497 31.5355C58.4693 32.2446 57.3691 33.2834 56.5457 34.5606L56.5281 34.5924C58.1968 34.7698 59.8042 35.3668 61.2223 36.3359C62.6405 37.305 63.8301 38.6195 64.6966 40.1745L64.7231 40.2255C63.6232 39.629 62.4591 39.1829 61.2576 38.8976L61.1576 38.8785C53.868 37.1813 46.931 41.4706 45.6877 48.4793C45.3555 50.4019 45.4655 52.3836 46.0081 54.2493L45.9875 54.1665C47.6176 52.1617 49.7272 50.6838 52.0837 49.896C54.4401 49.1082 56.9517 49.0411 59.3411 49.702L59.247 49.6798C60.4492 49.9536 61.5133 50.3485 62.5097 50.8675L62.4245 50.8261C60.0397 50.4819 57.6144 50.9162 55.4587 52.0734C53.303 53.2306 51.5149 55.0581 50.3231 57.3221L50.2908 57.3858C49.0464 59.6567 48.3933 62.2504 48.4007 64.8913C48.4007 69.8843 50.6846 74.2978 54.1854 76.9726L54.2295 77.0044C55.7359 78.1002 57.4546 78.8062 59.2529 79.0679L59.3146 79.0743C58.0178 76.7464 57.3356 74.0776 57.3423 71.3586C57.3423 68.5787 58.0389 65.9739 59.2559 63.7417L59.2206 63.8118C60.1246 62.107 61.3642 60.6389 62.8511 59.5118C64.3381 58.3847 66.036 57.6262 67.8241 57.2903L67.8976 57.2775C63.7325 77.826 62.5803 92.1427 66.0164 101.017H56.0049V107.004H150.5V101.017H144.124V101.024ZM120.756 87.3089H141.82V101.024H120.756V87.3089ZM88.8319 84.5895L103.382 68.8271L117.932 84.5895V101.024H101.956V88.6559H93.8758V101.024H88.8142V84.5895H88.8319Z" fill="white" stroke="#111B22" stroke-width="1.75"/>
<path d="M108.229 18.9139C108.573 18.3938 109.134 17.9961 109.891 17.9961H121.457C122.243 17.9961 122.854 18.3432 123.243 18.8714C123.616 19.3767 123.763 20.0112 123.747 20.6031C123.732 21.1958 123.551 21.8161 123.181 22.3056C122.8 22.8106 122.212 23.1747 121.457 23.1747H118.794C118.605 23.1747 118.451 23.3262 118.451 23.5144V24.423H112.795V23.4533C112.795 23.2706 112.656 23.1423 112.498 23.1388C111.85 23.1244 110.929 23.1217 109.927 23.1738C109.166 23.2133 108.589 22.8403 108.235 22.3228C107.897 21.8295 107.754 21.2059 107.754 20.6233C107.754 20.0395 107.898 19.4148 108.229 18.9139Z" fill="white" stroke="#0078CE" stroke-width="0.614625"/>
<path d="M115.21 24.1182C124.457 24.1184 131.958 31.6542 131.958 40.9551C131.958 50.2562 124.457 57.7927 115.21 57.793C105.962 57.793 98.4609 50.2563 98.4609 40.9551C98.4612 31.654 105.962 24.1182 115.21 24.1182Z" fill="white" stroke="#0078CE" stroke-width="0.921937"/>
<path d="M115.202 26.3408C123.23 26.3408 129.74 32.8833 129.74 40.9551C129.74 49.0269 123.23 55.5693 115.202 55.5693C107.174 55.5692 100.664 49.0268 100.664 40.9551C100.664 32.8834 107.174 26.341 115.202 26.3408Z" fill="white" stroke="#0078CE" stroke-width="0.336785"/>
<path d="M115.202 26.6338C123.067 26.6338 129.447 33.0434 129.447 40.9551C129.447 48.8667 123.067 55.2764 115.202 55.2764C107.337 55.2762 100.957 48.8666 100.957 40.9551C100.957 33.0435 107.337 26.6339 115.202 26.6338Z" fill="#CFE4F1" stroke="#0078CE" stroke-width="0.921937"/>
<path d="M114.538 29.4922C116.738 29.36 118.93 29.867 120.842 30.9531C122.752 32.039 124.296 33.6549 125.284 35.5977L115.312 40.4219L114.538 29.4922Z" fill="#0078CE" stroke="#0078CE" stroke-width="0.202963"/>
<path d="M115.598 48.6597C115.769 48.6597 115.906 48.7965 115.906 48.9624V51.3862C115.906 51.5519 115.769 51.6881 115.598 51.688C115.427 51.6877 115.29 51.551 115.29 51.3853V48.9614C115.29 48.7958 115.427 48.6598 115.598 48.6597ZM119.344 47.6011C119.485 47.5063 119.677 47.5429 119.772 47.6812L121.308 49.9028C121.402 50.0403 121.367 50.2284 121.227 50.3228C121.086 50.4175 120.893 50.3809 120.798 50.2427L119.263 48.021C119.168 47.8835 119.204 47.6954 119.344 47.6011ZM111.369 47.6011C111.453 47.4561 111.64 47.4038 111.789 47.4868C111.937 47.5695 111.988 47.7544 111.905 47.8989L110.574 50.2212C110.491 50.3665 110.303 50.4185 110.154 50.3354C110.006 50.2527 109.955 50.0688 110.038 49.9243L111.369 47.6011ZM108.404 44.6655C108.549 44.5771 108.739 44.6214 108.828 44.7632C108.917 44.9045 108.874 45.0909 108.729 45.1792L106.58 46.4927C106.435 46.5814 106.244 46.5363 106.155 46.394C106.067 46.2526 106.11 46.0662 106.255 45.978L108.404 44.6655ZM122.216 44.8052C122.298 44.659 122.485 44.6055 122.635 44.687L124.989 45.9702C125.138 46.0514 125.191 46.2359 125.109 46.3813C125.028 46.5273 124.84 46.5811 124.69 46.4995L122.337 45.2153C122.188 45.1341 122.135 44.9506 122.216 44.8052ZM115.424 38.9644C115.898 38.9644 116.334 39.1253 116.681 39.3921L115.118 40.2837C114.727 40.5066 114.592 41.0007 114.818 41.3882C115.044 41.775 115.544 41.9066 115.935 41.6841L117.462 40.812C117.467 40.8687 117.472 40.926 117.472 40.9839C117.472 42.0978 116.556 43.0034 115.424 43.0034C114.292 43.0034 113.376 42.0978 113.376 40.9839C113.376 39.8699 114.292 38.9644 115.424 38.9644ZM116.845 39.5317C117.141 39.8137 117.351 40.182 117.433 40.5962L115.834 41.5083C115.539 41.6763 115.163 41.5762 114.993 41.2866C114.824 40.9977 114.925 40.6271 115.219 40.4595L116.845 39.5317ZM104.882 40.6812H107.44C107.612 40.6812 107.749 40.8181 107.749 40.9839C107.749 41.1496 107.612 41.2864 107.441 41.2866H104.882C104.711 41.2865 104.574 41.1496 104.574 40.9839C104.574 40.818 104.711 40.6811 104.882 40.6812ZM123.714 40.5532H126.272C126.444 40.5532 126.581 40.6901 126.581 40.856C126.581 41.0217 126.444 41.1585 126.273 41.1587H123.714C123.543 41.1585 123.406 41.0216 123.406 40.856C123.406 40.6901 123.543 40.5532 123.714 40.5532ZM124.43 35.2085C124.724 35.0405 125.101 35.1405 125.271 35.4302C125.439 35.7191 125.339 36.0888 125.045 36.2563L117.617 40.4907C117.523 40.0816 117.316 39.716 117.028 39.4272L124.43 35.2085ZM105.944 35.5845C106.028 35.4391 106.215 35.3862 106.364 35.4692L108.718 36.7817C108.866 36.8643 108.918 37.0492 108.835 37.1938C108.752 37.3392 108.564 37.391 108.415 37.3081L106.061 35.9956C105.913 35.913 105.862 35.7291 105.944 35.5845ZM110.038 31.6401C110.182 31.5496 110.373 31.5918 110.464 31.7329L111.896 33.9546C111.987 34.0949 111.946 34.2815 111.803 34.3716C111.659 34.4621 111.468 34.4199 111.377 34.2788L109.944 32.0571C109.854 31.9169 109.895 31.7303 110.038 31.6401Z" fill="#111B22" stroke="#0078CE" stroke-width="0.202963"/>
<path d="M113.565 34.5088C110.845 27.8688 119.392 27.5246 119.392 27.5246C114.472 26.7612 111.823 27.2301 108 29.1079C107.46 29.3729 106.958 29.7108 106.51 30.111C105.123 31.3485 104.15 32.4069 103.223 33.6682C101.902 35.4648 101.205 37.65 101.116 39.8778C101.08 40.7652 101.075 41.6403 101.099 42.6298C101.133 44.0359 101.458 45.4266 102.117 46.6694C103.18 48.6758 104.275 50.1946 105.33 51.403C105.941 52.102 106.683 52.6695 107.477 53.1514L110.592 55.0436C110.592 55.0436 107.965 52.0448 114.355 51.8089C120.744 51.5731 116.286 41.1488 113.565 34.5088Z" fill="#0078CE" fill-opacity="0.2"/>
<rect x="0.71034" y="0.483459" width="1.2178" height="7.0328" rx="0.608902" transform="matrix(0.184584 0.982817 0.982009 -0.188832 85.2216 34.528)" fill="#999999" stroke="#0078CE" stroke-width="1.2178"/>
<rect x="-0.493442" y="0.725009" width="1.23759" height="6.8811" rx="0.618795" transform="matrix(-0.98201 0.188829 0.184586 0.982816 101.263 14.904)" fill="#999999" stroke="#0078CE" stroke-width="1.23759"/>
<rect x="0.161152" y="0.847785" width="1.23038" height="6.93683" rx="0.615192" transform="matrix(-0.569273 0.822149 0.831227 0.555933 88.849 21.6893)" fill="#999999" stroke="#0078CE" stroke-width="1.23038"/>
</svg>
