<svg width="196" height="121" viewBox="0 0 196 121" fill="none" xmlns="http://www.w3.org/2000/svg">
<g clip-path="url(#clip0_56008_734170)">
<mask id="mask0_56008_734170" style="mask-type:luminance" maskUnits="userSpaceOnUse" x="0" y="0" width="196" height="121">
<path d="M196 0H0V121H196V0Z" fill="white"/>
</mask>
<g mask="url(#mask0_56008_734170)">
<path d="M82.9712 16.8763C83.6741 15.8131 84.8219 15 86.3696 15H110.013C111.619 15 112.868 15.7095 113.665 16.7894C114.427 17.8224 114.728 19.1195 114.696 20.3295C114.663 21.5413 114.294 22.8093 113.538 23.81C112.758 24.8422 111.557 25.5867 110.013 25.5867H104.57C104.183 25.5867 103.868 25.8963 103.868 26.2812V28.1385H92.3047V26.1562C92.3047 25.7827 92.0209 25.5204 91.6992 25.5133C90.3744 25.484 88.4915 25.4784 86.4425 25.5849C84.887 25.6656 83.7079 24.9031 82.9836 23.8451C82.2932 22.8368 82 21.5619 82 20.3708C82 19.1774 82.294 17.9004 82.9712 16.8763Z" fill="white" stroke="#111B22" stroke-width="1.25647"/>
<path d="M97.2391 27.5176C116.144 27.5178 131.478 42.9232 131.478 61.9374C131.478 80.9518 116.144 96.3581 97.2391 96.3583C78.334 96.3583 63 80.952 63 61.9374C63.0003 42.9231 78.3341 27.5176 97.2391 27.5176Z" fill="white" stroke="#111B22" stroke-width="1.88472"/>
<path d="M97.2316 32.0645C113.644 32.0645 126.952 45.439 126.952 61.9401C126.952 78.4413 113.644 91.8149 97.2316 91.8149C80.8196 91.8147 67.5118 78.4411 67.5117 61.9401C67.5117 45.4391 80.8195 32.0647 97.2316 32.0645Z" fill="white" stroke="#111B22" stroke-width="0.68849"/>
<path d="M97.2343 32.6631C113.313 32.6631 126.356 45.7662 126.356 61.9399C126.356 78.1136 113.313 91.2169 97.2343 91.2169C81.1556 91.2165 68.1134 78.1134 68.1133 61.9399C68.1133 45.7663 81.1555 32.6633 97.2343 32.6631Z" fill="white" stroke="#111B22" stroke-width="1.88472"/>
<path d="M95.8633 38.502C100.362 38.2317 104.843 39.2683 108.751 41.4891C112.657 43.709 115.814 47.0111 117.834 50.9831L97.4471 60.8456L95.8633 38.502Z" fill="#0078CE" stroke="#111B22" stroke-width="0.414917"/>
<path d="M98.0277 77.685C98.3778 77.6852 98.6576 77.9644 98.6576 78.3035V83.2585C98.6574 83.5973 98.3785 83.8758 98.0288 83.8759C97.6787 83.8758 97.399 83.5966 97.399 83.2574V78.3024C97.3991 77.9637 97.6781 77.6851 98.0277 77.685ZM105.686 75.5218C105.974 75.328 106.366 75.4024 106.561 75.685L109.7 80.227C109.893 80.508 109.821 80.8911 109.535 81.084C109.247 81.278 108.854 81.2036 108.658 80.9209L105.521 76.3799C105.326 76.0987 105.399 75.7148 105.686 75.5218ZM89.3826 75.5218C89.5528 75.2249 89.9375 75.1176 90.2416 75.2876C90.544 75.4565 90.648 75.8335 90.4791 76.1291L87.7584 80.8776C87.5881 81.1747 87.2035 81.2818 86.8993 81.1119C86.597 80.9428 86.4927 80.5659 86.6618 80.2704L89.3826 75.5218ZM83.3217 69.5199C83.6183 69.3388 84.0066 69.4298 84.189 69.7202C84.3704 70.0093 84.2808 70.3896 83.9856 70.5699L79.5923 73.2545C79.2956 73.4357 78.9063 73.3449 78.7239 73.0542C78.5427 72.7652 78.6325 72.3849 78.9273 72.2044L83.3217 69.5199ZM111.557 69.8059C111.724 69.5072 112.108 69.3966 112.414 69.5633L117.227 72.1879C117.531 72.354 117.639 72.7301 117.473 73.0274C117.306 73.3262 116.922 73.4369 116.616 73.27L111.804 70.6453C111.499 70.4792 111.391 70.1031 111.557 69.8059ZM97.6726 57.8659C98.6431 57.866 99.5352 58.1916 100.245 58.7373L97.0469 60.5618C96.2476 61.0176 95.9715 62.0288 96.4346 62.8209C96.8967 63.6117 97.9185 63.8809 98.7164 63.426L101.842 61.6429C101.852 61.7586 101.858 61.8758 101.858 61.9939C101.858 64.2709 99.987 66.1217 97.6726 66.1219C95.358 66.1219 93.4859 64.271 93.4857 61.9939C93.4857 59.7167 95.3579 57.8659 97.6726 57.8659ZM100.579 59.0244C101.184 59.6007 101.613 60.3547 101.78 61.2009L98.51 63.0657C97.9076 63.4087 97.139 63.2034 96.7929 62.6114C96.4477 62.0207 96.6515 61.2648 97.2523 60.9221L100.579 59.0244ZM76.121 61.3755H81.3517C81.7017 61.3755 81.9813 61.6549 81.9815 61.9939C81.9816 62.333 81.7027 62.6124 81.3527 62.6124H76.122C75.7719 62.6123 75.4923 62.332 75.4922 61.9928C75.4923 61.6541 75.7712 61.3754 76.121 61.3755ZM114.619 61.1132L119.851 61.1142C120.201 61.1143 120.48 61.3937 120.48 61.7326C120.48 62.0716 120.201 62.3512 119.851 62.3512L114.62 62.3501C114.27 62.3501 113.99 62.0708 113.99 61.7317C113.99 61.3927 114.269 61.1134 114.619 61.1132ZM116.084 50.1861C116.685 49.8429 117.454 50.0482 117.801 50.6404C118.145 51.2311 117.942 51.9871 117.341 52.3296L102.158 60.9851C101.966 60.1489 101.541 59.401 100.954 58.8107L116.084 50.1861ZM78.2923 50.9543C78.4623 50.6572 78.8472 50.5504 79.1514 50.7199L83.9639 53.4045C84.2663 53.5733 84.3711 53.9494 84.2025 54.2449C84.0325 54.5421 83.6476 54.6499 83.3434 54.4804L78.5308 51.7958C78.2282 51.6268 78.1233 51.2499 78.2923 50.9543ZM86.6618 42.8914C86.9561 42.7064 87.3462 42.7932 87.5323 43.0814L90.4615 47.6234C90.6466 47.9102 90.5623 48.2921 90.2694 48.4763C89.9752 48.6614 89.585 48.5748 89.3991 48.2863L86.4698 43.7443C86.2849 43.4575 86.3692 43.0756 86.6618 42.8914Z" fill="#111B22" stroke="#111B22" stroke-width="0.414917"/>
<g filter="url(#filter0_d_56008_734170)">
<path d="M117.31 106.586C128.113 106.586 136.87 97.8284 136.87 87.0257C136.87 76.2231 128.113 67.4658 117.31 67.4658C106.507 67.4658 97.75 76.2231 97.75 87.0257C97.75 97.8284 106.507 106.586 117.31 106.586Z" fill="#BFDBEE" stroke="#0078CE" stroke-width="2.30116"/>
</g>
<path d="M107.628 68.9219C107.628 68.9219 103.534 83.0525 112.212 85.9171C120.891 88.7817 126.762 100.982 122.052 104.703C120.376 106.027 119.96 106.611 120.119 106.812L122.577 106.293C122.577 106.293 120.405 107.177 120.119 106.812L117.589 107.346C115.985 107.685 114.318 107.703 112.806 107.072C111.153 106.382 109.162 105.353 107.284 104.259C106.049 103.539 104.989 102.555 104.174 101.38C102.881 99.5168 101.347 97.1466 100.1 95.1158C98.9464 93.2385 98.2806 91.1061 98.0987 88.9105C97.8006 85.3101 97.6218 80.5493 99.0218 77.8592C99.4152 77.1033 99.9356 76.4129 100.332 75.6587C102.075 72.3438 103.627 70.9418 107.628 68.9219Z" fill="#0078CE" fill-opacity="0.2"/>
<mask id="mask1_56008_734170" style="mask-type:luminance" maskUnits="userSpaceOnUse" x="103" y="73" width="28" height="28">
<path d="M130.944 73.6182H103.68V100.882H130.944V73.6182Z" fill="white"/>
</mask>
<g mask="url(#mask1_56008_734170)">
<path d="M112.766 88.3834V78.7274C112.766 78.2755 112.945 77.8421 113.265 77.5225C113.585 77.203 114.019 77.0234 114.47 77.0234C114.922 77.0234 115.355 77.203 115.675 77.5225C115.995 77.8421 116.174 78.2755 116.174 78.7274V87.2475" stroke="#0078CE" stroke-width="1.13601" stroke-linecap="round" stroke-linejoin="round"/>
<path d="M116.172 86.6802V84.4082C116.172 83.9562 116.352 83.5228 116.671 83.2033C116.99 82.8836 117.424 82.7041 117.876 82.7041C118.328 82.7041 118.761 82.8836 119.08 83.2033C119.401 83.5228 119.58 83.9562 119.58 84.4082V87.2481" stroke="#0078CE" stroke-width="1.13601" stroke-linecap="round" stroke-linejoin="round"/>
<path d="M119.582 85.5418C119.582 85.0899 119.762 84.6566 120.081 84.3369C120.4 84.0174 120.834 83.8379 121.286 83.8379C121.738 83.8379 122.171 84.0174 122.491 84.3369C122.811 84.6566 122.991 85.0899 122.991 85.5418V87.2459" stroke="#0078CE" stroke-width="1.13601" stroke-linecap="round" stroke-linejoin="round"/>
<path d="M122.988 86.6777C122.988 86.2257 123.167 85.7923 123.487 85.4727C123.806 85.1532 124.24 84.9736 124.691 84.9736C125.144 84.9736 125.577 85.1532 125.897 85.4727C126.216 85.7923 126.396 86.2257 126.396 86.6777V91.7897C126.396 93.5973 125.678 95.3311 124.399 96.6094C123.121 97.8876 121.387 98.6057 119.579 98.6057H117.307H117.544C116.415 98.6058 115.304 98.3258 114.31 97.7903C113.316 97.255 112.471 96.4812 111.85 95.5385L111.627 95.1977C111.273 94.6536 110.029 92.4849 107.894 88.6907C107.677 88.3039 107.619 87.8475 107.732 87.4185C107.846 86.9895 108.122 86.6219 108.503 86.3937C108.909 86.1504 109.384 86.0496 109.853 86.1072C110.323 86.1648 110.759 86.3776 111.093 86.7117L112.764 88.3816" stroke="#0078CE" stroke-width="2.15841" stroke-linecap="round" stroke-linejoin="round"/>
<path d="M109.359 77.0238L108.223 75.8877" stroke="#0078CE" stroke-width="1.13601" stroke-linecap="round" stroke-linejoin="round"/>
<path d="M108.222 81.5645H107.086" stroke="#0078CE" stroke-width="1.13601" stroke-linecap="round" stroke-linejoin="round"/>
<path d="M119.582 77.0238L120.719 75.8877" stroke="#0078CE" stroke-width="1.13601" stroke-linecap="round" stroke-linejoin="round"/>
<path d="M120.719 80.4287H121.855" stroke="#0078CE" stroke-width="1.13601" stroke-linecap="round" stroke-linejoin="round"/>
</g>
</g>
</g>
<defs>
<filter id="filter0_d_56008_734170" x="84.3267" y="60.179" width="65.9667" height="65.9667" filterUnits="userSpaceOnUse" color-interpolation-filters="sRGB">
<feFlood flood-opacity="0" result="BackgroundImageFix"/>
<feColorMatrix in="SourceAlpha" type="matrix" values="0 0 0 0 0 0 0 0 0 0 0 0 0 0 0 0 0 0 127 0" result="hardAlpha"/>
<feOffset dy="6.13644"/>
<feGaussianBlur stdDeviation="6.13644"/>
<feColorMatrix type="matrix" values="0 0 0 0 0.0705882 0 0 0 0 0.105882 0 0 0 0 0.129412 0 0 0 0.1 0"/>
<feBlend mode="normal" in2="BackgroundImageFix" result="effect1_dropShadow_56008_734170"/>
<feBlend mode="normal" in="SourceGraphic" in2="effect1_dropShadow_56008_734170" result="shape"/>
</filter>
<clipPath id="clip0_56008_734170">
<rect width="196" height="121" fill="white"/>
</clipPath>
</defs>
</svg>
