<svg width="196" height="121" viewBox="0 0 196 121" fill="none" xmlns="http://www.w3.org/2000/svg">
<g clip-path="url(#clip0_56393_736446)">
<mask id="mask0_56393_736446" style="mask-type:luminance" maskUnits="userSpaceOnUse" x="0" y="0" width="196" height="121">
<path d="M196 0H0V121H196V0Z" fill="white"/>
</mask>
<g mask="url(#mask0_56393_736446)">
<path d="M98 103.294C117.882 103.294 134 86.3777 134 65.511C134 44.6443 117.882 27.7285 98 27.7285C78.1177 27.7285 62 44.6443 62 65.511C62 86.3777 78.1177 103.294 98 103.294Z" fill="#BFDBEE"/>
<path d="M101.566 41.0244L107.715 30.2109C94.7051 30.7967 88.4116 34.7369 78.6738 45.6391C78.4086 45.936 78.1659 46.2645 77.962 46.6064C72.5578 55.6714 71.5411 61.4706 72.2703 71.9037C72.3004 72.3351 72.3768 72.7701 72.4943 73.1863C75.9067 85.2732 79.1457 91.0469 88.5278 97.698C97.3503 102.784 101.509 103.752 108.046 103.653L114.039 93.8462C114.889 92.4558 115.478 90.9224 115.778 89.3209C116.716 84.3185 114.744 79.216 110.686 76.1447L106.807 73.2096C105.651 72.3349 104.577 71.3318 103.622 70.241C100.103 66.219 98.1215 61.0087 98.1215 55.6645V54.0519C98.1215 49.4843 99.3086 44.995 101.566 41.0244Z" fill="#A6D2F0"/>
<path d="M98 28.5195C117.41 28.5195 133.209 45.0446 133.209 65.5107C133.209 85.9771 117.41 102.503 98 102.503C78.5902 102.503 62.791 85.9771 62.791 65.5107C62.7912 45.0446 78.5903 28.5195 98 28.5195Z" stroke="#0078CE" stroke-width="1.58201"/>
<g filter="url(#filter0_d_56393_736446)">
<path d="M77.3618 50.1797H118.641C119.494 50.1797 120.25 50.9167 120.25 51.9072V104.803C120.25 105.793 119.494 106.531 118.641 106.531H77.3618C76.5088 106.531 75.7524 105.793 75.7524 104.803V51.9072C75.7526 50.9167 76.5089 50.1797 77.3618 50.1797Z" fill="white" stroke="#111B22" stroke-width="1.58201"/>
</g>
<g filter="url(#filter1_d_56393_736446)">
<path d="M77.3618 24.4873H118.641C119.494 24.4873 120.25 25.2243 120.25 26.2148V41.3281C120.25 42.3188 119.494 43.0557 118.641 43.0557H77.3618C76.5088 43.0557 75.7524 42.3188 75.7524 41.3281V26.2148C75.7526 25.2243 76.5089 24.4873 77.3618 24.4873Z" fill="white" stroke="#111B22" stroke-width="1.58201"/>
</g>
<path d="M80.8604 29.8418H93.1279C93.5152 29.8418 93.7519 30.128 93.752 30.3887C93.752 30.6494 93.5153 30.9355 93.1279 30.9355H80.8604C80.4732 30.9354 80.2363 30.6493 80.2363 30.3887C80.2364 30.128 80.4733 29.842 80.8604 29.8418Z" stroke="#111B22" stroke-width="1.58201"/>
<path d="M80.8799 36.5303H101.916C102.324 36.5303 102.559 36.826 102.56 37.0771C102.56 37.3284 102.324 37.624 101.916 37.624H80.8799C80.4719 37.624 80.2363 37.3284 80.2363 37.0771C80.2364 36.826 80.472 36.5303 80.8799 36.5303Z" stroke="#111B22" stroke-width="1.58201"/>
<rect x="-0.340908" y="0.532204" width="0.888177" height="5.07147" rx="0.444089" transform="matrix(-0.974481 0.218706 0.206825 0.979712 114.756 14.6635)" fill="#999999" stroke="#0078CE" stroke-width="0.888177"/>
<rect x="-0.518671" y="-0.334192" width="0.877529" height="4.9536" rx="0.438764" transform="matrix(-0.207463 -0.97957 -0.974653 0.217904 129.05 25.9503)" fill="#999999" stroke="#0078CE" stroke-width="0.877529"/>
<rect x="-0.597355" y="0.135957" width="0.876711" height="5.02492" rx="0.438355" transform="matrix(-0.833309 -0.543969 -0.529409 0.854121 123.994 17.0455)" fill="#999999" stroke="#0078CE" stroke-width="0.876711"/>
<path d="M112.33 93.6759C112.33 91.7356 111.963 89.8142 111.252 88.0216C110.54 86.2289 109.496 84.6001 108.181 83.228C106.866 81.856 105.305 80.7676 103.586 80.0251C101.867 79.2826 100.025 78.9004 98.165 78.9004C96.3049 78.9004 94.4629 79.2826 92.7443 80.0251C91.0257 80.7676 89.4642 81.856 88.1489 83.228C86.8335 84.6001 85.7901 86.2289 85.0782 88.0216C84.3664 89.8142 84 91.7356 84 93.6759H98.165H112.33Z" fill="#BDD8EA"/>
<path fill-rule="evenodd" clip-rule="evenodd" d="M111.639 92.9724C111.562 91.3648 111.22 89.7811 110.629 88.2908C109.951 86.5836 108.957 85.0323 107.704 83.7256C106.451 82.4189 104.965 81.3823 103.328 80.6751C101.691 79.9679 99.9366 79.604 98.165 79.604C96.3934 79.604 94.6392 79.9679 93.0024 80.6751C91.3657 81.3823 89.8785 82.4189 88.6258 83.7256C87.3731 85.0323 86.3794 86.5836 85.7014 88.2908C85.1097 89.7811 84.7686 91.3648 84.6914 92.9724H111.639ZM112.314 92.9724C112.236 91.2723 111.878 89.5972 111.252 88.0216C110.54 86.2289 109.496 84.6001 108.181 83.228C106.866 81.856 105.305 80.7676 103.586 80.0251C101.867 79.2826 100.025 78.9004 98.165 78.9004C96.3049 78.9004 94.4629 79.2826 92.7443 80.0251C91.0257 80.7676 89.4642 81.856 88.1489 83.228C86.8335 84.6001 85.7901 86.2289 85.0782 88.0216C84.4526 89.5972 84.0938 91.2723 84.0161 92.9724C84.0054 93.2065 84 93.4411 84 93.6759H112.33C112.33 93.4411 112.325 93.2065 112.314 92.9724Z" fill="#111B22"/>
<path d="M98.0133 77.1611C102.059 77.1611 105.338 73.6915 105.338 69.4116C105.338 65.1317 102.059 61.6621 98.0133 61.6621C93.9682 61.6621 90.689 65.1317 90.689 69.4116C90.689 73.6915 93.9682 77.1611 98.0133 77.1611Z" fill="#BDD9EB"/>
<path d="M104.73 69.4117C104.73 65.4729 101.715 62.2952 98.0134 62.2952C94.3116 62.2952 91.2959 65.4729 91.2959 69.4117C91.2959 73.3503 94.3116 76.5281 98.0134 76.5281V77.1612L97.8243 77.1586C93.9294 77.0542 90.7901 73.7328 90.6914 69.6118L90.689 69.4117C90.689 65.1317 93.9682 61.6621 98.0134 61.6621L98.2025 61.6646C102.16 61.7708 105.338 65.1986 105.338 69.4117L105.335 69.6118C105.235 73.7992 101.995 77.1612 98.0134 77.1612V76.5281C101.715 76.528 104.73 73.3503 104.73 69.4117Z" fill="#17222B"/>
<g filter="url(#filter2_d_56393_736446)">
<path d="M88.7863 88.7889L89.3502 89.9259C89.4271 90.0842 89.6321 90.236 89.8051 90.265L90.8271 90.4362C91.4806 90.5461 91.6343 91.0241 91.1635 91.4957L90.3689 92.2968C90.2344 92.4325 90.1607 92.6941 90.2023 92.8814L90.4298 93.8731C90.6092 94.658 90.1959 94.9615 89.5071 94.5514L88.5493 93.9797C88.3763 93.8764 88.0911 93.8764 87.915 93.9797L86.957 94.5514C86.2715 94.9615 85.855 94.6547 86.0344 93.8731L86.2619 92.8814C86.3035 92.6941 86.2298 92.4325 86.0953 92.2968L85.3008 91.4957C84.8331 91.0241 84.9836 90.5461 85.6371 90.4362L86.6591 90.265C86.8289 90.236 87.034 90.0842 87.1108 89.9259L87.6747 88.7889C87.9822 88.1719 88.482 88.1719 88.7863 88.7889Z" fill="white"/>
</g>
<g filter="url(#filter3_d_56393_736446)">
<path d="M88.6451 87.9883C89.0357 87.9883 89.3264 88.2825 89.5023 88.639L90.0659 89.7755L90.0672 89.778C90.0757 89.7956 90.1041 89.8339 90.1563 89.8727C90.2085 89.9116 90.2543 89.9285 90.2745 89.9319L91.2961 90.1031C91.6822 90.168 92.0354 90.3626 92.1517 90.7271C92.2677 91.0912 92.0932 91.454 91.816 91.7321L91.8164 91.7325L91.0219 92.5338C91.0049 92.551 90.9765 92.5948 90.9576 92.6614C90.9392 92.7259 90.9392 92.7787 90.9446 92.8055L91.1722 93.797L91.2021 93.9562C91.258 94.3298 91.2054 94.7125 90.9074 94.9319C90.5654 95.1831 90.1173 95.0604 89.7481 94.8406L88.7897 94.2689C88.768 94.256 88.7173 94.239 88.6467 94.239C88.5785 94.239 88.5268 94.2548 88.5013 94.2689L87.5433 94.8406L87.5429 94.8402C87.1737 95.0608 86.7266 95.1815 86.3849 94.9302C86.0449 94.6798 86.0229 94.2175 86.1193 93.797L86.3464 92.8055C86.3518 92.7787 86.3518 92.726 86.3335 92.6614C86.3145 92.5948 86.2861 92.551 86.2691 92.5338L85.4746 91.7325C85.1989 91.4544 85.0254 91.0915 85.1406 90.7279C85.2562 90.363 85.6081 90.1681 85.9945 90.1031L87.0157 89.9319L87.0607 89.9161C87.0807 89.9066 87.105 89.8927 87.1312 89.8731C87.1835 89.834 87.2125 89.7956 87.2211 89.778L87.2223 89.7755L87.7859 88.6386L87.7863 88.6378C87.9638 88.2818 88.2551 87.9883 88.6451 87.9883ZM88.6451 88.6628C88.6321 88.6629 88.5198 88.6779 88.39 88.9378L87.8272 90.0724L87.8276 90.0727C87.7593 90.2133 87.647 90.3297 87.5353 90.4133C87.4235 90.4968 87.281 90.5708 87.1295 90.5967L87.1283 90.5971L86.1063 90.7684C85.8395 90.8133 85.7898 90.9121 85.7836 90.9316C85.777 90.9523 85.7618 91.0641 85.9537 91.2575L86.7481 92.0589C86.8656 92.1774 86.9414 92.3322 86.9826 92.4771C87.0237 92.6223 87.0402 92.7929 87.0044 92.9541L87.004 92.9561L86.7764 93.948C86.7383 94.1142 86.7378 94.2311 86.7513 94.3045C86.7579 94.3398 86.7672 94.3609 86.7736 94.3725C86.7796 94.3829 86.7837 94.3866 86.7845 94.387C86.7845 94.387 86.7892 94.3904 86.8003 94.3928C86.8124 94.3953 86.8347 94.3974 86.8696 94.3933C86.9418 94.3841 87.0518 94.3485 87.1971 94.2614L87.1975 94.261L88.1556 93.6892L88.1576 93.6884C88.3093 93.5993 88.4872 93.5643 88.6467 93.5643C88.8059 93.5643 88.9844 93.599 89.1359 93.6892L90.0935 94.261C90.2402 94.3485 90.3506 94.3841 90.4235 94.3937C90.4585 94.3978 90.4807 94.3962 90.4927 94.3937C90.5038 94.3912 90.5077 94.3879 90.5077 94.3879C90.5077 94.3879 90.5121 94.3846 90.5178 94.3746C90.5242 94.3634 90.5336 94.3423 90.5401 94.3066C90.5502 94.251 90.5521 94.171 90.5364 94.064L90.5146 93.948L90.287 92.9561L90.2866 92.9541C90.2508 92.7929 90.2673 92.6223 90.3085 92.4771C90.3496 92.3322 90.4254 92.1774 90.5429 92.0589L91.3374 91.2575L91.3382 91.2567C91.5313 91.0633 91.5154 90.9519 91.5091 90.932C91.5034 90.9144 91.4634 90.8367 91.275 90.7874L91.1847 90.7684L90.1627 90.5971C90.01 90.5715 89.8665 90.4979 89.7538 90.4141C89.6411 90.3303 89.5286 90.2135 89.4602 90.0727L88.8978 88.9382L88.8974 88.9374C88.7689 88.677 88.6573 88.6628 88.6451 88.6628Z" fill="#0078CE"/>
</g>
<g filter="url(#filter4_d_56393_736446)">
<path d="M98.4885 87.7016L99.2601 89.2575C99.3653 89.4741 99.6459 89.6818 99.8826 89.7215L101.281 89.9558C102.175 90.1061 102.386 90.7603 101.741 91.4056L100.654 92.5018C100.47 92.6875 100.369 93.0455 100.426 93.3019L100.737 94.6589C100.983 95.7332 100.417 96.1486 99.4749 95.5872L98.1641 94.8048C97.9274 94.6634 97.5372 94.6634 97.2961 94.8048L95.9853 95.5872C95.0472 96.1486 94.4772 95.7286 94.7227 94.6589L95.034 93.3019C95.091 93.0455 94.9902 92.6875 94.806 92.5018L93.7188 91.4056C93.0788 90.7603 93.2849 90.1061 94.1792 89.9558L95.5776 89.7215C95.81 89.6818 96.0906 89.4741 96.1958 89.2575L96.9673 87.7016C97.3882 86.8573 98.0721 86.8573 98.4885 87.7016Z" fill="white"/>
</g>
<g filter="url(#filter5_d_56393_736446)">
<path d="M98.1437 86.7305C98.6085 86.7305 98.9734 87.0815 99.2054 87.5516L99.9767 89.1069L99.9779 89.1093C100.001 89.156 100.055 89.2231 100.137 89.2847C100.22 89.3461 100.301 89.3796 100.353 89.3883L101.751 89.6228C102.258 89.7079 102.685 89.9567 102.824 90.3921C102.963 90.827 102.759 91.2772 102.395 91.642L102.395 91.6425L101.308 92.7385C101.266 92.7807 101.219 92.8613 101.189 92.9669C101.159 93.0711 101.156 93.1654 101.169 93.2261L101.481 94.5828C101.609 95.1475 101.568 95.7118 101.165 96.0075C100.762 96.3039 100.213 96.1717 99.7168 95.876H99.7163L98.4057 95.094L98.4052 95.0936C98.3518 95.0617 98.259 95.0352 98.1461 95.0352C98.0349 95.0352 97.9405 95.0613 97.8833 95.094L96.5726 95.876L96.5722 95.8756C96.0768 96.1721 95.5281 96.3027 95.1247 96.0058C94.7228 95.7102 94.6789 95.1471 94.8084 94.5828L95.1194 93.2261C95.1324 93.1654 95.1299 93.0711 95.1004 92.9669C95.0704 92.8613 95.0227 92.7807 94.9809 92.7385L93.8937 91.6425C93.5318 91.2775 93.3286 90.827 93.4661 90.3925C93.6042 89.9568 94.0306 89.7079 94.5375 89.6228L95.9361 89.3883C95.9857 89.3795 96.0646 89.3464 96.1467 89.285C96.2293 89.2233 96.2839 89.1561 96.3066 89.1093L96.3078 89.1069L97.0796 87.5512V87.5504C97.3137 87.0808 97.6795 86.7306 98.1437 86.7305ZM98.1437 87.4051C98.0566 87.4052 97.8698 87.4767 97.6833 87.8505L97.6837 87.8509L96.9132 89.4037L96.9136 89.4041C96.8311 89.5739 96.6924 89.719 96.5504 89.8252C96.4084 89.9313 96.2315 90.0223 96.0487 90.0536H96.0475L94.6493 90.288C94.2623 90.3531 94.1383 90.5059 94.1096 90.5961C94.0806 90.6877 94.0947 90.8871 94.3728 91.1675L95.4599 92.2636C95.6023 92.4071 95.6968 92.5987 95.749 92.7827C95.8013 92.9669 95.8209 93.1789 95.7774 93.3747L95.777 93.3767L95.4656 94.7337C95.3496 95.2387 95.468 95.4208 95.5243 95.4622C95.579 95.5024 95.784 95.5617 96.2265 95.2972L96.2268 95.2968L97.5375 94.5144L97.5395 94.5131C97.7237 94.4053 97.9443 94.3606 98.1461 94.3606C98.3477 94.3606 98.5682 94.4049 98.7515 94.5144L100.062 95.2968C100.509 95.5626 100.713 95.5033 100.766 95.4639C100.818 95.4262 100.925 95.2649 100.842 94.8249L100.823 94.7337L100.512 93.3767L100.511 93.3747C100.468 93.1789 100.487 92.9669 100.54 92.7827C100.592 92.5987 100.687 92.4071 100.829 92.2636L101.916 91.1675L101.917 91.1667C102.197 90.8864 102.21 90.6877 102.181 90.597C102.152 90.5065 102.027 90.3532 101.639 90.288L100.241 90.0536C100.056 90.0225 99.8781 89.9321 99.735 89.8256C99.592 89.7192 99.4535 89.574 99.371 89.4041L98.6008 87.8509L98.6004 87.8501C98.4159 87.476 98.2301 87.4051 98.1437 87.4051Z" fill="#0078CE"/>
</g>
<g filter="url(#filter6_d_56393_736446)">
<path d="M108.319 88.7859L108.883 89.9229C108.959 90.0812 109.165 90.233 109.338 90.2621L110.36 90.4333C111.013 90.5431 111.167 91.0212 110.696 91.4928L109.902 92.2939C109.767 92.4295 109.693 92.6912 109.735 92.8785L109.962 93.8703C110.142 94.6552 109.729 94.9587 109.04 94.5486L108.082 93.9768C107.909 93.8732 107.624 93.8732 107.448 93.9768L106.49 94.5486C105.804 94.9587 105.387 94.6519 105.567 93.8703L105.795 92.8785C105.836 92.6912 105.762 92.4295 105.628 92.2939L104.833 91.4928C104.366 91.0212 104.516 90.5431 105.17 90.4333L106.192 90.2621C106.361 90.233 106.567 90.0812 106.643 89.9229L107.207 88.7859C107.515 88.169 108.015 88.169 108.319 88.7859Z" fill="white"/>
</g>
<g filter="url(#filter7_d_56393_736446)">
<path d="M108.178 87.9854C108.569 87.9854 108.859 88.2795 109.035 88.636H109.035L109.599 89.7726L109.6 89.7751C109.609 89.7926 109.637 89.831 109.689 89.8698C109.741 89.9087 109.787 89.9255 109.807 89.9289L110.829 90.1002C111.215 90.1651 111.568 90.3596 111.685 90.7241C111.801 91.0882 111.626 91.4511 111.349 91.7292L111.349 91.7295L110.555 92.5309C110.538 92.5481 110.509 92.5918 110.49 92.6584C110.472 92.723 110.472 92.7758 110.477 92.8026L110.705 93.7942L110.735 93.9534C110.791 94.327 110.738 94.7097 110.44 94.9286C110.098 95.1803 109.65 95.0576 109.281 94.8378L108.322 94.2661C108.301 94.2532 108.25 94.2358 108.18 94.2358C108.111 94.2358 108.059 94.252 108.034 94.2661L107.076 94.8378L107.076 94.8374C106.707 95.058 106.26 95.1787 105.917 94.927C105.577 94.677 105.556 94.2142 105.652 93.7942L105.879 92.8026C105.885 92.7758 105.885 92.723 105.866 92.6584C105.847 92.5918 105.819 92.548 105.802 92.5309L105.007 91.7295C104.732 91.4515 104.558 91.0886 104.673 90.725C104.789 90.3601 105.141 90.1652 105.527 90.1002H105.528L106.549 89.9289L106.593 89.9131C106.614 89.9037 106.638 89.8897 106.664 89.8702C106.716 89.8311 106.745 89.7927 106.754 89.7751L106.755 89.7726L107.319 88.6356L107.319 88.6348C107.496 88.2788 107.788 87.9854 108.178 87.9854ZM108.178 88.6599C108.165 88.66 108.052 88.675 107.923 88.9349L107.36 90.0694L107.36 90.0698C107.292 90.2104 107.18 90.3268 107.068 90.4103C106.956 90.4939 106.814 90.5678 106.662 90.5938L106.661 90.5942L105.639 90.7654C105.372 90.8103 105.322 90.9092 105.316 90.9286C105.31 90.9494 105.295 91.0611 105.486 91.2546L106.281 92.0559C106.398 92.1744 106.474 92.3292 106.515 92.4742C106.556 92.6194 106.573 92.7899 106.537 92.9512L106.537 92.9532L106.309 93.9447C106.271 94.111 106.27 94.2283 106.284 94.3017C106.291 94.337 106.3 94.3581 106.306 94.3697C106.312 94.3801 106.316 94.3834 106.317 94.3842C106.318 94.3847 106.322 94.3876 106.333 94.3896C106.345 94.3925 106.367 94.3946 106.402 94.39C106.475 94.3809 106.585 94.3457 106.73 94.2586L106.73 94.2582L107.688 93.6864L107.69 93.6852C107.842 93.5963 108.02 93.5614 108.18 93.5614C108.338 93.5614 108.517 93.596 108.669 93.6864L109.626 94.2582C109.773 94.3457 109.883 94.3813 109.956 94.3905C109.991 94.395 110.014 94.3929 110.026 94.3905C110.036 94.3884 110.04 94.3851 110.041 94.3851C110.041 94.3847 110.045 94.3818 110.05 94.3718C110.057 94.3602 110.066 94.339 110.073 94.3034C110.083 94.2482 110.085 94.1682 110.069 94.0608L110.047 93.9447L109.82 92.9532L109.82 92.9512C109.783 92.7899 109.8 92.6194 109.841 92.4742C109.883 92.3293 109.958 92.1744 110.076 92.0559L110.87 91.2546L110.871 91.2538C111.064 91.0604 111.048 90.949 111.042 90.9291C111.036 90.9115 110.996 90.8337 110.808 90.7845L110.718 90.7654L109.696 90.5942C109.543 90.5685 109.399 90.495 109.286 90.4112C109.174 90.3274 109.061 90.2105 108.993 90.0698L108.431 88.9353L108.43 88.9344C108.302 88.6741 108.19 88.6599 108.178 88.6599Z" fill="#0078CE"/>
</g>
</g>
</g>
<defs>
<filter id="filter0_d_56393_736446" x="70.2154" y="42.2696" width="55.5721" height="67.4256" filterUnits="userSpaceOnUse" color-interpolation-filters="sRGB">
<feFlood flood-opacity="0" result="BackgroundImageFix"/>
<feColorMatrix in="SourceAlpha" type="matrix" values="0 0 0 0 0 0 0 0 0 0 0 0 0 0 0 0 0 0 127 0" result="hardAlpha"/>
<feOffset dy="-2.37301"/>
<feGaussianBlur stdDeviation="2.37301"/>
<feColorMatrix type="matrix" values="0 0 0 0 0.788235 0 0 0 0 0.803922 0 0 0 0 0.85098 0 0 0 0.349 0"/>
<feBlend mode="normal" in2="BackgroundImageFix" result="effect1_dropShadow_56393_736446"/>
<feBlend mode="normal" in="SourceGraphic" in2="effect1_dropShadow_56393_736446" result="shape"/>
</filter>
<filter id="filter1_d_56393_736446" x="70.2154" y="16.5773" width="55.5721" height="29.6424" filterUnits="userSpaceOnUse" color-interpolation-filters="sRGB">
<feFlood flood-opacity="0" result="BackgroundImageFix"/>
<feColorMatrix in="SourceAlpha" type="matrix" values="0 0 0 0 0 0 0 0 0 0 0 0 0 0 0 0 0 0 127 0" result="hardAlpha"/>
<feOffset dy="-2.37301"/>
<feGaussianBlur stdDeviation="2.37301"/>
<feColorMatrix type="matrix" values="0 0 0 0 0.788235 0 0 0 0 0.803922 0 0 0 0 0.85098 0 0 0 0.349 0"/>
<feBlend mode="normal" in2="BackgroundImageFix" result="effect1_dropShadow_56393_736446"/>
<feBlend mode="normal" in="SourceGraphic" in2="effect1_dropShadow_56393_736446" result="shape"/>
</filter>
<filter id="filter2_d_56393_736446" x="41.8593" y="53.2509" width="92.7473" height="92.7473" filterUnits="userSpaceOnUse" color-interpolation-filters="sRGB">
<feFlood flood-opacity="0" result="BackgroundImageFix"/>
<feColorMatrix in="SourceAlpha" type="matrix" values="0 0 0 0 0 0 0 0 0 0 0 0 0 0 0 0 0 0 127 0" result="hardAlpha"/>
<feOffset dy="8.09431"/>
<feGaussianBlur stdDeviation="21.5848"/>
<feColorMatrix type="matrix" values="0 0 0 0 0.0705882 0 0 0 0 0.105882 0 0 0 0 0.129412 0 0 0 0.4 0"/>
<feBlend mode="normal" in2="BackgroundImageFix" result="effect1_dropShadow_56393_736446"/>
<feBlend mode="normal" in="SourceGraphic" in2="effect1_dropShadow_56393_736446" result="shape"/>
</filter>
<filter id="filter3_d_56393_736446" x="41.935" y="52.9131" width="93.4226" height="93.4221" filterUnits="userSpaceOnUse" color-interpolation-filters="sRGB">
<feFlood flood-opacity="0" result="BackgroundImageFix"/>
<feColorMatrix in="SourceAlpha" type="matrix" values="0 0 0 0 0 0 0 0 0 0 0 0 0 0 0 0 0 0 127 0" result="hardAlpha"/>
<feOffset dy="8.09431"/>
<feGaussianBlur stdDeviation="21.5848"/>
<feColorMatrix type="matrix" values="0 0 0 0 0.0705882 0 0 0 0 0.105882 0 0 0 0 0.129412 0 0 0 0.4 0"/>
<feBlend mode="normal" in2="BackgroundImageFix" result="effect1_dropShadow_56393_736446"/>
<feBlend mode="normal" in="SourceGraphic" in2="effect1_dropShadow_56393_736446" result="shape"/>
</filter>
<filter id="filter4_d_56393_736446" x="50.1771" y="51.9931" width="95.1081" height="95.1076" filterUnits="userSpaceOnUse" color-interpolation-filters="sRGB">
<feFlood flood-opacity="0" result="BackgroundImageFix"/>
<feColorMatrix in="SourceAlpha" type="matrix" values="0 0 0 0 0 0 0 0 0 0 0 0 0 0 0 0 0 0 127 0" result="hardAlpha"/>
<feOffset dy="8.09431"/>
<feGaussianBlur stdDeviation="21.5848"/>
<feColorMatrix type="matrix" values="0 0 0 0 0.0705882 0 0 0 0 0.105882 0 0 0 0 0.129412 0 0 0 0.4 0"/>
<feBlend mode="normal" in2="BackgroundImageFix" result="effect1_dropShadow_56393_736446"/>
<feBlend mode="normal" in="SourceGraphic" in2="effect1_dropShadow_56393_736446" result="shape"/>
</filter>
<filter id="filter5_d_56393_736446" x="50.2533" y="51.6552" width="95.7839" height="95.7834" filterUnits="userSpaceOnUse" color-interpolation-filters="sRGB">
<feFlood flood-opacity="0" result="BackgroundImageFix"/>
<feColorMatrix in="SourceAlpha" type="matrix" values="0 0 0 0 0 0 0 0 0 0 0 0 0 0 0 0 0 0 127 0" result="hardAlpha"/>
<feOffset dy="8.09431"/>
<feGaussianBlur stdDeviation="21.5848"/>
<feColorMatrix type="matrix" values="0 0 0 0 0.0705882 0 0 0 0 0.105882 0 0 0 0 0.129412 0 0 0 0.4 0"/>
<feBlend mode="normal" in2="BackgroundImageFix" result="effect1_dropShadow_56393_736446"/>
<feBlend mode="normal" in="SourceGraphic" in2="effect1_dropShadow_56393_736446" result="shape"/>
</filter>
<filter id="filter6_d_56393_736446" x="61.392" y="53.248" width="92.7468" height="92.7473" filterUnits="userSpaceOnUse" color-interpolation-filters="sRGB">
<feFlood flood-opacity="0" result="BackgroundImageFix"/>
<feColorMatrix in="SourceAlpha" type="matrix" values="0 0 0 0 0 0 0 0 0 0 0 0 0 0 0 0 0 0 127 0" result="hardAlpha"/>
<feOffset dy="8.09431"/>
<feGaussianBlur stdDeviation="21.5848"/>
<feColorMatrix type="matrix" values="0 0 0 0 0.0705882 0 0 0 0 0.105882 0 0 0 0 0.129412 0 0 0 0.4 0"/>
<feBlend mode="normal" in2="BackgroundImageFix" result="effect1_dropShadow_56393_736446"/>
<feBlend mode="normal" in="SourceGraphic" in2="effect1_dropShadow_56393_736446" result="shape"/>
</filter>
<filter id="filter7_d_56393_736446" x="61.4677" y="52.9101" width="93.4231" height="93.4221" filterUnits="userSpaceOnUse" color-interpolation-filters="sRGB">
<feFlood flood-opacity="0" result="BackgroundImageFix"/>
<feColorMatrix in="SourceAlpha" type="matrix" values="0 0 0 0 0 0 0 0 0 0 0 0 0 0 0 0 0 0 127 0" result="hardAlpha"/>
<feOffset dy="8.09431"/>
<feGaussianBlur stdDeviation="21.5848"/>
<feColorMatrix type="matrix" values="0 0 0 0 0.0705882 0 0 0 0 0.105882 0 0 0 0 0.129412 0 0 0 0.4 0"/>
<feBlend mode="normal" in2="BackgroundImageFix" result="effect1_dropShadow_56393_736446"/>
<feBlend mode="normal" in="SourceGraphic" in2="effect1_dropShadow_56393_736446" result="shape"/>
</filter>
<clipPath id="clip0_56393_736446">
<rect width="196" height="121" fill="white"/>
</clipPath>
</defs>
</svg>
