<svg width="196" height="121" viewBox="0 0 196 121" fill="none" xmlns="http://www.w3.org/2000/svg">
<g clip-path="url(#clip0_56415_737910)">
<mask id="mask0_56415_737910" style="mask-type:luminance" maskUnits="userSpaceOnUse" x="0" y="0" width="196" height="121">
<path d="M196 0H0V121H196V0Z" fill="white"/>
</mask>
<g mask="url(#mask0_56415_737910)">
<path d="M132.233 18.8574H53.0576C48.8324 18.8574 45.4072 22.2127 45.4072 26.3517V91.1668C45.4072 95.3057 48.8324 98.661 53.0576 98.661H132.233C136.458 98.661 139.884 95.3057 139.884 91.1668V26.3517C139.884 22.2127 136.458 18.8574 132.233 18.8574Z" fill="#BFDBEE" stroke="black" stroke-width="1.21528"/>
<path d="M142.438 32.9805H63.4294C59.2043 32.9805 55.7791 36.3358 55.7791 40.4747V98.3709C55.7791 102.51 59.2043 105.865 63.4294 105.865H142.438C146.663 105.865 150.088 102.51 150.088 98.3709V40.4747C150.088 36.3358 146.663 32.9805 142.438 32.9805Z" fill="white" stroke="black" stroke-width="1.21528"/>
<g clip-path="url(#clip1_56415_737910)">
<path d="M83.7512 60.75C83.7512 58.9598 84.4624 57.2429 85.7283 55.977C86.9941 54.7112 88.711 54 90.5012 54H117.501C119.291 54 121.008 54.7112 122.274 55.977C123.54 57.2429 124.251 58.9598 124.251 60.75V83.25C124.251 85.0402 123.54 86.7571 122.274 88.023C121.008 89.2888 119.291 90 117.501 90H90.5012C88.711 90 86.9941 89.2888 85.7283 88.023C84.4624 86.7571 83.7512 85.0402 83.7512 83.25V60.75Z" stroke="#0078CE" stroke-width="3" stroke-linecap="round" stroke-linejoin="round"/>
<path d="M110.751 63H115.251" stroke="#0078CE" stroke-width="2" stroke-linecap="round" stroke-linejoin="round"/>
<path d="M110.751 72H115.251" stroke="#0078CE" stroke-width="2" stroke-linecap="round" stroke-linejoin="round"/>
<path d="M92.7512 81H115.251" stroke="#0078CE" stroke-width="2" stroke-linecap="round" stroke-linejoin="round"/>
<mask id="mask1_56415_737910" style="mask-type:luminance" maskUnits="userSpaceOnUse" x="87" y="56" width="24" height="23">
<path d="M110.081 56H87.0012V78.609H110.081V56Z" fill="white"/>
</mask>
<g mask="url(#mask1_56415_737910)">
<path d="M94.6943 62.5943C94.6943 63.5937 95.0996 64.5522 95.821 65.2588C96.5424 65.9654 97.521 66.3625 98.5408 66.3625C99.5614 66.3625 100.54 65.9654 101.261 65.2588C101.983 64.5522 102.388 63.5937 102.388 62.5943C102.388 61.5949 101.983 60.6365 101.261 59.9298C100.54 59.2231 99.5614 58.8262 98.5408 58.8262C97.521 58.8262 96.5424 59.2231 95.821 59.9298C95.0996 60.6365 94.6943 61.5949 94.6943 62.5943Z" stroke="#0078CE" stroke-width="1.88408" stroke-linecap="round" stroke-linejoin="round"/>
<path d="M92.7712 75.7831V73.899C92.7712 72.8997 93.1765 71.9412 93.8979 71.2345C94.6193 70.5279 95.5979 70.1309 96.6177 70.1309H100.464C101.485 70.1309 102.463 70.5279 103.185 71.2345C103.906 71.9412 104.311 72.8997 104.311 73.899V75.7831" stroke="#0078CE" stroke-width="1.88408" stroke-linecap="round" stroke-linejoin="round"/>
</g>
</g>
<g filter="url(#filter0_d_56415_737910)">
<path d="M38.4888 35.9083C38.4888 38.3947 38.989 40.8568 39.9609 43.1539C40.9327 45.4511 42.3573 47.5383 44.1532 49.2965C45.949 51.0546 48.0809 52.4493 50.4273 53.4008C52.7737 54.3523 55.2885 54.842 57.8283 54.842C60.368 54.842 62.8828 54.3523 65.2292 53.4008C67.5755 52.4493 69.7075 51.0546 71.5033 49.2965C73.2992 47.5383 74.7237 45.4511 75.6956 43.1539C76.6675 40.8568 77.1677 38.3947 77.1677 35.9083C77.1677 30.8868 75.1302 26.0709 71.5033 22.5202C67.8765 18.9694 62.9574 16.9746 57.8283 16.9746C52.6991 16.9746 47.78 18.9694 44.1532 22.5202C40.5262 26.0709 38.4888 30.8868 38.4888 35.9083Z" fill="#BFDBEE" stroke="#0078CE" stroke-width="2.09842" stroke-linecap="round" stroke-linejoin="round"/>
<path d="M51.3813 36.0961L55.4355 40.0652L63.5581 32.127" stroke="#0078CE" stroke-width="2.09842" stroke-linecap="round" stroke-linejoin="round"/>
</g>
<path d="M49.7137 30.6168C42.7852 25.254 50.5209 19.4512 50.5209 19.4512C45.3039 21.8222 43.167 24.0596 40.7793 28.7255C40.5728 29.1291 40.418 29.558 40.3196 29.9974C39.6198 33.1222 39.4411 35.3044 39.5448 38.2376C39.5977 39.7337 40.0057 41.1997 40.7142 42.5341C41.7573 44.4985 42.7017 46.0787 44.0902 48.156C44.6592 49.0072 45.3844 49.7575 46.2494 50.3369C49.0862 52.2369 51.5014 53.3345 53.5805 54.0219C54.3728 54.2839 55.2091 54.3913 56.0474 54.3994L60.5315 54.4432C60.5315 54.4432 56.1002 52.9099 61.8971 48.595C67.694 44.2801 56.6423 35.9797 49.7137 30.6168Z" fill="#0078CE" fill-opacity="0.2"/>
<path d="M31.766 29.9662C31.5405 30.0641 31.2776 29.9639 31.1789 29.7426C31.0801 29.5212 31.1828 29.2625 31.4082 29.1646L35.3151 27.4691C35.5405 27.3712 35.8034 27.4713 35.9022 27.6927C36.0009 27.914 35.8983 28.1728 35.6728 28.2706L31.766 29.9662Z" fill="#999999" stroke="#0078CE" stroke-width="0.8748"/>
<path d="M38.6174 13.7686C38.5169 13.5433 38.6214 13.2799 38.8509 13.1803C39.0803 13.0807 39.3479 13.1826 39.4484 13.4079L41.105 17.1202C41.2055 17.3454 41.101 17.6088 40.8716 17.7084C40.6421 17.808 40.3746 17.7061 40.274 17.4808L38.6174 13.7686Z" fill="#999999" stroke="#0078CE" stroke-width="0.890345"/>
<path d="M31.5782 20.7401C31.345 20.6536 31.2308 20.3995 31.3232 20.1726C31.4156 19.9457 31.6795 19.8319 31.9128 19.9184L35.8276 21.3707C36.0609 21.4573 36.175 21.7114 36.0826 21.9383C35.9902 22.1652 35.7263 22.279 35.4931 22.1925L31.5782 20.7401Z" fill="#999999" stroke="#0078CE" stroke-width="0.884686"/>
</g>
</g>
<defs>
<filter id="filter0_d_56415_737910" x="33.9219" y="14.167" width="47.8127" height="47.001" filterUnits="userSpaceOnUse" color-interpolation-filters="sRGB">
<feFlood flood-opacity="0" result="BackgroundImageFix"/>
<feColorMatrix in="SourceAlpha" type="matrix" values="0 0 0 0 0 0 0 0 0 0 0 0 0 0 0 0 0 0 127 0" result="hardAlpha"/>
<feOffset dy="1.75879"/>
<feGaussianBlur stdDeviation="1.75879"/>
<feColorMatrix type="matrix" values="0 0 0 0 0.0705882 0 0 0 0 0.105882 0 0 0 0 0.129412 0 0 0 0.1 0"/>
<feBlend mode="normal" in2="BackgroundImageFix" result="effect1_dropShadow_56415_737910"/>
<feBlend mode="normal" in="SourceGraphic" in2="effect1_dropShadow_56415_737910" result="shape"/>
</filter>
<clipPath id="clip0_56415_737910">
<rect width="196" height="121" fill="white"/>
</clipPath>
<clipPath id="clip1_56415_737910">
<rect width="54" height="54" fill="white" transform="translate(77.0012 45)"/>
</clipPath>
</defs>
</svg>
