<svg width="196" height="121" viewBox="0 0 196 121" fill="none" xmlns="http://www.w3.org/2000/svg">
<g clip-path="url(#clip0_56415_737958)">
<mask id="mask0_56415_737958" style="mask-type:luminance" maskUnits="userSpaceOnUse" x="0" y="0" width="196" height="121">
<path d="M196 0H0V121H196V0Z" fill="white"/>
</mask>
<g mask="url(#mask0_56415_737958)">
<path d="M76.4105 23.877H122.417C123.561 23.877 124.659 24.4693 125.468 25.5236C126.278 26.578 126.732 28.008 126.732 29.4991V100.8C126.732 102.291 126.278 103.721 125.468 104.775C124.659 105.829 123.561 106.422 122.417 106.422H70.5152C69.3706 106.422 68.2729 105.829 67.4635 104.775C66.6542 103.721 66.1995 102.291 66.1995 100.8V37.3139L76.4105 23.877Z" fill="white"/>
<path fill-rule="evenodd" clip-rule="evenodd" d="M75.6784 23.327C75.8517 23.0989 76.1226 22.9648 76.41 22.9648H122.416C123.896 22.9648 125.246 23.732 126.197 24.9702C127.143 26.2032 127.649 27.8344 127.649 29.4996V100.8C127.649 102.465 127.143 104.096 126.197 105.329C125.246 106.568 123.896 107.335 122.416 107.335H70.5147C69.0348 107.335 67.6846 106.568 66.7341 105.329C65.7876 104.096 65.2817 102.465 65.2817 100.8V37.3144C65.2817 37.1157 65.3469 36.9225 65.4673 36.764L75.6784 23.327ZM76.8663 24.7899L67.1161 37.6205V100.8C67.1161 102.117 67.5196 103.346 68.1918 104.222C68.8601 105.092 69.7053 105.51 70.5147 105.51H122.416C123.225 105.51 124.071 105.092 124.739 104.222C125.411 103.346 125.815 102.117 125.815 100.8V29.4996C125.815 28.1826 125.411 26.9537 124.739 26.078C124.071 25.2075 123.225 24.7899 122.416 24.7899H76.8663Z" fill="#111B22"/>
<path d="M66.1995 37.3139H74.5634C75.0541 37.311 75.5239 37.055 75.8701 36.6019C76.2162 36.1488 76.4106 35.5356 76.4105 34.8964V23.877L66.1995 37.3139Z" fill="white" stroke="#111B22" stroke-width="1.83433" stroke-linecap="round" stroke-linejoin="round"/>
<rect x="74.2992" y="42.9493" width="23.2626" height="1.45258" rx="0.726289" transform="rotate(0.260546 74.2992 42.9493)" fill="#DCDCDC" stroke="#111B22" stroke-width="1.45258"/>
<rect x="74.3609" y="61.1427" width="40.6722" height="1.45258" rx="0.726289" transform="rotate(0.260546 74.3609 61.1427)" fill="#DCDCDC" stroke="#111B22" stroke-width="1.45258"/>
<rect x="74.2992" y="75.67" width="38.3325" height="1.45258" rx="0.726289" transform="rotate(0.260546 74.2992 75.67)" fill="#DCDCDC" stroke="#111B22" stroke-width="1.45258"/>
<rect x="74.2992" y="90.6417" width="33.0268" height="1.45258" rx="0.726289" transform="rotate(0.260546 74.2992 90.6417)" fill="#DCDCDC" stroke="#111B22" stroke-width="1.45258"/>
<rect x="74.2718" y="48.7608" width="13.7995" height="1.45258" rx="0.726289" transform="rotate(0.260546 74.2718 48.7608)" fill="#EEEEEE" stroke="#111B22" stroke-width="1.45258"/>
<rect x="74.3407" y="66.9532" width="13.7995" height="1.45258" rx="0.726289" transform="rotate(0.260546 74.3407 66.9532)" fill="#EEEEEE" stroke="#111B22" stroke-width="1.45258"/>
<rect x="74.2718" y="81.4796" width="13.7995" height="1.45258" rx="0.726289" transform="rotate(0.260546 74.2718 81.4796)" fill="#EEEEEE" stroke="#111B22" stroke-width="1.45258"/>
<rect x="74.2718" y="96.4532" width="13.7995" height="1.45258" rx="0.726289" transform="rotate(0.260546 74.2718 96.4532)" fill="#EEEEEE" stroke="#111B22" stroke-width="1.45258"/>
<g filter="url(#filter0_d_56415_737958)">
<path d="M102.446 32.6067C102.446 34.9512 102.907 37.2729 103.803 39.439C104.699 41.6051 106.012 43.5733 107.668 45.2311C109.323 46.889 111.289 48.2041 113.452 49.1014C115.615 49.9986 117.934 50.4604 120.275 50.4604C122.616 50.4604 124.935 49.9986 127.098 49.1014C129.261 48.2041 131.227 46.889 132.882 45.2311C134.538 43.5733 135.851 41.6051 136.747 39.439C137.643 37.2729 138.105 34.9512 138.105 32.6067C138.105 27.8716 136.226 23.3304 132.882 19.9822C129.539 16.6339 125.004 14.7529 120.275 14.7529C115.546 14.7529 111.011 16.6339 107.668 19.9822C104.324 23.3304 102.446 27.8716 102.446 32.6067Z" fill="#BDD9EB"/>
<path fill-rule="evenodd" clip-rule="evenodd" d="M106.827 19.1493C110.393 15.5786 115.231 13.5713 120.277 13.5713C125.323 13.5713 130.161 15.5786 133.727 19.1493C137.292 22.7197 139.294 27.5605 139.294 32.6066C139.294 35.1053 138.803 37.5797 137.847 39.8886C136.892 42.1975 135.492 44.2959 133.727 46.0639C131.961 47.8318 129.865 49.2346 127.557 50.1919C125.249 51.1491 122.775 51.6419 120.277 51.6419C117.779 51.6419 115.305 51.1491 112.997 50.1919C110.689 49.2346 108.593 47.8318 106.827 46.0639C105.062 44.2959 103.662 42.1975 102.707 39.8886C101.751 37.5797 101.26 35.1053 101.26 32.6066C101.26 27.5605 103.262 22.7197 106.827 19.1493ZM120.277 15.9344C115.866 15.9344 111.634 17.6891 108.512 20.8149C105.39 23.941 103.635 28.1824 103.635 32.6066C103.635 34.797 104.066 36.9659 104.903 38.9892C105.74 41.0125 106.966 42.8504 108.512 44.3983C110.058 45.9461 111.892 47.1734 113.911 48.0107C115.929 48.8479 118.093 49.2787 120.277 49.2787C122.461 49.2787 124.625 48.8479 126.643 48.0107C128.662 47.1734 130.496 45.9461 132.042 44.3983C133.588 42.8504 134.814 41.0125 135.651 38.9892C136.488 36.9659 136.919 34.797 136.919 32.6066C136.919 28.1824 135.164 23.941 132.042 20.8149C128.92 17.6891 124.688 15.9344 120.277 15.9344Z" fill="#0078CE"/>
<g clip-path="url(#clip1_56415_737958)">
<path d="M129.346 34.8306L121.581 42.5215L113.815 34.8306C113.303 34.3322 112.9 33.7331 112.63 33.0711C112.361 32.4091 112.232 31.6985 112.251 30.984C112.269 30.2696 112.436 29.5668 112.74 28.9199C113.043 28.2729 113.478 27.6959 114.016 27.2252C114.553 26.7544 115.183 26.4001 115.864 26.1845C116.546 25.9689 117.264 25.8968 117.975 25.9726C118.686 26.0484 119.373 26.2705 119.993 26.625C120.614 26.9794 121.154 27.4586 121.581 28.0322C122.009 27.4627 122.55 26.9878 123.17 26.6371C123.79 26.2864 124.476 26.0675 125.185 25.994C125.894 25.9206 126.61 25.9942 127.289 26.2103C127.968 26.4264 128.595 26.7803 129.13 27.2498C129.666 27.7193 130.099 28.2944 130.403 28.9391C130.706 29.5837 130.873 30.284 130.894 30.9962C130.914 31.7084 130.787 32.4171 130.521 33.0779C130.254 33.7388 129.855 34.3376 129.346 34.8368" stroke="#0078CE" stroke-width="2.0708" stroke-linecap="round" stroke-linejoin="round"/>
<path d="M121.581 28.0264L118.171 31.4359C117.977 31.6301 117.868 31.8934 117.868 32.168C117.868 32.4425 117.977 32.7058 118.171 32.9L118.734 33.4622C119.448 34.1766 120.608 34.1766 121.322 33.4622L122.357 32.4268C122.975 31.809 123.813 31.4618 124.687 31.4618C125.561 31.4618 126.399 31.809 127.017 32.4268L129.346 34.7565" stroke="#0078CE" stroke-width="2.0708" stroke-linecap="round" stroke-linejoin="round"/>
<path d="M122.099 37.8623L124.169 39.9331" stroke="#0078CE" stroke-width="2.0708" stroke-linecap="round" stroke-linejoin="round"/>
<path d="M124.687 35.2744L126.758 37.3452" stroke="#0078CE" stroke-width="2.0708" stroke-linecap="round" stroke-linejoin="round"/>
</g>
</g>
<rect x="-0.688446" y="-0.449894" width="1.16651" height="6.78333" rx="0.583253" transform="matrix(-0.202223 -0.97934 -0.978132 0.207986 150.34 37.1081)" fill="#999999" stroke="#0078CE" stroke-width="1.16651"/>
<rect x="0.462627" y="-0.70793" width="1.19248" height="6.58423" rx="0.596238" transform="matrix(0.978131 -0.207988 -0.202221 -0.97934 135.179 56.1989)" fill="#999999" stroke="#0078CE" stroke-width="1.19248"/>
<rect x="-0.169733" y="-0.809688" width="1.18304" height="6.65749" rx="0.591518" transform="matrix(0.556157 -0.831077 -0.843103 -0.537753 147.039 49.4879)" fill="#999999" stroke="#0078CE" stroke-width="1.18304"/>
<path d="M114.568 25.3303C109.8 18.2973 118.306 14.75 118.306 14.75C113.066 15.6377 110.541 17.197 107.215 20.9471C106.818 21.3948 106.478 21.8932 106.205 22.4255C104.914 24.9385 104.192 26.8587 103.554 29.3253C103.064 31.2179 103.03 33.2014 103.404 35.1202C103.745 36.8664 104.115 38.4104 104.654 40.3207C105.017 41.6065 105.608 42.8229 106.446 43.8637C108.209 46.0535 109.846 47.5797 111.34 48.711C112.218 49.3765 113.233 49.83 114.286 50.1551L117.839 51.2521C117.839 51.2521 114.278 48.5878 120.643 45.962C127.008 43.3361 119.335 32.3633 114.568 25.3303Z" fill="#0078CE" fill-opacity="0.2"/>
</g>
</g>
<defs>
<filter id="filter0_d_56415_737958" x="88.593" y="7.23779" width="63.3679" height="63.4043" filterUnits="userSpaceOnUse" color-interpolation-filters="sRGB">
<feFlood flood-opacity="0" result="BackgroundImageFix"/>
<feColorMatrix in="SourceAlpha" type="matrix" values="0 0 0 0 0 0 0 0 0 0 0 0 0 0 0 0 0 0 127 0" result="hardAlpha"/>
<feOffset dy="6.3335"/>
<feGaussianBlur stdDeviation="6.3335"/>
<feColorMatrix type="matrix" values="0 0 0 0 0.0705882 0 0 0 0 0.105882 0 0 0 0 0.129412 0 0 0 0.1 0"/>
<feBlend mode="normal" in2="BackgroundImageFix" result="effect1_dropShadow_56415_737958"/>
<feBlend mode="normal" in="SourceGraphic" in2="effect1_dropShadow_56415_737958" result="shape"/>
</filter>
<clipPath id="clip0_56415_737958">
<rect width="196" height="121" fill="white"/>
</clipPath>
<clipPath id="clip1_56415_737958">
<rect width="24.8496" height="24.8496" fill="white" transform="translate(109.156 21.8135)"/>
</clipPath>
</defs>
</svg>
