<svg width="196" height="121" viewBox="0 0 196 121" fill="none" xmlns="http://www.w3.org/2000/svg">
<g clip-path="url(#clip0_56415_738027)">
<mask id="mask0_56415_738027" style="mask-type:luminance" maskUnits="userSpaceOnUse" x="0" y="0" width="196" height="121">
<path d="M196 0H0V121H196V0Z" fill="white"/>
</mask>
<g mask="url(#mask0_56415_738027)">
<path d="M134.739 94.8257C134.953 94.417 134.778 93.9345 134.346 93.7481L127.73 90.8812C127.3 90.6947 126.778 90.8749 126.565 91.2836C126.352 91.6924 126.527 92.1748 126.957 92.3612L133.574 95.2282C134.005 95.4145 134.526 95.2343 134.739 94.8257Z" fill="#EEEEEE"/>
<path d="M121.56 47.2628C121.56 44.2938 119.099 41.8867 116.063 41.8867H80.7229C77.6868 41.8867 75.2256 44.2938 75.2256 47.2628V99.4882C75.2256 102.458 77.6868 104.864 80.7229 104.864H116.063C119.099 104.864 121.56 102.458 121.56 99.4882V47.2628Z" fill="white"/>
<path d="M117.041 72.9101C117.041 72.2131 116.463 71.6436 115.75 71.6436H80.8891C80.176 71.6436 79.5979 72.2131 79.5979 72.9101C79.5979 73.6072 80.176 74.1767 80.8891 74.1767H115.75C116.463 74.1767 117.041 73.6072 117.041 72.9101Z" fill="#DCDCDC"/>
<path d="M79.5979 72.9099C79.5979 73.5633 80.1056 74.105 80.7567 74.1702L80.8887 74.1769H115.75L115.882 74.1702C116.533 74.1049 117.041 73.5632 117.041 72.9099C117.041 72.2131 116.463 71.6437 115.75 71.6436H80.8887L80.7567 71.6503C80.1057 71.7155 79.5981 72.2566 79.5979 72.9099Z" fill="#111B22"/>
<path fill-rule="evenodd" clip-rule="evenodd" d="M116.047 39.9951H80.7072C76.6022 39.9951 73.2744 43.2495 73.2744 47.264V99.4893C73.2744 103.504 76.6022 106.758 80.7072 106.758H116.047C120.153 106.758 123.48 103.504 123.48 99.4893V47.264C123.48 43.2495 120.153 39.9951 116.047 39.9951ZM116.047 41.8879C119.084 41.8879 121.545 44.2948 121.545 47.264V99.4893C121.545 102.458 119.084 104.866 116.047 104.866H80.7072C77.6711 104.866 75.2098 102.458 75.2098 99.4893V47.264C75.2098 44.2948 77.6711 41.8879 80.7072 41.8879H116.047Z" fill="#111B22"/>
<path d="M117.579 60.25C117.579 59.5529 117.001 58.9834 116.288 58.9834H81.4269C80.7138 58.9834 80.1357 59.5529 80.1357 60.25C80.1357 60.947 80.7138 61.5165 81.4269 61.5165H116.288C117.001 61.5165 117.579 60.947 117.579 60.25Z" fill="#DCDCDC"/>
<path d="M80.1357 60.2498C80.1357 60.9032 80.6436 61.4449 81.2947 61.5101L81.4267 61.5168H116.288L116.42 61.5101C117.07 61.4448 117.579 60.9031 117.579 60.2498C117.579 59.5529 117.001 58.9836 116.288 58.9834H81.4267L81.2947 58.9902C80.6437 59.0553 80.1359 59.5964 80.1357 60.2498Z" fill="#111B22"/>
<path d="M117.579 84.9648C117.579 84.2678 117.001 83.6982 116.288 83.6982H81.4269C80.7138 83.6982 80.1357 84.2678 80.1357 84.9648C80.1357 85.6619 80.7138 86.2315 81.4269 86.2315H116.288C117.001 86.2315 117.579 85.6619 117.579 84.9648Z" fill="#DCDCDC"/>
<path d="M80.1357 84.9645C80.1357 85.618 80.6436 86.1598 81.2947 86.2248L81.4267 86.2317H116.288L116.42 86.2248C117.07 86.1597 117.579 85.6179 117.579 84.9645C117.579 84.2677 117.001 83.6984 116.288 83.6982H81.4267L81.2947 83.705C80.6437 83.7702 80.1359 84.3112 80.1357 84.9645Z" fill="#111B22"/>
<path d="M116.206 67.3008C116.206 66.6037 115.628 66.0342 114.915 66.0342H103.941C103.228 66.0342 102.65 66.6037 102.65 67.3008C102.65 67.9978 103.228 68.5673 103.941 68.5673H114.915C115.628 68.5673 116.206 67.9978 116.206 67.3008Z" fill="#EEEEEE"/>
<path d="M102.65 67.3005C102.65 67.954 103.158 68.4955 103.809 68.5608L103.941 68.5675H114.915L115.047 68.5608C115.699 68.4955 116.206 67.9539 116.206 67.3005C116.206 66.6036 115.628 66.0344 114.915 66.0342H103.941L103.809 66.0409C103.158 66.1062 102.651 66.6472 102.65 67.3005Z" fill="#111B22"/>
<path d="M117.039 77.9775C117.039 77.2805 116.461 76.7109 115.748 76.7109H104.774C104.061 76.7109 103.483 77.2805 103.483 77.9775C103.483 78.6746 104.061 79.2441 104.774 79.2441H115.748C116.461 79.2441 117.039 78.6746 117.039 77.9775Z" fill="#EEEEEE"/>
<path d="M103.483 77.9772C103.483 78.6306 103.991 79.1723 104.642 79.2376L104.774 79.2443H115.748L115.88 79.2376C116.532 79.1723 117.039 78.6306 117.039 77.9772C117.039 77.2805 116.461 76.7111 115.748 76.7109H104.774L104.642 76.7177C103.991 76.7829 103.483 77.3239 103.483 77.9772Z" fill="#111B22"/>
<path d="M117.039 90.6405C117.039 89.9435 116.461 89.374 115.748 89.374H104.774C104.061 89.374 103.483 89.9435 103.483 90.6405C103.483 91.3376 104.061 91.9071 104.774 91.9071H115.748C116.461 91.9071 117.039 91.3376 117.039 90.6405Z" fill="#EEEEEE"/>
<path d="M103.483 90.6402C103.483 91.2937 103.991 91.8353 104.642 91.9005L104.774 91.9073H115.748L115.88 91.9005C116.532 91.8353 117.039 91.2937 117.039 90.6402C117.039 89.9435 116.461 89.3741 115.748 89.374H104.774L104.642 89.3807C103.991 89.4459 103.483 89.9869 103.483 90.6402Z" fill="#111B22"/>
<g filter="url(#filter0_d_56415_738027)">
<path d="M80.6426 41.8204C81.9257 51.3799 90.8675 58.1092 100.614 56.8506C110.361 55.592 117.223 46.8223 115.94 37.2628C114.656 27.7031 105.715 20.9738 95.9681 22.2324C86.2207 23.491 79.3594 32.2608 80.6426 41.8204Z" fill="#BFDBEE"/>
</g>
<g filter="url(#filter1_d_56415_738027)">
<path d="M82.4078 41.5925C81.2517 32.9806 87.4328 25.09 96.1996 23.958C104.968 22.8262 113.018 28.8788 114.175 37.4906C115.331 46.1025 109.151 53.993 100.384 55.1251L100.615 56.8508L101.069 56.786C110.423 55.3412 116.992 46.9453 115.994 37.7098L115.94 37.2627C114.657 27.7032 105.715 20.9739 95.9681 22.2324C86.2212 23.4909 79.3594 32.2609 80.6426 41.8204L80.7086 42.266C82.2055 51.588 91.0203 58.0896 100.615 56.8508L100.384 55.1251C91.6164 56.2572 83.5638 50.2045 82.4078 41.5925Z" fill="#0078CE"/>
</g>
<path d="M79.1285 31.226C79.7276 31.3017 80.2788 30.889 80.3589 30.3038L80.3677 30.1944C80.3852 29.6532 79.9802 29.1779 79.4187 29.1068L74.2394 28.4514C73.6406 28.3755 73.0901 28.7885 73.0098 29.3736C72.9297 29.9588 73.3502 30.4946 73.9492 30.5704L79.1285 31.226Z" fill="#0078CE"/>
<path d="M94.4947 19.8573L94.4857 19.9682C94.4678 20.5184 94.8793 21.0014 95.4501 21.0737C96.0206 21.1458 96.5483 20.7816 96.6791 20.2458L96.6995 20.1364L97.3721 15.2253C97.4533 14.6307 97.0261 14.0863 96.4175 14.0091C95.8088 13.9321 95.2488 14.3516 95.1671 14.9462L94.4947 19.8573Z" fill="#0078CE"/>
<path d="M83.9616 22.5843L84.036 22.6676C84.4239 23.0638 85.0668 23.1221 85.5235 22.7853L85.6103 22.7147C86.0204 22.343 86.0778 21.724 85.7257 21.2829L82.5731 17.3333C82.1977 16.863 81.4984 16.7729 81.0112 17.1322C80.5242 17.4916 80.4336 18.1642 80.8089 18.6345L83.9616 22.5843Z" fill="#0078CE"/>
<path d="M107.282 36.2312V43.2356C107.282 44.3824 106.656 45.4475 105.642 46.0312L99.4382 49.5436C98.4246 50.1171 97.1713 50.1171 96.1476 49.5436L89.9438 46.0312C88.9305 45.4577 88.304 44.3927 88.304 43.2356V36.2312C88.304 35.0843 88.9305 34.0193 89.9438 33.4356L96.1476 29.9232C97.1612 29.3498 98.4146 29.3498 99.4382 29.9232L105.642 33.4356C106.656 34.0193 107.282 35.0741 107.282 36.2312Z" stroke="#111B22" stroke-width="1.57173" stroke-linecap="round" stroke-linejoin="round"/>
<path d="M97.8019 38.7086C99.1455 38.7086 100.236 37.6403 100.236 36.3226C100.236 35.0048 99.1455 33.9365 97.8019 33.9365C96.4574 33.9365 95.3682 35.0048 95.3682 36.3226C95.3682 37.6403 96.4574 38.7086 97.8019 38.7086Z" stroke="#111B22" stroke-width="1.57173" stroke-linecap="round" stroke-linejoin="round"/>
<path d="M101.98 44.5053C101.98 42.662 100.11 41.167 97.8011 41.167C95.4932 41.167 93.6235 42.662 93.6235 44.5053" stroke="#111B22" stroke-width="1.57173" stroke-linecap="round" stroke-linejoin="round"/>
</g>
</g>
<defs>
<filter id="filter0_d_56415_738027" x="66.2475" y="14.9606" width="64.0876" height="63.4025" filterUnits="userSpaceOnUse" color-interpolation-filters="sRGB">
<feFlood flood-opacity="0" result="BackgroundImageFix"/>
<feColorMatrix in="SourceAlpha" type="matrix" values="0 0 0 0 0 0 0 0 0 0 0 0 0 0 0 0 0 0 127 0" result="hardAlpha"/>
<feOffset dy="7.12041"/>
<feGaussianBlur stdDeviation="7.12041"/>
<feColorMatrix type="matrix" values="0 0 0 0 0.0705882 0 0 0 0 0.105882 0 0 0 0 0.129412 0 0 0 0.1 0"/>
<feBlend mode="normal" in2="BackgroundImageFix" result="effect1_dropShadow_56415_738027"/>
<feBlend mode="normal" in="SourceGraphic" in2="effect1_dropShadow_56415_738027" result="shape"/>
</filter>
<filter id="filter1_d_56415_738027" x="66.2475" y="14.9606" width="64.0878" height="63.4025" filterUnits="userSpaceOnUse" color-interpolation-filters="sRGB">
<feFlood flood-opacity="0" result="BackgroundImageFix"/>
<feColorMatrix in="SourceAlpha" type="matrix" values="0 0 0 0 0 0 0 0 0 0 0 0 0 0 0 0 0 0 127 0" result="hardAlpha"/>
<feOffset dy="7.12041"/>
<feGaussianBlur stdDeviation="7.12041"/>
<feColorMatrix type="matrix" values="0 0 0 0 0.0705882 0 0 0 0 0.105882 0 0 0 0 0.129412 0 0 0 0.1 0"/>
<feBlend mode="normal" in2="BackgroundImageFix" result="effect1_dropShadow_56415_738027"/>
<feBlend mode="normal" in="SourceGraphic" in2="effect1_dropShadow_56415_738027" result="shape"/>
</filter>
<clipPath id="clip0_56415_738027">
<rect width="196" height="121" fill="white"/>
</clipPath>
</defs>
</svg>
