<svg width="196" height="121" viewBox="0 0 196 121" fill="none" xmlns="http://www.w3.org/2000/svg">
<path d="M134.331 41.7725V51.1898C134.331 57.3384 130.436 61.2298 124.283 61.2298H110.965V34.0284C110.965 29.7089 114.509 26.2065 118.831 26.2065C123.076 26.2455 126.97 27.9577 129.774 30.7596C132.578 33.6004 134.331 37.4918 134.331 41.7725Z" fill="white" stroke="#111B22" stroke-width="2.97327" stroke-miterlimit="10" stroke-linecap="round" stroke-linejoin="round"/>
<path d="M56.4453 45.6639V100.145C56.4453 103.375 60.1059 105.204 62.6761 103.258L69.3354 98.2767C70.8931 97.1093 73.074 97.2649 74.4759 98.6659L80.9403 105.165C82.4591 106.682 84.9516 106.682 86.4704 105.165L93.0128 98.627C94.3758 97.2649 96.5566 97.1093 98.0753 98.2767L104.735 103.258C107.305 105.165 110.965 103.336 110.965 100.145V33.9895C110.965 29.7089 114.47 26.2065 118.754 26.2065H75.9168H72.0225C60.3396 26.2065 56.4453 33.1723 56.4453 41.7725V45.6639Z" fill="white" stroke="#111B22" stroke-width="2.97327" stroke-miterlimit="10" stroke-linecap="round" stroke-linejoin="round"/>
<path d="M72.0273 53.4463H95.3931" stroke="#111B22" stroke-width="3.96436" stroke-linecap="round" stroke-linejoin="round"/>
<path d="M74.9453 69.0132H92.4696" stroke="#111B22" stroke-width="3.96436" stroke-linecap="round" stroke-linejoin="round"/>
<rect x="-0.412727" y="0.773011" width="1.25748" height="7.09582" rx="0.628738" transform="matrix(-0.963539 0.281993 0.307101 0.947472 129.843 17.3591)" fill="#999999" stroke="#0078CE" stroke-width="1.25748"/>
<rect x="-0.796054" y="-0.416922" width="1.25299" height="7.13017" rx="0.626497" transform="matrix(-0.307103 -0.947472 -0.963539 0.281991 152.023 31.2086)" fill="#999999" stroke="#0078CE" stroke-width="1.25299"/>
<rect x="-0.856485" y="0.250217" width="1.25464" height="7.11761" rx="0.627318" transform="matrix(-0.899748 -0.469226 -0.465563 0.868094 143.536 19.5676)" fill="#999999" stroke="#0078CE" stroke-width="1.25464"/>
<g filter="url(#filter0_d_54237_1044785)">
<ellipse cx="60.4498" cy="34.3055" rx="18.2154" ry="18.0946" fill="#BFDBEE" stroke="#0078CE" stroke-width="2.47772"/>
<path d="M60.5361 25.9199C60.897 25.92 61.1978 26.0421 61.4385 26.2861C61.6793 26.5305 61.7998 26.8365 61.7998 27.2031V28.1289C62.0991 28.1682 62.4125 28.2308 62.7393 28.3213C63.2691 28.4557 63.7325 28.6453 64.1299 28.8896C64.4068 29.0363 64.5996 29.2376 64.708 29.4941C64.8284 29.7507 64.8701 30.0134 64.834 30.2822C64.8099 30.5387 64.7143 30.7709 64.5459 30.9785C64.3894 31.1862 64.1723 31.3271 63.8955 31.4004C63.6307 31.4615 63.3115 31.4126 62.9385 31.2539C62.6616 31.1317 62.3482 31.0333 61.999 30.96C61.6619 30.8744 61.228 30.832 60.6982 30.832C60.0602 30.832 59.5669 30.9486 59.2178 31.1807C58.8807 31.4128 58.712 31.7117 58.7119 32.0781C58.7119 32.3225 58.8083 32.5311 59.001 32.7021C59.2058 32.8609 59.5731 33.0009 60.1025 33.123L62.1611 33.5811C63.3048 33.8376 64.1476 34.2657 64.6895 34.8643C65.2433 35.4507 65.5204 36.2145 65.5205 37.1553C65.5205 37.8884 65.3463 38.5365 64.9971 39.0986C64.6479 39.6607 64.1603 40.1193 63.5342 40.4736C63.0263 40.7667 62.4477 40.9737 61.7998 41.0996V42.1045C61.7998 42.4711 61.6793 42.7761 61.4385 43.0205C61.2098 43.2648 60.9093 43.3876 60.5361 43.3877C60.1869 43.3877 59.8912 43.2649 59.6504 43.0205C59.4099 42.7762 59.29 42.4708 59.29 42.1045V41.2061C58.7081 41.154 58.1901 41.0632 57.7363 40.9316C57.1463 40.7606 56.6643 40.589 56.291 40.418C55.9782 40.2713 55.7554 40.0636 55.623 39.7949C55.5027 39.5261 55.4544 39.2507 55.4785 38.9697C55.5147 38.6889 55.6176 38.4322 55.7861 38.2002C55.9546 37.9683 56.1709 37.8155 56.4355 37.7422C56.7125 37.6567 57.0323 37.6937 57.3936 37.8525C57.6343 37.9868 57.9954 38.1269 58.4766 38.2734C58.9702 38.4078 59.5784 38.4756 60.3008 38.4756C60.8065 38.4756 61.2042 38.4268 61.4932 38.3291C61.7942 38.2313 62.0046 38.1022 62.125 37.9434C62.2574 37.7723 62.3242 37.589 62.3242 37.3936C62.3242 37.2104 62.2759 37.0577 62.1797 36.9355C62.0954 36.8012 61.9506 36.6856 61.7461 36.5879C61.5415 36.4779 61.2585 36.3795 60.8975 36.2939L58.8564 35.8545C57.7367 35.5979 56.8996 35.17 56.3457 34.5713C55.8039 33.9604 55.5332 33.1722 55.5332 32.207C55.5332 31.4739 55.7075 30.8194 56.0566 30.2451C56.4179 29.6587 56.9176 29.1819 57.5557 28.8154C58.0667 28.5273 58.6451 28.3232 59.29 28.2012V27.2031C59.29 26.8366 59.4096 26.5305 59.6504 26.2861C59.8912 26.0417 60.1869 25.9199 60.5361 25.9199Z" fill="#0078CE"/>
<path d="M60.5361 25.9199C60.897 25.92 61.1978 26.0421 61.4385 26.2861C61.6793 26.5305 61.7998 26.8365 61.7998 27.2031V28.1289C62.0991 28.1682 62.4125 28.2308 62.7393 28.3213C63.2691 28.4557 63.7325 28.6453 64.1299 28.8896C64.4068 29.0363 64.5996 29.2376 64.708 29.4941C64.8284 29.7507 64.8701 30.0134 64.834 30.2822C64.8099 30.5387 64.7143 30.7709 64.5459 30.9785C64.3894 31.1862 64.1723 31.3271 63.8955 31.4004C63.6307 31.4615 63.3115 31.4126 62.9385 31.2539C62.6616 31.1317 62.3482 31.0333 61.999 30.96C61.6619 30.8744 61.228 30.832 60.6982 30.832C60.0602 30.832 59.5669 30.9486 59.2178 31.1807C58.8807 31.4128 58.712 31.7117 58.7119 32.0781C58.7119 32.3225 58.8083 32.5311 59.001 32.7021C59.2058 32.8609 59.5731 33.0009 60.1025 33.123L62.1611 33.5811C63.3048 33.8376 64.1476 34.2657 64.6895 34.8643C65.2433 35.4507 65.5204 36.2145 65.5205 37.1553C65.5205 37.8884 65.3463 38.5365 64.9971 39.0986C64.6479 39.6607 64.1603 40.1193 63.5342 40.4736C63.0263 40.7667 62.4477 40.9737 61.7998 41.0996V42.1045C61.7998 42.4711 61.6793 42.7761 61.4385 43.0205C61.2098 43.2648 60.9093 43.3876 60.5361 43.3877C60.1869 43.3877 59.8912 43.2649 59.6504 43.0205C59.4099 42.7762 59.29 42.4708 59.29 42.1045V41.2061C58.7081 41.154 58.1901 41.0632 57.7363 40.9316C57.1463 40.7606 56.6643 40.589 56.291 40.418C55.9782 40.2713 55.7554 40.0636 55.623 39.7949C55.5027 39.5261 55.4544 39.2507 55.4785 38.9697C55.5147 38.6889 55.6176 38.4322 55.7861 38.2002C55.9546 37.9683 56.1709 37.8155 56.4355 37.7422C56.7125 37.6567 57.0323 37.6937 57.3936 37.8525C57.6343 37.9868 57.9954 38.1269 58.4766 38.2734C58.9702 38.4078 59.5784 38.4756 60.3008 38.4756C60.8065 38.4756 61.2042 38.4268 61.4932 38.3291C61.7942 38.2313 62.0046 38.1022 62.125 37.9434C62.2574 37.7723 62.3242 37.589 62.3242 37.3936C62.3242 37.2104 62.2759 37.0577 62.1797 36.9355C62.0954 36.8012 61.9506 36.6856 61.7461 36.5879C61.5415 36.4779 61.2585 36.3795 60.8975 36.2939L58.8564 35.8545C57.7367 35.5979 56.8996 35.17 56.3457 34.5713C55.8039 33.9604 55.5332 33.1722 55.5332 32.207C55.5332 31.4739 55.7075 30.8194 56.0566 30.2451C56.4179 29.6587 56.9176 29.1819 57.5557 28.8154C58.0667 28.5273 58.6451 28.3232 59.29 28.2012V27.2031C59.29 26.8366 59.4096 26.5305 59.6504 26.2861C59.8912 26.0417 60.1869 25.9199 60.5361 25.9199Z" stroke="#0078CE"/>
</g>
<defs>
<filter id="filter0_d_54237_1044785" x="30.2417" y="9.59495" width="60.4151" height="60.1758" filterUnits="userSpaceOnUse" color-interpolation-filters="sRGB">
<feFlood flood-opacity="0" result="BackgroundImageFix"/>
<feColorMatrix in="SourceAlpha" type="matrix" values="0 0 0 0 0 0 0 0 0 0 0 0 0 0 0 0 0 0 127 0" result="hardAlpha"/>
<feOffset dy="5.37721"/>
<feGaussianBlur stdDeviation="5.37721"/>
<feColorMatrix type="matrix" values="0 0 0 0 0.0705882 0 0 0 0 0.105882 0 0 0 0 0.129412 0 0 0 0.1 0"/>
<feBlend mode="normal" in2="BackgroundImageFix" result="effect1_dropShadow_54237_1044785"/>
<feBlend mode="normal" in="SourceGraphic" in2="effect1_dropShadow_54237_1044785" result="shape"/>
</filter>
</defs>
</svg>
