<svg width="196" height="121" viewBox="0 0 196 121" fill="none" xmlns="http://www.w3.org/2000/svg">
<g clip-path="url(#clip0_55358_764006)">
<path d="M128.763 42.3737L88.4106 25.1853C87.2211 24.6786 85.8264 25.1879 85.2953 26.3226L72.5063 53.6498C71.9752 54.7845 72.5089 56.1152 73.6984 56.6219L114.05 73.8102C115.24 74.3169 116.634 73.8076 117.166 72.6729L129.955 45.3457C130.485 44.211 129.952 42.8803 128.763 42.3737Z" fill="white"/>
<path d="M129.177 45.0131C129.519 44.2836 129.173 43.4361 128.419 43.1154L88.0677 25.927C87.3147 25.6064 86.4226 25.9266 86.0812 26.6561L73.2923 53.9829C72.9509 54.7124 73.2966 55.5599 74.0495 55.8806L114.401 73.0689C115.154 73.3896 116.046 73.0694 116.387 72.3399L129.177 45.0131ZM117.952 73.0062C117.231 74.5462 115.334 75.2445 113.708 74.5519L73.3555 57.3636C71.7295 56.671 71.0075 54.8567 71.7284 53.3167L84.5172 25.9899C85.2379 24.4498 87.1358 23.7515 88.7617 24.4441L129.113 41.6323C130.739 42.325 131.461 44.1393 130.74 45.6793L117.952 73.0062Z" fill="#111B22"/>
<path d="M133.133 51.2941L92.7816 34.1057C91.5922 33.5991 90.1975 34.1082 89.6664 35.243L76.8774 62.5701C76.3463 63.705 76.8801 65.0355 78.0695 65.5423L118.421 82.7306C119.611 83.2372 121.006 82.7281 121.537 81.5932L134.325 54.2661C134.857 53.1313 134.323 51.8007 133.133 51.2941Z" fill="white"/>
<path d="M133.54 53.933C133.881 53.2035 133.536 52.3561 132.783 52.0353L92.4309 34.8471C91.678 34.5263 90.7859 34.8466 90.4445 35.576L77.6556 62.9029C77.3142 63.6323 77.6598 64.4798 78.4128 64.8006L118.765 81.9889C119.518 82.3096 120.41 81.9893 120.751 81.2598L133.54 53.933ZM122.315 81.9261C121.594 83.4661 119.696 84.1644 118.071 83.4719L77.7188 66.2836C76.0929 65.591 75.3709 63.7768 76.0916 62.2367L88.8805 34.9098C89.6013 33.3697 91.4991 32.6714 93.1249 33.364L133.477 50.5524C135.103 51.2449 135.825 53.0592 135.104 54.5992L122.315 81.9261Z" fill="#111B22"/>
<path d="M127.628 99.9536H59.315C58.4837 99.9516 57.6875 99.6339 57.1007 99.073C56.5139 98.5108 56.1845 97.7501 56.1845 96.9571V51.0025C56.1745 50.6039 56.248 50.2072 56.4007 49.836C56.5534 49.4648 56.7822 49.1264 57.0738 48.8407C57.3653 48.5549 57.7138 48.3275 58.0986 48.1718C58.4834 48.0161 58.897 47.9353 59.315 47.9341H84.1981C84.7755 47.9361 85.341 48.0899 85.8328 48.3786C86.3245 48.6673 86.7234 49.0797 86.9855 49.5705L90.5341 56.1983C90.7952 56.6899 91.1938 57.103 91.6858 57.3918C92.1777 57.6807 92.7439 57.8339 93.3215 57.8348H127.628C128.459 57.8348 129.255 58.1495 129.842 58.7096C130.429 59.2696 130.759 60.0293 130.759 60.8215V96.9571C130.759 97.7501 130.429 98.5108 129.842 99.073C129.256 99.6339 128.46 99.9516 127.628 99.9536Z" fill="#ACD2EC"/>
<path d="M129.898 60.8217C129.898 60.2424 129.658 59.688 129.23 59.2806C128.804 58.8734 128.226 58.6455 127.626 58.6454H93.3177C92.5802 58.6443 91.8576 58.4491 91.2305 58.081C90.6043 57.7134 90.0982 57.1879 89.7663 56.5643L86.2171 49.9365C86.0257 49.5782 85.7349 49.2774 85.378 49.0677C85.0208 48.858 84.6102 48.7462 84.1922 48.7447H59.3148C59.0122 48.7456 58.7123 48.8046 58.4332 48.9175C58.1542 49.0304 57.901 49.1953 57.6888 49.4034C57.4764 49.6116 57.3091 49.8585 57.1975 50.1299C57.086 50.4011 57.0325 50.6912 57.0397 50.9829V96.9573C57.0398 97.5379 57.2812 98.0932 57.7084 98.5024C58.1355 98.9111 58.7133 99.1402 59.3148 99.1423H127.622C128.224 99.1402 128.802 98.9111 129.229 98.5024C129.656 98.0932 129.898 97.538 129.898 96.9573V60.8217ZM131.614 96.9573C131.614 97.9624 131.196 98.9281 130.451 99.6418C129.704 100.357 128.69 100.762 127.629 100.765H59.3097C58.2489 100.762 57.2337 100.357 56.4873 99.6418C55.7414 98.9281 55.3243 97.9623 55.3242 96.9573V50.8317C55.3363 50.3905 55.4289 49.9538 55.5983 49.5418C55.7922 49.0708 56.0833 48.6409 56.454 48.2775C56.8247 47.9142 57.268 47.6247 57.7583 47.4264C58.2488 47.228 58.7764 47.1247 59.3097 47.123H84.1984C84.9349 47.1257 85.6562 47.3219 86.2825 47.6895C86.9084 48.057 87.4149 48.5815 87.7477 49.2042L91.297 55.8321L91.298 55.8341C91.4885 56.1926 91.7791 56.4933 92.136 56.7028C92.4927 56.9121 92.9023 57.0231 93.3198 57.0238H127.626C128.686 57.0238 129.701 57.426 130.449 58.1389C131.195 58.8516 131.614 59.8169 131.614 60.8217V96.9573Z" fill="#111B22"/>
<path d="M109.917 47.5172L94.6563 41.2141C93.6838 40.8125 92.7348 40.8346 92.5366 41.2635C92.3383 41.6925 92.966 42.3658 93.9384 42.7674L109.199 49.0704C110.171 49.4721 111.121 49.45 111.319 49.0211C111.517 48.5922 110.889 47.9188 109.917 47.5172Z" fill="#111B22"/>
<path d="M109.535 48.3429L109.199 49.0706L93.9377 42.7674L94.274 42.0397L109.535 48.3429ZM94.6558 41.2139L109.917 47.5171C110.889 47.9187 111.517 48.592 111.32 49.0209L111.273 49.097C111.002 49.4512 110.111 49.4471 109.199 49.0706L109.535 48.3429C109.738 48.427 109.932 48.4836 110.103 48.5186C109.96 48.4236 109.784 48.328 109.581 48.244L94.3198 41.9408C94.1161 41.8566 93.923 41.8 93.7517 41.7651C93.8953 41.8601 94.0703 41.9555 94.274 42.0397L93.9377 42.7674L93.76 42.6886C92.8906 42.2821 92.3508 41.6652 92.5365 41.2632C92.7352 40.8347 93.6837 40.8125 94.6558 41.2139Z" fill="#111B22"/>
<path d="M101.555 48.3181L92.2599 44.4789C91.6676 44.2343 91.032 44.3722 90.8402 44.7871C90.6485 45.2019 90.9733 45.7365 91.5657 45.9811L100.861 49.8203C101.453 50.065 102.089 49.927 102.28 49.5122C102.472 49.0973 102.147 48.5628 101.555 48.3181Z" fill="#111B22"/>
<path d="M102.24 49.5864C102.01 49.9427 101.417 50.0496 100.861 49.8204L91.5655 45.981C90.9733 45.7364 90.6485 45.2018 90.8402 44.7871C91.032 44.3722 91.6675 44.2343 92.2598 44.4789L101.555 48.3183C102.147 48.563 102.473 49.0976 102.28 49.5123L102.24 49.5864Z" fill="#111B22"/>
<path d="M74.7095 26.324C74.1119 26.2511 73.5625 26.6495 73.4825 27.214C73.4023 27.7786 73.8218 28.2954 74.4194 28.3684L79.5997 29.0012C80.1972 29.0741 80.7467 28.6757 80.8267 28.1112C80.9068 27.5467 80.4873 27.0298 79.8897 26.9568L74.7095 26.324Z" fill="#999999"/>
<path d="M79.6 29.001L79.7109 29.0096C80.2638 29.024 80.751 28.6406 80.8263 28.1115L80.836 28.0058C80.8525 27.5184 80.5019 27.0862 79.9995 26.9752L79.8901 26.9569L74.7099 26.324C74.1123 26.2511 73.5625 26.6498 73.4824 27.2144C73.4025 27.7787 73.8225 28.2952 74.4198 28.3682L79.6 29.001Z" fill="#0078CE"/>
<path d="M93.7754 15.8471C93.857 15.2724 93.4299 14.7462 92.8215 14.6719C92.2131 14.5975 91.6538 15.0032 91.5722 15.5781L90.9006 20.311C90.819 20.8857 91.2462 21.4119 91.8546 21.4863C92.463 21.5606 93.0224 21.1549 93.1039 20.5802L93.7754 15.8471Z" fill="#999999"/>
<path d="M90.9006 20.3106C90.8191 20.8854 91.2456 21.4117 91.8538 21.4862L91.9678 21.4951C92.5307 21.5095 93.027 21.1185 93.1034 20.5797L93.7749 15.8475C93.8565 15.2727 93.4291 14.7462 92.8207 14.6718C92.2124 14.5977 91.6536 15.0037 91.572 15.5784L90.9006 20.3106Z" fill="#0078CE"/>
<path d="M81.5807 17.5037C81.2053 17.0498 80.5063 16.9628 80.0195 17.3095C79.5326 17.6561 79.4422 18.305 79.8177 18.759L82.9677 22.5681C83.3431 23.022 84.0421 23.109 84.529 22.7624C85.0158 22.4157 85.1062 21.7668 84.7308 21.3128L81.5807 17.5037Z" fill="#999999"/>
<path d="M82.9673 22.5681L83.042 22.6488C83.4298 23.0309 84.0725 23.0871 84.5289 22.7624L84.6161 22.6941C85.0258 22.3356 85.0827 21.7381 84.7307 21.3125L81.581 17.5037C81.2055 17.0498 80.5063 16.9628 80.0194 17.3094C79.5327 17.6561 79.4422 18.3054 79.8175 18.7593L82.9673 22.5681Z" fill="#0078CE"/>
<g filter="url(#filter0_d_55358_764006)">
<path d="M110.966 69.1821C108.354 69.1807 105.801 69.9199 103.63 71.3061C101.458 72.6922 99.765 74.6631 98.7647 76.9695C97.7645 79.2758 97.502 81.814 98.0106 84.2629C98.5192 86.7119 99.7759 88.9617 101.621 90.7277C103.467 92.4936 105.819 93.6965 108.381 94.1841C110.942 94.6716 113.597 94.4221 116.009 93.4669C118.421 92.5118 120.484 90.8939 121.934 88.818C123.386 86.7421 124.16 84.3014 124.16 81.8046C124.16 78.4581 122.77 75.2485 120.296 72.8815C117.821 70.5146 114.465 69.1839 110.966 69.1821Z" fill="#ACD2EC"/>
<path d="M123.069 81.8048C123.069 78.7274 121.791 75.7784 119.519 73.6053C117.249 71.4326 114.171 70.2125 110.964 70.2108C108.571 70.2096 106.229 70.8877 104.237 72.1594C102.245 73.4311 100.69 75.2406 99.7708 77.36C98.8515 79.4797 98.6096 81.813 99.0771 84.0645C99.5447 86.3161 100.7 88.3831 102.395 90.0043C104.089 91.6254 106.247 92.7281 108.594 93.175C110.941 93.6219 113.375 93.3931 115.587 92.5173C117.798 91.6415 119.692 90.1579 121.025 88.2512C122.358 86.3442 123.069 84.1006 123.069 81.8048ZM125.247 81.8048C125.247 84.5023 124.41 87.1403 122.841 89.3849C121.272 91.6298 119.04 93.3812 116.428 94.4158C113.815 95.4503 110.939 95.7215 108.165 95.1932C105.389 94.665 102.843 93.362 100.846 91.4513C98.8484 89.5405 97.4906 87.1075 96.9411 84.4611C96.3916 81.8148 96.6752 79.0715 97.7563 76.5787C98.8375 74.0859 100.668 71.9537 103.019 70.4533C105.37 68.9526 108.136 68.1519 110.964 68.1533C114.757 68.1553 118.392 69.5972 121.068 72.1584C123.746 74.7192 125.247 78.1893 125.247 81.8048Z" fill="#111B22"/>
<path d="M119.956 89.369C120.384 88.9681 121.076 88.9712 121.5 89.3759L125.897 93.5713C126.321 93.9761 126.318 94.629 125.89 95.03C125.461 95.431 124.771 95.4279 124.347 95.0232L119.949 90.8287C119.525 90.4239 119.528 89.77 119.956 89.369Z" fill="#111B22"/>
<path d="M124.624 92.2596L123.258 93.6231C122.645 94.2342 122.667 95.2033 123.309 95.7875L135.164 106.6C135.805 107.184 136.82 107.163 137.433 106.552L138.799 105.188C139.412 104.576 139.388 103.607 138.748 103.023L126.892 92.2109C126.252 91.6267 125.235 91.6485 124.624 92.2596Z" fill="white"/>
<path d="M136.255 104.734L136.844 104.146L125.802 94.0766L125.213 94.6646L136.255 104.734ZM138.748 103.024L138.861 103.137C139.389 103.727 139.373 104.615 138.799 105.188L137.433 106.552L137.314 106.659C136.736 107.13 135.887 107.148 135.288 106.703L135.165 106.6L123.308 95.7876C122.708 95.2398 122.65 94.354 123.15 93.7418L123.257 93.623L124.624 92.2597C125.236 91.6486 126.252 91.6266 126.892 92.2107L138.748 103.024Z" fill="#111B22"/>
</g>
</g>
<defs>
<filter id="filter0_d_55358_764006" x="82.9424" y="61.2905" width="70.0253" height="66.3227" filterUnits="userSpaceOnUse" color-interpolation-filters="sRGB">
<feFlood flood-opacity="0" result="BackgroundImageFix"/>
<feColorMatrix in="SourceAlpha" type="matrix" values="0 0 0 0 0 0 0 0 0 0 0 0 0 0 0 0 0 0 127 0" result="hardAlpha"/>
<feOffset dy="6.86278"/>
<feGaussianBlur stdDeviation="6.86278"/>
<feColorMatrix type="matrix" values="0 0 0 0 0.0705882 0 0 0 0 0.105882 0 0 0 0 0.129412 0 0 0 0.1 0"/>
<feBlend mode="normal" in2="BackgroundImageFix" result="effect1_dropShadow_55358_764006"/>
<feBlend mode="normal" in="SourceGraphic" in2="effect1_dropShadow_55358_764006" result="shape"/>
</filter>
<clipPath id="clip0_55358_764006">
<rect width="196" height="121" fill="white"/>
</clipPath>
</defs>
</svg>
