<svg width="196" height="121" viewBox="0 0 196 121" fill="none" xmlns="http://www.w3.org/2000/svg">
<rect x="57.1367" y="28.853" width="82.3472" height="63.5844" fill="#BFDBEE"/>
<path d="M125.684 51.7885C110.174 41.9165 106.092 30.6047 106.092 30.6047L134.46 28.1367L139.971 32.4557V47.4695V83.2557L138.134 91.0711L126.909 92.5108C126.909 92.5108 119.728 78.8432 120.174 69.476C120.518 62.2445 141.195 61.6606 125.684 51.7885Z" fill="#0078CE" fill-opacity="0.2"/>
<path fill-rule="evenodd" clip-rule="evenodd" d="M60.9955 30.5769C59.1725 30.5769 57.6927 32.0668 57.6927 33.8963V55.0801C57.6927 55.9729 56.9745 56.6967 56.0885 56.6967C55.2026 56.6967 54.4844 55.9729 54.4844 55.0801V33.8963C54.4844 30.2737 57.4081 27.3438 60.9955 27.3438H134.859C138.447 27.3438 141.37 30.2737 141.37 33.8963V86.753C141.37 90.3719 138.459 93.3056 134.868 93.3056H108.716V103.647H114.051C114.937 103.647 115.655 104.37 115.655 105.263C115.655 106.156 114.937 106.88 114.051 106.88H80.3755C79.4895 106.88 78.7713 106.156 78.7713 105.263C78.7713 104.37 79.4895 103.647 80.3755 103.647H86.935V93.3056H80.3755C79.4895 93.3056 78.7713 92.5818 78.7713 91.689C78.7713 90.7962 79.4895 90.0725 80.3755 90.0725H134.868C136.687 90.0725 138.162 88.5863 138.162 86.753V33.8963C138.162 32.0668 136.682 30.5769 134.859 30.5769H60.9955ZM90.1433 93.3056V103.647H105.507V93.3056H90.1433Z" fill="#111B22"/>
<path d="M98.5427 84.6939C98.5427 85.8298 97.629 86.7506 96.5018 86.7506C95.3747 86.7506 94.4609 85.8298 94.4609 84.6939C94.4609 83.558 95.3747 82.6372 96.5018 82.6372C97.629 82.6372 98.5427 83.558 98.5427 84.6939Z" fill="#111B22"/>
<g clip-path="url(#clip0_55987_733164)">
<path d="M88.0318 51.2271L81.1641 58.0948L88.0318 64.9625" stroke="#324552" stroke-width="3.43386" stroke-linecap="round" stroke-linejoin="round"/>
<path d="M105.201 51.2271L112.069 58.0948L105.201 64.9625" stroke="#324552" stroke-width="3.43386" stroke-linecap="round" stroke-linejoin="round"/>
<path d="M100.051 44.3594L93.1836 71.8303" stroke="#324552" stroke-width="3.43386" stroke-linecap="round" stroke-linejoin="round"/>
</g>
<rect x="-0.565006" y="0.736361" width="1.31568" height="7.61037" rx="0.657842" transform="matrix(0.132867 0.991134 -0.991745 0.128226 156.891 30.1931)" stroke="#0078CE" stroke-width="1.31568"/>
<rect x="0.752876" y="0.577677" width="1.33891" height="7.43232" rx="0.669454" transform="matrix(0.991745 -0.128226 0.132866 0.991134 132.117 14.568)" stroke="#0078CE" stroke-width="1.33891"/>
<rect x="0.121699" y="0.92454" width="1.33045" height="7.49776" rx="0.665227" transform="matrix(0.798631 0.601821 -0.615688 0.78799 148.473 16.9846)" stroke="#0078CE" stroke-width="1.33045"/>
<path d="M42.0938 83.508V80.7872C42.0938 79.1795 43.4078 77.8501 45.0309 77.8501C47.829 77.8501 48.9729 75.8713 47.5662 73.4443C46.7623 72.053 47.2415 70.2443 48.6483 69.4404L51.3227 67.91C52.5439 67.1834 54.1207 67.6163 54.8473 68.8375L55.0174 69.1313C56.4087 71.5583 58.6966 71.5583 60.1033 69.1313L60.2734 68.8375C60.9999 67.6163 62.5767 67.1834 63.798 67.91L66.4724 69.4404C67.8791 70.2443 68.3584 72.053 67.5545 73.4443C66.1477 75.8713 67.2917 77.8501 70.0897 77.8501C71.6975 77.8501 73.0269 79.1641 73.0269 80.7872V83.508C73.0269 85.1157 71.7129 86.4452 70.0897 86.4452C67.2917 86.4452 66.1477 88.4239 67.5545 90.851C68.3584 92.2577 67.8791 94.0509 66.4724 94.8548L63.798 96.3852C62.5767 97.1118 60.9999 96.6789 60.2734 95.4577L60.1033 95.164C58.712 92.7369 56.4241 92.7369 55.0174 95.164L54.8473 95.4577C54.1207 96.6789 52.5439 97.1118 51.3227 96.3852L48.6483 94.8548C47.2415 94.0509 46.7623 92.2423 47.5662 90.851C48.9729 88.4239 47.829 86.4452 45.0309 86.4452C43.4078 86.4452 42.0938 85.1157 42.0938 83.508Z" fill="#BFDBEE" stroke="#111B22" stroke-width="2.31883" stroke-miterlimit="10" stroke-linecap="round" stroke-linejoin="round"/>
<path d="M57.5517 86.7836C60.113 86.7836 62.1894 84.7073 62.1894 82.146C62.1894 79.5847 60.113 77.5083 57.5517 77.5083C54.9904 77.5083 52.9141 79.5847 52.9141 82.146C52.9141 84.7073 54.9904 86.7836 57.5517 86.7836Z" stroke="#111B22" stroke-width="2.31883" stroke-miterlimit="10" stroke-linecap="round" stroke-linejoin="round"/>
<defs>
<clipPath id="clip0_55987_733164">
<rect width="41.2063" height="41.2063" fill="white" transform="translate(76.0137 37.4917)"/>
</clipPath>
</defs>
</svg>
