<svg width="196" height="121" viewBox="0 0 196 121" fill="none" xmlns="http://www.w3.org/2000/svg">
<g clip-path="url(#clip0_56393_736383)">
<mask id="mask0_56393_736383" style="mask-type:luminance" maskUnits="userSpaceOnUse" x="0" y="0" width="196" height="121">
<path d="M196 0H0V121H196V0Z" fill="white"/>
</mask>
<g mask="url(#mask0_56393_736383)">
<path d="M78.4113 23.4033H124.417C125.562 23.4033 126.66 23.9957 127.469 25.05C128.278 26.1044 128.733 27.5344 128.733 29.0255V100.326C128.733 101.817 128.278 103.247 127.469 104.301C126.66 105.356 125.562 105.948 124.417 105.948H72.516C71.3713 105.948 70.2736 105.356 69.4643 104.301C68.6549 103.247 68.2002 101.817 68.2002 100.326V36.8403L78.4113 23.4033Z" fill="white"/>
<path fill-rule="evenodd" clip-rule="evenodd" d="M77.6794 22.8534C77.8527 22.6253 78.1235 22.4912 78.411 22.4912H124.417C125.897 22.4912 127.247 23.2583 128.198 24.4966C129.144 25.7296 129.65 27.3607 129.65 29.0259V100.326C129.65 101.992 129.144 103.623 128.198 104.856C127.247 106.094 125.897 106.861 124.417 106.861H72.5156C71.0358 106.861 69.6856 106.094 68.7351 104.856C67.7886 103.623 67.2827 101.992 67.2827 100.326V36.8408C67.2827 36.6421 67.3479 36.4489 67.4683 36.2904L77.6794 22.8534ZM78.8673 24.3163L69.117 37.1469V100.326C69.117 101.643 69.5206 102.872 70.1928 103.748C70.861 104.618 71.7063 105.036 72.5156 105.036H124.417C125.226 105.036 126.072 104.618 126.74 103.748C127.412 102.872 127.816 101.643 127.816 100.326V29.0259C127.816 27.709 127.412 26.4801 126.74 25.6044C126.072 24.7339 125.226 24.3163 124.417 24.3163H78.8673Z" fill="#111B22"/>
<path d="M68.2002 36.8403H76.5641C77.0548 36.8373 77.5246 36.5813 77.8708 36.1283C78.217 35.6752 78.4113 35.062 78.4113 34.4228V23.4033L68.2002 36.8403Z" fill="white" stroke="#111B22" stroke-width="1.83433" stroke-linecap="round" stroke-linejoin="round"/>
<rect x="76.2996" y="42.4757" width="23.2626" height="1.45258" rx="0.726289" transform="rotate(0.260546 76.2996 42.4757)" fill="#DCDCDC" stroke="#111B22" stroke-width="1.45258"/>
<rect x="76.3617" y="60.669" width="40.6722" height="1.45258" rx="0.726289" transform="rotate(0.260546 76.3617 60.669)" fill="#DCDCDC" stroke="#111B22" stroke-width="1.45258"/>
<rect x="76.2996" y="75.1964" width="38.3325" height="1.45258" rx="0.726289" transform="rotate(0.260546 76.2996 75.1964)" fill="#DCDCDC" stroke="#111B22" stroke-width="1.45258"/>
<rect x="76.2996" y="90.1681" width="33.0268" height="1.45258" rx="0.726289" transform="rotate(0.260546 76.2996 90.1681)" fill="#DCDCDC" stroke="#111B22" stroke-width="1.45258"/>
<rect x="76.2723" y="48.2872" width="13.7995" height="1.45258" rx="0.726289" transform="rotate(0.260546 76.2723 48.2872)" fill="#EEEEEE" stroke="#111B22" stroke-width="1.45258"/>
<rect x="76.3411" y="66.4796" width="13.7995" height="1.45258" rx="0.726289" transform="rotate(0.260546 76.3411 66.4796)" fill="#EEEEEE" stroke="#111B22" stroke-width="1.45258"/>
<rect x="76.2723" y="81.006" width="13.7995" height="1.45258" rx="0.726289" transform="rotate(0.260546 76.2723 81.006)" fill="#EEEEEE" stroke="#111B22" stroke-width="1.45258"/>
<rect x="76.2723" y="95.9796" width="13.7995" height="1.45258" rx="0.726289" transform="rotate(0.260546 76.2723 95.9796)" fill="#EEEEEE" stroke="#111B22" stroke-width="1.45258"/>
<g filter="url(#filter0_d_56393_736383)">
<path d="M104.446 32.133C104.446 34.4776 104.907 36.7992 105.803 38.9653C106.699 41.1315 108.013 43.0996 109.668 44.7575C111.324 46.4154 113.29 47.7305 115.453 48.6277C117.616 49.525 119.934 49.9867 122.276 49.9867C124.617 49.9867 126.936 49.525 129.099 48.6277C131.262 47.7305 133.228 46.4154 134.883 44.7575C136.539 43.0996 137.852 41.1315 138.748 38.9653C139.644 36.7992 140.105 34.4776 140.105 32.133C140.105 27.3979 138.227 22.8568 134.883 19.5085C131.539 16.1603 127.004 14.2793 122.276 14.2793C117.547 14.2793 113.012 16.1603 109.668 19.5085C106.325 22.8568 104.446 27.3979 104.446 32.133Z" fill="#BDD9EB"/>
<path fill-rule="evenodd" clip-rule="evenodd" d="M108.829 18.6756C112.394 15.105 117.232 13.0977 122.278 13.0977C127.324 13.0977 132.162 15.105 135.728 18.6756C139.294 22.246 141.295 27.0869 141.295 32.1329C141.295 34.6316 140.804 37.1061 139.849 39.415C138.894 41.7239 137.494 43.8223 135.728 45.5902C133.962 47.3582 131.866 48.761 129.558 49.7182C127.25 50.6755 124.777 51.1682 122.278 51.1682C119.78 51.1682 117.306 50.6755 114.998 49.7182C112.69 48.761 110.594 47.3582 108.829 45.5902C107.063 43.8223 105.663 41.7239 104.708 39.415C103.753 37.1061 103.261 34.6316 103.261 32.1329C103.261 27.0869 105.263 22.246 108.829 18.6756ZM122.278 15.4608C117.867 15.4608 113.635 17.2155 110.513 20.3413C107.391 23.4673 105.636 27.7088 105.636 32.1329C105.636 34.3234 106.067 36.4923 106.904 38.5156C107.741 40.5389 108.968 42.3768 110.513 43.9246C112.059 45.4724 113.894 46.6998 115.912 47.537C117.931 48.3743 120.094 48.8051 122.278 48.8051C124.463 48.8051 126.626 48.3743 128.644 47.537C130.663 46.6998 132.498 45.4724 134.043 43.9246C135.589 42.3768 136.815 40.5389 137.652 38.5156C138.489 36.4923 138.92 34.3234 138.92 32.1329C138.92 27.7088 137.165 23.4673 134.043 20.3413C130.922 17.2155 126.69 15.4608 122.278 15.4608Z" fill="#0078CE"/>
<path d="M133.298 28.3353V36.7644C133.298 38.1447 132.571 39.4263 131.395 40.1288L124.196 44.3556C123.02 45.0457 121.566 45.0457 120.378 44.3556L113.178 40.1288C112.003 39.4386 111.275 38.157 111.275 36.7644V28.3353C111.275 26.9551 112.003 25.6735 113.178 24.971L120.378 20.7441C121.554 20.054 123.008 20.054 124.196 20.7441L131.395 24.971C132.571 25.6735 133.298 26.9428 133.298 28.3353Z" fill="#BFDBEE" stroke="#0069B4" stroke-width="1.54042" stroke-linecap="round" stroke-linejoin="round"/>
<path d="M122.294 31.3188C123.854 31.3188 125.118 30.0332 125.118 28.4474C125.118 26.8617 123.854 25.5762 122.294 25.5762C120.734 25.5762 119.47 26.8617 119.47 28.4474C119.47 30.0332 120.734 31.3188 122.294 31.3188Z" fill="#BFDBEE" stroke="#0069B4" stroke-width="1.54042" stroke-linecap="round" stroke-linejoin="round"/>
<path d="M127.142 38.2957C127.142 36.0775 124.972 34.2783 122.294 34.2783C119.615 34.2783 117.445 36.0775 117.445 38.2957" fill="#BFDBEE"/>
<path d="M127.142 38.2957C127.142 36.0775 124.972 34.2783 122.294 34.2783C119.615 34.2783 117.445 36.0775 117.445 38.2957" stroke="#0069B4" stroke-width="1.54042" stroke-linecap="round" stroke-linejoin="round"/>
</g>
<rect x="-0.688446" y="-0.449894" width="1.16651" height="6.78333" rx="0.583253" transform="matrix(-0.202223 -0.97934 -0.978132 0.207986 152.34 36.6345)" fill="#999999" stroke="#0078CE" stroke-width="1.16651"/>
<rect x="0.462627" y="-0.70793" width="1.19248" height="6.58423" rx="0.596238" transform="matrix(0.978131 -0.207988 -0.202221 -0.97934 137.18 55.7253)" fill="#999999" stroke="#0078CE" stroke-width="1.19248"/>
<rect x="-0.169733" y="-0.809688" width="1.18304" height="6.65749" rx="0.591518" transform="matrix(0.556157 -0.831077 -0.843103 -0.537753 149.039 49.0142)" fill="#999999" stroke="#0078CE" stroke-width="1.18304"/>
<path d="M116.568 24.8567C111.801 17.8237 120.307 14.2764 120.307 14.2764C115.066 15.164 112.542 16.7234 109.216 20.4735C108.819 20.9212 108.479 21.4195 108.205 21.9519C106.915 24.4648 106.193 26.3851 105.555 28.8517C105.065 30.7443 105.03 32.7278 105.405 34.6465C105.746 36.3928 106.115 37.9368 106.655 39.8471C107.018 41.1329 107.609 42.3493 108.447 43.3901C110.209 45.5799 111.847 47.106 113.34 48.2373C114.219 48.9028 115.233 49.3563 116.286 49.6815L119.84 50.7785C119.84 50.7785 116.279 48.1141 122.644 45.4883C129.009 42.8625 121.336 31.8897 116.568 24.8567Z" fill="#0078CE" fill-opacity="0.2"/>
</g>
</g>
<defs>
<filter id="filter0_d_56393_736383" x="90.5942" y="6.76416" width="63.3682" height="63.4043" filterUnits="userSpaceOnUse" color-interpolation-filters="sRGB">
<feFlood flood-opacity="0" result="BackgroundImageFix"/>
<feColorMatrix in="SourceAlpha" type="matrix" values="0 0 0 0 0 0 0 0 0 0 0 0 0 0 0 0 0 0 127 0" result="hardAlpha"/>
<feOffset dy="6.3335"/>
<feGaussianBlur stdDeviation="6.3335"/>
<feColorMatrix type="matrix" values="0 0 0 0 0.0705882 0 0 0 0 0.105882 0 0 0 0 0.129412 0 0 0 0.1 0"/>
<feBlend mode="normal" in2="BackgroundImageFix" result="effect1_dropShadow_56393_736383"/>
<feBlend mode="normal" in="SourceGraphic" in2="effect1_dropShadow_56393_736383" result="shape"/>
</filter>
<clipPath id="clip0_56393_736383">
<rect width="196" height="121" fill="white"/>
</clipPath>
</defs>
</svg>
